<?xml version="1.0" encoding="UTF-8"?>
<svg height="600" width="800" xmlns="http://www.w3.org/2000/svg" xmlns:xlink="http://www.w3.org/1999/xlink">
    <g id="Notes" font-family="'LucidaGrande', 'Lucida Grande', sans-serif" font-size="13">
        <rect fill="white" height="600.0" width="800.0" x="0.0" y="0.0" />
        <g font-size="13">
            <text x="18.0" y="176.0">Small</text>
            <text x="18.0" y="376.0">Medium</text>
            <text x="18.0" y="576.0">Large</text>
        </g>
        <g font-size="9">
            <text x="250.0" y="30.0">Ultralight</text>
            <text x="450.0" y="30.0">Regular</text>
            <text x="650.0" y="30.0">Black</text>
            <text id="template-version" fill="#505050" text-anchor="end" x="785.0" y="575.0">Template v.3.0</text>
            <a href="https://wangchujiang.com/#/app">
                <text fill="#505050" text-anchor="end" x="785.0" y="590.0">https://wangchujiang.com/#/app</text>
            </a>
        </g>
    </g>
    <g id="Guides" stroke="rgb(39, 170, 225)" stroke-width="0.5">
        <path id="Capline-S" d="M18,76 l800,0" />
        <path id="H-reference" d="M85,145.755 L87.685,145.755 L113.369,79.287 L114.052,79.287 L114.052,76 L112.148,76 L85,145.755 Z M95.693,121.536 L130.996,121.536 L130.263,119.313 L96.474,119.313 L95.693,121.536 Z M139.15,145.755 L141.787,145.755 L114.638,76 L113.466,76 L113.466,79.287 L139.15,145.755 Z" stroke="none" />
        <path id="Baseline-S" d="M18,146 l800,0" />
        <path id="left-margin-Ultralight-S" d="M217.242,56 l0,110" />
        <path id="right-margin-Ultralight-S" d="M312.758,56 l0,110" />
        <path id="left-margin-Regular-S" d="M417.242,56 l0,110" />
        <path id="right-margin-Regular-S" d="M512.758,56 l0,110" />
        <path id="left-margin-Black-S" d="M617.242,56 l0,110" />
        <path id="right-margin-Black-S" d="M712.758,56 l0,110" />
        <path id="Capline-M" d="M18,276 l800,0" />
        <path id="Baseline-M" d="M18,346 l800,0" />
        <path id="Capline-L" d="M18,476 l800,0" />
        <path id="Baseline-L" d="M18,546 l800,0" />
    </g>
    <g id="Symbols">
        <g id="Ultralight-S">
            <path d="M264.895,76 C263.82,76 262.947,76.872 262.947,77.948 C262.947,79.023 263.82,79.895 264.895,79.895 C265.97,79.895 266.842,79.023 266.842,77.948 C266.842,76.872 265.97,76 264.895,76 Z M282.816,77.298 C282.492,77.287 282.163,77.338 281.842,77.456 L264.76,83.671 C263.474,84.14 262.771,85.527 263.155,86.841 L263.995,89.709 L248.158,83.947 C246.877,83.479 245.441,84.09 244.892,85.345 L233.382,111.578 C231.882,114.993 231.864,118.92 233.331,122.351 C234.453,124.975 236.391,127.165 238.808,128.624 L235.608,137.411 L230.727,135.633 C229.381,135.143 227.889,135.838 227.399,137.185 C226.909,138.533 227.604,140.022 228.951,140.512 L243.591,145.843 C243.884,145.949 244.182,146 244.479,146 C245.539,146 246.535,145.346 246.918,144.291 C247.409,142.943 246.716,141.452 245.369,140.961 L240.487,139.186 L243.687,130.397 C244.383,130.505 245.083,130.569 245.784,130.569 C247.896,130.569 250.002,130.08 251.914,129.114 C255.243,127.428 257.751,124.41 258.799,120.829 L265.95,96.391 L271.199,114.335 C272.248,117.916 274.76,120.937 278.089,122.622 C280,123.589 282.104,124.077 284.216,124.077 C284.917,124.077 285.617,124.013 286.313,123.905 L289.513,132.697 L284.631,134.472 C283.284,134.961 282.591,136.451 283.082,137.799 C283.465,138.853 284.462,139.508 285.521,139.508 C285.816,139.508 286.116,139.457 286.409,139.351 L301.049,134.023 C302.396,133.534 303.091,132.044 302.601,130.696 C302.111,129.348 300.617,128.657 299.273,129.144 L294.394,130.919 L291.197,122.132 C293.611,120.674 295.547,118.484 296.669,115.861 C298.136,112.431 298.118,108.504 296.618,105.086 L285.106,78.853 C284.693,77.911 283.785,77.331 282.816,77.298 Z M257.754,78.597 C256.319,78.597 255.157,79.759 255.157,81.193 C255.157,82.628 256.319,83.79 257.754,83.79 C259.188,83.79 260.35,82.628 260.35,81.193 C260.35,79.759 259.188,78.597 257.754,78.597 Z M281.33,83.169 L285.022,91.58 L269.954,91.58 L268.825,87.718 L281.33,83.169 Z M248.67,89.661 L261.177,94.213 L260.049,98.072 L244.978,98.072 L248.67,89.661 Z M271.475,96.774 L287.299,96.774 L291.864,107.173 C292.801,109.312 292.812,111.671 291.894,113.817 C290.976,115.965 289.259,117.586 287.066,118.384 C284.869,119.183 282.515,119.043 280.432,117.989 C278.349,116.935 276.84,115.118 276.184,112.877 L271.475,96.774 Z M283.721,99.371 C282.286,99.371 281.124,100.533 281.124,101.967 C281.124,103.402 282.286,104.564 283.721,104.564 C285.156,104.564 286.318,103.402 286.318,101.967 C286.318,100.533 285.156,99.371 283.721,99.371 Z M242.701,103.266 L258.527,103.266 L253.816,119.371 C253.16,121.612 251.651,123.425 249.568,124.481 C247.485,125.534 245.131,125.679 242.934,124.879 C240.74,124.079 239.024,122.457 238.106,120.309 C237.188,118.162 237.198,115.802 238.136,113.665 L242.701,103.266 Z M251.911,105.862 C250.836,105.862 249.964,106.735 249.964,107.81 C249.964,108.885 250.836,109.757 251.911,109.757 C252.986,109.757 253.859,108.885 253.859,107.81 C253.859,106.735 252.986,105.862 251.911,105.862 Z" />
        </g>
        <g id="Regular-S">
            <path d="M464.895,76 C463.82,76 462.947,76.872 462.947,77.948 C462.947,79.023 463.82,79.895 464.895,79.895 C465.97,79.895 466.842,79.023 466.842,77.948 C466.842,76.872 465.97,76 464.895,76 Z M482.816,77.298 C482.492,77.287 482.163,77.338 481.842,77.456 L464.76,83.671 C463.474,84.14 462.771,85.527 463.155,86.841 L463.995,89.709 L448.158,83.947 C446.877,83.479 445.441,84.09 444.892,85.345 L433.382,111.578 C431.882,114.993 431.864,118.92 433.331,122.351 C434.453,124.975 436.391,127.165 438.808,128.624 L435.608,137.411 L430.727,135.633 C429.381,135.143 427.889,135.838 427.4,137.185 C426.909,138.533 427.604,140.022 428.951,140.512 L443.591,145.843 C443.884,145.949 444.183,146 444.479,146 C445.539,146 446.535,145.346 446.918,144.291 C447.409,142.943 446.716,141.452 445.369,140.961 L440.487,139.186 L443.687,130.397 C444.383,130.505 445.083,130.569 445.785,130.569 C447.896,130.569 450.003,130.08 451.914,129.114 C455.243,127.428 457.751,124.41 458.799,120.829 L465.95,96.391 L471.199,114.335 C472.248,117.916 474.76,120.937 478.089,122.622 C480,123.589 482.104,124.077 484.216,124.077 C484.917,124.077 485.617,124.013 486.313,123.905 L489.513,132.697 L484.631,134.472 C483.284,134.961 482.591,136.451 483.082,137.799 C483.465,138.853 484.462,139.508 485.522,139.508 C485.816,139.508 486.116,139.457 486.409,139.351 L501.049,134.023 C502.396,133.534 503.091,132.044 502.601,130.696 C502.111,129.348 500.617,128.657 499.273,129.144 L494.395,130.919 L491.197,122.132 C493.611,120.674 495.547,118.484 496.669,115.861 C498.136,112.431 498.118,108.504 496.618,105.086 L485.106,78.853 C484.693,77.911 483.785,77.331 482.816,77.298 Z M457.754,78.597 C456.319,78.597 455.157,79.759 455.157,81.193 C455.157,82.628 456.319,83.79 457.754,83.79 C459.188,83.79 460.351,82.628 460.351,81.193 C460.351,79.759 459.188,78.597 457.754,78.597 Z M481.33,83.169 L485.022,91.58 L469.954,91.58 L468.825,87.718 L481.33,83.169 Z M448.67,89.661 L461.177,94.213 L460.049,98.072 L444.978,98.072 L448.67,89.661 Z M471.475,96.774 L487.299,96.774 L491.864,107.173 C492.801,109.312 492.812,111.671 491.894,113.817 C490.976,115.965 489.259,117.586 487.066,118.384 C484.869,119.183 482.515,119.043 480.432,117.989 C478.349,116.935 476.84,115.118 476.184,112.877 L471.475,96.774 Z M483.721,99.371 C482.286,99.371 481.124,100.533 481.124,101.967 C481.124,103.402 482.286,104.564 483.721,104.564 C485.156,104.564 486.318,103.402 486.318,101.967 C486.318,100.533 485.156,99.371 483.721,99.371 Z M442.701,103.266 L458.527,103.266 L453.816,119.371 C453.16,121.612 451.651,123.425 449.568,124.481 C447.485,125.534 445.131,125.679 442.934,124.879 C440.74,124.079 439.024,122.457 438.106,120.309 C437.188,118.162 437.198,115.802 438.136,113.665 L442.701,103.266 Z M451.911,105.862 C450.836,105.862 449.964,106.735 449.964,107.81 C449.964,108.885 450.836,109.757 451.911,109.757 C452.986,109.757 453.859,108.885 453.859,107.81 C453.859,106.735 452.986,105.862 451.911,105.862 Z" />
        </g>
        <g id="Black-S">
            <path d="M664.895,76 C663.82,76 662.947,76.872 662.947,77.948 C662.947,79.023 663.82,79.895 664.895,79.895 C665.97,79.895 666.842,79.023 666.842,77.948 C666.842,76.872 665.97,76 664.895,76 Z M682.816,77.298 C682.492,77.287 682.163,77.338 681.842,77.456 L664.76,83.671 C663.474,84.14 662.771,85.527 663.155,86.841 L663.995,89.709 L648.158,83.947 C646.877,83.479 645.441,84.09 644.892,85.345 L633.382,111.578 C631.882,114.993 631.864,118.92 633.331,122.351 C634.453,124.975 636.391,127.165 638.808,128.624 L635.608,137.411 L630.727,135.633 C629.381,135.143 627.889,135.838 627.399,137.185 C626.909,138.533 627.604,140.022 628.951,140.512 L643.591,145.843 C643.884,145.949 644.182,146 644.479,146 C645.539,146 646.535,145.346 646.918,144.291 C647.409,142.943 646.716,141.452 645.369,140.961 L640.487,139.186 L643.687,130.397 C644.383,130.505 645.083,130.569 645.784,130.569 C647.896,130.569 650.003,130.08 651.914,129.114 C655.243,127.428 657.751,124.41 658.799,120.829 L665.95,96.391 L671.199,114.335 C672.248,117.916 674.76,120.937 678.089,122.622 C680,123.589 682.104,124.077 684.216,124.077 C684.917,124.077 685.617,124.013 686.313,123.905 L689.513,132.697 L684.631,134.472 C683.284,134.961 682.591,136.451 683.082,137.799 C683.465,138.853 684.462,139.508 685.521,139.508 C685.816,139.508 686.116,139.457 686.409,139.351 L701.049,134.023 C702.396,133.534 703.091,132.044 702.601,130.696 C702.111,129.348 700.617,128.657 699.273,129.144 L694.394,130.919 L691.197,122.132 C693.611,120.674 695.547,118.484 696.669,115.861 C698.136,112.431 698.118,108.504 696.618,105.086 L685.106,78.853 C684.693,77.911 683.785,77.331 682.816,77.298 Z M657.754,78.597 C656.319,78.597 655.157,79.759 655.157,81.193 C655.157,82.628 656.319,83.79 657.754,83.79 C659.188,83.79 660.351,82.628 660.351,81.193 C660.351,79.759 659.188,78.597 657.754,78.597 Z M681.33,83.169 L685.022,91.58 L669.954,91.58 L668.825,87.718 L681.33,83.169 Z M648.67,89.661 L661.177,94.213 L660.049,98.072 L644.978,98.072 L648.67,89.661 Z M671.475,96.774 L687.299,96.774 L691.864,107.173 C692.801,109.312 692.812,111.671 691.894,113.817 C690.976,115.965 689.259,117.586 687.066,118.384 C684.869,119.183 682.515,119.043 680.432,117.989 C678.349,116.935 676.84,115.118 676.184,112.877 L671.475,96.774 Z M683.721,99.371 C682.286,99.371 681.124,100.533 681.124,101.967 C681.124,103.402 682.286,104.564 683.721,104.564 C685.156,104.564 686.318,103.402 686.318,101.967 C686.318,100.533 685.156,99.371 683.721,99.371 Z M642.701,103.266 L658.527,103.266 L653.816,119.371 C653.16,121.612 651.651,123.425 649.568,124.481 C647.485,125.534 645.131,125.679 642.934,124.879 C640.74,124.079 639.024,122.457 638.106,120.309 C637.188,118.162 637.198,115.802 638.136,113.665 L642.701,103.266 Z M651.911,105.862 C650.836,105.862 649.964,106.735 649.964,107.81 C649.964,108.885 650.836,109.757 651.911,109.757 C652.986,109.757 653.859,108.885 653.859,107.81 C653.859,106.735 652.986,105.862 651.911,105.862 Z" />
        </g>
    </g>
</svg>