<?xml version="1.0" encoding="UTF-8"?>
<svg height="600" width="800" xmlns="http://www.w3.org/2000/svg" xmlns:xlink="http://www.w3.org/1999/xlink">
    <g id="Notes" font-family="'LucidaGrande', 'Lucida Grande', sans-serif" font-size="13">
        <rect fill="white" height="600.0" width="800.0" x="0.0" y="0.0" />
        <g font-size="13">
            <text x="18.0" y="176.0">Small</text>
            <text x="18.0" y="376.0">Medium</text>
            <text x="18.0" y="576.0">Large</text>
        </g>
        <g font-size="9">
            <text x="250.0" y="30.0">Ultralight</text>
            <text x="450.0" y="30.0">Regular</text>
            <text x="650.0" y="30.0">Black</text>
            <text id="template-version" fill="#505050" text-anchor="end" x="785.0" y="575.0">Template v.3.0</text>
            <a href="https://wangchujiang.com/#/app">
                <text fill="#505050" text-anchor="end" x="785.0" y="590.0">https://wangchujiang.com/#/app</text>
            </a>
        </g>
    </g>
    <g id="Guides" stroke="rgb(39, 170, 225)" stroke-width="0.5">
        <path id="Capline-S" d="M18,76 l800,0" />
        <path id="H-reference" d="M85,145.755 L87.685,145.755 L113.369,79.287 L114.052,79.287 L114.052,76 L112.148,76 L85,145.755 Z M95.693,121.536 L130.996,121.536 L130.263,119.313 L96.474,119.313 L95.693,121.536 Z M139.15,145.755 L141.787,145.755 L114.638,76 L113.466,76 L113.466,79.287 L139.15,145.755 Z" stroke="none" />
        <path id="Baseline-S" d="M18,146 l800,0" />
        <path id="left-margin-Ultralight-S" d="M220.602,56 l0,110" />
        <path id="right-margin-Ultralight-S" d="M309.398,56 l0,110" />
        <path id="left-margin-Regular-S" d="M420.602,56 l0,110" />
        <path id="right-margin-Regular-S" d="M509.398,56 l0,110" />
        <path id="left-margin-Black-S" d="M620.602,56 l0,110" />
        <path id="right-margin-Black-S" d="M709.398,56 l0,110" />
        <path id="Capline-M" d="M18,276 l800,0" />
        <path id="Baseline-M" d="M18,346 l800,0" />
        <path id="Capline-L" d="M18,476 l800,0" />
        <path id="Baseline-L" d="M18,546 l800,0" />
    </g>
    <g id="Symbols">
        <g id="Ultralight-S">
            <path d="M262.633,76.002 C254.799,76.086 246.856,79.346 239.549,85.809 C226.15,97.658 231.056,119.7 233.692,131.541 C234.254,134.069 234.741,136.254 234.91,137.681 C235.062,138.947 235.98,139.987 237.216,140.296 C238.845,140.703 240.635,141.219 242.551,141.768 C249.074,143.645 257.263,146 265.611,146 C273.972,146 282.495,143.636 289.658,136.058 C303.279,121.655 302.578,103.649 287.777,87.893 C280.255,79.885 271.512,75.906 262.633,76.002 Z M263.917,82.216 C270.731,82.507 277.395,85.809 283.303,92.098 C291.661,100.996 293.882,109.003 293.203,115.688 C293.171,115.703 293.138,115.709 293.107,115.724 C286.883,118.822 275.848,114.918 267.441,106.643 C259.659,98.985 255.666,89.108 257.7,82.816 C259.775,82.35 261.852,82.128 263.917,82.216 Z M251.048,85.242 C250.572,93.286 254.999,103.016 263.131,111.022 C270.873,118.643 280.2,122.925 288.071,122.925 C289.208,122.925 290.303,122.81 291.37,122.628 C289.75,126.411 287.377,129.534 285.198,131.838 C273.445,144.264 256.568,139.409 244.249,135.866 C243.005,135.508 241.812,135.166 240.677,134.855 C240.422,133.495 240.073,131.927 239.69,130.207 C237.164,118.855 232.935,99.857 243.622,90.406 C246.045,88.264 248.531,86.545 251.048,85.242 Z M275.778,92.524 C274.992,92.524 274.206,92.824 273.607,93.423 C272.407,94.624 272.407,96.57 273.607,97.769 L278.801,102.963 C279.402,103.564 280.186,103.863 280.972,103.863 C281.759,103.863 282.545,103.564 283.144,102.963 C284.343,101.763 284.343,99.817 283.144,98.618 L277.949,93.423 C277.35,92.824 276.564,92.523 275.778,92.524 Z" />
        </g>
        <g id="Regular-S">
            <path d="M462.633,76.002 C454.799,76.086 446.856,79.346 439.549,85.809 C426.15,97.658 431.056,119.7 433.692,131.541 C434.254,134.069 434.741,136.254 434.91,137.681 C435.062,138.947 435.98,139.987 437.216,140.296 C438.845,140.703 440.635,141.219 442.551,141.768 C449.074,143.645 457.263,146 465.611,146 C473.972,146 482.495,143.636 489.658,136.058 C503.279,121.655 502.578,103.649 487.777,87.893 C480.255,79.885 471.512,75.906 462.633,76.002 Z M463.917,82.216 C470.731,82.507 477.395,85.809 483.303,92.098 C491.661,100.996 493.882,109.003 493.203,115.688 C493.171,115.703 493.138,115.709 493.107,115.724 C486.883,118.822 475.848,114.918 467.441,106.643 C459.659,98.985 455.666,89.108 457.7,82.816 C459.775,82.35 461.852,82.128 463.917,82.216 Z M451.048,85.242 C450.572,93.286 454.999,103.016 463.131,111.022 C470.873,118.643 480.2,122.925 488.071,122.925 C489.208,122.925 490.303,122.81 491.37,122.628 C489.75,126.411 487.377,129.534 485.198,131.838 C473.445,144.264 456.568,139.409 444.249,135.866 C443.005,135.508 441.812,135.166 440.677,134.855 C440.422,133.495 440.073,131.927 439.69,130.207 C437.164,118.855 432.935,99.857 443.622,90.406 C446.045,88.264 448.531,86.545 451.048,85.242 Z M475.778,92.524 C474.992,92.524 474.206,92.824 473.607,93.423 C472.407,94.624 472.407,96.57 473.607,97.769 L478.801,102.963 C479.402,103.564 480.186,103.863 480.972,103.863 C481.759,103.863 482.545,103.564 483.144,102.963 C484.343,101.763 484.343,99.817 483.144,98.618 L477.949,93.423 C477.35,92.824 476.564,92.523 475.778,92.524 Z" />
        </g>
        <g id="Black-S">
            <path d="M662.633,76.002 C654.799,76.086 646.856,79.346 639.549,85.809 C626.15,97.658 631.056,119.7 633.692,131.541 C634.254,134.069 634.741,136.254 634.91,137.681 C635.062,138.947 635.98,139.987 637.216,140.296 C638.845,140.703 640.635,141.219 642.551,141.768 C649.074,143.645 657.263,146 665.611,146 C673.972,146 682.495,143.636 689.658,136.058 C703.279,121.655 702.578,103.649 687.777,87.893 C680.255,79.885 671.512,75.906 662.633,76.002 Z M663.917,82.216 C670.731,82.507 677.395,85.809 683.303,92.098 C691.661,100.996 693.882,109.003 693.203,115.688 C693.171,115.703 693.138,115.709 693.107,115.724 C686.883,118.822 675.848,114.918 667.441,106.643 C659.659,98.985 655.666,89.108 657.7,82.816 C659.775,82.35 661.853,82.128 663.917,82.216 Z M651.048,85.242 C650.572,93.286 654.999,103.016 663.131,111.022 C670.873,118.643 680.2,122.925 688.071,122.925 C689.208,122.925 690.303,122.81 691.37,122.628 C689.75,126.411 687.377,129.534 685.198,131.838 C673.445,144.264 656.568,139.409 644.249,135.866 C643.005,135.508 641.812,135.166 640.677,134.855 C640.422,133.495 640.073,131.927 639.69,130.207 C637.164,118.855 632.935,99.857 643.622,90.406 C646.045,88.264 648.531,86.545 651.048,85.242 Z M675.778,92.524 C674.992,92.524 674.206,92.824 673.607,93.423 C672.408,94.624 672.408,96.57 673.607,97.769 L678.801,102.963 C679.402,103.564 680.186,103.863 680.972,103.863 C681.759,103.863 682.545,103.564 683.144,102.963 C684.343,101.763 684.343,99.817 683.144,98.618 L677.949,93.423 C677.35,92.824 676.564,92.523 675.778,92.524 Z" />
        </g>
    </g>
</svg>