<?xml version="1.0" encoding="UTF-8"?>
<svg height="600" width="800" xmlns="http://www.w3.org/2000/svg" xmlns:xlink="http://www.w3.org/1999/xlink">
    <g id="Notes" font-family="'LucidaGrande', 'Lucida Grande', sans-serif" font-size="13">
        <rect fill="white" height="600.0" width="800.0" x="0.0" y="0.0" />
        <g font-size="13">
            <text x="18.0" y="176.0">Small</text>
            <text x="18.0" y="376.0">Medium</text>
            <text x="18.0" y="576.0">Large</text>
        </g>
        <g font-size="9">
            <text x="250.0" y="30.0">Ultralight</text>
            <text x="450.0" y="30.0">Regular</text>
            <text x="650.0" y="30.0">Black</text>
            <text id="template-version" fill="#505050" text-anchor="end" x="785.0" y="575.0">Template v.3.0</text>
            <a href="https://wangchujiang.com/#/app">
                <text fill="#505050" text-anchor="end" x="785.0" y="590.0">https://wangchujiang.com/#/app</text>
            </a>
        </g>
    </g>
    <g id="Guides" stroke="rgb(39, 170, 225)" stroke-width="0.5">
        <path id="Capline-S" d="M18,76 l800,0" />
        <path id="H-reference" d="M85,145.755 L87.685,145.755 L113.369,79.287 L114.052,79.287 L114.052,76 L112.148,76 L85,145.755 Z M95.693,121.536 L130.996,121.536 L130.263,119.313 L96.474,119.313 L95.693,121.536 Z M139.15,145.755 L141.787,145.755 L114.638,76 L113.466,76 L113.466,79.287 L139.15,145.755 Z" stroke="none" />
        <path id="Baseline-S" d="M18,146 l800,0" />
        <path id="left-margin-Ultralight-S" d="M221,56 l0,110" />
        <path id="right-margin-Ultralight-S" d="M309,56 l0,110" />
        <path id="left-margin-Regular-S" d="M421,56 l0,110" />
        <path id="right-margin-Regular-S" d="M509,56 l0,110" />
        <path id="left-margin-Black-S" d="M621,56 l0,110" />
        <path id="right-margin-Black-S" d="M709,56 l0,110" />
        <path id="Capline-M" d="M18,276 l800,0" />
        <path id="Baseline-M" d="M18,346 l800,0" />
        <path id="Capline-L" d="M18,476 l800,0" />
        <path id="Baseline-L" d="M18,546 l800,0" />
    </g>
    <g id="Symbols">
        <g id="Ultralight-S">
            <path d="M252.26,76.014 C251.158,76.154 250.405,77.31 250.84,78.425 C251.681,80.578 253.263,83.623 256.021,85.816 C258.299,87.626 260.928,88.5 263.075,88.946 C262.766,90.056 262.529,91.262 262.369,92.563 C262.051,92.442 261.763,92.351 261.395,92.2 C259.317,91.348 256.731,90.286 252.143,90.286 C239.013,90.286 232.143,102.503 232.143,114.571 C232.143,132.559 245.719,146 257.857,146 C260.94,146 263.403,144.884 265,143.874 C266.597,144.884 269.06,146 272.143,146 C284.281,146 297.857,132.559 297.857,114.571 C297.857,102.503 290.987,90.286 277.857,90.286 C273.269,90.286 270.683,91.348 268.605,92.2 C268.437,92.269 268.317,92.304 268.161,92.367 C269.309,85.546 273.433,82.85 273.613,82.736 C274.968,81.923 275.404,80.168 274.593,78.815 C273.78,77.463 272.025,77.023 270.672,77.836 C270.463,77.962 267.419,79.862 265.025,84.156 C264.11,82.522 262.872,80.798 261.119,79.404 C258.36,77.211 255.038,76.352 252.751,76.02 C252.582,75.995 252.418,75.994 252.26,76.014 Z M252.143,96 C255.604,96 257.443,96.754 259.222,97.484 C260.864,98.159 262.566,98.857 265,98.857 C267.434,98.857 269.136,98.159 270.778,97.484 C272.557,96.754 274.396,96 277.857,96 C284.737,96 292.143,101.811 292.143,114.571 C292.143,130.269 280.297,140.286 272.143,140.286 C270.55,140.286 268.63,139.407 267.185,138.584 C265.838,137.818 264.192,137.815 262.843,138.578 C261.387,139.402 259.454,140.286 257.857,140.286 C249.703,140.286 237.857,130.269 237.857,114.571 C237.857,101.811 245.263,96 252.143,96 Z" />
        </g>
        <g id="Regular-S">
            <path d="M452.26,76.014 C451.158,76.154 450.405,77.31 450.84,78.425 C451.681,80.578 453.263,83.623 456.021,85.816 C458.299,87.626 460.928,88.5 463.075,88.946 C462.766,90.056 462.529,91.262 462.369,92.563 C462.051,92.442 461.763,92.351 461.395,92.2 C459.317,91.348 456.731,90.286 452.143,90.286 C439.013,90.286 432.143,102.503 432.143,114.571 C432.143,132.559 445.719,146 457.857,146 C460.94,146 463.403,144.884 465,143.874 C466.597,144.884 469.06,146 472.143,146 C484.281,146 497.857,132.559 497.857,114.571 C497.857,102.503 490.987,90.286 477.857,90.286 C473.269,90.286 470.683,91.348 468.605,92.2 C468.437,92.269 468.317,92.304 468.161,92.367 C469.309,85.546 473.433,82.85 473.613,82.736 C474.968,81.923 475.404,80.168 474.593,78.815 C473.78,77.463 472.025,77.023 470.672,77.836 C470.463,77.962 467.419,79.862 465.025,84.156 C464.11,82.522 462.872,80.798 461.119,79.404 C458.36,77.211 455.038,76.352 452.751,76.02 C452.582,75.995 452.418,75.994 452.26,76.014 Z M452.143,96 C455.604,96 457.443,96.754 459.222,97.484 C460.864,98.159 462.566,98.857 465,98.857 C467.434,98.857 469.136,98.159 470.778,97.484 C472.557,96.754 474.396,96 477.857,96 C484.737,96 492.143,101.811 492.143,114.571 C492.143,130.269 480.297,140.286 472.143,140.286 C470.55,140.286 468.63,139.407 467.185,138.584 C465.838,137.818 464.192,137.815 462.843,138.578 C461.387,139.402 459.454,140.286 457.857,140.286 C449.703,140.286 437.857,130.269 437.857,114.571 C437.857,101.811 445.263,96 452.143,96 Z" />
        </g>
        <g id="Black-S">
            <path d="M652.26,76.014 C651.158,76.154 650.405,77.31 650.84,78.425 C651.681,80.578 653.263,83.623 656.021,85.816 C658.299,87.626 660.929,88.5 663.075,88.946 C662.766,90.056 662.529,91.262 662.369,92.563 C662.051,92.442 661.763,92.351 661.395,92.2 C659.317,91.348 656.731,90.286 652.143,90.286 C639.013,90.286 632.143,102.503 632.143,114.571 C632.143,132.559 645.719,146 657.857,146 C660.94,146 663.403,144.884 665,143.874 C666.597,144.884 669.06,146 672.143,146 C684.281,146 697.857,132.559 697.857,114.571 C697.857,102.503 690.987,90.286 677.857,90.286 C673.269,90.286 670.683,91.348 668.605,92.2 C668.437,92.269 668.317,92.304 668.161,92.367 C669.309,85.546 673.433,82.85 673.613,82.736 C674.968,81.923 675.404,80.168 674.593,78.815 C673.78,77.463 672.025,77.023 670.672,77.836 C670.463,77.962 667.419,79.862 665.025,84.156 C664.11,82.522 662.872,80.798 661.119,79.404 C658.36,77.211 655.038,76.352 652.751,76.02 C652.582,75.995 652.418,75.994 652.26,76.014 Z M652.143,96 C655.604,96 657.443,96.754 659.222,97.484 C660.864,98.159 662.566,98.857 665,98.857 C667.434,98.857 669.136,98.159 670.778,97.484 C672.557,96.754 674.396,96 677.857,96 C684.737,96 692.143,101.811 692.143,114.571 C692.143,130.269 680.297,140.286 672.143,140.286 C670.55,140.286 668.63,139.407 667.185,138.584 C665.838,137.818 664.192,137.815 662.843,138.578 C661.388,139.402 659.454,140.286 657.857,140.286 C649.703,140.286 637.857,130.269 637.857,114.571 C637.857,101.811 645.263,96 652.143,96 Z" />
        </g>
    </g>
</svg>