<?xml version="1.0" encoding="UTF-8"?>
<svg height="600" width="800" xmlns="http://www.w3.org/2000/svg" xmlns:xlink="http://www.w3.org/1999/xlink">
    <g id="Notes" font-family="'LucidaGrande', 'Lucida Grande', sans-serif" font-size="13">
        <rect fill="white" height="600.0" width="800.0" x="0.0" y="0.0" />
        <g font-size="13">
            <text x="18.0" y="176.0">Small</text>
            <text x="18.0" y="376.0">Medium</text>
            <text x="18.0" y="576.0">Large</text>
        </g>
        <g font-size="9">
            <text x="250.0" y="30.0">Ultralight</text>
            <text x="450.0" y="30.0">Regular</text>
            <text x="650.0" y="30.0">Black</text>
            <text id="template-version" fill="#505050" text-anchor="end" x="785.0" y="575.0">Template v.3.0</text>
            <a href="https://wangchujiang.com/#/app">
                <text fill="#505050" text-anchor="end" x="785.0" y="590.0">https://wangchujiang.com/#/app</text>
            </a>
        </g>
    </g>
    <g id="Guides" stroke="rgb(39, 170, 225)" stroke-width="0.5">
        <path id="Capline-S" d="M18,76 l800,0" />
        <path id="H-reference" d="M85,145.755 L87.685,145.755 L113.369,79.287 L114.052,79.287 L114.052,76 L112.148,76 L85,145.755 Z M95.693,121.536 L130.996,121.536 L130.263,119.313 L96.474,119.313 L95.693,121.536 Z M139.15,145.755 L141.787,145.755 L114.638,76 L113.466,76 L113.466,79.287 L139.15,145.755 Z" stroke="none" />
        <path id="Baseline-S" d="M18,146 l800,0" />
        <path id="left-margin-Ultralight-S" d="M221,56 l0,110" />
        <path id="right-margin-Ultralight-S" d="M309,56 l0,110" />
        <path id="left-margin-Regular-S" d="M421,56 l0,110" />
        <path id="right-margin-Regular-S" d="M509,56 l0,110" />
        <path id="left-margin-Black-S" d="M621,56 l0,110" />
        <path id="right-margin-Black-S" d="M709,56 l0,110" />
        <path id="Capline-M" d="M18,276 l800,0" />
        <path id="Baseline-M" d="M18,346 l800,0" />
        <path id="Capline-L" d="M18,476 l800,0" />
        <path id="Baseline-L" d="M18,546 l800,0" />
    </g>
    <g id="Symbols">
        <g id="Ultralight-S">
            <path d="M278.078,141.809 C278.122,140.688 278.566,121.963 278.673,119.24 C278.726,117.869 277.608,117.055 275.89,115.959 C274.254,114.915 272.93,113.619 272.93,110.37 C272.93,98.663 275.558,88.874 278.467,82.642 C280.318,78.678 282.183,76 283.874,76 C284.904,76 286.292,76.56 286.292,78.321 C286.292,79.139 286.292,140.237 286.292,142.299 C286.292,144.361 285.066,146 282.138,146 C279.51,146 277.968,144.541 278.078,141.809 Z M264.087,78.315 C264.143,79.249 264.963,93.877 264.963,98.231 C264.963,104.128 260.62,105.31 259.958,105.654 C258.943,106.182 257.903,106.334 257.903,108.611 C257.903,110.032 258.479,140.857 258.479,142.075 C258.479,143.294 258.12,146 254.336,146 C250.551,146 250.192,143.294 250.192,142.075 C250.192,140.857 250.769,110.032 250.769,108.611 C250.769,106.334 249.728,106.182 248.713,105.654 C248.051,105.31 243.708,104.128 243.708,98.231 C243.708,93.877 244.528,79.249 244.584,78.315 C244.662,77.032 245.537,76.408 246.581,76.408 C247.855,76.408 248.606,77.16 248.62,78.669 C248.631,79.89 248.415,94.863 248.415,96.198 C248.415,97.533 248.647,98.403 250.098,98.403 C251.548,98.403 251.896,97.706 251.956,96.198 C252.015,94.69 252.129,79.249 252.188,78.147 C252.248,77.045 253.001,76 254.336,76 C255.67,76 256.425,77.045 256.483,78.147 C256.541,79.249 256.656,94.69 256.716,96.198 C256.775,97.706 257.122,98.403 258.574,98.403 C260.025,98.403 260.257,97.533 260.257,96.198 C260.257,94.863 260.041,79.89 260.051,78.669 C260.065,77.16 260.817,76.408 262.09,76.408 C263.134,76.408 264.009,77.032 264.087,78.315 Z" />
        </g>
        <g id="Regular-S">
            <path d="M478.078,141.809 C478.122,140.688 478.566,121.963 478.673,119.24 C478.726,117.869 477.608,117.055 475.89,115.959 C474.254,114.915 472.93,113.619 472.93,110.37 C472.93,98.663 475.558,88.874 478.467,82.642 C480.318,78.678 482.183,76 483.874,76 C484.904,76 486.292,76.56 486.292,78.321 C486.292,79.139 486.292,140.237 486.292,142.299 C486.292,144.361 485.066,146 482.138,146 C479.51,146 477.968,144.541 478.078,141.809 Z M464.087,78.315 C464.143,79.249 464.963,93.877 464.963,98.231 C464.963,104.128 460.62,105.31 459.958,105.654 C458.943,106.182 457.903,106.334 457.903,108.611 C457.903,110.032 458.479,140.857 458.479,142.075 C458.479,143.294 458.12,146 454.336,146 C450.551,146 450.192,143.294 450.192,142.075 C450.192,140.857 450.769,110.032 450.769,108.611 C450.769,106.334 449.728,106.182 448.713,105.654 C448.051,105.31 443.708,104.128 443.708,98.231 C443.708,93.877 444.528,79.249 444.584,78.315 C444.662,77.032 445.537,76.408 446.581,76.408 C447.855,76.408 448.606,77.16 448.62,78.669 C448.631,79.89 448.415,94.863 448.415,96.198 C448.415,97.533 448.647,98.403 450.098,98.403 C451.548,98.403 451.896,97.706 451.956,96.198 C452.015,94.69 452.129,79.249 452.188,78.147 C452.248,77.045 453.001,76 454.336,76 C455.67,76 456.425,77.045 456.483,78.147 C456.541,79.249 456.656,94.69 456.716,96.198 C456.775,97.706 457.122,98.403 458.574,98.403 C460.025,98.403 460.257,97.533 460.257,96.198 C460.257,94.863 460.041,79.89 460.051,78.669 C460.065,77.16 460.817,76.408 462.09,76.408 C463.134,76.408 464.009,77.032 464.087,78.315 Z" />
        </g>
        <g id="Black-S">
            <path d="M678.078,141.809 C678.122,140.688 678.566,121.963 678.673,119.24 C678.726,117.869 677.608,117.055 675.89,115.959 C674.254,114.915 672.93,113.619 672.93,110.37 C672.93,98.663 675.558,88.874 678.467,82.642 C680.318,78.678 682.183,76 683.874,76 C684.904,76 686.292,76.56 686.292,78.321 C686.292,79.139 686.292,140.237 686.292,142.299 C686.292,144.361 685.066,146 682.138,146 C679.51,146 677.968,144.541 678.078,141.809 Z M664.087,78.315 C664.143,79.249 664.964,93.877 664.964,98.231 C664.964,104.128 660.62,105.31 659.958,105.654 C658.943,106.182 657.903,106.334 657.903,108.611 C657.903,110.032 658.479,140.857 658.479,142.075 C658.479,143.294 658.12,146 654.336,146 C650.551,146 650.192,143.294 650.192,142.075 C650.192,140.857 650.769,110.032 650.769,108.611 C650.769,106.334 649.728,106.182 648.713,105.654 C648.051,105.31 643.708,104.128 643.708,98.231 C643.708,93.877 644.528,79.249 644.584,78.315 C644.662,77.032 645.537,76.408 646.581,76.408 C647.855,76.408 648.606,77.16 648.62,78.669 C648.631,79.89 648.415,94.863 648.415,96.198 C648.415,97.533 648.647,98.403 650.098,98.403 C651.548,98.403 651.896,97.706 651.956,96.198 C652.015,94.69 652.129,79.249 652.188,78.147 C652.248,77.045 653.001,76 654.336,76 C655.67,76 656.425,77.045 656.483,78.147 C656.541,79.249 656.656,94.69 656.716,96.198 C656.775,97.706 657.122,98.403 658.574,98.403 C660.025,98.403 660.257,97.533 660.257,96.198 C660.257,94.863 660.041,79.89 660.051,78.669 C660.065,77.16 660.817,76.408 662.09,76.408 C663.134,76.408 664.009,77.032 664.087,78.315 Z" />
        </g>
    </g>
</svg>