<?xml version="1.0" encoding="UTF-8"?>
<svg height="600" width="800" xmlns="http://www.w3.org/2000/svg" xmlns:xlink="http://www.w3.org/1999/xlink">
    <g id="Notes" font-family="'LucidaGrande', 'Lucida Grande', sans-serif" font-size="13">
        <rect fill="white" height="600.0" width="800.0" x="0.0" y="0.0" />
        <g font-size="13">
            <text x="18.0" y="176.0">Small</text>
            <text x="18.0" y="376.0">Medium</text>
            <text x="18.0" y="576.0">Large</text>
        </g>
        <g font-size="9">
            <text x="250.0" y="30.0">Ultralight</text>
            <text x="450.0" y="30.0">Regular</text>
            <text x="650.0" y="30.0">Black</text>
            <text id="template-version" fill="#505050" text-anchor="end" x="785.0" y="575.0">Template v.3.0</text>
            <a href="https://wangchujiang.com/#/app">
                <text fill="#505050" text-anchor="end" x="785.0" y="590.0">https://wangchujiang.com/#/app</text>
            </a>
        </g>
    </g>
    <g id="Guides" stroke="rgb(39, 170, 225)" stroke-width="0.5">
        <path id="Capline-S" d="M18,76 l800,0" />
        <path id="H-reference" d="M85,145.755 L87.685,145.755 L113.369,79.287 L114.052,79.287 L114.052,76 L112.148,76 L85,145.755 Z M95.693,121.536 L130.996,121.536 L130.263,119.313 L96.474,119.313 L95.693,121.536 Z M139.15,145.755 L141.787,145.755 L114.638,76 L113.466,76 L113.466,79.287 L139.15,145.755 Z" stroke="none" />
        <path id="Baseline-S" d="M18,146 l800,0" />
        <path id="left-margin-Ultralight-S" d="M221,56 l0,110" />
        <path id="right-margin-Ultralight-S" d="M309,56 l0,110" />
        <path id="left-margin-Regular-S" d="M421,56 l0,110" />
        <path id="right-margin-Regular-S" d="M509,56 l0,110" />
        <path id="left-margin-Black-S" d="M621,56 l0,110" />
        <path id="right-margin-Black-S" d="M709,56 l0,110" />
        <path id="Capline-M" d="M18,276 l800,0" />
        <path id="Baseline-M" d="M18,346 l800,0" />
        <path id="Capline-L" d="M18,476 l800,0" />
        <path id="Baseline-L" d="M18,546 l800,0" />
    </g>
    <g id="Symbols">
        <g id="Ultralight-S">
            <path d="M284.332,76.004 C283.927,76.018 283.52,76.063 283.114,76.141 C279.874,76.77 277.379,79.383 276.9,82.644 C276.745,83.626 276.548,84.604 276.33,85.58 C275.309,85.679 274.506,86.531 274.506,87.577 C274.506,88.259 274.85,88.86 275.37,89.225 C273.285,96.073 269.718,102.674 265.101,108.518 C264.888,108.443 264.663,108.394 264.425,108.394 C263.311,108.394 262.408,109.297 262.408,110.409 C262.408,110.772 262.513,111.108 262.681,111.402 C258.219,116.422 252.972,120.753 247.255,124.027 C246.889,123.508 246.288,123.168 245.606,123.168 C244.493,123.168 243.589,124.07 243.589,125.182 C243.589,125.431 243.641,125.665 243.723,125.884 C241.86,126.778 239.956,127.566 238.022,128.221 C234.823,129.242 232.661,132.181 232.641,135.537 C232.623,138.893 234.751,141.861 237.966,142.925 C241.888,144.181 246.295,144.79 251.434,144.79 C252.899,144.79 254.347,144.71 255.78,144.558 C256.029,145.39 256.79,146 257.702,146 C258.816,146 259.72,145.097 259.72,143.985 C259.72,143.969 259.714,143.956 259.714,143.941 C271.358,141.565 281.541,134.323 288.08,124.429 C288.253,124.478 288.433,124.512 288.622,124.512 C289.735,124.512 290.636,123.609 290.636,122.497 C290.636,121.957 290.423,121.469 290.077,121.107 C293.081,115.623 295.01,109.481 295.561,103 C296.57,102.889 297.359,102.043 297.359,101.006 C297.359,100.027 296.658,99.214 295.731,99.033 C295.715,90.778 294.395,85.028 291.325,79.861 C289.869,77.364 287.162,75.909 284.332,76.004 Z M284.597,81.257 C285.484,81.257 286.324,81.725 286.79,82.526 C289.407,86.929 290.474,91.757 290.474,99.182 C290.474,120.678 272.231,139.533 251.434,139.533 C246.848,139.533 242.968,139.004 239.596,137.926 C238.579,137.588 237.897,136.639 237.904,135.568 C237.91,134.496 238.602,133.556 239.668,133.215 C261.185,125.925 278.633,105.457 282.1,83.447 C282.102,83.436 282.104,83.424 282.106,83.413 C282.257,82.355 283.068,81.508 284.118,81.303 C284.279,81.273 284.438,81.257 284.597,81.257 Z M287.278,92.277 C286.164,92.277 285.26,93.179 285.26,94.291 C285.26,95.403 286.164,96.304 287.278,96.304 C288.391,96.304 289.295,95.403 289.295,94.291 C289.295,93.181 288.391,92.277 287.278,92.277 Z M280.555,100.335 C279.442,100.335 278.541,101.237 278.541,102.348 C278.541,103.458 279.442,104.362 280.555,104.362 C281.669,104.362 282.572,103.46 282.572,102.348 C282.572,101.237 281.669,100.335 280.555,100.335 Z M279.211,115.109 C278.099,115.109 277.194,116.012 277.194,117.124 C277.194,118.236 278.098,119.136 279.211,119.136 C280.325,119.136 281.228,118.236 281.228,117.124 C281.228,116.012 280.325,115.109 279.211,115.109 Z M268.457,119.138 C267.345,119.138 266.442,120.041 266.442,121.153 C266.442,122.265 267.343,123.168 268.457,123.168 C269.57,123.168 270.474,122.265 270.474,121.153 C270.474,120.041 269.57,119.138 268.457,119.138 Z M265.769,129.883 C264.655,129.883 263.754,130.785 263.754,131.897 C263.754,133.009 264.655,133.912 265.769,133.912 C266.882,133.912 267.786,133.009 267.786,131.897 C267.786,130.785 266.882,129.883 265.769,129.883 Z M252.326,131.226 C251.213,131.226 250.312,132.13 250.312,133.241 C250.312,134.352 251.213,135.253 252.326,135.253 C253.44,135.253 254.344,134.353 254.344,133.241 C254.344,132.13 253.44,131.226 252.326,131.226 Z" />
        </g>
        <g id="Regular-S">
            <path d="M484.332,76.004 C483.927,76.018 483.52,76.063 483.114,76.141 C479.874,76.77 477.379,79.383 476.9,82.644 C476.745,83.626 476.548,84.604 476.33,85.58 C475.309,85.679 474.506,86.531 474.506,87.577 C474.506,88.259 474.85,88.86 475.37,89.225 C473.285,96.073 469.718,102.674 465.101,108.518 C464.888,108.443 464.663,108.394 464.425,108.394 C463.311,108.394 462.408,109.297 462.408,110.409 C462.408,110.772 462.513,111.108 462.681,111.402 C458.219,116.422 452.972,120.753 447.255,124.027 C446.889,123.508 446.288,123.168 445.606,123.168 C444.493,123.168 443.589,124.07 443.589,125.182 C443.589,125.431 443.641,125.665 443.723,125.884 C441.86,126.778 439.956,127.566 438.022,128.221 C434.823,129.242 432.661,132.181 432.641,135.537 C432.623,138.893 434.751,141.861 437.966,142.925 C441.888,144.181 446.295,144.79 451.434,144.79 C452.899,144.79 454.347,144.71 455.78,144.558 C456.029,145.39 456.79,146 457.702,146 C458.816,146 459.72,145.097 459.72,143.985 C459.72,143.969 459.714,143.956 459.714,143.941 C471.358,141.565 481.541,134.323 488.08,124.429 C488.253,124.478 488.433,124.512 488.622,124.512 C489.735,124.512 490.636,123.609 490.636,122.497 C490.636,121.957 490.423,121.469 490.077,121.107 C493.081,115.623 495.01,109.481 495.561,103 C496.57,102.889 497.359,102.043 497.359,101.006 C497.359,100.027 496.658,99.214 495.731,99.033 C495.715,90.778 494.395,85.028 491.325,79.861 C489.869,77.364 487.162,75.909 484.332,76.004 Z M484.598,81.257 C485.484,81.257 486.324,81.725 486.79,82.526 C489.407,86.929 490.474,91.757 490.474,99.182 C490.474,120.678 472.231,139.533 451.434,139.533 C446.848,139.533 442.968,139.004 439.596,137.926 C438.579,137.588 437.897,136.639 437.904,135.568 C437.91,134.496 438.602,133.556 439.668,133.215 C461.185,125.925 478.633,105.457 482.1,83.447 C482.102,83.436 482.104,83.424 482.106,83.413 C482.257,82.355 483.068,81.508 484.118,81.303 C484.279,81.273 484.438,81.257 484.598,81.257 Z M487.278,92.277 C486.164,92.277 485.26,93.179 485.26,94.291 C485.26,95.403 486.164,96.304 487.278,96.304 C488.391,96.304 489.295,95.403 489.295,94.291 C489.295,93.181 488.391,92.277 487.278,92.277 Z M480.555,100.335 C479.442,100.335 478.541,101.237 478.541,102.348 C478.541,103.458 479.442,104.362 480.555,104.362 C481.669,104.362 482.572,103.46 482.572,102.348 C482.572,101.237 481.669,100.335 480.555,100.335 Z M479.211,115.109 C478.099,115.109 477.194,116.012 477.194,117.124 C477.194,118.236 478.098,119.136 479.211,119.136 C480.325,119.136 481.229,118.236 481.229,117.124 C481.229,116.012 480.325,115.109 479.211,115.109 Z M468.457,119.138 C467.345,119.138 466.442,120.041 466.442,121.153 C466.442,122.265 467.343,123.168 468.457,123.168 C469.57,123.168 470.474,122.265 470.474,121.153 C470.474,120.041 469.57,119.138 468.457,119.138 Z M465.769,129.883 C464.655,129.883 463.754,130.785 463.754,131.897 C463.754,133.009 464.655,133.912 465.769,133.912 C466.882,133.912 467.786,133.009 467.786,131.897 C467.786,130.785 466.882,129.883 465.769,129.883 Z M452.326,131.226 C451.213,131.226 450.312,132.13 450.312,133.241 C450.312,134.352 451.213,135.253 452.326,135.253 C453.44,135.253 454.344,134.353 454.344,133.241 C454.344,132.13 453.44,131.226 452.326,131.226 Z" />
        </g>
        <g id="Black-S">
            <path d="M684.332,76.004 C683.927,76.018 683.52,76.063 683.114,76.141 C679.874,76.77 677.379,79.383 676.9,82.644 C676.745,83.626 676.548,84.604 676.33,85.58 C675.309,85.679 674.506,86.531 674.506,87.577 C674.506,88.259 674.85,88.86 675.37,89.225 C673.285,96.073 669.718,102.674 665.101,108.518 C664.888,108.443 664.663,108.394 664.425,108.394 C663.311,108.394 662.408,109.297 662.408,110.409 C662.408,110.772 662.513,111.108 662.681,111.402 C658.219,116.422 652.972,120.753 647.255,124.027 C646.889,123.508 646.288,123.168 645.606,123.168 C644.493,123.168 643.589,124.07 643.589,125.182 C643.589,125.431 643.641,125.665 643.723,125.884 C641.86,126.778 639.956,127.566 638.022,128.221 C634.823,129.242 632.661,132.181 632.641,135.537 C632.623,138.893 634.751,141.861 637.966,142.925 C641.888,144.181 646.295,144.79 651.434,144.79 C652.898,144.79 654.347,144.71 655.78,144.558 C656.029,145.39 656.79,146 657.702,146 C658.816,146 659.72,145.097 659.72,143.985 C659.72,143.969 659.714,143.956 659.714,143.941 C671.358,141.565 681.541,134.323 688.08,124.429 C688.253,124.478 688.433,124.512 688.622,124.512 C689.735,124.512 690.636,123.609 690.636,122.497 C690.636,121.957 690.423,121.469 690.077,121.107 C693.081,115.623 695.01,109.481 695.561,103 C696.57,102.889 697.359,102.043 697.359,101.006 C697.359,100.027 696.658,99.214 695.731,99.033 C695.715,90.778 694.395,85.028 691.325,79.861 C689.869,77.364 687.162,75.909 684.332,76.004 Z M684.597,81.257 C685.484,81.257 686.324,81.725 686.79,82.526 C689.407,86.929 690.474,91.757 690.474,99.182 C690.474,120.678 672.231,139.533 651.434,139.533 C646.848,139.533 642.968,139.004 639.596,137.926 C638.579,137.588 637.897,136.639 637.904,135.568 C637.91,134.496 638.602,133.556 639.668,133.215 C661.185,125.925 678.633,105.457 682.1,83.447 C682.102,83.436 682.104,83.424 682.106,83.413 C682.257,82.355 683.068,81.508 684.118,81.303 C684.279,81.273 684.438,81.257 684.597,81.257 Z M687.278,92.277 C686.164,92.277 685.26,93.179 685.26,94.291 C685.26,95.403 686.164,96.304 687.278,96.304 C688.391,96.304 689.295,95.403 689.295,94.291 C689.295,93.181 688.391,92.277 687.278,92.277 Z M680.555,100.335 C679.442,100.335 678.541,101.237 678.541,102.348 C678.541,103.458 679.442,104.362 680.555,104.362 C681.669,104.362 682.572,103.46 682.572,102.348 C682.572,101.237 681.669,100.335 680.555,100.335 Z M679.211,115.109 C678.099,115.109 677.194,116.012 677.194,117.124 C677.194,118.236 678.098,119.136 679.211,119.136 C680.325,119.136 681.228,118.236 681.228,117.124 C681.228,116.012 680.325,115.109 679.211,115.109 Z M668.457,119.138 C667.345,119.138 666.442,120.041 666.442,121.153 C666.442,122.265 667.343,123.168 668.457,123.168 C669.57,123.168 670.474,122.265 670.474,121.153 C670.474,120.041 669.57,119.138 668.457,119.138 Z M665.769,129.883 C664.655,129.883 663.754,130.785 663.754,131.897 C663.754,133.009 664.655,133.912 665.769,133.912 C666.882,133.912 667.786,133.009 667.786,131.897 C667.786,130.785 666.882,129.883 665.769,129.883 Z M652.326,131.226 C651.213,131.226 650.312,132.13 650.312,133.241 C650.312,134.352 651.213,135.253 652.326,135.253 C653.44,135.253 654.344,134.353 654.344,133.241 C654.344,132.13 653.44,131.226 652.326,131.226 Z" />
        </g>
    </g>
</svg>