<?xml version="1.0" encoding="UTF-8"?>
<svg height="600" width="800" xmlns="http://www.w3.org/2000/svg" xmlns:xlink="http://www.w3.org/1999/xlink">
    <g id="Notes" font-family="'LucidaGrande', 'Lucida Grande', sans-serif" font-size="13">
        <rect fill="white" height="600.0" width="800.0" x="0.0" y="0.0" />
        <g font-size="13">
            <text x="18.0" y="176.0">Small</text>
            <text x="18.0" y="376.0">Medium</text>
            <text x="18.0" y="576.0">Large</text>
        </g>
        <g font-size="9">
            <text x="250.0" y="30.0">Ultralight</text>
            <text x="450.0" y="30.0">Regular</text>
            <text x="650.0" y="30.0">Black</text>
            <text id="template-version" fill="#505050" text-anchor="end" x="785.0" y="575.0">Template v.3.0</text>
            <a href="https://wangchujiang.com/#/app">
                <text fill="#505050" text-anchor="end" x="785.0" y="590.0">https://wangchujiang.com/#/app</text>
            </a>
        </g>
    </g>
    <g id="Guides" stroke="rgb(39, 170, 225)" stroke-width="0.5">
        <path id="Capline-S" d="M18,76 l800,0" />
        <path id="H-reference" d="M85,145.755 L87.685,145.755 L113.369,79.287 L114.052,79.287 L114.052,76 L112.148,76 L85,145.755 Z M95.693,121.536 L130.996,121.536 L130.263,119.313 L96.474,119.313 L95.693,121.536 Z M139.15,145.755 L141.787,145.755 L114.638,76 L113.466,76 L113.466,79.287 L139.15,145.755 Z" stroke="none" />
        <path id="Baseline-S" d="M18,146 l800,0" />
        <path id="left-margin-Ultralight-S" d="M212.143,56 l0,110" />
        <path id="right-margin-Ultralight-S" d="M317.857,56 l0,110" />
        <path id="left-margin-Regular-S" d="M412.143,56 l0,110" />
        <path id="right-margin-Regular-S" d="M517.857,56 l0,110" />
        <path id="left-margin-Black-S" d="M612.143,56 l0,110" />
        <path id="right-margin-Black-S" d="M717.857,56 l0,110" />
        <path id="Capline-M" d="M18,276 l800,0" />
        <path id="Baseline-M" d="M18,346 l800,0" />
        <path id="Capline-L" d="M18,476 l800,0" />
        <path id="Baseline-L" d="M18,546 l800,0" />
    </g>
    <g id="Symbols">
        <g id="Ultralight-S">
            <path d="M265.714,76 C251.341,76 238.454,86.348 234.685,99.574 C232.234,98.172 229.311,98.167 226.842,99.574 C223.854,101.277 222.143,104.66 222.143,108.857 C222.143,130.37 244.106,137.597 257.857,138.706 L257.857,143.143 C257.857,144.72 259.137,146 260.714,146 C262.291,146 263.571,144.72 263.571,143.143 L263.571,136 C263.571,135.999 263.551,135.852 263.549,135.805 C263.54,135.672 263.529,135.539 263.502,135.411 C263.495,135.381 263.484,135.359 263.477,135.328 C263.436,135.16 263.384,134.997 263.315,134.842 C263.302,134.814 263.286,134.787 263.273,134.758 C263.185,134.577 263.078,134.408 262.955,134.251 C262.94,134.231 262.935,134.211 262.919,134.192 C262.908,134.179 262.896,134.174 262.885,134.161 C262.595,133.819 262.231,133.547 261.811,133.372 C261.735,133.339 261.736,133.344 261.671,133.321 C261.545,133.276 261.417,133.234 261.283,133.207 C261.277,133.206 261.22,133.188 261.219,133.188 C249.125,131.009 239.286,119.453 239.286,107.429 C239.286,101.621 241.521,96.13 245.151,91.714 L248.571,91.714 C250.541,91.714 252.143,93.317 252.143,95.286 L252.143,96 C252.143,98.289 253.034,100.439 254.654,102.06 C256.273,103.679 258.424,104.571 260.714,104.571 C262.29,104.571 263.571,105.853 263.571,107.429 L263.571,108.143 C263.571,110.24 264.389,112.214 265.873,113.698 C267.356,115.182 269.33,116 271.429,116 C272,116 272.539,116.222 272.944,116.625 C273.349,117.032 273.571,117.571 273.571,118.143 L273.571,118.857 C273.571,123.224 276.855,126.83 281.083,127.356 C277.895,130.157 274.127,132.251 270.081,133.213 C270.077,133.213 270.073,133.215 270.07,133.215 C270.065,133.217 270.061,133.22 270.056,133.221 C269.876,133.263 269.701,133.32 269.537,133.394 C269.391,133.459 269.232,133.549 269.06,133.67 C269,133.712 268.942,133.776 268.881,133.826 C268.784,133.909 268.688,133.991 268.602,134.086 C268.57,134.12 268.536,134.138 268.504,134.175 C268.454,134.236 268.425,134.302 268.382,134.365 C268.339,134.426 268.297,134.487 268.259,134.552 C268.202,134.651 268.153,134.746 268.111,134.845 C268.074,134.929 268.043,135.014 268.013,135.102 C267.99,135.173 267.974,135.226 267.958,135.294 C267.908,135.487 267.882,135.685 267.874,135.891 C267.873,135.918 267.857,135.978 267.857,136 L267.857,143.143 C267.857,144.72 269.137,146 270.714,146 C272.291,146 273.571,144.72 273.571,143.143 L273.571,138.695 C286.817,137.557 307.857,130.314 307.857,108.857 C307.857,104.66 306.147,101.276 303.158,99.574 C300.731,98.19 297.865,98.182 295.441,99.513 C292.004,86.004 279.981,76 265.714,76 Z M265.714,81.714 C272.707,81.714 279.03,84.69 283.571,89.465 L283.571,90.199 C283.571,91.752 282.306,93.017 280.753,93.017 L280.142,93.017 C278.025,93.017 276.037,93.842 274.542,95.336 C273.047,96.83 272.221,98.819 272.221,100.936 C272.221,101.524 271.994,102.078 271.576,102.496 C271.159,102.913 270.605,103.143 270.017,103.143 L268.125,103.143 C266.641,100.586 263.879,98.857 260.714,98.857 C259.963,98.857 259.227,98.552 258.697,98.02 C258.156,97.479 257.857,96.763 257.857,96 L257.857,95.286 C257.857,91.017 254.957,87.422 251.027,86.34 C255.29,83.449 260.376,81.714 265.714,81.714 Z M287.681,95.16 C289.614,98.806 290.714,102.983 290.714,107.42 C290.714,112.42 288.967,117.426 286.066,121.714 L282.143,121.714 C280.567,121.714 279.286,120.433 279.286,118.857 L279.286,118.143 C279.286,116.046 278.468,114.072 276.984,112.588 C275.501,111.103 273.527,110.286 271.429,110.286 C270.857,110.286 270.318,110.064 269.914,109.661 C269.684,109.431 269.523,109.154 269.417,108.857 L270.017,108.857 C272.13,108.857 274.119,108.033 275.617,106.539 C277.112,105.044 277.938,103.053 277.938,100.936 C277.938,100.346 278.167,99.793 278.585,99.376 C279,98.96 279.552,98.732 280.142,98.732 L280.753,98.732 C283.606,98.732 286.131,97.319 287.681,95.16 Z M230.784,104.239 C231.164,104.241 231.541,104.343 231.883,104.546 C232.991,105.202 233.606,106.755 233.571,108.81 C233.567,109.065 233.61,109.309 233.669,109.546 C234.211,116.851 237.506,123.756 242.547,129.072 C232.807,124.851 227.857,118.06 227.857,108.857 C227.857,106.77 228.519,105.195 229.671,104.538 C230.021,104.338 230.404,104.238 230.784,104.239 Z M299.213,104.242 C299.593,104.241 299.978,104.339 300.329,104.538 C301.482,105.195 302.143,106.77 302.143,108.857 C302.143,120.402 294.663,126.461 286.989,129.641 C292.265,124.178 295.764,117.007 296.331,109.546 C296.39,109.31 296.43,109.065 296.426,108.81 C296.391,106.755 297.008,105.201 298.114,104.546 C298.456,104.344 298.833,104.244 299.213,104.242 Z" />
        </g>
        <g id="Regular-S">
            <path d="M465.714,76 C451.341,76 438.454,86.348 434.685,99.574 C432.234,98.172 429.311,98.167 426.842,99.574 C423.854,101.277 422.143,104.66 422.143,108.857 C422.143,130.37 444.106,137.597 457.857,138.706 L457.857,143.143 C457.857,144.72 459.137,146 460.714,146 C462.291,146 463.571,144.72 463.571,143.143 L463.571,136 C463.571,135.999 463.551,135.852 463.549,135.805 C463.54,135.672 463.529,135.539 463.502,135.411 C463.495,135.381 463.484,135.359 463.477,135.328 C463.436,135.16 463.384,134.997 463.315,134.842 C463.302,134.814 463.286,134.787 463.273,134.758 C463.185,134.577 463.078,134.408 462.955,134.251 C462.94,134.231 462.935,134.211 462.919,134.192 C462.908,134.179 462.896,134.174 462.885,134.161 C462.595,133.819 462.231,133.547 461.811,133.372 C461.735,133.339 461.736,133.344 461.671,133.321 C461.545,133.276 461.417,133.234 461.283,133.207 C461.277,133.206 461.22,133.188 461.219,133.188 C449.125,131.009 439.286,119.453 439.286,107.429 C439.286,101.621 441.521,96.13 445.151,91.714 L448.571,91.714 C450.541,91.714 452.143,93.317 452.143,95.286 L452.143,96 C452.143,98.289 453.034,100.439 454.654,102.06 C456.273,103.679 458.424,104.571 460.714,104.571 C462.29,104.571 463.571,105.853 463.571,107.429 L463.571,108.143 C463.571,110.24 464.389,112.214 465.873,113.698 C467.356,115.182 469.33,116 471.429,116 C472,116 472.539,116.222 472.944,116.625 C473.349,117.032 473.571,117.571 473.571,118.143 L473.571,118.857 C473.571,123.224 476.855,126.83 481.083,127.356 C477.895,130.157 474.127,132.251 470.081,133.213 C470.077,133.213 470.073,133.215 470.07,133.215 C470.065,133.217 470.061,133.22 470.056,133.221 C469.876,133.263 469.701,133.32 469.537,133.394 C469.391,133.459 469.232,133.549 469.06,133.67 C469,133.712 468.942,133.776 468.881,133.826 C468.784,133.909 468.688,133.991 468.602,134.086 C468.57,134.12 468.536,134.138 468.504,134.175 C468.454,134.236 468.425,134.302 468.382,134.365 C468.339,134.426 468.297,134.487 468.259,134.552 C468.202,134.651 468.153,134.746 468.111,134.845 C468.074,134.929 468.043,135.014 468.013,135.102 C467.99,135.173 467.974,135.226 467.958,135.294 C467.908,135.487 467.882,135.685 467.874,135.891 C467.873,135.918 467.857,135.978 467.857,136 L467.857,143.143 C467.857,144.72 469.137,146 470.714,146 C472.291,146 473.571,144.72 473.571,143.143 L473.571,138.695 C486.817,137.557 507.857,130.314 507.857,108.857 C507.857,104.66 506.147,101.276 503.158,99.574 C500.731,98.19 497.865,98.182 495.441,99.513 C492.004,86.004 479.981,76 465.714,76 Z M465.714,81.714 C472.707,81.714 479.03,84.69 483.571,89.465 L483.571,90.199 C483.571,91.752 482.306,93.017 480.753,93.017 L480.142,93.017 C478.025,93.017 476.037,93.842 474.542,95.336 C473.047,96.83 472.221,98.819 472.221,100.936 C472.221,101.524 471.994,102.078 471.576,102.496 C471.159,102.913 470.605,103.143 470.017,103.143 L468.125,103.143 C466.641,100.586 463.879,98.857 460.714,98.857 C459.963,98.857 459.227,98.552 458.697,98.02 C458.156,97.479 457.857,96.763 457.857,96 L457.857,95.286 C457.857,91.017 454.957,87.422 451.027,86.34 C455.29,83.449 460.376,81.714 465.714,81.714 Z M487.681,95.16 C489.614,98.806 490.714,102.983 490.714,107.42 C490.714,112.42 488.967,117.426 486.066,121.714 L482.143,121.714 C480.567,121.714 479.286,120.433 479.286,118.857 L479.286,118.143 C479.286,116.046 478.468,114.072 476.984,112.588 C475.501,111.103 473.527,110.286 471.429,110.286 C470.857,110.286 470.318,110.064 469.914,109.661 C469.684,109.431 469.523,109.154 469.417,108.857 L470.017,108.857 C472.13,108.857 474.119,108.033 475.617,106.539 C477.112,105.044 477.938,103.053 477.938,100.936 C477.938,100.346 478.167,99.793 478.585,99.376 C479,98.96 479.552,98.732 480.142,98.732 L480.753,98.732 C483.606,98.732 486.131,97.319 487.681,95.16 Z M430.784,104.239 C431.164,104.241 431.541,104.343 431.883,104.546 C432.991,105.202 433.606,106.755 433.571,108.81 C433.567,109.065 433.61,109.309 433.669,109.546 C434.211,116.851 437.506,123.756 442.547,129.072 C432.807,124.851 427.857,118.06 427.857,108.857 C427.857,106.77 428.519,105.195 429.671,104.538 C430.021,104.338 430.404,104.238 430.784,104.239 Z M499.213,104.242 C499.593,104.241 499.978,104.339 500.329,104.538 C501.482,105.195 502.143,106.77 502.143,108.857 C502.143,120.402 494.663,126.461 486.989,129.641 C492.265,124.178 495.764,117.007 496.331,109.546 C496.39,109.31 496.43,109.065 496.426,108.81 C496.391,106.755 497.008,105.201 498.114,104.546 C498.456,104.344 498.833,104.244 499.213,104.242 Z" />
        </g>
        <g id="Black-S">
            <path d="M665.714,76 C651.341,76 638.454,86.348 634.685,99.574 C632.234,98.172 629.31,98.167 626.841,99.574 C623.854,101.277 622.143,104.66 622.143,108.857 C622.143,130.37 644.106,137.597 657.857,138.706 L657.857,143.143 C657.857,144.72 659.137,146 660.714,146 C662.291,146 663.571,144.72 663.571,143.143 L663.571,136 C663.571,135.999 663.551,135.852 663.549,135.805 C663.54,135.672 663.529,135.539 663.502,135.411 C663.495,135.381 663.484,135.359 663.477,135.328 C663.436,135.16 663.384,134.997 663.315,134.842 C663.302,134.814 663.286,134.787 663.273,134.758 C663.185,134.577 663.078,134.408 662.955,134.251 C662.94,134.231 662.935,134.211 662.919,134.192 C662.908,134.179 662.896,134.174 662.885,134.161 C662.595,133.819 662.231,133.547 661.811,133.372 C661.735,133.339 661.736,133.344 661.671,133.321 C661.545,133.276 661.417,133.234 661.283,133.207 C661.277,133.206 661.22,133.188 661.219,133.188 C649.125,131.009 639.286,119.453 639.286,107.429 C639.286,101.621 641.521,96.13 645.151,91.714 L648.571,91.714 C650.541,91.714 652.143,93.317 652.143,95.286 L652.143,96 C652.143,98.289 653.034,100.439 654.654,102.06 C656.273,103.679 658.424,104.571 660.714,104.571 C662.29,104.571 663.571,105.853 663.571,107.429 L663.571,108.143 C663.571,110.24 664.389,112.214 665.873,113.698 C667.356,115.182 669.33,116 671.429,116 C672,116 672.539,116.222 672.944,116.625 C673.349,117.032 673.571,117.571 673.571,118.143 L673.571,118.857 C673.571,123.224 676.855,126.83 681.083,127.356 C677.895,130.157 674.127,132.251 670.081,133.213 C670.077,133.213 670.073,133.215 670.07,133.215 C670.065,133.217 670.061,133.22 670.056,133.221 C669.876,133.263 669.701,133.32 669.537,133.394 C669.391,133.459 669.232,133.549 669.06,133.67 C669,133.712 668.942,133.776 668.881,133.826 C668.784,133.909 668.688,133.991 668.602,134.086 C668.57,134.12 668.536,134.138 668.504,134.175 C668.454,134.236 668.425,134.302 668.382,134.365 C668.339,134.426 668.297,134.487 668.259,134.552 C668.202,134.651 668.153,134.746 668.111,134.845 C668.074,134.929 668.043,135.014 668.013,135.102 C667.99,135.173 667.974,135.226 667.958,135.294 C667.908,135.487 667.882,135.685 667.874,135.891 C667.873,135.918 667.857,135.978 667.857,136 L667.857,143.143 C667.857,144.72 669.137,146 670.714,146 C672.291,146 673.571,144.72 673.571,143.143 L673.571,138.695 C686.817,137.557 707.857,130.314 707.857,108.857 C707.857,104.66 706.147,101.276 703.158,99.574 C700.731,98.19 697.865,98.182 695.441,99.513 C692.004,86.004 679.981,76 665.714,76 Z M665.714,81.714 C672.707,81.714 679.03,84.69 683.571,89.465 L683.571,90.199 C683.571,91.752 682.306,93.017 680.753,93.017 L680.142,93.017 C678.025,93.017 676.037,93.842 674.542,95.336 C673.047,96.83 672.221,98.819 672.221,100.936 C672.221,101.524 671.994,102.078 671.576,102.496 C671.159,102.913 670.605,103.143 670.017,103.143 L668.125,103.143 C666.641,100.586 663.879,98.857 660.714,98.857 C659.963,98.857 659.227,98.552 658.697,98.02 C658.156,97.479 657.857,96.763 657.857,96 L657.857,95.286 C657.857,91.017 654.957,87.422 651.027,86.34 C655.29,83.449 660.376,81.714 665.714,81.714 Z M687.681,95.16 C689.614,98.806 690.714,102.983 690.714,107.42 C690.714,112.42 688.967,117.426 686.066,121.714 L682.143,121.714 C680.567,121.714 679.286,120.433 679.286,118.857 L679.286,118.143 C679.286,116.046 678.468,114.072 676.984,112.588 C675.501,111.103 673.527,110.286 671.429,110.286 C670.857,110.286 670.318,110.064 669.914,109.661 C669.683,109.431 669.523,109.154 669.417,108.857 L670.017,108.857 C672.13,108.857 674.12,108.033 675.617,106.539 C677.112,105.044 677.938,103.053 677.938,100.936 C677.938,100.346 678.167,99.793 678.585,99.376 C679,98.96 679.552,98.732 680.142,98.732 L680.753,98.732 C683.606,98.732 686.131,97.319 687.681,95.16 Z M630.784,104.239 C631.164,104.241 631.541,104.343 631.883,104.546 C632.99,105.202 633.606,106.755 633.571,108.81 C633.568,109.065 633.61,109.309 633.669,109.546 C634.211,116.851 637.506,123.756 642.547,129.072 C632.807,124.851 627.857,118.06 627.857,108.857 C627.857,106.77 628.519,105.195 629.671,104.538 C630.021,104.338 630.404,104.238 630.784,104.239 Z M699.213,104.242 C699.593,104.241 699.978,104.339 700.329,104.538 C701.482,105.195 702.143,106.77 702.143,108.857 C702.143,120.402 694.663,126.461 686.989,129.641 C692.265,124.178 695.764,117.007 696.331,109.546 C696.39,109.31 696.43,109.065 696.426,108.81 C696.391,106.755 697.008,105.201 698.114,104.546 C698.456,104.344 698.833,104.244 699.213,104.242 Z" />
        </g>
    </g>
</svg>