<?xml version="1.0" encoding="UTF-8"?>
<svg height="600" width="800" xmlns="http://www.w3.org/2000/svg" xmlns:xlink="http://www.w3.org/1999/xlink">
    <g id="Notes" font-family="'LucidaGrande', 'Lucida Grande', sans-serif" font-size="13">
        <rect fill="white" height="600.0" width="800.0" x="0.0" y="0.0" />
        <g font-size="13">
            <text x="18.0" y="176.0">Small</text>
            <text x="18.0" y="376.0">Medium</text>
            <text x="18.0" y="576.0">Large</text>
        </g>
        <g font-size="9">
            <text x="250.0" y="30.0">Ultralight</text>
            <text x="450.0" y="30.0">Regular</text>
            <text x="650.0" y="30.0">Black</text>
            <text id="template-version" fill="#505050" text-anchor="end" x="785.0" y="575.0">Template v.3.0</text>
            <a href="https://wangchujiang.com/#/app">
                <text fill="#505050" text-anchor="end" x="785.0" y="590.0">https://wangchujiang.com/#/app</text>
            </a>
        </g>
    </g>
    <g id="Guides" stroke="rgb(39, 170, 225)" stroke-width="0.5">
        <path id="Capline-S" d="M18,76 l800,0" />
        <path id="H-reference" d="M85,145.755 L87.685,145.755 L113.369,79.287 L114.052,79.287 L114.052,76 L112.148,76 L85,145.755 Z M95.693,121.536 L130.996,121.536 L130.263,119.313 L96.474,119.313 L95.693,121.536 Z M139.15,145.755 L141.787,145.755 L114.638,76 L113.466,76 L113.466,79.287 L139.15,145.755 Z" stroke="none" />
        <path id="Baseline-S" d="M18,146 l800,0" />
        <path id="left-margin-Ultralight-S" d="M219.998,56 l0,110" />
        <path id="right-margin-Ultralight-S" d="M310.002,56 l0,110" />
        <path id="left-margin-Regular-S" d="M419.998,56 l0,110" />
        <path id="right-margin-Regular-S" d="M510.002,56 l0,110" />
        <path id="left-margin-Black-S" d="M619.998,56 l0,110" />
        <path id="right-margin-Black-S" d="M710.002,56 l0,110" />
        <path id="Capline-M" d="M18,276 l800,0" />
        <path id="Baseline-M" d="M18,346 l800,0" />
        <path id="Capline-L" d="M18,476 l800,0" />
        <path id="Baseline-L" d="M18,546 l800,0" />
    </g>
    <g id="Symbols">
        <g id="Ultralight-S">
            <path d="M269.626,76.002 C269.061,75.979 268.481,76.144 267.979,76.53 C267.522,76.884 257.378,84.827 255.791,95.446 C252.332,96.273 248.993,98.025 246.15,100.869 C235.433,111.587 233.67,112.767 231.713,117.32 C228.669,124.115 229.43,133.444 235.995,140.01 C244.059,148.073 253.783,146.208 257.971,144.56 C258.022,144.56 258.051,144.562 258.102,144.562 L258.102,144.51 C258.274,144.441 258.499,144.372 258.65,144.305 C263.264,142.319 264.557,140.426 275.133,129.85 C277.935,127.049 279.697,123.707 280.537,120.216 C291.166,118.638 299.118,108.481 299.474,108.023 C300.48,106.718 299.996,104.798 298.465,104.14 C298.244,104.045 293.804,102.161 287.334,101.008 C292.081,93.063 293.539,85.721 293.607,85.371 C293.948,83.608 292.39,82.052 290.632,82.395 C290.281,82.462 282.945,83.922 274.997,88.669 C273.844,82.199 271.959,77.761 271.865,77.54 C271.463,76.606 270.566,76.041 269.626,76.002 Z M268.403,82.99 C269.161,85.46 270.074,89.072 270.521,93.246 C270.725,95.174 272.94,96.177 274.526,95.042 C279.227,91.672 284.122,89.654 287.46,88.542 C286.348,91.88 284.33,96.775 280.961,101.477 C279.832,103.054 280.821,105.275 282.756,105.482 C286.931,105.928 290.545,106.843 293.012,107.599 C290.453,110.141 286.108,113.733 281.109,114.932 C280.983,109.75 278.923,104.659 275.133,100.869 C271.428,97.162 266.321,95.022 261.073,94.878 C262.277,89.885 265.865,85.547 268.403,82.99 Z M260.899,99.949 C261.046,99.952 261.19,99.972 261.336,99.979 C259.215,100.851 257.148,101.135 255.657,101.192 C255.662,101.061 255.681,100.902 255.689,100.763 C257.39,100.188 259.151,99.911 260.899,99.949 Z M268.222,101.96 C269.426,102.636 270.55,103.467 271.543,104.46 C272.578,105.496 273.399,106.611 274.062,107.768 C270.989,110.12 267.437,110.677 265.239,110.766 C265.328,108.568 265.884,105.027 268.222,101.96 Z M260.949,105.462 C260.185,108.228 260.103,110.683 260.155,112.155 C256.976,114.832 253.165,115.462 250.854,115.554 C251.074,109.568 254.183,106.383 254.308,106.268 C256.464,106.331 258.783,106.058 260.949,105.462 Z M246.495,110.585 C245.811,113.223 245.736,115.547 245.788,116.958 C243.768,118.611 240.865,120.161 236.538,120.345 C236.532,119.897 236.532,119.462 236.528,119.009 C237.537,116.766 238.614,115.536 242.914,111.257 C244.014,111.137 245.205,110.947 246.495,110.585 Z M276.028,114.671 C276.094,116.609 275.801,118.529 275.193,120.318 C275.072,120.325 274.933,120.34 274.818,120.345 C274.875,118.879 275.155,116.804 276.028,114.671 Z M270.531,115.056 C269.784,117.773 269.695,120.189 269.742,121.659 C269.615,121.797 266.552,124.885 260.451,125.134 C260.543,122.819 261.178,119.018 263.848,115.847 C266.736,115.95 269.142,115.441 270.531,115.056 Z M256.156,119.849 C255.395,122.608 255.314,125.053 255.367,126.522 C252.194,129.194 248.392,129.828 246.08,129.922 C246.174,127.607 246.809,123.809 249.478,120.638 C252.361,120.739 254.768,120.233 256.156,119.849 Z M241.785,124.645 C241.011,127.46 240.942,129.952 241.002,131.407 C239.952,132.304 238.76,133.026 237.446,133.59 C236.242,131.639 235.039,128.903 235.013,125.58 C235.06,125.532 235.126,125.465 235.155,125.431 C235.37,125.439 235.594,125.444 235.849,125.444 C237.338,125.444 239.457,125.289 241.785,124.645 Z M265.413,129.52 C265.054,130.804 264.866,131.991 264.746,133.089 C260.389,137.462 259.218,138.473 256.989,139.476 C256.534,139.474 256.05,139.472 255.647,139.467 C255.817,135.184 257.397,132.199 259.032,130.215 C259.376,130.227 262.133,130.37 265.413,129.52 Z M251.37,134.217 C250.607,136.978 250.527,139.414 250.579,140.882 C248.055,140.913 245.208,140.359 242.49,138.698 C243.067,137.331 243.825,136.092 244.771,135.005 C246.208,135.051 248.608,134.979 251.37,134.217 Z" />
        </g>
        <g id="Regular-S">
            <path d="M469.626,76.002 C469.061,75.979 468.481,76.144 467.979,76.53 C467.522,76.884 457.378,84.827 455.791,95.446 C452.332,96.273 448.993,98.025 446.15,100.869 C435.433,111.587 433.67,112.767 431.713,117.32 C428.669,124.115 429.43,133.444 435.995,140.01 C444.059,148.073 453.783,146.208 457.971,144.56 C458.022,144.56 458.051,144.562 458.102,144.562 L458.102,144.51 C458.274,144.441 458.499,144.372 458.65,144.305 C463.264,142.319 464.557,140.426 475.133,129.85 C477.935,127.049 479.697,123.707 480.537,120.216 C491.166,118.638 499.118,108.481 499.474,108.023 C500.48,106.718 499.996,104.798 498.465,104.14 C498.244,104.045 493.804,102.161 487.334,101.008 C492.081,93.063 493.539,85.721 493.607,85.371 C493.948,83.608 492.39,82.052 490.632,82.395 C490.281,82.462 482.945,83.922 474.997,88.669 C473.844,82.199 471.959,77.761 471.865,77.54 C471.463,76.606 470.566,76.041 469.626,76.002 Z M468.403,82.99 C469.161,85.46 470.074,89.072 470.521,93.246 C470.725,95.174 472.94,96.177 474.526,95.042 C479.227,91.672 484.122,89.654 487.46,88.542 C486.348,91.88 484.33,96.775 480.961,101.477 C479.832,103.054 480.821,105.275 482.756,105.482 C486.931,105.928 490.545,106.843 493.012,107.599 C490.453,110.141 486.108,113.733 481.109,114.932 C480.983,109.75 478.923,104.659 475.133,100.869 C471.428,97.162 466.321,95.022 461.073,94.878 C462.277,89.885 465.865,85.547 468.403,82.99 Z M460.899,99.949 C461.046,99.952 461.19,99.972 461.336,99.979 C459.215,100.851 457.148,101.135 455.657,101.192 C455.662,101.061 455.681,100.902 455.689,100.763 C457.39,100.188 459.151,99.911 460.899,99.949 Z M468.222,101.96 C469.426,102.636 470.55,103.467 471.543,104.46 C472.578,105.496 473.399,106.611 474.062,107.768 C470.989,110.12 467.437,110.677 465.239,110.766 C465.328,108.568 465.884,105.027 468.222,101.96 Z M460.949,105.462 C460.185,108.228 460.103,110.683 460.155,112.155 C456.976,114.832 453.165,115.462 450.854,115.554 C451.074,109.568 454.183,106.383 454.308,106.268 C456.464,106.331 458.783,106.058 460.949,105.462 Z M446.495,110.585 C445.811,113.223 445.736,115.547 445.788,116.958 C443.768,118.611 440.865,120.161 436.538,120.345 C436.532,119.897 436.532,119.462 436.528,119.009 C437.537,116.766 438.614,115.536 442.914,111.257 C444.014,111.137 445.205,110.947 446.495,110.585 Z M476.028,114.671 C476.094,116.609 475.801,118.529 475.193,120.318 C475.072,120.325 474.933,120.34 474.818,120.345 C474.875,118.879 475.155,116.804 476.028,114.671 Z M470.531,115.056 C469.784,117.773 469.695,120.189 469.742,121.659 C469.615,121.797 466.552,124.885 460.451,125.134 C460.543,122.819 461.178,119.018 463.848,115.847 C466.736,115.95 469.142,115.441 470.531,115.056 Z M456.156,119.849 C455.395,122.608 455.314,125.053 455.367,126.522 C452.194,129.194 448.392,129.828 446.08,129.922 C446.174,127.607 446.809,123.809 449.478,120.638 C452.361,120.739 454.768,120.233 456.156,119.849 Z M441.785,124.645 C441.011,127.46 440.942,129.952 441.002,131.407 C439.952,132.304 438.76,133.026 437.446,133.59 C436.242,131.639 435.039,128.903 435.013,125.58 C435.06,125.532 435.126,125.465 435.155,125.431 C435.37,125.439 435.594,125.444 435.849,125.444 C437.338,125.444 439.457,125.289 441.785,124.645 Z M465.413,129.52 C465.054,130.804 464.866,131.991 464.745,133.089 C460.388,137.462 459.218,138.473 456.989,139.476 C456.534,139.474 456.05,139.472 455.647,139.467 C455.817,135.184 457.397,132.199 459.032,130.215 C459.376,130.227 462.133,130.37 465.413,129.52 Z M451.37,134.217 C450.607,136.978 450.527,139.414 450.579,140.882 C448.055,140.913 445.208,140.359 442.49,138.698 C443.067,137.331 443.825,136.092 444.771,135.005 C446.208,135.051 448.608,134.979 451.37,134.217 Z" />
        </g>
        <g id="Black-S">
            <path d="M669.626,76.002 C669.061,75.979 668.481,76.144 667.979,76.53 C667.522,76.884 657.378,84.827 655.791,95.446 C652.332,96.273 648.993,98.025 646.15,100.869 C635.433,111.587 633.67,112.767 631.713,117.32 C628.669,124.115 629.43,133.444 635.995,140.01 C644.059,148.073 653.783,146.208 657.971,144.56 C658.022,144.56 658.051,144.562 658.102,144.562 L658.102,144.51 C658.274,144.441 658.499,144.372 658.65,144.305 C663.264,142.319 664.557,140.426 675.133,129.85 C677.935,127.049 679.697,123.707 680.537,120.216 C691.166,118.638 699.118,108.481 699.474,108.023 C700.48,106.718 699.996,104.798 698.465,104.14 C698.244,104.045 693.804,102.161 687.334,101.008 C692.081,93.063 693.539,85.721 693.607,85.371 C693.948,83.608 692.39,82.052 690.632,82.395 C690.281,82.462 682.945,83.922 674.997,88.669 C673.844,82.199 671.959,77.761 671.865,77.54 C671.463,76.606 670.566,76.041 669.626,76.002 Z M668.403,82.99 C669.161,85.46 670.074,89.072 670.521,93.246 C670.725,95.174 672.94,96.177 674.526,95.042 C679.227,91.672 684.122,89.654 687.46,88.542 C686.348,91.88 684.33,96.775 680.961,101.477 C679.832,103.054 680.821,105.275 682.756,105.482 C686.931,105.928 690.545,106.843 693.012,107.599 C690.453,110.141 686.108,113.733 681.109,114.932 C680.983,109.75 678.923,104.659 675.133,100.869 C671.428,97.162 666.321,95.022 661.073,94.878 C662.277,89.885 665.865,85.547 668.403,82.99 Z M660.899,99.949 C661.046,99.952 661.19,99.972 661.336,99.979 C659.215,100.851 657.148,101.135 655.657,101.192 C655.662,101.061 655.681,100.902 655.689,100.763 C657.39,100.188 659.151,99.911 660.899,99.949 Z M668.222,101.96 C669.426,102.636 670.55,103.467 671.542,104.46 C672.578,105.496 673.399,106.611 674.062,107.768 C670.989,110.12 667.437,110.677 665.239,110.766 C665.328,108.568 665.884,105.027 668.222,101.96 Z M660.949,105.462 C660.185,108.228 660.103,110.683 660.155,112.155 C656.976,114.832 653.165,115.462 650.854,115.554 C651.074,109.568 654.182,106.383 654.308,106.268 C656.464,106.331 658.783,106.058 660.949,105.462 Z M646.495,110.585 C645.811,113.223 645.736,115.547 645.788,116.958 C643.768,118.611 640.865,120.161 636.538,120.345 C636.532,119.897 636.532,119.462 636.528,119.009 C637.537,116.766 638.614,115.536 642.914,111.257 C644.014,111.137 645.205,110.947 646.495,110.585 Z M676.028,114.671 C676.094,116.609 675.801,118.529 675.193,120.318 C675.071,120.325 674.933,120.34 674.818,120.345 C674.875,118.879 675.155,116.804 676.028,114.671 Z M670.531,115.056 C669.784,117.773 669.695,120.189 669.742,121.659 C669.615,121.797 666.552,124.885 660.451,125.134 C660.543,122.819 661.178,119.018 663.848,115.847 C666.736,115.95 669.142,115.441 670.531,115.056 Z M656.156,119.849 C655.395,122.608 655.314,125.053 655.367,126.522 C652.194,129.194 648.392,129.828 646.08,129.922 C646.174,127.607 646.809,123.809 649.478,120.638 C652.361,120.739 654.768,120.233 656.156,119.849 Z M641.785,124.645 C641.011,127.46 640.942,129.952 641.002,131.407 C639.952,132.304 638.76,133.026 637.446,133.59 C636.242,131.639 635.039,128.903 635.013,125.58 C635.06,125.532 635.126,125.465 635.155,125.431 C635.37,125.439 635.594,125.444 635.849,125.444 C637.338,125.444 639.457,125.289 641.785,124.645 Z M665.413,129.52 C665.054,130.804 664.866,131.991 664.745,133.089 C660.388,137.462 659.218,138.473 656.989,139.476 C656.534,139.474 656.05,139.472 655.647,139.467 C655.817,135.184 657.397,132.199 659.032,130.215 C659.376,130.227 662.133,130.37 665.413,129.52 Z M651.37,134.217 C650.607,136.978 650.527,139.414 650.579,140.882 C648.055,140.913 645.208,140.359 642.49,138.698 C643.067,137.331 643.825,136.092 644.771,135.005 C646.208,135.051 648.608,134.979 651.37,134.217 Z" />
        </g>
    </g>
</svg>