<?xml version="1.0" encoding="UTF-8"?>
<svg height="600" width="800" xmlns="http://www.w3.org/2000/svg" xmlns:xlink="http://www.w3.org/1999/xlink">
    <g id="Notes" font-family="'LucidaGrande', 'Lucida Grande', sans-serif" font-size="13">
        <rect fill="white" height="600.0" width="800.0" x="0.0" y="0.0" />
        <g font-size="13">
            <text x="18.0" y="176.0">Small</text>
            <text x="18.0" y="376.0">Medium</text>
            <text x="18.0" y="576.0">Large</text>
        </g>
        <g font-size="9">
            <text x="250.0" y="30.0">Ultralight</text>
            <text x="450.0" y="30.0">Regular</text>
            <text x="650.0" y="30.0">Black</text>
            <text id="template-version" fill="#505050" text-anchor="end" x="785.0" y="575.0">Template v.3.0</text>
            <a href="https://wangchujiang.com/#/app">
                <text fill="#505050" text-anchor="end" x="785.0" y="590.0">https://wangchujiang.com/#/app</text>
            </a>
        </g>
    </g>
    <g id="Guides" stroke="rgb(39, 170, 225)" stroke-width="0.5">
        <path id="Capline-S" d="M18,76 l800,0" />
        <path id="H-reference" d="M85,145.755 L87.685,145.755 L113.369,79.287 L114.052,79.287 L114.052,76 L112.148,76 L85,145.755 Z M95.693,121.536 L130.996,121.536 L130.263,119.313 L96.474,119.313 L95.693,121.536 Z M139.15,145.755 L141.787,145.755 L114.638,76 L113.466,76 L113.466,79.287 L139.15,145.755 Z" stroke="none" />
        <path id="Baseline-S" d="M18,146 l800,0" />
        <path id="left-margin-Ultralight-S" d="M212.696,56 l0,110" />
        <path id="right-margin-Ultralight-S" d="M317.304,56 l0,110" />
        <path id="left-margin-Regular-S" d="M412.696,56 l0,110" />
        <path id="right-margin-Regular-S" d="M517.304,56 l0,110" />
        <path id="left-margin-Black-S" d="M612.696,56 l0,110" />
        <path id="right-margin-Black-S" d="M717.304,56 l0,110" />
        <path id="Capline-M" d="M18,276 l800,0" />
        <path id="Baseline-M" d="M18,346 l800,0" />
        <path id="Capline-L" d="M18,476 l800,0" />
        <path id="Baseline-L" d="M18,546 l800,0" />
    </g>
    <g id="Symbols">
        <g id="Ultralight-S">
            <path d="M264.972,76 C261.288,76 258.251,77.912 255.812,79.447 C254.485,80.281 253.236,81.072 252.239,81.346 C250.942,81.704 249.306,81.717 247.573,81.731 C244.592,81.759 241.211,81.789 238.405,83.721 C235.246,85.897 233.971,89.45 232.947,92.306 C232.431,93.741 231.947,95.096 231.346,96.001 C230.694,96.981 229.615,98.003 228.468,99.08 C226.145,101.267 223.511,103.745 222.841,107.435 C222.179,111.08 223.911,114.53 225.442,117.573 C226.306,119.294 227.155,121.041 227.349,122.358 C226.865,123.965 226.444,125.603 226.162,127.298 L224.834,135.275 C224.388,137.951 225.135,140.673 226.888,142.744 C228.642,144.813 231.205,146 233.919,146 L296.025,146 C298.738,146 301.301,144.813 303.055,142.744 C304.809,140.673 305.559,137.951 305.113,135.275 L303.782,127.298 C303.51,125.663 303.108,124.084 302.649,122.531 C302.775,121.205 303.673,119.362 304.573,117.559 C306.097,114.508 307.824,111.055 307.157,107.406 C306.482,103.72 303.849,101.243 301.526,99.059 C300.377,97.979 299.293,96.959 298.641,95.975 C298.04,95.073 297.553,93.719 297.039,92.284 C296.012,89.425 294.734,85.864 291.564,83.689 C288.756,81.76 285.375,81.736 282.393,81.713 C280.656,81.701 279.016,81.689 277.712,81.332 C276.719,81.059 275.465,80.272 274.139,79.44 C271.696,77.907 268.66,76 264.972,76 Z M264.972,83.368 C266.539,83.368 268.329,84.492 270.225,85.682 C271.945,86.763 273.721,87.878 275.762,88.438 C277.998,89.051 280.307,89.067 282.342,89.082 C284.359,89.097 286.449,89.113 287.397,89.765 C288.606,90.594 289.333,92.624 290.103,94.774 C290.744,96.559 291.408,98.403 292.503,100.052 C293.626,101.743 295.076,103.104 296.478,104.423 C298.048,105.899 299.669,107.426 299.907,108.73 C300.093,109.747 299.345,111.484 298.511,113.195 C291.551,101.806 279.07,94.421 264.972,94.421 C250.896,94.421 238.438,101.784 231.472,113.141 C230.646,111.452 229.908,109.751 230.09,108.751 C230.326,107.449 231.948,105.924 233.516,104.448 C234.916,103.131 236.362,101.766 237.484,100.077 C238.58,98.426 239.243,96.578 239.884,94.792 C240.652,92.646 241.379,90.618 242.582,89.791 C243.531,89.137 245.617,89.118 247.634,89.1 C249.667,89.081 251.971,89.064 254.2,88.449 C256.241,87.883 258.018,86.763 259.737,85.682 C261.627,84.492 263.411,83.368 264.972,83.368 Z M264.972,101.789 C280.668,101.789 293.933,113.03 296.514,128.511 L297.845,136.487 C297.967,137.22 297.638,137.737 297.432,137.98 C297.225,138.224 296.771,138.632 296.029,138.632 L233.919,138.632 C233.174,138.632 232.718,138.224 232.512,137.98 C232.306,137.737 231.977,137.22 232.098,136.487 L233.429,128.511 C236.01,113.03 249.275,101.789 264.972,101.789 Z M245.63,118.368 C244.104,118.368 242.867,119.606 242.867,121.132 C242.867,122.657 244.104,123.895 245.63,123.895 C247.155,123.895 248.393,122.657 248.393,121.132 C248.393,119.606 247.155,118.368 245.63,118.368 Z M252.077,125.737 C250.042,125.737 248.393,127.386 248.393,129.421 C248.393,131.457 250.042,133.105 252.077,133.105 C254.113,133.105 255.761,131.457 255.761,129.421 C255.761,127.386 254.113,125.737 252.077,125.737 Z M241.945,127.579 C240.42,127.579 239.182,128.817 239.182,130.342 C239.182,131.867 240.42,133.105 241.945,133.105 C243.471,133.105 244.709,131.867 244.709,130.342 C244.709,128.817 243.471,127.579 241.945,127.579 Z" />
        </g>
        <g id="Regular-S">
            <path d="M464.972,76 C461.288,76 458.251,77.912 455.812,79.447 C454.485,80.281 453.236,81.072 452.239,81.346 C450.942,81.704 449.306,81.717 447.573,81.731 C444.592,81.759 441.211,81.789 438.405,83.721 C435.246,85.897 433.971,89.45 432.947,92.306 C432.431,93.741 431.947,95.096 431.346,96.001 C430.694,96.981 429.616,98.003 428.468,99.08 C426.145,101.267 423.511,103.745 422.841,107.435 C422.18,111.08 423.911,114.53 425.442,117.573 C426.306,119.294 427.155,121.041 427.349,122.358 C426.865,123.965 426.444,125.603 426.162,127.298 L424.834,135.275 C424.388,137.951 425.135,140.673 426.888,142.744 C428.642,144.813 431.205,146 433.919,146 L496.025,146 C498.738,146 501.301,144.813 503.055,142.744 C504.809,140.673 505.559,137.951 505.113,135.275 L503.782,127.298 C503.51,125.663 503.108,124.084 502.649,122.531 C502.775,121.205 503.673,119.362 504.573,117.559 C506.097,114.508 507.824,111.055 507.157,107.406 C506.482,103.72 503.849,101.243 501.526,99.059 C500.377,97.979 499.293,96.959 498.641,95.975 C498.04,95.073 497.553,93.719 497.04,92.284 C496.012,89.425 494.734,85.864 491.564,83.689 C488.756,81.76 485.375,81.736 482.393,81.713 C480.656,81.701 479.016,81.689 477.712,81.332 C476.719,81.059 475.465,80.272 474.139,79.44 C471.697,77.907 468.66,76 464.972,76 Z M464.972,83.368 C466.539,83.368 468.329,84.492 470.225,85.682 C471.945,86.763 473.721,87.878 475.762,88.438 C477.998,89.051 480.307,89.067 482.342,89.082 C484.359,89.097 486.449,89.113 487.397,89.765 C488.606,90.594 489.333,92.624 490.103,94.774 C490.744,96.559 491.408,98.403 492.503,100.052 C493.626,101.743 495.076,103.104 496.478,104.423 C498.048,105.899 499.669,107.426 499.907,108.73 C500.093,109.747 499.345,111.484 498.511,113.195 C491.551,101.806 479.07,94.421 464.972,94.421 C450.896,94.421 438.438,101.784 431.472,113.141 C430.646,111.452 429.908,109.751 430.091,108.751 C430.326,107.449 431.948,105.924 433.516,104.448 C434.916,103.131 436.362,101.766 437.484,100.077 C438.58,98.426 439.243,96.578 439.884,94.792 C440.652,92.646 441.379,90.618 442.582,89.791 C443.531,89.137 445.617,89.118 447.634,89.1 C449.667,89.081 451.971,89.064 454.2,88.449 C456.241,87.883 458.018,86.763 459.737,85.682 C461.627,84.492 463.412,83.368 464.972,83.368 Z M464.972,101.789 C480.668,101.789 493.933,113.03 496.514,128.511 L497.845,136.487 C497.967,137.22 497.638,137.737 497.432,137.98 C497.225,138.224 496.771,138.632 496.029,138.632 L433.919,138.632 C433.174,138.632 432.718,138.224 432.512,137.98 C432.306,137.737 431.977,137.22 432.098,136.487 L433.429,128.511 C436.01,113.03 449.275,101.789 464.972,101.789 Z M445.63,118.368 C444.104,118.368 442.867,119.606 442.867,121.132 C442.867,122.657 444.104,123.895 445.63,123.895 C447.155,123.895 448.393,122.657 448.393,121.132 C448.393,119.606 447.155,118.368 445.63,118.368 Z M452.077,125.737 C450.042,125.737 448.393,127.386 448.393,129.421 C448.393,131.457 450.042,133.105 452.077,133.105 C454.113,133.105 455.761,131.457 455.761,129.421 C455.761,127.386 454.113,125.737 452.077,125.737 Z M441.945,127.579 C440.42,127.579 439.182,128.817 439.182,130.342 C439.182,131.867 440.42,133.105 441.945,133.105 C443.471,133.105 444.709,131.867 444.709,130.342 C444.709,128.817 443.471,127.579 441.945,127.579 Z" />
        </g>
        <g id="Black-S">
            <path d="M664.972,76 C661.288,76 658.251,77.912 655.812,79.447 C654.485,80.281 653.236,81.072 652.239,81.346 C650.942,81.704 649.306,81.717 647.573,81.731 C644.592,81.759 641.211,81.789 638.405,83.721 C635.246,85.897 633.971,89.45 632.947,92.306 C632.431,93.741 631.947,95.096 631.346,96.001 C630.694,96.981 629.615,98.003 628.468,99.08 C626.145,101.267 623.511,103.745 622.841,107.435 C622.18,111.08 623.911,114.53 625.442,117.573 C626.306,119.294 627.155,121.041 627.349,122.358 C626.865,123.965 626.444,125.603 626.162,127.298 L624.834,135.275 C624.388,137.951 625.135,140.673 626.888,142.744 C628.642,144.813 631.205,146 633.919,146 L696.025,146 C698.738,146 701.301,144.813 703.055,142.744 C704.809,140.673 705.559,137.951 705.113,135.275 L703.782,127.298 C703.51,125.663 703.108,124.084 702.649,122.531 C702.775,121.205 703.673,119.362 704.573,117.559 C706.097,114.508 707.824,111.055 707.157,107.406 C706.482,103.72 703.849,101.243 701.526,99.059 C700.377,97.979 699.293,96.959 698.641,95.975 C698.04,95.073 697.553,93.719 697.04,92.284 C696.012,89.425 694.734,85.864 691.564,83.689 C688.756,81.76 685.375,81.736 682.393,81.713 C680.656,81.701 679.016,81.689 677.712,81.332 C676.719,81.059 675.465,80.272 674.139,79.44 C671.697,77.907 668.66,76 664.972,76 Z M664.972,83.368 C666.539,83.368 668.329,84.492 670.225,85.682 C671.945,86.763 673.721,87.878 675.762,88.438 C677.998,89.051 680.307,89.067 682.342,89.082 C684.359,89.097 686.449,89.113 687.397,89.765 C688.606,90.594 689.333,92.624 690.103,94.774 C690.744,96.559 691.408,98.403 692.503,100.052 C693.626,101.743 695.076,103.104 696.478,104.423 C698.048,105.899 699.669,107.426 699.907,108.73 C700.093,109.747 699.345,111.484 698.511,113.195 C691.551,101.806 679.07,94.421 664.972,94.421 C650.896,94.421 638.438,101.784 631.472,113.141 C630.646,111.452 629.908,109.751 630.091,108.751 C630.326,107.449 631.948,105.924 633.516,104.448 C634.916,103.131 636.362,101.766 637.484,100.077 C638.58,98.426 639.243,96.578 639.884,94.792 C640.652,92.646 641.379,90.618 642.582,89.791 C643.531,89.137 645.617,89.118 647.634,89.1 C649.667,89.081 651.971,89.064 654.2,88.449 C656.241,87.883 658.018,86.763 659.737,85.682 C661.627,84.492 663.411,83.368 664.972,83.368 Z M664.972,101.789 C680.668,101.789 693.933,113.03 696.514,128.511 L697.845,136.487 C697.967,137.22 697.638,137.737 697.432,137.98 C697.225,138.224 696.771,138.632 696.029,138.632 L633.919,138.632 C633.174,138.632 632.718,138.224 632.512,137.98 C632.306,137.737 631.977,137.22 632.098,136.487 L633.429,128.511 C636.01,113.03 649.275,101.789 664.972,101.789 Z M645.63,118.368 C644.104,118.368 642.867,119.606 642.867,121.132 C642.867,122.657 644.104,123.895 645.63,123.895 C647.155,123.895 648.393,122.657 648.393,121.132 C648.393,119.606 647.155,118.368 645.63,118.368 Z M652.077,125.737 C650.042,125.737 648.393,127.386 648.393,129.421 C648.393,131.457 650.042,133.105 652.077,133.105 C654.113,133.105 655.761,131.457 655.761,129.421 C655.761,127.386 654.113,125.737 652.077,125.737 Z M641.945,127.579 C640.42,127.579 639.182,128.817 639.182,130.342 C639.182,131.867 640.42,133.105 641.945,133.105 C643.471,133.105 644.709,131.867 644.709,130.342 C644.709,128.817 643.471,127.579 641.945,127.579 Z" />
        </g>
    </g>
</svg>