<?xml version="1.0" encoding="UTF-8"?>
<svg height="600" width="800" xmlns="http://www.w3.org/2000/svg" xmlns:xlink="http://www.w3.org/1999/xlink">
    <g id="Notes" font-family="'LucidaGrande', 'Lucida Grande', sans-serif" font-size="13">
        <rect fill="white" height="600.0" width="800.0" x="0.0" y="0.0" />
        <g font-size="13">
            <text x="18.0" y="176.0">Small</text>
            <text x="18.0" y="376.0">Medium</text>
            <text x="18.0" y="576.0">Large</text>
        </g>
        <g font-size="9">
            <text x="250.0" y="30.0">Ultralight</text>
            <text x="450.0" y="30.0">Regular</text>
            <text x="650.0" y="30.0">Black</text>
            <text id="template-version" fill="#505050" text-anchor="end" x="785.0" y="575.0">Template v.3.0</text>
            <a href="https://wangchujiang.com/#/app">
                <text fill="#505050" text-anchor="end" x="785.0" y="590.0">https://wangchujiang.com/#/app</text>
            </a>
        </g>
    </g>
    <g id="Guides" stroke="rgb(39, 170, 225)" stroke-width="0.5">
        <path id="Capline-S" d="M18,76 l800,0" />
        <path id="H-reference" d="M85,145.755 L87.685,145.755 L113.369,79.287 L114.052,79.287 L114.052,76 L112.148,76 L85,145.755 Z M95.693,121.536 L130.996,121.536 L130.263,119.313 L96.474,119.313 L95.693,121.536 Z M139.15,145.755 L141.787,145.755 L114.638,76 L113.466,76 L113.466,79.287 L139.15,145.755 Z" stroke="none" />
        <path id="Baseline-S" d="M18,146 l800,0" />
        <path id="left-margin-Ultralight-S" d="M219.997,56 l0,110" />
        <path id="right-margin-Ultralight-S" d="M310.003,56 l0,110" />
        <path id="left-margin-Regular-S" d="M419.997,56 l0,110" />
        <path id="right-margin-Regular-S" d="M510.003,56 l0,110" />
        <path id="left-margin-Black-S" d="M619.997,56 l0,110" />
        <path id="right-margin-Black-S" d="M710.003,56 l0,110" />
        <path id="Capline-M" d="M18,276 l800,0" />
        <path id="Baseline-M" d="M18,346 l800,0" />
        <path id="Capline-L" d="M18,476 l800,0" />
        <path id="Baseline-L" d="M18,546 l800,0" />
    </g>
    <g id="Symbols">
        <g id="Ultralight-S">
            <path d="M269.377,76 C267.767,76 266.46,77.307 266.46,78.917 C266.46,80.268 267.386,81.394 268.633,81.725 L264.649,89.823 C263.925,91.121 263.544,92.591 263.544,94.078 L263.544,96.855 C260.604,94.317 256.786,92.771 252.606,92.771 C243.851,92.771 236.652,99.518 235.909,108.083 L235.835,108.083 C234.101,108.083 232.467,108.848 231.358,110.18 C230.245,111.511 229.787,113.256 230.087,114.905 L233.924,138.646 C234.612,142.907 238.242,146 242.56,146 L286.962,146 C291.193,146 294.814,142.979 295.57,138.817 L299.908,114.962 C300.218,113.254 299.759,111.511 298.646,110.18 C297.536,108.847 295.902,108.083 294.169,108.083 L292.71,108.083 L292.71,94.078 C292.71,92.589 292.328,91.121 291.605,89.82 L287.623,81.725 C288.869,81.393 289.794,80.267 289.794,78.917 C289.794,77.307 288.487,76 286.877,76 L269.377,76 Z M275.085,81.833 L281.172,81.833 C282.378,84.284 286.466,92.586 286.492,92.631 C286.745,93.072 286.877,93.572 286.877,94.078 L286.877,108.083 L269.377,108.083 L269.377,94.078 C269.377,93.571 269.509,93.072 269.761,92.634 C269.787,92.588 273.88,84.28 275.085,81.833 Z M252.606,98.604 C258.142,98.604 262.719,102.741 263.435,108.083 L241.777,108.083 C242.493,102.741 247.07,98.604 252.606,98.604 Z M237.55,113.917 L292.422,113.917 C293.332,113.917 294.019,114.742 293.855,115.637 L289.831,137.774 C289.578,139.16 288.371,140.167 286.962,140.167 L242.56,140.167 C241.131,140.167 239.912,139.129 239.683,137.717 L236.109,115.609 C235.964,114.722 236.652,113.917 237.55,113.917 Z M251.877,118.292 C250.267,118.292 248.96,119.598 248.96,121.208 L248.96,132.875 C248.96,134.485 250.267,135.792 251.877,135.792 C253.487,135.792 254.794,134.485 254.794,132.875 L254.794,121.208 C254.794,119.598 253.487,118.292 251.877,118.292 Z M265.002,118.292 C263.392,118.292 262.085,119.598 262.085,121.208 L262.085,132.875 C262.085,134.485 263.392,135.792 265.002,135.792 C266.612,135.792 267.919,134.485 267.919,132.875 L267.919,121.208 C267.919,119.598 266.612,118.292 265.002,118.292 Z M278.127,118.292 C276.517,118.292 275.21,119.598 275.21,121.208 L275.21,132.875 C275.21,134.485 276.517,135.792 278.127,135.792 C279.737,135.792 281.044,134.485 281.044,132.875 L281.044,121.208 C281.044,119.598 279.737,118.292 278.127,118.292 Z" />
        </g>
        <g id="Regular-S">
            <path d="M469.377,76 C467.767,76 466.46,77.307 466.46,78.917 C466.46,80.268 467.386,81.394 468.633,81.725 L464.649,89.823 C463.925,91.121 463.544,92.591 463.544,94.078 L463.544,96.855 C460.604,94.317 456.786,92.771 452.606,92.771 C443.851,92.771 436.652,99.518 435.909,108.083 L435.835,108.083 C434.101,108.083 432.467,108.848 431.358,110.18 C430.245,111.511 429.787,113.256 430.087,114.905 L433.924,138.646 C434.612,142.907 438.242,146 442.56,146 L486.962,146 C491.193,146 494.814,142.979 495.57,138.817 L499.908,114.962 C500.218,113.254 499.759,111.511 498.646,110.18 C497.536,108.847 495.902,108.083 494.169,108.083 L492.71,108.083 L492.71,94.078 C492.71,92.589 492.328,91.121 491.605,89.82 L487.623,81.725 C488.869,81.393 489.794,80.267 489.794,78.917 C489.794,77.307 488.487,76 486.877,76 L469.377,76 Z M475.085,81.833 L481.172,81.833 C482.378,84.284 486.466,92.586 486.492,92.631 C486.745,93.072 486.877,93.572 486.877,94.078 L486.877,108.083 L469.377,108.083 L469.377,94.078 C469.377,93.571 469.509,93.072 469.761,92.634 C469.787,92.588 473.88,84.28 475.085,81.833 Z M452.606,98.604 C458.142,98.604 462.719,102.741 463.435,108.083 L441.777,108.083 C442.493,102.741 447.07,98.604 452.606,98.604 Z M437.55,113.917 L492.422,113.917 C493.332,113.917 494.019,114.742 493.855,115.637 L489.831,137.774 C489.578,139.16 488.371,140.167 486.962,140.167 L442.56,140.167 C441.131,140.167 439.912,139.129 439.683,137.717 L436.109,115.609 C435.964,114.722 436.652,113.917 437.55,113.917 Z M451.877,118.292 C450.267,118.292 448.96,119.598 448.96,121.208 L448.96,132.875 C448.96,134.485 450.267,135.792 451.877,135.792 C453.487,135.792 454.794,134.485 454.794,132.875 L454.794,121.208 C454.794,119.598 453.487,118.292 451.877,118.292 Z M465.002,118.292 C463.392,118.292 462.085,119.598 462.085,121.208 L462.085,132.875 C462.085,134.485 463.392,135.792 465.002,135.792 C466.612,135.792 467.919,134.485 467.919,132.875 L467.919,121.208 C467.919,119.598 466.612,118.292 465.002,118.292 Z M478.127,118.292 C476.517,118.292 475.21,119.598 475.21,121.208 L475.21,132.875 C475.21,134.485 476.517,135.792 478.127,135.792 C479.737,135.792 481.044,134.485 481.044,132.875 L481.044,121.208 C481.044,119.598 479.737,118.292 478.127,118.292 Z" />
        </g>
        <g id="Black-S">
            <path d="M669.377,76 C667.767,76 666.46,77.307 666.46,78.917 C666.46,80.268 667.386,81.394 668.633,81.725 L664.649,89.823 C663.925,91.121 663.544,92.591 663.544,94.078 L663.544,96.855 C660.604,94.317 656.786,92.771 652.606,92.771 C643.851,92.771 636.652,99.518 635.909,108.083 L635.835,108.083 C634.101,108.083 632.467,108.848 631.358,110.18 C630.245,111.511 629.787,113.256 630.087,114.905 L633.924,138.646 C634.612,142.907 638.242,146 642.56,146 L686.962,146 C691.193,146 694.815,142.979 695.57,138.817 L699.908,114.962 C700.219,113.254 699.759,111.511 698.646,110.18 C697.536,108.847 695.902,108.083 694.169,108.083 L692.71,108.083 L692.71,94.078 C692.71,92.589 692.328,91.121 691.605,89.82 L687.623,81.725 C688.869,81.393 689.794,80.267 689.794,78.917 C689.794,77.307 688.487,76 686.877,76 L669.377,76 Z M675.085,81.833 L681.172,81.833 C682.378,84.284 686.466,92.586 686.492,92.631 C686.745,93.072 686.877,93.572 686.877,94.078 L686.877,108.083 L669.377,108.083 L669.377,94.078 C669.377,93.571 669.509,93.072 669.761,92.634 C669.787,92.588 673.88,84.28 675.085,81.833 Z M652.606,98.604 C658.142,98.604 662.719,102.741 663.435,108.083 L641.777,108.083 C642.493,102.741 647.07,98.604 652.606,98.604 Z M637.55,113.917 L692.423,113.917 C693.333,113.917 694.019,114.742 693.855,115.637 L689.831,137.774 C689.578,139.16 688.371,140.167 686.962,140.167 L642.56,140.167 C641.131,140.167 639.912,139.129 639.683,137.717 L636.109,115.609 C635.964,114.722 636.652,113.917 637.55,113.917 Z M651.877,118.292 C650.267,118.292 648.96,119.598 648.96,121.208 L648.96,132.875 C648.96,134.485 650.267,135.792 651.877,135.792 C653.487,135.792 654.794,134.485 654.794,132.875 L654.794,121.208 C654.794,119.598 653.487,118.292 651.877,118.292 Z M665.002,118.292 C663.392,118.292 662.085,119.598 662.085,121.208 L662.085,132.875 C662.085,134.485 663.392,135.792 665.002,135.792 C666.612,135.792 667.919,134.485 667.919,132.875 L667.919,121.208 C667.919,119.598 666.612,118.292 665.002,118.292 Z M678.127,118.292 C676.517,118.292 675.21,119.598 675.21,121.208 L675.21,132.875 C675.21,134.485 676.517,135.792 678.127,135.792 C679.737,135.792 681.044,134.485 681.044,132.875 L681.044,121.208 C681.044,119.598 679.737,118.292 678.127,118.292 Z" />
        </g>
    </g>
</svg>