<?xml version="1.0" encoding="UTF-8"?>
<svg height="600" width="800" xmlns="http://www.w3.org/2000/svg" xmlns:xlink="http://www.w3.org/1999/xlink">
    <g id="Notes" font-family="'LucidaGrande', 'Lucida Grande', sans-serif" font-size="13">
        <rect fill="white" height="600.0" width="800.0" x="0.0" y="0.0" />
        <g font-size="13">
            <text x="18.0" y="176.0">Small</text>
            <text x="18.0" y="376.0">Medium</text>
            <text x="18.0" y="576.0">Large</text>
        </g>
        <g font-size="9">
            <text x="250.0" y="30.0">Ultralight</text>
            <text x="450.0" y="30.0">Regular</text>
            <text x="650.0" y="30.0">Black</text>
            <text id="template-version" fill="#505050" text-anchor="end" x="785.0" y="575.0">Template v.3.0</text>
            <a href="https://wangchujiang.com/#/app">
                <text fill="#505050" text-anchor="end" x="785.0" y="590.0">https://wangchujiang.com/#/app</text>
            </a>
        </g>
    </g>
    <g id="Guides" stroke="rgb(39, 170, 225)" stroke-width="0.5">
        <path id="Capline-S" d="M18,76 l800,0" />
        <path id="H-reference" d="M85,145.755 L87.685,145.755 L113.369,79.287 L114.052,79.287 L114.052,76 L112.148,76 L85,145.755 Z M95.693,121.536 L130.996,121.536 L130.263,119.313 L96.474,119.313 L95.693,121.536 Z M139.15,145.755 L141.787,145.755 L114.638,76 L113.466,76 L113.466,79.287 L139.15,145.755 Z" stroke="none" />
        <path id="Baseline-S" d="M18,146 l800,0" />
        <path id="left-margin-Ultralight-S" d="M221,56 l0,110" />
        <path id="right-margin-Ultralight-S" d="M309,56 l0,110" />
        <path id="left-margin-Regular-S" d="M421,56 l0,110" />
        <path id="right-margin-Regular-S" d="M509,56 l0,110" />
        <path id="left-margin-Black-S" d="M621,56 l0,110" />
        <path id="right-margin-Black-S" d="M709,56 l0,110" />
        <path id="Capline-M" d="M18,276 l800,0" />
        <path id="Baseline-M" d="M18,346 l800,0" />
        <path id="Capline-L" d="M18,476 l800,0" />
        <path id="Baseline-L" d="M18,546 l800,0" />
    </g>
    <g id="Symbols">
        <g id="Ultralight-S">
            <path d="M269.375,76 C267.765,76 266.458,77.307 266.458,78.917 C266.458,80.527 267.765,81.833 269.375,81.833 L269.671,81.833 L263.476,94.42 C262.565,96.05 262.083,97.894 262.083,99.761 L262.083,137.734 C262.083,142.292 265.792,146 270.349,146 L290.276,146 C294.833,146 298.542,142.293 298.542,137.737 L298.542,99.763 C298.542,97.897 298.06,96.052 297.149,94.42 L290.954,81.833 L291.25,81.833 C292.86,81.833 294.167,80.527 294.167,78.917 C294.167,77.307 292.86,76 291.25,76 L269.375,76 Z M276.171,81.833 L284.454,81.833 C285.762,84.49 292.008,97.181 292.036,97.228 C292.155,97.437 292.256,97.653 292.344,97.875 L268.281,97.875 C268.369,97.653 268.47,97.437 268.589,97.228 C268.617,97.182 274.863,84.491 276.171,81.833 Z M241.792,97.878 C240.438,97.823 239.182,98.716 238.838,100.085 C238.447,101.647 239.398,103.229 240.96,103.62 C244.334,104.464 246.164,106.384 246.973,108.411 C238.16,110.037 231.458,117.765 231.458,127.042 C231.458,137.495 239.963,146 250.417,146 C253.61,146 256.617,145.198 259.261,143.798 C258.303,142.054 257.753,140.06 257.72,137.942 C255.631,139.347 253.117,140.167 250.417,140.167 C243.179,140.167 237.292,134.278 237.292,127.042 C237.292,119.805 243.179,113.917 250.417,113.917 C253.113,113.917 255.621,114.736 257.708,116.135 L257.708,109.547 C256.239,108.933 254.671,108.517 253.043,108.288 C251.988,103.298 248.039,99.377 242.376,97.96 C242.181,97.913 241.985,97.886 241.792,97.878 Z M267.917,103.708 L292.708,103.708 L292.708,137.734 C292.708,139.074 291.616,140.167 290.276,140.167 L270.349,140.167 C269.009,140.167 267.917,139.076 267.917,137.737 L267.917,103.708 Z" />
        </g>
        <g id="Regular-S">
            <path d="M469.375,76 C467.765,76 466.458,77.307 466.458,78.917 C466.458,80.527 467.765,81.833 469.375,81.833 L469.671,81.833 L463.476,94.42 C462.565,96.05 462.083,97.894 462.083,99.761 L462.083,137.734 C462.083,142.292 465.792,146 470.349,146 L490.276,146 C494.833,146 498.542,142.293 498.542,137.737 L498.542,99.763 C498.542,97.897 498.06,96.052 497.149,94.42 L490.954,81.833 L491.25,81.833 C492.86,81.833 494.167,80.527 494.167,78.917 C494.167,77.307 492.86,76 491.25,76 L469.375,76 Z M476.171,81.833 L484.454,81.833 C485.762,84.49 492.008,97.181 492.036,97.228 C492.155,97.437 492.256,97.653 492.344,97.875 L468.281,97.875 C468.369,97.653 468.47,97.437 468.589,97.228 C468.617,97.182 474.863,84.491 476.171,81.833 Z M441.792,97.878 C440.438,97.823 439.182,98.716 438.838,100.085 C438.447,101.647 439.398,103.229 440.96,103.62 C444.334,104.464 446.164,106.384 446.973,108.411 C438.16,110.037 431.458,117.765 431.458,127.042 C431.458,137.495 439.963,146 450.417,146 C453.61,146 456.617,145.198 459.261,143.798 C458.303,142.054 457.753,140.06 457.72,137.942 C455.631,139.347 453.117,140.167 450.417,140.167 C443.179,140.167 437.292,134.278 437.292,127.042 C437.292,119.805 443.179,113.917 450.417,113.917 C453.113,113.917 455.621,114.736 457.708,116.135 L457.708,109.547 C456.239,108.933 454.671,108.517 453.043,108.288 C451.988,103.298 448.039,99.377 442.376,97.96 C442.181,97.913 441.985,97.886 441.792,97.878 Z M467.917,103.708 L492.708,103.708 L492.708,137.734 C492.708,139.074 491.616,140.167 490.276,140.167 L470.349,140.167 C469.009,140.167 467.917,139.076 467.917,137.737 L467.917,103.708 Z" />
        </g>
        <g id="Black-S">
            <path d="M669.375,76 C667.765,76 666.458,77.307 666.458,78.917 C666.458,80.527 667.765,81.833 669.375,81.833 L669.671,81.833 L663.476,94.42 C662.565,96.05 662.083,97.894 662.083,99.761 L662.083,137.734 C662.083,142.292 665.792,146 670.349,146 L690.276,146 C694.833,146 698.542,142.293 698.542,137.737 L698.542,99.763 C698.542,97.897 698.06,96.052 697.149,94.42 L690.954,81.833 L691.25,81.833 C692.86,81.833 694.167,80.527 694.167,78.917 C694.167,77.307 692.86,76 691.25,76 L669.375,76 Z M676.171,81.833 L684.454,81.833 C685.762,84.49 692.008,97.181 692.036,97.228 C692.155,97.437 692.256,97.653 692.344,97.875 L668.281,97.875 C668.369,97.653 668.47,97.437 668.589,97.228 C668.617,97.182 674.863,84.491 676.171,81.833 Z M641.792,97.878 C640.438,97.823 639.182,98.716 638.838,100.085 C638.447,101.647 639.398,103.229 640.96,103.62 C644.334,104.464 646.164,106.384 646.973,108.411 C638.16,110.037 631.458,117.765 631.458,127.042 C631.458,137.495 639.963,146 650.417,146 C653.61,146 656.617,145.198 659.261,143.798 C658.303,142.054 657.753,140.06 657.72,137.942 C655.631,139.347 653.117,140.167 650.417,140.167 C643.179,140.167 637.292,134.278 637.292,127.042 C637.292,119.805 643.179,113.917 650.417,113.917 C653.113,113.917 655.621,114.736 657.708,116.135 L657.708,109.547 C656.239,108.933 654.671,108.517 653.043,108.288 C651.988,103.298 648.039,99.377 642.376,97.96 C642.181,97.913 641.985,97.886 641.792,97.878 Z M667.917,103.708 L692.708,103.708 L692.708,137.734 C692.708,139.074 691.616,140.167 690.276,140.167 L670.349,140.167 C669.009,140.167 667.917,139.076 667.917,137.737 L667.917,103.708 Z" />
        </g>
    </g>
</svg>