<?xml version="1.0" encoding="UTF-8"?>
<svg height="600" width="800" xmlns="http://www.w3.org/2000/svg" xmlns:xlink="http://www.w3.org/1999/xlink">
    <g id="Notes" font-family="'LucidaGrande', 'Lucida Grande', sans-serif" font-size="13">
        <rect fill="white" height="600.0" width="800.0" x="0.0" y="0.0" />
        <g font-size="13">
            <text x="18.0" y="176.0">Small</text>
            <text x="18.0" y="376.0">Medium</text>
            <text x="18.0" y="576.0">Large</text>
        </g>
        <g font-size="9">
            <text x="250.0" y="30.0">Ultralight</text>
            <text x="450.0" y="30.0">Regular</text>
            <text x="650.0" y="30.0">Black</text>
            <text id="template-version" fill="#505050" text-anchor="end" x="785.0" y="575.0">Template v.3.0</text>
            <a href="https://wangchujiang.com/#/app">
                <text fill="#505050" text-anchor="end" x="785.0" y="590.0">https://wangchujiang.com/#/app</text>
            </a>
        </g>
    </g>
    <g id="Guides" stroke="rgb(39, 170, 225)" stroke-width="0.5">
        <path id="Capline-S" d="M18,76 l800,0" />
        <path id="H-reference" d="M85,145.755 L87.685,145.755 L113.369,79.287 L114.052,79.287 L114.052,76 L112.148,76 L85,145.755 Z M95.693,121.536 L130.996,121.536 L130.263,119.313 L96.474,119.313 L95.693,121.536 Z M139.15,145.755 L141.787,145.755 L114.638,76 L113.466,76 L113.466,79.287 L139.15,145.755 Z" stroke="none" />
        <path id="Baseline-S" d="M18,146 l800,0" />
        <path id="left-margin-Ultralight-S" d="M220,56 l0,110" />
        <path id="right-margin-Ultralight-S" d="M310,56 l0,110" />
        <path id="left-margin-Regular-S" d="M420,56 l0,110" />
        <path id="right-margin-Regular-S" d="M510,56 l0,110" />
        <path id="left-margin-Black-S" d="M620,56 l0,110" />
        <path id="right-margin-Black-S" d="M710,56 l0,110" />
        <path id="Capline-M" d="M18,276 l800,0" />
        <path id="Baseline-M" d="M18,346 l800,0" />
        <path id="Capline-L" d="M18,476 l800,0" />
        <path id="Baseline-L" d="M18,546 l800,0" />
    </g>
    <g id="Symbols">
        <g id="Ultralight-S">
            <path d="M258,76 C242.561,76 230,88.561 230,104 C230,116.413 238.125,126.951 249.332,130.611 C253.693,139.999 262.985,146 273.4,146 C288.068,146 300,134.068 300,119.4 C300,108.985 293.999,99.694 284.611,95.332 C280.951,84.125 270.413,76 258,76 Z M258,81.6 C270.351,81.6 280.4,91.649 280.4,104 C280.4,116.351 270.351,126.4 258,126.4 C245.649,126.4 235.6,116.351 235.6,104 C235.6,91.649 245.649,81.6 258,81.6 Z M268.5,91.4 C266.567,91.4 265,92.967 265,94.9 C265,96.833 266.567,98.4 268.5,98.4 C270.433,98.4 272,96.833 272,94.9 C272,92.967 270.433,91.4 268.5,91.4 Z M247.5,99.8 C245.567,99.8 244,101.367 244,103.3 C244,105.233 245.567,106.8 247.5,106.8 C249.433,106.8 251,105.233 251,103.3 C251,101.367 249.433,99.8 247.5,99.8 Z M285.967,102.619 C291.206,106.513 294.4,112.657 294.4,119.4 C294.4,130.979 284.979,140.4 273.4,140.4 C266.655,140.4 260.511,137.204 256.616,131.964 C257.075,131.987 257.536,132 258,132 C273.439,132 286,119.439 286,104 C286,103.537 285.99,103.077 285.967,102.619 Z M249.6,111 C248.827,111 248.2,111.627 248.2,112.4 C248.2,113.173 248.827,113.8 249.6,113.8 C250.373,113.8 251,113.173 251,112.4 C251,111.627 250.373,111 249.6,111 Z M264.3,112.4 C263.141,112.4 262.2,113.341 262.2,114.5 C262.2,115.659 263.141,116.6 264.3,116.6 C265.459,116.6 266.4,115.659 266.4,114.5 C266.4,113.341 265.459,112.4 264.3,112.4 Z M286.7,118 C285.541,118 284.6,118.941 284.6,120.1 C284.6,121.259 285.541,122.2 286.7,122.2 C287.859,122.2 288.8,121.259 288.8,120.1 C288.8,118.941 287.859,118 286.7,118 Z M279,127.8 C277.453,127.8 276.2,129.053 276.2,130.6 C276.2,132.147 277.453,133.4 279,133.4 C280.547,133.4 281.8,132.147 281.8,130.6 C281.8,129.053 280.547,127.8 279,127.8 Z" />
        </g>
        <g id="Regular-S">
            <path d="M458,76 C442.561,76 430,88.561 430,104 C430,116.413 438.125,126.951 449.332,130.611 C453.693,139.999 462.985,146 473.4,146 C488.068,146 500,134.068 500,119.4 C500,108.985 493.999,99.694 484.611,95.332 C480.951,84.125 470.413,76 458,76 Z M458,81.6 C470.351,81.6 480.4,91.649 480.4,104 C480.4,116.351 470.351,126.4 458,126.4 C445.649,126.4 435.6,116.351 435.6,104 C435.6,91.649 445.649,81.6 458,81.6 Z M468.5,91.4 C466.567,91.4 465,92.967 465,94.9 C465,96.833 466.567,98.4 468.5,98.4 C470.433,98.4 472,96.833 472,94.9 C472,92.967 470.433,91.4 468.5,91.4 Z M447.5,99.8 C445.567,99.8 444,101.367 444,103.3 C444,105.233 445.567,106.8 447.5,106.8 C449.433,106.8 451,105.233 451,103.3 C451,101.367 449.433,99.8 447.5,99.8 Z M485.967,102.619 C491.206,106.513 494.4,112.657 494.4,119.4 C494.4,130.979 484.979,140.4 473.4,140.4 C466.655,140.4 460.511,137.204 456.616,131.964 C457.075,131.987 457.536,132 458,132 C473.439,132 486,119.439 486,104 C486,103.537 485.99,103.077 485.967,102.619 Z M449.6,111 C448.827,111 448.2,111.627 448.2,112.4 C448.2,113.173 448.827,113.8 449.6,113.8 C450.373,113.8 451,113.173 451,112.4 C451,111.627 450.373,111 449.6,111 Z M464.3,112.4 C463.141,112.4 462.2,113.341 462.2,114.5 C462.2,115.659 463.141,116.6 464.3,116.6 C465.459,116.6 466.4,115.659 466.4,114.5 C466.4,113.341 465.459,112.4 464.3,112.4 Z M486.7,118 C485.541,118 484.6,118.941 484.6,120.1 C484.6,121.259 485.541,122.2 486.7,122.2 C487.859,122.2 488.8,121.259 488.8,120.1 C488.8,118.941 487.859,118 486.7,118 Z M479,127.8 C477.453,127.8 476.2,129.053 476.2,130.6 C476.2,132.147 477.453,133.4 479,133.4 C480.547,133.4 481.8,132.147 481.8,130.6 C481.8,129.053 480.547,127.8 479,127.8 Z" />
        </g>
        <g id="Black-S">
            <path d="M658,76 C642.561,76 630,88.561 630,104 C630,116.413 638.125,126.951 649.332,130.611 C653.693,139.999 662.985,146 673.4,146 C688.068,146 700,134.068 700,119.4 C700,108.985 693.999,99.694 684.611,95.332 C680.951,84.125 670.413,76 658,76 Z M658,81.6 C670.351,81.6 680.4,91.649 680.4,104 C680.4,116.351 670.351,126.4 658,126.4 C645.649,126.4 635.6,116.351 635.6,104 C635.6,91.649 645.649,81.6 658,81.6 Z M668.5,91.4 C666.567,91.4 665,92.967 665,94.9 C665,96.833 666.567,98.4 668.5,98.4 C670.433,98.4 672,96.833 672,94.9 C672,92.967 670.433,91.4 668.5,91.4 Z M647.5,99.8 C645.567,99.8 644,101.367 644,103.3 C644,105.233 645.567,106.8 647.5,106.8 C649.433,106.8 651,105.233 651,103.3 C651,101.367 649.433,99.8 647.5,99.8 Z M685.967,102.619 C691.206,106.513 694.4,112.657 694.4,119.4 C694.4,130.979 684.979,140.4 673.4,140.4 C666.655,140.4 660.511,137.204 656.616,131.964 C657.075,131.987 657.536,132 658,132 C673.439,132 686,119.439 686,104 C686,103.537 685.99,103.077 685.967,102.619 Z M649.6,111 C648.827,111 648.2,111.627 648.2,112.4 C648.2,113.173 648.827,113.8 649.6,113.8 C650.373,113.8 651,113.173 651,112.4 C651,111.627 650.373,111 649.6,111 Z M664.3,112.4 C663.141,112.4 662.2,113.341 662.2,114.5 C662.2,115.659 663.141,116.6 664.3,116.6 C665.459,116.6 666.4,115.659 666.4,114.5 C666.4,113.341 665.459,112.4 664.3,112.4 Z M686.7,118 C685.541,118 684.6,118.941 684.6,120.1 C684.6,121.259 685.541,122.2 686.7,122.2 C687.859,122.2 688.8,121.259 688.8,120.1 C688.8,118.941 687.859,118 686.7,118 Z M679,127.8 C677.453,127.8 676.2,129.053 676.2,130.6 C676.2,132.147 677.453,133.4 679,133.4 C680.547,133.4 681.8,132.147 681.8,130.6 C681.8,129.053 680.547,127.8 679,127.8 Z" />
        </g>
    </g>
</svg>