<?xml version="1.0" encoding="UTF-8"?>
<svg height="600" width="800" xmlns="http://www.w3.org/2000/svg" xmlns:xlink="http://www.w3.org/1999/xlink">
    <g id="Notes" font-family="'LucidaGrande', 'Lucida Grande', sans-serif" font-size="13">
        <rect fill="white" height="600.0" width="800.0" x="0.0" y="0.0" />
        <g font-size="13">
            <text x="18.0" y="176.0">Small</text>
            <text x="18.0" y="376.0">Medium</text>
            <text x="18.0" y="576.0">Large</text>
        </g>
        <g font-size="9">
            <text x="250.0" y="30.0">Ultralight</text>
            <text x="450.0" y="30.0">Regular</text>
            <text x="650.0" y="30.0">Black</text>
            <text id="template-version" fill="#505050" text-anchor="end" x="785.0" y="575.0">Template v.3.0</text>
            <a href="https://wangchujiang.com/#/app">
                <text fill="#505050" text-anchor="end" x="785.0" y="590.0">https://wangchujiang.com/#/app</text>
            </a>
        </g>
    </g>
    <g id="Guides" stroke="rgb(39, 170, 225)" stroke-width="0.5">
        <path id="Capline-S" d="M18,76 l800,0" />
        <path id="H-reference" d="M85,145.755 L87.685,145.755 L113.369,79.287 L114.052,79.287 L114.052,76 L112.148,76 L85,145.755 Z M95.693,121.536 L130.996,121.536 L130.263,119.313 L96.474,119.313 L95.693,121.536 Z M139.15,145.755 L141.787,145.755 L114.638,76 L113.466,76 L113.466,79.287 L139.15,145.755 Z" stroke="none" />
        <path id="Baseline-S" d="M18,146 l800,0" />
        <path id="left-margin-Ultralight-S" d="M221,56 l0,110" />
        <path id="right-margin-Ultralight-S" d="M309,56 l0,110" />
        <path id="left-margin-Regular-S" d="M421,56 l0,110" />
        <path id="right-margin-Regular-S" d="M509,56 l0,110" />
        <path id="left-margin-Black-S" d="M621,56 l0,110" />
        <path id="right-margin-Black-S" d="M709,56 l0,110" />
        <path id="Capline-M" d="M18,276 l800,0" />
        <path id="Baseline-M" d="M18,346 l800,0" />
        <path id="Capline-L" d="M18,476 l800,0" />
        <path id="Baseline-L" d="M18,546 l800,0" />
    </g>
    <g id="Symbols">
        <g id="Ultralight-S">
            <path d="M245.739,128.013 C245.399,128.013 245.054,127.941 244.725,127.79 C243.506,127.23 242.975,125.788 243.534,124.569 C243.669,124.277 246.941,117.333 256.084,112.054 C257.243,111.381 258.73,111.781 259.4,112.943 C260.07,114.104 259.673,115.589 258.511,116.259 C250.693,120.774 247.972,126.542 247.946,126.599 C247.535,127.489 246.657,128.013 245.739,128.013 Z" />
            <path d="M293.37,83.485 C296.028,85.962 297.148,89.899 296.505,94.93 C296.126,97.897 295.245,100.597 294.687,102.098 C293.888,105.729 291.601,114.047 285.839,124.094 C277.663,138.35 268.049,145.297 255.582,145.959 C255.057,145.987 254.536,146 254.02,146 C245.78,146 238.927,142.47 235.495,136.381 C231.967,130.119 232.754,122.397 237.656,115.192 C241.823,109.068 247.611,106.699 253.211,104.409 C257.522,102.645 261.593,100.98 265.045,97.667 C269.98,92.931 272.223,89.275 272.246,89.239 C272.256,89.223 272.269,89.211 272.279,89.195 C272.285,89.184 272.288,89.172 272.295,89.162 C274.88,85.222 281.514,78.888 289.118,81.121 L291.683,77.118 C292.406,75.99 293.906,75.66 295.036,76.384 C296.165,77.107 296.494,78.608 295.769,79.737 L293.37,83.485 Z M288.771,86.155 C285.275,84.554 282.045,86.165 279.757,88.077 C283.255,88.48 286.239,89.683 288.67,91.674 C289.88,92.666 290.838,93.767 291.595,94.872 C292.135,91.416 291.9,87.588 288.771,86.155 Z M281.626,121.677 C286.33,113.477 288.573,106.457 289.563,102.602 C289.563,102.595 289.561,102.589 289.56,102.583 C289.44,101.496 288.055,92.12 275.692,92.822 C274.611,94.378 272.263,97.472 268.407,101.171 C264.288,105.124 259.59,107.045 255.049,108.903 C249.888,111.014 245.014,113.008 241.67,117.924 C237.845,123.545 237.136,129.404 239.725,133.998 C242.446,138.827 248.29,141.484 255.327,141.111 C265.99,140.544 274.349,134.37 281.626,121.677 Z" />
        </g>
        <g id="Regular-S">
            <path d="M445.739,128.013 C445.399,128.013 445.054,127.941 444.725,127.79 C443.506,127.23 442.975,125.788 443.534,124.569 C443.669,124.277 446.941,117.333 456.084,112.054 C457.243,111.381 458.73,111.781 459.4,112.943 C460.07,114.104 459.673,115.589 458.511,116.259 C450.693,120.774 447.972,126.542 447.946,126.599 C447.535,127.489 446.657,128.013 445.739,128.013 Z" />
            <path d="M493.37,83.485 C496.028,85.962 497.148,89.899 496.505,94.93 C496.126,97.897 495.245,100.597 494.687,102.098 C493.888,105.729 491.601,114.047 485.839,124.094 C477.663,138.35 468.049,145.297 455.582,145.959 C455.057,145.987 454.536,146 454.02,146 C445.78,146 438.927,142.47 435.495,136.381 C431.967,130.119 432.754,122.397 437.656,115.192 C441.823,109.068 447.611,106.699 453.211,104.409 C457.522,102.645 461.593,100.98 465.045,97.667 C469.98,92.931 472.223,89.275 472.246,89.239 C472.256,89.223 472.269,89.211 472.279,89.195 C472.285,89.184 472.288,89.172 472.295,89.162 C474.88,85.222 481.514,78.888 489.118,81.121 L491.683,77.118 C492.406,75.99 493.906,75.66 495.036,76.384 C496.165,77.107 496.494,78.608 495.769,79.737 L493.37,83.485 Z M488.771,86.155 C485.275,84.554 482.045,86.165 479.757,88.077 C483.255,88.48 486.239,89.683 488.67,91.674 C489.88,92.666 490.838,93.767 491.595,94.872 C492.135,91.416 491.9,87.588 488.771,86.155 Z M481.626,121.677 C486.33,113.477 488.573,106.457 489.563,102.602 C489.563,102.595 489.561,102.589 489.56,102.583 C489.44,101.496 488.055,92.12 475.692,92.822 C474.611,94.378 472.263,97.472 468.407,101.171 C464.288,105.124 459.59,107.045 455.049,108.903 C449.888,111.014 445.014,113.008 441.67,117.924 C437.845,123.545 437.137,129.404 439.725,133.998 C442.446,138.827 448.29,141.484 455.327,141.111 C465.99,140.544 474.349,134.37 481.626,121.677 Z" />
        </g>
        <g id="Black-S">
            <path d="M645.739,128.013 C645.399,128.013 645.054,127.941 644.725,127.79 C643.506,127.23 642.975,125.788 643.534,124.569 C643.669,124.277 646.941,117.333 656.084,112.054 C657.243,111.381 658.73,111.781 659.4,112.943 C660.07,114.104 659.673,115.589 658.511,116.259 C650.693,120.774 647.972,126.542 647.946,126.599 C647.535,127.489 646.657,128.013 645.739,128.013 Z" />
            <path d="M693.37,83.485 C696.028,85.962 697.148,89.899 696.505,94.93 C696.126,97.897 695.245,100.597 694.687,102.098 C693.888,105.729 691.601,114.047 685.839,124.094 C677.663,138.35 668.049,145.297 655.582,145.959 C655.057,145.987 654.536,146 654.02,146 C645.78,146 638.927,142.47 635.495,136.381 C631.967,130.119 632.754,122.397 637.656,115.192 C641.823,109.068 647.611,106.699 653.211,104.409 C657.522,102.645 661.593,100.98 665.045,97.667 C669.98,92.931 672.223,89.275 672.246,89.239 C672.256,89.223 672.269,89.211 672.279,89.195 C672.285,89.184 672.288,89.172 672.295,89.162 C674.88,85.222 681.514,78.888 689.118,81.121 L691.683,77.118 C692.406,75.99 693.906,75.66 695.036,76.384 C696.165,77.107 696.494,78.608 695.769,79.737 L693.37,83.485 Z M688.771,86.155 C685.275,84.554 682.045,86.165 679.757,88.077 C683.255,88.48 686.239,89.683 688.67,91.674 C689.88,92.666 690.838,93.767 691.595,94.872 C692.135,91.416 691.9,87.588 688.771,86.155 Z M681.626,121.677 C686.33,113.477 688.573,106.457 689.563,102.602 C689.563,102.595 689.561,102.589 689.56,102.583 C689.44,101.496 688.055,92.12 675.692,92.822 C674.611,94.378 672.263,97.472 668.407,101.171 C664.288,105.124 659.59,107.045 655.049,108.903 C649.888,111.014 645.014,113.008 641.67,117.924 C637.845,123.545 637.137,129.404 639.726,133.998 C642.446,138.827 648.29,141.484 655.327,141.111 C665.991,140.544 674.349,134.37 681.626,121.677 Z" />
        </g>
    </g>
</svg>