<?xml version="1.0" encoding="UTF-8"?>
<svg height="600" width="800" xmlns="http://www.w3.org/2000/svg" xmlns:xlink="http://www.w3.org/1999/xlink">
    <g id="Notes" font-family="'LucidaGrande', 'Lucida Grande', sans-serif" font-size="13">
        <rect fill="white" height="600.0" width="800.0" x="0.0" y="0.0" />
        <g font-size="13">
            <text x="18.0" y="176.0">Small</text>
            <text x="18.0" y="376.0">Medium</text>
            <text x="18.0" y="576.0">Large</text>
        </g>
        <g font-size="9">
            <text x="250.0" y="30.0">Ultralight</text>
            <text x="450.0" y="30.0">Regular</text>
            <text x="650.0" y="30.0">Black</text>
            <text id="template-version" fill="#505050" text-anchor="end" x="785.0" y="575.0">Template v.3.0</text>
            <a href="https://wangchujiang.com/#/app">
                <text fill="#505050" text-anchor="end" x="785.0" y="590.0">https://wangchujiang.com/#/app</text>
            </a>
        </g>
    </g>
    <g id="Guides" stroke="rgb(39, 170, 225)" stroke-width="0.5">
        <path id="Capline-S" d="M18,76 l800,0" />
        <path id="H-reference" d="M85,145.755 L87.685,145.755 L113.369,79.287 L114.052,79.287 L114.052,76 L112.148,76 L85,145.755 Z M95.693,121.536 L130.996,121.536 L130.263,119.313 L96.474,119.313 L95.693,121.536 Z M139.15,145.755 L141.787,145.755 L114.638,76 L113.466,76 L113.466,79.287 L139.15,145.755 Z" stroke="none" />
        <path id="Baseline-S" d="M18,146 l800,0" />
        <path id="left-margin-Ultralight-S" d="M219.983,56 l0,110" />
        <path id="right-margin-Ultralight-S" d="M310.017,56 l0,110" />
        <path id="left-margin-Regular-S" d="M419.983,56 l0,110" />
        <path id="right-margin-Regular-S" d="M510.017,56 l0,110" />
        <path id="left-margin-Black-S" d="M619.983,56 l0,110" />
        <path id="right-margin-Black-S" d="M710.017,56 l0,110" />
        <path id="Capline-M" d="M18,276 l800,0" />
        <path id="Baseline-M" d="M18,346 l800,0" />
        <path id="Capline-L" d="M18,476 l800,0" />
        <path id="Baseline-L" d="M18,546 l800,0" />
    </g>
    <g id="Symbols">
        <g id="Ultralight-S">
            <path d="M285.511,76.026 C274.819,75.611 258.926,80.05 246.482,92.496 C228.381,110.593 227.207,135.987 233.292,142.07 C245.466,154.247 264.671,135.354 277.005,123.019 C292.187,107.837 307.434,90.685 296.056,79.307 C294.157,77.407 290.372,76.215 285.511,76.026 Z M284.375,81.891 C288.242,81.875 291.001,82.541 291.911,83.451 C297.649,89.19 291.951,99.784 272.86,118.875 C253.771,137.964 243.176,143.665 237.437,137.926 C235.474,135.962 234.568,124.743 239.87,112.472 C241.149,115.742 243.09,118.68 245.331,120.36 C246.631,121.333 248.465,121.066 249.433,119.773 C250.404,118.479 250.141,116.643 248.846,115.672 C246.631,114.011 244.157,109.021 244.157,104.827 C244.157,104.741 244.139,104.661 244.132,104.578 C245.916,101.887 248.046,99.23 250.58,96.689 C251.67,102.273 254.317,107.407 258.205,111.295 C259.351,112.441 261.205,112.44 262.35,111.295 C263.494,110.151 263.494,108.295 262.35,107.151 C258.488,103.287 256.199,97.823 255.933,92.024 C258.436,90.128 261,88.547 263.546,87.249 C264.237,91.718 265.967,95.609 268.464,98.106 C269.61,99.252 271.464,99.251 272.608,98.106 C273.753,96.961 273.753,95.106 272.608,93.961 C270.74,92.093 269.483,88.697 269.159,84.825 C274.89,82.729 280.263,81.909 284.375,81.891 Z" />
        </g>
        <g id="Regular-S">
            <path d="M485.511,76.026 C474.819,75.611 458.926,80.05 446.482,92.496 C428.381,110.593 427.207,135.987 433.292,142.07 C445.466,154.247 464.671,135.354 477.005,123.019 C492.187,107.837 507.434,90.685 496.056,79.307 C494.157,77.407 490.372,76.215 485.511,76.026 Z M484.375,81.891 C488.242,81.875 491.001,82.541 491.911,83.451 C497.649,89.19 491.951,99.784 472.86,118.875 C453.771,137.964 443.176,143.665 437.437,137.926 C435.474,135.962 434.568,124.743 439.87,112.472 C441.149,115.742 443.09,118.68 445.331,120.36 C446.631,121.333 448.465,121.066 449.432,119.773 C450.404,118.479 450.141,116.643 448.846,115.672 C446.631,114.011 444.157,109.021 444.157,104.827 C444.157,104.741 444.139,104.661 444.132,104.578 C445.916,101.887 448.046,99.23 450.58,96.689 C451.67,102.273 454.317,107.407 458.205,111.295 C459.351,112.441 461.205,112.44 462.35,111.295 C463.494,110.151 463.494,108.295 462.35,107.151 C458.488,103.287 456.199,97.823 455.933,92.024 C458.436,90.128 461,88.547 463.546,87.249 C464.237,91.718 465.967,95.609 468.464,98.106 C469.61,99.252 471.464,99.251 472.608,98.106 C473.753,96.961 473.753,95.106 472.608,93.961 C470.74,92.093 469.483,88.697 469.159,84.825 C474.89,82.729 480.263,81.909 484.375,81.891 Z" />
        </g>
        <g id="Black-S">
            <path d="M685.511,76.026 C674.819,75.611 658.926,80.05 646.482,92.496 C628.381,110.593 627.207,135.987 633.292,142.07 C645.466,154.247 664.671,135.354 677.005,123.019 C692.187,107.837 707.434,90.685 696.056,79.307 C694.157,77.407 690.372,76.215 685.511,76.026 Z M684.375,81.891 C688.242,81.875 691.001,82.541 691.911,83.451 C697.649,89.19 691.951,99.784 672.86,118.875 C653.771,137.964 643.176,143.665 637.437,137.926 C635.474,135.962 634.568,124.743 639.87,112.472 C641.149,115.742 643.09,118.68 645.331,120.36 C646.631,121.333 648.465,121.066 649.432,119.773 C650.404,118.479 650.141,116.643 648.846,115.672 C646.631,114.011 644.157,109.021 644.157,104.827 C644.157,104.741 644.139,104.661 644.132,104.578 C645.916,101.887 648.046,99.23 650.58,96.689 C651.67,102.273 654.317,107.407 658.205,111.295 C659.351,112.441 661.205,112.44 662.35,111.295 C663.494,110.151 663.494,108.295 662.35,107.151 C658.488,103.287 656.199,97.823 655.933,92.024 C658.436,90.128 661,88.547 663.546,87.249 C664.237,91.718 665.967,95.609 668.464,98.106 C669.61,99.252 671.464,99.251 672.608,98.106 C673.753,96.961 673.753,95.106 672.608,93.961 C670.74,92.093 669.483,88.697 669.159,84.825 C674.89,82.729 680.263,81.909 684.375,81.891 Z" />
        </g>
    </g>
</svg>