<?xml version="1.0" encoding="UTF-8"?>
<svg height="600" width="800" xmlns="http://www.w3.org/2000/svg" xmlns:xlink="http://www.w3.org/1999/xlink">
    <g id="Notes" font-family="'LucidaGrande', 'Lucida Grande', sans-serif" font-size="13">
        <rect fill="white" height="600.0" width="800.0" x="0.0" y="0.0" />
        <g font-size="13">
            <text x="18.0" y="176.0">Small</text>
            <text x="18.0" y="376.0">Medium</text>
            <text x="18.0" y="576.0">Large</text>
        </g>
        <g font-size="9">
            <text x="250.0" y="30.0">Ultralight</text>
            <text x="450.0" y="30.0">Regular</text>
            <text x="650.0" y="30.0">Black</text>
            <text id="template-version" fill="#505050" text-anchor="end" x="785.0" y="575.0">Template v.3.0</text>
            <a href="https://wangchujiang.com/#/app">
                <text fill="#505050" text-anchor="end" x="785.0" y="590.0">https://wangchujiang.com/#/app</text>
            </a>
        </g>
    </g>
    <g id="Guides" stroke="rgb(39, 170, 225)" stroke-width="0.5">
        <path id="Capline-S" d="M18,76 l800,0" />
        <path id="H-reference" d="M85,145.755 L87.685,145.755 L113.369,79.287 L114.052,79.287 L114.052,76 L112.148,76 L85,145.755 Z M95.693,121.536 L130.996,121.536 L130.263,119.313 L96.474,119.313 L95.693,121.536 Z M139.15,145.755 L141.787,145.755 L114.638,76 L113.466,76 L113.466,79.287 L139.15,145.755 Z" stroke="none" />
        <path id="Baseline-S" d="M18,146 l800,0" />
        <path id="left-margin-Ultralight-S" d="M221,56 l0,110" />
        <path id="right-margin-Ultralight-S" d="M309,56 l0,110" />
        <path id="left-margin-Regular-S" d="M421,56 l0,110" />
        <path id="right-margin-Regular-S" d="M509,56 l0,110" />
        <path id="left-margin-Black-S" d="M621,56 l0,110" />
        <path id="right-margin-Black-S" d="M709,56 l0,110" />
        <path id="Capline-M" d="M18,276 l800,0" />
        <path id="Baseline-M" d="M18,346 l800,0" />
        <path id="Capline-L" d="M18,476 l800,0" />
        <path id="Baseline-L" d="M18,546 l800,0" />
    </g>
    <g id="Symbols">
        <g id="Ultralight-S">
            <path d="M297.306,120.252 C297.532,123.469 296.041,126.633 293.415,128.508 L285.277,134.323 C285.128,134.429 284.994,134.558 284.878,134.707 L277.426,144.464 C277.426,144.464 275.969,145.773 274.29,144.571 C272.459,143.26 273.613,141.499 273.613,141.499 L281.069,131.739 C281.475,131.22 281.946,130.77 282.471,130.395 L290.608,124.581 C291.877,123.674 292.598,122.145 292.489,120.588 C292.381,119.031 291.455,117.618 290.071,116.896 C287.151,115.376 285.887,111.819 287.191,108.8 L288.347,106.119 C288.887,104.867 288.83,103.46 288.193,102.258 C287.555,101.054 286.422,100.218 285.086,99.962 L284.942,99.935 C281.777,99.33 279.479,96.55 279.479,93.325 L279.479,88.885 C279.479,88.33 279.247,87.79 278.843,87.406 C278.439,87.023 277.896,86.825 277.334,86.848 L274.508,86.992 C271.727,87.141 269.13,85.528 268.01,82.996 L267.551,81.957 C267.306,81.403 266.8,80.994 266.202,80.87 C265.607,80.743 264.979,80.916 264.53,81.327 L263.191,82.552 C261.736,83.882 259.719,84.418 257.796,83.992 L256.632,83.733 C256.072,83.608 255.492,83.741 255.04,84.098 C254.589,84.453 254.326,84.987 254.318,85.561 L254.267,89.02 C256.076,88.341 258.065,88.449 259.79,89.35 C261.621,90.304 262.903,92.016 263.306,94.043 L263.673,95.89 C263.698,96.018 263.777,96.129 263.889,96.196 C264,96.263 264.133,96.278 264.261,96.24 C266.557,95.533 269.099,96.103 270.877,97.734 C272.655,99.362 273.445,101.839 272.941,104.197 L271.864,109.219 C271.835,109.353 271.894,109.488 272.013,109.555 C273.993,110.687 275.41,112.609 275.907,114.831 C276.405,117.053 275.938,119.396 274.628,121.261 L273.055,123.498 C272.541,124.231 272.614,125.234 273.228,125.885 C275.632,128.437 275.816,132.294 273.662,135.059 L265.874,145.069 L265.825,145.031 C265.385,145.616 264.689,146 263.901,146 C263.894,146 263.886,146 263.879,146 C262.547,145.988 261.475,144.898 261.487,143.564 C261.635,126.993 259.4,114.653 247.814,104.355 C246.818,103.469 246.729,101.944 247.613,100.948 C248.499,99.951 250.022,99.862 251.022,100.748 C262.197,110.681 265.595,122.482 266.207,136.78 L269.853,132.094 C270.533,131.22 270.476,130.002 269.718,129.198 C267.537,126.885 267.281,123.322 269.106,120.725 L270.678,118.487 C271.209,117.731 271.398,116.783 271.197,115.884 C270.996,114.983 270.422,114.206 269.622,113.747 C267.67,112.632 266.674,110.405 267.144,108.208 L268.222,103.186 C268.369,102.495 268.137,101.77 267.616,101.292 C267.096,100.814 266.357,100.648 265.677,100.854 C264.244,101.291 262.69,101.103 261.413,100.339 C260.132,99.572 259.229,98.293 258.939,96.829 L258.572,94.981 C258.456,94.398 258.087,93.904 257.557,93.628 C257.027,93.349 256.41,93.33 255.864,93.569 L254.149,94.32 C252.364,95.102 250.287,94.746 248.861,93.411 C248.03,92.632 246.84,92.349 245.743,92.669 C244.652,92.991 243.802,93.875 243.526,94.98 L242.783,97.949 C242.601,98.68 242.086,99.284 241.393,99.582 L239.474,100.403 C238.265,100.92 237.49,102.104 237.499,103.419 C237.509,104.733 238.301,105.906 239.516,106.407 L240.16,106.671 C243.721,108.139 245.483,112.251 244.089,115.838 L243.814,116.545 C243.603,117.091 243.657,117.715 243.96,118.215 C244.268,118.724 244.783,119.053 245.373,119.121 C245.39,119.122 245.405,119.124 245.422,119.127 C246.977,119.314 248.396,120.145 249.318,121.414 C250.248,122.69 250.603,124.312 250.293,125.864 L250.012,127.259 C249.88,127.917 250.037,128.602 250.442,129.139 C250.849,129.674 251.467,130.011 252.137,130.06 L252.709,130.104 C255.598,130.314 257.866,132.756 257.866,135.66 L257.866,139.965 C257.866,141.298 256.785,142.379 255.452,142.379 C254.12,142.379 253.039,141.298 253.039,139.965 L253.039,135.66 C253.039,135.27 252.734,134.943 252.347,134.914 L251.781,134.872 C249.729,134.72 247.838,133.693 246.595,132.054 C245.352,130.414 244.873,128.317 245.278,126.301 L245.558,124.91 C245.604,124.683 245.552,124.443 245.414,124.255 C245.277,124.065 245.067,123.944 244.836,123.918 C244.821,123.917 244.806,123.915 244.79,123.912 C242.748,123.668 240.895,122.476 239.83,120.715 C238.756,118.941 238.563,116.73 239.313,114.797 L239.589,114.091 C240.038,112.934 239.469,111.609 238.323,111.137 L237.678,110.871 C234.66,109.628 232.695,106.717 232.672,103.454 C232.648,100.19 234.571,97.25 237.573,95.965 L238.39,95.615 L238.842,93.807 C239.53,91.05 241.652,88.838 244.38,88.035 C246.066,87.539 247.846,87.624 249.452,88.216 L249.491,85.487 C249.52,83.454 250.453,81.565 252.049,80.306 C253.646,79.046 255.7,78.575 257.682,79.018 L258.845,79.278 C259.234,79.365 259.64,79.255 259.934,78.987 L261.27,77.763 C262.864,76.305 265.076,75.699 267.192,76.142 C269.305,76.584 271.089,78.027 271.966,80.002 L272.413,81.015 C272.74,81.754 273.45,82.207 274.261,82.168 L277.084,82.024 C278.958,81.925 280.809,82.613 282.168,83.904 C283.527,85.195 284.305,87.011 284.305,88.882 L284.305,93.323 C284.355,94.829 285.992,95.219 285.992,95.219 C288.774,95.75 291.13,97.491 292.458,99.996 C293.784,102.499 293.901,105.427 292.78,108.029 L291.623,110.711 C291.316,111.422 291.613,112.257 292.299,112.614 C295.165,114.107 297.082,117.033 297.306,120.252 Z" />
        </g>
        <g id="Regular-S">
            <path d="M497.306,120.252 C497.532,123.469 496.041,126.633 493.415,128.508 L485.277,134.323 C485.128,134.429 484.994,134.558 484.878,134.707 L477.426,144.464 C477.426,144.464 475.969,145.773 474.29,144.571 C472.459,143.26 473.613,141.499 473.613,141.499 L481.069,131.739 C481.475,131.22 481.946,130.77 482.471,130.395 L490.608,124.581 C491.877,123.674 492.598,122.145 492.489,120.588 C492.381,119.031 491.455,117.618 490.071,116.896 C487.151,115.376 485.887,111.819 487.191,108.8 L488.347,106.119 C488.887,104.867 488.83,103.46 488.193,102.258 C487.555,101.054 486.422,100.218 485.086,99.962 L484.942,99.935 C481.777,99.33 479.479,96.55 479.479,93.325 L479.479,88.885 C479.479,88.33 479.247,87.79 478.843,87.406 C478.439,87.023 477.896,86.825 477.334,86.848 L474.508,86.992 C471.727,87.141 469.13,85.528 468.01,82.996 L467.551,81.957 C467.306,81.403 466.8,80.994 466.202,80.87 C465.607,80.743 464.979,80.916 464.53,81.327 L463.191,82.552 C461.736,83.882 459.719,84.418 457.796,83.992 L456.632,83.733 C456.072,83.608 455.492,83.741 455.04,84.098 C454.589,84.453 454.326,84.987 454.318,85.561 L454.267,89.02 C456.076,88.341 458.065,88.449 459.79,89.35 C461.621,90.304 462.903,92.016 463.306,94.043 L463.673,95.89 C463.698,96.018 463.777,96.129 463.889,96.196 C464,96.263 464.133,96.278 464.261,96.24 C466.557,95.533 469.099,96.103 470.877,97.734 C472.655,99.362 473.445,101.839 472.941,104.197 L471.864,109.219 C471.835,109.353 471.894,109.488 472.013,109.555 C473.993,110.687 475.41,112.609 475.907,114.831 C476.405,117.053 475.938,119.396 474.628,121.261 L473.055,123.498 C472.541,124.231 472.614,125.234 473.228,125.885 C475.632,128.437 475.816,132.294 473.662,135.059 L465.874,145.069 L465.825,145.031 C465.385,145.616 464.689,146 463.901,146 C463.894,146 463.886,146 463.879,146 C462.547,145.988 461.475,144.898 461.487,143.564 C461.635,126.993 459.4,114.653 447.814,104.355 C446.818,103.469 446.729,101.944 447.613,100.948 C448.499,99.951 450.022,99.862 451.022,100.748 C462.197,110.681 465.595,122.482 466.207,136.78 L469.853,132.094 C470.533,131.22 470.476,130.002 469.718,129.198 C467.537,126.885 467.281,123.322 469.106,120.725 L470.678,118.487 C471.209,117.731 471.398,116.783 471.197,115.884 C470.996,114.983 470.422,114.206 469.622,113.747 C467.67,112.632 466.674,110.405 467.144,108.208 L468.222,103.186 C468.369,102.495 468.137,101.77 467.616,101.292 C467.096,100.814 466.357,100.648 465.677,100.854 C464.244,101.291 462.69,101.103 461.413,100.339 C460.132,99.572 459.229,98.293 458.939,96.829 L458.572,94.981 C458.456,94.398 458.087,93.904 457.557,93.628 C457.027,93.349 456.41,93.33 455.864,93.569 L454.149,94.32 C452.364,95.102 450.287,94.746 448.861,93.411 C448.03,92.632 446.84,92.349 445.743,92.669 C444.652,92.991 443.802,93.875 443.526,94.98 L442.783,97.949 C442.601,98.68 442.086,99.284 441.393,99.582 L439.474,100.403 C438.265,100.92 437.49,102.104 437.499,103.419 C437.509,104.733 438.301,105.906 439.516,106.407 L440.16,106.671 C443.721,108.139 445.483,112.251 444.089,115.838 L443.814,116.545 C443.603,117.091 443.657,117.715 443.96,118.215 C444.268,118.724 444.783,119.053 445.373,119.121 C445.39,119.122 445.405,119.124 445.422,119.127 C446.977,119.314 448.396,120.145 449.318,121.414 C450.248,122.69 450.603,124.312 450.293,125.864 L450.012,127.259 C449.88,127.917 450.037,128.602 450.443,129.139 C450.849,129.674 451.467,130.011 452.137,130.06 L452.709,130.104 C455.598,130.314 457.866,132.756 457.866,135.66 L457.866,139.965 C457.866,141.298 456.785,142.379 455.452,142.379 C454.12,142.379 453.039,141.298 453.039,139.965 L453.039,135.66 C453.039,135.27 452.734,134.943 452.347,134.914 L451.781,134.872 C449.729,134.72 447.838,133.693 446.595,132.054 C445.352,130.414 444.873,128.317 445.278,126.301 L445.558,124.91 C445.604,124.683 445.552,124.443 445.414,124.255 C445.277,124.065 445.067,123.944 444.836,123.918 C444.821,123.917 444.806,123.915 444.79,123.912 C442.748,123.668 440.895,122.476 439.83,120.715 C438.756,118.941 438.563,116.73 439.313,114.797 L439.589,114.091 C440.038,112.934 439.469,111.609 438.323,111.137 L437.678,110.871 C434.66,109.628 432.695,106.717 432.672,103.454 C432.648,100.19 434.571,97.25 437.573,95.965 L438.39,95.615 L438.842,93.807 C439.53,91.05 441.652,88.838 444.38,88.035 C446.066,87.539 447.846,87.624 449.452,88.216 L449.491,85.487 C449.52,83.454 450.453,81.565 452.049,80.306 C453.646,79.046 455.7,78.575 457.682,79.018 L458.845,79.278 C459.234,79.365 459.64,79.255 459.934,78.987 L461.27,77.763 C462.864,76.305 465.076,75.699 467.192,76.142 C469.305,76.584 471.089,78.027 471.966,80.002 L472.413,81.015 C472.74,81.754 473.45,82.207 474.261,82.168 L477.084,82.024 C478.958,81.925 480.809,82.613 482.168,83.904 C483.527,85.195 484.305,87.011 484.305,88.882 L484.305,93.323 C484.355,94.829 485.992,95.219 485.992,95.219 C488.774,95.75 491.13,97.491 492.458,99.996 C493.784,102.499 493.901,105.427 492.78,108.029 L491.623,110.711 C491.316,111.422 491.613,112.257 492.299,112.614 C495.165,114.107 497.082,117.033 497.306,120.252 Z" />
        </g>
        <g id="Black-S">
            <path d="M697.306,120.252 C697.532,123.469 696.041,126.633 693.415,128.508 L685.277,134.323 C685.128,134.429 684.994,134.558 684.878,134.707 L677.426,144.464 C677.426,144.464 675.969,145.773 674.29,144.571 C672.459,143.26 673.613,141.499 673.613,141.499 L681.069,131.739 C681.475,131.22 681.946,130.77 682.471,130.395 L690.608,124.581 C691.877,123.674 692.598,122.145 692.489,120.588 C692.381,119.031 691.455,117.618 690.071,116.896 C687.151,115.376 685.887,111.819 687.191,108.8 L688.347,106.119 C688.887,104.867 688.83,103.46 688.193,102.258 C687.555,101.054 686.422,100.218 685.086,99.962 L684.942,99.935 C681.777,99.33 679.479,96.55 679.479,93.325 L679.479,88.885 C679.479,88.33 679.247,87.79 678.843,87.406 C678.439,87.023 677.896,86.825 677.334,86.848 L674.508,86.992 C671.727,87.141 669.13,85.528 668.01,82.996 L667.551,81.957 C667.306,81.403 666.8,80.994 666.202,80.87 C665.607,80.743 664.979,80.916 664.53,81.327 L663.191,82.552 C661.736,83.882 659.719,84.418 657.796,83.992 L656.632,83.733 C656.072,83.608 655.492,83.741 655.04,84.098 C654.589,84.453 654.326,84.987 654.318,85.561 L654.267,89.02 C656.076,88.341 658.065,88.449 659.79,89.35 C661.621,90.304 662.903,92.016 663.306,94.043 L663.673,95.89 C663.698,96.018 663.777,96.129 663.889,96.196 C664,96.263 664.133,96.278 664.261,96.24 C666.557,95.533 669.099,96.103 670.877,97.734 C672.655,99.362 673.445,101.839 672.941,104.197 L671.864,109.219 C671.835,109.353 671.894,109.488 672.013,109.555 C673.993,110.687 675.41,112.609 675.907,114.831 C676.405,117.053 675.938,119.396 674.628,121.261 L673.055,123.498 C672.541,124.231 672.614,125.234 673.228,125.885 C675.632,128.437 675.816,132.294 673.662,135.059 L665.874,145.069 L665.825,145.031 C665.385,145.616 664.689,146 663.901,146 C663.894,146 663.886,146 663.879,146 C662.547,145.988 661.475,144.898 661.487,143.564 C661.635,126.993 659.4,114.653 647.814,104.355 C646.818,103.469 646.729,101.944 647.613,100.948 C648.499,99.951 650.022,99.862 651.022,100.748 C662.197,110.681 665.595,122.482 666.207,136.78 L669.853,132.094 C670.533,131.22 670.476,130.002 669.718,129.198 C667.537,126.885 667.281,123.322 669.106,120.725 L670.678,118.487 C671.209,117.731 671.398,116.783 671.197,115.884 C670.996,114.983 670.422,114.206 669.622,113.747 C667.67,112.632 666.674,110.405 667.144,108.208 L668.222,103.186 C668.369,102.495 668.137,101.77 667.616,101.292 C667.096,100.814 666.357,100.648 665.677,100.854 C664.244,101.291 662.69,101.103 661.413,100.339 C660.132,99.572 659.229,98.293 658.939,96.829 L658.572,94.981 C658.456,94.398 658.087,93.904 657.557,93.628 C657.027,93.349 656.409,93.33 655.864,93.569 L654.149,94.32 C652.364,95.102 650.287,94.746 648.861,93.411 C648.03,92.632 646.84,92.349 645.743,92.669 C644.652,92.991 643.802,93.875 643.526,94.98 L642.783,97.949 C642.601,98.68 642.086,99.284 641.393,99.582 L639.474,100.403 C638.265,100.92 637.49,102.104 637.499,103.419 C637.509,104.733 638.301,105.906 639.516,106.407 L640.16,106.671 C643.721,108.139 645.483,112.251 644.089,115.838 L643.814,116.545 C643.603,117.091 643.657,117.715 643.96,118.215 C644.268,118.724 644.783,119.053 645.373,119.121 C645.39,119.122 645.405,119.124 645.422,119.127 C646.977,119.314 648.396,120.145 649.318,121.414 C650.248,122.69 650.603,124.312 650.293,125.864 L650.012,127.259 C649.88,127.917 650.037,128.602 650.443,129.139 C650.849,129.674 651.467,130.011 652.137,130.06 L652.709,130.104 C655.598,130.314 657.866,132.756 657.866,135.66 L657.866,139.965 C657.866,141.298 656.785,142.379 655.452,142.379 C654.12,142.379 653.039,141.298 653.039,139.965 L653.039,135.66 C653.039,135.27 652.734,134.943 652.347,134.914 L651.781,134.872 C649.729,134.72 647.838,133.693 646.595,132.054 C645.352,130.414 644.873,128.317 645.278,126.301 L645.558,124.91 C645.604,124.683 645.552,124.443 645.414,124.255 C645.277,124.065 645.067,123.944 644.836,123.918 C644.821,123.917 644.806,123.915 644.79,123.912 C642.748,123.668 640.895,122.476 639.83,120.715 C638.756,118.941 638.563,116.73 639.313,114.797 L639.589,114.091 C640.038,112.934 639.469,111.609 638.323,111.137 L637.678,110.871 C634.66,109.628 632.695,106.717 632.672,103.454 C632.648,100.19 634.571,97.25 637.573,95.965 L638.39,95.615 L638.842,93.807 C639.529,91.05 641.652,88.838 644.38,88.035 C646.066,87.539 647.846,87.624 649.452,88.216 L649.491,85.487 C649.52,83.454 650.453,81.565 652.049,80.306 C653.646,79.046 655.7,78.575 657.682,79.018 L658.845,79.278 C659.234,79.365 659.64,79.255 659.934,78.987 L661.27,77.763 C662.864,76.305 665.076,75.699 667.192,76.142 C669.305,76.584 671.089,78.027 671.966,80.002 L672.413,81.015 C672.74,81.754 673.45,82.207 674.261,82.168 L677.084,82.024 C678.958,81.925 680.809,82.613 682.168,83.904 C683.527,85.195 684.305,87.011 684.305,88.882 L684.305,93.323 C684.355,94.829 685.992,95.219 685.992,95.219 C688.774,95.75 691.13,97.491 692.458,99.996 C693.784,102.499 693.901,105.427 692.78,108.029 L691.623,110.711 C691.316,111.422 691.613,112.257 692.299,112.614 C695.165,114.107 697.082,117.033 697.306,120.252 Z" />
        </g>
    </g>
</svg>