<?xml version="1.0" encoding="UTF-8"?>
<svg height="600" width="800" xmlns="http://www.w3.org/2000/svg" xmlns:xlink="http://www.w3.org/1999/xlink">
    <g id="Notes" font-family="'LucidaGrande', 'Lucida Grande', sans-serif" font-size="13">
        <rect fill="white" height="600.0" width="800.0" x="0.0" y="0.0" />
        <g font-size="13">
            <text x="18.0" y="176.0">Small</text>
            <text x="18.0" y="376.0">Medium</text>
            <text x="18.0" y="576.0">Large</text>
        </g>
        <g font-size="9">
            <text x="250.0" y="30.0">Ultralight</text>
            <text x="450.0" y="30.0">Regular</text>
            <text x="650.0" y="30.0">Black</text>
            <text id="template-version" fill="#505050" text-anchor="end" x="785.0" y="575.0">Template v.3.0</text>
            <a href="https://wangchujiang.com/#/app">
                <text fill="#505050" text-anchor="end" x="785.0" y="590.0">https://wangchujiang.com/#/app</text>
            </a>
        </g>
    </g>
    <g id="Guides" stroke="rgb(39, 170, 225)" stroke-width="0.5">
        <path id="Capline-S" d="M18,76 l800,0" />
        <path id="H-reference" d="M85,145.755 L87.685,145.755 L113.369,79.287 L114.052,79.287 L114.052,76 L112.148,76 L85,145.755 Z M95.693,121.536 L130.996,121.536 L130.263,119.313 L96.474,119.313 L95.693,121.536 Z M139.15,145.755 L141.787,145.755 L114.638,76 L113.466,76 L113.466,79.287 L139.15,145.755 Z" stroke="none" />
        <path id="Baseline-S" d="M18,146 l800,0" />
        <path id="left-margin-Ultralight-S" d="M211,56 l0,110" />
        <path id="right-margin-Ultralight-S" d="M319,56 l0,110" />
        <path id="left-margin-Regular-S" d="M411,56 l0,110" />
        <path id="right-margin-Regular-S" d="M519,56 l0,110" />
        <path id="left-margin-Black-S" d="M611,56 l0,110" />
        <path id="right-margin-Black-S" d="M719,56 l0,110" />
        <path id="Capline-M" d="M18,276 l800,0" />
        <path id="Baseline-M" d="M18,346 l800,0" />
        <path id="Capline-L" d="M18,476 l800,0" />
        <path id="Baseline-L" d="M18,546 l800,0" />
    </g>
    <g id="Symbols">
        <g id="Ultralight-S">
            <path d="M265.207,82.69 C264.052,82.594 262.962,83.127 262.328,84.079 C260.69,86.537 259.413,89.026 258.661,90.603 C254.226,92.606 249.743,95.474 245.296,99.149 C241.761,95.593 237.673,92.543 234.629,90.477 C231.555,88.383 227.482,88.481 224.497,90.72 C221.373,93.061 220.177,97.231 221.59,100.864 C222.353,102.826 224.844,109.586 224.786,114.229 C224.846,118.717 222.353,125.466 221.587,127.431 C220.176,131.063 221.373,135.233 224.491,137.57 C227.396,139.75 231.631,139.853 234.629,137.815 C237.577,135.814 241.553,132.857 245.047,129.386 C253.276,135.897 262.277,139.321 271.24,139.321 C294.718,139.321 308.027,116.68 308.581,115.717 C309.157,114.716 309.138,113.476 308.532,112.493 C291.654,85.096 265.942,82.751 265.207,82.69 Z M266.51,89.245 C269.647,89.842 276.444,91.59 284.027,96.328 C279.91,100.811 277.533,107.206 277.533,114.146 C277.533,120.418 279.478,126.245 282.89,130.618 C279.397,132.085 275.507,133.028 271.24,133.028 C262.856,133.028 254.657,129.557 246.867,122.714 C246.269,122.189 245.53,121.93 244.792,121.93 C243.921,121.93 243.052,122.289 242.429,122.994 C238.966,126.927 234.351,130.394 231.089,132.61 C230.254,133.182 229.085,133.154 228.265,132.536 C227.393,131.883 227.059,130.722 227.451,129.715 C228.835,126.163 231.146,119.423 231.077,114.229 C231.146,108.886 228.835,102.131 227.454,98.581 C227.06,97.571 227.396,96.408 228.268,95.754 C229.102,95.129 230.235,95.102 231.089,95.683 C234.458,97.972 239.206,101.543 242.669,105.56 C243.221,106.2 244.006,106.59 244.848,106.645 C245.685,106.705 246.519,106.414 247.146,105.852 C252.216,101.325 257.29,97.979 262.229,95.91 C262.969,95.6 263.56,95.022 263.886,94.291 C264.192,93.603 265.155,91.52 266.51,89.245 Z M289.23,100.007 C293.651,103.514 298.119,108.112 302.109,114.155 C300.171,116.996 295.501,123.071 288.587,127.57 C285.616,124.243 283.827,119.365 283.827,114.146 C283.827,108.552 285.862,103.321 289.23,100.007 Z M291.694,109.426 C289.956,109.426 288.547,110.834 288.547,112.573 C288.547,114.311 289.956,115.72 291.694,115.72 C293.433,115.72 294.841,114.311 294.841,112.573 C294.841,110.834 293.433,109.426 291.694,109.426 Z" />
        </g>
        <g id="Regular-S">
            <path d="M465.207,82.69 C464.052,82.594 462.962,83.127 462.328,84.079 C460.69,86.537 459.413,89.026 458.661,90.603 C454.226,92.606 449.743,95.474 445.296,99.149 C441.761,95.593 437.673,92.543 434.629,90.477 C431.555,88.383 427.482,88.481 424.497,90.72 C421.373,93.061 420.177,97.231 421.59,100.864 C422.353,102.826 424.845,109.586 424.786,114.229 C424.846,118.717 422.353,125.466 421.587,127.431 C420.176,131.063 421.373,135.233 424.491,137.57 C427.396,139.75 431.631,139.853 434.629,137.815 C437.577,135.814 441.553,132.857 445.047,129.386 C453.276,135.897 462.277,139.321 471.24,139.321 C494.718,139.321 508.027,116.68 508.581,115.717 C509.157,114.716 509.138,113.476 508.532,112.493 C491.654,85.096 465.942,82.751 465.207,82.69 Z M466.51,89.245 C469.647,89.842 476.444,91.59 484.027,96.328 C479.91,100.811 477.533,107.206 477.533,114.146 C477.533,120.418 479.478,126.245 482.89,130.618 C479.397,132.085 475.507,133.028 471.24,133.028 C462.856,133.028 454.657,129.557 446.867,122.714 C446.269,122.189 445.53,121.93 444.792,121.93 C443.921,121.93 443.052,122.289 442.429,122.994 C438.966,126.927 434.351,130.394 431.089,132.61 C430.254,133.182 429.085,133.154 428.265,132.536 C427.393,131.883 427.059,130.722 427.451,129.715 C428.835,126.163 431.146,119.423 431.077,114.229 C431.146,108.886 428.835,102.131 427.454,98.581 C427.06,97.571 427.396,96.408 428.268,95.754 C429.102,95.129 430.235,95.102 431.089,95.683 C434.458,97.972 439.206,101.543 442.669,105.56 C443.221,106.2 444.006,106.59 444.848,106.645 C445.685,106.705 446.519,106.414 447.146,105.852 C452.216,101.325 457.29,97.979 462.229,95.91 C462.969,95.6 463.56,95.022 463.886,94.291 C464.192,93.603 465.155,91.52 466.51,89.245 Z M489.23,100.007 C493.651,103.514 498.119,108.112 502.109,114.155 C500.171,116.996 495.501,123.071 488.587,127.57 C485.616,124.243 483.827,119.365 483.827,114.146 C483.827,108.552 485.862,103.321 489.23,100.007 Z M491.694,109.426 C489.956,109.426 488.547,110.834 488.547,112.573 C488.547,114.311 489.956,115.72 491.694,115.72 C493.433,115.72 494.841,114.311 494.841,112.573 C494.841,110.834 493.433,109.426 491.694,109.426 Z" />
        </g>
        <g id="Black-S">
            <path d="M665.207,82.69 C664.052,82.594 662.962,83.127 662.328,84.079 C660.69,86.537 659.413,89.026 658.661,90.603 C654.226,92.606 649.743,95.474 645.296,99.149 C641.761,95.593 637.673,92.543 634.63,90.477 C631.555,88.383 627.482,88.481 624.497,90.72 C621.373,93.061 620.177,97.231 621.59,100.864 C622.353,102.826 624.844,109.586 624.786,114.229 C624.846,118.717 622.353,125.466 621.587,127.431 C620.176,131.063 621.373,135.233 624.491,137.57 C627.396,139.75 631.63,139.853 634.63,137.815 C637.577,135.814 641.553,132.857 645.047,129.386 C653.276,135.897 662.277,139.321 671.24,139.321 C694.718,139.321 708.027,116.68 708.581,115.717 C709.157,114.716 709.138,113.476 708.532,112.493 C691.654,85.096 665.942,82.751 665.207,82.69 Z M666.51,89.245 C669.647,89.842 676.444,91.59 684.027,96.328 C679.91,100.811 677.533,107.206 677.533,114.146 C677.533,120.418 679.478,126.245 682.89,130.618 C679.396,132.085 675.506,133.028 671.24,133.028 C662.856,133.028 654.657,129.557 646.867,122.714 C646.269,122.189 645.53,121.93 644.792,121.93 C643.921,121.93 643.052,122.289 642.429,122.994 C638.966,126.927 634.351,130.394 631.089,132.61 C630.254,133.182 629.085,133.154 628.265,132.536 C627.393,131.883 627.059,130.722 627.451,129.715 C628.835,126.163 631.146,119.423 631.077,114.229 C631.146,108.886 628.835,102.131 627.454,98.581 C627.06,97.571 627.396,96.408 628.268,95.754 C629.102,95.129 630.235,95.102 631.089,95.683 C634.458,97.972 639.206,101.543 642.669,105.56 C643.221,106.2 644.006,106.59 644.848,106.645 C645.685,106.705 646.518,106.414 647.146,105.852 C652.216,101.325 657.29,97.979 662.229,95.91 C662.969,95.6 663.56,95.022 663.886,94.291 C664.192,93.603 665.155,91.52 666.51,89.245 Z M689.23,100.007 C693.651,103.514 698.119,108.112 702.109,114.155 C700.171,116.996 695.501,123.071 688.587,127.57 C685.616,124.243 683.827,119.365 683.827,114.146 C683.827,108.552 685.862,103.321 689.23,100.007 Z M691.694,109.426 C689.956,109.426 688.547,110.834 688.547,112.573 C688.547,114.311 689.956,115.72 691.694,115.72 C693.433,115.72 694.841,114.311 694.841,112.573 C694.841,110.834 693.433,109.426 691.694,109.426 Z" />
        </g>
    </g>
</svg>