<?xml version="1.0" encoding="UTF-8"?>
<svg height="600" width="800" xmlns="http://www.w3.org/2000/svg" xmlns:xlink="http://www.w3.org/1999/xlink">
    <g id="Notes" font-family="'LucidaGrande', 'Lucida Grande', sans-serif" font-size="13">
        <rect fill="white" height="600.0" width="800.0" x="0.0" y="0.0" />
        <g font-size="13">
            <text x="18.0" y="176.0">Small</text>
            <text x="18.0" y="376.0">Medium</text>
            <text x="18.0" y="576.0">Large</text>
        </g>
        <g font-size="9">
            <text x="250.0" y="30.0">Ultralight</text>
            <text x="450.0" y="30.0">Regular</text>
            <text x="650.0" y="30.0">Black</text>
            <text id="template-version" fill="#505050" text-anchor="end" x="785.0" y="575.0">Template v.3.0</text>
            <a href="https://wangchujiang.com/#/app">
                <text fill="#505050" text-anchor="end" x="785.0" y="590.0">https://wangchujiang.com/#/app</text>
            </a>
        </g>
    </g>
    <g id="Guides" stroke="rgb(39, 170, 225)" stroke-width="0.5">
        <path id="Capline-S" d="M18,76 l800,0" />
        <path id="H-reference" d="M85,145.755 L87.685,145.755 L113.369,79.287 L114.052,79.287 L114.052,76 L112.148,76 L85,145.755 Z M95.693,121.536 L130.996,121.536 L130.263,119.313 L96.474,119.313 L95.693,121.536 Z M139.15,145.755 L141.787,145.755 L114.638,76 L113.466,76 L113.466,79.287 L139.15,145.755 Z" stroke="none" />
        <path id="Baseline-S" d="M18,146 l800,0" />
        <path id="left-margin-Ultralight-S" d="M221,56 l0,110" />
        <path id="right-margin-Ultralight-S" d="M309,56 l0,110" />
        <path id="left-margin-Regular-S" d="M421,56 l0,110" />
        <path id="right-margin-Regular-S" d="M509,56 l0,110" />
        <path id="left-margin-Black-S" d="M621,56 l0,110" />
        <path id="right-margin-Black-S" d="M709,56 l0,110" />
        <path id="Capline-M" d="M18,276 l800,0" />
        <path id="Baseline-M" d="M18,346 l800,0" />
        <path id="Capline-L" d="M18,476 l800,0" />
        <path id="Baseline-L" d="M18,546 l800,0" />
    </g>
    <g id="Symbols">
        <g id="Ultralight-S">
            <path d="M285.501,76.008 C282.791,75.94 272.891,76.158 266.424,82.417 C265.922,82.91 265.444,83.44 264.989,84 C264.535,83.441 264.056,82.919 263.556,82.433 C256.182,75.311 244.316,76.033 243.81,76.068 C242.371,76.166 241.242,77.343 241.205,78.786 C241.196,79.124 241.072,85.847 244.075,92.2 C239.938,93.847 237.002,97.886 237.002,102.603 C237.002,105.949 238.485,108.949 240.819,111.003 C238.485,113.057 237.002,116.056 237.002,119.402 C237.002,124.924 241.025,129.515 246.29,130.426 C245.717,131.771 245.401,133.25 245.401,134.801 C245.401,140.976 250.426,146 256.601,146 C259.947,146 262.946,144.517 265,142.183 C267.054,144.517 270.053,146 273.399,146 C279.574,146 284.599,140.976 284.599,134.801 C284.599,133.25 284.283,131.771 283.71,130.426 C288.975,129.515 292.998,124.924 292.998,119.402 C292.998,116.056 291.515,113.057 289.181,111.003 C291.515,108.949 292.998,105.949 292.998,102.603 C292.998,97.882 290.057,93.841 285.914,92.197 C288.927,85.837 288.802,79.098 288.793,78.759 C288.755,77.317 287.629,76.139 286.19,76.038 C286.127,76.034 285.888,76.018 285.501,76.008 Z M283.037,81.668 C282.757,84.265 281.974,88.234 279.879,91.579 C277.887,91.925 276.073,92.795 274.589,94.048 C273.171,91.695 270.923,89.898 268.243,89.086 C268.868,88.078 269.565,87.181 270.332,86.428 C274.061,82.819 279.697,81.888 283.037,81.668 Z M246.957,81.698 C250.3,81.92 255.934,82.858 259.66,86.455 C260.422,87.194 261.114,88.082 261.735,89.091 C259.065,89.907 256.825,91.701 255.411,94.048 C253.923,92.792 252.103,91.921 250.104,91.576 C248.02,88.238 247.237,84.286 246.957,81.698 Z M265,94.204 C268.088,94.204 270.6,96.715 270.6,99.804 C270.6,102.892 268.088,105.403 265,105.403 C261.912,105.403 259.4,102.892 259.4,99.804 C259.4,96.715 261.912,94.204 265,94.204 Z M248.201,97.004 C251.289,97.004 253.801,99.515 253.801,102.603 C253.801,105.691 251.289,108.203 248.201,108.203 C245.113,108.203 242.602,105.691 242.602,102.603 C242.602,99.515 245.113,97.004 248.201,97.004 Z M281.799,97.004 C284.887,97.004 287.398,99.515 287.398,102.603 C287.398,105.691 284.887,108.203 281.799,108.203 C278.711,108.203 276.199,105.691 276.199,102.603 C276.199,99.515 278.711,97.004 281.799,97.004 Z M265,111.003 C268.088,111.003 270.6,113.514 270.6,116.602 C270.6,119.69 268.088,122.202 265,122.202 C261.912,122.202 259.4,119.69 259.4,116.602 C259.4,113.514 261.912,111.003 265,111.003 Z M248.201,113.802 C251.289,113.802 253.801,116.314 253.801,119.402 C253.801,122.49 251.289,125.002 248.201,125.002 C245.113,125.002 242.602,122.49 242.602,119.402 C242.602,116.314 245.113,113.802 248.201,113.802 Z M281.799,113.802 C284.887,113.802 287.398,116.314 287.398,119.402 C287.398,122.49 284.887,125.002 281.799,125.002 C278.711,125.002 276.199,122.49 276.199,119.402 C276.199,116.314 278.711,113.802 281.799,113.802 Z M256.601,129.201 C259.689,129.201 262.2,131.713 262.2,134.801 C262.2,137.889 259.689,140.4 256.601,140.4 C253.512,140.4 251.001,137.889 251.001,134.801 C251.001,131.713 253.512,129.201 256.601,129.201 Z M273.399,129.201 C276.488,129.201 278.999,131.713 278.999,134.801 C278.999,137.889 276.488,140.4 273.399,140.4 C270.311,140.4 267.8,137.889 267.8,134.801 C267.8,131.713 270.311,129.201 273.399,129.201 Z" />
        </g>
        <g id="Regular-S">
            <path d="M485.501,76.008 C482.791,75.94 472.891,76.158 466.424,82.417 C465.922,82.91 465.444,83.44 464.989,84 C464.536,83.441 464.056,82.919 463.556,82.433 C456.182,75.311 444.316,76.033 443.81,76.068 C442.371,76.166 441.242,77.343 441.205,78.786 C441.196,79.124 441.072,85.847 444.075,92.2 C439.938,93.847 437.002,97.886 437.002,102.603 C437.002,105.949 438.485,108.949 440.819,111.003 C438.485,113.057 437.002,116.056 437.002,119.402 C437.002,124.924 441.025,129.515 446.29,130.426 C445.717,131.771 445.402,133.25 445.402,134.801 C445.402,140.976 450.426,146 456.601,146 C459.947,146 462.946,144.517 465,142.183 C467.054,144.517 470.053,146 473.399,146 C479.574,146 484.599,140.976 484.599,134.801 C484.599,133.25 484.283,131.771 483.71,130.426 C488.975,129.515 492.998,124.924 492.998,119.402 C492.998,116.056 491.515,113.057 489.181,111.003 C491.515,108.949 492.998,105.949 492.998,102.603 C492.998,97.882 490.057,93.841 485.914,92.197 C488.927,85.837 488.802,79.098 488.793,78.759 C488.755,77.317 487.629,76.139 486.19,76.038 C486.127,76.034 485.888,76.018 485.501,76.008 Z M483.037,81.668 C482.757,84.265 481.974,88.234 479.879,91.579 C477.887,91.925 476.073,92.795 474.589,94.048 C473.171,91.695 470.923,89.898 468.243,89.086 C468.868,88.078 469.565,87.181 470.332,86.428 C474.061,82.819 479.697,81.888 483.037,81.668 Z M446.957,81.698 C450.3,81.92 455.934,82.858 459.66,86.455 C460.422,87.194 461.114,88.082 461.735,89.091 C459.065,89.907 456.825,91.701 455.411,94.048 C453.923,92.792 452.103,91.921 450.104,91.576 C448.02,88.238 447.237,84.286 446.957,81.698 Z M465,94.204 C468.088,94.204 470.6,96.715 470.6,99.804 C470.6,102.892 468.088,105.403 465,105.403 C461.912,105.403 459.4,102.892 459.4,99.804 C459.4,96.715 461.912,94.204 465,94.204 Z M448.201,97.004 C451.289,97.004 453.801,99.515 453.801,102.603 C453.801,105.691 451.289,108.203 448.201,108.203 C445.113,108.203 442.602,105.691 442.602,102.603 C442.602,99.515 445.113,97.004 448.201,97.004 Z M481.799,97.004 C484.887,97.004 487.398,99.515 487.398,102.603 C487.398,105.691 484.887,108.203 481.799,108.203 C478.711,108.203 476.199,105.691 476.199,102.603 C476.199,99.515 478.711,97.004 481.799,97.004 Z M465,111.003 C468.088,111.003 470.6,113.514 470.6,116.602 C470.6,119.69 468.088,122.202 465,122.202 C461.912,122.202 459.4,119.69 459.4,116.602 C459.4,113.514 461.912,111.003 465,111.003 Z M448.201,113.802 C451.289,113.802 453.801,116.314 453.801,119.402 C453.801,122.49 451.289,125.002 448.201,125.002 C445.113,125.002 442.602,122.49 442.602,119.402 C442.602,116.314 445.113,113.802 448.201,113.802 Z M481.799,113.802 C484.887,113.802 487.398,116.314 487.398,119.402 C487.398,122.49 484.887,125.002 481.799,125.002 C478.711,125.002 476.199,122.49 476.199,119.402 C476.199,116.314 478.711,113.802 481.799,113.802 Z M456.601,129.201 C459.689,129.201 462.2,131.713 462.2,134.801 C462.2,137.889 459.689,140.4 456.601,140.4 C453.512,140.4 451.001,137.889 451.001,134.801 C451.001,131.713 453.512,129.201 456.601,129.201 Z M473.399,129.201 C476.488,129.201 478.999,131.713 478.999,134.801 C478.999,137.889 476.488,140.4 473.399,140.4 C470.311,140.4 467.8,137.889 467.8,134.801 C467.8,131.713 470.311,129.201 473.399,129.201 Z" />
        </g>
        <g id="Black-S">
            <path d="M685.501,76.008 C682.791,75.94 672.891,76.158 666.424,82.417 C665.922,82.91 665.444,83.44 664.989,84 C664.536,83.441 664.056,82.919 663.556,82.433 C656.182,75.311 644.316,76.033 643.81,76.068 C642.371,76.166 641.242,77.343 641.205,78.786 C641.196,79.124 641.072,85.847 644.075,92.2 C639.938,93.847 637.002,97.886 637.002,102.603 C637.002,105.949 638.485,108.949 640.819,111.003 C638.485,113.057 637.002,116.056 637.002,119.402 C637.002,124.924 641.025,129.515 646.29,130.426 C645.717,131.771 645.401,133.25 645.401,134.801 C645.401,140.976 650.426,146 656.601,146 C659.947,146 662.946,144.517 665,142.183 C667.054,144.517 670.053,146 673.399,146 C679.574,146 684.599,140.976 684.599,134.801 C684.599,133.25 684.283,131.771 683.71,130.426 C688.975,129.515 692.998,124.924 692.998,119.402 C692.998,116.056 691.515,113.057 689.181,111.003 C691.515,108.949 692.998,105.949 692.998,102.603 C692.998,97.882 690.057,93.841 685.914,92.197 C688.927,85.837 688.802,79.098 688.793,78.759 C688.755,77.317 687.629,76.139 686.19,76.038 C686.127,76.034 685.888,76.018 685.501,76.008 Z M683.037,81.668 C682.757,84.265 681.974,88.234 679.879,91.579 C677.887,91.925 676.073,92.795 674.589,94.048 C673.171,91.695 670.923,89.898 668.243,89.086 C668.868,88.078 669.565,87.181 670.332,86.428 C674.061,82.819 679.697,81.888 683.037,81.668 Z M646.957,81.698 C650.3,81.92 655.934,82.858 659.66,86.455 C660.422,87.194 661.114,88.082 661.735,89.091 C659.065,89.907 656.825,91.701 655.411,94.048 C653.923,92.792 652.103,91.921 650.104,91.576 C648.02,88.238 647.237,84.286 646.957,81.698 Z M665,94.204 C668.088,94.204 670.6,96.715 670.6,99.804 C670.6,102.892 668.088,105.403 665,105.403 C661.912,105.403 659.4,102.892 659.4,99.804 C659.4,96.715 661.912,94.204 665,94.204 Z M648.201,97.004 C651.289,97.004 653.801,99.515 653.801,102.603 C653.801,105.691 651.289,108.203 648.201,108.203 C645.113,108.203 642.602,105.691 642.602,102.603 C642.602,99.515 645.113,97.004 648.201,97.004 Z M681.799,97.004 C684.887,97.004 687.398,99.515 687.398,102.603 C687.398,105.691 684.887,108.203 681.799,108.203 C678.711,108.203 676.199,105.691 676.199,102.603 C676.199,99.515 678.711,97.004 681.799,97.004 Z M665,111.003 C668.088,111.003 670.6,113.514 670.6,116.602 C670.6,119.69 668.088,122.202 665,122.202 C661.912,122.202 659.4,119.69 659.4,116.602 C659.4,113.514 661.912,111.003 665,111.003 Z M648.201,113.802 C651.289,113.802 653.801,116.314 653.801,119.402 C653.801,122.49 651.289,125.002 648.201,125.002 C645.113,125.002 642.602,122.49 642.602,119.402 C642.602,116.314 645.113,113.802 648.201,113.802 Z M681.799,113.802 C684.887,113.802 687.398,116.314 687.398,119.402 C687.398,122.49 684.887,125.002 681.799,125.002 C678.711,125.002 676.199,122.49 676.199,119.402 C676.199,116.314 678.711,113.802 681.799,113.802 Z M656.601,129.201 C659.689,129.201 662.2,131.713 662.2,134.801 C662.2,137.889 659.689,140.4 656.601,140.4 C653.513,140.4 651.001,137.889 651.001,134.801 C651.001,131.713 653.513,129.201 656.601,129.201 Z M673.399,129.201 C676.488,129.201 678.999,131.713 678.999,134.801 C678.999,137.889 676.488,140.4 673.399,140.4 C670.311,140.4 667.8,137.889 667.8,134.801 C667.8,131.713 670.311,129.201 673.399,129.201 Z" />
        </g>
    </g>
</svg>