<?xml version="1.0" encoding="UTF-8"?>
<svg height="600" width="800" xmlns="http://www.w3.org/2000/svg" xmlns:xlink="http://www.w3.org/1999/xlink">
    <g id="Notes" font-family="'LucidaGrande', 'Lucida Grande', sans-serif" font-size="13">
        <rect fill="white" height="600.0" width="800.0" x="0.0" y="0.0" />
        <g font-size="13">
            <text x="18.0" y="176.0">Small</text>
            <text x="18.0" y="376.0">Medium</text>
            <text x="18.0" y="576.0">Large</text>
        </g>
        <g font-size="9">
            <text x="250.0" y="30.0">Ultralight</text>
            <text x="450.0" y="30.0">Regular</text>
            <text x="650.0" y="30.0">Black</text>
            <text id="template-version" fill="#505050" text-anchor="end" x="785.0" y="575.0">Template v.3.0</text>
            <a href="https://wangchujiang.com/#/app">
                <text fill="#505050" text-anchor="end" x="785.0" y="590.0">https://wangchujiang.com/#/app</text>
            </a>
        </g>
    </g>
    <g id="Guides" stroke="rgb(39, 170, 225)" stroke-width="0.5">
        <path id="Capline-S" d="M18,76 l800,0" />
        <path id="H-reference" d="M85,145.755 L87.685,145.755 L113.369,79.287 L114.052,79.287 L114.052,76 L112.148,76 L85,145.755 Z M95.693,121.536 L130.996,121.536 L130.263,119.313 L96.474,119.313 L95.693,121.536 Z M139.15,145.755 L141.787,145.755 L114.638,76 L113.466,76 L113.466,79.287 L139.15,145.755 Z" stroke="none" />
        <path id="Baseline-S" d="M18,146 l800,0" />
        <path id="left-margin-Ultralight-S" d="M212.821,56 l0,110" />
        <path id="right-margin-Ultralight-S" d="M317.179,56 l0,110" />
        <path id="left-margin-Regular-S" d="M412.821,56 l0,110" />
        <path id="right-margin-Regular-S" d="M517.179,56 l0,110" />
        <path id="left-margin-Black-S" d="M612.821,56 l0,110" />
        <path id="right-margin-Black-S" d="M717.179,56 l0,110" />
        <path id="Capline-M" d="M18,276 l800,0" />
        <path id="Baseline-M" d="M18,346 l800,0" />
        <path id="Capline-L" d="M18,476 l800,0" />
        <path id="Baseline-L" d="M18,546 l800,0" />
    </g>
    <g id="Symbols">
        <g id="Ultralight-S">
            <path d="M276.239,76.026 C275.901,76.066 275.57,76.154 275.254,76.289 L224.998,97.827 C224.791,97.916 224.598,98.027 224.416,98.149 C224.387,98.169 224.361,98.192 224.332,98.212 C224.185,98.317 224.046,98.432 223.918,98.556 C223.862,98.61 223.813,98.67 223.761,98.728 C223.665,98.834 223.573,98.941 223.491,99.057 C223.445,99.122 223.406,99.189 223.365,99.257 C223.29,99.378 223.221,99.5 223.161,99.629 C223.128,99.701 223.099,99.774 223.07,99.849 C223.02,99.981 222.979,100.115 222.944,100.252 C222.923,100.336 222.899,100.419 222.884,100.505 C222.857,100.658 222.846,100.814 222.839,100.971 C222.836,101.025 222.821,101.075 222.821,101.129 L222.821,135.231 C222.821,141.17 227.651,146 233.59,146 L241.236,146 C244.501,146 247.355,143.784 248.177,140.608 C248.993,137.442 251.853,135.231 255.128,135.231 C258.404,135.231 261.263,137.442 262.08,140.608 C262.902,143.784 265.756,146 269.021,146 L296.41,146 C302.349,146 307.179,141.17 307.179,135.231 L307.179,101.129 C307.179,101.06 307.162,100.997 307.158,100.929 C307.152,100.82 307.143,100.712 307.126,100.603 C307.102,100.442 307.066,100.287 307.021,100.133 C307.001,100.063 306.997,99.989 306.972,99.919 C301.675,85.087 288.145,77.865 277.255,76.05 C276.916,75.993 276.576,75.985 276.239,76.026 Z M277.084,83.317 C284.173,84.755 292.952,89.211 297.942,97.539 L245.257,97.539 L243.9,97.539 L277.084,83.317 Z M230.001,104.719 L235.767,104.719 C235.524,105.575 235.385,106.477 235.385,107.411 C235.385,112.855 239.815,117.282 245.257,117.282 C250.699,117.282 255.128,112.855 255.128,107.411 C255.128,106.477 254.99,105.575 254.746,104.719 L299.999,104.719 L299.999,135.234 C299.999,137.216 298.391,138.821 296.41,138.821 L270.395,138.81 C269.638,138.81 268.929,138.361 268.677,137.646 C266.676,131.94 261.267,128.052 255.128,128.052 C248.99,128.052 243.579,131.94 241.586,137.653 C241.337,138.369 240.626,138.821 239.869,138.821 L233.59,138.821 C231.607,138.821 230.001,137.214 230.001,135.231 L230.001,104.719 Z M245.257,104.719 C246.741,104.719 247.949,105.926 247.949,107.411 C247.949,108.895 246.741,110.103 245.257,110.103 C243.772,110.103 242.564,108.895 242.564,107.411 C242.564,105.926 243.772,104.719 245.257,104.719 Z M282.948,108.308 C276.516,108.308 271.282,113.542 271.282,119.975 C271.282,126.407 276.516,131.641 282.948,131.641 C289.381,131.641 294.615,126.407 294.615,119.975 C294.615,113.542 289.381,108.308 282.948,108.308 Z M282.948,115.488 C285.424,115.488 287.436,117.501 287.436,119.975 C287.436,122.448 285.424,124.462 282.948,124.462 C280.473,124.462 278.461,122.448 278.461,119.975 C278.461,117.501 280.473,115.488 282.948,115.488 Z" />
        </g>
        <g id="Regular-S">
            <path d="M476.239,76.026 C475.901,76.066 475.57,76.154 475.254,76.289 L424.998,97.827 C424.791,97.916 424.598,98.027 424.416,98.149 C424.387,98.169 424.361,98.192 424.332,98.212 C424.185,98.317 424.046,98.432 423.918,98.556 C423.862,98.61 423.813,98.67 423.761,98.728 C423.665,98.834 423.573,98.941 423.491,99.057 C423.445,99.122 423.406,99.189 423.365,99.257 C423.29,99.378 423.221,99.5 423.161,99.629 C423.128,99.701 423.099,99.774 423.07,99.849 C423.02,99.981 422.979,100.115 422.944,100.252 C422.923,100.336 422.899,100.419 422.884,100.505 C422.857,100.658 422.846,100.814 422.839,100.971 C422.836,101.025 422.821,101.075 422.821,101.129 L422.821,135.231 C422.821,141.17 427.651,146 433.59,146 L441.236,146 C444.501,146 447.355,143.784 448.177,140.608 C448.993,137.442 451.853,135.231 455.128,135.231 C458.404,135.231 461.263,137.442 462.08,140.608 C462.902,143.784 465.756,146 469.021,146 L496.41,146 C502.349,146 507.179,141.17 507.179,135.231 L507.179,101.129 C507.179,101.06 507.162,100.997 507.158,100.929 C507.152,100.82 507.143,100.712 507.126,100.603 C507.102,100.442 507.066,100.287 507.021,100.133 C507.001,100.063 506.997,99.989 506.972,99.919 C501.675,85.087 488.145,77.865 477.255,76.05 C476.916,75.993 476.576,75.985 476.239,76.026 Z M477.084,83.317 C484.173,84.755 492.952,89.211 497.942,97.539 L445.257,97.539 L443.9,97.539 L477.084,83.317 Z M430.001,104.719 L435.767,104.719 C435.524,105.575 435.385,106.477 435.385,107.411 C435.385,112.855 439.815,117.282 445.257,117.282 C450.699,117.282 455.128,112.855 455.128,107.411 C455.128,106.477 454.99,105.575 454.746,104.719 L499.999,104.719 L499.999,135.234 C499.999,137.216 498.391,138.821 496.41,138.821 L470.395,138.81 C469.638,138.81 468.929,138.361 468.677,137.646 C466.676,131.94 461.267,128.052 455.128,128.052 C448.99,128.052 443.579,131.94 441.586,137.653 C441.337,138.369 440.626,138.821 439.869,138.821 L433.59,138.821 C431.607,138.821 430.001,137.214 430.001,135.231 L430.001,104.719 Z M445.257,104.719 C446.741,104.719 447.949,105.926 447.949,107.411 C447.949,108.895 446.741,110.103 445.257,110.103 C443.772,110.103 442.564,108.895 442.564,107.411 C442.564,105.926 443.772,104.719 445.257,104.719 Z M482.948,108.308 C476.516,108.308 471.282,113.542 471.282,119.975 C471.282,126.407 476.516,131.641 482.948,131.641 C489.381,131.641 494.615,126.407 494.615,119.975 C494.615,113.542 489.381,108.308 482.948,108.308 Z M482.948,115.488 C485.424,115.488 487.436,117.501 487.436,119.975 C487.436,122.448 485.424,124.462 482.948,124.462 C480.473,124.462 478.461,122.448 478.461,119.975 C478.461,117.501 480.473,115.488 482.948,115.488 Z" />
        </g>
        <g id="Black-S">
            <path d="M676.239,76.026 C675.901,76.066 675.57,76.154 675.254,76.289 L624.998,97.827 C624.791,97.916 624.598,98.027 624.416,98.149 C624.387,98.169 624.361,98.192 624.332,98.212 C624.185,98.317 624.046,98.432 623.918,98.556 C623.862,98.61 623.813,98.67 623.761,98.728 C623.665,98.834 623.573,98.941 623.491,99.057 C623.445,99.122 623.406,99.189 623.365,99.257 C623.29,99.378 623.221,99.5 623.161,99.629 C623.128,99.701 623.099,99.774 623.07,99.849 C623.02,99.981 622.979,100.115 622.944,100.252 C622.923,100.336 622.899,100.419 622.884,100.505 C622.857,100.658 622.846,100.814 622.839,100.971 C622.836,101.025 622.821,101.075 622.821,101.129 L622.821,135.231 C622.821,141.17 627.651,146 633.59,146 L641.236,146 C644.501,146 647.355,143.784 648.177,140.608 C648.993,137.442 651.853,135.231 655.128,135.231 C658.404,135.231 661.263,137.442 662.08,140.608 C662.902,143.784 665.756,146 669.021,146 L696.41,146 C702.349,146 707.179,141.17 707.179,135.231 L707.179,101.129 C707.179,101.06 707.162,100.997 707.158,100.929 C707.152,100.82 707.143,100.712 707.126,100.603 C707.102,100.442 707.066,100.287 707.021,100.133 C707.001,100.063 706.997,99.989 706.972,99.919 C701.675,85.087 688.145,77.865 677.255,76.05 C676.916,75.993 676.576,75.985 676.239,76.026 Z M677.084,83.317 C684.173,84.755 692.952,89.211 697.942,97.539 L645.257,97.539 L643.9,97.539 L677.084,83.317 Z M630.001,104.719 L635.767,104.719 C635.524,105.575 635.385,106.477 635.385,107.411 C635.385,112.855 639.815,117.282 645.257,117.282 C650.699,117.282 655.128,112.855 655.128,107.411 C655.128,106.477 654.99,105.575 654.746,104.719 L699.999,104.719 L699.999,135.234 C699.999,137.216 698.391,138.821 696.41,138.821 L670.395,138.81 C669.638,138.81 668.929,138.361 668.677,137.646 C666.676,131.94 661.267,128.052 655.128,128.052 C648.99,128.052 643.579,131.94 641.586,137.653 C641.337,138.369 640.626,138.821 639.869,138.821 L633.59,138.821 C631.607,138.821 630.001,137.214 630.001,135.231 L630.001,104.719 Z M645.257,104.719 C646.741,104.719 647.949,105.926 647.949,107.411 C647.949,108.895 646.741,110.103 645.257,110.103 C643.772,110.103 642.564,108.895 642.564,107.411 C642.564,105.926 643.772,104.719 645.257,104.719 Z M682.948,108.308 C676.516,108.308 671.282,113.542 671.282,119.975 C671.282,126.407 676.516,131.641 682.948,131.641 C689.381,131.641 694.615,126.407 694.615,119.975 C694.615,113.542 689.381,108.308 682.948,108.308 Z M682.948,115.488 C685.424,115.488 687.436,117.501 687.436,119.975 C687.436,122.448 685.424,124.462 682.948,124.462 C680.473,124.462 678.461,122.448 678.461,119.975 C678.461,117.501 680.473,115.488 682.948,115.488 Z" />
        </g>
    </g>
</svg>