<?xml version="1.0" encoding="UTF-8"?>
<svg height="600" width="800" xmlns="http://www.w3.org/2000/svg" xmlns:xlink="http://www.w3.org/1999/xlink">
    <g id="Notes" font-family="'LucidaGrande', 'Lucida Grande', sans-serif" font-size="13">
        <rect fill="white" height="600.0" width="800.0" x="0.0" y="0.0" />
        <g font-size="13">
            <text x="18.0" y="176.0">Small</text>
            <text x="18.0" y="376.0">Medium</text>
            <text x="18.0" y="576.0">Large</text>
        </g>
        <g font-size="9">
            <text x="250.0" y="30.0">Ultralight</text>
            <text x="450.0" y="30.0">Regular</text>
            <text x="650.0" y="30.0">Black</text>
            <text id="template-version" fill="#505050" text-anchor="end" x="785.0" y="575.0">Template v.3.0</text>
            <a href="https://wangchujiang.com/#/app">
                <text fill="#505050" text-anchor="end" x="785.0" y="590.0">https://wangchujiang.com/#/app</text>
            </a>
        </g>
    </g>
    <g id="Guides" stroke="rgb(39, 170, 225)" stroke-width="0.5">
        <path id="Capline-S" d="M18,76 l800,0" />
        <path id="H-reference" d="M85,145.755 L87.685,145.755 L113.369,79.287 L114.052,79.287 L114.052,76 L112.148,76 L85,145.755 Z M95.693,121.536 L130.996,121.536 L130.263,119.313 L96.474,119.313 L95.693,121.536 Z M139.15,145.755 L141.787,145.755 L114.638,76 L113.466,76 L113.466,79.287 L139.15,145.755 Z" stroke="none" />
        <path id="Baseline-S" d="M18,146 l800,0" />
        <path id="left-margin-Ultralight-S" d="M221,56 l0,110" />
        <path id="right-margin-Ultralight-S" d="M309,56 l0,110" />
        <path id="left-margin-Regular-S" d="M421,56 l0,110" />
        <path id="right-margin-Regular-S" d="M509,56 l0,110" />
        <path id="left-margin-Black-S" d="M621,56 l0,110" />
        <path id="right-margin-Black-S" d="M709,56 l0,110" />
        <path id="Capline-M" d="M18,276 l800,0" />
        <path id="Baseline-M" d="M18,346 l800,0" />
        <path id="Capline-L" d="M18,476 l800,0" />
        <path id="Baseline-L" d="M18,546 l800,0" />
    </g>
    <g id="Symbols">
        <g id="Ultralight-S">
            <path d="M276.469,76 C276.3,75.999 276.128,76.015 275.955,76.05 C272.193,76.802 268.502,79.857 266.504,83.721 C252.686,84.989 242.091,101.821 242.091,123.091 C242.091,135.723 252.368,146 265,146 C277.632,146 287.909,135.723 287.909,123.091 C287.909,116.872 285.579,112.55 283.325,108.37 C281.102,104.243 279,100.343 279,94.455 C279,89.875 276.134,85.963 272.107,84.387 C273.546,82.554 275.443,81.344 276.954,81.041 C278.333,80.766 279.226,79.424 278.95,78.046 C278.71,76.84 277.657,76.004 276.469,76 Z M268.204,88.73 C271.351,88.742 273.909,91.305 273.909,94.455 C273.909,101.628 276.533,106.491 278.846,110.784 C280.978,114.739 282.818,118.157 282.818,123.091 C282.818,132.916 274.825,140.909 265,140.909 C255.175,140.909 247.182,132.916 247.182,123.091 C247.182,104.242 256.505,88.896 268,88.735 C268.073,88.742 268.135,88.729 268.204,88.73 Z M265,109.091 C258.999,109.091 254.818,116.514 254.818,123.175 C254.818,129.87 259.005,134.545 265,134.545 C270.995,134.545 275.182,129.87 275.182,123.175 C275.182,116.514 271.001,109.091 265,109.091 Z M265,114.182 C267.244,114.182 270.091,118.415 270.091,123.175 C270.091,126.989 268.093,129.455 265,129.455 C261.907,129.455 259.909,126.989 259.909,123.175 C259.909,118.415 262.756,114.182 265,114.182 Z" />
        </g>
        <g id="Regular-S">
            <path d="M476.469,76 C476.3,75.999 476.128,76.015 475.955,76.05 C472.193,76.802 468.502,79.857 466.504,83.721 C452.686,84.989 442.091,101.821 442.091,123.091 C442.091,135.723 452.368,146 465,146 C477.632,146 487.909,135.723 487.909,123.091 C487.909,116.872 485.579,112.55 483.325,108.37 C481.102,104.243 479,100.343 479,94.455 C479,89.875 476.134,85.963 472.107,84.387 C473.546,82.554 475.443,81.344 476.954,81.041 C478.333,80.766 479.226,79.424 478.95,78.046 C478.71,76.84 477.657,76.004 476.469,76 Z M468.204,88.73 C471.351,88.742 473.909,91.305 473.909,94.455 C473.909,101.628 476.533,106.491 478.846,110.784 C480.978,114.739 482.818,118.157 482.818,123.091 C482.818,132.916 474.825,140.909 465,140.909 C455.175,140.909 447.182,132.916 447.182,123.091 C447.182,104.242 456.505,88.896 468,88.735 C468.073,88.742 468.135,88.729 468.204,88.73 Z M465,109.091 C458.999,109.091 454.818,116.514 454.818,123.175 C454.818,129.87 459.005,134.545 465,134.545 C470.995,134.545 475.182,129.87 475.182,123.175 C475.182,116.514 471.001,109.091 465,109.091 Z M465,114.182 C467.244,114.182 470.091,118.415 470.091,123.175 C470.091,126.989 468.093,129.455 465,129.455 C461.907,129.455 459.909,126.989 459.909,123.175 C459.909,118.415 462.756,114.182 465,114.182 Z" />
        </g>
        <g id="Black-S">
            <path d="M676.469,76 C676.3,75.999 676.128,76.015 675.955,76.05 C672.193,76.802 668.502,79.857 666.504,83.721 C652.686,84.989 642.091,101.821 642.091,123.091 C642.091,135.723 652.368,146 665,146 C677.632,146 687.909,135.723 687.909,123.091 C687.909,116.872 685.579,112.55 683.325,108.37 C681.102,104.243 679,100.343 679,94.455 C679,89.875 676.134,85.963 672.107,84.387 C673.546,82.554 675.443,81.344 676.954,81.041 C678.333,80.766 679.226,79.424 678.95,78.046 C678.71,76.84 677.657,76.004 676.469,76 Z M668.204,88.73 C671.351,88.742 673.909,91.305 673.909,94.455 C673.909,101.628 676.533,106.491 678.846,110.784 C680.978,114.739 682.818,118.157 682.818,123.091 C682.818,132.916 674.825,140.909 665,140.909 C655.174,140.909 647.182,132.916 647.182,123.091 C647.182,104.242 656.505,88.896 668,88.735 C668.073,88.742 668.135,88.729 668.204,88.73 Z M665,109.091 C658.999,109.091 654.818,116.514 654.818,123.175 C654.818,129.87 659.005,134.545 665,134.545 C670.995,134.545 675.182,129.87 675.182,123.175 C675.182,116.514 671.001,109.091 665,109.091 Z M665,114.182 C667.244,114.182 670.091,118.415 670.091,123.175 C670.091,126.989 668.093,129.455 665,129.455 C661.907,129.455 659.909,126.989 659.909,123.175 C659.909,118.415 662.756,114.182 665,114.182 Z" />
        </g>
    </g>
</svg>