<?xml version="1.0" encoding="UTF-8"?>
<svg height="600" width="800" xmlns="http://www.w3.org/2000/svg" xmlns:xlink="http://www.w3.org/1999/xlink">
    <g id="Notes" font-family="'LucidaGrande', 'Lucida Grande', sans-serif" font-size="13">
        <rect fill="white" height="600.0" width="800.0" x="0.0" y="0.0" />
        <g font-size="13">
            <text x="18.0" y="176.0">Small</text>
            <text x="18.0" y="376.0">Medium</text>
            <text x="18.0" y="576.0">Large</text>
        </g>
        <g font-size="9">
            <text x="250.0" y="30.0">Ultralight</text>
            <text x="450.0" y="30.0">Regular</text>
            <text x="650.0" y="30.0">Black</text>
            <text id="template-version" fill="#505050" text-anchor="end" x="785.0" y="575.0">Template v.3.0</text>
            <a href="https://wangchujiang.com/#/app">
                <text fill="#505050" text-anchor="end" x="785.0" y="590.0">https://wangchujiang.com/#/app</text>
            </a>
        </g>
    </g>
    <g id="Guides" stroke="rgb(39, 170, 225)" stroke-width="0.5">
        <path id="Capline-S" d="M18,76 l800,0" />
        <path id="H-reference" d="M85,145.755 L87.685,145.755 L113.369,79.287 L114.052,79.287 L114.052,76 L112.148,76 L85,145.755 Z M95.693,121.536 L130.996,121.536 L130.263,119.313 L96.474,119.313 L95.693,121.536 Z M139.15,145.755 L141.787,145.755 L114.638,76 L113.466,76 L113.466,79.287 L139.15,145.755 Z" stroke="none" />
        <path id="Baseline-S" d="M18,146 l800,0" />
        <path id="left-margin-Ultralight-S" d="M219.985,56 l0,110" />
        <path id="right-margin-Ultralight-S" d="M310.015,56 l0,110" />
        <path id="left-margin-Regular-S" d="M419.985,56 l0,110" />
        <path id="right-margin-Regular-S" d="M510.015,56 l0,110" />
        <path id="left-margin-Black-S" d="M619.985,56 l0,110" />
        <path id="right-margin-Black-S" d="M710.015,56 l0,110" />
        <path id="Capline-M" d="M18,276 l800,0" />
        <path id="Baseline-M" d="M18,346 l800,0" />
        <path id="Capline-L" d="M18,476 l800,0" />
        <path id="Baseline-L" d="M18,546 l800,0" />
    </g>
    <g id="Symbols">
        <g id="Ultralight-S">
            <path d="M285.994,76 C285.215,76 284.436,76.297 283.842,76.892 L230.877,129.856 C229.536,131.197 229.85,133.131 230.877,134.158 C246.678,149.957 272.363,149.937 288.144,134.158 C303.982,118.325 303.961,92.706 288.144,76.892 C287.549,76.297 286.773,76 285.994,76 Z M285.899,83.444 C297.099,96.783 296.718,116.982 283.842,129.856 C271.151,142.545 250.93,143.23 237.43,131.914 L241.86,127.484 C246.868,131.599 253.081,133.843 259.668,133.843 C275.196,133.843 287.829,121.211 287.829,105.683 C287.829,99.096 285.583,92.882 281.469,87.874 L285.899,83.444 Z M277.129,92.215 C280.108,96.053 281.74,100.729 281.74,105.683 C281.74,117.853 271.838,127.754 259.668,127.754 C254.714,127.754 250.041,126.119 246.203,123.14 L277.129,92.215 Z M274.89,101.877 C272.788,101.877 271.085,102.9 271.085,104.16 C271.085,105.421 272.788,106.444 274.89,106.444 C276.992,106.444 278.696,105.421 278.696,104.16 C278.696,102.9 276.992,101.877 274.89,101.877 Z M266.806,111.016 C266.259,110.984 265.779,111.125 265.445,111.459 C264.553,112.35 265.035,114.279 266.521,115.764 C268.007,117.25 269.934,117.732 270.826,116.84 C271.716,115.948 271.235,114.021 269.75,112.536 C268.821,111.607 267.719,111.07 266.806,111.016 Z M258.146,117.099 C256.886,117.099 255.863,118.802 255.863,120.905 C255.863,123.007 256.886,124.71 258.146,124.71 C259.406,124.71 260.429,123.007 260.429,120.905 C260.429,118.802 259.406,117.099 258.146,117.099 Z" />
        </g>
        <g id="Regular-S">
            <path d="M485.994,76 C485.215,76 484.436,76.297 483.842,76.892 L430.877,129.856 C429.536,131.197 429.85,133.131 430.877,134.158 C446.678,149.957 472.363,149.937 488.144,134.158 C503.982,118.325 503.961,92.706 488.144,76.892 C487.549,76.297 486.773,76 485.994,76 Z M485.899,83.444 C497.099,96.783 496.718,116.982 483.842,129.856 C471.151,142.545 450.93,143.23 437.43,131.914 L441.86,127.484 C446.868,131.599 453.081,133.843 459.668,133.843 C475.196,133.843 487.829,121.211 487.829,105.683 C487.829,99.096 485.583,92.882 481.469,87.874 L485.899,83.444 Z M477.129,92.215 C480.108,96.053 481.74,100.729 481.74,105.683 C481.74,117.853 471.838,127.754 459.668,127.754 C454.714,127.754 450.041,126.119 446.203,123.14 L477.129,92.215 Z M474.89,101.877 C472.788,101.877 471.085,102.9 471.085,104.16 C471.085,105.421 472.788,106.444 474.89,106.444 C476.992,106.444 478.696,105.421 478.696,104.16 C478.696,102.9 476.992,101.877 474.89,101.877 Z M466.806,111.016 C466.259,110.984 465.779,111.125 465.445,111.459 C464.553,112.35 465.035,114.279 466.521,115.764 C468.007,117.25 469.934,117.732 470.826,116.84 C471.716,115.948 471.235,114.021 469.75,112.536 C468.821,111.607 467.719,111.07 466.806,111.016 Z M458.146,117.099 C456.886,117.099 455.863,118.802 455.863,120.905 C455.863,123.007 456.886,124.71 458.146,124.71 C459.406,124.71 460.429,123.007 460.429,120.905 C460.429,118.802 459.406,117.099 458.146,117.099 Z" />
        </g>
        <g id="Black-S">
            <path d="M685.994,76 C685.215,76 684.436,76.297 683.842,76.892 L630.877,129.856 C629.536,131.197 629.85,133.131 630.877,134.158 C646.678,149.957 672.363,149.937 688.144,134.158 C703.982,118.325 703.961,92.706 688.144,76.892 C687.549,76.297 686.773,76 685.994,76 Z M685.899,83.444 C697.099,96.783 696.718,116.982 683.842,129.856 C671.151,142.545 650.93,143.23 637.43,131.914 L641.86,127.484 C646.868,131.599 653.081,133.843 659.668,133.843 C675.196,133.843 687.829,121.211 687.829,105.683 C687.829,99.096 685.583,92.882 681.469,87.874 L685.899,83.444 Z M677.129,92.215 C680.108,96.053 681.74,100.729 681.74,105.683 C681.74,117.853 671.838,127.754 659.668,127.754 C654.714,127.754 650.041,126.119 646.203,123.14 L677.129,92.215 Z M674.89,101.877 C672.788,101.877 671.085,102.9 671.085,104.16 C671.085,105.421 672.788,106.444 674.89,106.444 C676.992,106.444 678.696,105.421 678.696,104.16 C678.696,102.9 676.992,101.877 674.89,101.877 Z M666.806,111.016 C666.259,110.984 665.779,111.125 665.445,111.459 C664.553,112.35 665.035,114.279 666.521,115.764 C668.007,117.25 669.934,117.732 670.826,116.84 C671.716,115.948 671.235,114.021 669.75,112.536 C668.821,111.607 667.719,111.07 666.806,111.016 Z M658.146,117.099 C656.886,117.099 655.863,118.802 655.863,120.905 C655.863,123.007 656.886,124.71 658.146,124.71 C659.406,124.71 660.429,123.007 660.429,120.905 C660.429,118.802 659.406,117.099 658.146,117.099 Z" />
        </g>
    </g>
</svg>