<?xml version="1.0" encoding="UTF-8"?>
<svg height="600" width="800" xmlns="http://www.w3.org/2000/svg" xmlns:xlink="http://www.w3.org/1999/xlink">
    <g id="Notes" font-family="'LucidaGrande', 'Lucida Grande', sans-serif" font-size="13">
        <rect fill="white" height="600.0" width="800.0" x="0.0" y="0.0" />
        <g font-size="13">
            <text x="18.0" y="176.0">Small</text>
            <text x="18.0" y="376.0">Medium</text>
            <text x="18.0" y="576.0">Large</text>
        </g>
        <g font-size="9">
            <text x="250.0" y="30.0">Ultralight</text>
            <text x="450.0" y="30.0">Regular</text>
            <text x="650.0" y="30.0">Black</text>
            <text id="template-version" fill="#505050" text-anchor="end" x="785.0" y="575.0">Template v.3.0</text>
            <a href="https://wangchujiang.com/#/app">
                <text fill="#505050" text-anchor="end" x="785.0" y="590.0">https://wangchujiang.com/#/app</text>
            </a>
        </g>
    </g>
    <g id="Guides" stroke="rgb(39, 170, 225)" stroke-width="0.5">
        <path id="Capline-S" d="M18,76 l800,0" />
        <path id="H-reference" d="M85,145.755 L87.685,145.755 L113.369,79.287 L114.052,79.287 L114.052,76 L112.148,76 L85,145.755 Z M95.693,121.536 L130.996,121.536 L130.263,119.313 L96.474,119.313 L95.693,121.536 Z M139.15,145.755 L141.787,145.755 L114.638,76 L113.466,76 L113.466,79.287 L139.15,145.755 Z" stroke="none" />
        <path id="Baseline-S" d="M18,146 l800,0" />
        <path id="left-margin-Ultralight-S" d="M217.083,56 l0,110" />
        <path id="right-margin-Ultralight-S" d="M312.917,56 l0,110" />
        <path id="left-margin-Regular-S" d="M417.083,56 l0,110" />
        <path id="right-margin-Regular-S" d="M512.917,56 l0,110" />
        <path id="left-margin-Black-S" d="M617.083,56 l0,110" />
        <path id="right-margin-Black-S" d="M712.917,56 l0,110" />
        <path id="Capline-M" d="M18,276 l800,0" />
        <path id="Baseline-M" d="M18,346 l800,0" />
        <path id="Capline-L" d="M18,476 l800,0" />
        <path id="Baseline-L" d="M18,546 l800,0" />
    </g>
    <g id="Symbols">
        <g id="Ultralight-S">
            <path d="M267.917,76 C267.17,76 266.424,76.285 265.854,76.854 C265.487,77.222 262.411,80.527 262.112,87.96 C261.403,88.099 260.7,88.286 260.004,88.521 C257.832,87.965 255.596,87.667 253.333,87.667 C236.901,87.667 227.083,103.98 227.083,119.75 C227.083,135.942 237.141,146 253.333,146 C255.105,146 256.923,145.765 258.748,145.325 C260.685,145.756 262.758,146 265,146 C267.241,146 269.313,145.755 271.249,145.325 C273.076,145.764 274.894,146 276.667,146 C292.859,146 302.917,135.942 302.917,119.75 C302.917,103.98 293.099,87.667 276.667,87.667 C274.404,87.667 272.168,87.965 269.996,88.521 C269.327,88.295 268.65,88.114 267.968,87.977 C268.218,83.057 269.946,81.019 269.979,80.979 C271.118,79.84 271.118,77.993 269.979,76.854 C269.409,76.285 268.663,76 267.917,76 Z M265,93.5 C272.927,93.5 282.5,104.559 282.5,118.292 C282.5,132.806 276.613,140.167 265,140.167 C253.387,140.167 247.5,132.806 247.5,118.292 C247.5,104.559 257.073,93.5 265,93.5 Z M252,93.554 C245.937,99.328 241.667,108.64 241.667,118.292 C241.667,127.866 244.067,135.108 248.591,139.794 C238.564,138.147 232.917,131.049 232.917,119.75 C232.917,107.303 240.025,94.447 252,93.554 Z M278,93.554 C289.975,94.447 297.083,107.303 297.083,119.75 C297.083,131.049 291.436,138.147 281.409,139.794 C285.933,135.108 288.333,127.866 288.333,118.292 C288.333,108.64 284.063,99.328 278,93.554 Z" />
        </g>
        <g id="Regular-S">
            <path d="M467.917,76 C467.17,76 466.424,76.285 465.854,76.854 C465.487,77.222 462.411,80.527 462.112,87.96 C461.403,88.099 460.7,88.286 460.004,88.521 C457.832,87.965 455.596,87.667 453.333,87.667 C436.901,87.667 427.083,103.98 427.083,119.75 C427.083,135.942 437.141,146 453.333,146 C455.105,146 456.923,145.765 458.748,145.325 C460.685,145.756 462.758,146 465,146 C467.241,146 469.313,145.755 471.249,145.325 C473.076,145.764 474.894,146 476.667,146 C492.859,146 502.917,135.942 502.917,119.75 C502.917,103.98 493.099,87.667 476.667,87.667 C474.404,87.667 472.168,87.965 469.996,88.521 C469.327,88.295 468.65,88.114 467.968,87.977 C468.218,83.057 469.946,81.019 469.979,80.979 C471.118,79.84 471.118,77.993 469.979,76.854 C469.409,76.285 468.663,76 467.917,76 Z M465,93.5 C472.928,93.5 482.5,104.559 482.5,118.292 C482.5,132.806 476.613,140.167 465,140.167 C453.387,140.167 447.5,132.806 447.5,118.292 C447.5,104.559 457.073,93.5 465,93.5 Z M452,93.554 C445.937,99.328 441.667,108.64 441.667,118.292 C441.667,127.866 444.067,135.108 448.591,139.794 C438.564,138.147 432.917,131.049 432.917,119.75 C432.917,107.303 440.025,94.447 452,93.554 Z M478,93.554 C489.975,94.447 497.083,107.303 497.083,119.75 C497.083,131.049 491.436,138.147 481.409,139.794 C485.933,135.108 488.333,127.866 488.333,118.292 C488.333,108.64 484.063,99.328 478,93.554 Z" />
        </g>
        <g id="Black-S">
            <path d="M667.917,76 C667.17,76 666.424,76.285 665.854,76.854 C665.487,77.222 662.411,80.527 662.112,87.96 C661.403,88.099 660.7,88.286 660.004,88.521 C657.832,87.965 655.596,87.667 653.333,87.667 C636.901,87.667 627.083,103.98 627.083,119.75 C627.083,135.942 637.141,146 653.333,146 C655.105,146 656.923,145.765 658.748,145.325 C660.685,145.756 662.758,146 665,146 C667.241,146 669.313,145.755 671.249,145.325 C673.076,145.764 674.894,146 676.667,146 C692.859,146 702.917,135.942 702.917,119.75 C702.917,103.98 693.099,87.667 676.667,87.667 C674.404,87.667 672.168,87.965 669.996,88.521 C669.327,88.295 668.65,88.114 667.968,87.977 C668.218,83.057 669.946,81.019 669.979,80.979 C671.118,79.84 671.118,77.993 669.979,76.854 C669.409,76.285 668.663,76 667.917,76 Z M665,93.5 C672.927,93.5 682.5,104.559 682.5,118.292 C682.5,132.806 676.613,140.167 665,140.167 C653.387,140.167 647.5,132.806 647.5,118.292 C647.5,104.559 657.073,93.5 665,93.5 Z M652,93.554 C645.937,99.328 641.667,108.64 641.667,118.292 C641.667,127.866 644.067,135.108 648.591,139.794 C638.564,138.147 632.917,131.049 632.917,119.75 C632.917,107.303 640.025,94.447 652,93.554 Z M678,93.554 C689.975,94.447 697.083,107.303 697.083,119.75 C697.083,131.049 691.436,138.147 681.409,139.794 C685.933,135.108 688.333,127.866 688.333,118.292 C688.333,108.64 684.063,99.328 678,93.554 Z" />
        </g>
    </g>
</svg>