<?xml version="1.0" encoding="UTF-8"?>
<svg height="600" width="800" xmlns="http://www.w3.org/2000/svg" xmlns:xlink="http://www.w3.org/1999/xlink">
    <g id="Notes" font-family="'LucidaGrande', 'Lucida Grande', sans-serif" font-size="13">
        <rect fill="white" height="600.0" width="800.0" x="0.0" y="0.0" />
        <g font-size="13">
            <text x="18.0" y="176.0">Small</text>
            <text x="18.0" y="376.0">Medium</text>
            <text x="18.0" y="576.0">Large</text>
        </g>
        <g font-size="9">
            <text x="250.0" y="30.0">Ultralight</text>
            <text x="450.0" y="30.0">Regular</text>
            <text x="650.0" y="30.0">Black</text>
            <text id="template-version" fill="#505050" text-anchor="end" x="785.0" y="575.0">Template v.3.0</text>
            <a href="https://wangchujiang.com/#/app">
                <text fill="#505050" text-anchor="end" x="785.0" y="590.0">https://wangchujiang.com/#/app</text>
            </a>
        </g>
    </g>
    <g id="Guides" stroke="rgb(39, 170, 225)" stroke-width="0.5">
        <path id="Capline-S" d="M18,76 l800,0" />
        <path id="H-reference" d="M85,145.755 L87.685,145.755 L113.369,79.287 L114.052,79.287 L114.052,76 L112.148,76 L85,145.755 Z M95.693,121.536 L130.996,121.536 L130.263,119.313 L96.474,119.313 L95.693,121.536 Z M139.15,145.755 L141.787,145.755 L114.638,76 L113.466,76 L113.466,79.287 L139.15,145.755 Z" stroke="none" />
        <path id="Baseline-S" d="M18,146 l800,0" />
        <path id="left-margin-Ultralight-S" d="M215.435,56 l0,110" />
        <path id="right-margin-Ultralight-S" d="M314.565,56 l0,110" />
        <path id="left-margin-Regular-S" d="M415.435,56 l0,110" />
        <path id="right-margin-Regular-S" d="M514.565,56 l0,110" />
        <path id="left-margin-Black-S" d="M615.435,56 l0,110" />
        <path id="right-margin-Black-S" d="M714.565,56 l0,110" />
        <path id="Capline-M" d="M18,276 l800,0" />
        <path id="Baseline-M" d="M18,346 l800,0" />
        <path id="Capline-L" d="M18,476 l800,0" />
        <path id="Baseline-L" d="M18,546 l800,0" />
    </g>
    <g id="Symbols">
        <g id="Ultralight-S">
            <path d="M239.13,76 C231.45,76 225.435,82.685 225.435,91.217 C225.435,102.263 236.382,108.952 241.416,111.458 C240.813,112.43 240.23,113.439 239.665,114.486 L233.968,115.625 C233.234,115.771 232.58,116.184 232.131,116.784 L227.566,122.871 C227.047,123.563 226.847,124.444 227.016,125.293 L228.538,132.902 C228.825,134.347 230.097,135.348 231.519,135.348 C231.717,135.348 231.917,135.329 232.119,135.288 C233.767,134.96 234.836,133.355 234.506,131.707 L233.252,125.433 L236.304,121.367 L240.343,120.558 C241.182,122.779 242.527,125.474 244.614,128.033 L242.007,129.772 C241.566,130.066 241.211,130.47 240.973,130.943 L237.93,137.03 C237.443,138.007 237.514,139.171 238.12,140.079 L241.163,144.645 C241.751,145.526 242.716,146 243.699,146 C244.278,146 244.865,145.836 245.381,145.489 C246.779,144.557 247.156,142.667 246.225,141.268 L244.162,138.174 L246.056,134.388 L249.179,132.307 C252.939,134.966 258.048,136.87 265,136.87 C271.952,136.87 277.061,134.966 280.821,132.307 L283.941,134.388 L285.835,138.174 L283.772,141.268 C282.841,142.667 283.218,144.556 284.616,145.489 C285.134,145.836 285.722,146 286.301,146 C287.286,146 288.249,145.526 288.837,144.645 L291.88,140.079 C292.486,139.171 292.557,138.007 292.07,137.03 L289.024,130.943 C288.785,130.468 288.431,130.066 287.99,129.772 L285.383,128.036 C287.473,125.475 288.818,122.777 289.657,120.555 L293.696,121.364 L296.748,125.433 L295.494,131.707 C295.164,133.355 296.233,134.96 297.881,135.288 C298.083,135.329 298.283,135.348 298.481,135.348 C299.903,135.348 301.173,134.349 301.462,132.902 L302.984,125.293 C303.154,124.445 302.955,123.565 302.434,122.871 L297.869,116.781 C297.42,116.181 296.766,115.768 296.032,115.622 L290.326,114.48 C289.756,113.432 289.172,112.427 288.575,111.464 C293.604,108.963 304.565,102.272 304.565,91.217 C304.565,82.685 298.55,76 290.87,76 L288.492,76 L286.839,82.619 L280.217,84.274 L280.217,86.652 C280.217,95.935 285.639,100.919 290.62,103.186 C288.108,104.958 286.135,105.908 284.985,106.426 C282.553,103.505 279.908,101.242 277.002,99.804 C277.107,99.496 277.174,99.17 277.174,98.826 C277.174,97.145 275.812,95.783 274.13,95.783 C272.449,95.783 271.087,97.145 271.087,98.826 C271.087,99.053 271.117,99.27 271.164,99.483 C269.383,99.912 267.077,100.351 265,100.351 C262.923,100.351 260.617,99.913 258.836,99.483 C258.883,99.27 258.913,99.053 258.913,98.826 C258.913,97.145 257.551,95.783 255.87,95.783 C254.188,95.783 252.826,97.145 252.826,98.826 C252.826,99.19 252.899,99.534 253.016,99.857 C250.014,101.38 247.39,103.643 245.036,106.429 C243.899,105.91 241.928,104.952 239.413,103.171 C244.383,100.896 249.783,95.915 249.783,86.652 L249.783,84.274 L243.164,82.622 L241.508,76 L239.13,76 Z M236.851,82.473 L238.144,87.639 L243.526,88.985 C242.44,96.049 236.493,98.009 234.324,98.493 C232.67,96.399 231.522,93.958 231.522,91.217 C231.522,86.973 233.696,83.581 236.851,82.473 Z M293.149,82.473 C296.304,83.581 298.478,86.973 298.478,91.217 C298.478,93.972 297.346,96.411 295.708,98.499 C293.566,98.027 287.565,96.084 286.474,88.985 L291.856,87.639 L293.149,82.473 Z M255.983,105.085 C257.717,105.578 261.272,106.435 265,106.435 C268.728,106.435 272.281,105.578 274.017,105.085 C278.802,107.201 282.889,113.337 284.61,116.525 C283.703,119.853 279.612,130.783 265,130.783 C250.373,130.783 246.286,119.831 245.387,116.522 C247.1,113.334 251.177,107.207 255.983,105.085 Z" />
        </g>
        <g id="Regular-S">
            <path d="M439.13,76 C431.45,76 425.435,82.685 425.435,91.217 C425.435,102.263 436.382,108.952 441.416,111.458 C440.813,112.43 440.23,113.439 439.665,114.486 L433.968,115.625 C433.234,115.771 432.58,116.184 432.131,116.784 L427.566,122.871 C427.047,123.563 426.847,124.444 427.016,125.293 L428.538,132.902 C428.825,134.347 430.097,135.348 431.519,135.348 C431.717,135.348 431.917,135.329 432.119,135.288 C433.767,134.96 434.836,133.355 434.506,131.707 L433.252,125.433 L436.304,121.367 L440.343,120.558 C441.182,122.779 442.527,125.474 444.614,128.033 L442.007,129.772 C441.566,130.066 441.211,130.47 440.973,130.943 L437.93,137.03 C437.443,138.007 437.514,139.171 438.12,140.079 L441.163,144.645 C441.751,145.526 442.716,146 443.699,146 C444.278,146 444.865,145.836 445.381,145.489 C446.779,144.557 447.156,142.667 446.225,141.268 L444.162,138.174 L446.056,134.388 L449.179,132.307 C452.939,134.966 458.048,136.87 465,136.87 C471.952,136.87 477.061,134.966 480.821,132.307 L483.941,134.388 L485.835,138.174 L483.772,141.268 C482.841,142.667 483.218,144.556 484.616,145.489 C485.134,145.836 485.722,146 486.301,146 C487.286,146 488.249,145.526 488.837,144.645 L491.88,140.079 C492.486,139.171 492.557,138.007 492.07,137.03 L489.024,130.943 C488.785,130.468 488.431,130.066 487.99,129.772 L485.383,128.036 C487.473,125.475 488.818,122.777 489.657,120.555 L493.696,121.364 L496.748,125.433 L495.494,131.707 C495.164,133.355 496.233,134.96 497.881,135.288 C498.083,135.329 498.283,135.348 498.481,135.348 C499.903,135.348 501.173,134.349 501.462,132.902 L502.984,125.293 C503.154,124.445 502.955,123.565 502.434,122.871 L497.869,116.781 C497.42,116.181 496.766,115.768 496.032,115.622 L490.326,114.48 C489.756,113.432 489.172,112.427 488.575,111.464 C493.604,108.963 504.565,102.272 504.565,91.217 C504.565,82.685 498.55,76 490.87,76 L488.492,76 L486.839,82.619 L480.217,84.274 L480.217,86.652 C480.217,95.935 485.639,100.919 490.62,103.186 C488.108,104.958 486.135,105.908 484.985,106.426 C482.553,103.505 479.908,101.242 477.002,99.804 C477.107,99.496 477.174,99.17 477.174,98.826 C477.174,97.145 475.812,95.783 474.13,95.783 C472.449,95.783 471.087,97.145 471.087,98.826 C471.087,99.053 471.117,99.27 471.164,99.483 C469.383,99.912 467.077,100.351 465,100.351 C462.923,100.351 460.617,99.913 458.836,99.483 C458.883,99.27 458.913,99.053 458.913,98.826 C458.913,97.145 457.551,95.783 455.87,95.783 C454.188,95.783 452.826,97.145 452.826,98.826 C452.826,99.19 452.899,99.534 453.016,99.857 C450.014,101.38 447.39,103.643 445.036,106.429 C443.899,105.91 441.928,104.952 439.413,103.171 C444.383,100.896 449.783,95.915 449.783,86.652 L449.783,84.274 L443.164,82.622 L441.508,76 L439.13,76 Z M436.851,82.473 L438.144,87.639 L443.526,88.985 C442.44,96.049 436.493,98.009 434.324,98.493 C432.67,96.399 431.522,93.958 431.522,91.217 C431.522,86.973 433.696,83.581 436.851,82.473 Z M493.149,82.473 C496.304,83.581 498.478,86.973 498.478,91.217 C498.478,93.972 497.346,96.411 495.708,98.499 C493.566,98.027 487.565,96.084 486.474,88.985 L491.856,87.639 L493.149,82.473 Z M455.983,105.085 C457.717,105.578 461.272,106.435 465,106.435 C468.728,106.435 472.281,105.578 474.017,105.085 C478.802,107.201 482.889,113.337 484.61,116.525 C483.703,119.853 479.612,130.783 465,130.783 C450.373,130.783 446.286,119.831 445.387,116.522 C447.1,113.334 451.177,107.207 455.983,105.085 Z" />
        </g>
        <g id="Black-S">
            <path d="M639.13,76 C631.45,76 625.435,82.685 625.435,91.217 C625.435,102.263 636.382,108.952 641.416,111.458 C640.813,112.43 640.23,113.439 639.665,114.486 L633.968,115.625 C633.234,115.771 632.58,116.184 632.131,116.784 L627.566,122.871 C627.047,123.563 626.847,124.444 627.016,125.293 L628.538,132.902 C628.825,134.347 630.097,135.348 631.519,135.348 C631.717,135.348 631.917,135.329 632.119,135.288 C633.767,134.96 634.836,133.355 634.506,131.707 L633.252,125.433 L636.304,121.367 L640.343,120.558 C641.182,122.779 642.526,125.474 644.614,128.033 L642.007,129.772 C641.566,130.066 641.211,130.47 640.973,130.943 L637.93,137.03 C637.443,138.007 637.514,139.171 638.12,140.079 L641.163,144.645 C641.751,145.526 642.716,146 643.699,146 C644.278,146 644.865,145.836 645.381,145.489 C646.779,144.557 647.156,142.667 646.225,141.268 L644.162,138.174 L646.055,134.388 L649.179,132.307 C652.939,134.966 658.048,136.87 665,136.87 C671.952,136.87 677.06,134.966 680.821,132.307 L683.941,134.388 L685.835,138.174 L683.772,141.268 C682.841,142.667 683.218,144.556 684.616,145.489 C685.134,145.836 685.722,146 686.301,146 C687.286,146 688.249,145.526 688.837,144.645 L691.88,140.079 C692.486,139.171 692.557,138.007 692.07,137.03 L689.024,130.943 C688.785,130.468 688.431,130.066 687.99,129.772 L685.383,128.036 C687.473,125.475 688.818,122.777 689.657,120.555 L693.696,121.364 L696.748,125.433 L695.494,131.707 C695.164,133.355 696.233,134.96 697.881,135.288 C698.083,135.329 698.283,135.348 698.481,135.348 C699.903,135.348 701.173,134.349 701.462,132.902 L702.984,125.293 C703.154,124.445 702.955,123.565 702.434,122.871 L697.869,116.781 C697.42,116.181 696.766,115.768 696.032,115.622 L690.326,114.48 C689.756,113.432 689.172,112.427 688.575,111.464 C693.603,108.963 704.565,102.272 704.565,91.217 C704.565,82.685 698.55,76 690.87,76 L688.492,76 L686.839,82.619 L680.217,84.274 L680.217,86.652 C680.217,95.935 685.639,100.919 690.62,103.186 C688.108,104.958 686.135,105.908 684.985,106.426 C682.553,103.505 679.908,101.242 677.002,99.804 C677.107,99.496 677.174,99.17 677.174,98.826 C677.174,97.145 675.812,95.783 674.13,95.783 C672.449,95.783 671.087,97.145 671.087,98.826 C671.087,99.053 671.117,99.27 671.164,99.483 C669.383,99.912 667.077,100.351 665,100.351 C662.923,100.351 660.617,99.913 658.836,99.483 C658.883,99.27 658.913,99.053 658.913,98.826 C658.913,97.145 657.551,95.783 655.87,95.783 C654.188,95.783 652.826,97.145 652.826,98.826 C652.826,99.19 652.899,99.534 653.016,99.857 C650.014,101.38 647.39,103.643 645.036,106.429 C643.899,105.91 641.928,104.952 639.413,103.171 C644.383,100.896 649.783,95.915 649.783,86.652 L649.783,84.274 L643.164,82.622 L641.508,76 L639.13,76 Z M636.851,82.473 L638.144,87.639 L643.526,88.985 C642.44,96.049 636.493,98.009 634.324,98.493 C632.67,96.399 631.522,93.958 631.522,91.217 C631.522,86.973 633.696,83.581 636.851,82.473 Z M693.149,82.473 C696.304,83.581 698.478,86.973 698.478,91.217 C698.478,93.972 697.346,96.411 695.708,98.499 C693.566,98.027 687.565,96.084 686.474,88.985 L691.856,87.639 L693.149,82.473 Z M655.982,105.085 C657.717,105.578 661.272,106.435 665,106.435 C668.728,106.435 672.281,105.578 674.017,105.085 C678.802,107.201 682.889,113.337 684.61,116.525 C683.703,119.853 679.612,130.783 665,130.783 C650.373,130.783 646.286,119.831 645.387,116.522 C647.1,113.334 651.177,107.207 655.982,105.085 Z" />
        </g>
    </g>
</svg>