<?xml version="1.0" encoding="UTF-8"?>
<svg height="600" width="800" xmlns="http://www.w3.org/2000/svg" xmlns:xlink="http://www.w3.org/1999/xlink">
    <g id="Notes" font-family="'LucidaGrande', 'Lucida Grande', sans-serif" font-size="13">
        <rect fill="white" height="600.0" width="800.0" x="0.0" y="0.0" />
        <g font-size="13">
            <text x="18.0" y="176.0">Small</text>
            <text x="18.0" y="376.0">Medium</text>
            <text x="18.0" y="576.0">Large</text>
        </g>
        <g font-size="9">
            <text x="250.0" y="30.0">Ultralight</text>
            <text x="450.0" y="30.0">Regular</text>
            <text x="650.0" y="30.0">Black</text>
            <text id="template-version" fill="#505050" text-anchor="end" x="785.0" y="575.0">Template v.3.0</text>
            <a href="https://wangchujiang.com/#/app">
                <text fill="#505050" text-anchor="end" x="785.0" y="590.0">https://wangchujiang.com/#/app</text>
            </a>
        </g>
    </g>
    <g id="Guides" stroke="rgb(39, 170, 225)" stroke-width="0.5">
        <path id="Capline-S" d="M18,76 l800,0" />
        <path id="H-reference" d="M85,145.755 L87.685,145.755 L113.369,79.287 L114.052,79.287 L114.052,76 L112.148,76 L85,145.755 Z M95.693,121.536 L130.996,121.536 L130.263,119.313 L96.474,119.313 L95.693,121.536 Z M139.15,145.755 L141.787,145.755 L114.638,76 L113.466,76 L113.466,79.287 L139.15,145.755 Z" stroke="none" />
        <path id="Baseline-S" d="M18,146 l800,0" />
        <path id="left-margin-Ultralight-S" d="M218.542,56 l0,110" />
        <path id="right-margin-Ultralight-S" d="M311.458,56 l0,110" />
        <path id="left-margin-Regular-S" d="M418.542,56 l0,110" />
        <path id="right-margin-Regular-S" d="M511.458,56 l0,110" />
        <path id="left-margin-Black-S" d="M618.542,56 l0,110" />
        <path id="right-margin-Black-S" d="M711.458,56 l0,110" />
        <path id="Capline-M" d="M18,276 l800,0" />
        <path id="Baseline-M" d="M18,346 l800,0" />
        <path id="Capline-L" d="M18,476 l800,0" />
        <path id="Baseline-L" d="M18,546 l800,0" />
    </g>
    <g id="Symbols">
        <g id="Ultralight-S">
            <path d="M275.208,76 C269.377,76 263.382,80.468 262.28,88.065 C260.732,87.81 259.174,87.667 257.62,87.667 C241.586,87.667 228.542,100.751 228.542,116.833 C228.542,132.916 241.586,146 257.62,146 C260.09,146 262.569,145.675 265,145.034 C267.431,145.675 269.911,146 272.38,146 C288.414,146 301.458,132.916 301.458,116.833 C301.458,100.751 288.414,87.667 272.38,87.667 C270.991,87.667 269.6,87.779 268.216,87.983 C269.163,83.975 272.259,81.833 275.208,81.833 C276.818,81.833 278.125,80.527 278.125,78.917 C278.125,77.307 276.818,76 275.208,76 Z M257.62,93.5 C259.812,93.5 262.018,93.821 264.177,94.457 C264.715,94.615 265.288,94.615 265.826,94.457 C267.983,93.821 270.188,93.5 272.38,93.5 C278.27,93.5 283.637,95.728 287.738,99.365 C284.098,101.23 279.366,101.356 274.832,99.541 C273.931,99.183 272.917,99.291 272.115,99.835 C271.313,100.377 270.833,101.282 270.833,102.25 C270.833,105.14 267.88,110.405 265,112.168 C262.12,110.403 259.167,105.139 259.167,102.25 C259.167,101.282 258.686,100.377 257.882,99.835 C257.08,99.292 256.066,99.181 255.165,99.541 C250.627,101.356 245.898,101.232 242.259,99.368 C246.36,95.729 251.729,93.5 257.62,93.5 Z M238.326,103.837 C242.734,106.568 248.373,107.375 253.971,106.03 C255.504,111.008 259.597,116.647 264.077,118.141 C264.378,118.241 264.688,118.292 265,118.292 C265.312,118.292 265.624,118.243 265.923,118.144 C270.404,116.649 274.493,111.008 276.026,106.03 C281.628,107.371 287.266,106.57 291.674,103.837 C294.167,107.553 295.625,112.026 295.625,116.833 C295.625,129.699 285.199,140.167 272.38,140.167 C270.188,140.167 267.982,139.844 265.823,139.21 C265.555,139.129 265.277,139.09 265,139.09 C264.723,139.09 264.444,139.131 264.174,139.21 C262.017,139.845 259.812,140.167 257.62,140.167 C244.801,140.167 234.375,129.699 234.375,116.833 C234.375,112.026 235.833,107.553 238.326,103.837 Z" />
        </g>
        <g id="Regular-S">
            <path d="M475.208,76 C469.377,76 463.382,80.468 462.28,88.065 C460.732,87.81 459.174,87.667 457.62,87.667 C441.586,87.667 428.542,100.751 428.542,116.833 C428.542,132.916 441.586,146 457.62,146 C460.09,146 462.569,145.675 465,145.034 C467.431,145.675 469.911,146 472.38,146 C488.414,146 501.458,132.916 501.458,116.833 C501.458,100.751 488.414,87.667 472.38,87.667 C470.991,87.667 469.6,87.779 468.216,87.983 C469.163,83.975 472.259,81.833 475.208,81.833 C476.818,81.833 478.125,80.527 478.125,78.917 C478.125,77.307 476.818,76 475.208,76 Z M457.62,93.5 C459.812,93.5 462.019,93.821 464.177,94.457 C464.715,94.615 465.288,94.615 465.826,94.457 C467.983,93.821 470.188,93.5 472.38,93.5 C478.27,93.5 483.637,95.728 487.738,99.365 C484.098,101.23 479.366,101.356 474.832,99.541 C473.931,99.183 472.917,99.291 472.115,99.835 C471.313,100.377 470.833,101.282 470.833,102.25 C470.833,105.14 467.88,110.405 465,112.168 C462.12,110.403 459.167,105.139 459.167,102.25 C459.167,101.282 458.686,100.377 457.882,99.835 C457.08,99.292 456.066,99.181 455.165,99.541 C450.627,101.356 445.898,101.232 442.259,99.368 C446.36,95.729 451.729,93.5 457.62,93.5 Z M438.326,103.837 C442.734,106.568 448.373,107.375 453.971,106.03 C455.504,111.008 459.597,116.647 464.077,118.141 C464.378,118.241 464.688,118.292 465,118.292 C465.312,118.292 465.624,118.243 465.923,118.144 C470.404,116.649 474.493,111.008 476.026,106.03 C481.628,107.371 487.266,106.57 491.674,103.837 C494.167,107.553 495.625,112.026 495.625,116.833 C495.625,129.699 485.199,140.167 472.38,140.167 C470.188,140.167 467.982,139.844 465.823,139.21 C465.555,139.129 465.277,139.09 465,139.09 C464.723,139.09 464.444,139.131 464.174,139.21 C462.017,139.845 459.812,140.167 457.62,140.167 C444.801,140.167 434.375,129.699 434.375,116.833 C434.375,112.026 435.833,107.553 438.326,103.837 Z" />
        </g>
        <g id="Black-S">
            <path d="M675.208,76 C669.377,76 663.382,80.468 662.28,88.065 C660.732,87.81 659.174,87.667 657.62,87.667 C641.586,87.667 628.542,100.751 628.542,116.833 C628.542,132.916 641.586,146 657.62,146 C660.09,146 662.569,145.675 665,145.034 C667.431,145.675 669.911,146 672.38,146 C688.414,146 701.458,132.916 701.458,116.833 C701.458,100.751 688.414,87.667 672.38,87.667 C670.991,87.667 669.6,87.779 668.216,87.983 C669.163,83.975 672.259,81.833 675.208,81.833 C676.818,81.833 678.125,80.527 678.125,78.917 C678.125,77.307 676.818,76 675.208,76 Z M657.62,93.5 C659.812,93.5 662.018,93.821 664.177,94.457 C664.715,94.615 665.288,94.615 665.826,94.457 C667.983,93.821 670.188,93.5 672.38,93.5 C678.27,93.5 683.637,95.728 687.738,99.365 C684.098,101.23 679.366,101.356 674.832,99.541 C673.931,99.183 672.917,99.291 672.115,99.835 C671.313,100.377 670.833,101.282 670.833,102.25 C670.833,105.14 667.88,110.405 665,112.168 C662.12,110.403 659.167,105.139 659.167,102.25 C659.167,101.282 658.686,100.377 657.882,99.835 C657.08,99.292 656.066,99.181 655.165,99.541 C650.627,101.356 645.898,101.232 642.259,99.368 C646.36,95.729 651.729,93.5 657.62,93.5 Z M638.326,103.837 C642.734,106.568 648.373,107.375 653.971,106.03 C655.504,111.008 659.597,116.647 664.077,118.141 C664.378,118.241 664.688,118.292 665,118.292 C665.312,118.292 665.624,118.243 665.923,118.144 C670.404,116.649 674.493,111.008 676.026,106.03 C681.628,107.371 687.266,106.57 691.674,103.837 C694.167,107.553 695.625,112.026 695.625,116.833 C695.625,129.699 685.199,140.167 672.38,140.167 C670.188,140.167 667.981,139.844 665.823,139.21 C665.555,139.129 665.277,139.09 665,139.09 C664.723,139.09 664.444,139.131 664.174,139.21 C662.017,139.845 659.812,140.167 657.62,140.167 C644.801,140.167 634.375,129.699 634.375,116.833 C634.375,112.026 635.833,107.553 638.326,103.837 Z" />
        </g>
    </g>
</svg>