<?xml version="1.0" encoding="UTF-8"?>
<svg height="600" width="800" xmlns="http://www.w3.org/2000/svg" xmlns:xlink="http://www.w3.org/1999/xlink">
    <g id="Notes" font-family="'LucidaGrande', 'Lucida Grande', sans-serif" font-size="13">
        <rect fill="white" height="600.0" width="800.0" x="0.0" y="0.0" />
        <g font-size="13">
            <text x="18.0" y="176.0">Small</text>
            <text x="18.0" y="376.0">Medium</text>
            <text x="18.0" y="576.0">Large</text>
        </g>
        <g font-size="9">
            <text x="250.0" y="30.0">Ultralight</text>
            <text x="450.0" y="30.0">Regular</text>
            <text x="650.0" y="30.0">Black</text>
            <text id="template-version" fill="#505050" text-anchor="end" x="785.0" y="575.0">Template v.3.0</text>
            <a href="https://wangchujiang.com/#/app">
                <text fill="#505050" text-anchor="end" x="785.0" y="590.0">https://wangchujiang.com/#/app</text>
            </a>
        </g>
    </g>
    <g id="Guides" stroke="rgb(39, 170, 225)" stroke-width="0.5">
        <path id="Capline-S" d="M18,76 l800,0" />
        <path id="H-reference" d="M85,145.755 L87.685,145.755 L113.369,79.287 L114.052,79.287 L114.052,76 L112.148,76 L85,145.755 Z M95.693,121.536 L130.996,121.536 L130.263,119.313 L96.474,119.313 L95.693,121.536 Z M139.15,145.755 L141.787,145.755 L114.638,76 L113.466,76 L113.466,79.287 L139.15,145.755 Z" stroke="none" />
        <path id="Baseline-S" d="M18,146 l800,0" />
        <path id="left-margin-Ultralight-S" d="M221,56 l0,110" />
        <path id="right-margin-Ultralight-S" d="M309,56 l0,110" />
        <path id="left-margin-Regular-S" d="M421,56 l0,110" />
        <path id="right-margin-Regular-S" d="M509,56 l0,110" />
        <path id="left-margin-Black-S" d="M621,56 l0,110" />
        <path id="right-margin-Black-S" d="M709,56 l0,110" />
        <path id="Capline-M" d="M18,276 l800,0" />
        <path id="Baseline-M" d="M18,346 l800,0" />
        <path id="Capline-L" d="M18,476 l800,0" />
        <path id="Baseline-L" d="M18,546 l800,0" />
    </g>
    <g id="Symbols">
        <g id="Ultralight-S">
            <path d="M276.083,76.003 C275.499,75.975 274.904,76.158 274.423,76.556 L268.676,81.3 L267.318,79.943 C266.274,78.899 264.581,78.899 263.537,79.943 C262.493,80.987 262.493,82.679 263.537,83.723 L288.937,109.123 C289.46,109.645 290.143,109.906 290.827,109.906 C291.512,109.906 292.195,109.645 292.718,109.123 C293.762,108.079 293.762,106.386 292.718,105.342 L291.331,103.956 L296.094,98.24 C296.897,97.275 296.832,95.859 295.945,94.971 L295.242,94.272 C294.295,93.324 292.759,93.324 291.812,94.272 L286.728,99.353 L282.334,94.958 L287.347,89.734 C288.261,88.782 288.245,87.274 287.31,86.34 L286.323,85.35 C285.39,84.417 283.88,84.399 282.926,85.313 L277.702,90.326 L273.308,85.932 L278.391,80.849 C279.339,79.901 279.339,78.366 278.391,77.418 L277.684,76.71 C277.241,76.268 276.667,76.03 276.083,76.003 Z M258.744,85.843 C258.06,85.843 257.375,86.105 256.853,86.627 C255.809,87.671 255.809,89.361 256.853,90.405 L280.741,114.295 C282.935,116.489 284.143,119.407 284.143,122.507 L284.143,143.326 C284.143,144.802 285.341,146 286.817,146 C288.293,146 289.49,144.802 289.49,143.326 L289.49,122.507 C289.49,117.979 287.727,113.72 284.524,110.517 L260.634,86.627 C260.112,86.105 259.428,85.843 258.744,85.843 Z M254.161,93.29 L250.496,96.319 C247.183,99.054 244.915,102.845 244.073,107.058 L242.475,115.052 C241.752,118.67 239.973,121.992 237.365,124.601 L233.344,128.621 L244.039,139.316 L247.658,135.7 C250.516,132.842 254.224,130.987 258.227,130.415 L263.665,129.637 C268.243,128.983 272.416,126.654 275.376,123.102 L279.281,118.413 L273.475,112.606 L270.323,115.757 C268.528,117.553 264.894,116.42 265.399,112.608 L269.355,108.486 L264.174,103.306 L260.054,107.261 C256.243,107.766 255.108,104.132 256.903,102.337 L260.054,99.185 L254.161,93.29 Z" />
        </g>
        <g id="Regular-S">
            <path d="M476.083,76.003 C475.499,75.975 474.904,76.158 474.422,76.556 L468.676,81.3 L467.318,79.943 C466.274,78.899 464.581,78.899 463.537,79.943 C462.493,80.987 462.493,82.679 463.537,83.723 L488.937,109.123 C489.46,109.645 490.143,109.906 490.827,109.906 C491.512,109.906 492.195,109.645 492.717,109.123 C493.762,108.079 493.762,106.386 492.717,105.342 L491.331,103.956 L496.093,98.24 C496.897,97.275 496.832,95.859 495.945,94.971 L495.242,94.272 C494.294,93.324 492.759,93.324 491.811,94.272 L486.728,99.353 L482.334,94.958 L487.347,89.734 C488.261,88.782 488.245,87.274 487.31,86.34 L486.323,85.35 C485.39,84.417 483.88,84.399 482.926,85.313 L477.702,90.326 L473.308,85.932 L478.391,80.849 C479.339,79.901 479.339,78.366 478.391,77.418 L477.684,76.71 C477.241,76.268 476.667,76.03 476.083,76.003 Z M458.744,85.843 C458.06,85.843 457.375,86.105 456.853,86.627 C455.809,87.671 455.809,89.361 456.853,90.405 L480.741,114.295 C482.935,116.489 484.143,119.407 484.143,122.507 L484.143,143.326 C484.143,144.802 485.341,146 486.817,146 C488.293,146 489.49,144.802 489.49,143.326 L489.49,122.507 C489.49,117.979 487.727,113.72 484.524,110.517 L460.634,86.627 C460.112,86.105 459.428,85.843 458.744,85.843 Z M454.161,93.29 L450.496,96.319 C447.183,99.054 444.915,102.845 444.073,107.058 L442.475,115.052 C441.752,118.67 439.973,121.992 437.365,124.601 L433.344,128.621 L444.039,139.316 L447.658,135.7 C450.516,132.842 454.224,130.987 458.227,130.415 L463.665,129.637 C468.243,128.983 472.416,126.654 475.375,123.102 L479.281,118.413 L473.475,112.606 L470.323,115.757 C468.528,117.553 464.894,116.42 465.399,112.608 L469.355,108.486 L464.174,103.306 L460.054,107.261 C456.243,107.766 455.108,104.132 456.903,102.337 L460.054,99.185 L454.161,93.29 Z" />
        </g>
        <g id="Black-S">
            <path d="M676.083,76.003 C675.499,75.975 674.904,76.158 674.422,76.556 L668.676,81.3 L667.318,79.943 C666.274,78.899 664.581,78.899 663.537,79.943 C662.493,80.987 662.493,82.679 663.537,83.723 L688.937,109.123 C689.46,109.645 690.143,109.906 690.827,109.906 C691.512,109.906 692.195,109.645 692.718,109.123 C693.762,108.079 693.762,106.386 692.718,105.342 L691.331,103.956 L696.094,98.24 C696.897,97.275 696.832,95.859 695.945,94.971 L695.242,94.272 C694.294,93.324 692.759,93.324 691.812,94.272 L686.728,99.353 L682.334,94.958 L687.347,89.734 C688.261,88.782 688.245,87.274 687.31,86.34 L686.323,85.35 C685.39,84.417 683.88,84.399 682.926,85.313 L677.702,90.326 L673.308,85.932 L678.391,80.849 C679.339,79.901 679.339,78.366 678.391,77.418 L677.684,76.71 C677.241,76.268 676.667,76.03 676.083,76.003 Z M658.744,85.843 C658.06,85.843 657.375,86.105 656.853,86.627 C655.809,87.671 655.809,89.361 656.853,90.405 L680.741,114.295 C682.935,116.489 684.143,119.407 684.143,122.507 L684.143,143.326 C684.143,144.802 685.341,146 686.817,146 C688.293,146 689.49,144.802 689.49,143.326 L689.49,122.507 C689.49,117.979 687.727,113.72 684.524,110.517 L660.634,86.627 C660.112,86.105 659.428,85.843 658.744,85.843 Z M654.161,93.29 L650.496,96.319 C647.183,99.054 644.915,102.845 644.073,107.058 L642.475,115.052 C641.752,118.67 639.973,121.992 637.365,124.601 L633.344,128.621 L644.039,139.316 L647.658,135.7 C650.516,132.842 654.224,130.987 658.227,130.415 L663.665,129.637 C668.243,128.983 672.416,126.654 675.375,123.102 L679.281,118.413 L673.475,112.606 L670.323,115.757 C668.528,117.553 664.894,116.42 665.399,112.608 L669.355,108.486 L664.174,103.306 L660.054,107.261 C656.243,107.766 655.108,104.132 656.903,102.337 L660.054,99.185 L654.161,93.29 Z" />
        </g>
    </g>
</svg>