<?xml version="1.0" encoding="UTF-8"?>
<svg height="600" width="800" xmlns="http://www.w3.org/2000/svg" xmlns:xlink="http://www.w3.org/1999/xlink">
    <g id="Notes" font-family="'LucidaGrande', 'Lucida Grande', sans-serif" font-size="13">
        <rect fill="white" height="600.0" width="800.0" x="0.0" y="0.0" />
        <g font-size="13">
            <text x="18.0" y="176.0">Small</text>
            <text x="18.0" y="376.0">Medium</text>
            <text x="18.0" y="576.0">Large</text>
        </g>
        <g font-size="9">
            <text x="250.0" y="30.0">Ultralight</text>
            <text x="450.0" y="30.0">Regular</text>
            <text x="650.0" y="30.0">Black</text>
            <text id="template-version" fill="#505050" text-anchor="end" x="785.0" y="575.0">Template v.3.0</text>
            <a href="https://wangchujiang.com/#/app">
                <text fill="#505050" text-anchor="end" x="785.0" y="590.0">https://wangchujiang.com/#/app</text>
            </a>
        </g>
    </g>
    <g id="Guides" stroke="rgb(39, 170, 225)" stroke-width="0.5">
        <path id="Capline-S" d="M18,76 l800,0" />
        <path id="H-reference" d="M85,145.755 L87.685,145.755 L113.369,79.287 L114.052,79.287 L114.052,76 L112.148,76 L85,145.755 Z M95.693,121.536 L130.996,121.536 L130.263,119.313 L96.474,119.313 L95.693,121.536 Z M139.15,145.755 L141.787,145.755 L114.638,76 L113.466,76 L113.466,79.287 L139.15,145.755 Z" stroke="none" />
        <path id="Baseline-S" d="M18,146 l800,0" />
        <path id="left-margin-Ultralight-S" d="M220.814,56 l0,110" />
        <path id="right-margin-Ultralight-S" d="M309.186,56 l0,110" />
        <path id="left-margin-Regular-S" d="M420.814,56 l0,110" />
        <path id="right-margin-Regular-S" d="M509.186,56 l0,110" />
        <path id="left-margin-Black-S" d="M620.814,56 l0,110" />
        <path id="right-margin-Black-S" d="M709.186,56 l0,110" />
        <path id="Capline-M" d="M18,276 l800,0" />
        <path id="Baseline-M" d="M18,346 l800,0" />
        <path id="Capline-L" d="M18,476 l800,0" />
        <path id="Baseline-L" d="M18,546 l800,0" />
    </g>
    <g id="Symbols">
        <g id="Ultralight-S">
            <path d="M256.86,76 C254.655,76 249.994,78.883 248.018,82.512 L238.953,82.512 C237.156,82.512 235.698,83.97 235.698,85.767 C235.698,91.849 238.666,96.367 240.947,98.943 C237.387,103.153 230.814,112.191 230.814,121.581 C230.814,127.679 232.668,131.658 234.286,134.001 C232.396,136.324 230.814,139.291 230.814,142.744 C230.814,144.541 232.273,146 234.07,146 L295.93,146 C297.727,146 299.186,144.541 299.186,142.744 C299.186,139.18 298.108,135.986 296.21,133.39 C297.452,130.856 299.186,126.221 299.186,119.953 C299.186,110.404 293.293,102.126 290.242,98.476 C291.884,95.732 294.302,90.857 294.302,85.767 C294.302,83.97 292.844,82.512 291.047,82.512 L284.672,82.512 C281.868,79.492 275.975,77.628 274.767,77.628 C273.17,77.628 270.426,80.884 266.628,80.884 C262.83,80.884 259.7,76 256.86,76 Z M242.67,89.023 L287.336,89.023 C286.625,91.746 285.282,94.129 284.401,95.535 L246.705,95.535 C245.619,94.495 243.588,92.235 242.67,89.023 Z M246.88,102.047 L284.732,102.047 C286.959,104.596 292.674,111.917 292.674,119.953 C292.674,123.801 291.852,126.841 291.066,128.894 C288.302,127.348 284.977,126.465 281.279,126.465 L261.744,126.465 C259.947,126.465 258.488,127.924 258.488,129.721 C258.488,131.518 259.947,132.977 261.744,132.977 L281.279,132.977 C285.785,132.977 290.573,135.038 292.143,139.488 L238.359,139.488 C239.857,137.001 242.596,134.925 243.888,134.14 C245.428,133.214 245.926,131.213 245.001,129.673 C244.076,128.13 242.075,127.631 240.534,128.557 C240.34,128.673 239.801,129.024 239.144,129.492 C238.261,127.917 237.326,125.383 237.326,121.581 C237.326,113.429 244.357,104.86 246.88,102.047 Z" />
        </g>
        <g id="Regular-S">
            <path d="M456.86,76 C454.655,76 449.994,78.883 448.018,82.512 L438.953,82.512 C437.156,82.512 435.698,83.97 435.698,85.767 C435.698,91.849 438.666,96.367 440.947,98.943 C437.387,103.153 430.814,112.191 430.814,121.581 C430.814,127.679 432.668,131.658 434.286,134.001 C432.396,136.324 430.814,139.291 430.814,142.744 C430.814,144.541 432.273,146 434.07,146 L495.93,146 C497.727,146 499.186,144.541 499.186,142.744 C499.186,139.18 498.108,135.986 496.21,133.39 C497.452,130.856 499.186,126.221 499.186,119.953 C499.186,110.404 493.293,102.126 490.242,98.476 C491.884,95.732 494.302,90.857 494.302,85.767 C494.302,83.97 492.844,82.512 491.047,82.512 L484.672,82.512 C481.868,79.492 475.975,77.628 474.767,77.628 C473.17,77.628 470.426,80.884 466.628,80.884 C462.83,80.884 459.7,76 456.86,76 Z M442.67,89.023 L487.336,89.023 C486.625,91.746 485.282,94.129 484.401,95.535 L446.705,95.535 C445.619,94.495 443.588,92.235 442.67,89.023 Z M446.88,102.047 L484.732,102.047 C486.959,104.596 492.674,111.917 492.674,119.953 C492.674,123.801 491.852,126.841 491.066,128.894 C488.302,127.348 484.977,126.465 481.279,126.465 L461.744,126.465 C459.947,126.465 458.488,127.924 458.488,129.721 C458.488,131.518 459.947,132.977 461.744,132.977 L481.279,132.977 C485.785,132.977 490.573,135.038 492.143,139.488 L438.359,139.488 C439.857,137.001 442.596,134.925 443.888,134.14 C445.428,133.214 445.926,131.213 445.001,129.673 C444.076,128.13 442.075,127.631 440.534,128.557 C440.34,128.673 439.801,129.024 439.144,129.492 C438.261,127.917 437.326,125.383 437.326,121.581 C437.326,113.429 444.357,104.86 446.88,102.047 Z" />
        </g>
        <g id="Black-S">
            <path d="M656.86,76 C654.655,76 649.994,78.883 648.018,82.512 L638.953,82.512 C637.156,82.512 635.698,83.97 635.698,85.767 C635.698,91.849 638.666,96.367 640.947,98.943 C637.387,103.153 630.814,112.191 630.814,121.581 C630.814,127.679 632.668,131.658 634.286,134.001 C632.396,136.324 630.814,139.291 630.814,142.744 C630.814,144.541 632.273,146 634.07,146 L695.93,146 C697.727,146 699.186,144.541 699.186,142.744 C699.186,139.18 698.108,135.986 696.21,133.39 C697.452,130.856 699.186,126.221 699.186,119.953 C699.186,110.404 693.293,102.126 690.242,98.476 C691.884,95.732 694.302,90.857 694.302,85.767 C694.302,83.97 692.844,82.512 691.047,82.512 L684.672,82.512 C681.868,79.492 675.975,77.628 674.767,77.628 C673.17,77.628 670.426,80.884 666.628,80.884 C662.83,80.884 659.7,76 656.86,76 Z M642.67,89.023 L687.336,89.023 C686.625,91.746 685.282,94.129 684.401,95.535 L646.705,95.535 C645.619,94.495 643.588,92.235 642.67,89.023 Z M646.88,102.047 L684.732,102.047 C686.959,104.596 692.674,111.917 692.674,119.953 C692.674,123.801 691.852,126.841 691.066,128.894 C688.302,127.348 684.977,126.465 681.279,126.465 L661.744,126.465 C659.947,126.465 658.488,127.924 658.488,129.721 C658.488,131.518 659.947,132.977 661.744,132.977 L681.279,132.977 C685.785,132.977 690.573,135.038 692.143,139.488 L638.359,139.488 C639.857,137.001 642.596,134.925 643.888,134.14 C645.428,133.214 645.926,131.213 645.001,129.673 C644.076,128.13 642.075,127.631 640.534,128.557 C640.34,128.673 639.801,129.024 639.144,129.492 C638.261,127.917 637.326,125.383 637.326,121.581 C637.326,113.429 644.357,104.86 646.88,102.047 Z" />
        </g>
    </g>
</svg>