<?xml version="1.0" encoding="UTF-8"?>
<svg height="600" width="800" xmlns="http://www.w3.org/2000/svg" xmlns:xlink="http://www.w3.org/1999/xlink">
    <g id="Notes" font-family="'LucidaGrande', 'Lucida Grande', sans-serif" font-size="13">
        <rect fill="white" height="600.0" width="800.0" x="0.0" y="0.0" />
        <g font-size="13">
            <text x="18.0" y="176.0">Small</text>
            <text x="18.0" y="376.0">Medium</text>
            <text x="18.0" y="576.0">Large</text>
        </g>
        <g font-size="9">
            <text x="250.0" y="30.0">Ultralight</text>
            <text x="450.0" y="30.0">Regular</text>
            <text x="650.0" y="30.0">Black</text>
            <text id="template-version" fill="#505050" text-anchor="end" x="785.0" y="575.0">Template v.3.0</text>
            <a href="https://wangchujiang.com/#/app">
                <text fill="#505050" text-anchor="end" x="785.0" y="590.0">https://wangchujiang.com/#/app</text>
            </a>
        </g>
    </g>
    <g id="Guides" stroke="rgb(39, 170, 225)" stroke-width="0.5">
        <path id="Capline-S" d="M18,76 l800,0" />
        <path id="H-reference" d="M85,145.755 L87.685,145.755 L113.369,79.287 L114.052,79.287 L114.052,76 L112.148,76 L85,145.755 Z M95.693,121.536 L130.996,121.536 L130.263,119.313 L96.474,119.313 L95.693,121.536 Z M139.15,145.755 L141.787,145.755 L114.638,76 L113.466,76 L113.466,79.287 L139.15,145.755 Z" stroke="none" />
        <path id="Baseline-S" d="M18,146 l800,0" />
        <path id="left-margin-Ultralight-S" d="M220,56 l0,110" />
        <path id="right-margin-Ultralight-S" d="M310,56 l0,110" />
        <path id="left-margin-Regular-S" d="M420,56 l0,110" />
        <path id="right-margin-Regular-S" d="M510,56 l0,110" />
        <path id="left-margin-Black-S" d="M620,56 l0,110" />
        <path id="right-margin-Black-S" d="M710,56 l0,110" />
        <path id="Capline-M" d="M18,276 l800,0" />
        <path id="Baseline-M" d="M18,346 l800,0" />
        <path id="Capline-L" d="M18,476 l800,0" />
        <path id="Baseline-L" d="M18,546 l800,0" />
    </g>
    <g id="Symbols">
        <g id="Ultralight-S">
            <path d="M288.14,76.784 C303.953,92.598 303.953,118.328 288.14,134.14 C280.235,142.047 269.848,146 259.462,146 C249.077,146 238.69,142.047 230.784,134.14 C229.739,133.094 229.739,131.399 230.784,130.353 L284.353,76.784 C285.399,75.739 287.094,75.739 288.14,76.784 Z M271.275,117.271 C277.018,111.527 277.417,102.441 272.489,96.224 L250.227,118.485 C256.446,123.413 265.531,123.014 271.275,117.271 Z M284.353,130.353 C297.439,117.266 298.047,96.352 286.174,82.538 L276.291,92.421 C283.297,100.746 282.897,113.226 275.063,121.06 C270.927,125.195 265.494,127.262 260.064,127.262 C255.206,127.262 250.354,125.596 246.425,122.288 L236.538,132.175 C250.352,144.047 271.266,143.439 284.353,130.353 Z" />
        </g>
        <g id="Regular-S">
            <path d="M488.14,76.784 C503.953,92.598 503.953,118.328 488.14,134.14 C480.235,142.047 469.848,146 459.462,146 C449.077,146 438.69,142.047 430.784,134.14 C429.738,133.094 429.738,131.399 430.784,130.353 L484.353,76.784 C485.399,75.739 487.094,75.739 488.14,76.784 Z M471.275,117.271 C477.018,111.527 477.417,102.441 472.489,96.224 L450.227,118.485 C456.446,123.413 465.531,123.014 471.275,117.271 Z M484.353,130.353 C497.439,117.266 498.047,96.352 486.174,82.538 L476.291,92.421 C483.297,100.746 482.897,113.226 475.063,121.06 C470.927,125.195 465.494,127.262 460.064,127.262 C455.206,127.262 450.354,125.596 446.425,122.288 L436.538,132.175 C450.352,144.047 471.266,143.439 484.353,130.353 Z" />
        </g>
        <g id="Black-S">
            <path d="M688.14,76.784 C703.953,92.598 703.953,118.328 688.14,134.14 C680.235,142.047 669.848,146 659.462,146 C649.077,146 638.69,142.047 630.784,134.14 C629.739,133.094 629.739,131.399 630.784,130.353 L684.353,76.784 C685.399,75.739 687.094,75.739 688.14,76.784 Z M671.275,117.271 C677.018,111.527 677.417,102.441 672.489,96.224 L650.227,118.485 C656.446,123.413 665.531,123.014 671.275,117.271 Z M684.353,130.353 C697.439,117.266 698.047,96.352 686.174,82.538 L676.291,92.421 C683.297,100.746 682.897,113.226 675.063,121.06 C670.927,125.195 665.494,127.262 660.063,127.262 C655.206,127.262 650.354,125.596 646.425,122.288 L636.538,132.175 C650.352,144.047 671.266,143.439 684.353,130.353 Z" />
        </g>
    </g>
</svg>