<?xml version="1.0" encoding="UTF-8"?>
<svg height="600" width="800" xmlns="http://www.w3.org/2000/svg" xmlns:xlink="http://www.w3.org/1999/xlink">
    <g id="Notes" font-family="'LucidaGrande', 'Lucida Grande', sans-serif" font-size="13">
        <rect fill="white" height="600.0" width="800.0" x="0.0" y="0.0" />
        <g font-size="13">
            <text x="18.0" y="176.0">Small</text>
            <text x="18.0" y="376.0">Medium</text>
            <text x="18.0" y="576.0">Large</text>
        </g>
        <g font-size="9">
            <text x="250.0" y="30.0">Ultralight</text>
            <text x="450.0" y="30.0">Regular</text>
            <text x="650.0" y="30.0">Black</text>
            <text id="template-version" fill="#505050" text-anchor="end" x="785.0" y="575.0">Template v.3.0</text>
            <a href="https://wangchujiang.com/#/app">
                <text fill="#505050" text-anchor="end" x="785.0" y="590.0">https://wangchujiang.com/#/app</text>
            </a>
        </g>
    </g>
    <g id="Guides" stroke="rgb(39, 170, 225)" stroke-width="0.5">
        <path id="Capline-S" d="M18,76 l800,0" />
        <path id="H-reference" d="M85,145.755 L87.685,145.755 L113.369,79.287 L114.052,79.287 L114.052,76 L112.148,76 L85,145.755 Z M95.693,121.536 L130.996,121.536 L130.263,119.313 L96.474,119.313 L95.693,121.536 Z M139.15,145.755 L141.787,145.755 L114.638,76 L113.466,76 L113.466,79.287 L139.15,145.755 Z" stroke="none" />
        <path id="Baseline-S" d="M18,146 l800,0" />
        <path id="left-margin-Ultralight-S" d="M213.913,56 l0,110" />
        <path id="right-margin-Ultralight-S" d="M316.087,56 l0,110" />
        <path id="left-margin-Regular-S" d="M413.913,56 l0,110" />
        <path id="right-margin-Regular-S" d="M516.087,56 l0,110" />
        <path id="left-margin-Black-S" d="M613.913,56 l0,110" />
        <path id="right-margin-Black-S" d="M716.087,56 l0,110" />
        <path id="Capline-M" d="M18,276 l800,0" />
        <path id="Baseline-M" d="M18,346 l800,0" />
        <path id="Capline-L" d="M18,476 l800,0" />
        <path id="Baseline-L" d="M18,546 l800,0" />
    </g>
    <g id="Symbols">
        <g id="Ultralight-S">
            <path d="M265,76 C254.915,76 246.739,83.495 246.739,92.739 C246.739,95.493 247.478,98.356 248.766,101.025 C245.785,102.306 243.696,105.267 243.696,108.717 C243.696,111.276 244.847,113.563 246.656,115.099 C246.361,119.178 245.089,126.217 239.662,126.217 C236.537,126.217 234.565,123.211 234.565,120.404 C234.565,115.756 239.13,113.337 239.13,106.435 C239.13,99.595 231.791,96.546 227.456,95.824 C225.803,95.549 224.242,96.665 223.961,98.318 C223.681,99.972 224.793,101.542 226.445,101.828 C226.512,101.839 233.043,103.117 233.043,106.435 C233.043,109.602 226.957,114.357 226.957,121.652 C226.957,127.703 232.5,133.826 240.492,133.826 C247.448,133.826 251.245,129.355 253.334,124.696 L255.177,124.696 C253.562,132.056 248.89,139.913 239.13,139.913 C232.984,139.913 229.27,136.395 229.094,136.225 C227.905,135.051 225.99,135.056 224.805,136.239 C223.616,137.428 223.616,139.355 224.805,140.543 C225.027,140.767 231.884,146 240.652,146 C252.592,146 261.009,137.537 263.012,124.696 L266.988,124.696 C268.991,137.537 277.408,146 289.348,146 C298.116,146 304.973,140.767 305.195,140.543 C306.384,139.355 306.384,137.428 305.195,136.239 C304.01,135.056 302.095,135.051 300.906,136.225 C300.73,136.395 297.016,139.913 290.87,139.913 C281.11,139.913 276.438,132.056 274.823,124.696 L276.927,124.696 C279.09,129.355 282.874,133.826 289.508,133.826 C297.5,133.826 303.043,127.703 303.043,121.652 C303.043,114.357 296.957,109.602 296.957,106.435 C296.957,103.117 302.715,101.965 303.555,101.825 C305.209,101.551 306.321,99.969 306.039,98.315 C305.758,96.662 304.197,95.549 302.544,95.824 C298.209,96.547 290.87,99.595 290.87,106.435 C290.87,113.337 295.435,115.758 295.435,120.404 C295.435,123.211 293.463,126.217 290.338,126.217 C285.828,126.217 284.148,118.952 283.555,114.905 C285.24,113.374 286.304,111.173 286.304,108.717 C286.304,105.267 284.215,102.306 281.234,101.025 C282.522,98.356 283.261,95.493 283.261,92.739 C283.261,83.495 275.085,76 265,76 Z M254.348,104.913 C256.028,104.913 257.391,106.616 257.391,108.717 C257.391,110.819 256.028,112.522 254.348,112.522 C252.668,112.522 251.304,110.819 251.304,108.717 C251.304,106.616 252.668,104.913 254.348,104.913 Z M275.652,104.913 C277.332,104.913 278.696,106.616 278.696,108.717 C278.696,110.819 277.332,112.522 275.652,112.522 C273.972,112.522 272.609,110.819 272.609,108.717 C272.609,106.616 273.972,104.913 275.652,104.913 Z" />
        </g>
        <g id="Regular-S">
            <path d="M465,76 C454.915,76 446.739,83.495 446.739,92.739 C446.739,95.493 447.478,98.356 448.766,101.025 C445.785,102.306 443.696,105.267 443.696,108.717 C443.696,111.276 444.847,113.563 446.656,115.099 C446.361,119.178 445.089,126.217 439.662,126.217 C436.537,126.217 434.565,123.211 434.565,120.404 C434.565,115.756 439.13,113.337 439.13,106.435 C439.13,99.595 431.791,96.546 427.456,95.824 C425.803,95.549 424.242,96.665 423.961,98.318 C423.681,99.972 424.793,101.542 426.445,101.828 C426.512,101.839 433.043,103.117 433.043,106.435 C433.043,109.602 426.957,114.357 426.957,121.652 C426.957,127.703 432.5,133.826 440.492,133.826 C447.448,133.826 451.245,129.355 453.334,124.696 L455.177,124.696 C453.562,132.056 448.89,139.913 439.13,139.913 C432.984,139.913 429.27,136.395 429.094,136.225 C427.905,135.051 425.99,135.056 424.805,136.239 C423.616,137.428 423.616,139.355 424.805,140.543 C425.027,140.767 431.884,146 440.652,146 C452.592,146 461.009,137.537 463.012,124.696 L466.988,124.696 C468.991,137.537 477.408,146 489.348,146 C498.116,146 504.973,140.767 505.195,140.543 C506.384,139.355 506.384,137.428 505.195,136.239 C504.01,135.056 502.095,135.051 500.906,136.225 C500.73,136.395 497.016,139.913 490.87,139.913 C481.11,139.913 476.438,132.056 474.823,124.696 L476.927,124.696 C479.09,129.355 482.874,133.826 489.508,133.826 C497.5,133.826 503.043,127.703 503.043,121.652 C503.043,114.357 496.957,109.602 496.957,106.435 C496.957,103.117 502.715,101.965 503.555,101.825 C505.209,101.551 506.321,99.969 506.039,98.315 C505.758,96.662 504.197,95.549 502.544,95.824 C498.209,96.547 490.87,99.595 490.87,106.435 C490.87,113.337 495.435,115.758 495.435,120.404 C495.435,123.211 493.463,126.217 490.338,126.217 C485.828,126.217 484.148,118.952 483.555,114.905 C485.24,113.374 486.304,111.173 486.304,108.717 C486.304,105.267 484.215,102.306 481.234,101.025 C482.522,98.356 483.261,95.493 483.261,92.739 C483.261,83.495 475.085,76 465,76 Z M454.348,104.913 C456.028,104.913 457.391,106.616 457.391,108.717 C457.391,110.819 456.028,112.522 454.348,112.522 C452.668,112.522 451.304,110.819 451.304,108.717 C451.304,106.616 452.668,104.913 454.348,104.913 Z M475.652,104.913 C477.332,104.913 478.696,106.616 478.696,108.717 C478.696,110.819 477.332,112.522 475.652,112.522 C473.972,112.522 472.609,110.819 472.609,108.717 C472.609,106.616 473.972,104.913 475.652,104.913 Z" />
        </g>
        <g id="Black-S">
            <path d="M665,76 C654.915,76 646.739,83.495 646.739,92.739 C646.739,95.493 647.477,98.356 648.766,101.025 C645.785,102.306 643.696,105.267 643.696,108.717 C643.696,111.276 644.847,113.563 646.656,115.099 C646.361,119.178 645.089,126.217 639.662,126.217 C636.537,126.217 634.565,123.211 634.565,120.404 C634.565,115.756 639.13,113.337 639.13,106.435 C639.13,99.595 631.791,96.546 627.456,95.824 C625.803,95.549 624.242,96.665 623.961,98.318 C623.681,99.972 624.793,101.542 626.445,101.828 C626.512,101.839 633.043,103.117 633.043,106.435 C633.043,109.602 626.956,114.357 626.956,121.652 C626.956,127.703 632.499,133.826 640.492,133.826 C647.448,133.826 651.245,129.355 653.334,124.696 L655.177,124.696 C653.562,132.056 648.89,139.913 639.13,139.913 C632.984,139.913 629.27,136.395 629.093,136.225 C627.905,135.051 625.99,135.056 624.805,136.239 C623.616,137.428 623.616,139.355 624.805,140.543 C625.027,140.767 631.884,146 640.652,146 C652.592,146 661.009,137.537 663.012,124.696 L666.988,124.696 C668.991,137.537 677.408,146 689.348,146 C698.116,146 704.973,140.767 705.195,140.543 C706.384,139.355 706.384,137.428 705.195,136.239 C704.01,135.056 702.095,135.051 700.906,136.225 C700.73,136.395 697.016,139.913 690.87,139.913 C681.11,139.913 676.438,132.056 674.823,124.696 L676.927,124.696 C679.09,129.355 682.874,133.826 689.508,133.826 C697.5,133.826 703.043,127.703 703.043,121.652 C703.043,114.357 696.956,109.602 696.956,106.435 C696.956,103.117 702.715,101.965 703.555,101.825 C705.209,101.551 706.321,99.969 706.039,98.315 C705.758,96.662 704.197,95.549 702.544,95.824 C698.209,96.547 690.87,99.595 690.87,106.435 C690.87,113.337 695.435,115.758 695.435,120.404 C695.435,123.211 693.463,126.217 690.338,126.217 C685.828,126.217 684.148,118.952 683.555,114.905 C685.24,113.374 686.304,111.173 686.304,108.717 C686.304,105.267 684.215,102.306 681.234,101.025 C682.522,98.356 683.261,95.493 683.261,92.739 C683.261,83.495 675.085,76 665,76 Z M654.348,104.913 C656.028,104.913 657.391,106.616 657.391,108.717 C657.391,110.819 656.028,112.522 654.348,112.522 C652.668,112.522 651.304,110.819 651.304,108.717 C651.304,106.616 652.668,104.913 654.348,104.913 Z M675.652,104.913 C677.332,104.913 678.696,106.616 678.696,108.717 C678.696,110.819 677.332,112.522 675.652,112.522 C673.972,112.522 672.609,110.819 672.609,108.717 C672.609,106.616 673.972,104.913 675.652,104.913 Z" />
        </g>
    </g>
</svg>