<?xml version="1.0" encoding="UTF-8"?>
<svg height="600" width="800" xmlns="http://www.w3.org/2000/svg" xmlns:xlink="http://www.w3.org/1999/xlink">
    <g id="Notes" font-family="'LucidaGrande', 'Lucida Grande', sans-serif" font-size="13">
        <rect fill="white" height="600.0" width="800.0" x="0.0" y="0.0" />
        <g font-size="13">
            <text x="18.0" y="176.0">Small</text>
            <text x="18.0" y="376.0">Medium</text>
            <text x="18.0" y="576.0">Large</text>
        </g>
        <g font-size="9">
            <text x="250.0" y="30.0">Ultralight</text>
            <text x="450.0" y="30.0">Regular</text>
            <text x="650.0" y="30.0">Black</text>
            <text id="template-version" fill="#505050" text-anchor="end" x="785.0" y="575.0">Template v.3.0</text>
            <a href="https://wangchujiang.com/#/app">
                <text fill="#505050" text-anchor="end" x="785.0" y="590.0">https://wangchujiang.com/#/app</text>
            </a>
        </g>
    </g>
    <g id="Guides" stroke="rgb(39, 170, 225)" stroke-width="0.5">
        <path id="Capline-S" d="M18,76 l800,0" />
        <path id="H-reference" d="M85,145.755 L87.685,145.755 L113.369,79.287 L114.052,79.287 L114.052,76 L112.148,76 L85,145.755 Z M95.693,121.536 L130.996,121.536 L130.263,119.313 L96.474,119.313 L95.693,121.536 Z M139.15,145.755 L141.787,145.755 L114.638,76 L113.466,76 L113.466,79.287 L139.15,145.755 Z" stroke="none" />
        <path id="Baseline-S" d="M18,146 l800,0" />
        <path id="left-margin-Ultralight-S" d="M221,56 l0,110" />
        <path id="right-margin-Ultralight-S" d="M309,56 l0,110" />
        <path id="left-margin-Regular-S" d="M421,56 l0,110" />
        <path id="right-margin-Regular-S" d="M509,56 l0,110" />
        <path id="left-margin-Black-S" d="M621,56 l0,110" />
        <path id="right-margin-Black-S" d="M709,56 l0,110" />
        <path id="Capline-M" d="M18,276 l800,0" />
        <path id="Baseline-M" d="M18,346 l800,0" />
        <path id="Capline-L" d="M18,476 l800,0" />
        <path id="Baseline-L" d="M18,546 l800,0" />
    </g>
    <g id="Symbols">
        <g id="Ultralight-S">
            <path d="M253.8,76 C252.254,76 251,77.254 251,78.8 L251,83 L242.6,83 C241.054,83 239.8,84.254 239.8,85.8 L239.8,102.649 C238.339,102.767 236.971,103.423 236.005,104.541 C234.939,105.775 234.468,107.408 234.706,109.02 L239.122,138.833 C239.73,142.92 243.302,146 247.432,146 L282.568,146 C286.698,146 290.271,142.92 290.878,138.833 L295.294,109.02 C295.532,107.408 295.059,105.776 293.995,104.541 C293.03,103.421 291.661,102.764 290.2,102.646 L290.2,91.4 C290.2,89.854 288.946,88.6 287.4,88.6 L279,88.6 L279,85.8 C279,84.254 277.746,83 276.2,83 L267.8,83 L267.8,78.8 C267.8,77.254 266.546,76 265,76 L253.8,76 Z M256.6,81.6 L262.2,81.6 L262.2,113.311 C258.942,112.154 256.6,109.05 256.6,105.4 L256.6,85.8 L256.6,81.6 Z M245.4,88.6 L251,88.6 L251,102.6 L245.4,102.6 L245.4,88.6 Z M267.8,88.6 L273.4,88.6 L273.4,91.4 L273.4,105.4 C273.4,109.05 271.058,112.154 267.8,113.311 L267.8,88.6 Z M279,94.2 L284.6,94.2 L284.6,102.6 L279,102.6 L279,94.2 Z M241.867,108.2 L251.282,108.2 C252.582,114.583 258.239,119.4 265,119.4 C271.761,119.4 277.418,114.583 278.718,108.2 L288.133,108.2 C288.987,108.2 289.641,108.958 289.516,109.805 L285.338,138.01 C285.134,139.384 283.956,140.4 282.568,140.4 L247.432,140.4 C246.044,140.4 244.866,139.384 244.662,138.01 L240.484,109.805 C240.359,108.958 241.013,108.2 241.867,108.2 Z" />
        </g>
        <g id="Regular-S">
            <path d="M453.8,76 C452.254,76 451,77.254 451,78.8 L451,83 L442.6,83 C441.054,83 439.8,84.254 439.8,85.8 L439.8,102.649 C438.339,102.767 436.971,103.423 436.005,104.541 C434.939,105.775 434.468,107.408 434.706,109.02 L439.122,138.833 C439.73,142.92 443.302,146 447.432,146 L482.568,146 C486.698,146 490.271,142.92 490.878,138.833 L495.294,109.02 C495.532,107.408 495.059,105.776 493.995,104.541 C493.03,103.421 491.661,102.764 490.2,102.646 L490.2,91.4 C490.2,89.854 488.946,88.6 487.4,88.6 L479,88.6 L479,85.8 C479,84.254 477.746,83 476.2,83 L467.8,83 L467.8,78.8 C467.8,77.254 466.546,76 465,76 L453.8,76 Z M456.6,81.6 L462.2,81.6 L462.2,113.311 C458.942,112.154 456.6,109.05 456.6,105.4 L456.6,85.8 L456.6,81.6 Z M445.4,88.6 L451,88.6 L451,102.6 L445.4,102.6 L445.4,88.6 Z M467.8,88.6 L473.4,88.6 L473.4,91.4 L473.4,105.4 C473.4,109.05 471.058,112.154 467.8,113.311 L467.8,88.6 Z M479,94.2 L484.6,94.2 L484.6,102.6 L479,102.6 L479,94.2 Z M441.867,108.2 L451.282,108.2 C452.582,114.583 458.239,119.4 465,119.4 C471.761,119.4 477.418,114.583 478.718,108.2 L488.133,108.2 C488.987,108.2 489.641,108.958 489.516,109.805 L485.338,138.01 C485.134,139.384 483.956,140.4 482.568,140.4 L447.432,140.4 C446.044,140.4 444.866,139.384 444.662,138.01 L440.484,109.805 C440.359,108.958 441.013,108.2 441.867,108.2 Z" />
        </g>
        <g id="Black-S">
            <path d="M653.8,76 C652.254,76 651,77.254 651,78.8 L651,83 L642.6,83 C641.054,83 639.8,84.254 639.8,85.8 L639.8,102.649 C638.339,102.767 636.971,103.423 636.005,104.541 C634.939,105.775 634.468,107.408 634.706,109.02 L639.122,138.833 C639.73,142.92 643.302,146 647.432,146 L682.568,146 C686.698,146 690.271,142.92 690.878,138.833 L695.294,109.02 C695.532,107.408 695.059,105.776 693.995,104.541 C693.03,103.421 691.661,102.764 690.2,102.646 L690.2,91.4 C690.2,89.854 688.946,88.6 687.4,88.6 L679,88.6 L679,85.8 C679,84.254 677.746,83 676.2,83 L667.8,83 L667.8,78.8 C667.8,77.254 666.546,76 665,76 L653.8,76 Z M656.6,81.6 L662.2,81.6 L662.2,113.311 C658.942,112.154 656.6,109.05 656.6,105.4 L656.6,85.8 L656.6,81.6 Z M645.4,88.6 L651,88.6 L651,102.6 L645.4,102.6 L645.4,88.6 Z M667.8,88.6 L673.4,88.6 L673.4,91.4 L673.4,105.4 C673.4,109.05 671.058,112.154 667.8,113.311 L667.8,88.6 Z M679,94.2 L684.6,94.2 L684.6,102.6 L679,102.6 L679,94.2 Z M641.867,108.2 L651.282,108.2 C652.582,114.583 658.24,119.4 665,119.4 C671.761,119.4 677.418,114.583 678.718,108.2 L688.133,108.2 C688.987,108.2 689.641,108.958 689.516,109.805 L685.338,138.01 C685.134,139.384 683.956,140.4 682.568,140.4 L647.432,140.4 C646.044,140.4 644.866,139.384 644.662,138.01 L640.484,109.805 C640.359,108.958 641.013,108.2 641.867,108.2 Z" />
        </g>
    </g>
</svg>