<?xml version="1.0" encoding="UTF-8"?>
<svg height="600" width="800" xmlns="http://www.w3.org/2000/svg" xmlns:xlink="http://www.w3.org/1999/xlink">
    <g id="Notes" font-family="'LucidaGrande', 'Lucida Grande', sans-serif" font-size="13">
        <rect fill="white" height="600.0" width="800.0" x="0.0" y="0.0" />
        <g font-size="13">
            <text x="18.0" y="176.0">Small</text>
            <text x="18.0" y="376.0">Medium</text>
            <text x="18.0" y="576.0">Large</text>
        </g>
        <g font-size="9">
            <text x="250.0" y="30.0">Ultralight</text>
            <text x="450.0" y="30.0">Regular</text>
            <text x="650.0" y="30.0">Black</text>
            <text id="template-version" fill="#505050" text-anchor="end" x="785.0" y="575.0">Template v.3.0</text>
            <a href="https://wangchujiang.com/#/app">
                <text fill="#505050" text-anchor="end" x="785.0" y="590.0">https://wangchujiang.com/#/app</text>
            </a>
        </g>
    </g>
    <g id="Guides" stroke="rgb(39, 170, 225)" stroke-width="0.5">
        <path id="Capline-S" d="M18,76 l800,0" />
        <path id="H-reference" d="M85,145.755 L87.685,145.755 L113.369,79.287 L114.052,79.287 L114.052,76 L112.148,76 L85,145.755 Z M95.693,121.536 L130.996,121.536 L130.263,119.313 L96.474,119.313 L95.693,121.536 Z M139.15,145.755 L141.787,145.755 L114.638,76 L113.466,76 L113.466,79.287 L139.15,145.755 Z" stroke="none" />
        <path id="Baseline-S" d="M18,146 l800,0" />
        <path id="left-margin-Ultralight-S" d="M221,56 l0,110" />
        <path id="right-margin-Ultralight-S" d="M309,56 l0,110" />
        <path id="left-margin-Regular-S" d="M421,56 l0,110" />
        <path id="right-margin-Regular-S" d="M509,56 l0,110" />
        <path id="left-margin-Black-S" d="M621,56 l0,110" />
        <path id="right-margin-Black-S" d="M709,56 l0,110" />
        <path id="Capline-M" d="M18,276 l800,0" />
        <path id="Baseline-M" d="M18,346 l800,0" />
        <path id="Capline-L" d="M18,476 l800,0" />
        <path id="Baseline-L" d="M18,546 l800,0" />
    </g>
    <g id="Symbols">
        <g id="Ultralight-S">
            <path d="M287.464,98.171 C290.411,101.905 291.468,106.701 290.363,111.331 L284.675,135.145 C283.358,140.655 278.482,144.503 272.818,144.503 L269.376,144.503 C268.005,145.446 266.348,146 264.562,146 C262.776,146 261.119,145.446 259.748,144.503 L256.035,144.503 C250.193,144.503 245.156,140.338 244.062,134.6 L239.485,110.639 C238.618,106.1 239.812,101.456 242.756,97.896 C245.571,94.492 249.664,92.497 254.055,92.327 C256.269,89.841 259.313,88.118 262.753,87.592 C263.822,81.03 269.515,76 276.375,76 C277.707,76 278.789,77.081 278.789,78.414 C278.789,79.746 277.707,80.828 276.375,80.828 C272.16,80.828 268.625,83.745 267.655,87.663 C270.903,88.269 273.768,89.952 275.883,92.323 C280.43,92.481 284.629,94.579 287.464,98.171 Z M285.668,110.209 C286.428,107.027 285.701,103.728 283.675,101.161 C282.428,99.58 280.795,98.418 278.961,97.756 C279.378,99.111 279.603,100.548 279.603,102.039 C279.603,103.371 278.522,104.453 277.19,104.453 C275.857,104.453 274.776,103.371 274.776,102.039 C274.776,96.632 270.377,92.233 264.97,92.233 C259.563,92.233 255.164,96.632 255.164,102.039 C255.164,103.371 254.082,104.453 252.75,104.453 C251.418,104.453 250.336,103.371 250.336,102.039 C250.336,100.562 250.561,99.136 250.97,97.791 C249.24,98.431 247.685,99.51 246.475,100.973 C244.451,103.421 243.632,106.614 244.228,109.734 L248.805,133.696 C249.466,137.162 252.506,139.677 256.035,139.677 L256.337,139.677 C256.149,138.973 256.039,138.24 256.039,137.478 C256.039,136.146 257.12,135.064 258.453,135.064 C259.785,135.064 260.866,136.146 260.866,137.478 C260.866,139.515 262.525,141.174 264.562,141.174 C266.599,141.174 268.257,139.515 268.257,137.478 C268.257,136.146 269.339,135.064 270.671,135.064 C272.004,135.064 273.085,136.146 273.085,137.478 C273.085,138.24 272.975,138.975 272.787,139.677 L272.818,139.677 C276.24,139.677 279.183,137.353 279.98,134.025 L285.668,110.209 Z" />
        </g>
        <g id="Regular-S">
            <path d="M487.464,98.171 C490.411,101.905 491.468,106.701 490.363,111.331 L484.675,135.145 C483.358,140.655 478.482,144.503 472.818,144.503 L469.376,144.503 C468.005,145.446 466.348,146 464.562,146 C462.776,146 461.119,145.446 459.748,144.503 L456.035,144.503 C450.193,144.503 445.156,140.338 444.062,134.6 L439.485,110.639 C438.618,106.1 439.812,101.456 442.756,97.896 C445.571,94.492 449.664,92.497 454.055,92.327 C456.269,89.841 459.313,88.118 462.753,87.592 C463.822,81.03 469.515,76 476.375,76 C477.707,76 478.789,77.081 478.789,78.414 C478.789,79.746 477.707,80.828 476.375,80.828 C472.16,80.828 468.625,83.745 467.655,87.663 C470.903,88.269 473.768,89.952 475.883,92.323 C480.43,92.481 484.629,94.579 487.464,98.171 Z M485.668,110.209 C486.428,107.027 485.701,103.728 483.675,101.161 C482.428,99.58 480.795,98.418 478.961,97.756 C479.378,99.111 479.603,100.548 479.603,102.039 C479.603,103.371 478.522,104.453 477.19,104.453 C475.857,104.453 474.776,103.371 474.776,102.039 C474.776,96.632 470.377,92.233 464.97,92.233 C459.563,92.233 455.164,96.632 455.164,102.039 C455.164,103.371 454.082,104.453 452.75,104.453 C451.418,104.453 450.336,103.371 450.336,102.039 C450.336,100.562 450.561,99.136 450.97,97.791 C449.24,98.431 447.685,99.51 446.475,100.973 C444.451,103.421 443.632,106.614 444.228,109.734 L448.805,133.696 C449.466,137.162 452.506,139.677 456.035,139.677 L456.337,139.677 C456.149,138.973 456.039,138.24 456.039,137.478 C456.039,136.146 457.12,135.064 458.453,135.064 C459.785,135.064 460.866,136.146 460.866,137.478 C460.866,139.515 462.525,141.174 464.562,141.174 C466.599,141.174 468.257,139.515 468.257,137.478 C468.257,136.146 469.339,135.064 470.671,135.064 C472.004,135.064 473.085,136.146 473.085,137.478 C473.085,138.24 472.975,138.975 472.787,139.677 L472.818,139.677 C476.24,139.677 479.183,137.353 479.98,134.025 L485.668,110.209 Z" />
        </g>
        <g id="Black-S">
            <path d="M687.464,98.171 C690.411,101.905 691.468,106.701 690.363,111.331 L684.675,135.145 C683.358,140.655 678.482,144.503 672.818,144.503 L669.376,144.503 C668.005,145.446 666.348,146 664.562,146 C662.776,146 661.119,145.446 659.747,144.503 L656.035,144.503 C650.193,144.503 645.156,140.338 644.061,134.6 L639.485,110.639 C638.618,106.1 639.812,101.456 642.756,97.896 C645.571,94.492 649.664,92.497 654.055,92.327 C656.269,89.841 659.313,88.118 662.753,87.592 C663.822,81.03 669.515,76 676.375,76 C677.707,76 678.789,77.081 678.789,78.414 C678.789,79.746 677.707,80.828 676.375,80.828 C672.16,80.828 668.625,83.745 667.655,87.663 C670.903,88.269 673.768,89.952 675.883,92.323 C680.43,92.481 684.629,94.579 687.464,98.171 Z M685.668,110.209 C686.428,107.027 685.701,103.728 683.675,101.161 C682.427,99.58 680.795,98.418 678.961,97.756 C679.378,99.111 679.603,100.548 679.603,102.039 C679.603,103.371 678.522,104.453 677.19,104.453 C675.857,104.453 674.776,103.371 674.776,102.039 C674.776,96.632 670.377,92.233 664.97,92.233 C659.563,92.233 655.164,96.632 655.164,102.039 C655.164,103.371 654.082,104.453 652.75,104.453 C651.418,104.453 650.336,103.371 650.336,102.039 C650.336,100.562 650.561,99.136 650.97,97.791 C649.24,98.431 647.685,99.51 646.475,100.973 C644.451,103.421 643.632,106.614 644.228,109.734 L648.805,133.696 C649.466,137.162 652.506,139.677 656.035,139.677 L656.337,139.677 C656.149,138.973 656.039,138.24 656.039,137.478 C656.039,136.146 657.12,135.064 658.453,135.064 C659.785,135.064 660.866,136.146 660.866,137.478 C660.866,139.515 662.525,141.174 664.562,141.174 C666.599,141.174 668.257,139.515 668.257,137.478 C668.257,136.146 669.339,135.064 670.671,135.064 C672.004,135.064 673.085,136.146 673.085,137.478 C673.085,138.24 672.975,138.975 672.787,139.677 L672.818,139.677 C676.24,139.677 679.183,137.353 679.98,134.025 L685.668,110.209 Z" />
        </g>
    </g>
</svg>