<?xml version="1.0" encoding="UTF-8"?>
<svg height="600" width="800" xmlns="http://www.w3.org/2000/svg" xmlns:xlink="http://www.w3.org/1999/xlink">
    <g id="Notes" font-family="'LucidaGrande', 'Lucida Grande', sans-serif" font-size="13">
        <rect fill="white" height="600.0" width="800.0" x="0.0" y="0.0" />
        <g font-size="13">
            <text x="18.0" y="176.0">Small</text>
            <text x="18.0" y="376.0">Medium</text>
            <text x="18.0" y="576.0">Large</text>
        </g>
        <g font-size="9">
            <text x="250.0" y="30.0">Ultralight</text>
            <text x="450.0" y="30.0">Regular</text>
            <text x="650.0" y="30.0">Black</text>
            <text id="template-version" fill="#505050" text-anchor="end" x="785.0" y="575.0">Template v.3.0</text>
            <a href="https://wangchujiang.com/#/app">
                <text fill="#505050" text-anchor="end" x="785.0" y="590.0">https://wangchujiang.com/#/app</text>
            </a>
        </g>
    </g>
    <g id="Guides" stroke="rgb(39, 170, 225)" stroke-width="0.5">
        <path id="Capline-S" d="M18,76 l800,0" />
        <path id="H-reference" d="M85,145.755 L87.685,145.755 L113.369,79.287 L114.052,79.287 L114.052,76 L112.148,76 L85,145.755 Z M95.693,121.536 L130.996,121.536 L130.263,119.313 L96.474,119.313 L95.693,121.536 Z M139.15,145.755 L141.787,145.755 L114.638,76 L113.466,76 L113.466,79.287 L139.15,145.755 Z" stroke="none" />
        <path id="Baseline-S" d="M18,146 l800,0" />
        <path id="left-margin-Ultralight-S" d="M219.999,56 l0,110" />
        <path id="right-margin-Ultralight-S" d="M310.001,56 l0,110" />
        <path id="left-margin-Regular-S" d="M419.999,56 l0,110" />
        <path id="right-margin-Regular-S" d="M510.001,56 l0,110" />
        <path id="left-margin-Black-S" d="M619.999,56 l0,110" />
        <path id="right-margin-Black-S" d="M710.001,56 l0,110" />
        <path id="Capline-M" d="M18,276 l800,0" />
        <path id="Baseline-M" d="M18,346 l800,0" />
        <path id="Capline-L" d="M18,476 l800,0" />
        <path id="Baseline-L" d="M18,546 l800,0" />
    </g>
    <g id="Symbols">
        <g id="Ultralight-S">
            <path d="M243.237,76 C236.57,76 233.083,82.436 232.843,95.1 C232.029,95.636 231.324,96.338 230.831,97.195 C229.971,98.69 229.768,100.496 230.268,102.146 C231.277,105.473 232.955,110.65 235.216,116.719 C233.328,118.357 232.548,120.999 233.335,123.412 C234.547,127.124 236.723,132.282 240.222,135.782 C243.721,139.28 248.88,141.454 252.588,142.666 C253.224,142.873 253.875,142.973 254.521,142.973 C256.331,142.973 258.091,142.186 259.297,140.791 C265.35,143.045 270.524,144.722 273.854,145.733 C274.448,145.912 275.059,146 275.671,146 C276.763,146 277.85,145.718 278.811,145.164 C279.666,144.672 280.365,143.972 280.901,143.16 C293.563,142.921 300.001,139.431 300.001,132.764 C300.001,127.007 295.798,124.31 289.979,120.576 C289.051,119.98 288.015,119.311 286.949,118.606 C287.008,116.339 285.859,114.194 283.83,113.016 L279.589,110.557 C280.715,108.189 280.27,105.313 278.369,103.412 L272.591,97.635 C270.691,95.735 267.817,95.29 265.443,96.415 L262.985,92.174 C261.817,90.161 259.657,89.004 257.398,89.055 C256.694,87.988 256.023,86.952 255.428,86.025 C251.693,80.204 248.994,76 243.237,76 Z M243.237,82.294 C245.326,82.294 246.479,83.737 250.13,89.427 C250.332,89.741 250.584,90.123 250.797,90.453 L239.202,93.182 C239.558,86.392 241.036,82.294 243.237,82.294 Z M257.429,95.361 C257.495,95.345 257.566,95.375 257.601,95.435 L260.167,99.863 L240.566,113.044 C238.675,107.867 237.242,103.441 236.344,100.487 C236.317,100.399 236.369,100.314 236.457,100.293 L257.429,95.361 Z M268.031,102.156 C268.094,102.113 268.177,102.12 268.231,102.174 L273.824,107.767 C273.877,107.821 273.888,107.904 273.845,107.967 L254.607,136.581 C254.568,136.641 254.5,136.667 254.432,136.645 C251.908,135.815 247.389,134.045 244.672,131.329 C241.956,128.613 240.182,124.095 239.349,121.578 C239.327,121.51 239.356,121.442 239.414,121.403 L268.031,102.156 Z M276.138,115.834 L280.569,118.403 C280.629,118.438 280.659,118.508 280.643,118.575 L275.72,139.546 C275.699,139.635 275.613,139.69 275.526,139.663 C272.557,138.76 268.128,137.323 262.957,135.435 L276.138,115.834 Z M285.548,125.204 C285.879,125.417 286.262,125.672 286.577,125.874 C292.264,129.521 293.707,130.674 293.707,132.764 C293.707,134.966 289.611,136.442 282.822,136.799 L285.548,125.204 Z" />
        </g>
        <g id="Regular-S">
            <path d="M443.237,76 C436.57,76 433.083,82.436 432.843,95.1 C432.029,95.636 431.324,96.338 430.831,97.195 C429.971,98.69 429.768,100.496 430.268,102.146 C431.277,105.473 432.955,110.65 435.216,116.719 C433.328,118.357 432.548,120.999 433.335,123.412 C434.547,127.124 436.723,132.282 440.222,135.782 C443.721,139.28 448.88,141.454 452.588,142.666 C453.224,142.873 453.875,142.973 454.521,142.973 C456.331,142.973 458.091,142.186 459.297,140.791 C465.35,143.045 470.524,144.722 473.854,145.733 C474.448,145.912 475.059,146 475.671,146 C476.763,146 477.85,145.718 478.811,145.164 C479.666,144.672 480.365,143.972 480.901,143.16 C493.563,142.921 500.001,139.431 500.001,132.764 C500.001,127.007 495.798,124.31 489.979,120.576 C489.051,119.98 488.015,119.311 486.949,118.606 C487.008,116.339 485.859,114.194 483.83,113.016 L479.589,110.557 C480.715,108.189 480.27,105.313 478.369,103.412 L472.591,97.635 C470.691,95.735 467.817,95.29 465.443,96.415 L462.985,92.174 C461.817,90.161 459.657,89.004 457.398,89.055 C456.694,87.988 456.023,86.952 455.428,86.025 C451.693,80.204 448.994,76 443.237,76 Z M443.237,82.294 C445.326,82.294 446.479,83.737 450.13,89.427 C450.332,89.741 450.584,90.123 450.797,90.453 L439.202,93.182 C439.558,86.392 441.036,82.294 443.237,82.294 Z M457.429,95.361 C457.495,95.345 457.566,95.375 457.601,95.435 L460.167,99.863 L440.566,113.044 C438.675,107.867 437.242,103.441 436.344,100.487 C436.317,100.399 436.369,100.314 436.457,100.293 L457.429,95.361 Z M468.031,102.156 C468.094,102.113 468.177,102.12 468.231,102.174 L473.824,107.767 C473.877,107.821 473.888,107.904 473.845,107.967 L454.607,136.581 C454.568,136.641 454.5,136.667 454.432,136.645 C451.908,135.815 447.389,134.045 444.672,131.329 C441.956,128.613 440.182,124.095 439.349,121.578 C439.327,121.51 439.356,121.442 439.414,121.403 L468.031,102.156 Z M476.138,115.834 L480.569,118.403 C480.629,118.438 480.659,118.508 480.643,118.575 L475.72,139.546 C475.699,139.635 475.613,139.69 475.526,139.663 C472.557,138.76 468.128,137.323 462.957,135.435 L476.138,115.834 Z M485.548,125.204 C485.879,125.417 486.262,125.672 486.577,125.874 C492.264,129.521 493.707,130.674 493.707,132.764 C493.707,134.966 489.611,136.442 482.822,136.799 L485.548,125.204 Z" />
        </g>
        <g id="Black-S">
            <path d="M643.237,76 C636.57,76 633.083,82.436 632.843,95.1 C632.029,95.636 631.324,96.338 630.831,97.195 C629.971,98.69 629.768,100.496 630.268,102.146 C631.277,105.473 632.955,110.65 635.216,116.719 C633.328,118.357 632.548,120.999 633.335,123.412 C634.547,127.124 636.723,132.282 640.222,135.782 C643.721,139.28 648.88,141.454 652.588,142.666 C653.224,142.873 653.875,142.973 654.521,142.973 C656.331,142.973 658.091,142.186 659.297,140.791 C665.35,143.045 670.524,144.722 673.854,145.733 C674.448,145.912 675.059,146 675.671,146 C676.763,146 677.85,145.718 678.811,145.164 C679.666,144.672 680.365,143.972 680.901,143.16 C693.563,142.921 700.001,139.431 700.001,132.764 C700.001,127.007 695.798,124.31 689.979,120.576 C689.051,119.98 688.015,119.311 686.949,118.606 C687.008,116.339 685.859,114.194 683.83,113.016 L679.589,110.557 C680.715,108.189 680.27,105.313 678.369,103.412 L672.591,97.635 C670.692,95.735 667.817,95.29 665.443,96.415 L662.985,92.174 C661.817,90.161 659.657,89.004 657.398,89.055 C656.694,87.988 656.023,86.952 655.428,86.025 C651.693,80.204 648.994,76 643.237,76 Z M643.237,82.294 C645.326,82.294 646.479,83.737 650.13,89.427 C650.332,89.741 650.584,90.123 650.797,90.453 L639.202,93.182 C639.558,86.392 641.036,82.294 643.237,82.294 Z M657.429,95.361 C657.495,95.345 657.566,95.375 657.601,95.435 L660.167,99.863 L640.566,113.044 C638.675,107.867 637.242,103.441 636.344,100.487 C636.317,100.399 636.369,100.314 636.457,100.293 L657.429,95.361 Z M668.031,102.156 C668.094,102.113 668.177,102.12 668.231,102.174 L673.824,107.767 C673.877,107.821 673.888,107.904 673.845,107.967 L654.607,136.581 C654.568,136.641 654.5,136.667 654.432,136.645 C651.908,135.815 647.389,134.045 644.672,131.329 C641.956,128.613 640.182,124.095 639.349,121.578 C639.327,121.51 639.356,121.442 639.414,121.403 L668.031,102.156 Z M676.138,115.834 L680.569,118.403 C680.629,118.438 680.659,118.508 680.643,118.575 L675.72,139.546 C675.699,139.635 675.613,139.69 675.526,139.663 C672.557,138.76 668.128,137.323 662.957,135.435 L676.138,115.834 Z M685.548,125.204 C685.879,125.417 686.262,125.672 686.577,125.874 C692.264,129.521 693.707,130.674 693.707,132.764 C693.707,134.966 689.611,136.442 682.822,136.799 L685.548,125.204 Z" />
        </g>
    </g>
</svg>