<?xml version="1.0" encoding="UTF-8"?>
<svg height="600" width="800" xmlns="http://www.w3.org/2000/svg" xmlns:xlink="http://www.w3.org/1999/xlink">
    <g id="Notes" font-family="'LucidaGrande', 'Lucida Grande', sans-serif" font-size="13">
        <rect fill="white" height="600.0" width="800.0" x="0.0" y="0.0" />
        <g font-size="13">
            <text x="18.0" y="176.0">Small</text>
            <text x="18.0" y="376.0">Medium</text>
            <text x="18.0" y="576.0">Large</text>
        </g>
        <g font-size="9">
            <text x="250.0" y="30.0">Ultralight</text>
            <text x="450.0" y="30.0">Regular</text>
            <text x="650.0" y="30.0">Black</text>
            <text id="template-version" fill="#505050" text-anchor="end" x="785.0" y="575.0">Template v.3.0</text>
            <a href="https://wangchujiang.com/#/app">
                <text fill="#505050" text-anchor="end" x="785.0" y="590.0">https://wangchujiang.com/#/app</text>
            </a>
        </g>
    </g>
    <g id="Guides" stroke="rgb(39, 170, 225)" stroke-width="0.5">
        <path id="Capline-S" d="M18,76 l800,0" />
        <path id="H-reference" d="M85,145.755 L87.685,145.755 L113.369,79.287 L114.052,79.287 L114.052,76 L112.148,76 L85,145.755 Z M95.693,121.536 L130.996,121.536 L130.263,119.313 L96.474,119.313 L95.693,121.536 Z M139.15,145.755 L141.787,145.755 L114.638,76 L113.466,76 L113.466,79.287 L139.15,145.755 Z" stroke="none" />
        <path id="Baseline-S" d="M18,146 l800,0" />
        <path id="left-margin-Ultralight-S" d="M216.775,56 l0,110" />
        <path id="right-margin-Ultralight-S" d="M313.225,56 l0,110" />
        <path id="left-margin-Regular-S" d="M416.775,56 l0,110" />
        <path id="right-margin-Regular-S" d="M513.225,56 l0,110" />
        <path id="left-margin-Black-S" d="M616.775,56 l0,110" />
        <path id="right-margin-Black-S" d="M713.225,56 l0,110" />
        <path id="Capline-M" d="M18,276 l800,0" />
        <path id="Baseline-M" d="M18,346 l800,0" />
        <path id="Capline-L" d="M18,476 l800,0" />
        <path id="Baseline-L" d="M18,546 l800,0" />
    </g>
    <g id="Symbols">
        <g id="Ultralight-S">
            <path d="M276.865,92.932 C276.865,91.373 278.128,90.11 279.687,90.11 C281.245,90.11 282.509,91.373 282.509,92.932 C282.509,94.49 281.245,95.754 279.687,95.754 C278.128,95.754 276.865,94.49 276.865,92.932 Z" />
            <path d="M282.685,116.918 C282.685,115.36 283.949,114.096 285.507,114.096 C287.066,114.096 288.329,115.36 288.329,116.918 C288.329,118.477 287.066,119.74 285.507,119.74 C283.949,119.74 282.685,118.477 282.685,116.918 Z" />
            <path d="M245.647,121.151 C245.647,119.593 246.91,118.329 248.469,118.329 C250.027,118.329 251.291,119.593 251.291,121.151 C251.291,122.71 250.027,123.973 248.469,123.973 C246.91,123.973 245.647,122.71 245.647,121.151 Z" />
            <path d="M255.525,146 C254.021,146 252.59,145.939 251.251,145.835 C237.297,144.761 226.775,134.149 226.775,121.151 C226.775,113.421 230.063,103.466 245.729,99.954 C245.73,99.954 245.732,99.954 245.733,99.954 C252.303,98.492 257.788,94.196 260.783,88.167 C264.558,80.549 271.89,76 280.392,76 C292.174,76 301.663,85.377 302.954,98.295 C304.469,113.46 299.659,125.005 287.815,134.629 C276.628,143.72 264.685,146 255.525,146 Z M246.962,105.461 C237.04,107.686 232.419,112.671 232.419,121.151 C232.419,131.334 240.521,139.349 251.683,140.208 C260.146,140.861 272.671,139.66 284.257,130.249 C294.632,121.82 298.666,112.138 297.338,98.856 C296.342,88.882 289.214,81.644 280.392,81.644 C273.988,81.644 268.683,84.936 265.838,90.674 C262.081,98.238 255.201,103.628 246.962,105.461 Z" />
        </g>
        <g id="Regular-S">
            <path d="M476.865,92.932 C476.865,91.373 478.128,90.11 479.687,90.11 C481.245,90.11 482.509,91.373 482.509,92.932 C482.509,94.49 481.245,95.754 479.687,95.754 C478.128,95.754 476.865,94.49 476.865,92.932 Z" />
            <path d="M482.685,116.918 C482.685,115.36 483.949,114.096 485.507,114.096 C487.066,114.096 488.329,115.36 488.329,116.918 C488.329,118.477 487.066,119.74 485.507,119.74 C483.949,119.74 482.685,118.477 482.685,116.918 Z" />
            <path d="M445.647,121.151 C445.647,119.593 446.91,118.329 448.469,118.329 C450.027,118.329 451.291,119.593 451.291,121.151 C451.291,122.71 450.027,123.973 448.469,123.973 C446.91,123.973 445.647,122.71 445.647,121.151 Z" />
            <path d="M455.525,146 C454.021,146 452.59,145.939 451.251,145.835 C437.297,144.761 426.775,134.149 426.775,121.151 C426.775,113.421 430.063,103.466 445.729,99.954 C445.73,99.954 445.732,99.954 445.733,99.954 C452.303,98.492 457.788,94.196 460.783,88.167 C464.558,80.549 471.89,76 480.392,76 C492.174,76 501.663,85.377 502.954,98.295 C504.469,113.46 499.659,125.005 487.815,134.629 C476.628,143.72 464.685,146 455.525,146 Z M446.962,105.461 C437.04,107.686 432.419,112.671 432.419,121.151 C432.419,131.334 440.521,139.349 451.683,140.208 C460.146,140.861 472.671,139.66 484.257,130.249 C494.632,121.82 498.666,112.138 497.338,98.856 C496.342,88.882 489.214,81.644 480.392,81.644 C473.988,81.644 468.683,84.936 465.838,90.674 C462.081,98.238 455.201,103.628 446.962,105.461 Z" />
        </g>
        <g id="Black-S">
            <path d="M676.865,92.932 C676.865,91.373 678.128,90.11 679.687,90.11 C681.245,90.11 682.509,91.373 682.509,92.932 C682.509,94.49 681.245,95.754 679.687,95.754 C678.128,95.754 676.865,94.49 676.865,92.932 Z" />
            <path d="M682.685,116.918 C682.685,115.36 683.949,114.096 685.507,114.096 C687.066,114.096 688.329,115.36 688.329,116.918 C688.329,118.477 687.066,119.74 685.507,119.74 C683.949,119.74 682.685,118.477 682.685,116.918 Z" />
            <path d="M645.647,121.151 C645.647,119.593 646.91,118.329 648.469,118.329 C650.027,118.329 651.291,119.593 651.291,121.151 C651.291,122.71 650.027,123.973 648.469,123.973 C646.91,123.973 645.647,122.71 645.647,121.151 Z" />
            <path d="M655.525,146 C654.021,146 652.59,145.939 651.251,145.835 C637.297,144.761 626.775,134.149 626.775,121.151 C626.775,113.421 630.063,103.466 645.729,99.954 C645.73,99.954 645.732,99.954 645.733,99.954 C652.303,98.492 657.788,94.196 660.782,88.167 C664.558,80.549 671.89,76 680.392,76 C692.174,76 701.663,85.377 702.954,98.295 C704.469,113.46 699.659,125.005 687.815,134.629 C676.628,143.72 664.685,146 655.525,146 Z M646.962,105.461 C637.04,107.686 632.419,112.671 632.419,121.151 C632.419,131.334 640.521,139.349 651.683,140.208 C660.146,140.861 672.671,139.66 684.257,130.249 C694.632,121.82 698.666,112.138 697.338,98.856 C696.342,88.882 689.214,81.644 680.392,81.644 C673.988,81.644 668.683,84.936 665.838,90.674 C662.081,98.238 655.201,103.628 646.962,105.461 Z" />
        </g>
    </g>
</svg>