<?xml version="1.0" encoding="UTF-8"?>
<svg height="600" width="800" xmlns="http://www.w3.org/2000/svg" xmlns:xlink="http://www.w3.org/1999/xlink">
    <g id="Notes" font-family="'LucidaGrande', 'Lucida Grande', sans-serif" font-size="13">
        <rect fill="white" height="600.0" width="800.0" x="0.0" y="0.0" />
        <g font-size="13">
            <text x="18.0" y="176.0">Small</text>
            <text x="18.0" y="376.0">Medium</text>
            <text x="18.0" y="576.0">Large</text>
        </g>
        <g font-size="9">
            <text x="250.0" y="30.0">Ultralight</text>
            <text x="450.0" y="30.0">Regular</text>
            <text x="650.0" y="30.0">Black</text>
            <text id="template-version" fill="#505050" text-anchor="end" x="785.0" y="575.0">Template v.3.0</text>
            <a href="https://wangchujiang.com/#/app">
                <text fill="#505050" text-anchor="end" x="785.0" y="590.0">https://wangchujiang.com/#/app</text>
            </a>
        </g>
    </g>
    <g id="Guides" stroke="rgb(39, 170, 225)" stroke-width="0.5">
        <path id="Capline-S" d="M18,76 l800,0" />
        <path id="H-reference" d="M85,145.755 L87.685,145.755 L113.369,79.287 L114.052,79.287 L114.052,76 L112.148,76 L85,145.755 Z M95.693,121.536 L130.996,121.536 L130.263,119.313 L96.474,119.313 L95.693,121.536 Z M139.15,145.755 L141.787,145.755 L114.638,76 L113.466,76 L113.466,79.287 L139.15,145.755 Z" stroke="none" />
        <path id="Baseline-S" d="M18,146 l800,0" />
        <path id="left-margin-Ultralight-S" d="M219.984,56 l0,110" />
        <path id="right-margin-Ultralight-S" d="M310.016,56 l0,110" />
        <path id="left-margin-Regular-S" d="M419.984,56 l0,110" />
        <path id="right-margin-Regular-S" d="M510.016,56 l0,110" />
        <path id="left-margin-Black-S" d="M619.984,56 l0,110" />
        <path id="right-margin-Black-S" d="M710.016,56 l0,110" />
        <path id="Capline-M" d="M18,276 l800,0" />
        <path id="Baseline-M" d="M18,346 l800,0" />
        <path id="Capline-L" d="M18,476 l800,0" />
        <path id="Baseline-L" d="M18,546 l800,0" />
    </g>
    <g id="Symbols">
        <g id="Ultralight-S">
            <path d="M289.391,76.001 C280.308,75.917 267.069,83.308 254.848,95.129 L254.848,91.904 C254.848,89.647 252.385,88.232 250.427,89.395 C237.503,97.102 231.548,110.631 230.283,120.724 C229.219,129.226 231.022,136.522 235.232,140.745 C239.185,144.696 246.213,146.822 255.21,145.703 C265.316,144.445 278.868,138.488 286.585,125.547 C287.744,123.602 286.341,121.129 284.073,121.129 L280.851,121.129 C295.01,106.45 305.31,87.089 297.099,78.878 C295.168,76.947 292.528,76.029 289.391,76.001 Z M288.643,81.914 C290.703,81.815 292.187,82.227 292.97,83.01 C296.683,86.725 291.808,101.957 275.434,118.332 C274.528,119.237 273.52,120.175 272.489,121.129 L254.848,121.129 L254.848,103.488 C255.802,102.458 256.741,101.45 257.645,100.546 C271.063,87.13 282.461,82.213 288.643,81.914 Z M278.959,86.058 C277.749,86.058 276.767,87.04 276.767,88.25 C276.767,89.46 277.749,90.442 278.959,90.442 C280.169,90.442 281.151,89.46 281.151,88.25 C281.151,87.04 280.169,86.058 278.959,86.058 Z M287.727,86.058 C286.517,86.058 285.535,87.04 285.535,88.25 C285.535,89.46 286.517,90.442 287.727,90.442 C288.937,90.442 289.919,89.46 289.919,88.25 C289.919,87.04 288.937,86.058 287.727,86.058 Z M270.191,94.826 C268.981,94.826 267.999,95.808 267.999,97.018 C267.999,98.228 268.981,99.21 270.191,99.21 C271.401,99.21 272.383,98.228 272.383,97.018 C272.383,95.808 271.401,94.826 270.191,94.826 Z M278.959,94.826 C277.749,94.826 276.767,95.808 276.767,97.018 C276.767,98.228 277.749,99.21 278.959,99.21 C280.169,99.21 281.151,98.228 281.151,97.018 C281.151,95.808 280.169,94.826 278.959,94.826 Z M287.727,94.826 C286.517,94.826 285.535,95.808 285.535,97.018 C285.535,98.228 286.517,99.21 287.727,99.21 C288.937,99.21 289.919,98.228 289.919,97.018 C289.919,95.808 288.937,94.826 287.727,94.826 Z M249.003,97.555 L249.003,121.275 C243.523,121.816 238.796,123.867 235.894,126.926 C235.796,125.205 235.844,123.377 236.085,121.452 C237.022,113.979 240.919,104.333 249.003,97.555 Z M261.424,103.594 C260.214,103.594 259.232,104.576 259.232,105.786 C259.232,106.996 260.214,107.978 261.424,107.978 C262.634,107.978 263.616,106.996 263.616,105.786 C263.616,104.576 262.634,103.594 261.424,103.594 Z M270.191,103.594 C268.981,103.594 267.999,104.576 267.999,105.786 C267.999,106.996 268.981,107.978 270.191,107.978 C271.401,107.978 272.383,106.996 272.383,105.786 C272.383,104.576 271.401,103.594 270.191,103.594 Z M278.959,103.594 C277.749,103.594 276.767,104.576 276.767,105.786 C276.767,106.996 277.749,107.978 278.959,107.978 C280.169,107.978 281.151,106.996 281.151,105.786 C281.151,104.576 280.169,103.594 278.959,103.594 Z M261.424,112.361 C260.214,112.361 259.232,113.343 259.232,114.553 C259.232,115.763 260.214,116.745 261.424,116.745 C262.634,116.745 263.616,115.763 263.616,114.553 C263.616,113.343 262.634,112.361 261.424,112.361 Z M270.191,112.361 C268.981,112.361 267.999,113.343 267.999,114.553 C267.999,115.763 268.981,116.745 270.191,116.745 C271.401,116.745 272.383,115.763 272.383,114.553 C272.383,113.343 271.401,112.361 270.191,112.361 Z M251.905,126.974 C251.912,126.974 251.918,126.977 251.925,126.977 L278.422,126.977 C271.633,135.076 261.974,138.971 254.491,139.903 C248.024,140.709 242.475,139.528 239.55,136.767 C238.548,135.157 238.421,133.673 239.182,132.24 C240.525,129.707 245.078,126.98 251.905,126.974 Z" />
        </g>
        <g id="Regular-S">
            <path d="M489.391,76.001 C480.308,75.917 467.069,83.308 454.848,95.129 L454.848,91.904 C454.848,89.647 452.385,88.232 450.427,89.395 C437.503,97.102 431.548,110.631 430.283,120.724 C429.219,129.226 431.022,136.522 435.232,140.745 C439.185,144.696 446.213,146.822 455.21,145.703 C465.317,144.445 478.868,138.488 486.585,125.547 C487.744,123.602 486.341,121.129 484.073,121.129 L480.851,121.129 C495.01,106.45 505.31,87.089 497.099,78.878 C495.168,76.947 492.528,76.029 489.391,76.001 Z M488.643,81.914 C490.703,81.815 492.187,82.227 492.97,83.01 C496.683,86.725 491.808,101.957 475.434,118.332 C474.529,119.237 473.52,120.175 472.489,121.129 L454.848,121.129 L454.848,103.488 C455.802,102.458 456.742,101.45 457.645,100.546 C471.063,87.13 482.461,82.213 488.643,81.914 Z M478.959,86.058 C477.749,86.058 476.767,87.04 476.767,88.25 C476.767,89.46 477.749,90.442 478.959,90.442 C480.169,90.442 481.151,89.46 481.151,88.25 C481.151,87.04 480.169,86.058 478.959,86.058 Z M487.727,86.058 C486.517,86.058 485.535,87.04 485.535,88.25 C485.535,89.46 486.517,90.442 487.727,90.442 C488.937,90.442 489.919,89.46 489.919,88.25 C489.919,87.04 488.937,86.058 487.727,86.058 Z M470.191,94.826 C468.981,94.826 467.999,95.808 467.999,97.018 C467.999,98.228 468.981,99.21 470.191,99.21 C471.401,99.21 472.383,98.228 472.383,97.018 C472.383,95.808 471.401,94.826 470.191,94.826 Z M478.959,94.826 C477.749,94.826 476.767,95.808 476.767,97.018 C476.767,98.228 477.749,99.21 478.959,99.21 C480.169,99.21 481.151,98.228 481.151,97.018 C481.151,95.808 480.169,94.826 478.959,94.826 Z M487.727,94.826 C486.517,94.826 485.535,95.808 485.535,97.018 C485.535,98.228 486.517,99.21 487.727,99.21 C488.937,99.21 489.919,98.228 489.919,97.018 C489.919,95.808 488.937,94.826 487.727,94.826 Z M449.003,97.555 L449.003,121.275 C443.523,121.816 438.796,123.867 435.894,126.926 C435.796,125.205 435.844,123.377 436.085,121.452 C437.022,113.979 440.919,104.333 449.003,97.555 Z M461.424,103.594 C460.214,103.594 459.232,104.576 459.232,105.786 C459.232,106.996 460.214,107.978 461.424,107.978 C462.634,107.978 463.616,106.996 463.616,105.786 C463.616,104.576 462.634,103.594 461.424,103.594 Z M470.191,103.594 C468.981,103.594 467.999,104.576 467.999,105.786 C467.999,106.996 468.981,107.978 470.191,107.978 C471.401,107.978 472.383,106.996 472.383,105.786 C472.383,104.576 471.401,103.594 470.191,103.594 Z M478.959,103.594 C477.749,103.594 476.767,104.576 476.767,105.786 C476.767,106.996 477.749,107.978 478.959,107.978 C480.169,107.978 481.151,106.996 481.151,105.786 C481.151,104.576 480.169,103.594 478.959,103.594 Z M461.424,112.361 C460.214,112.361 459.232,113.343 459.232,114.553 C459.232,115.763 460.214,116.745 461.424,116.745 C462.634,116.745 463.616,115.763 463.616,114.553 C463.616,113.343 462.634,112.361 461.424,112.361 Z M470.191,112.361 C468.981,112.361 467.999,113.343 467.999,114.553 C467.999,115.763 468.981,116.745 470.191,116.745 C471.401,116.745 472.383,115.763 472.383,114.553 C472.383,113.343 471.401,112.361 470.191,112.361 Z M451.905,126.974 C451.912,126.974 451.918,126.977 451.925,126.977 L478.422,126.977 C471.633,135.076 461.974,138.971 454.491,139.903 C448.024,140.709 442.475,139.528 439.55,136.767 C438.548,135.157 438.421,133.673 439.182,132.24 C440.525,129.707 445.078,126.98 451.905,126.974 Z" />
        </g>
        <g id="Black-S">
            <path d="M689.391,76.001 C680.308,75.917 667.069,83.308 654.848,95.129 L654.848,91.904 C654.848,89.647 652.385,88.232 650.427,89.395 C637.503,97.102 631.548,110.631 630.283,120.724 C629.219,129.226 631.022,136.522 635.232,140.745 C639.185,144.696 646.213,146.822 655.21,145.703 C665.317,144.445 678.868,138.488 686.585,125.547 C687.744,123.602 686.341,121.129 684.073,121.129 L680.851,121.129 C695.01,106.45 705.31,87.089 697.099,78.878 C695.168,76.947 692.528,76.029 689.391,76.001 Z M688.643,81.914 C690.703,81.815 692.187,82.227 692.97,83.01 C696.683,86.725 691.808,101.957 675.434,118.332 C674.529,119.237 673.52,120.175 672.489,121.129 L654.848,121.129 L654.848,103.488 C655.802,102.458 656.742,101.45 657.645,100.546 C671.063,87.13 682.461,82.213 688.643,81.914 Z M678.959,86.058 C677.749,86.058 676.767,87.04 676.767,88.25 C676.767,89.46 677.749,90.442 678.959,90.442 C680.169,90.442 681.151,89.46 681.151,88.25 C681.151,87.04 680.169,86.058 678.959,86.058 Z M687.727,86.058 C686.517,86.058 685.535,87.04 685.535,88.25 C685.535,89.46 686.517,90.442 687.727,90.442 C688.937,90.442 689.919,89.46 689.919,88.25 C689.919,87.04 688.937,86.058 687.727,86.058 Z M670.191,94.826 C668.981,94.826 667.999,95.808 667.999,97.018 C667.999,98.228 668.981,99.21 670.191,99.21 C671.401,99.21 672.383,98.228 672.383,97.018 C672.383,95.808 671.401,94.826 670.191,94.826 Z M678.959,94.826 C677.749,94.826 676.767,95.808 676.767,97.018 C676.767,98.228 677.749,99.21 678.959,99.21 C680.169,99.21 681.151,98.228 681.151,97.018 C681.151,95.808 680.169,94.826 678.959,94.826 Z M687.727,94.826 C686.517,94.826 685.535,95.808 685.535,97.018 C685.535,98.228 686.517,99.21 687.727,99.21 C688.937,99.21 689.919,98.228 689.919,97.018 C689.919,95.808 688.937,94.826 687.727,94.826 Z M649.003,97.555 L649.003,121.275 C643.523,121.816 638.796,123.867 635.894,126.926 C635.796,125.205 635.844,123.377 636.085,121.452 C637.022,113.979 640.919,104.333 649.003,97.555 Z M661.424,103.594 C660.214,103.594 659.232,104.576 659.232,105.786 C659.232,106.996 660.214,107.978 661.424,107.978 C662.634,107.978 663.616,106.996 663.616,105.786 C663.616,104.576 662.634,103.594 661.424,103.594 Z M670.191,103.594 C668.981,103.594 667.999,104.576 667.999,105.786 C667.999,106.996 668.981,107.978 670.191,107.978 C671.401,107.978 672.383,106.996 672.383,105.786 C672.383,104.576 671.401,103.594 670.191,103.594 Z M678.959,103.594 C677.749,103.594 676.767,104.576 676.767,105.786 C676.767,106.996 677.749,107.978 678.959,107.978 C680.169,107.978 681.151,106.996 681.151,105.786 C681.151,104.576 680.169,103.594 678.959,103.594 Z M661.424,112.361 C660.214,112.361 659.232,113.343 659.232,114.553 C659.232,115.763 660.214,116.745 661.424,116.745 C662.634,116.745 663.616,115.763 663.616,114.553 C663.616,113.343 662.634,112.361 661.424,112.361 Z M670.191,112.361 C668.981,112.361 667.999,113.343 667.999,114.553 C667.999,115.763 668.981,116.745 670.191,116.745 C671.401,116.745 672.383,115.763 672.383,114.553 C672.383,113.343 671.401,112.361 670.191,112.361 Z M651.905,126.974 C651.912,126.974 651.918,126.977 651.925,126.977 L678.422,126.977 C671.633,135.076 661.974,138.971 654.491,139.903 C648.024,140.709 642.475,139.528 639.55,136.767 C638.548,135.157 638.421,133.673 639.182,132.24 C640.525,129.707 645.078,126.98 651.905,126.974 Z" />
        </g>
    </g>
</svg>