<?xml version="1.0" encoding="UTF-8"?>
<svg height="600" width="800" xmlns="http://www.w3.org/2000/svg" xmlns:xlink="http://www.w3.org/1999/xlink">
    <g id="Notes" font-family="'LucidaGrande', 'Lucida Grande', sans-serif" font-size="13">
        <rect fill="white" height="600.0" width="800.0" x="0.0" y="0.0" />
        <g font-size="13">
            <text x="18.0" y="176.0">Small</text>
            <text x="18.0" y="376.0">Medium</text>
            <text x="18.0" y="576.0">Large</text>
        </g>
        <g font-size="9">
            <text x="250.0" y="30.0">Ultralight</text>
            <text x="450.0" y="30.0">Regular</text>
            <text x="650.0" y="30.0">Black</text>
            <text id="template-version" fill="#505050" text-anchor="end" x="785.0" y="575.0">Template v.3.0</text>
            <a href="https://wangchujiang.com/#/app">
                <text fill="#505050" text-anchor="end" x="785.0" y="590.0">https://wangchujiang.com/#/app</text>
            </a>
        </g>
    </g>
    <g id="Guides" stroke="rgb(39, 170, 225)" stroke-width="0.5">
        <path id="Capline-S" d="M18,76 l800,0" />
        <path id="H-reference" d="M85,145.755 L87.685,145.755 L113.369,79.287 L114.052,79.287 L114.052,76 L112.148,76 L85,145.755 Z M95.693,121.536 L130.996,121.536 L130.263,119.313 L96.474,119.313 L95.693,121.536 Z M139.15,145.755 L141.787,145.755 L114.638,76 L113.466,76 L113.466,79.287 L139.15,145.755 Z" stroke="none" />
        <path id="Baseline-S" d="M18,146 l800,0" />
        <path id="left-margin-Ultralight-S" d="M221,56 l0,110" />
        <path id="right-margin-Ultralight-S" d="M309,56 l0,110" />
        <path id="left-margin-Regular-S" d="M421,56 l0,110" />
        <path id="right-margin-Regular-S" d="M509,56 l0,110" />
        <path id="left-margin-Black-S" d="M621,56 l0,110" />
        <path id="right-margin-Black-S" d="M709,56 l0,110" />
        <path id="Capline-M" d="M18,276 l800,0" />
        <path id="Baseline-M" d="M18,346 l800,0" />
        <path id="Capline-L" d="M18,476 l800,0" />
        <path id="Baseline-L" d="M18,546 l800,0" />
    </g>
    <g id="Symbols">
        <g id="Ultralight-S">
            <path d="M277.13,76.005 C275.544,76.056 273.984,76.494 272.572,77.309 C270.312,78.613 268.697,80.721 268.021,83.242 C267.346,85.763 267.693,88.396 268.997,90.654 L274.824,100.75 L269.121,106.453 C269.403,103.45 268.86,100.273 266.382,97.794 C263.256,94.67 258.171,94.67 255.046,97.794 C251.921,100.919 251.921,106.003 255.046,109.128 L260.745,114.827 L256.681,118.891 C250.91,114.488 243.097,114.471 238.393,119.173 C228.542,129.023 234.963,142.338 235.24,142.9 C235.476,143.374 235.863,143.757 236.34,143.984 C236.64,144.126 240.692,146 245.915,146 C250.159,146 255.172,144.762 259.579,140.356 C264.237,135.698 264.263,127.99 259.985,122.236 L272.418,109.803 L280.466,117.848 C282.303,119.684 284.747,120.698 287.347,120.698 C289.946,120.698 292.39,119.684 294.226,117.848 C298.019,114.055 298.019,107.882 294.226,104.088 C290.437,100.298 285.278,100.177 280.835,101.138 C283.947,97.572 290.431,88.7 285.919,80.886 C284.615,78.627 282.509,77.012 279.986,76.336 C279.042,76.083 278.081,75.975 277.13,76.005 Z M277.444,80.7 C277.885,80.7 278.33,80.757 278.767,80.875 C280.075,81.225 281.169,82.062 281.843,83.233 C284.526,87.879 280.707,93.837 278.117,97.048 L273.068,88.3 C272.391,87.129 272.212,85.764 272.563,84.457 C272.913,83.148 273.75,82.055 274.921,81.378 C275.701,80.928 276.567,80.7 277.444,80.7 Z M260.715,100.148 C261.563,100.148 262.412,100.471 263.057,101.117 C265.461,103.522 264.363,107.821 263.229,110.659 L258.371,105.801 C257.079,104.51 257.079,102.408 258.371,101.117 C259.017,100.47 259.867,100.148 260.715,100.148 Z M284.775,105.321 C287.051,105.246 289.255,105.766 290.901,107.413 C292.861,109.372 292.861,112.564 290.901,114.523 C289.951,115.472 288.691,115.995 287.347,115.995 C286.003,115.995 284.739,115.472 283.79,114.523 L276.698,107.431 C278.81,106.498 281.85,105.417 284.775,105.321 Z M247.244,120.296 C249.93,120.279 252.811,121.433 255.065,123.687 C259.072,127.695 259.604,133.68 256.254,137.032 C249.889,143.396 241.659,141.009 239.123,140.051 C238.073,137.442 235.346,128.87 241.718,122.498 C243.184,121.032 245.156,120.309 247.244,120.296 Z" />
        </g>
        <g id="Regular-S">
            <path d="M477.13,76.005 C475.544,76.056 473.984,76.494 472.572,77.309 C470.312,78.613 468.697,80.721 468.021,83.242 C467.346,85.763 467.693,88.396 468.997,90.654 L474.824,100.75 L469.121,106.453 C469.403,103.45 468.86,100.273 466.382,97.794 C463.256,94.67 458.171,94.67 455.046,97.794 C451.921,100.919 451.921,106.003 455.046,109.128 L460.745,114.827 L456.681,118.891 C450.91,114.488 443.097,114.471 438.393,119.173 C428.542,129.023 434.963,142.338 435.24,142.9 C435.476,143.374 435.863,143.757 436.34,143.984 C436.64,144.126 440.692,146 445.915,146 C450.159,146 455.172,144.762 459.579,140.356 C464.237,135.698 464.263,127.99 459.985,122.236 L472.418,109.803 L480.466,117.848 C482.303,119.684 484.747,120.698 487.347,120.698 C489.946,120.698 492.39,119.684 494.226,117.848 C498.019,114.055 498.019,107.882 494.226,104.088 C490.437,100.298 485.278,100.177 480.835,101.138 C483.947,97.572 490.431,88.7 485.919,80.886 C484.615,78.627 482.509,77.012 479.986,76.336 C479.042,76.083 478.081,75.975 477.13,76.005 Z M477.444,80.7 C477.885,80.7 478.33,80.757 478.767,80.875 C480.075,81.225 481.169,82.062 481.843,83.233 C484.526,87.879 480.707,93.837 478.117,97.048 L473.068,88.3 C472.391,87.129 472.212,85.764 472.563,84.457 C472.913,83.148 473.75,82.055 474.921,81.378 C475.701,80.928 476.567,80.7 477.444,80.7 Z M460.715,100.148 C461.563,100.148 462.412,100.471 463.057,101.117 C465.461,103.522 464.362,107.821 463.229,110.659 L458.371,105.801 C457.079,104.51 457.079,102.408 458.371,101.117 C459.017,100.47 459.867,100.148 460.715,100.148 Z M484.775,105.321 C487.051,105.246 489.255,105.766 490.901,107.413 C492.861,109.372 492.861,112.564 490.901,114.523 C489.951,115.472 488.691,115.995 487.347,115.995 C486.003,115.995 484.739,115.472 483.79,114.523 L476.698,107.431 C478.81,106.498 481.85,105.417 484.775,105.321 Z M447.244,120.296 C449.93,120.279 452.811,121.433 455.065,123.687 C459.072,127.695 459.604,133.68 456.254,137.032 C449.889,143.396 441.659,141.009 439.123,140.051 C438.073,137.442 435.346,128.87 441.718,122.498 C443.184,121.032 445.155,120.309 447.244,120.296 Z" />
        </g>
        <g id="Black-S">
            <path d="M677.13,76.005 C675.544,76.056 673.984,76.494 672.572,77.309 C670.312,78.613 668.697,80.721 668.021,83.242 C667.346,85.763 667.693,88.396 668.997,90.654 L674.824,100.75 L669.121,106.453 C669.403,103.45 668.86,100.273 666.382,97.794 C663.256,94.67 658.171,94.67 655.046,97.794 C651.921,100.919 651.921,106.003 655.046,109.128 L660.745,114.827 L656.681,118.891 C650.91,114.488 643.097,114.471 638.393,119.173 C628.542,129.023 634.963,142.338 635.24,142.9 C635.476,143.374 635.863,143.757 636.34,143.984 C636.64,144.126 640.692,146 645.915,146 C650.159,146 655.172,144.762 659.579,140.356 C664.237,135.698 664.263,127.99 659.985,122.236 L672.418,109.803 L680.466,117.848 C682.303,119.684 684.747,120.698 687.347,120.698 C689.946,120.698 692.39,119.684 694.226,117.848 C698.019,114.055 698.019,107.882 694.226,104.088 C690.437,100.298 685.278,100.177 680.835,101.138 C683.947,97.572 690.431,88.7 685.919,80.886 C684.615,78.627 682.509,77.012 679.986,76.336 C679.042,76.083 678.081,75.975 677.13,76.005 Z M677.444,80.7 C677.885,80.7 678.33,80.757 678.767,80.875 C680.075,81.225 681.169,82.062 681.843,83.233 C684.526,87.879 680.707,93.837 678.117,97.048 L673.068,88.3 C672.391,87.129 672.212,85.764 672.563,84.457 C672.913,83.148 673.75,82.055 674.921,81.378 C675.701,80.928 676.567,80.7 677.444,80.7 Z M660.715,100.148 C661.563,100.148 662.412,100.471 663.057,101.117 C665.461,103.522 664.362,107.821 663.229,110.659 L658.371,105.801 C657.079,104.51 657.079,102.408 658.371,101.117 C659.017,100.47 659.867,100.148 660.715,100.148 Z M684.775,105.321 C687.051,105.246 689.255,105.766 690.901,107.413 C692.861,109.372 692.861,112.564 690.901,114.523 C689.951,115.472 688.691,115.995 687.347,115.995 C686.003,115.995 684.739,115.472 683.79,114.523 L676.698,107.431 C678.81,106.498 681.85,105.417 684.775,105.321 Z M647.244,120.296 C649.93,120.279 652.811,121.433 655.065,123.687 C659.072,127.695 659.604,133.68 656.254,137.032 C649.889,143.396 641.659,141.009 639.123,140.051 C638.073,137.442 635.346,128.87 641.718,122.498 C643.184,121.032 645.155,120.309 647.244,120.296 Z" />
        </g>
    </g>
</svg>