<?xml version="1.0" encoding="UTF-8"?>
<svg height="600" width="800" xmlns="http://www.w3.org/2000/svg" xmlns:xlink="http://www.w3.org/1999/xlink">
    <g id="Notes" font-family="'LucidaGrande', 'Lucida Grande', sans-serif" font-size="13">
        <rect fill="white" height="600.0" width="800.0" x="0.0" y="0.0" />
        <g font-size="13">
            <text x="18.0" y="176.0">Small</text>
            <text x="18.0" y="376.0">Medium</text>
            <text x="18.0" y="576.0">Large</text>
        </g>
        <g font-size="9">
            <text x="250.0" y="30.0">Ultralight</text>
            <text x="450.0" y="30.0">Regular</text>
            <text x="650.0" y="30.0">Black</text>
            <text id="template-version" fill="#505050" text-anchor="end" x="785.0" y="575.0">Template v.3.0</text>
            <a href="https://wangchujiang.com/#/app">
                <text fill="#505050" text-anchor="end" x="785.0" y="590.0">https://wangchujiang.com/#/app</text>
            </a>
        </g>
    </g>
    <g id="Guides" stroke="rgb(39, 170, 225)" stroke-width="0.5">
        <path id="Capline-S" d="M18,76 l800,0" />
        <path id="H-reference" d="M85,145.755 L87.685,145.755 L113.369,79.287 L114.052,79.287 L114.052,76 L112.148,76 L85,145.755 Z M95.693,121.536 L130.996,121.536 L130.263,119.313 L96.474,119.313 L95.693,121.536 Z M139.15,145.755 L141.787,145.755 L114.638,76 L113.466,76 L113.466,79.287 L139.15,145.755 Z" stroke="none" />
        <path id="Baseline-S" d="M18,146 l800,0" />
        <path id="left-margin-Ultralight-S" d="M221,56 l0,110" />
        <path id="right-margin-Ultralight-S" d="M309,56 l0,110" />
        <path id="left-margin-Regular-S" d="M421,56 l0,110" />
        <path id="right-margin-Regular-S" d="M509,56 l0,110" />
        <path id="left-margin-Black-S" d="M621,56 l0,110" />
        <path id="right-margin-Black-S" d="M709,56 l0,110" />
        <path id="Capline-M" d="M18,276 l800,0" />
        <path id="Baseline-M" d="M18,346 l800,0" />
        <path id="Capline-L" d="M18,476 l800,0" />
        <path id="Baseline-L" d="M18,546 l800,0" />
    </g>
    <g id="Symbols">
        <g id="Ultralight-S">
            <path d="M265,76 C264.069,76 263.209,76.499 262.749,77.306 L258.878,84.082 L254.668,81.555 C253.812,81.042 252.74,81.065 251.908,81.613 C251.074,82.163 250.631,83.139 250.766,84.127 C250.835,84.637 252.166,93.805 257.931,98.25 C257.683,98.482 257.447,98.724 257.222,98.979 C255.32,96.817 252.543,95.444 249.444,95.444 C243.726,95.444 239.074,100.097 239.074,105.815 C239.074,111.144 243.117,115.545 248.295,116.119 C247.384,117.662 246.852,119.453 246.852,121.37 C246.852,126.484 250.577,130.735 255.452,131.579 C254.922,132.824 254.63,134.193 254.63,135.63 C254.63,141.348 259.282,146 265,146 C270.718,146 275.37,141.348 275.37,135.63 C275.37,134.193 275.078,132.824 274.548,131.579 C279.423,130.735 283.148,126.484 283.148,121.37 C283.148,119.453 282.616,117.662 281.705,116.119 C286.883,115.545 290.926,111.144 290.926,105.815 C290.926,100.097 286.274,95.444 280.556,95.444 C277.457,95.444 274.68,96.817 272.778,98.979 C272.553,98.724 272.317,98.482 272.069,98.25 C277.834,93.805 279.165,84.637 279.234,84.127 C279.369,83.139 278.926,82.163 278.092,81.613 C277.261,81.066 276.188,81.042 275.332,81.555 L271.122,84.082 L267.251,77.306 C266.791,76.499 265.931,76 265,76 Z M265,83.818 L267.934,88.953 C268.279,89.558 268.854,89.999 269.529,90.176 C270.206,90.351 270.922,90.249 271.519,89.89 L272.325,89.406 C270.973,92.42 268.696,95.444 265,95.444 C261.304,95.444 259.027,92.42 257.675,89.406 L258.481,89.89 C259.078,90.25 259.795,90.352 260.471,90.176 C261.145,89.999 261.72,89.558 262.066,88.953 L265,83.818 Z M249.444,100.63 C252.304,100.63 254.63,102.955 254.63,105.815 C254.63,108.674 252.304,111 249.444,111 C246.585,111 244.259,108.674 244.259,105.815 C244.259,102.955 246.585,100.63 249.444,100.63 Z M265,100.63 C267.86,100.63 270.185,102.955 270.185,105.815 C270.185,108.674 267.86,111 265,111 C262.14,111 259.815,108.674 259.815,105.815 C259.815,102.955 262.14,100.63 265,100.63 Z M280.556,100.63 C283.415,100.63 285.741,102.955 285.741,105.815 C285.741,108.674 283.415,111 280.556,111 C277.696,111 275.37,108.674 275.37,105.815 C275.37,102.955 277.696,100.63 280.556,100.63 Z M257.222,116.185 C260.082,116.185 262.407,118.511 262.407,121.37 C262.407,124.23 260.082,126.556 257.222,126.556 C254.363,126.556 252.037,124.23 252.037,121.37 C252.037,118.511 254.363,116.185 257.222,116.185 Z M272.778,116.185 C275.637,116.185 277.963,118.511 277.963,121.37 C277.963,124.23 275.637,126.556 272.778,126.556 C269.918,126.556 267.593,124.23 267.593,121.37 C267.593,118.511 269.918,116.185 272.778,116.185 Z M265,130.444 C267.86,130.444 270.185,132.77 270.185,135.63 C270.185,138.489 267.86,140.815 265,140.815 C262.14,140.815 259.815,138.489 259.815,135.63 C259.815,132.77 262.14,130.444 265,130.444 Z" />
        </g>
        <g id="Regular-S">
            <path d="M465,76 C464.069,76 463.209,76.499 462.749,77.306 L458.878,84.082 L454.668,81.555 C453.812,81.042 452.74,81.065 451.908,81.613 C451.074,82.163 450.631,83.139 450.766,84.127 C450.835,84.637 452.166,93.805 457.931,98.25 C457.683,98.482 457.447,98.724 457.222,98.979 C455.32,96.817 452.543,95.444 449.444,95.444 C443.727,95.444 439.074,100.097 439.074,105.815 C439.074,111.144 443.117,115.545 448.295,116.119 C447.384,117.662 446.852,119.453 446.852,121.37 C446.852,126.484 450.577,130.735 455.452,131.579 C454.922,132.824 454.63,134.193 454.63,135.63 C454.63,141.348 459.282,146 465,146 C470.718,146 475.37,141.348 475.37,135.63 C475.37,134.193 475.078,132.824 474.548,131.579 C479.423,130.735 483.148,126.484 483.148,121.37 C483.148,119.453 482.616,117.662 481.705,116.119 C486.883,115.545 490.926,111.144 490.926,105.815 C490.926,100.097 486.274,95.444 480.556,95.444 C477.457,95.444 474.68,96.817 472.778,98.979 C472.553,98.724 472.317,98.482 472.069,98.25 C477.834,93.805 479.165,84.637 479.234,84.127 C479.369,83.139 478.926,82.163 478.092,81.613 C477.261,81.066 476.188,81.042 475.332,81.555 L471.122,84.082 L467.251,77.306 C466.791,76.499 465.931,76 465,76 Z M465,83.818 L467.934,88.953 C468.279,89.558 468.854,89.999 469.529,90.176 C470.206,90.351 470.922,90.249 471.519,89.89 L472.325,89.406 C470.973,92.42 468.696,95.444 465,95.444 C461.304,95.444 459.027,92.42 457.675,89.406 L458.481,89.89 C459.078,90.25 459.795,90.352 460.471,90.176 C461.145,89.999 461.72,89.558 462.066,88.953 L465,83.818 Z M449.444,100.63 C452.304,100.63 454.63,102.955 454.63,105.815 C454.63,108.674 452.304,111 449.444,111 C446.585,111 444.259,108.674 444.259,105.815 C444.259,102.955 446.585,100.63 449.444,100.63 Z M465,100.63 C467.86,100.63 470.185,102.955 470.185,105.815 C470.185,108.674 467.86,111 465,111 C462.14,111 459.815,108.674 459.815,105.815 C459.815,102.955 462.14,100.63 465,100.63 Z M480.556,100.63 C483.415,100.63 485.741,102.955 485.741,105.815 C485.741,108.674 483.415,111 480.556,111 C477.696,111 475.37,108.674 475.37,105.815 C475.37,102.955 477.696,100.63 480.556,100.63 Z M457.222,116.185 C460.082,116.185 462.407,118.511 462.407,121.37 C462.407,124.23 460.082,126.556 457.222,126.556 C454.363,126.556 452.037,124.23 452.037,121.37 C452.037,118.511 454.363,116.185 457.222,116.185 Z M472.778,116.185 C475.637,116.185 477.963,118.511 477.963,121.37 C477.963,124.23 475.637,126.556 472.778,126.556 C469.918,126.556 467.593,124.23 467.593,121.37 C467.593,118.511 469.918,116.185 472.778,116.185 Z M465,130.444 C467.86,130.444 470.185,132.77 470.185,135.63 C470.185,138.489 467.86,140.815 465,140.815 C462.14,140.815 459.815,138.489 459.815,135.63 C459.815,132.77 462.14,130.444 465,130.444 Z" />
        </g>
        <g id="Black-S">
            <path d="M665,76 C664.069,76 663.209,76.499 662.749,77.306 L658.878,84.082 L654.668,81.555 C653.812,81.042 652.74,81.065 651.908,81.613 C651.074,82.163 650.631,83.139 650.766,84.127 C650.835,84.637 652.166,93.805 657.931,98.25 C657.683,98.482 657.447,98.724 657.222,98.979 C655.32,96.817 652.543,95.444 649.444,95.444 C643.726,95.444 639.074,100.097 639.074,105.815 C639.074,111.144 643.117,115.545 648.295,116.119 C647.384,117.662 646.852,119.453 646.852,121.37 C646.852,126.484 650.577,130.735 655.452,131.579 C654.922,132.824 654.63,134.193 654.63,135.63 C654.63,141.348 659.282,146 665,146 C670.718,146 675.37,141.348 675.37,135.63 C675.37,134.193 675.078,132.824 674.547,131.579 C679.423,130.735 683.148,126.484 683.148,121.37 C683.148,119.453 682.616,117.662 681.705,116.119 C686.883,115.545 690.926,111.144 690.926,105.815 C690.926,100.097 686.273,95.444 680.556,95.444 C677.457,95.444 674.68,96.817 672.778,98.979 C672.553,98.724 672.317,98.482 672.069,98.25 C677.834,93.805 679.165,84.637 679.234,84.127 C679.369,83.139 678.926,82.163 678.092,81.613 C677.261,81.066 676.188,81.042 675.332,81.555 L671.122,84.082 L667.251,77.306 C666.791,76.499 665.931,76 665,76 Z M665,83.818 L667.934,88.953 C668.279,89.558 668.854,89.999 669.529,90.176 C670.206,90.351 670.922,90.249 671.519,89.89 L672.325,89.406 C670.973,92.42 668.696,95.444 665,95.444 C661.304,95.444 659.027,92.42 657.675,89.406 L658.481,89.89 C659.078,90.25 659.795,90.352 660.471,90.176 C661.145,89.999 661.719,89.558 662.066,88.953 L665,83.818 Z M649.444,100.63 C652.304,100.63 654.63,102.955 654.63,105.815 C654.63,108.674 652.304,111 649.444,111 C646.585,111 644.259,108.674 644.259,105.815 C644.259,102.955 646.585,100.63 649.444,100.63 Z M665,100.63 C667.86,100.63 670.185,102.955 670.185,105.815 C670.185,108.674 667.86,111 665,111 C662.14,111 659.815,108.674 659.815,105.815 C659.815,102.955 662.14,100.63 665,100.63 Z M680.556,100.63 C683.415,100.63 685.741,102.955 685.741,105.815 C685.741,108.674 683.415,111 680.556,111 C677.696,111 675.37,108.674 675.37,105.815 C675.37,102.955 677.696,100.63 680.556,100.63 Z M657.222,116.185 C660.082,116.185 662.407,118.511 662.407,121.37 C662.407,124.23 660.082,126.556 657.222,126.556 C654.363,126.556 652.037,124.23 652.037,121.37 C652.037,118.511 654.363,116.185 657.222,116.185 Z M672.778,116.185 C675.637,116.185 677.963,118.511 677.963,121.37 C677.963,124.23 675.637,126.556 672.778,126.556 C669.918,126.556 667.593,124.23 667.593,121.37 C667.593,118.511 669.918,116.185 672.778,116.185 Z M665,130.444 C667.86,130.444 670.185,132.77 670.185,135.63 C670.185,138.489 667.86,140.815 665,140.815 C662.14,140.815 659.815,138.489 659.815,135.63 C659.815,132.77 662.14,130.444 665,130.444 Z" />
        </g>
    </g>
</svg>