<?xml version="1.0" encoding="UTF-8"?>
<svg height="600" width="800" xmlns="http://www.w3.org/2000/svg" xmlns:xlink="http://www.w3.org/1999/xlink">
    <g id="Notes" font-family="'LucidaGrande', 'Lucida Grande', sans-serif" font-size="13">
        <rect fill="white" height="600.0" width="800.0" x="0.0" y="0.0" />
        <g font-size="13">
            <text x="18.0" y="176.0">Small</text>
            <text x="18.0" y="376.0">Medium</text>
            <text x="18.0" y="576.0">Large</text>
        </g>
        <g font-size="9">
            <text x="250.0" y="30.0">Ultralight</text>
            <text x="450.0" y="30.0">Regular</text>
            <text x="650.0" y="30.0">Black</text>
            <text id="template-version" fill="#505050" text-anchor="end" x="785.0" y="575.0">Template v.3.0</text>
            <a href="https://wangchujiang.com/#/app">
                <text fill="#505050" text-anchor="end" x="785.0" y="590.0">https://wangchujiang.com/#/app</text>
            </a>
        </g>
    </g>
    <g id="Guides" stroke="rgb(39, 170, 225)" stroke-width="0.5">
        <path id="Capline-S" d="M18,76 l800,0" />
        <path id="H-reference" d="M85,145.755 L87.685,145.755 L113.369,79.287 L114.052,79.287 L114.052,76 L112.148,76 L85,145.755 Z M95.693,121.536 L130.996,121.536 L130.263,119.313 L96.474,119.313 L95.693,121.536 Z M139.15,145.755 L141.787,145.755 L114.638,76 L113.466,76 L113.466,79.287 L139.15,145.755 Z" stroke="none" />
        <path id="Baseline-S" d="M18,146 l800,0" />
        <path id="left-margin-Ultralight-S" d="M221,56 l0,110" />
        <path id="right-margin-Ultralight-S" d="M309,56 l0,110" />
        <path id="left-margin-Regular-S" d="M421,56 l0,110" />
        <path id="right-margin-Regular-S" d="M509,56 l0,110" />
        <path id="left-margin-Black-S" d="M621,56 l0,110" />
        <path id="right-margin-Black-S" d="M709,56 l0,110" />
        <path id="Capline-M" d="M18,276 l800,0" />
        <path id="Baseline-M" d="M18,346 l800,0" />
        <path id="Capline-L" d="M18,476 l800,0" />
        <path id="Baseline-L" d="M18,546 l800,0" />
    </g>
    <g id="Symbols">
        <g id="Ultralight-S">
            <path d="M265.166,104.037 C255.604,102.886 248.392,94.748 248.392,85.106 C248.392,82.455 248.929,79.887 249.984,77.472 C250.42,76.48 251.446,75.894 252.532,76.016 C262.094,77.167 269.306,85.305 269.306,94.947 C269.306,97.598 268.769,100.166 267.714,102.581 C267.319,103.482 265.266,104.048 265.166,104.037 Z M253.841,81.263 C253.49,82.505 253.313,83.792 253.313,85.106 C253.313,91.606 257.73,97.185 263.857,98.79 C264.208,97.548 264.385,96.261 264.385,94.947 C264.385,88.447 259.969,82.868 253.841,81.263 Z" />
            <path d="M274.789,98.093 C285.432,98.82 293.909,109.253 293.909,122.011 C293.909,135.238 284.804,146 273.611,146 C270.628,146 267.681,145.224 265,143.744 C262.319,145.225 259.372,146 256.389,146 C245.196,146 236.091,135.238 236.091,122.011 C236.091,108.784 245.196,98.023 256.389,98.023 C259.372,98.023 262.319,98.799 265,100.279 C267.681,98.799 271.377,97.997 274.789,98.093 Z M273.611,141.079 C282.091,141.079 288.989,132.526 288.989,122.011 C288.989,111.613 282.237,103.145 273.886,102.961 C265.904,103.144 259.464,109.681 259.464,117.706 C259.464,119.064 258.362,120.166 257.004,120.166 C255.646,120.166 254.543,119.064 254.543,117.706 C254.543,112.196 256.825,107.215 260.486,103.639 C259.165,103.182 257.796,102.943 256.389,102.943 C247.909,102.943 241.011,111.497 241.011,122.011 C241.011,132.526 247.909,141.079 256.389,141.079 C258.949,141.079 261.386,140.319 263.634,138.819 C264.048,138.544 264.525,138.406 265,138.406 C265.475,138.406 265.952,138.544 266.366,138.819 C268.613,140.319 271.051,141.079 273.611,141.079 Z" />
        </g>
        <g id="Regular-S">
            <path d="M465.166,104.037 C455.604,102.886 448.392,94.748 448.392,85.106 C448.392,82.455 448.929,79.887 449.984,77.472 C450.42,76.48 451.446,75.894 452.532,76.016 C462.094,77.167 469.306,85.305 469.306,94.947 C469.306,97.598 468.769,100.166 467.714,102.581 C467.319,103.482 465.266,104.048 465.166,104.037 Z M453.841,81.263 C453.49,82.505 453.313,83.792 453.313,85.106 C453.313,91.606 457.73,97.185 463.857,98.79 C464.208,97.548 464.385,96.261 464.385,94.947 C464.385,88.447 459.969,82.868 453.841,81.263 Z" />
            <path d="M474.789,98.093 C485.432,98.82 493.909,109.253 493.909,122.011 C493.909,135.238 484.804,146 473.611,146 C470.628,146 467.681,145.224 465,143.744 C462.319,145.225 459.372,146 456.389,146 C445.196,146 436.091,135.238 436.091,122.011 C436.091,108.784 445.196,98.023 456.389,98.023 C459.372,98.023 462.319,98.799 465,100.279 C467.681,98.799 471.377,97.997 474.789,98.093 Z M473.611,141.079 C482.091,141.079 488.989,132.526 488.989,122.011 C488.989,111.613 482.237,103.145 473.886,102.961 C465.904,103.144 459.464,109.681 459.464,117.706 C459.464,119.064 458.362,120.166 457.004,120.166 C455.646,120.166 454.543,119.064 454.543,117.706 C454.543,112.196 456.825,107.215 460.486,103.639 C459.165,103.182 457.796,102.943 456.389,102.943 C447.909,102.943 441.011,111.497 441.011,122.011 C441.011,132.526 447.909,141.079 456.389,141.079 C458.949,141.079 461.386,140.319 463.634,138.819 C464.048,138.544 464.525,138.406 465,138.406 C465.475,138.406 465.952,138.544 466.366,138.819 C468.613,140.319 471.051,141.079 473.611,141.079 Z" />
        </g>
        <g id="Black-S">
            <path d="M665.166,104.037 C655.604,102.886 648.392,94.748 648.392,85.106 C648.392,82.455 648.929,79.887 649.984,77.472 C650.42,76.48 651.446,75.894 652.532,76.016 C662.094,77.167 669.306,85.305 669.306,94.947 C669.306,97.598 668.769,100.166 667.714,102.581 C667.319,103.482 665.266,104.048 665.166,104.037 Z M653.841,81.263 C653.49,82.505 653.313,83.792 653.313,85.106 C653.313,91.606 657.73,97.185 663.857,98.79 C664.208,97.548 664.385,96.261 664.385,94.947 C664.385,88.447 659.969,82.868 653.841,81.263 Z" />
            <path d="M674.789,98.093 C685.432,98.82 693.909,109.253 693.909,122.011 C693.909,135.238 684.804,146 673.611,146 C670.628,146 667.681,145.224 665,143.744 C662.319,145.225 659.372,146 656.389,146 C645.196,146 636.091,135.238 636.091,122.011 C636.091,108.784 645.196,98.023 656.389,98.023 C659.372,98.023 662.319,98.799 665,100.279 C667.681,98.799 671.377,97.997 674.789,98.093 Z M673.611,141.079 C682.091,141.079 688.989,132.526 688.989,122.011 C688.989,111.613 682.237,103.145 673.886,102.961 C665.904,103.144 659.464,109.681 659.464,117.706 C659.464,119.064 658.362,120.166 657.004,120.166 C655.646,120.166 654.543,119.064 654.543,117.706 C654.543,112.196 656.825,107.215 660.486,103.639 C659.165,103.182 657.796,102.943 656.389,102.943 C647.909,102.943 641.011,111.497 641.011,122.011 C641.011,132.526 647.909,141.079 656.389,141.079 C658.949,141.079 661.386,140.319 663.635,138.819 C664.048,138.544 664.525,138.406 665,138.406 C665.475,138.406 665.952,138.544 666.366,138.819 C668.613,140.319 671.051,141.079 673.611,141.079 Z" />
        </g>
    </g>
</svg>