<?xml version="1.0" encoding="UTF-8"?>
<svg height="600" width="800" xmlns="http://www.w3.org/2000/svg" xmlns:xlink="http://www.w3.org/1999/xlink">
    <g id="Notes" font-family="'LucidaGrande', 'Lucida Grande', sans-serif" font-size="13">
        <rect fill="white" height="600.0" width="800.0" x="0.0" y="0.0" />
        <g font-size="13">
            <text x="18.0" y="176.0">Small</text>
            <text x="18.0" y="376.0">Medium</text>
            <text x="18.0" y="576.0">Large</text>
        </g>
        <g font-size="9">
            <text x="250.0" y="30.0">Ultralight</text>
            <text x="450.0" y="30.0">Regular</text>
            <text x="650.0" y="30.0">Black</text>
            <text id="template-version" fill="#505050" text-anchor="end" x="785.0" y="575.0">Template v.3.0</text>
            <a href="https://wangchujiang.com/#/app">
                <text fill="#505050" text-anchor="end" x="785.0" y="590.0">https://wangchujiang.com/#/app</text>
            </a>
        </g>
    </g>
    <g id="Guides" stroke="rgb(39, 170, 225)" stroke-width="0.5">
        <path id="Capline-S" d="M18,76 l800,0" />
        <path id="H-reference" d="M85,145.755 L87.685,145.755 L113.369,79.287 L114.052,79.287 L114.052,76 L112.148,76 L85,145.755 Z M95.693,121.536 L130.996,121.536 L130.263,119.313 L96.474,119.313 L95.693,121.536 Z M139.15,145.755 L141.787,145.755 L114.638,76 L113.466,76 L113.466,79.287 L139.15,145.755 Z" stroke="none" />
        <path id="Baseline-S" d="M18,146 l800,0" />
        <path id="left-margin-Ultralight-S" d="M221,56 l0,110" />
        <path id="right-margin-Ultralight-S" d="M309,56 l0,110" />
        <path id="left-margin-Regular-S" d="M421,56 l0,110" />
        <path id="right-margin-Regular-S" d="M509,56 l0,110" />
        <path id="left-margin-Black-S" d="M621,56 l0,110" />
        <path id="right-margin-Black-S" d="M709,56 l0,110" />
        <path id="Capline-M" d="M18,276 l800,0" />
        <path id="Baseline-M" d="M18,346 l800,0" />
        <path id="Capline-L" d="M18,476 l800,0" />
        <path id="Baseline-L" d="M18,546 l800,0" />
    </g>
    <g id="Symbols">
        <g id="Ultralight-S">
            <path d="M264.871,132.345 C254.479,132.345 246.023,123.814 246.023,113.329 C246.023,93.518 262.484,77.361 263.186,76.682 C264.125,75.773 265.616,75.773 266.555,76.682 C267.256,77.361 283.718,93.518 283.718,113.329 C283.719,123.814 275.263,132.345 264.871,132.345 Z M264.873,81.961 C260.822,86.511 250.869,99.136 250.869,113.329 C250.869,121.143 257.15,127.499 264.871,127.499 C272.592,127.499 278.873,121.142 278.873,113.329 C278.873,99.102 268.927,86.504 264.873,81.961 Z" />
            <path d="M264.957,122.009 C259.989,122.009 255.946,117.815 255.946,112.659 C255.946,101.796 262.752,92.897 263.042,92.523 C263.501,91.93 264.207,91.585 264.956,91.585 L264.956,91.585 C265.704,91.585 266.411,91.931 266.87,92.523 C267.159,92.896 273.964,101.795 273.964,112.659 C273.967,117.815 269.925,122.009 264.957,122.009 Z M264.957,98.479 C263.174,101.618 260.792,106.891 260.792,112.659 C260.792,115.142 262.66,117.163 264.957,117.163 C267.253,117.163 269.121,115.142 269.121,112.659 C269.121,106.891 266.739,101.618 264.957,98.479 Z" />
            <path d="M293.472,113.473 C293.472,125.339 285.939,135.5 275.336,139.582 C275.044,143.267 270.799,146 265.216,146 C259.721,146 255.517,143.353 255.108,139.755 C244.271,135.79 236.528,125.505 236.528,113.473 C236.528,103.341 240.126,92.745 247.222,81.981 C247.959,80.864 249.461,80.554 250.579,81.292 C251.697,82.029 252.005,83.532 251.268,84.649 C244.703,94.609 241.374,104.307 241.374,113.474 C241.374,123.449 247.841,131.948 256.867,135.212 C258.667,133.465 261.673,132.36 265.217,132.36 C268.685,132.36 271.632,133.419 273.445,135.1 C282.308,131.755 288.626,123.336 288.626,113.474 C288.626,104.305 285.298,94.608 278.733,84.649 C277.997,83.532 278.304,82.029 279.422,81.292 C280.539,80.558 282.043,80.864 282.779,81.981 C289.874,92.743 293.472,103.34 293.472,113.473 Z" />
        </g>
        <g id="Regular-S">
            <path d="M464.871,132.345 C454.479,132.345 446.023,123.814 446.023,113.329 C446.023,93.518 462.484,77.361 463.186,76.682 C464.125,75.773 465.616,75.773 466.555,76.682 C467.256,77.361 483.718,93.518 483.718,113.329 C483.719,123.814 475.263,132.345 464.871,132.345 Z M464.873,81.961 C460.822,86.511 450.869,99.136 450.869,113.329 C450.869,121.143 457.15,127.499 464.871,127.499 C472.592,127.499 478.873,121.142 478.873,113.329 C478.873,99.102 468.927,86.504 464.873,81.961 Z" />
            <path d="M464.957,122.009 C459.989,122.009 455.946,117.815 455.946,112.659 C455.946,101.796 462.752,92.897 463.042,92.523 C463.501,91.93 464.207,91.585 464.956,91.585 L464.956,91.585 C465.704,91.585 466.411,91.931 466.87,92.523 C467.159,92.896 473.964,101.795 473.964,112.659 C473.967,117.815 469.925,122.009 464.957,122.009 Z M464.957,98.479 C463.174,101.618 460.792,106.891 460.792,112.659 C460.792,115.142 462.66,117.163 464.957,117.163 C467.253,117.163 469.121,115.142 469.121,112.659 C469.121,106.891 466.739,101.618 464.957,98.479 Z" />
            <path d="M493.472,113.473 C493.472,125.339 485.939,135.5 475.336,139.582 C475.044,143.267 470.799,146 465.216,146 C459.721,146 455.517,143.353 455.108,139.755 C444.271,135.79 436.528,125.505 436.528,113.473 C436.528,103.341 440.126,92.745 447.222,81.981 C447.959,80.864 449.461,80.554 450.579,81.292 C451.697,82.029 452.005,83.532 451.268,84.649 C444.703,94.609 441.374,104.307 441.374,113.474 C441.374,123.449 447.841,131.948 456.867,135.212 C458.667,133.465 461.673,132.36 465.217,132.36 C468.685,132.36 471.632,133.419 473.445,135.1 C482.308,131.755 488.626,123.336 488.626,113.474 C488.626,104.305 485.298,94.608 478.733,84.649 C477.997,83.532 478.304,82.029 479.422,81.292 C480.539,80.558 482.043,80.864 482.779,81.981 C489.874,92.743 493.472,103.34 493.472,113.473 Z" />
        </g>
        <g id="Black-S">
            <path d="M664.871,132.345 C654.479,132.345 646.023,123.814 646.023,113.329 C646.023,93.518 662.484,77.361 663.186,76.682 C664.125,75.773 665.616,75.773 666.555,76.682 C667.256,77.361 683.718,93.518 683.718,113.329 C683.719,123.814 675.263,132.345 664.871,132.345 Z M664.873,81.961 C660.822,86.511 650.869,99.136 650.869,113.329 C650.869,121.143 657.15,127.499 664.871,127.499 C672.592,127.499 678.873,121.142 678.873,113.329 C678.873,99.102 668.927,86.504 664.873,81.961 Z" />
            <path d="M664.957,122.009 C659.989,122.009 655.946,117.815 655.946,112.659 C655.946,101.796 662.752,92.897 663.042,92.523 C663.501,91.93 664.207,91.585 664.956,91.585 L664.956,91.585 C665.704,91.585 666.411,91.931 666.87,92.523 C667.159,92.896 673.964,101.795 673.964,112.659 C673.967,117.815 669.925,122.009 664.957,122.009 Z M664.957,98.479 C663.174,101.618 660.792,106.891 660.792,112.659 C660.792,115.142 662.66,117.163 664.957,117.163 C667.253,117.163 669.121,115.142 669.121,112.659 C669.121,106.891 666.739,101.618 664.957,98.479 Z" />
            <path d="M693.472,113.473 C693.472,125.339 685.939,135.5 675.336,139.582 C675.044,143.267 670.799,146 665.216,146 C659.721,146 655.517,143.353 655.108,139.755 C644.271,135.79 636.528,125.505 636.528,113.473 C636.528,103.341 640.126,92.745 647.222,81.981 C647.959,80.864 649.461,80.554 650.579,81.292 C651.697,82.029 652.005,83.532 651.268,84.649 C644.703,94.609 641.374,104.307 641.374,113.474 C641.374,123.449 647.841,131.948 656.867,135.212 C658.667,133.465 661.673,132.36 665.217,132.36 C668.685,132.36 671.632,133.419 673.445,135.1 C682.308,131.755 688.626,123.336 688.626,113.474 C688.626,104.305 685.298,94.608 678.733,84.649 C677.997,83.532 678.304,82.029 679.422,81.292 C680.539,80.558 682.043,80.864 682.779,81.981 C689.874,92.743 693.472,103.34 693.472,113.473 Z" />
        </g>
    </g>
</svg>