<?xml version="1.0" encoding="UTF-8"?>
<svg height="600" width="800" xmlns="http://www.w3.org/2000/svg" xmlns:xlink="http://www.w3.org/1999/xlink">
    <g id="Notes" font-family="'LucidaGrande', 'Lucida Grande', sans-serif" font-size="13">
        <rect fill="white" height="600.0" width="800.0" x="0.0" y="0.0" />
        <g font-size="13">
            <text x="18.0" y="176.0">Small</text>
            <text x="18.0" y="376.0">Medium</text>
            <text x="18.0" y="576.0">Large</text>
        </g>
        <g font-size="9">
            <text x="250.0" y="30.0">Ultralight</text>
            <text x="450.0" y="30.0">Regular</text>
            <text x="650.0" y="30.0">Black</text>
            <text id="template-version" fill="#505050" text-anchor="end" x="785.0" y="575.0">Template v.3.0</text>
            <a href="https://wangchujiang.com/#/app">
                <text fill="#505050" text-anchor="end" x="785.0" y="590.0">https://wangchujiang.com/#/app</text>
            </a>
        </g>
    </g>
    <g id="Guides" stroke="rgb(39, 170, 225)" stroke-width="0.5">
        <path id="Capline-S" d="M18,76 l800,0" />
        <path id="H-reference" d="M85,145.755 L87.685,145.755 L113.369,79.287 L114.052,79.287 L114.052,76 L112.148,76 L85,145.755 Z M95.693,121.536 L130.996,121.536 L130.263,119.313 L96.474,119.313 L95.693,121.536 Z M139.15,145.755 L141.787,145.755 L114.638,76 L113.466,76 L113.466,79.287 L139.15,145.755 Z" stroke="none" />
        <path id="Baseline-S" d="M18,146 l800,0" />
        <path id="left-margin-Ultralight-S" d="M221,56 l0,110" />
        <path id="right-margin-Ultralight-S" d="M309,56 l0,110" />
        <path id="left-margin-Regular-S" d="M421,56 l0,110" />
        <path id="right-margin-Regular-S" d="M509,56 l0,110" />
        <path id="left-margin-Black-S" d="M621,56 l0,110" />
        <path id="right-margin-Black-S" d="M709,56 l0,110" />
        <path id="Capline-M" d="M18,276 l800,0" />
        <path id="Baseline-M" d="M18,346 l800,0" />
        <path id="Capline-L" d="M18,476 l800,0" />
        <path id="Baseline-L" d="M18,546 l800,0" />
    </g>
    <g id="Symbols">
        <g id="Ultralight-S">
            <path d="M265,76 C247.557,76 233.32,89.99 232.925,107.34 C232.919,107.586 232.917,107.835 232.917,108.083 C232.917,110.576 234.179,112.775 236.093,114.09 L240.815,138.888 C241.601,143.009 245.216,146 249.411,146 L265,146 L280.589,146 C284.784,146 288.4,143.009 289.185,138.888 L293.907,114.09 C295.821,112.775 297.083,110.576 297.083,108.083 C297.083,107.835 297.081,107.588 297.075,107.34 C296.68,89.992 282.443,76 265,76 Z M265,81.833 C269.338,81.833 273.426,82.902 277.034,84.773 C275.193,84.883 273.75,85.804 273.75,86.938 C273.75,88.145 275.382,89.125 277.396,89.125 C279.205,89.125 280.696,88.333 280.982,87.296 C287.035,91.962 291.015,99.191 291.239,107.354 C291.246,107.596 291.25,107.84 291.25,108.083 C291.25,108.887 290.597,109.542 289.792,109.542 L240.208,109.542 C239.403,109.542 238.75,108.887 238.75,108.083 C238.75,107.849 238.753,107.616 238.759,107.383 C238.956,99.915 242.305,93.236 247.5,88.572 C247.723,89.244 248.153,89.952 248.782,90.58 C250.205,92.004 252.049,92.466 252.903,91.612 C253.758,90.757 253.295,88.913 251.872,87.49 C251.374,86.992 250.827,86.618 250.286,86.371 C254.487,83.514 259.548,81.833 265,81.833 Z M269.281,93.323 C268.406,93.375 267.351,93.889 266.461,94.779 C265.038,96.202 264.576,98.049 265.43,98.903 C266.283,99.758 268.131,99.295 269.554,97.872 C270.978,96.449 271.44,94.602 270.586,93.748 C270.265,93.428 269.806,93.292 269.281,93.323 Z M281.318,97.881 C280.793,97.85 280.334,97.985 280.013,98.305 C279.159,99.158 279.621,101.006 281.044,102.429 C282.468,103.853 284.314,104.315 285.169,103.461 C286.022,102.606 285.561,100.76 284.138,99.336 C283.248,98.447 282.193,97.933 281.318,97.881 Z M249.688,99.333 C247.674,99.333 246.042,100.313 246.042,101.521 C246.042,102.728 247.674,103.708 249.688,103.708 C251.701,103.708 253.333,102.728 253.333,101.521 C253.333,100.313 251.701,99.333 249.688,99.333 Z M242.276,115.375 L287.724,115.375 L283.454,137.797 C283.192,139.169 281.987,140.167 280.589,140.167 L278.609,140.167 L281.007,124.569 C281.252,122.977 280.159,121.488 278.566,121.243 C276.986,120.992 275.488,122.088 275.242,123.681 L272.708,140.167 L267.917,140.167 L267.917,124.125 C267.917,122.515 266.61,121.208 265,121.208 C263.39,121.208 262.083,122.515 262.083,124.125 L262.083,140.167 L257.292,140.167 L254.757,123.681 C254.511,122.088 253.009,120.992 251.431,121.243 C249.838,121.488 248.748,122.977 248.993,124.569 L251.391,140.167 L249.411,140.167 C248.013,140.167 246.807,139.169 246.546,137.797 L242.276,115.375 Z" />
        </g>
        <g id="Regular-S">
            <path d="M465,76 C447.557,76 433.32,89.99 432.925,107.34 C432.919,107.586 432.917,107.835 432.917,108.083 C432.917,110.576 434.179,112.775 436.093,114.09 L440.815,138.888 C441.601,143.009 445.216,146 449.411,146 L465,146 L480.589,146 C484.784,146 488.4,143.009 489.185,138.888 L493.907,114.09 C495.821,112.775 497.083,110.576 497.083,108.083 C497.083,107.835 497.081,107.588 497.075,107.34 C496.68,89.992 482.443,76 465,76 Z M465,81.833 C469.338,81.833 473.426,82.902 477.034,84.773 C475.193,84.883 473.75,85.804 473.75,86.938 C473.75,88.145 475.382,89.125 477.396,89.125 C479.205,89.125 480.696,88.333 480.982,87.296 C487.035,91.962 491.015,99.191 491.239,107.354 C491.246,107.596 491.25,107.84 491.25,108.083 C491.25,108.887 490.597,109.542 489.792,109.542 L440.208,109.542 C439.403,109.542 438.75,108.887 438.75,108.083 C438.75,107.849 438.753,107.616 438.759,107.383 C438.956,99.915 442.305,93.236 447.5,88.572 C447.723,89.244 448.153,89.952 448.782,90.58 C450.205,92.004 452.049,92.466 452.903,91.612 C453.758,90.757 453.296,88.913 451.872,87.49 C451.374,86.992 450.827,86.618 450.286,86.371 C454.487,83.514 459.548,81.833 465,81.833 Z M469.281,93.323 C468.406,93.375 467.351,93.889 466.461,94.779 C465.038,96.202 464.576,98.049 465.43,98.903 C466.283,99.758 468.131,99.295 469.554,97.872 C470.978,96.449 471.44,94.602 470.586,93.748 C470.265,93.428 469.806,93.292 469.281,93.323 Z M481.318,97.881 C480.793,97.85 480.334,97.985 480.013,98.305 C479.159,99.158 479.621,101.006 481.045,102.429 C482.468,103.853 484.314,104.315 485.169,103.461 C486.022,102.606 485.561,100.76 484.138,99.336 C483.248,98.447 482.193,97.933 481.318,97.881 Z M449.688,99.333 C447.674,99.333 446.042,100.313 446.042,101.521 C446.042,102.728 447.674,103.708 449.688,103.708 C451.701,103.708 453.333,102.728 453.333,101.521 C453.333,100.313 451.701,99.333 449.688,99.333 Z M442.276,115.375 L487.724,115.375 L483.454,137.797 C483.192,139.169 481.987,140.167 480.589,140.167 L478.609,140.167 L481.008,124.569 C481.253,122.977 480.159,121.488 478.566,121.243 C476.986,120.992 475.488,122.088 475.243,123.681 L472.708,140.167 L467.917,140.167 L467.917,124.125 C467.917,122.515 466.61,121.208 465,121.208 C463.39,121.208 462.083,122.515 462.083,124.125 L462.083,140.167 L457.292,140.167 L454.758,123.681 C454.511,122.088 453.009,120.992 451.431,121.243 C449.838,121.488 448.748,122.977 448.993,124.569 L451.391,140.167 L449.411,140.167 C448.013,140.167 446.807,139.169 446.546,137.797 L442.276,115.375 Z" />
        </g>
        <g id="Black-S">
            <path d="M665,76 C647.557,76 633.32,89.99 632.925,107.34 C632.919,107.586 632.917,107.835 632.917,108.083 C632.917,110.576 634.179,112.775 636.093,114.09 L640.815,138.888 C641.601,143.009 645.216,146 649.411,146 L665,146 L680.589,146 C684.784,146 688.4,143.009 689.185,138.888 L693.907,114.09 C695.821,112.775 697.083,110.576 697.083,108.083 C697.083,107.835 697.081,107.588 697.075,107.34 C696.68,89.992 682.443,76 665,76 Z M665,81.833 C669.338,81.833 673.426,82.902 677.034,84.773 C675.193,84.883 673.75,85.804 673.75,86.938 C673.75,88.145 675.382,89.125 677.396,89.125 C679.205,89.125 680.696,88.333 680.982,87.296 C687.035,91.962 691.015,99.191 691.239,107.354 C691.246,107.596 691.25,107.84 691.25,108.083 C691.25,108.887 690.597,109.542 689.792,109.542 L640.208,109.542 C639.403,109.542 638.75,108.887 638.75,108.083 C638.75,107.849 638.753,107.616 638.759,107.383 C638.956,99.915 642.305,93.236 647.5,88.572 C647.723,89.244 648.153,89.952 648.782,90.58 C650.205,92.004 652.049,92.466 652.903,91.612 C653.758,90.757 653.295,88.913 651.872,87.49 C651.374,86.992 650.827,86.618 650.286,86.371 C654.487,83.514 659.548,81.833 665,81.833 Z M669.281,93.323 C668.406,93.375 667.351,93.889 666.461,94.779 C665.038,96.202 664.576,98.049 665.43,98.903 C666.283,99.758 668.131,99.295 669.554,97.872 C670.978,96.449 671.44,94.602 670.586,93.748 C670.265,93.428 669.806,93.292 669.281,93.323 Z M681.318,97.881 C680.793,97.85 680.334,97.985 680.013,98.305 C679.159,99.158 679.621,101.006 681.044,102.429 C682.468,103.853 684.314,104.315 685.169,103.461 C686.022,102.606 685.561,100.76 684.138,99.336 C683.248,98.447 682.193,97.933 681.318,97.881 Z M649.688,99.333 C647.674,99.333 646.042,100.313 646.042,101.521 C646.042,102.728 647.674,103.708 649.688,103.708 C651.701,103.708 653.333,102.728 653.333,101.521 C653.333,100.313 651.701,99.333 649.688,99.333 Z M642.276,115.375 L687.724,115.375 L683.454,137.797 C683.192,139.169 681.987,140.167 680.589,140.167 L678.609,140.167 L681.007,124.569 C681.252,122.977 680.159,121.488 678.566,121.243 C676.986,120.992 675.487,122.088 675.242,123.681 L672.708,140.167 L667.917,140.167 L667.917,124.125 C667.917,122.515 666.61,121.208 665,121.208 C663.39,121.208 662.083,122.515 662.083,124.125 L662.083,140.167 L657.292,140.167 L654.757,123.681 C654.511,122.088 653.009,120.992 651.431,121.243 C649.838,121.488 648.747,122.977 648.992,124.569 L651.391,140.167 L649.411,140.167 C648.013,140.167 646.807,139.169 646.546,137.797 L642.276,115.375 Z" />
        </g>
    </g>
</svg>