<?xml version="1.0" encoding="UTF-8"?>
<svg height="600" width="800" xmlns="http://www.w3.org/2000/svg" xmlns:xlink="http://www.w3.org/1999/xlink">
    <g id="Notes" font-family="'LucidaGrande', 'Lucida Grande', sans-serif" font-size="13">
        <rect fill="white" height="600.0" width="800.0" x="0.0" y="0.0" />
        <g font-size="13">
            <text x="18.0" y="176.0">Small</text>
            <text x="18.0" y="376.0">Medium</text>
            <text x="18.0" y="576.0">Large</text>
        </g>
        <g font-size="9">
            <text x="250.0" y="30.0">Ultralight</text>
            <text x="450.0" y="30.0">Regular</text>
            <text x="650.0" y="30.0">Black</text>
            <text id="template-version" fill="#505050" text-anchor="end" x="785.0" y="575.0">Template v.3.0</text>
            <a href="https://wangchujiang.com/#/app">
                <text fill="#505050" text-anchor="end" x="785.0" y="590.0">https://wangchujiang.com/#/app</text>
            </a>
        </g>
    </g>
    <g id="Guides" stroke="rgb(39, 170, 225)" stroke-width="0.5">
        <path id="Capline-S" d="M18,76 l800,0" />
        <path id="H-reference" d="M85,145.755 L87.685,145.755 L113.369,79.287 L114.052,79.287 L114.052,76 L112.148,76 L85,145.755 Z M95.693,121.536 L130.996,121.536 L130.263,119.313 L96.474,119.313 L95.693,121.536 Z M139.15,145.755 L141.787,145.755 L114.638,76 L113.466,76 L113.466,79.287 L139.15,145.755 Z" stroke="none" />
        <path id="Baseline-S" d="M18,146 l800,0" />
        <path id="left-margin-Ultralight-S" d="M219.211,56 l0,110" />
        <path id="right-margin-Ultralight-S" d="M310.789,56 l0,110" />
        <path id="left-margin-Regular-S" d="M419.211,56 l0,110" />
        <path id="right-margin-Regular-S" d="M510.789,56 l0,110" />
        <path id="left-margin-Black-S" d="M619.211,56 l0,110" />
        <path id="right-margin-Black-S" d="M710.789,56 l0,110" />
        <path id="Capline-M" d="M18,276 l800,0" />
        <path id="Baseline-M" d="M18,346 l800,0" />
        <path id="Capline-L" d="M18,476 l800,0" />
        <path id="Baseline-L" d="M18,546 l800,0" />
    </g>
    <g id="Symbols">
        <g id="Ultralight-S">
            <path d="M248.513,76.003 C242.039,75.868 235.925,79.887 233.753,86.305 C227.702,104.198 227.697,117.57 233.737,135.638 C235.806,141.835 241.607,146 248.173,146 C249.797,146 251.413,145.74 252.961,145.227 C260.596,142.712 264.775,134.585 262.681,126.324 C260.015,115.804 258.678,108.508 262.618,95.879 C265.138,87.808 260.918,79.418 253.009,76.782 C251.52,76.287 250.007,76.035 248.513,76.003 Z M285.956,76.003 C279.483,75.868 273.368,79.887 271.196,86.305 C265.145,104.198 265.141,117.57 271.18,135.638 C273.25,141.835 279.05,146 285.616,146 C287.241,146 288.856,145.74 290.405,145.227 C298.04,142.712 302.218,134.585 300.125,126.324 C297.458,115.804 296.121,108.508 300.061,95.879 C302.581,87.808 298.361,79.418 290.452,76.782 C288.964,76.287 287.45,76.035 285.956,76.003 Z M248.179,82.512 C249.099,82.512 250.033,82.654 250.952,82.96 C255.463,84.465 257.857,89.287 256.405,93.94 C251.975,108.139 253.596,116.982 256.37,127.927 C257.631,132.912 255.345,137.586 250.923,139.043 C250.031,139.338 249.102,139.488 248.173,139.488 C244.414,139.488 241.095,137.113 239.912,133.574 C234.308,116.809 234.311,104.985 239.921,88.394 C241.141,84.79 244.54,82.512 248.179,82.512 Z M285.622,82.512 C286.542,82.512 287.477,82.654 288.395,82.96 C292.906,84.465 295.3,89.287 293.848,93.94 C289.418,108.139 291.039,116.982 293.813,127.927 C295.075,132.912 292.788,137.586 288.366,139.043 C287.474,139.338 286.546,139.488 285.616,139.488 C281.857,139.488 278.539,137.113 277.355,133.574 C271.752,116.809 271.755,104.985 277.365,88.394 C278.584,84.79 281.984,82.512 285.622,82.512 Z M248.742,92.277 C247.909,92.277 247.075,92.595 246.44,93.231 L241.556,98.115 C240.284,99.386 240.284,101.447 241.556,102.719 C242.192,103.355 243.024,103.673 243.858,103.673 C244.691,103.673 245.523,103.355 246.16,102.719 L251.044,97.835 C252.315,96.563 252.315,94.502 251.044,93.231 C250.408,92.595 249.575,92.277 248.742,92.277 Z M286.185,92.277 C285.352,92.277 284.519,92.595 283.883,93.231 L278.999,98.115 C277.728,99.386 277.728,101.447 278.999,102.719 C279.636,103.355 280.468,103.673 281.301,103.673 C282.135,103.673 282.967,103.355 283.603,102.719 L288.487,97.835 C289.759,96.563 289.759,94.502 288.487,93.231 C287.852,92.595 287.018,92.277 286.185,92.277 Z M247.114,105.301 C246.281,105.301 245.447,105.619 244.812,106.254 L239.928,111.138 C238.656,112.41 238.656,114.471 239.928,115.743 C240.564,116.379 241.396,116.696 242.23,116.696 C243.063,116.696 243.895,116.379 244.532,115.743 L249.416,110.859 C250.687,109.587 250.687,107.526 249.416,106.254 C248.78,105.619 247.947,105.301 247.114,105.301 Z M284.557,105.301 C283.724,105.301 282.891,105.619 282.255,106.254 L277.371,111.138 C276.1,112.41 276.1,114.471 277.371,115.743 C278.008,116.379 278.84,116.696 279.673,116.696 C280.507,116.696 281.339,116.379 281.975,115.743 L286.859,110.859 C288.131,109.587 288.131,107.526 286.859,106.254 C286.224,105.619 285.39,105.301 284.557,105.301 Z M248.742,118.324 C247.909,118.324 247.075,118.643 246.44,119.278 L241.556,124.162 C240.284,125.434 240.284,127.495 241.556,128.766 C242.192,129.403 243.024,129.72 243.858,129.72 C244.691,129.72 245.523,129.403 246.16,128.766 L251.044,123.882 C252.315,122.611 252.315,120.55 251.044,119.278 C250.408,118.643 249.575,118.324 248.742,118.324 Z M286.185,118.324 C285.352,118.324 284.519,118.643 283.883,119.278 L278.999,124.162 C277.728,125.434 277.728,127.495 278.999,128.766 C279.636,129.403 280.468,129.72 281.301,129.72 C282.135,129.72 282.967,129.403 283.603,128.766 L288.487,123.882 C289.759,122.611 289.759,120.55 288.487,119.278 C287.852,118.643 287.018,118.324 286.185,118.324 Z" />
        </g>
        <g id="Regular-S">
            <path d="M448.513,76.003 C442.039,75.868 435.925,79.887 433.753,86.305 C427.702,104.198 427.697,117.57 433.737,135.638 C435.806,141.835 441.607,146 448.173,146 C449.797,146 451.413,145.74 452.961,145.227 C460.596,142.712 464.775,134.585 462.681,126.324 C460.015,115.804 458.678,108.508 462.618,95.879 C465.138,87.808 460.918,79.418 453.009,76.782 C451.52,76.287 450.007,76.035 448.513,76.003 Z M485.956,76.003 C479.483,75.868 473.368,79.887 471.196,86.305 C465.145,104.198 465.141,117.57 471.18,135.638 C473.25,141.835 479.05,146 485.616,146 C487.241,146 488.856,145.74 490.405,145.227 C498.04,142.712 502.218,134.585 500.125,126.324 C497.458,115.804 496.121,108.508 500.061,95.879 C502.581,87.808 498.361,79.418 490.452,76.782 C488.964,76.287 487.45,76.035 485.956,76.003 Z M448.179,82.512 C449.099,82.512 450.033,82.654 450.952,82.96 C455.463,84.465 457.857,89.287 456.405,93.94 C451.975,108.139 453.596,116.982 456.37,127.927 C457.631,132.912 455.345,137.586 450.923,139.043 C450.031,139.338 449.102,139.488 448.173,139.488 C444.414,139.488 441.095,137.113 439.912,133.574 C434.308,116.809 434.311,104.985 439.921,88.394 C441.141,84.79 444.54,82.512 448.179,82.512 Z M485.622,82.512 C486.542,82.512 487.477,82.654 488.395,82.96 C492.906,84.465 495.3,89.287 493.848,93.94 C489.418,108.139 491.039,116.982 493.813,127.927 C495.075,132.912 492.788,137.586 488.366,139.043 C487.474,139.338 486.546,139.488 485.616,139.488 C481.857,139.488 478.539,137.113 477.355,133.574 C471.752,116.809 471.755,104.985 477.365,88.394 C478.584,84.79 481.984,82.512 485.622,82.512 Z M448.742,92.277 C447.909,92.277 447.075,92.595 446.44,93.231 L441.556,98.115 C440.284,99.386 440.284,101.447 441.556,102.719 C442.192,103.355 443.024,103.673 443.858,103.673 C444.691,103.673 445.523,103.355 446.16,102.719 L451.044,97.835 C452.315,96.563 452.315,94.502 451.044,93.231 C450.408,92.595 449.575,92.277 448.742,92.277 Z M486.185,92.277 C485.352,92.277 484.519,92.595 483.883,93.231 L478.999,98.115 C477.728,99.386 477.728,101.447 478.999,102.719 C479.636,103.355 480.468,103.673 481.301,103.673 C482.135,103.673 482.967,103.355 483.603,102.719 L488.487,97.835 C489.759,96.563 489.759,94.502 488.487,93.231 C487.852,92.595 487.018,92.277 486.185,92.277 Z M447.114,105.301 C446.281,105.301 445.447,105.619 444.812,106.254 L439.928,111.138 C438.656,112.41 438.656,114.471 439.928,115.743 C440.564,116.379 441.396,116.696 442.23,116.696 C443.063,116.696 443.895,116.379 444.532,115.743 L449.416,110.859 C450.687,109.587 450.687,107.526 449.416,106.254 C448.78,105.619 447.947,105.301 447.114,105.301 Z M484.557,105.301 C483.724,105.301 482.891,105.619 482.255,106.254 L477.371,111.138 C476.1,112.41 476.1,114.471 477.371,115.743 C478.008,116.379 478.84,116.696 479.673,116.696 C480.507,116.696 481.339,116.379 481.975,115.743 L486.859,110.859 C488.131,109.587 488.131,107.526 486.859,106.254 C486.224,105.619 485.39,105.301 484.557,105.301 Z M448.742,118.324 C447.909,118.324 447.075,118.643 446.44,119.278 L441.556,124.162 C440.284,125.434 440.284,127.495 441.556,128.766 C442.192,129.403 443.024,129.72 443.858,129.72 C444.691,129.72 445.523,129.403 446.16,128.766 L451.044,123.882 C452.315,122.611 452.315,120.55 451.044,119.278 C450.408,118.643 449.575,118.324 448.742,118.324 Z M486.185,118.324 C485.352,118.324 484.519,118.643 483.883,119.278 L478.999,124.162 C477.728,125.434 477.728,127.495 478.999,128.766 C479.636,129.403 480.468,129.72 481.301,129.72 C482.135,129.72 482.967,129.403 483.603,128.766 L488.487,123.882 C489.759,122.611 489.759,120.55 488.487,119.278 C487.852,118.643 487.018,118.324 486.185,118.324 Z" />
        </g>
        <g id="Black-S">
            <path d="M648.513,76.003 C642.039,75.868 635.925,79.887 633.753,86.305 C627.702,104.198 627.697,117.57 633.737,135.638 C635.806,141.835 641.607,146 648.173,146 C649.797,146 651.413,145.74 652.961,145.227 C660.596,142.712 664.775,134.585 662.681,126.324 C660.015,115.804 658.678,108.508 662.618,95.879 C665.138,87.808 660.918,79.418 653.009,76.782 C651.52,76.287 650.007,76.035 648.513,76.003 Z M685.956,76.003 C679.483,75.868 673.368,79.887 671.196,86.305 C665.145,104.198 665.141,117.57 671.18,135.638 C673.25,141.835 679.05,146 685.616,146 C687.241,146 688.856,145.74 690.405,145.227 C698.04,142.712 702.218,134.585 700.125,126.324 C697.458,115.804 696.122,108.508 700.061,95.879 C702.581,87.808 698.361,79.418 690.452,76.782 C688.964,76.287 687.45,76.035 685.956,76.003 Z M648.179,82.512 C649.099,82.512 650.033,82.654 650.952,82.96 C655.463,84.465 657.857,89.287 656.405,93.94 C651.975,108.139 653.596,116.982 656.37,127.927 C657.631,132.912 655.345,137.586 650.923,139.043 C650.031,139.338 649.102,139.488 648.173,139.488 C644.414,139.488 641.095,137.113 639.912,133.574 C634.308,116.809 634.311,104.985 639.921,88.394 C641.141,84.79 644.54,82.512 648.179,82.512 Z M685.622,82.512 C686.542,82.512 687.477,82.654 688.395,82.96 C692.906,84.465 695.3,89.287 693.848,93.94 C689.418,108.139 691.039,116.982 693.813,127.927 C695.075,132.912 692.788,137.586 688.366,139.043 C687.474,139.338 686.546,139.488 685.616,139.488 C681.857,139.488 678.539,137.113 677.355,133.574 C671.752,116.809 671.755,104.985 677.365,88.394 C678.584,84.79 681.984,82.512 685.622,82.512 Z M648.742,92.277 C647.909,92.277 647.075,92.595 646.44,93.231 L641.556,98.115 C640.284,99.386 640.284,101.447 641.556,102.719 C642.192,103.355 643.024,103.673 643.858,103.673 C644.691,103.673 645.523,103.355 646.16,102.719 L651.044,97.835 C652.315,96.563 652.315,94.502 651.044,93.231 C650.408,92.595 649.575,92.277 648.742,92.277 Z M686.185,92.277 C685.352,92.277 684.519,92.595 683.883,93.231 L678.999,98.115 C677.728,99.386 677.728,101.447 678.999,102.719 C679.636,103.355 680.468,103.673 681.301,103.673 C682.135,103.673 682.967,103.355 683.603,102.719 L688.487,97.835 C689.759,96.563 689.759,94.502 688.487,93.231 C687.852,92.595 687.018,92.277 686.185,92.277 Z M647.114,105.301 C646.281,105.301 645.447,105.619 644.812,106.254 L639.928,111.138 C638.656,112.41 638.656,114.471 639.928,115.743 C640.564,116.379 641.396,116.696 642.23,116.696 C643.063,116.696 643.895,116.379 644.532,115.743 L649.416,110.859 C650.687,109.587 650.687,107.526 649.416,106.254 C648.78,105.619 647.947,105.301 647.114,105.301 Z M684.557,105.301 C683.724,105.301 682.891,105.619 682.255,106.254 L677.371,111.138 C676.1,112.41 676.1,114.471 677.371,115.743 C678.008,116.379 678.84,116.696 679.673,116.696 C680.507,116.696 681.339,116.379 681.975,115.743 L686.859,110.859 C688.131,109.587 688.131,107.526 686.859,106.254 C686.224,105.619 685.39,105.301 684.557,105.301 Z M648.742,118.324 C647.909,118.324 647.075,118.643 646.44,119.278 L641.556,124.162 C640.284,125.434 640.284,127.495 641.556,128.766 C642.192,129.403 643.024,129.72 643.858,129.72 C644.691,129.72 645.523,129.403 646.16,128.766 L651.044,123.882 C652.315,122.611 652.315,120.55 651.044,119.278 C650.408,118.643 649.575,118.324 648.742,118.324 Z M686.185,118.324 C685.352,118.324 684.519,118.643 683.883,119.278 L678.999,124.162 C677.728,125.434 677.728,127.495 678.999,128.766 C679.636,129.403 680.468,129.72 681.301,129.72 C682.135,129.72 682.967,129.403 683.603,128.766 L688.487,123.882 C689.759,122.611 689.759,120.55 688.487,119.278 C687.852,118.643 687.018,118.324 686.185,118.324 Z" />
        </g>
    </g>
</svg>