<?xml version="1.0" encoding="UTF-8"?>
<svg height="600" width="800" xmlns="http://www.w3.org/2000/svg" xmlns:xlink="http://www.w3.org/1999/xlink">
    <g id="Notes" font-family="'LucidaGrande', 'Lucida Grande', sans-serif" font-size="13">
        <rect fill="white" height="600.0" width="800.0" x="0.0" y="0.0" />
        <g font-size="13">
            <text x="18.0" y="176.0">Small</text>
            <text x="18.0" y="376.0">Medium</text>
            <text x="18.0" y="576.0">Large</text>
        </g>
        <g font-size="9">
            <text x="250.0" y="30.0">Ultralight</text>
            <text x="450.0" y="30.0">Regular</text>
            <text x="650.0" y="30.0">Black</text>
            <text id="template-version" fill="#505050" text-anchor="end" x="785.0" y="575.0">Template v.3.0</text>
            <a href="https://wangchujiang.com/#/app">
                <text fill="#505050" text-anchor="end" x="785.0" y="590.0">https://wangchujiang.com/#/app</text>
            </a>
        </g>
    </g>
    <g id="Guides" stroke="rgb(39, 170, 225)" stroke-width="0.5">
        <path id="Capline-S" d="M18,76 l800,0" />
        <path id="H-reference" d="M85,145.755 L87.685,145.755 L113.369,79.287 L114.052,79.287 L114.052,76 L112.148,76 L85,145.755 Z M95.693,121.536 L130.996,121.536 L130.263,119.313 L96.474,119.313 L95.693,121.536 Z M139.15,145.755 L141.787,145.755 L114.638,76 L113.466,76 L113.466,79.287 L139.15,145.755 Z" stroke="none" />
        <path id="Baseline-S" d="M18,146 l800,0" />
        <path id="left-margin-Ultralight-S" d="M221,56 l0,110" />
        <path id="right-margin-Ultralight-S" d="M309,56 l0,110" />
        <path id="left-margin-Regular-S" d="M421,56 l0,110" />
        <path id="right-margin-Regular-S" d="M509,56 l0,110" />
        <path id="left-margin-Black-S" d="M621,56 l0,110" />
        <path id="right-margin-Black-S" d="M709,56 l0,110" />
        <path id="Capline-M" d="M18,276 l800,0" />
        <path id="Baseline-M" d="M18,346 l800,0" />
        <path id="Capline-L" d="M18,476 l800,0" />
        <path id="Baseline-L" d="M18,546 l800,0" />
    </g>
    <g id="Symbols">
        <g id="Ultralight-S">
            <path d="M254.231,76 C252.745,76 251.538,77.206 251.538,78.692 C251.538,80.084 252.6,81.215 253.955,81.356 L247.529,94.418 C246.63,96.022 246.154,97.841 246.154,99.684 L246.154,137.923 C246.154,142.378 249.776,146 254.231,146 L275.769,146 C280.224,146 283.846,142.378 283.846,137.923 L283.846,99.684 C283.846,97.842 283.37,96.024 282.471,94.418 L276.045,81.356 C277.4,81.215 278.462,80.084 278.462,78.692 C278.462,77.206 277.255,76 275.769,76 L254.231,76 Z M259.944,81.385 L270.056,81.385 C271.285,83.881 277.726,96.968 277.752,97.013 C277.849,97.182 277.932,97.36 278.009,97.538 L251.991,97.538 C252.068,97.36 252.151,97.182 252.248,97.013 C252.274,96.967 258.715,83.881 259.944,81.385 Z M251.538,102.923 L278.462,102.923 L278.462,137.923 C278.462,139.408 277.254,140.615 275.769,140.615 L254.231,140.615 C252.746,140.615 251.538,139.408 251.538,137.923 L251.538,102.923 Z" />
        </g>
        <g id="Regular-S">
            <path d="M454.231,76 C452.745,76 451.538,77.206 451.538,78.692 C451.538,80.084 452.6,81.215 453.955,81.356 L447.529,94.418 C446.63,96.022 446.154,97.841 446.154,99.684 L446.154,137.923 C446.154,142.378 449.776,146 454.231,146 L475.769,146 C480.224,146 483.846,142.378 483.846,137.923 L483.846,99.684 C483.846,97.842 483.37,96.024 482.471,94.418 L476.045,81.356 C477.4,81.215 478.462,80.084 478.462,78.692 C478.462,77.206 477.255,76 475.769,76 L454.231,76 Z M459.944,81.385 L470.056,81.385 C471.285,83.881 477.726,96.968 477.752,97.013 C477.849,97.182 477.932,97.36 478.009,97.538 L451.991,97.538 C452.068,97.36 452.151,97.182 452.248,97.013 C452.274,96.967 458.715,83.881 459.944,81.385 Z M451.538,102.923 L478.462,102.923 L478.462,137.923 C478.462,139.408 477.254,140.615 475.769,140.615 L454.231,140.615 C452.746,140.615 451.538,139.408 451.538,137.923 L451.538,102.923 Z" />
        </g>
        <g id="Black-S">
            <path d="M654.231,76 C652.745,76 651.538,77.206 651.538,78.692 C651.538,80.084 652.6,81.215 653.955,81.356 L647.529,94.418 C646.63,96.022 646.154,97.841 646.154,99.684 L646.154,137.923 C646.154,142.378 649.776,146 654.231,146 L675.769,146 C680.224,146 683.846,142.378 683.846,137.923 L683.846,99.684 C683.846,97.842 683.37,96.024 682.471,94.418 L676.045,81.356 C677.4,81.215 678.462,80.084 678.462,78.692 C678.462,77.206 677.255,76 675.769,76 L654.231,76 Z M659.944,81.385 L670.056,81.385 C671.285,83.881 677.726,96.968 677.752,97.013 C677.849,97.182 677.932,97.36 678.009,97.538 L651.991,97.538 C652.068,97.36 652.151,97.182 652.248,97.013 C652.274,96.967 658.715,83.881 659.944,81.385 Z M651.538,102.923 L678.462,102.923 L678.462,137.923 C678.462,139.408 677.254,140.615 675.769,140.615 L654.231,140.615 C652.746,140.615 651.538,139.408 651.538,137.923 L651.538,102.923 Z" />
        </g>
    </g>
</svg>