<?xml version="1.0" encoding="UTF-8"?>
<svg height="600" width="800" xmlns="http://www.w3.org/2000/svg" xmlns:xlink="http://www.w3.org/1999/xlink">
    <g id="Notes" font-family="'LucidaGrande', 'Lucida Grande', sans-serif" font-size="13">
        <rect fill="white" height="600.0" width="800.0" x="0.0" y="0.0" />
        <g font-size="13">
            <text x="18.0" y="176.0">Small</text>
            <text x="18.0" y="376.0">Medium</text>
            <text x="18.0" y="576.0">Large</text>
        </g>
        <g font-size="9">
            <text x="250.0" y="30.0">Ultralight</text>
            <text x="450.0" y="30.0">Regular</text>
            <text x="650.0" y="30.0">Black</text>
            <text id="template-version" fill="#505050" text-anchor="end" x="785.0" y="575.0">Template v.3.0</text>
            <a href="https://wangchujiang.com/#/app">
                <text fill="#505050" text-anchor="end" x="785.0" y="590.0">https://wangchujiang.com/#/app</text>
            </a>
        </g>
    </g>
    <g id="Guides" stroke="rgb(39, 170, 225)" stroke-width="0.5">
        <path id="Capline-S" d="M18,76 l800,0" />
        <path id="H-reference" d="M85,145.755 L87.685,145.755 L113.369,79.287 L114.052,79.287 L114.052,76 L112.148,76 L85,145.755 Z M95.693,121.536 L130.996,121.536 L130.263,119.313 L96.474,119.313 L95.693,121.536 Z M139.15,145.755 L141.787,145.755 L114.638,76 L113.466,76 L113.466,79.287 L139.15,145.755 Z" stroke="none" />
        <path id="Baseline-S" d="M18,146 l800,0" />
        <path id="left-margin-Ultralight-S" d="M221,56 l0,110" />
        <path id="right-margin-Ultralight-S" d="M309,56 l0,110" />
        <path id="left-margin-Regular-S" d="M421,56 l0,110" />
        <path id="right-margin-Regular-S" d="M509,56 l0,110" />
        <path id="left-margin-Black-S" d="M621,56 l0,110" />
        <path id="right-margin-Black-S" d="M709,56 l0,110" />
        <path id="Capline-M" d="M18,276 l800,0" />
        <path id="Baseline-M" d="M18,346 l800,0" />
        <path id="Capline-L" d="M18,476 l800,0" />
        <path id="Baseline-L" d="M18,546 l800,0" />
    </g>
    <g id="Symbols">
        <g id="Ultralight-S">
            <path d="M279.083,76 C276.391,76 274.871,78.434 277.064,81.385 C279.669,84.889 279.792,88.339 279.102,90.929 C276.458,92.19 273.804,94.786 273.804,100.149 C273.804,104.613 265.291,115.107 256.909,119.324 C240.786,127.439 234.552,132.123 234.027,136.543 C234.002,136.71 232.485,146 245.869,146 C275.348,146 296.036,118.254 296.036,103.231 C296.036,95.656 292.356,91.921 288.357,90.484 C284.577,87.626 282.449,83.179 282.449,81.385 C282.449,79.88 281.776,76 279.083,76 Z M284.155,95.135 C285.303,95.135 290.652,95.253 290.652,103.231 C290.652,116.027 271.74,140.615 245.869,140.615 C244.448,140.615 242.3,140.616 240.881,139.934 C240.216,139.609 239.125,139.044 239.372,137.197 C239.505,136.204 241.265,133.225 259.33,124.133 C268.27,119.634 279.189,107.684 279.189,100.149 C279.189,95.283 283.067,95.135 284.155,95.135 Z" />
        </g>
        <g id="Regular-S">
            <path d="M479.083,76 C476.391,76 474.871,78.434 477.064,81.385 C479.669,84.889 479.792,88.339 479.102,90.929 C476.458,92.19 473.804,94.786 473.804,100.149 C473.804,104.613 465.291,115.107 456.909,119.324 C440.786,127.439 434.552,132.123 434.027,136.543 C434.002,136.71 432.485,146 445.869,146 C475.348,146 496.036,118.254 496.036,103.231 C496.036,95.656 492.356,91.921 488.357,90.484 C484.577,87.626 482.449,83.179 482.449,81.385 C482.449,79.88 481.776,76 479.083,76 Z M484.155,95.135 C485.303,95.135 490.652,95.253 490.652,103.231 C490.652,116.027 471.74,140.615 445.869,140.615 C444.448,140.615 442.3,140.616 440.881,139.934 C440.216,139.609 439.125,139.044 439.372,137.197 C439.505,136.204 441.265,133.225 459.33,124.133 C468.27,119.634 479.189,107.684 479.189,100.149 C479.189,95.283 483.067,95.135 484.155,95.135 Z" />
        </g>
        <g id="Black-S">
            <path d="M679.083,76 C676.391,76 674.871,78.434 677.064,81.385 C679.669,84.889 679.792,88.339 679.102,90.929 C676.458,92.19 673.804,94.786 673.804,100.149 C673.804,104.613 665.291,115.107 656.909,119.324 C640.786,127.439 634.552,132.123 634.027,136.543 C634.002,136.71 632.485,146 645.869,146 C675.348,146 696.036,118.254 696.036,103.231 C696.036,95.656 692.356,91.921 688.357,90.484 C684.577,87.626 682.449,83.179 682.449,81.385 C682.449,79.88 681.776,76 679.083,76 Z M684.155,95.135 C685.303,95.135 690.652,95.253 690.652,103.231 C690.652,116.027 671.74,140.615 645.869,140.615 C644.448,140.615 642.3,140.616 640.881,139.934 C640.216,139.609 639.125,139.044 639.372,137.197 C639.505,136.204 641.265,133.225 659.33,124.133 C668.27,119.634 679.188,107.684 679.188,100.149 C679.188,95.283 683.067,95.135 684.155,95.135 Z" />
        </g>
    </g>
</svg>