<?xml version="1.0" encoding="UTF-8"?>
<svg height="600" width="800" xmlns="http://www.w3.org/2000/svg" xmlns:xlink="http://www.w3.org/1999/xlink">
    <g id="Notes" font-family="'LucidaGrande', 'Lucida Grande', sans-serif" font-size="13">
        <rect fill="white" height="600.0" width="800.0" x="0.0" y="0.0" />
        <g font-size="13">
            <text x="18.0" y="176.0">Small</text>
            <text x="18.0" y="376.0">Medium</text>
            <text x="18.0" y="576.0">Large</text>
        </g>
        <g font-size="9">
            <text x="250.0" y="30.0">Ultralight</text>
            <text x="450.0" y="30.0">Regular</text>
            <text x="650.0" y="30.0">Black</text>
            <text id="template-version" fill="#505050" text-anchor="end" x="785.0" y="575.0">Template v.3.0</text>
            <a href="https://wangchujiang.com/#/app">
                <text fill="#505050" text-anchor="end" x="785.0" y="590.0">https://wangchujiang.com/#/app</text>
            </a>
        </g>
    </g>
    <g id="Guides" stroke="rgb(39, 170, 225)" stroke-width="0.5">
        <path id="Capline-S" d="M18,76 l800,0" />
        <path id="H-reference" d="M85,145.755 L87.685,145.755 L113.369,79.287 L114.052,79.287 L114.052,76 L112.148,76 L85,145.755 Z M95.693,121.536 L130.996,121.536 L130.263,119.313 L96.474,119.313 L95.693,121.536 Z M139.15,145.755 L141.787,145.755 L114.638,76 L113.466,76 L113.466,79.287 L139.15,145.755 Z" stroke="none" />
        <path id="Baseline-S" d="M18,146 l800,0" />
        <path id="left-margin-Ultralight-S" d="M219.259,56 l0,110" />
        <path id="right-margin-Ultralight-S" d="M310.741,56 l0,110" />
        <path id="left-margin-Regular-S" d="M419.259,56 l0,110" />
        <path id="right-margin-Regular-S" d="M510.741,56 l0,110" />
        <path id="left-margin-Black-S" d="M619.259,56 l0,110" />
        <path id="right-margin-Black-S" d="M710.741,56 l0,110" />
        <path id="Capline-M" d="M18,276 l800,0" />
        <path id="Baseline-M" d="M18,346 l800,0" />
        <path id="Capline-L" d="M18,476 l800,0" />
        <path id="Baseline-L" d="M18,546 l800,0" />
    </g>
    <g id="Symbols">
        <g id="Ultralight-S">
            <path d="M268.708,76 C263.482,76 258.433,77.554 254.105,80.494 C252.794,81.385 251.298,81.894 249.777,81.97 C238.272,82.542 229.259,92.037 229.259,103.585 C229.259,110.617 232.704,117.232 238.472,121.282 C240.084,122.415 241.043,124.15 241.102,126.04 C241.491,138.369 252.269,146 262.033,146 C267.983,146 273.671,143.449 277.635,139.001 C279.849,136.519 283.101,134.72 287.304,133.653 C294.966,131.707 300.741,124.2 300.741,116.19 C300.741,111.975 299.244,107.878 296.523,104.653 C295.244,103.134 294.824,101.137 294.698,99.728 C293.51,86.423 282.093,76 268.708,76 Z M268.708,82.219 C278.905,82.219 287.599,90.155 288.503,100.284 C288.797,103.585 289.925,106.48 291.768,108.665 C293.543,110.768 294.522,113.442 294.522,116.193 C294.522,120.722 291.249,126.237 285.773,127.628 C280.347,129.004 276.046,131.443 272.992,134.868 C270.208,137.991 266.212,139.781 262.033,139.781 C255.138,139.781 247.581,134.18 247.318,125.843 C247.197,121.978 245.274,118.461 242.043,116.193 C237.931,113.305 235.478,108.592 235.478,103.585 C235.478,95.355 241.895,88.59 250.087,88.183 C252.746,88.051 255.342,87.17 257.597,85.638 C260.891,83.402 264.732,82.219 268.708,82.219 Z M263.427,94.693 C257.416,94.693 252.544,99.566 252.544,105.577 C252.544,111.587 257.416,116.46 263.427,116.46 C269.438,116.46 274.31,111.587 274.31,105.577 C274.31,99.566 269.438,94.693 263.427,94.693 Z" />
        </g>
        <g id="Regular-S">
            <path d="M468.708,76 C463.482,76 458.433,77.554 454.105,80.494 C452.794,81.385 451.298,81.894 449.777,81.97 C438.272,82.542 429.259,92.037 429.259,103.585 C429.259,110.617 432.704,117.232 438.472,121.282 C440.084,122.415 441.043,124.15 441.102,126.04 C441.491,138.369 452.269,146 462.033,146 C467.983,146 473.671,143.449 477.635,139.001 C479.849,136.519 483.101,134.72 487.304,133.653 C494.966,131.707 500.741,124.2 500.741,116.19 C500.741,111.975 499.244,107.878 496.523,104.653 C495.244,103.134 494.824,101.137 494.698,99.728 C493.51,86.423 482.093,76 468.708,76 Z M468.708,82.219 C478.905,82.219 487.599,90.155 488.503,100.284 C488.797,103.585 489.925,106.48 491.768,108.665 C493.543,110.768 494.522,113.442 494.522,116.193 C494.522,120.722 491.249,126.237 485.773,127.628 C480.347,129.004 476.046,131.443 472.992,134.868 C470.208,137.991 466.212,139.781 462.033,139.781 C455.138,139.781 447.581,134.18 447.318,125.843 C447.197,121.978 445.274,118.461 442.043,116.193 C437.931,113.305 435.478,108.592 435.478,103.585 C435.478,95.355 441.895,88.59 450.087,88.183 C452.746,88.051 455.342,87.17 457.597,85.638 C460.891,83.402 464.732,82.219 468.708,82.219 Z M463.427,94.693 C457.416,94.693 452.544,99.566 452.544,105.577 C452.544,111.587 457.416,116.46 463.427,116.46 C469.438,116.46 474.31,111.587 474.31,105.577 C474.31,99.566 469.438,94.693 463.427,94.693 Z" />
        </g>
        <g id="Black-S">
            <path d="M668.708,76 C663.482,76 658.433,77.554 654.105,80.494 C652.794,81.385 651.298,81.894 649.777,81.97 C638.272,82.542 629.259,92.037 629.259,103.585 C629.259,110.617 632.704,117.232 638.472,121.282 C640.084,122.415 641.043,124.15 641.102,126.04 C641.491,138.369 652.269,146 662.033,146 C667.983,146 673.671,143.449 677.635,139.001 C679.849,136.519 683.101,134.72 687.304,133.653 C694.966,131.707 700.741,124.2 700.741,116.19 C700.741,111.975 699.244,107.878 696.523,104.653 C695.244,103.134 694.824,101.137 694.698,99.728 C693.51,86.423 682.093,76 668.708,76 Z M668.708,82.219 C678.905,82.219 687.599,90.155 688.503,100.284 C688.797,103.585 689.925,106.48 691.768,108.665 C693.543,110.768 694.522,113.442 694.522,116.193 C694.522,120.722 691.249,126.237 685.773,127.628 C680.347,129.004 676.046,131.443 672.992,134.868 C670.208,137.991 666.212,139.781 662.033,139.781 C655.138,139.781 647.581,134.18 647.318,125.843 C647.197,121.978 645.274,118.461 642.043,116.193 C637.931,113.305 635.478,108.592 635.478,103.585 C635.478,95.355 641.895,88.59 650.087,88.183 C652.746,88.051 655.342,87.17 657.597,85.638 C660.891,83.402 664.732,82.219 668.708,82.219 Z M663.427,94.693 C657.416,94.693 652.544,99.566 652.544,105.577 C652.544,111.587 657.416,116.46 663.427,116.46 C669.438,116.46 674.31,111.587 674.31,105.577 C674.31,99.566 669.438,94.693 663.427,94.693 Z" />
        </g>
    </g>
</svg>