<?xml version="1.0" encoding="UTF-8"?>
<svg height="600" width="800" xmlns="http://www.w3.org/2000/svg" xmlns:xlink="http://www.w3.org/1999/xlink">
    <g id="Notes" font-family="'LucidaGrande', 'Lucida Grande', sans-serif" font-size="13">
        <rect fill="white" height="600.0" width="800.0" x="0.0" y="0.0" />
        <g font-size="13">
            <text x="18.0" y="176.0">Small</text>
            <text x="18.0" y="376.0">Medium</text>
            <text x="18.0" y="576.0">Large</text>
        </g>
        <g font-size="9">
            <text x="250.0" y="30.0">Ultralight</text>
            <text x="450.0" y="30.0">Regular</text>
            <text x="650.0" y="30.0">Black</text>
            <text id="template-version" fill="#505050" text-anchor="end" x="785.0" y="575.0">Template v.3.0</text>
            <a href="https://wangchujiang.com/#/app">
                <text fill="#505050" text-anchor="end" x="785.0" y="590.0">https://wangchujiang.com/#/app</text>
            </a>
        </g>
    </g>
    <g id="Guides" stroke="rgb(39, 170, 225)" stroke-width="0.5">
        <path id="Capline-S" d="M18,76 l800,0" />
        <path id="H-reference" d="M85,145.755 L87.685,145.755 L113.369,79.287 L114.052,79.287 L114.052,76 L112.148,76 L85,145.755 Z M95.693,121.536 L130.996,121.536 L130.263,119.313 L96.474,119.313 L95.693,121.536 Z M139.15,145.755 L141.787,145.755 L114.638,76 L113.466,76 L113.466,79.287 L139.15,145.755 Z" stroke="none" />
        <path id="Baseline-S" d="M18,146 l800,0" />
        <path id="left-margin-Ultralight-S" d="M219.943,56 l0,110" />
        <path id="right-margin-Ultralight-S" d="M310.057,56 l0,110" />
        <path id="left-margin-Regular-S" d="M419.943,56 l0,110" />
        <path id="right-margin-Regular-S" d="M510.057,56 l0,110" />
        <path id="left-margin-Black-S" d="M619.943,56 l0,110" />
        <path id="right-margin-Black-S" d="M710.057,56 l0,110" />
        <path id="Capline-M" d="M18,276 l800,0" />
        <path id="Baseline-M" d="M18,346 l800,0" />
        <path id="Capline-L" d="M18,476 l800,0" />
        <path id="Baseline-L" d="M18,546 l800,0" />
    </g>
    <g id="Symbols">
        <g id="Ultralight-S">
            <path d="M272.448,76.003 C271.669,76.038 270.902,76.371 270.334,76.992 C270.089,77.259 264.709,83.204 261.097,89.68 C259.792,89.704 258.466,89.768 257.112,89.892 C256.923,89.909 256.735,89.945 256.546,89.969 C259.431,85.928 262.358,82.527 262.405,82.472 C263.507,81.198 263.367,79.27 262.092,78.169 C260.817,77.066 258.892,77.206 257.791,78.481 C257.465,78.856 250.084,87.461 246.744,94.333 C237.132,101.597 229.943,115.843 229.943,123.248 C229.943,136.059 244.075,144.176 268.838,145.792 C270.055,145.917 271.312,146 272.642,146 C284.532,146 292.215,144.366 293.783,136.228 C294.616,131.904 292.651,128.331 290.748,124.877 C289.049,121.795 287.293,118.607 287.293,114.589 C287.293,113.529 287.402,112.212 287.513,110.818 C287.878,106.26 288.277,101.152 285.902,97.66 C290.27,89.343 298.733,82.994 298.823,82.928 C300.175,81.926 300.46,80.017 299.46,78.663 C298.456,77.309 296.547,77.024 295.198,78.023 C294.8,78.315 286.059,84.844 280.946,93.993 C279.9,93.47 278.842,92.991 277.765,92.563 C281.282,86.3 286.698,81.379 286.757,81.326 C288.01,80.203 288.119,78.278 286.998,77.022 C285.88,75.765 283.954,75.651 282.697,76.772 C282.407,77.028 275.795,82.98 271.796,90.735 C270.547,90.453 269.282,90.212 267.987,90.044 C271.096,85.24 274.788,81.159 274.834,81.108 C275.97,79.865 275.882,77.938 274.64,76.801 C274.02,76.233 273.228,75.969 272.448,76.003 Z M261.193,95.753 C263.61,95.702 266.822,95.859 270.411,96.674 C259.77,102.952 251.292,119.417 251.292,127.822 C251.292,131.558 252.118,134.768 253.678,137.416 C242.5,134.596 236.043,129.62 236.043,123.248 C236.043,115.707 247.356,96.912 257.672,95.968 C258.47,95.895 259.676,95.786 261.193,95.753 Z M278.742,100.251 C279.4,100.251 279.829,100.355 280.124,100.477 C280.255,100.553 280.389,100.62 280.52,100.698 C280.522,100.699 280.524,100.699 280.526,100.701 C280.6,100.76 280.648,100.814 280.681,100.85 C282.07,102.355 281.701,106.966 281.431,110.333 C281.309,111.85 281.196,113.285 281.196,114.589 C281.196,120.177 283.53,124.417 285.405,127.822 C287.143,130.979 288.193,133.021 287.796,135.075 C287.403,137.109 286.86,139.894 272.681,139.9 C271.427,139.852 270.208,139.779 269.008,139.698 C261.298,138.793 257.392,134.811 257.392,127.822 C257.392,119.822 268.788,100.251 278.742,100.251 Z M275.814,106.935 C274.33,106.782 272.196,108.001 270.584,110.22 C268.434,113.178 267.513,117.912 269.663,118.208 C270.586,118.504 271.189,116.235 273.339,112.981 C275.489,109.431 277.959,108.743 277.038,107.56 C276.731,107.19 276.308,106.985 275.814,106.935 Z M275.79,122.074 C275.632,122.044 275.487,122.058 275.361,122.116 C273.938,122.773 276.701,128.857 275.471,130.393 C273.013,133.466 267.17,131.998 267.17,133.535 C267.17,135.072 278.382,135.951 280.943,134.36 C283.822,132.344 278.167,122.526 275.79,122.074 Z" />
        </g>
        <g id="Regular-S">
            <path d="M472.448,76.003 C471.669,76.038 470.902,76.371 470.334,76.992 C470.089,77.259 464.709,83.204 461.097,89.68 C459.792,89.704 458.466,89.768 457.112,89.892 C456.923,89.909 456.735,89.945 456.546,89.969 C459.431,85.928 462.358,82.527 462.405,82.472 C463.507,81.198 463.367,79.27 462.092,78.169 C460.817,77.066 458.892,77.206 457.791,78.481 C457.465,78.856 450.084,87.461 446.744,94.333 C437.132,101.597 429.943,115.843 429.943,123.248 C429.943,136.059 444.075,144.176 468.838,145.792 C470.055,145.917 471.312,146 472.642,146 C484.532,146 492.215,144.366 493.783,136.228 C494.616,131.904 492.651,128.331 490.748,124.877 C489.049,121.795 487.293,118.607 487.293,114.589 C487.293,113.529 487.402,112.212 487.513,110.818 C487.878,106.26 488.277,101.152 485.902,97.66 C490.27,89.343 498.733,82.994 498.823,82.928 C500.175,81.926 500.46,80.017 499.46,78.663 C498.456,77.309 496.547,77.024 495.198,78.023 C494.8,78.315 486.059,84.844 480.946,93.993 C479.9,93.47 478.842,92.991 477.765,92.563 C481.282,86.3 486.698,81.379 486.757,81.326 C488.01,80.203 488.119,78.278 486.998,77.022 C485.88,75.765 483.954,75.651 482.697,76.772 C482.407,77.028 475.795,82.98 471.796,90.735 C470.547,90.453 469.282,90.212 467.987,90.044 C471.096,85.24 474.788,81.159 474.834,81.108 C475.97,79.865 475.882,77.938 474.64,76.801 C474.02,76.233 473.228,75.969 472.448,76.003 Z M461.193,95.753 C463.61,95.702 466.822,95.859 470.411,96.674 C459.77,102.952 451.292,119.417 451.292,127.822 C451.292,131.558 452.118,134.768 453.678,137.416 C442.5,134.596 436.043,129.62 436.043,123.248 C436.043,115.707 447.356,96.912 457.672,95.968 C458.47,95.895 459.676,95.786 461.193,95.753 Z M478.742,100.251 C479.4,100.251 479.829,100.355 480.124,100.477 C480.255,100.553 480.389,100.62 480.52,100.698 C480.522,100.699 480.524,100.699 480.526,100.701 C480.6,100.76 480.648,100.814 480.681,100.85 C482.07,102.355 481.701,106.966 481.431,110.333 C481.309,111.85 481.196,113.285 481.196,114.589 C481.196,120.177 483.53,124.417 485.405,127.822 C487.143,130.979 488.193,133.021 487.796,135.075 C487.403,137.109 486.86,139.894 472.681,139.9 C471.427,139.852 470.208,139.779 469.008,139.698 C461.298,138.793 457.392,134.811 457.392,127.822 C457.392,119.822 468.788,100.251 478.742,100.251 Z M475.814,106.935 C474.33,106.782 472.196,108.001 470.584,110.22 C468.434,113.178 467.513,117.912 469.663,118.208 C470.586,118.504 471.189,116.235 473.339,112.981 C475.489,109.431 477.959,108.743 477.038,107.56 C476.731,107.19 476.308,106.985 475.814,106.935 Z M475.79,122.074 C475.632,122.044 475.487,122.058 475.361,122.116 C473.938,122.773 476.701,128.857 475.471,130.393 C473.013,133.466 467.17,131.998 467.17,133.535 C467.17,135.072 478.382,135.951 480.943,134.36 C483.822,132.344 478.167,122.526 475.79,122.074 Z" />
        </g>
        <g id="Black-S">
            <path d="M672.448,76.003 C671.669,76.038 670.902,76.371 670.334,76.992 C670.089,77.259 664.709,83.204 661.097,89.68 C659.792,89.704 658.466,89.768 657.112,89.892 C656.923,89.909 656.735,89.945 656.546,89.969 C659.431,85.928 662.358,82.527 662.405,82.472 C663.507,81.198 663.367,79.27 662.092,78.169 C660.817,77.066 658.892,77.206 657.791,78.481 C657.465,78.856 650.084,87.461 646.744,94.333 C637.132,101.597 629.943,115.843 629.943,123.248 C629.943,136.059 644.075,144.176 668.838,145.792 C670.055,145.917 671.312,146 672.642,146 C684.532,146 692.215,144.366 693.783,136.228 C694.616,131.904 692.651,128.331 690.748,124.877 C689.049,121.795 687.293,118.607 687.293,114.589 C687.293,113.529 687.402,112.212 687.513,110.818 C687.878,106.26 688.277,101.152 685.902,97.66 C690.27,89.343 698.733,82.994 698.823,82.928 C700.175,81.926 700.46,80.017 699.46,78.663 C698.456,77.309 696.547,77.024 695.198,78.023 C694.8,78.315 686.059,84.844 680.946,93.993 C679.9,93.47 678.842,92.991 677.765,92.563 C681.282,86.3 686.698,81.379 686.757,81.326 C688.01,80.203 688.119,78.278 686.998,77.022 C685.88,75.765 683.954,75.651 682.697,76.772 C682.407,77.028 675.795,82.98 671.796,90.735 C670.547,90.453 669.282,90.212 667.987,90.044 C671.096,85.24 674.788,81.159 674.834,81.108 C675.97,79.865 675.882,77.938 674.64,76.801 C674.02,76.233 673.228,75.969 672.448,76.003 Z M661.193,95.753 C663.61,95.702 666.822,95.859 670.411,96.674 C659.77,102.952 651.292,119.417 651.292,127.822 C651.292,131.558 652.118,134.768 653.678,137.416 C642.5,134.596 636.043,129.62 636.043,123.248 C636.043,115.707 647.356,96.912 657.672,95.968 C658.47,95.895 659.676,95.786 661.193,95.753 Z M678.742,100.251 C679.4,100.251 679.829,100.355 680.124,100.477 C680.255,100.553 680.389,100.62 680.52,100.698 C680.522,100.699 680.524,100.699 680.526,100.701 C680.6,100.76 680.648,100.814 680.681,100.85 C682.07,102.355 681.701,106.966 681.431,110.333 C681.309,111.85 681.196,113.285 681.196,114.589 C681.196,120.177 683.53,124.417 685.405,127.822 C687.143,130.979 688.193,133.021 687.796,135.075 C687.403,137.109 686.86,139.894 672.681,139.9 C671.427,139.852 670.208,139.779 669.008,139.698 C661.298,138.793 657.392,134.811 657.392,127.822 C657.392,119.822 668.788,100.251 678.742,100.251 Z M675.814,106.935 C674.33,106.782 672.196,108.001 670.584,110.22 C668.434,113.178 667.513,117.912 669.663,118.208 C670.586,118.504 671.189,116.235 673.339,112.981 C675.489,109.431 677.959,108.743 677.038,107.56 C676.731,107.19 676.308,106.985 675.814,106.935 Z M675.79,122.074 C675.632,122.044 675.487,122.058 675.361,122.116 C673.938,122.773 676.701,128.857 675.471,130.393 C673.013,133.466 667.17,131.998 667.17,133.535 C667.17,135.072 678.382,135.951 680.943,134.36 C683.822,132.344 678.167,122.526 675.79,122.074 Z" />
        </g>
    </g>
</svg>