<?xml version="1.0" encoding="UTF-8"?>
<svg height="600" width="800" xmlns="http://www.w3.org/2000/svg" xmlns:xlink="http://www.w3.org/1999/xlink">
    <g id="Notes" font-family="'LucidaGrande', 'Lucida Grande', sans-serif" font-size="13">
        <rect fill="white" height="600.0" width="800.0" x="0.0" y="0.0" />
        <g font-size="13">
            <text x="18.0" y="176.0">Small</text>
            <text x="18.0" y="376.0">Medium</text>
            <text x="18.0" y="576.0">Large</text>
        </g>
        <g font-size="9">
            <text x="250.0" y="30.0">Ultralight</text>
            <text x="450.0" y="30.0">Regular</text>
            <text x="650.0" y="30.0">Black</text>
            <text id="template-version" fill="#505050" text-anchor="end" x="785.0" y="575.0">Template v.3.0</text>
            <a href="https://wangchujiang.com/#/app">
                <text fill="#505050" text-anchor="end" x="785.0" y="590.0">https://wangchujiang.com/#/app</text>
            </a>
        </g>
    </g>
    <g id="Guides" stroke="rgb(39, 170, 225)" stroke-width="0.5">
        <path id="Capline-S" d="M18,76 l800,0" />
        <path id="H-reference" d="M85,145.755 L87.685,145.755 L113.369,79.287 L114.052,79.287 L114.052,76 L112.148,76 L85,145.755 Z M95.693,121.536 L130.996,121.536 L130.263,119.313 L96.474,119.313 L95.693,121.536 Z M139.15,145.755 L141.787,145.755 L114.638,76 L113.466,76 L113.466,79.287 L139.15,145.755 Z" stroke="none" />
        <path id="Baseline-S" d="M18,146 l800,0" />
        <path id="left-margin-Ultralight-S" d="M216.196,56 l0,110" />
        <path id="right-margin-Ultralight-S" d="M313.804,56 l0,110" />
        <path id="left-margin-Regular-S" d="M416.196,56 l0,110" />
        <path id="right-margin-Regular-S" d="M513.804,56 l0,110" />
        <path id="left-margin-Black-S" d="M616.196,56 l0,110" />
        <path id="right-margin-Black-S" d="M713.804,56 l0,110" />
        <path id="Capline-M" d="M18,276 l800,0" />
        <path id="Baseline-M" d="M18,346 l800,0" />
        <path id="Capline-L" d="M18,476 l800,0" />
        <path id="Baseline-L" d="M18,546 l800,0" />
    </g>
    <g id="Symbols">
        <g id="Ultralight-S">
            <path d="M229.238,76 C228.392,76 227.586,76.353 227.009,76.972 C226.434,77.59 226.145,78.417 226.204,79.26 L230.365,137.52 C230.704,142.274 234.704,146 239.472,146 L258.571,146 C263.338,146 267.339,142.276 267.68,137.52 L271.838,79.26 C271.898,78.419 271.608,77.587 271.033,76.969 C270.456,76.351 269.65,76 268.804,76 L229.238,76 Z M232.505,82.087 L265.537,82.087 L264.776,92.739 L233.266,92.739 L232.505,82.087 Z M290.167,91.217 C289.772,91.21 289.37,91.278 288.979,91.434 C284.759,93.123 280.43,97.303 279.111,102.048 C277.597,102.234 276.126,102.561 274.718,103.035 L274.231,109.838 C276.471,108.64 279.027,107.957 281.738,107.957 C290.549,107.957 297.717,115.124 297.717,123.935 C297.717,132.746 290.549,139.913 281.738,139.913 C278.208,139.913 274.954,138.748 272.308,136.801 L272.234,137.844 C272.1,139.713 271.579,141.472 270.771,143.055 C274.006,144.919 277.745,146 281.738,146 C293.905,146 303.804,136.101 303.804,123.935 C303.804,113.085 295.923,104.06 285.59,102.229 C286.785,100.03 289.122,97.934 291.24,97.087 C292.8,96.462 293.558,94.691 292.935,93.131 C292.464,91.962 291.354,91.241 290.167,91.217 Z M233.7,98.826 L264.342,98.826 L261.608,137.087 C261.496,138.671 260.161,139.913 258.571,139.913 L239.472,139.913 C237.881,139.913 236.548,138.671 236.434,137.087 L233.7,98.826 Z M284.021,126.217 C283.181,126.217 282.499,126.899 282.499,127.739 C282.499,128.579 283.181,129.261 284.021,129.261 C284.861,129.261 285.543,128.579 285.543,127.739 C285.543,126.899 284.861,126.217 284.021,126.217 Z M290.108,127.739 C289.268,127.739 288.586,128.421 288.586,129.261 C288.586,130.101 289.268,130.783 290.108,130.783 C290.948,130.783 291.63,130.101 291.63,129.261 C291.63,128.421 290.948,127.739 290.108,127.739 Z M285.543,132.304 C284.703,132.304 284.021,132.986 284.021,133.826 C284.021,134.666 284.703,135.348 285.543,135.348 C286.383,135.348 287.065,134.666 287.065,133.826 C287.065,132.986 286.383,132.304 285.543,132.304 Z" />
        </g>
        <g id="Regular-S">
            <path d="M429.238,76 C428.392,76 427.586,76.353 427.009,76.972 C426.434,77.59 426.145,78.417 426.204,79.26 L430.365,137.52 C430.704,142.274 434.704,146 439.472,146 L458.571,146 C463.338,146 467.339,142.276 467.68,137.52 L471.838,79.26 C471.898,78.419 471.608,77.587 471.033,76.969 C470.456,76.351 469.65,76 468.804,76 L429.238,76 Z M432.505,82.087 L465.537,82.087 L464.776,92.739 L433.266,92.739 L432.505,82.087 Z M490.167,91.217 C489.772,91.21 489.37,91.278 488.979,91.434 C484.759,93.123 480.43,97.303 479.111,102.048 C477.597,102.234 476.126,102.561 474.718,103.035 L474.231,109.838 C476.471,108.64 479.027,107.957 481.738,107.957 C490.549,107.957 497.717,115.124 497.717,123.935 C497.717,132.746 490.549,139.913 481.738,139.913 C478.208,139.913 474.954,138.748 472.308,136.801 L472.234,137.844 C472.1,139.713 471.579,141.472 470.771,143.055 C474.006,144.919 477.745,146 481.738,146 C493.905,146 503.804,136.101 503.804,123.935 C503.804,113.085 495.923,104.06 485.59,102.229 C486.785,100.03 489.122,97.934 491.24,97.087 C492.8,96.462 493.558,94.691 492.935,93.131 C492.464,91.962 491.354,91.241 490.167,91.217 Z M433.7,98.826 L464.342,98.826 L461.608,137.087 C461.496,138.671 460.161,139.913 458.571,139.913 L439.472,139.913 C437.881,139.913 436.548,138.671 436.434,137.087 L433.7,98.826 Z M484.021,126.217 C483.181,126.217 482.499,126.899 482.499,127.739 C482.499,128.579 483.181,129.261 484.021,129.261 C484.861,129.261 485.543,128.579 485.543,127.739 C485.543,126.899 484.861,126.217 484.021,126.217 Z M490.108,127.739 C489.268,127.739 488.586,128.421 488.586,129.261 C488.586,130.101 489.268,130.783 490.108,130.783 C490.948,130.783 491.63,130.101 491.63,129.261 C491.63,128.421 490.948,127.739 490.108,127.739 Z M485.543,132.304 C484.703,132.304 484.021,132.986 484.021,133.826 C484.021,134.666 484.703,135.348 485.543,135.348 C486.383,135.348 487.065,134.666 487.065,133.826 C487.065,132.986 486.383,132.304 485.543,132.304 Z" />
        </g>
        <g id="Black-S">
            <path d="M629.239,76 C628.392,76 627.586,76.353 627.009,76.972 C626.434,77.59 626.145,78.417 626.204,79.26 L630.365,137.52 C630.704,142.274 634.704,146 639.472,146 L658.571,146 C663.338,146 667.339,142.276 667.68,137.52 L671.838,79.26 C671.898,78.419 671.608,77.587 671.033,76.969 C670.456,76.351 669.65,76 668.804,76 L629.239,76 Z M632.505,82.087 L665.537,82.087 L664.776,92.739 L633.266,92.739 L632.505,82.087 Z M690.168,91.217 C689.772,91.21 689.37,91.278 688.979,91.434 C684.759,93.123 680.43,97.303 679.111,102.048 C677.597,102.234 676.126,102.561 674.718,103.035 L674.231,109.838 C676.471,108.64 679.027,107.957 681.739,107.957 C690.549,107.957 697.717,115.124 697.717,123.935 C697.717,132.746 690.549,139.913 681.739,139.913 C678.208,139.913 674.954,138.748 672.308,136.801 L672.234,137.844 C672.1,139.713 671.579,141.472 670.771,143.055 C674.006,144.919 677.745,146 681.739,146 C693.905,146 703.804,136.101 703.804,123.935 C703.804,113.085 695.923,104.06 685.59,102.229 C686.785,100.03 689.122,97.934 691.24,97.087 C692.8,96.462 693.558,94.691 692.935,93.131 C692.464,91.962 691.354,91.241 690.168,91.217 Z M633.7,98.826 L664.343,98.826 L661.608,137.087 C661.496,138.671 660.161,139.913 658.571,139.913 L639.472,139.913 C637.881,139.913 636.548,138.671 636.434,137.087 L633.7,98.826 Z M684.021,126.217 C683.181,126.217 682.499,126.899 682.499,127.739 C682.499,128.579 683.181,129.261 684.021,129.261 C684.861,129.261 685.543,128.579 685.543,127.739 C685.543,126.899 684.861,126.217 684.021,126.217 Z M690.108,127.739 C689.268,127.739 688.586,128.421 688.586,129.261 C688.586,130.101 689.268,130.783 690.108,130.783 C690.948,130.783 691.63,130.101 691.63,129.261 C691.63,128.421 690.948,127.739 690.108,127.739 Z M685.543,132.304 C684.703,132.304 684.021,132.986 684.021,133.826 C684.021,134.666 684.703,135.348 685.543,135.348 C686.383,135.348 687.065,134.666 687.065,133.826 C687.065,132.986 686.383,132.304 685.543,132.304 Z" />
        </g>
    </g>
</svg>