<?xml version="1.0" encoding="UTF-8"?>
<svg height="600" width="800" xmlns="http://www.w3.org/2000/svg" xmlns:xlink="http://www.w3.org/1999/xlink">
    <g id="Notes" font-family="'LucidaGrande', 'Lucida Grande', sans-serif" font-size="13">
        <rect fill="white" height="600.0" width="800.0" x="0.0" y="0.0" />
        <g font-size="13">
            <text x="18.0" y="176.0">Small</text>
            <text x="18.0" y="376.0">Medium</text>
            <text x="18.0" y="576.0">Large</text>
        </g>
        <g font-size="9">
            <text x="250.0" y="30.0">Ultralight</text>
            <text x="450.0" y="30.0">Regular</text>
            <text x="650.0" y="30.0">Black</text>
            <text id="template-version" fill="#505050" text-anchor="end" x="785.0" y="575.0">Template v.3.0</text>
            <a href="https://wangchujiang.com/#/app">
                <text fill="#505050" text-anchor="end" x="785.0" y="590.0">https://wangchujiang.com/#/app</text>
            </a>
        </g>
    </g>
    <g id="Guides" stroke="rgb(39, 170, 225)" stroke-width="0.5">
        <path id="Capline-S" d="M18,76 l800,0" />
        <path id="H-reference" d="M85,145.755 L87.685,145.755 L113.369,79.287 L114.052,79.287 L114.052,76 L112.148,76 L85,145.755 Z M95.693,121.536 L130.996,121.536 L130.263,119.313 L96.474,119.313 L95.693,121.536 Z M139.15,145.755 L141.787,145.755 L114.638,76 L113.466,76 L113.466,79.287 L139.15,145.755 Z" stroke="none" />
        <path id="Baseline-S" d="M18,146 l800,0" />
        <path id="left-margin-Ultralight-S" d="M221,56 l0,110" />
        <path id="right-margin-Ultralight-S" d="M309,56 l0,110" />
        <path id="left-margin-Regular-S" d="M421,56 l0,110" />
        <path id="right-margin-Regular-S" d="M509,56 l0,110" />
        <path id="left-margin-Black-S" d="M621,56 l0,110" />
        <path id="right-margin-Black-S" d="M709,56 l0,110" />
        <path id="Capline-M" d="M18,276 l800,0" />
        <path id="Baseline-M" d="M18,346 l800,0" />
        <path id="Capline-L" d="M18,476 l800,0" />
        <path id="Baseline-L" d="M18,546 l800,0" />
    </g>
    <g id="Symbols">
        <g id="Ultralight-S">
            <path d="M248.39,76 C242.015,76 236.829,81.188 236.829,87.561 L236.829,134.049 L236.829,134.439 C236.829,140.814 242.017,146 248.39,146 L289.756,146 C291.641,146 293.171,144.47 293.171,142.585 L293.171,126.366 L293.171,79.415 C293.171,77.53 291.641,76 289.756,76 L248.39,76 Z M248.39,82.829 L248.39,82.833 L286.341,82.833 L286.341,122.955 C280.579,122.958 247.091,122.979 246.94,123.001 C245.786,123.104 244.685,123.392 243.659,123.822 L243.659,87.561 C243.659,84.952 245.783,82.829 248.39,82.829 Z M276.261,87.728 C274.001,87.521 271.454,88.446 269.485,90.415 C267.435,92.466 266.538,95.138 266.854,97.465 L264.987,99.332 L256.744,91.086 C256.675,91.017 256.597,90.967 256.523,90.906 C255.569,89.752 253.936,89.317 252.505,89.959 C250.784,90.732 250.016,92.749 250.788,94.47 L256.687,107.632 L253.195,111.123 C251.862,112.457 251.862,114.618 253.195,115.952 C253.863,116.619 254.736,116.952 255.61,116.952 C256.484,116.952 257.356,116.619 258.024,115.952 L262.499,111.477 L266.267,110.266 L271.949,115.952 C272.617,116.619 273.489,116.952 274.364,116.952 C275.238,116.952 276.11,116.619 276.778,115.952 C278.111,114.618 278.111,112.457 276.778,111.123 L269.815,104.161 L271.666,102.31 C274.003,102.641 276.696,101.748 278.759,99.686 C281.909,96.536 282.388,91.901 279.829,89.342 C278.869,88.382 277.617,87.852 276.261,87.728 Z M247.927,129.78 L286.341,129.78 L286.341,139.174 L248.39,139.174 C245.782,139.174 243.659,137.051 243.659,134.442 L243.659,134.049 C243.659,131.696 245.572,129.78 247.927,129.78 Z" />
        </g>
        <g id="Regular-S">
            <path d="M448.39,76 C442.015,76 436.829,81.188 436.829,87.561 L436.829,134.049 L436.829,134.439 C436.829,140.814 442.017,146 448.39,146 L489.756,146 C491.641,146 493.171,144.47 493.171,142.585 L493.171,126.366 L493.171,79.415 C493.171,77.53 491.641,76 489.756,76 L448.39,76 Z M448.39,82.829 L448.39,82.833 L486.341,82.833 L486.341,122.955 C480.579,122.958 447.091,122.979 446.94,123.001 C445.786,123.104 444.685,123.392 443.659,123.822 L443.659,87.561 C443.659,84.952 445.783,82.829 448.39,82.829 Z M476.261,87.728 C474.001,87.521 471.454,88.446 469.485,90.415 C467.435,92.466 466.538,95.138 466.854,97.465 L464.987,99.332 L456.744,91.086 C456.675,91.017 456.597,90.967 456.523,90.906 C455.569,89.752 453.936,89.317 452.505,89.959 C450.784,90.732 450.016,92.749 450.788,94.47 L456.687,107.632 L453.195,111.123 C451.862,112.457 451.862,114.618 453.195,115.952 C453.863,116.619 454.736,116.952 455.61,116.952 C456.484,116.952 457.356,116.619 458.024,115.952 L462.499,111.477 L466.267,110.266 L471.949,115.952 C472.617,116.619 473.489,116.952 474.364,116.952 C475.238,116.952 476.11,116.619 476.778,115.952 C478.111,114.618 478.111,112.457 476.778,111.123 L469.815,104.161 L471.666,102.31 C474.003,102.641 476.696,101.748 478.759,99.686 C481.909,96.536 482.388,91.901 479.829,89.342 C478.869,88.382 477.617,87.852 476.261,87.728 Z M447.927,129.78 L486.341,129.78 L486.341,139.174 L448.39,139.174 C445.782,139.174 443.659,137.051 443.659,134.442 L443.659,134.049 C443.659,131.696 445.572,129.78 447.927,129.78 Z" />
        </g>
        <g id="Black-S">
            <path d="M648.39,76 C642.015,76 636.829,81.188 636.829,87.561 L636.829,134.049 L636.829,134.439 C636.829,140.814 642.017,146 648.39,146 L689.756,146 C691.641,146 693.171,144.47 693.171,142.585 L693.171,126.366 L693.171,79.415 C693.171,77.53 691.641,76 689.756,76 L648.39,76 Z M648.39,82.829 L648.39,82.833 L686.341,82.833 L686.341,122.955 C680.579,122.958 647.091,122.979 646.94,123.001 C645.786,123.104 644.685,123.392 643.659,123.822 L643.659,87.561 C643.659,84.952 645.783,82.829 648.39,82.829 Z M676.261,87.728 C674.001,87.521 671.454,88.446 669.485,90.415 C667.435,92.466 666.538,95.138 666.854,97.465 L664.987,99.332 L656.744,91.086 C656.675,91.017 656.597,90.967 656.523,90.906 C655.569,89.752 653.936,89.317 652.505,89.959 C650.784,90.732 650.016,92.749 650.788,94.47 L656.687,107.632 L653.195,111.123 C651.862,112.457 651.862,114.618 653.195,115.952 C653.863,116.619 654.736,116.952 655.61,116.952 C656.484,116.952 657.356,116.619 658.024,115.952 L662.499,111.477 L666.267,110.266 L671.949,115.952 C672.617,116.619 673.489,116.952 674.364,116.952 C675.238,116.952 676.11,116.619 676.778,115.952 C678.111,114.618 678.111,112.457 676.778,111.123 L669.815,104.161 L671.666,102.31 C674.003,102.641 676.696,101.748 678.759,99.686 C681.909,96.536 682.388,91.901 679.829,89.342 C678.869,88.382 677.617,87.852 676.261,87.728 Z M647.927,129.78 L686.341,129.78 L686.341,139.174 L648.39,139.174 C645.782,139.174 643.659,137.051 643.659,134.442 L643.659,134.049 C643.659,131.696 645.572,129.78 647.927,129.78 Z" />
        </g>
    </g>
</svg>