<?xml version="1.0" encoding="UTF-8"?>
<svg height="600" width="800" xmlns="http://www.w3.org/2000/svg" xmlns:xlink="http://www.w3.org/1999/xlink">
    <g id="Notes" font-family="'LucidaGrande', 'Lucida Grande', sans-serif" font-size="13">
        <rect fill="white" height="600.0" width="800.0" x="0.0" y="0.0" />
        <g font-size="13">
            <text x="18.0" y="176.0">Small</text>
            <text x="18.0" y="376.0">Medium</text>
            <text x="18.0" y="576.0">Large</text>
        </g>
        <g font-size="9">
            <text x="250.0" y="30.0">Ultralight</text>
            <text x="450.0" y="30.0">Regular</text>
            <text x="650.0" y="30.0">Black</text>
            <text id="template-version" fill="#505050" text-anchor="end" x="785.0" y="575.0">Template v.3.0</text>
            <a href="https://wangchujiang.com/#/app">
                <text fill="#505050" text-anchor="end" x="785.0" y="590.0">https://wangchujiang.com/#/app</text>
            </a>
        </g>
    </g>
    <g id="Guides" stroke="rgb(39, 170, 225)" stroke-width="0.5">
        <path id="Capline-S" d="M18,76 l800,0" />
        <path id="H-reference" d="M85,145.755 L87.685,145.755 L113.369,79.287 L114.052,79.287 L114.052,76 L112.148,76 L85,145.755 Z M95.693,121.536 L130.996,121.536 L130.263,119.313 L96.474,119.313 L95.693,121.536 Z M139.15,145.755 L141.787,145.755 L114.638,76 L113.466,76 L113.466,79.287 L139.15,145.755 Z" stroke="none" />
        <path id="Baseline-S" d="M18,146 l800,0" />
        <path id="left-margin-Ultralight-S" d="M219.964,56 l0,110" />
        <path id="right-margin-Ultralight-S" d="M310.036,56 l0,110" />
        <path id="left-margin-Regular-S" d="M419.964,56 l0,110" />
        <path id="right-margin-Regular-S" d="M510.036,56 l0,110" />
        <path id="left-margin-Black-S" d="M619.964,56 l0,110" />
        <path id="right-margin-Black-S" d="M710.036,56 l0,110" />
        <path id="Capline-M" d="M18,276 l800,0" />
        <path id="Baseline-M" d="M18,346 l800,0" />
        <path id="Capline-L" d="M18,476 l800,0" />
        <path id="Baseline-L" d="M18,546 l800,0" />
    </g>
    <g id="Symbols">
        <g id="Ultralight-S">
            <path d="M265,76 C264.695,76 264.423,76.191 264.321,76.476 C263.337,79.231 261.631,84.014 261.631,84.014 C261.631,84.014 258.776,82.744 256.983,81.948 C256.727,81.835 256.428,81.879 256.217,82.064 C256.007,82.247 255.923,82.537 256.002,82.806 C256.542,84.662 257.469,87.844 258.086,89.959 C242.067,92.56 229.964,104.01 229.964,117.702 C229.964,133.306 245.681,146 265,146 C284.319,146 300.036,133.306 300.036,117.702 C300.036,104.01 287.933,92.56 271.914,89.959 C272.531,87.844 273.457,84.662 273.998,82.806 C274.077,82.538 273.993,82.248 273.783,82.064 C273.572,81.879 273.273,81.835 273.017,81.948 C271.224,82.744 268.369,84.014 268.369,84.014 C268.369,84.014 266.663,79.231 265.679,76.476 C265.577,76.191 265.305,76 265,76 Z M265,94.794 C281.347,94.794 294.645,105.07 294.645,117.702 C294.645,130.334 281.347,140.61 265,140.61 C248.653,140.61 235.355,130.334 235.355,117.702 C235.355,105.07 248.653,94.794 265,94.794 Z M251.538,101.532 C250.05,101.525 248.838,102.726 248.83,104.214 C248.822,105.701 250.024,106.914 251.512,106.922 C252.999,106.929 254.212,105.728 254.22,104.24 C254.227,102.752 253.026,101.54 251.538,101.532 Z M277.141,101.532 C275.653,101.525 274.441,102.726 274.433,104.214 C274.425,105.701 275.627,106.914 277.115,106.922 C278.602,106.929 279.815,105.728 279.823,104.24 C279.829,102.752 278.629,101.54 277.141,101.532 Z M265.013,104.227 C263.526,104.22 262.313,105.421 262.305,106.909 C262.297,108.396 263.499,109.609 264.987,109.617 C266.474,109.624 267.687,108.423 267.695,106.935 C267.702,105.447 266.501,104.235 265.013,104.227 Z M244.787,108.269 C243.3,108.269 242.092,109.477 242.092,110.964 C242.092,112.452 243.3,113.66 244.787,113.66 C246.275,113.66 247.482,112.452 247.482,110.964 C247.482,109.477 246.275,108.269 244.787,108.269 Z M285.213,108.269 C283.725,108.269 282.518,109.477 282.518,110.964 C282.518,112.452 283.725,113.66 285.213,113.66 C286.7,113.66 287.908,112.452 287.908,110.964 C287.908,109.477 286.7,108.269 285.213,108.269 Z M254.22,115.007 C252.732,115.007 251.525,116.214 251.525,117.702 C251.525,119.19 252.732,120.397 254.22,120.397 C255.708,120.397 256.915,119.19 256.915,117.702 C256.915,116.214 255.708,115.007 254.22,115.007 Z M265,115.007 C263.512,115.007 262.305,116.214 262.305,117.702 C262.305,119.19 263.512,120.397 265,120.397 C266.488,120.397 267.695,119.19 267.695,117.702 C267.695,116.214 266.488,115.007 265,115.007 Z M275.78,115.007 C274.293,115.007 273.085,116.214 273.085,117.702 C273.085,119.19 274.293,120.397 275.78,120.397 C277.268,120.397 278.475,119.19 278.475,117.702 C278.475,116.214 277.268,115.007 275.78,115.007 Z M244.787,121.745 C243.3,121.745 242.092,122.952 242.092,124.44 C242.092,125.927 243.3,127.135 244.787,127.135 C246.275,127.135 247.482,125.927 247.482,124.44 C247.482,122.952 246.275,121.745 244.787,121.745 Z M285.213,121.745 C283.725,121.745 282.518,122.952 282.518,124.44 C282.518,125.927 283.725,127.135 285.213,127.135 C286.7,127.135 287.908,125.927 287.908,124.44 C287.908,122.952 286.7,121.745 285.213,121.745 Z M265.013,125.787 C263.526,125.78 262.313,126.981 262.305,128.469 C262.297,129.957 263.499,131.169 264.987,131.177 C266.474,131.184 267.687,129.983 267.695,128.495 C267.702,127.008 266.501,125.795 265.013,125.787 Z M251.538,128.482 C250.05,128.475 248.838,129.676 248.83,131.164 C248.822,132.652 250.024,133.864 251.512,133.872 C252.999,133.879 254.212,132.678 254.22,131.19 C254.227,129.703 253.026,128.49 251.538,128.482 Z M277.141,128.482 C275.653,128.475 274.441,129.676 274.433,131.164 C274.425,132.652 275.627,133.864 277.115,133.872 C278.602,133.879 279.815,132.678 279.823,131.19 C279.829,129.703 278.629,128.49 277.141,128.482 Z" />
        </g>
        <g id="Regular-S">
            <path d="M465,76 C464.695,76 464.423,76.191 464.321,76.476 C463.337,79.231 461.631,84.014 461.631,84.014 C461.631,84.014 458.775,82.744 456.983,81.948 C456.727,81.835 456.428,81.879 456.217,82.064 C456.007,82.247 455.923,82.537 456.002,82.806 C456.542,84.662 457.469,87.844 458.086,89.959 C442.067,92.56 429.964,104.01 429.964,117.702 C429.964,133.306 445.681,146 465,146 C484.319,146 500.036,133.306 500.036,117.702 C500.036,104.01 487.933,92.56 471.914,89.959 C472.531,87.844 473.457,84.662 473.998,82.806 C474.077,82.538 473.993,82.248 473.783,82.064 C473.572,81.879 473.273,81.835 473.017,81.948 C471.224,82.744 468.369,84.014 468.369,84.014 C468.369,84.014 466.663,79.231 465.679,76.476 C465.577,76.191 465.305,76 465,76 Z M465,94.794 C481.347,94.794 494.645,105.07 494.645,117.702 C494.645,130.334 481.347,140.61 465,140.61 C448.653,140.61 435.355,130.334 435.355,117.702 C435.355,105.07 448.653,94.794 465,94.794 Z M451.538,101.532 C450.05,101.525 448.838,102.726 448.83,104.214 C448.822,105.701 450.024,106.914 451.512,106.922 C452.999,106.929 454.212,105.728 454.22,104.24 C454.227,102.752 453.026,101.54 451.538,101.532 Z M477.141,101.532 C475.653,101.525 474.441,102.726 474.433,104.214 C474.425,105.701 475.627,106.914 477.115,106.922 C478.602,106.929 479.815,105.728 479.823,104.24 C479.829,102.752 478.628,101.54 477.141,101.532 Z M465.013,104.227 C463.525,104.22 462.313,105.421 462.305,106.909 C462.297,108.396 463.499,109.609 464.987,109.617 C466.474,109.624 467.687,108.423 467.695,106.935 C467.702,105.447 466.501,104.235 465.013,104.227 Z M444.787,108.269 C443.3,108.269 442.092,109.477 442.092,110.964 C442.092,112.452 443.3,113.66 444.787,113.66 C446.275,113.66 447.482,112.452 447.482,110.964 C447.482,109.477 446.275,108.269 444.787,108.269 Z M485.213,108.269 C483.725,108.269 482.518,109.477 482.518,110.964 C482.518,112.452 483.725,113.66 485.213,113.66 C486.7,113.66 487.908,112.452 487.908,110.964 C487.908,109.477 486.7,108.269 485.213,108.269 Z M454.22,115.007 C452.732,115.007 451.525,116.214 451.525,117.702 C451.525,119.19 452.732,120.397 454.22,120.397 C455.707,120.397 456.915,119.19 456.915,117.702 C456.915,116.214 455.707,115.007 454.22,115.007 Z M465,115.007 C463.512,115.007 462.305,116.214 462.305,117.702 C462.305,119.19 463.512,120.397 465,120.397 C466.488,120.397 467.695,119.19 467.695,117.702 C467.695,116.214 466.488,115.007 465,115.007 Z M475.78,115.007 C474.292,115.007 473.085,116.214 473.085,117.702 C473.085,119.19 474.292,120.397 475.78,120.397 C477.268,120.397 478.475,119.19 478.475,117.702 C478.475,116.214 477.268,115.007 475.78,115.007 Z M444.787,121.745 C443.3,121.745 442.092,122.952 442.092,124.44 C442.092,125.927 443.3,127.135 444.787,127.135 C446.275,127.135 447.482,125.927 447.482,124.44 C447.482,122.952 446.275,121.745 444.787,121.745 Z M485.213,121.745 C483.725,121.745 482.518,122.952 482.518,124.44 C482.518,125.927 483.725,127.135 485.213,127.135 C486.7,127.135 487.908,125.927 487.908,124.44 C487.908,122.952 486.7,121.745 485.213,121.745 Z M465.013,125.787 C463.525,125.78 462.313,126.981 462.305,128.469 C462.297,129.957 463.499,131.169 464.987,131.177 C466.474,131.184 467.687,129.983 467.695,128.495 C467.702,127.008 466.501,125.795 465.013,125.787 Z M451.538,128.482 C450.05,128.475 448.838,129.676 448.83,131.164 C448.822,132.652 450.024,133.864 451.512,133.872 C452.999,133.879 454.212,132.678 454.22,131.19 C454.227,129.703 453.026,128.49 451.538,128.482 Z M477.141,128.482 C475.653,128.475 474.441,129.676 474.433,131.164 C474.425,132.652 475.627,133.864 477.115,133.872 C478.602,133.879 479.815,132.678 479.823,131.19 C479.829,129.703 478.628,128.49 477.141,128.482 Z" />
        </g>
        <g id="Black-S">
            <path d="M665,76 C664.695,76 664.423,76.191 664.321,76.476 C663.337,79.231 661.631,84.014 661.631,84.014 C661.631,84.014 658.776,82.744 656.983,81.948 C656.727,81.835 656.428,81.879 656.217,82.064 C656.007,82.247 655.923,82.537 656.002,82.806 C656.542,84.662 657.469,87.844 658.086,89.959 C642.067,92.56 629.964,104.01 629.964,117.702 C629.964,133.306 645.681,146 665,146 C684.319,146 700.036,133.306 700.036,117.702 C700.036,104.01 687.933,92.56 671.914,89.959 C672.531,87.844 673.457,84.662 673.998,82.806 C674.077,82.538 673.993,82.248 673.783,82.064 C673.572,81.879 673.273,81.835 673.017,81.948 C671.224,82.744 668.369,84.014 668.369,84.014 C668.369,84.014 666.663,79.231 665.679,76.476 C665.577,76.191 665.305,76 665,76 Z M665,94.794 C681.347,94.794 694.645,105.07 694.645,117.702 C694.645,130.334 681.347,140.61 665,140.61 C648.653,140.61 635.355,130.334 635.355,117.702 C635.355,105.07 648.653,94.794 665,94.794 Z M651.538,101.532 C650.05,101.525 648.838,102.726 648.83,104.214 C648.822,105.701 650.024,106.914 651.512,106.922 C652.999,106.929 654.212,105.728 654.22,104.24 C654.227,102.752 653.026,101.54 651.538,101.532 Z M677.141,101.532 C675.653,101.525 674.441,102.726 674.433,104.214 C674.425,105.701 675.627,106.914 677.115,106.922 C678.602,106.929 679.815,105.728 679.823,104.24 C679.829,102.752 678.628,101.54 677.141,101.532 Z M665.013,104.227 C663.526,104.22 662.313,105.421 662.305,106.909 C662.297,108.396 663.499,109.609 664.987,109.617 C666.474,109.624 667.687,108.423 667.695,106.935 C667.702,105.447 666.501,104.235 665.013,104.227 Z M644.787,108.269 C643.299,108.269 642.092,109.477 642.092,110.964 C642.092,112.452 643.299,113.66 644.787,113.66 C646.275,113.66 647.482,112.452 647.482,110.964 C647.482,109.477 646.275,108.269 644.787,108.269 Z M685.213,108.269 C683.725,108.269 682.518,109.477 682.518,110.964 C682.518,112.452 683.725,113.66 685.213,113.66 C686.7,113.66 687.908,112.452 687.908,110.964 C687.908,109.477 686.7,108.269 685.213,108.269 Z M654.22,115.007 C652.732,115.007 651.525,116.214 651.525,117.702 C651.525,119.19 652.732,120.397 654.22,120.397 C655.707,120.397 656.915,119.19 656.915,117.702 C656.915,116.214 655.707,115.007 654.22,115.007 Z M665,115.007 C663.512,115.007 662.305,116.214 662.305,117.702 C662.305,119.19 663.512,120.397 665,120.397 C666.488,120.397 667.695,119.19 667.695,117.702 C667.695,116.214 666.488,115.007 665,115.007 Z M675.78,115.007 C674.292,115.007 673.085,116.214 673.085,117.702 C673.085,119.19 674.292,120.397 675.78,120.397 C677.268,120.397 678.475,119.19 678.475,117.702 C678.475,116.214 677.268,115.007 675.78,115.007 Z M644.787,121.745 C643.299,121.745 642.092,122.952 642.092,124.44 C642.092,125.927 643.299,127.135 644.787,127.135 C646.275,127.135 647.482,125.927 647.482,124.44 C647.482,122.952 646.275,121.745 644.787,121.745 Z M685.213,121.745 C683.725,121.745 682.518,122.952 682.518,124.44 C682.518,125.927 683.725,127.135 685.213,127.135 C686.7,127.135 687.908,125.927 687.908,124.44 C687.908,122.952 686.7,121.745 685.213,121.745 Z M665.013,125.787 C663.526,125.78 662.313,126.981 662.305,128.469 C662.297,129.957 663.499,131.169 664.987,131.177 C666.474,131.184 667.687,129.983 667.695,128.495 C667.702,127.008 666.501,125.795 665.013,125.787 Z M651.538,128.482 C650.05,128.475 648.838,129.676 648.83,131.164 C648.822,132.652 650.024,133.864 651.512,133.872 C652.999,133.879 654.212,132.678 654.22,131.19 C654.227,129.703 653.026,128.49 651.538,128.482 Z M677.141,128.482 C675.653,128.475 674.441,129.676 674.433,131.164 C674.425,132.652 675.627,133.864 677.115,133.872 C678.602,133.879 679.815,132.678 679.823,131.19 C679.829,129.703 678.628,128.49 677.141,128.482 Z" />
        </g>
    </g>
</svg>