<?xml version="1.0" encoding="UTF-8"?>
<svg height="600" width="800" xmlns="http://www.w3.org/2000/svg" xmlns:xlink="http://www.w3.org/1999/xlink">
    <g id="Notes" font-family="'LucidaGrande', 'Lucida Grande', sans-serif" font-size="13">
        <rect fill="white" height="600.0" width="800.0" x="0.0" y="0.0" />
        <g font-size="13">
            <text x="18.0" y="176.0">Small</text>
            <text x="18.0" y="376.0">Medium</text>
            <text x="18.0" y="576.0">Large</text>
        </g>
        <g font-size="9">
            <text x="250.0" y="30.0">Ultralight</text>
            <text x="450.0" y="30.0">Regular</text>
            <text x="650.0" y="30.0">Black</text>
            <text id="template-version" fill="#505050" text-anchor="end" x="785.0" y="575.0">Template v.3.0</text>
            <a href="https://wangchujiang.com/#/app">
                <text fill="#505050" text-anchor="end" x="785.0" y="590.0">https://wangchujiang.com/#/app</text>
            </a>
        </g>
    </g>
    <g id="Guides" stroke="rgb(39, 170, 225)" stroke-width="0.5">
        <path id="Capline-S" d="M18,76 l800,0" />
        <path id="H-reference" d="M85,145.755 L87.685,145.755 L113.369,79.287 L114.052,79.287 L114.052,76 L112.148,76 L85,145.755 Z M95.693,121.536 L130.996,121.536 L130.263,119.313 L96.474,119.313 L95.693,121.536 Z M139.15,145.755 L141.787,145.755 L114.638,76 L113.466,76 L113.466,79.287 L139.15,145.755 Z" stroke="none" />
        <path id="Baseline-S" d="M18,146 l800,0" />
        <path id="left-margin-Ultralight-S" d="M216.667,56 l0,110" />
        <path id="right-margin-Ultralight-S" d="M313.333,56 l0,110" />
        <path id="left-margin-Regular-S" d="M416.667,56 l0,110" />
        <path id="right-margin-Regular-S" d="M513.333,56 l0,110" />
        <path id="left-margin-Black-S" d="M616.667,56 l0,110" />
        <path id="right-margin-Black-S" d="M713.333,56 l0,110" />
        <path id="Capline-M" d="M18,276 l800,0" />
        <path id="Baseline-M" d="M18,346 l800,0" />
        <path id="Capline-L" d="M18,476 l800,0" />
        <path id="Baseline-L" d="M18,546 l800,0" />
    </g>
    <g id="Symbols">
        <g id="Ultralight-S">
            <path d="M255,76 C239.377,76 226.667,91.7 226.667,111 C226.667,130.3 239.377,146 255,146 C269.625,146 296.489,139.537 299.681,115.792 C301.784,115.201 303.333,113.292 303.333,111 C303.333,108.708 301.784,106.799 299.681,106.208 C296.489,82.463 269.625,76 255,76 Z M254.997,82.667 C254.997,82.667 255,82.667 255,82.667 C255,82.667 255.003,82.667 255.003,82.667 C266.948,82.669 276.667,95.378 276.667,111 C276.667,126.622 266.945,139.331 255,139.333 C255,139.333 254.997,139.333 254.997,139.333 C243.052,139.331 233.333,126.622 233.333,111 C233.333,95.378 243.052,82.669 254.997,82.667 Z M275.244,86.557 C284.459,90.206 293.333,97.276 293.333,111 C293.333,124.724 284.459,131.794 275.244,135.443 C280.242,129.13 283.333,120.507 283.333,111 C283.333,101.493 280.242,92.87 275.244,86.557 Z M255.326,88.129 C253.139,88.057 250.584,88.569 247.9,90.316 L253.75,104.382 C254.958,103.929 255.768,104.202 256.25,104.382 L262.1,90.316 C261.594,89.987 258.97,88.248 255.326,88.129 Z M244.567,93.184 C241.217,96.884 238.918,102.317 238.434,108.5 L250.218,109.083 C250.435,108.133 250.767,107.283 251.217,106.566 L244.567,93.184 Z M265.433,93.184 L258.783,106.566 C259.233,107.283 259.565,108.133 259.782,109.083 L271.566,108.5 C271.082,102.317 268.783,96.884 265.433,93.184 Z M250.218,112.917 L238.434,113.5 C238.918,119.683 241.217,125.116 244.567,128.816 L251.217,115.434 C250.767,114.717 250.435,113.867 250.218,112.917 Z M259.782,112.917 C259.565,113.867 259.233,114.717 258.783,115.434 L265.433,128.816 C268.783,125.116 271.082,119.683 271.566,113.5 L259.782,112.917 Z M253.75,117.618 L247.9,131.684 C255.057,136.344 261.291,132.21 262.1,131.684 L256.25,117.618 C255.042,118.071 254.232,117.798 253.75,117.618 Z" />
        </g>
        <g id="Regular-S">
            <path d="M455,76 C439.377,76 426.667,91.7 426.667,111 C426.667,130.3 439.377,146 455,146 C469.625,146 496.489,139.537 499.681,115.792 C501.784,115.201 503.333,113.292 503.333,111 C503.333,108.708 501.784,106.799 499.681,106.208 C496.489,82.463 469.625,76 455,76 Z M454.997,82.667 C454.997,82.667 455,82.667 455,82.667 C455,82.667 455.003,82.667 455.003,82.667 C466.948,82.669 476.667,95.378 476.667,111 C476.667,126.622 466.945,139.331 455,139.333 C455,139.333 454.997,139.333 454.997,139.333 C443.052,139.331 433.333,126.622 433.333,111 C433.333,95.378 443.052,82.669 454.997,82.667 Z M475.244,86.557 C484.459,90.206 493.333,97.276 493.333,111 C493.333,124.724 484.459,131.794 475.244,135.443 C480.242,129.13 483.333,120.507 483.333,111 C483.333,101.493 480.242,92.87 475.244,86.557 Z M455.326,88.129 C453.139,88.057 450.584,88.569 447.9,90.316 L453.75,104.382 C454.958,103.929 455.768,104.202 456.25,104.382 L462.1,90.316 C461.594,89.987 458.97,88.248 455.326,88.129 Z M444.567,93.184 C441.217,96.884 438.918,102.317 438.434,108.5 L450.218,109.083 C450.435,108.133 450.767,107.283 451.217,106.566 L444.567,93.184 Z M465.433,93.184 L458.783,106.566 C459.233,107.283 459.565,108.133 459.782,109.083 L471.566,108.5 C471.082,102.317 468.783,96.884 465.433,93.184 Z M450.218,112.917 L438.434,113.5 C438.918,119.683 441.217,125.116 444.567,128.816 L451.217,115.434 C450.767,114.717 450.435,113.867 450.218,112.917 Z M459.782,112.917 C459.565,113.867 459.233,114.717 458.783,115.434 L465.433,128.816 C468.783,125.116 471.082,119.683 471.566,113.5 L459.782,112.917 Z M453.75,117.618 L447.9,131.684 C455.057,136.344 461.291,132.21 462.1,131.684 L456.25,117.618 C455.042,118.071 454.232,117.798 453.75,117.618 Z" />
        </g>
        <g id="Black-S">
            <path d="M655,76 C639.377,76 626.667,91.7 626.667,111 C626.667,130.3 639.377,146 655,146 C669.625,146 696.489,139.537 699.681,115.792 C701.784,115.201 703.333,113.292 703.333,111 C703.333,108.708 701.784,106.799 699.681,106.208 C696.489,82.463 669.625,76 655,76 Z M654.997,82.667 C654.997,82.667 655,82.667 655,82.667 C655,82.667 655.003,82.667 655.003,82.667 C666.948,82.669 676.667,95.378 676.667,111 C676.667,126.622 666.945,139.331 655,139.333 C655,139.333 654.997,139.333 654.997,139.333 C643.052,139.331 633.333,126.622 633.333,111 C633.333,95.378 643.052,82.669 654.997,82.667 Z M675.244,86.557 C684.459,90.206 693.333,97.276 693.333,111 C693.333,124.724 684.459,131.794 675.244,135.443 C680.242,129.13 683.333,120.507 683.333,111 C683.333,101.493 680.242,92.87 675.244,86.557 Z M655.326,88.129 C653.139,88.057 650.584,88.569 647.9,90.316 L653.75,104.382 C654.958,103.929 655.768,104.202 656.25,104.382 L662.1,90.316 C661.594,89.987 658.97,88.248 655.326,88.129 Z M644.567,93.184 C641.217,96.884 638.918,102.317 638.434,108.5 L650.218,109.083 C650.435,108.133 650.767,107.283 651.217,106.566 L644.567,93.184 Z M665.433,93.184 L658.783,106.566 C659.233,107.283 659.565,108.133 659.782,109.083 L671.566,108.5 C671.082,102.317 668.783,96.884 665.433,93.184 Z M650.218,112.917 L638.434,113.5 C638.918,119.683 641.217,125.116 644.567,128.816 L651.217,115.434 C650.767,114.717 650.435,113.867 650.218,112.917 Z M659.782,112.917 C659.565,113.867 659.233,114.717 658.783,115.434 L665.433,128.816 C668.783,125.116 671.082,119.683 671.566,113.5 L659.782,112.917 Z M653.75,117.618 L647.9,131.684 C655.057,136.344 661.291,132.21 662.1,131.684 L656.25,117.618 C655.042,118.071 654.232,117.798 653.75,117.618 Z" />
        </g>
    </g>
</svg>