<?xml version="1.0" encoding="UTF-8"?>
<svg height="600" width="800" xmlns="http://www.w3.org/2000/svg" xmlns:xlink="http://www.w3.org/1999/xlink">
    <g id="Notes" font-family="'LucidaGrande', 'Lucida Grande', sans-serif" font-size="13">
        <rect fill="white" height="600.0" width="800.0" x="0.0" y="0.0" />
        <g font-size="13">
            <text x="18.0" y="176.0">Small</text>
            <text x="18.0" y="376.0">Medium</text>
            <text x="18.0" y="576.0">Large</text>
        </g>
        <g font-size="9">
            <text x="250.0" y="30.0">Ultralight</text>
            <text x="450.0" y="30.0">Regular</text>
            <text x="650.0" y="30.0">Black</text>
            <text id="template-version" fill="#505050" text-anchor="end" x="785.0" y="575.0">Template v.3.0</text>
            <a href="https://wangchujiang.com/#/app">
                <text fill="#505050" text-anchor="end" x="785.0" y="590.0">https://wangchujiang.com/#/app</text>
            </a>
        </g>
    </g>
    <g id="Guides" stroke="rgb(39, 170, 225)" stroke-width="0.5">
        <path id="Capline-S" d="M18,76 l800,0" />
        <path id="H-reference" d="M85,145.755 L87.685,145.755 L113.369,79.287 L114.052,79.287 L114.052,76 L112.148,76 L85,145.755 Z M95.693,121.536 L130.996,121.536 L130.263,119.313 L96.474,119.313 L95.693,121.536 Z M139.15,145.755 L141.787,145.755 L114.638,76 L113.466,76 L113.466,79.287 L139.15,145.755 Z" stroke="none" />
        <path id="Baseline-S" d="M18,146 l800,0" />
        <path id="left-margin-Ultralight-S" d="M220.146,56 l0,110" />
        <path id="right-margin-Ultralight-S" d="M309.854,56 l0,110" />
        <path id="left-margin-Regular-S" d="M420.146,56 l0,110" />
        <path id="right-margin-Regular-S" d="M509.854,56 l0,110" />
        <path id="left-margin-Black-S" d="M620.146,56 l0,110" />
        <path id="right-margin-Black-S" d="M709.854,56 l0,110" />
        <path id="Capline-M" d="M18,276 l800,0" />
        <path id="Baseline-M" d="M18,346 l800,0" />
        <path id="Capline-L" d="M18,476 l800,0" />
        <path id="Baseline-L" d="M18,546 l800,0" />
    </g>
    <g id="Symbols">
        <g id="Ultralight-S">
            <path d="M236.405,142.311 L234.06,140.069 C229.56,135.764 228.857,128.914 232.386,123.784 L249.424,99.021 L253.552,101.862 L236.514,126.623 C234.384,129.719 234.81,133.851 237.525,136.448 L239.869,138.691 C242.449,141.16 246.466,141.493 249.418,139.489 L275.839,121.543 C276.986,120.764 278.543,121.063 279.319,122.208 C280.097,123.353 279.799,124.91 278.655,125.688 L252.234,143.634 C247.256,147.026 240.858,146.929 236.405,142.311 Z" />
            <path d="M250.768,130.063 C249.799,129.077 250.251,127.367 251.385,126.573 L263.911,117.805 C265.044,117.012 266.605,117.289 267.399,118.421 C268.192,119.555 267.917,121.117 266.783,121.911 L254.257,130.679 C253.821,130.984 252.006,131.321 250.768,130.063 Z" />
            <path d="M246.16,124.248 C245.163,123.289 245.014,121.754 245.925,120.714 L254.693,110.693 C255.605,109.651 257.186,109.547 258.228,110.457 C259.269,111.369 259.374,112.951 258.463,113.992 L249.695,124.013 C249.2,124.579 247.062,125.116 246.16,124.248 Z" />
            <path d="M275.831,124.063 C275.405,124.316 270.91,125.988 266.972,123.774 C263.772,121.974 261.338,119.044 260.603,115.959 C257.465,115.496 254.333,113.968 252.2,110.187 C250.428,107.044 250.976,101.947 251.192,101.501 C248.573,99.206 246.813,95.834 247.198,92.69 C247.644,89.053 250.068,87.114 252.059,86.427 C251.838,85.331 252.394,80.909 254.918,78.755 C257.739,76.347 260.794,77.154 263.817,78.64 C265.192,77.224 268.003,75.77 271.608,76.031 C275.396,76.305 278.107,79.025 279.809,81.954 C282.68,81.441 286.121,82.544 288.884,85.074 C291.647,87.605 293.05,90.93 292.788,93.841 C295.856,95.281 298.153,97.582 299.41,101.489 C300.661,105.38 299.025,108.439 297.494,109.478 C299.242,112.357 299.808,115.91 298.161,118.351 C296.02,121.525 291.884,121.997 290.772,121.873 C290.606,122.65 289.331,126.276 284.96,127.265 C282.374,127.853 277.989,126.129 275.831,124.063 Z M276.018,117.831 C276.893,117.831 277.708,118.287 278.163,119.04 C279.448,121.168 282.135,122.639 284.174,122.319 C286.131,122.014 286.034,120.463 285.726,119.195 C285.483,118.193 285.722,117.139 286.52,116.484 C287.316,115.83 288.431,115.729 289.334,116.234 C290.456,116.863 292.857,117.359 293.769,115.939 C294.662,114.548 293.851,112.215 291.868,110.491 C291.12,109.84 290.826,108.81 291.117,107.862 C291.409,106.914 292.226,106.111 293.218,106.112 C294.565,106.114 295.049,104.757 294.596,102.886 C294.017,100.498 292.141,98.552 289.296,97.941 C288.479,97.766 287.768,97.27 287.421,96.511 C287.075,95.752 287.222,94.917 287.566,94.157 C288.166,92.833 287.527,90.627 285.499,88.771 C283.471,86.914 280.949,86.443 279.95,87.184 C279.28,87.682 278.407,87.813 277.619,87.533 C276.833,87.254 276.236,86.601 276.03,85.792 C275.469,83.595 273.095,80.873 270.637,80.946 C268.681,81.003 267.613,81.488 267.546,82.599 C267.486,83.589 266.906,84.472 265.988,84.846 C265.073,85.22 264.018,85.019 263.303,84.33 C261.411,82.505 259.25,81.878 257.708,82.914 C256.368,83.815 257.078,86.298 257.802,87.36 C258.383,88.212 258.383,89.333 257.801,90.185 C257.219,91.037 256.173,91.445 255.169,91.212 C254.278,91.007 252.571,91.061 252.194,93.033 C251.713,95.545 253.753,97.638 255.987,98.733 C256.81,99.136 257.347,99.958 257.387,100.872 C257.427,101.788 256.727,102.392 256.178,103.127 C255.687,103.785 255.086,104.241 256.47,107.586 C257.625,110.377 260.804,111.31 262.401,110.991 C263.184,110.833 263.996,111.06 264.586,111.6 C265.176,112.139 265.472,112.927 265.385,113.721 C265.205,115.346 265.991,117.38 268.386,119.005 C271.101,120.846 273.136,119.975 273.765,119.23 C274.356,118.53 274.99,117.87 275.905,117.829 C275.946,117.831 275.982,117.831 276.018,117.831 Z" />
        </g>
        <g id="Regular-S">
            <path d="M436.405,142.311 L434.06,140.069 C429.56,135.764 428.857,128.914 432.386,123.784 L449.424,99.021 L453.552,101.862 L436.514,126.623 C434.384,129.719 434.81,133.851 437.525,136.448 L439.869,138.691 C442.449,141.16 446.466,141.493 449.418,139.489 L475.839,121.543 C476.986,120.764 478.543,121.063 479.319,122.208 C480.097,123.353 479.799,124.91 478.655,125.688 L452.234,143.634 C447.256,147.026 440.858,146.929 436.405,142.311 Z" />
            <path d="M450.768,130.063 C449.799,129.077 450.251,127.367 451.385,126.573 L463.911,117.805 C465.044,117.012 466.605,117.289 467.399,118.421 C468.192,119.555 467.917,121.117 466.783,121.911 L454.257,130.679 C453.821,130.984 452.006,131.321 450.768,130.063 Z" />
            <path d="M446.16,124.248 C445.163,123.289 445.014,121.754 445.925,120.714 L454.693,110.693 C455.605,109.651 457.186,109.547 458.228,110.457 C459.269,111.369 459.374,112.951 458.463,113.992 L449.695,124.013 C449.2,124.579 447.062,125.116 446.16,124.248 Z" />
            <path d="M475.831,124.063 C475.405,124.316 470.91,125.988 466.972,123.774 C463.772,121.974 461.338,119.044 460.603,115.959 C457.465,115.496 454.333,113.968 452.2,110.187 C450.428,107.044 450.976,101.947 451.192,101.501 C448.573,99.206 446.813,95.834 447.198,92.69 C447.644,89.053 450.068,87.114 452.059,86.427 C451.838,85.331 452.394,80.909 454.918,78.755 C457.739,76.347 460.794,77.154 463.817,78.64 C465.192,77.224 468.003,75.77 471.608,76.031 C475.396,76.305 478.107,79.025 479.809,81.954 C482.68,81.441 486.121,82.544 488.884,85.074 C491.647,87.605 493.05,90.93 492.788,93.841 C495.856,95.281 498.153,97.582 499.41,101.489 C500.661,105.38 499.025,108.439 497.494,109.478 C499.242,112.357 499.808,115.91 498.161,118.351 C496.02,121.525 491.884,121.997 490.772,121.873 C490.606,122.65 489.331,126.276 484.96,127.265 C482.374,127.853 477.989,126.129 475.831,124.063 Z M476.018,117.831 C476.893,117.831 477.708,118.287 478.163,119.04 C479.448,121.168 482.135,122.639 484.174,122.319 C486.131,122.014 486.034,120.463 485.726,119.195 C485.483,118.193 485.722,117.139 486.52,116.484 C487.316,115.83 488.431,115.729 489.334,116.234 C490.456,116.863 492.857,117.359 493.769,115.939 C494.662,114.548 493.851,112.215 491.868,110.491 C491.12,109.84 490.826,108.81 491.117,107.862 C491.409,106.914 492.226,106.111 493.218,106.112 C494.565,106.114 495.049,104.757 494.596,102.886 C494.017,100.498 492.141,98.552 489.296,97.941 C488.479,97.766 487.768,97.27 487.421,96.511 C487.075,95.752 487.222,94.917 487.566,94.157 C488.166,92.833 487.527,90.627 485.499,88.771 C483.471,86.914 480.949,86.443 479.95,87.184 C479.28,87.682 478.407,87.813 477.619,87.533 C476.833,87.254 476.236,86.601 476.03,85.792 C475.469,83.595 473.095,80.873 470.637,80.946 C468.681,81.003 467.613,81.488 467.546,82.599 C467.486,83.589 466.906,84.472 465.988,84.846 C465.073,85.22 464.018,85.019 463.303,84.33 C461.411,82.505 459.25,81.878 457.708,82.914 C456.368,83.815 457.078,86.298 457.802,87.36 C458.383,88.212 458.383,89.333 457.801,90.185 C457.219,91.037 456.173,91.445 455.169,91.212 C454.278,91.007 452.571,91.061 452.194,93.033 C451.713,95.545 453.753,97.638 455.987,98.733 C456.81,99.136 457.347,99.958 457.387,100.872 C457.427,101.788 456.727,102.392 456.178,103.127 C455.687,103.785 455.086,104.241 456.47,107.586 C457.625,110.377 460.804,111.31 462.401,110.991 C463.184,110.833 463.996,111.06 464.586,111.6 C465.176,112.139 465.472,112.927 465.385,113.721 C465.205,115.346 465.991,117.38 468.386,119.005 C471.101,120.846 473.136,119.975 473.765,119.23 C474.356,118.53 474.99,117.87 475.905,117.829 C475.946,117.831 475.982,117.831 476.018,117.831 Z" />
        </g>
        <g id="Black-S">
            <path d="M636.405,142.311 L634.06,140.069 C629.56,135.764 628.857,128.914 632.386,123.784 L649.424,99.021 L653.552,101.862 L636.514,126.623 C634.384,129.719 634.81,133.851 637.525,136.448 L639.869,138.691 C642.449,141.16 646.466,141.493 649.418,139.489 L675.839,121.543 C676.986,120.764 678.543,121.063 679.319,122.208 C680.097,123.353 679.799,124.91 678.655,125.688 L652.234,143.634 C647.256,147.026 640.858,146.929 636.405,142.311 Z" />
            <path d="M650.768,130.063 C649.799,129.077 650.251,127.367 651.385,126.573 L663.911,117.805 C665.044,117.012 666.605,117.289 667.399,118.421 C668.192,119.555 667.917,121.117 666.783,121.911 L654.257,130.679 C653.821,130.984 652.006,131.321 650.768,130.063 Z" />
            <path d="M646.16,124.248 C645.163,123.289 645.014,121.754 645.925,120.714 L654.693,110.693 C655.605,109.651 657.186,109.547 658.228,110.457 C659.269,111.369 659.374,112.951 658.463,113.992 L649.695,124.013 C649.2,124.579 647.062,125.116 646.16,124.248 Z" />
            <path d="M675.831,124.063 C675.405,124.316 670.91,125.988 666.972,123.774 C663.772,121.974 661.338,119.044 660.603,115.959 C657.465,115.496 654.333,113.968 652.2,110.187 C650.428,107.044 650.976,101.947 651.192,101.501 C648.573,99.206 646.813,95.834 647.198,92.69 C647.644,89.053 650.068,87.114 652.059,86.427 C651.838,85.331 652.394,80.909 654.918,78.755 C657.739,76.347 660.794,77.154 663.817,78.64 C665.192,77.224 668.003,75.77 671.608,76.031 C675.396,76.305 678.107,79.025 679.809,81.954 C682.68,81.441 686.121,82.544 688.884,85.074 C691.647,87.605 693.05,90.93 692.788,93.841 C695.856,95.281 698.153,97.582 699.41,101.489 C700.661,105.38 699.025,108.439 697.495,109.478 C699.242,112.357 699.808,115.91 698.161,118.351 C696.02,121.525 691.884,121.997 690.772,121.873 C690.606,122.65 689.331,126.276 684.96,127.265 C682.374,127.853 677.989,126.129 675.831,124.063 Z M676.018,117.831 C676.893,117.831 677.708,118.287 678.163,119.04 C679.448,121.168 682.135,122.639 684.174,122.319 C686.131,122.014 686.034,120.463 685.726,119.195 C685.483,118.193 685.722,117.139 686.52,116.484 C687.316,115.83 688.431,115.729 689.334,116.234 C690.456,116.863 692.857,117.359 693.769,115.939 C694.662,114.548 693.851,112.215 691.868,110.491 C691.12,109.84 690.826,108.81 691.117,107.862 C691.409,106.914 692.226,106.111 693.218,106.112 C694.565,106.114 695.049,104.757 694.596,102.886 C694.017,100.498 692.141,98.552 689.296,97.941 C688.479,97.766 687.768,97.27 687.421,96.511 C687.075,95.752 687.222,94.917 687.566,94.157 C688.166,92.833 687.527,90.627 685.5,88.771 C683.471,86.914 680.949,86.443 679.95,87.184 C679.28,87.682 678.407,87.813 677.619,87.533 C676.833,87.254 676.236,86.601 676.03,85.792 C675.469,83.595 673.095,80.873 670.637,80.946 C668.681,81.003 667.613,81.488 667.546,82.599 C667.486,83.589 666.906,84.472 665.988,84.846 C665.073,85.22 664.018,85.019 663.303,84.33 C661.411,82.505 659.25,81.878 657.708,82.914 C656.368,83.815 657.078,86.298 657.802,87.36 C658.383,88.212 658.383,89.333 657.801,90.185 C657.219,91.037 656.173,91.445 655.169,91.212 C654.278,91.007 652.571,91.061 652.194,93.033 C651.713,95.545 653.753,97.638 655.987,98.733 C656.81,99.136 657.347,99.958 657.387,100.872 C657.427,101.788 656.727,102.392 656.178,103.127 C655.687,103.785 655.086,104.241 656.47,107.586 C657.625,110.377 660.804,111.31 662.401,110.991 C663.184,110.833 663.996,111.06 664.586,111.6 C665.176,112.139 665.472,112.927 665.385,113.721 C665.205,115.346 665.991,117.38 668.386,119.005 C671.101,120.846 673.136,119.975 673.765,119.23 C674.356,118.53 674.99,117.87 675.904,117.829 C675.946,117.831 675.982,117.831 676.018,117.831 Z" />
        </g>
    </g>
</svg>