<?xml version="1.0" encoding="UTF-8"?>
<svg height="600" width="800" xmlns="http://www.w3.org/2000/svg" xmlns:xlink="http://www.w3.org/1999/xlink">
    <g id="Notes" font-family="'LucidaGrande', 'Lucida Grande', sans-serif" font-size="13">
        <rect fill="white" height="600.0" width="800.0" x="0.0" y="0.0" />
        <g font-size="13">
            <text x="18.0" y="176.0">Small</text>
            <text x="18.0" y="376.0">Medium</text>
            <text x="18.0" y="576.0">Large</text>
        </g>
        <g font-size="9">
            <text x="250.0" y="30.0">Ultralight</text>
            <text x="450.0" y="30.0">Regular</text>
            <text x="650.0" y="30.0">Black</text>
            <text id="template-version" fill="#505050" text-anchor="end" x="785.0" y="575.0">Template v.3.0</text>
            <a href="https://wangchujiang.com/#/app">
                <text fill="#505050" text-anchor="end" x="785.0" y="590.0">https://wangchujiang.com/#/app</text>
            </a>
        </g>
    </g>
    <g id="Guides" stroke="rgb(39, 170, 225)" stroke-width="0.5">
        <path id="Capline-S" d="M18,76 l800,0" />
        <path id="H-reference" d="M85,145.755 L87.685,145.755 L113.369,79.287 L114.052,79.287 L114.052,76 L112.148,76 L85,145.755 Z M95.693,121.536 L130.996,121.536 L130.263,119.313 L96.474,119.313 L95.693,121.536 Z M139.15,145.755 L141.787,145.755 L114.638,76 L113.466,76 L113.466,79.287 L139.15,145.755 Z" stroke="none" />
        <path id="Baseline-S" d="M18,146 l800,0" />
        <path id="left-margin-Ultralight-S" d="M221,56 l0,110" />
        <path id="right-margin-Ultralight-S" d="M309,56 l0,110" />
        <path id="left-margin-Regular-S" d="M421,56 l0,110" />
        <path id="right-margin-Regular-S" d="M509,56 l0,110" />
        <path id="left-margin-Black-S" d="M621,56 l0,110" />
        <path id="right-margin-Black-S" d="M709,56 l0,110" />
        <path id="Capline-M" d="M18,276 l800,0" />
        <path id="Baseline-M" d="M18,346 l800,0" />
        <path id="Capline-L" d="M18,476 l800,0" />
        <path id="Baseline-L" d="M18,546 l800,0" />
    </g>
    <g id="Symbols">
        <g id="Ultralight-S">
            <path d="M257.364,76 C255.959,76 254.818,77.14 254.818,78.545 C254.818,79.484 255.334,80.294 256.091,80.735 L256.091,89.031 C256.091,89.96 255.841,90.865 255.368,91.646 C253.26,95.121 249.727,102.011 249.727,109.091 C249.727,115.346 250.65,119.336 251.39,122.542 C251.882,124.677 252.273,126.363 252.273,128.182 C252.273,128.721 252.064,130.534 250.137,135.694 C249.262,138.038 249.592,140.665 251.017,142.719 C252.444,144.773 254.789,146 257.292,146 L272.708,146 C275.209,146 277.555,144.773 278.983,142.719 C280.408,140.665 280.738,138.039 279.863,135.696 C277.936,130.535 277.727,128.721 277.727,128.182 C277.727,126.363 278.118,124.677 278.61,122.542 C279.35,119.336 280.273,115.346 280.273,109.091 C280.273,102.011 276.74,95.121 274.632,91.646 C274.159,90.865 273.909,89.96 273.909,89.031 L273.909,80.735 C274.666,80.294 275.182,79.484 275.182,78.545 C275.182,77.14 274.041,76 272.636,76 L257.364,76 Z M261.182,81.091 L268.818,81.091 L268.818,89.031 C268.818,90.89 269.323,92.706 270.277,94.283 C271.001,95.476 272.192,97.609 273.221,100.182 L256.779,100.182 C257.808,97.609 258.999,95.476 259.723,94.283 C260.677,92.707 261.182,90.89 261.182,89.031 L261.182,81.091 Z M255.248,105.273 L274.752,105.273 C275.006,106.533 275.182,107.815 275.182,109.091 C275.182,112.197 274.929,114.626 274.59,116.727 L255.41,116.727 C255.071,114.626 254.818,112.197 254.818,109.091 C254.818,107.815 254.994,106.533 255.248,105.273 Z M256.444,121.818 L273.556,121.818 C273.072,123.919 272.636,125.934 272.636,128.182 C272.636,129.348 272.891,131.578 275.09,137.476 C275.388,138.269 275.281,139.122 274.799,139.815 C274.318,140.51 273.555,140.909 272.708,140.909 L257.292,140.909 C256.445,140.909 255.683,140.51 255.201,139.815 C254.72,139.12 254.611,138.27 254.908,137.476 C257.108,131.58 257.364,129.348 257.364,128.182 C257.364,125.934 256.928,123.919 256.444,121.818 Z" />
        </g>
        <g id="Regular-S">
            <path d="M457.364,76 C455.959,76 454.818,77.14 454.818,78.545 C454.818,79.484 455.334,80.294 456.091,80.735 L456.091,89.031 C456.091,89.96 455.841,90.865 455.368,91.646 C453.26,95.121 449.727,102.011 449.727,109.091 C449.727,115.346 450.65,119.336 451.39,122.542 C451.882,124.677 452.273,126.363 452.273,128.182 C452.273,128.721 452.064,130.534 450.137,135.694 C449.262,138.038 449.592,140.665 451.017,142.719 C452.444,144.773 454.789,146 457.292,146 L472.708,146 C475.209,146 477.555,144.773 478.983,142.719 C480.408,140.665 480.738,138.039 479.863,135.696 C477.936,130.535 477.727,128.721 477.727,128.182 C477.727,126.363 478.118,124.677 478.61,122.542 C479.35,119.336 480.273,115.346 480.273,109.091 C480.273,102.011 476.74,95.121 474.632,91.646 C474.159,90.865 473.909,89.96 473.909,89.031 L473.909,80.735 C474.666,80.294 475.182,79.484 475.182,78.545 C475.182,77.14 474.041,76 472.636,76 L457.364,76 Z M461.182,81.091 L468.818,81.091 L468.818,89.031 C468.818,90.89 469.323,92.706 470.277,94.283 C471.001,95.476 472.192,97.609 473.221,100.182 L456.779,100.182 C457.808,97.609 458.999,95.476 459.723,94.283 C460.677,92.707 461.182,90.89 461.182,89.031 L461.182,81.091 Z M455.248,105.273 L474.752,105.273 C475.006,106.533 475.182,107.815 475.182,109.091 C475.182,112.197 474.929,114.626 474.59,116.727 L455.41,116.727 C455.071,114.626 454.818,112.197 454.818,109.091 C454.818,107.815 454.994,106.533 455.248,105.273 Z M456.444,121.818 L473.556,121.818 C473.072,123.919 472.636,125.934 472.636,128.182 C472.636,129.348 472.891,131.578 475.09,137.476 C475.388,138.269 475.281,139.122 474.799,139.815 C474.318,140.51 473.555,140.909 472.708,140.909 L457.292,140.909 C456.445,140.909 455.683,140.51 455.201,139.815 C454.72,139.12 454.611,138.27 454.908,137.476 C457.108,131.58 457.364,129.348 457.364,128.182 C457.364,125.934 456.928,123.919 456.444,121.818 Z" />
        </g>
        <g id="Black-S">
            <path d="M657.364,76 C655.958,76 654.818,77.14 654.818,78.545 C654.818,79.484 655.334,80.294 656.091,80.735 L656.091,89.031 C656.091,89.96 655.841,90.865 655.367,91.646 C653.26,95.121 649.727,102.011 649.727,109.091 C649.727,115.346 650.65,119.336 651.39,122.542 C651.882,124.677 652.273,126.363 652.273,128.182 C652.273,128.721 652.064,130.534 650.137,135.694 C649.262,138.038 649.592,140.665 651.017,142.719 C652.444,144.773 654.789,146 657.292,146 L672.708,146 C675.209,146 677.555,144.773 678.983,142.719 C680.408,140.665 680.738,138.039 679.863,135.696 C677.936,130.535 677.727,128.721 677.727,128.182 C677.727,126.363 678.118,124.677 678.61,122.542 C679.35,119.336 680.273,115.346 680.273,109.091 C680.273,102.011 676.74,95.121 674.632,91.646 C674.159,90.865 673.909,89.96 673.909,89.031 L673.909,80.735 C674.666,80.294 675.182,79.484 675.182,78.545 C675.182,77.14 674.041,76 672.636,76 L657.364,76 Z M661.182,81.091 L668.818,81.091 L668.818,89.031 C668.818,90.89 669.323,92.706 670.277,94.283 C671.001,95.476 672.192,97.609 673.221,100.182 L656.779,100.182 C657.808,97.609 658.999,95.476 659.723,94.283 C660.677,92.707 661.182,90.89 661.182,89.031 L661.182,81.091 Z M655.248,105.273 L674.752,105.273 C675.005,106.533 675.182,107.815 675.182,109.091 C675.182,112.197 674.929,114.626 674.59,116.727 L655.41,116.727 C655.071,114.626 654.818,112.197 654.818,109.091 C654.818,107.815 654.994,106.533 655.248,105.273 Z M656.444,121.818 L673.556,121.818 C673.072,123.919 672.636,125.934 672.636,128.182 C672.636,129.348 672.891,131.578 675.09,137.476 C675.388,138.269 675.281,139.122 674.799,139.815 C674.318,140.51 673.555,140.909 672.708,140.909 L657.292,140.909 C656.445,140.909 655.683,140.51 655.201,139.815 C654.72,139.12 654.611,138.27 654.908,137.476 C657.108,131.58 657.364,129.348 657.364,128.182 C657.364,125.934 656.928,123.919 656.444,121.818 Z" />
        </g>
    </g>
</svg>