<?xml version="1.0" encoding="UTF-8"?>
<svg height="600" width="800" xmlns="http://www.w3.org/2000/svg" xmlns:xlink="http://www.w3.org/1999/xlink">
    <g id="Notes" font-family="'LucidaGrande', 'Lucida Grande', sans-serif" font-size="13">
        <rect fill="white" height="600.0" width="800.0" x="0.0" y="0.0" />
        <g font-size="13">
            <text x="18.0" y="176.0">Small</text>
            <text x="18.0" y="376.0">Medium</text>
            <text x="18.0" y="576.0">Large</text>
        </g>
        <g font-size="9">
            <text x="250.0" y="30.0">Ultralight</text>
            <text x="450.0" y="30.0">Regular</text>
            <text x="650.0" y="30.0">Black</text>
            <text id="template-version" fill="#505050" text-anchor="end" x="785.0" y="575.0">Template v.3.0</text>
            <a href="https://wangchujiang.com/#/app">
                <text fill="#505050" text-anchor="end" x="785.0" y="590.0">https://wangchujiang.com/#/app</text>
            </a>
        </g>
    </g>
    <g id="Guides" stroke="rgb(39, 170, 225)" stroke-width="0.5">
        <path id="Capline-S" d="M18,76 l800,0" />
        <path id="H-reference" d="M85,145.755 L87.685,145.755 L113.369,79.287 L114.052,79.287 L114.052,76 L112.148,76 L85,145.755 Z M95.693,121.536 L130.996,121.536 L130.263,119.313 L96.474,119.313 L95.693,121.536 Z M139.15,145.755 L141.787,145.755 L114.638,76 L113.466,76 L113.466,79.287 L139.15,145.755 Z" stroke="none" />
        <path id="Baseline-S" d="M18,146 l800,0" />
        <path id="left-margin-Ultralight-S" d="M221,56 l0,110" />
        <path id="right-margin-Ultralight-S" d="M309,56 l0,110" />
        <path id="left-margin-Regular-S" d="M421,56 l0,110" />
        <path id="right-margin-Regular-S" d="M509,56 l0,110" />
        <path id="left-margin-Black-S" d="M621,56 l0,110" />
        <path id="right-margin-Black-S" d="M709,56 l0,110" />
        <path id="Capline-M" d="M18,276 l800,0" />
        <path id="Baseline-M" d="M18,346 l800,0" />
        <path id="Capline-L" d="M18,476 l800,0" />
        <path id="Baseline-L" d="M18,546 l800,0" />
    </g>
    <g id="Symbols">
        <g id="Ultralight-S">
            <path d="M267.393,87.561 C280.522,88.633 289.182,98.541 289.182,112.909 C289.182,128.529 278.84,146 265,146 C251.16,146 240.818,128.529 240.818,112.909 C240.818,98.652 249.342,88.777 262.302,87.579 C262.25,85.74 261.66,83.956 260.635,82.717 C259.74,81.638 258.64,81.091 257.364,81.091 C255.959,81.091 254.818,79.951 254.818,78.545 C254.818,77.14 255.959,76 257.364,76 C260.148,76 262.701,77.232 264.555,79.471 C266.333,81.617 267.333,84.551 267.393,87.561 Z M272.442,138.229 C278.738,133.803 284.091,124.292 284.091,112.909 C284.091,100.538 276.597,92.545 265,92.545 C253.403,92.545 245.909,100.538 245.909,112.909 C245.909,127.503 254.699,139.046 263.007,140.688 C270.092,135.539 273.961,126.181 272.663,117.086 C272.465,115.695 273.432,114.406 274.822,114.206 C276.222,114.013 277.503,114.975 277.702,116.366 C278.809,124.115 276.777,132.046 272.442,138.229 Z" />
        </g>
        <g id="Regular-S">
            <path d="M467.393,87.561 C480.522,88.633 489.182,98.541 489.182,112.909 C489.182,128.529 478.84,146 465,146 C451.16,146 440.818,128.529 440.818,112.909 C440.818,98.652 449.342,88.777 462.302,87.579 C462.25,85.74 461.66,83.956 460.635,82.717 C459.74,81.638 458.64,81.091 457.364,81.091 C455.959,81.091 454.818,79.951 454.818,78.545 C454.818,77.14 455.959,76 457.364,76 C460.148,76 462.701,77.232 464.555,79.471 C466.333,81.617 467.333,84.551 467.393,87.561 Z M472.442,138.229 C478.738,133.803 484.091,124.292 484.091,112.909 C484.091,100.538 476.597,92.545 465,92.545 C453.403,92.545 445.909,100.538 445.909,112.909 C445.909,127.503 454.699,139.046 463.007,140.688 C470.092,135.539 473.961,126.181 472.663,117.086 C472.465,115.695 473.432,114.406 474.822,114.206 C476.222,114.013 477.503,114.975 477.702,116.366 C478.809,124.115 476.777,132.046 472.442,138.229 Z" />
        </g>
        <g id="Black-S">
            <path d="M667.393,87.561 C680.522,88.633 689.182,98.541 689.182,112.909 C689.182,128.529 678.84,146 665,146 C651.16,146 640.818,128.529 640.818,112.909 C640.818,98.652 649.342,88.777 662.302,87.579 C662.25,85.74 661.66,83.956 660.635,82.717 C659.74,81.638 658.64,81.091 657.364,81.091 C655.959,81.091 654.818,79.951 654.818,78.545 C654.818,77.14 655.959,76 657.364,76 C660.148,76 662.701,77.232 664.555,79.471 C666.333,81.617 667.333,84.551 667.393,87.561 Z M672.442,138.229 C678.738,133.803 684.091,124.292 684.091,112.909 C684.091,100.538 676.597,92.545 665,92.545 C653.403,92.545 645.909,100.538 645.909,112.909 C645.909,127.503 654.699,139.046 663.007,140.688 C670.092,135.539 673.961,126.181 672.663,117.086 C672.465,115.695 673.432,114.406 674.822,114.206 C676.222,114.013 677.503,114.975 677.702,116.366 C678.809,124.115 676.777,132.046 672.442,138.229 Z" />
        </g>
    </g>
</svg>