<?xml version="1.0" encoding="UTF-8"?>
<svg height="600" width="800" xmlns="http://www.w3.org/2000/svg" xmlns:xlink="http://www.w3.org/1999/xlink">
    <g id="Notes" font-family="'LucidaGrande', 'Lucida Grande', sans-serif" font-size="13">
        <rect fill="white" height="600.0" width="800.0" x="0.0" y="0.0" />
        <g font-size="13">
            <text x="18.0" y="176.0">Small</text>
            <text x="18.0" y="376.0">Medium</text>
            <text x="18.0" y="576.0">Large</text>
        </g>
        <g font-size="9">
            <text x="250.0" y="30.0">Ultralight</text>
            <text x="450.0" y="30.0">Regular</text>
            <text x="650.0" y="30.0">Black</text>
            <text id="template-version" fill="#505050" text-anchor="end" x="785.0" y="575.0">Template v.3.0</text>
            <a href="https://wangchujiang.com/#/app">
                <text fill="#505050" text-anchor="end" x="785.0" y="590.0">https://wangchujiang.com/#/app</text>
            </a>
        </g>
    </g>
    <g id="Guides" stroke="rgb(39, 170, 225)" stroke-width="0.5">
        <path id="Capline-S" d="M18,76 l800,0" />
        <path id="H-reference" d="M85,145.755 L87.685,145.755 L113.369,79.287 L114.052,79.287 L114.052,76 L112.148,76 L85,145.755 Z M95.693,121.536 L130.996,121.536 L130.263,119.313 L96.474,119.313 L95.693,121.536 Z M139.15,145.755 L141.787,145.755 L114.638,76 L113.466,76 L113.466,79.287 L139.15,145.755 Z" stroke="none" />
        <path id="Baseline-S" d="M18,146 l800,0" />
        <path id="left-margin-Ultralight-S" d="M211,56 l0,110" />
        <path id="right-margin-Ultralight-S" d="M319,56 l0,110" />
        <path id="left-margin-Regular-S" d="M411,56 l0,110" />
        <path id="right-margin-Regular-S" d="M519,56 l0,110" />
        <path id="left-margin-Black-S" d="M611,56 l0,110" />
        <path id="right-margin-Black-S" d="M719,56 l0,110" />
        <path id="Capline-M" d="M18,276 l800,0" />
        <path id="Baseline-M" d="M18,346 l800,0" />
        <path id="Capline-L" d="M18,476 l800,0" />
        <path id="Baseline-L" d="M18,546 l800,0" />
    </g>
    <g id="Symbols">
        <g id="Ultralight-S">
            <path d="M300.651,83.149 C300.295,83.161 299.934,83.244 299.591,83.404 L277.492,93.665 C273.359,91.318 266.989,90.023 258.812,90.023 C243.745,90.023 234.75,94.393 234.75,101.711 C234.75,101.737 234.756,101.764 234.756,101.791 L234.75,101.791 L234.75,113.51 L222.593,119.153 C221.216,119.792 220.617,121.427 221.256,122.805 C221.721,123.807 222.717,124.397 223.754,124.397 C224.141,124.397 224.533,124.315 224.908,124.142 L234.75,119.571 L234.75,126.57 C234.75,126.733 234.785,126.889 234.796,127.05 L223.085,129.978 C221.612,130.346 220.716,131.84 221.084,133.313 C221.396,134.564 222.516,135.397 223.748,135.397 C223.97,135.397 224.194,135.37 224.42,135.314 L237.2,132.118 C241.038,136.176 249.061,138.853 258.812,138.853 C272.53,138.853 282.874,133.571 282.874,126.57 L282.874,120.699 L306.917,114.689 C308.389,114.321 309.286,112.829 308.917,111.357 C308.547,109.881 307.054,108.989 305.582,109.353 L282.874,115.03 L282.874,101.791 L282.868,101.791 C282.869,101.764 282.874,101.737 282.874,101.711 C282.874,100.258 282.504,98.929 281.818,97.72 L301.906,88.393 C303.283,87.754 303.882,86.119 303.243,84.741 C302.762,83.707 301.722,83.111 300.651,83.149 Z M258.812,95.523 C269.567,95.523 277.374,98.126 277.374,101.711 C277.374,105.527 270.261,107.898 258.812,107.898 C247.363,107.898 240.25,105.527 240.25,101.711 C240.25,98.126 248.057,95.523 258.812,95.523 Z M258.613,99.809 C252.804,99.809 248.103,100.698 248.103,101.791 C248.103,102.886 252.804,103.773 258.613,103.773 C264.423,103.773 269.124,102.886 269.124,101.791 C269.124,100.698 264.423,99.809 258.613,99.809 Z M240.25,110.076 C243.872,112.046 249.667,113.398 258.812,113.398 C267.957,113.398 273.752,112.046 277.374,110.076 L277.374,116.405 L240.25,125.686 L240.25,110.076 Z M277.374,122.074 L277.374,126.572 C277.374,129.336 270.143,133.353 258.812,133.353 C252.355,133.353 247.238,132.046 244.023,130.413 L277.374,122.074 Z" />
        </g>
        <g id="Regular-S">
            <path d="M500.651,83.149 C500.295,83.161 499.934,83.244 499.591,83.404 L477.492,93.665 C473.359,91.318 466.989,90.023 458.812,90.023 C443.745,90.023 434.75,94.393 434.75,101.711 C434.75,101.737 434.756,101.764 434.756,101.791 L434.75,101.791 L434.75,113.51 L422.593,119.153 C421.216,119.792 420.617,121.427 421.256,122.805 C421.721,123.807 422.717,124.397 423.754,124.397 C424.141,124.397 424.533,124.315 424.908,124.142 L434.75,119.571 L434.75,126.57 C434.75,126.733 434.785,126.889 434.796,127.05 L423.085,129.978 C421.612,130.346 420.716,131.84 421.084,133.313 C421.396,134.564 422.516,135.397 423.748,135.397 C423.97,135.397 424.194,135.37 424.42,135.314 L437.2,132.118 C441.038,136.176 449.061,138.853 458.812,138.853 C472.53,138.853 482.874,133.571 482.874,126.57 L482.874,120.699 L506.917,114.689 C508.389,114.321 509.286,112.829 508.917,111.357 C508.547,109.881 507.054,108.989 505.582,109.353 L482.874,115.03 L482.874,101.791 L482.868,101.791 C482.869,101.764 482.874,101.737 482.874,101.711 C482.874,100.258 482.504,98.929 481.818,97.72 L501.906,88.393 C503.283,87.754 503.882,86.119 503.243,84.741 C502.762,83.707 501.722,83.111 500.651,83.149 Z M458.812,95.523 C469.567,95.523 477.374,98.126 477.374,101.711 C477.374,105.527 470.261,107.898 458.812,107.898 C447.363,107.898 440.25,105.527 440.25,101.711 C440.25,98.126 448.057,95.523 458.812,95.523 Z M458.613,99.809 C452.804,99.809 448.103,100.698 448.103,101.791 C448.103,102.886 452.804,103.773 458.613,103.773 C464.423,103.773 469.124,102.886 469.124,101.791 C469.124,100.698 464.423,99.809 458.613,99.809 Z M440.25,110.076 C443.872,112.046 449.667,113.398 458.812,113.398 C467.957,113.398 473.752,112.046 477.374,110.076 L477.374,116.405 L440.25,125.686 L440.25,110.076 Z M477.374,122.074 L477.374,126.572 C477.374,129.336 470.143,133.353 458.812,133.353 C452.355,133.353 447.238,132.046 444.023,130.413 L477.374,122.074 Z" />
        </g>
        <g id="Black-S">
            <path d="M700.651,83.149 C700.295,83.161 699.934,83.244 699.591,83.404 L677.492,93.665 C673.359,91.318 666.989,90.023 658.812,90.023 C643.745,90.023 634.75,94.393 634.75,101.711 C634.75,101.737 634.756,101.764 634.756,101.791 L634.75,101.791 L634.75,113.51 L622.593,119.153 C621.216,119.792 620.617,121.427 621.256,122.805 C621.721,123.807 622.717,124.397 623.754,124.397 C624.141,124.397 624.533,124.315 624.908,124.142 L634.75,119.571 L634.75,126.57 C634.75,126.733 634.785,126.889 634.796,127.05 L623.085,129.978 C621.612,130.346 620.716,131.84 621.084,133.313 C621.396,134.564 622.516,135.397 623.748,135.397 C623.97,135.397 624.194,135.37 624.42,135.314 L637.2,132.118 C641.037,136.176 649.061,138.853 658.812,138.853 C672.53,138.853 682.874,133.571 682.874,126.57 L682.874,120.699 L706.917,114.689 C708.389,114.321 709.286,112.829 708.917,111.357 C708.547,109.881 707.054,108.989 705.582,109.353 L682.874,115.03 L682.874,101.791 L682.868,101.791 C682.869,101.764 682.874,101.737 682.874,101.711 C682.874,100.258 682.504,98.929 681.818,97.72 L701.906,88.393 C703.283,87.754 703.882,86.119 703.243,84.741 C702.762,83.707 701.722,83.111 700.651,83.149 Z M658.812,95.523 C669.567,95.523 677.374,98.126 677.374,101.711 C677.374,105.527 670.261,107.898 658.812,107.898 C647.363,107.898 640.25,105.527 640.25,101.711 C640.25,98.126 648.057,95.523 658.812,95.523 Z M658.613,99.809 C652.804,99.809 648.103,100.698 648.103,101.791 C648.103,102.886 652.804,103.773 658.613,103.773 C664.423,103.773 669.124,102.886 669.124,101.791 C669.124,100.698 664.423,99.809 658.613,99.809 Z M640.25,110.076 C643.872,112.046 649.667,113.398 658.812,113.398 C667.957,113.398 673.752,112.046 677.374,110.076 L677.374,116.405 L640.25,125.686 L640.25,110.076 Z M677.374,122.074 L677.374,126.572 C677.374,129.336 670.143,133.353 658.812,133.353 C652.355,133.353 647.238,132.046 644.023,130.413 L677.374,122.074 Z" />
        </g>
    </g>
</svg>