<?xml version="1.0" encoding="UTF-8"?>
<svg height="600" width="800" xmlns="http://www.w3.org/2000/svg" xmlns:xlink="http://www.w3.org/1999/xlink">
    <g id="Notes" font-family="'LucidaGrande', 'Lucida Grande', sans-serif" font-size="13">
        <rect fill="white" height="600.0" width="800.0" x="0.0" y="0.0" />
        <g font-size="13">
            <text x="18.0" y="176.0">Small</text>
            <text x="18.0" y="376.0">Medium</text>
            <text x="18.0" y="576.0">Large</text>
        </g>
        <g font-size="9">
            <text x="250.0" y="30.0">Ultralight</text>
            <text x="450.0" y="30.0">Regular</text>
            <text x="650.0" y="30.0">Black</text>
            <text id="template-version" fill="#505050" text-anchor="end" x="785.0" y="575.0">Template v.3.0</text>
            <a href="https://wangchujiang.com/#/app">
                <text fill="#505050" text-anchor="end" x="785.0" y="590.0">https://wangchujiang.com/#/app</text>
            </a>
        </g>
    </g>
    <g id="Guides" stroke="rgb(39, 170, 225)" stroke-width="0.5">
        <path id="Capline-S" d="M18,76 l800,0" />
        <path id="H-reference" d="M85,145.755 L87.685,145.755 L113.369,79.287 L114.052,79.287 L114.052,76 L112.148,76 L85,145.755 Z M95.693,121.536 L130.996,121.536 L130.263,119.313 L96.474,119.313 L95.693,121.536 Z M139.15,145.755 L141.787,145.755 L114.638,76 L113.466,76 L113.466,79.287 L139.15,145.755 Z" stroke="none" />
        <path id="Baseline-S" d="M18,146 l800,0" />
        <path id="left-margin-Ultralight-S" d="M221,56 l0,110" />
        <path id="right-margin-Ultralight-S" d="M309,56 l0,110" />
        <path id="left-margin-Regular-S" d="M421,56 l0,110" />
        <path id="right-margin-Regular-S" d="M509,56 l0,110" />
        <path id="left-margin-Black-S" d="M621,56 l0,110" />
        <path id="right-margin-Black-S" d="M709,56 l0,110" />
        <path id="Capline-M" d="M18,276 l800,0" />
        <path id="Baseline-M" d="M18,346 l800,0" />
        <path id="Capline-L" d="M18,476 l800,0" />
        <path id="Baseline-L" d="M18,546 l800,0" />
    </g>
    <g id="Symbols">
        <g id="Ultralight-S">
            <path d="M246.427,76.003 C244.908,76.003 243.675,77.195 243.587,78.693 L240.557,78.86 C238.986,78.946 237.77,80.302 237.856,81.873 C237.936,83.308 239.052,84.574 240.869,84.574 L243.57,84.423 L243.57,87.431 L240.713,87.431 C239.142,87.431 237.856,88.717 237.856,90.288 C237.856,91.859 239.142,93.145 240.713,93.145 L243.57,93.145 L243.57,101.716 L242.142,101.716 C238.203,101.716 234.999,104.92 234.999,108.859 L234.999,110.287 C234.999,120.757 240.43,130.393 249.284,135.841 L249.284,140.286 C249.284,143.437 251.847,146 254.998,146 L274.997,146 C278.149,146 280.711,143.437 280.711,140.286 L280.711,135.841 C289.565,130.393 294.997,120.757 294.997,110.287 L294.997,108.859 C294.997,104.92 291.792,101.716 287.854,101.716 L249.284,101.716 L249.284,93.145 L249.284,87.431 L249.284,84.103 L249.284,78.86 L249.284,78.375 L249.234,78.377 C249.003,77.031 247.839,76.003 246.427,76.003 Z M256.427,76.003 C254.85,76.003 253.57,77.283 253.57,78.86 L253.57,93.145 C253.57,94.722 254.85,96.002 256.427,96.002 C258.004,96.002 259.284,94.722 259.284,93.145 L259.284,78.86 C259.284,77.283 258.004,76.003 256.427,76.003 Z M291.983,76.003 L263.569,77.588 L263.569,83.316 L292.296,81.717 C293.867,81.631 295.082,80.275 294.997,78.704 C294.911,77.132 293.583,75.932 291.983,76.003 Z M263.569,87.431 L263.569,93.145 L292.14,93.145 C293.711,93.145 294.997,91.859 294.997,90.288 C294.997,88.717 293.711,87.431 292.14,87.431 L263.569,87.431 Z M242.142,107.43 L287.854,107.43 C288.643,107.43 289.283,108.07 289.283,108.859 L289.283,110.287 C289.283,119.245 284.368,127.454 276.459,131.698 C275.547,132.187 274.997,133.157 274.997,134.192 L274.997,138.857 C274.997,139.646 274.357,140.286 273.569,140.286 L256.427,140.286 C255.638,140.286 254.998,139.646 254.998,138.857 L254.998,134.192 C254.998,133.157 254.449,132.187 253.536,131.698 C245.628,127.454 240.713,119.245 240.713,110.287 L240.713,108.859 C240.713,108.07 241.353,107.43 242.142,107.43 Z" />
        </g>
        <g id="Regular-S">
            <path d="M446.427,76.003 C444.908,76.003 443.676,77.195 443.587,78.693 L440.557,78.86 C438.986,78.946 437.77,80.302 437.856,81.873 C437.936,83.308 439.052,84.574 440.869,84.574 L443.57,84.423 L443.57,87.431 L440.713,87.431 C439.142,87.431 437.856,88.717 437.856,90.288 C437.856,91.859 439.142,93.145 440.713,93.145 L443.57,93.145 L443.57,101.716 L442.142,101.716 C438.203,101.716 434.999,104.92 434.999,108.859 L434.999,110.287 C434.999,120.757 440.43,130.393 449.284,135.841 L449.284,140.286 C449.284,143.437 451.847,146 454.998,146 L474.997,146 C478.149,146 480.711,143.437 480.711,140.286 L480.711,135.841 C489.565,130.393 494.997,120.757 494.997,110.287 L494.997,108.859 C494.997,104.92 491.792,101.716 487.854,101.716 L449.284,101.716 L449.284,93.145 L449.284,87.431 L449.284,84.103 L449.284,78.86 L449.284,78.375 L449.234,78.377 C449.003,77.031 447.839,76.003 446.427,76.003 Z M456.427,76.003 C454.85,76.003 453.57,77.283 453.57,78.86 L453.57,93.145 C453.57,94.722 454.85,96.002 456.427,96.002 C458.004,96.002 459.284,94.722 459.284,93.145 L459.284,78.86 C459.284,77.283 458.004,76.003 456.427,76.003 Z M491.983,76.003 L463.569,77.588 L463.569,83.316 L492.296,81.717 C493.867,81.631 495.082,80.275 494.997,78.704 C494.911,77.132 493.583,75.932 491.983,76.003 Z M463.569,87.431 L463.569,93.145 L492.14,93.145 C493.711,93.145 494.997,91.859 494.997,90.288 C494.997,88.717 493.711,87.431 492.14,87.431 L463.569,87.431 Z M442.142,107.43 L487.854,107.43 C488.643,107.43 489.283,108.07 489.283,108.859 L489.283,110.287 C489.283,119.245 484.368,127.454 476.459,131.698 C475.547,132.187 474.997,133.157 474.997,134.192 L474.997,138.857 C474.997,139.646 474.357,140.286 473.569,140.286 L456.427,140.286 C455.638,140.286 454.998,139.646 454.998,138.857 L454.998,134.192 C454.998,133.157 454.449,132.187 453.536,131.698 C445.628,127.454 440.713,119.245 440.713,110.287 L440.713,108.859 C440.713,108.07 441.353,107.43 442.142,107.43 Z" />
        </g>
        <g id="Black-S">
            <path d="M646.427,76.003 C644.908,76.003 643.676,77.195 643.587,78.693 L640.557,78.86 C638.986,78.946 637.771,80.302 637.856,81.873 C637.936,83.308 639.052,84.574 640.869,84.574 L643.57,84.423 L643.57,87.431 L640.713,87.431 C639.142,87.431 637.856,88.717 637.856,90.288 C637.856,91.859 639.142,93.145 640.713,93.145 L643.57,93.145 L643.57,101.716 L642.142,101.716 C638.203,101.716 634.999,104.92 634.999,108.859 L634.999,110.287 C634.999,120.757 640.43,130.393 649.284,135.841 L649.284,140.286 C649.284,143.437 651.847,146 654.998,146 L674.997,146 C678.149,146 680.711,143.437 680.711,140.286 L680.711,135.841 C689.565,130.393 694.997,120.757 694.997,110.287 L694.997,108.859 C694.997,104.92 691.792,101.716 687.854,101.716 L649.284,101.716 L649.284,93.145 L649.284,87.431 L649.284,84.103 L649.284,78.86 L649.284,78.375 L649.234,78.377 C649.003,77.031 647.839,76.003 646.427,76.003 Z M656.427,76.003 C654.85,76.003 653.57,77.283 653.57,78.86 L653.57,93.145 C653.57,94.722 654.85,96.002 656.427,96.002 C658.004,96.002 659.284,94.722 659.284,93.145 L659.284,78.86 C659.284,77.283 658.004,76.003 656.427,76.003 Z M691.983,76.003 L663.569,77.588 L663.569,83.316 L692.296,81.717 C693.867,81.631 695.082,80.275 694.997,78.704 C694.911,77.132 693.583,75.932 691.983,76.003 Z M663.569,87.431 L663.569,93.145 L692.14,93.145 C693.711,93.145 694.997,91.859 694.997,90.288 C694.997,88.717 693.711,87.431 692.14,87.431 L663.569,87.431 Z M642.142,107.43 L687.854,107.43 C688.643,107.43 689.283,108.07 689.283,108.859 L689.283,110.287 C689.283,119.245 684.368,127.454 676.459,131.698 C675.547,132.187 674.997,133.157 674.997,134.192 L674.997,138.857 C674.997,139.646 674.357,140.286 673.569,140.286 L656.427,140.286 C655.638,140.286 654.998,139.646 654.998,138.857 L654.998,134.192 C654.998,133.157 654.449,132.187 653.536,131.698 C645.628,127.454 640.713,119.245 640.713,110.287 L640.713,108.859 C640.713,108.07 641.353,107.43 642.142,107.43 Z" />
        </g>
    </g>
</svg>