<?xml version="1.0" encoding="UTF-8"?>
<svg height="600" width="800" xmlns="http://www.w3.org/2000/svg" xmlns:xlink="http://www.w3.org/1999/xlink">
    <g id="Notes" font-family="'LucidaGrande', 'Lucida Grande', sans-serif" font-size="13">
        <rect fill="white" height="600.0" width="800.0" x="0.0" y="0.0" />
        <g font-size="13">
            <text x="18.0" y="176.0">Small</text>
            <text x="18.0" y="376.0">Medium</text>
            <text x="18.0" y="576.0">Large</text>
        </g>
        <g font-size="9">
            <text x="250.0" y="30.0">Ultralight</text>
            <text x="450.0" y="30.0">Regular</text>
            <text x="650.0" y="30.0">Black</text>
            <text id="template-version" fill="#505050" text-anchor="end" x="785.0" y="575.0">Template v.3.0</text>
            <a href="https://wangchujiang.com/#/app">
                <text fill="#505050" text-anchor="end" x="785.0" y="590.0">https://wangchujiang.com/#/app</text>
            </a>
        </g>
    </g>
    <g id="Guides" stroke="rgb(39, 170, 225)" stroke-width="0.5">
        <path id="Capline-S" d="M18,76 l800,0" />
        <path id="H-reference" d="M85,145.755 L87.685,145.755 L113.369,79.287 L114.052,79.287 L114.052,76 L112.148,76 L85,145.755 Z M95.693,121.536 L130.996,121.536 L130.263,119.313 L96.474,119.313 L95.693,121.536 Z M139.15,145.755 L141.787,145.755 L114.638,76 L113.466,76 L113.466,79.287 L139.15,145.755 Z" stroke="none" />
        <path id="Baseline-S" d="M18,146 l800,0" />
        <path id="left-margin-Ultralight-S" d="M211.667,56 l0,110" />
        <path id="right-margin-Ultralight-S" d="M318.333,56 l0,110" />
        <path id="left-margin-Regular-S" d="M411.667,56 l0,110" />
        <path id="right-margin-Regular-S" d="M518.333,56 l0,110" />
        <path id="left-margin-Black-S" d="M611.667,56 l0,110" />
        <path id="right-margin-Black-S" d="M718.333,56 l0,110" />
        <path id="Capline-M" d="M18,276 l800,0" />
        <path id="Baseline-M" d="M18,346 l800,0" />
        <path id="Capline-L" d="M18,476 l800,0" />
        <path id="Baseline-L" d="M18,546 l800,0" />
    </g>
    <g id="Symbols">
        <g id="Ultralight-S">
            <path d="M271.667,76 C260.987,76 255.676,82.496 250.993,88.23 C248.916,90.77 246.957,93.169 244.587,95.066 C242.717,96.561 240.523,97.902 238.203,99.324 C230.835,103.839 221.667,109.458 221.667,122.667 C221.667,135.968 240.297,146 265,146 C306.243,146 308.333,122.398 308.333,117.667 C308.333,103.642 299.402,97.224 295.957,95.271 C294.019,90.776 286.513,76 271.667,76 Z M271.667,82.667 C284.118,82.667 290.142,98.651 290.199,98.806 L290.706,100.144 L291.999,100.72 C292.395,100.895 301.667,105.168 301.667,117.667 C301.667,128.142 292.035,139.333 265,139.333 C244.782,139.333 228.333,131.857 228.333,122.667 C228.333,113.192 234.521,109.399 241.686,105.007 C244.078,103.54 246.553,102.024 248.747,100.268 C251.668,97.933 253.949,95.145 256.152,92.449 C260.619,86.984 264.147,82.667 271.667,82.667 Z M271.667,89.333 C267.985,89.333 265,92.318 265,96 C265,99.682 267.985,102.667 271.667,102.667 C275.348,102.667 278.333,99.682 278.333,96 C278.333,92.318 275.348,89.333 271.667,89.333 Z M284.993,107.663 C284.772,107.664 284.546,107.688 284.32,107.735 L244.32,116.068 C242.518,116.443 241.362,118.209 241.738,120.01 C242.065,121.584 243.45,122.667 244.997,122.667 C245.222,122.667 245.452,122.643 245.68,122.595 L285.68,114.262 C287.482,113.887 288.638,112.121 288.262,110.32 C287.932,108.743 286.547,107.657 284.993,107.663 Z M286.686,120.997 C286.464,120.996 286.239,121.019 286.012,121.065 L261.012,126.065 C259.207,126.425 258.037,128.183 258.398,129.988 C258.713,131.571 260.107,132.667 261.663,132.667 C261.88,132.667 262.099,132.647 262.321,132.602 L287.321,127.602 C289.126,127.242 290.297,125.484 289.935,123.679 C289.62,122.1 288.241,121 286.686,120.997 Z" />
        </g>
        <g id="Regular-S">
            <path d="M471.667,76 C460.987,76 455.676,82.496 450.993,88.23 C448.916,90.77 446.957,93.169 444.587,95.066 C442.717,96.561 440.523,97.902 438.203,99.324 C430.835,103.839 421.667,109.458 421.667,122.667 C421.667,135.968 440.297,146 465,146 C506.243,146 508.333,122.398 508.333,117.667 C508.333,103.642 499.402,97.224 495.957,95.271 C494.019,90.776 486.513,76 471.667,76 Z M471.667,82.667 C484.118,82.667 490.142,98.651 490.199,98.806 L490.706,100.144 L491.999,100.72 C492.395,100.895 501.667,105.168 501.667,117.667 C501.667,128.142 492.035,139.333 465,139.333 C444.782,139.333 428.333,131.857 428.333,122.667 C428.333,113.192 434.521,109.399 441.686,105.007 C444.078,103.54 446.553,102.024 448.747,100.268 C451.668,97.933 453.949,95.145 456.152,92.449 C460.619,86.984 464.147,82.667 471.667,82.667 Z M471.667,89.333 C467.985,89.333 465,92.318 465,96 C465,99.682 467.985,102.667 471.667,102.667 C475.348,102.667 478.333,99.682 478.333,96 C478.333,92.318 475.348,89.333 471.667,89.333 Z M484.993,107.663 C484.772,107.664 484.546,107.688 484.32,107.735 L444.32,116.068 C442.518,116.443 441.362,118.209 441.738,120.01 C442.065,121.584 443.45,122.667 444.997,122.667 C445.222,122.667 445.452,122.643 445.68,122.595 L485.68,114.262 C487.482,113.887 488.638,112.121 488.262,110.32 C487.932,108.743 486.547,107.657 484.993,107.663 Z M486.686,120.997 C486.464,120.996 486.239,121.019 486.012,121.065 L461.012,126.065 C459.207,126.425 458.037,128.183 458.398,129.988 C458.713,131.571 460.107,132.667 461.663,132.667 C461.88,132.667 462.099,132.647 462.321,132.602 L487.321,127.602 C489.126,127.242 490.297,125.484 489.935,123.679 C489.62,122.1 488.241,121 486.686,120.997 Z" />
        </g>
        <g id="Black-S">
            <path d="M671.667,76 C660.987,76 655.676,82.496 650.993,88.23 C648.916,90.77 646.957,93.169 644.587,95.066 C642.717,96.561 640.523,97.902 638.203,99.324 C630.835,103.839 621.667,109.458 621.667,122.667 C621.667,135.968 640.297,146 665,146 C706.243,146 708.333,122.398 708.333,117.667 C708.333,103.642 699.402,97.224 695.957,95.271 C694.019,90.776 686.513,76 671.667,76 Z M671.667,82.667 C684.118,82.667 690.142,98.651 690.199,98.806 L690.706,100.144 L691.999,100.72 C692.395,100.895 701.667,105.168 701.667,117.667 C701.667,128.142 692.035,139.333 665,139.333 C644.782,139.333 628.333,131.857 628.333,122.667 C628.333,113.192 634.521,109.399 641.686,105.007 C644.078,103.54 646.553,102.024 648.747,100.268 C651.668,97.933 653.949,95.145 656.152,92.449 C660.619,86.984 664.147,82.667 671.667,82.667 Z M671.667,89.333 C667.985,89.333 665,92.318 665,96 C665,99.682 667.985,102.667 671.667,102.667 C675.348,102.667 678.333,99.682 678.333,96 C678.333,92.318 675.348,89.333 671.667,89.333 Z M684.994,107.663 C684.772,107.664 684.546,107.688 684.32,107.735 L644.32,116.068 C642.518,116.443 641.362,118.209 641.738,120.01 C642.065,121.584 643.45,122.667 644.997,122.667 C645.222,122.667 645.452,122.643 645.68,122.595 L685.68,114.262 C687.482,113.887 688.638,112.121 688.262,110.32 C687.932,108.743 686.547,107.657 684.994,107.663 Z M686.686,120.997 C686.464,120.996 686.239,121.019 686.012,121.065 L661.012,126.065 C659.207,126.425 658.037,128.183 658.398,129.988 C658.713,131.571 660.107,132.667 661.663,132.667 C661.88,132.667 662.099,132.647 662.321,132.602 L687.321,127.602 C689.126,127.242 690.297,125.484 689.935,123.679 C689.62,122.1 688.241,121 686.686,120.997 Z" />
        </g>
    </g>
</svg>