<?xml version="1.0" encoding="UTF-8"?>
<svg height="600" width="800" xmlns="http://www.w3.org/2000/svg" xmlns:xlink="http://www.w3.org/1999/xlink">
    <g id="Notes" font-family="'LucidaGrande', 'Lucida Grande', sans-serif" font-size="13">
        <rect fill="white" height="600.0" width="800.0" x="0.0" y="0.0" />
        <g font-size="13">
            <text x="18.0" y="176.0">Small</text>
            <text x="18.0" y="376.0">Medium</text>
            <text x="18.0" y="576.0">Large</text>
        </g>
        <g font-size="9">
            <text x="250.0" y="30.0">Ultralight</text>
            <text x="450.0" y="30.0">Regular</text>
            <text x="650.0" y="30.0">Black</text>
            <text id="template-version" fill="#505050" text-anchor="end" x="785.0" y="575.0">Template v.3.0</text>
            <a href="https://wangchujiang.com/#/app">
                <text fill="#505050" text-anchor="end" x="785.0" y="590.0">https://wangchujiang.com/#/app</text>
            </a>
        </g>
    </g>
    <g id="Guides" stroke="rgb(39, 170, 225)" stroke-width="0.5">
        <path id="Capline-S" d="M18,76 l800,0" />
        <path id="H-reference" d="M85,145.755 L87.685,145.755 L113.369,79.287 L114.052,79.287 L114.052,76 L112.148,76 L85,145.755 Z M95.693,121.536 L130.996,121.536 L130.263,119.313 L96.474,119.313 L95.693,121.536 Z M139.15,145.755 L141.787,145.755 L114.638,76 L113.466,76 L113.466,79.287 L139.15,145.755 Z" stroke="none" />
        <path id="Baseline-S" d="M18,146 l800,0" />
        <path id="left-margin-Ultralight-S" d="M221,56 l0,110" />
        <path id="right-margin-Ultralight-S" d="M309,56 l0,110" />
        <path id="left-margin-Regular-S" d="M421,56 l0,110" />
        <path id="right-margin-Regular-S" d="M509,56 l0,110" />
        <path id="left-margin-Black-S" d="M621,56 l0,110" />
        <path id="right-margin-Black-S" d="M709,56 l0,110" />
        <path id="Capline-M" d="M18,276 l800,0" />
        <path id="Baseline-M" d="M18,346 l800,0" />
        <path id="Capline-L" d="M18,476 l800,0" />
        <path id="Baseline-L" d="M18,546 l800,0" />
    </g>
    <g id="Symbols">
        <g id="Ultralight-S">
            <path d="M290.872,76.002 C289.407,75.942 288.186,77.069 288.117,78.523 C288.096,78.952 287.605,87.852 281.696,90.041 C282.432,88.472 282.831,86.742 282.831,85.055 C282.831,81.36 281.271,78.816 281.095,78.538 C280.314,77.319 278.709,76.965 277.481,77.731 C276.252,78.495 275.878,80.12 276.629,81.358 C276.639,81.372 277.548,82.895 277.548,85.055 C277.548,87.231 276.107,90.348 273.402,90.534 C273.289,90.542 273.183,90.567 273.075,90.588 C270.586,90.678 268.096,90.948 265.64,91.398 C265.644,91.327 265.661,91.259 265.661,91.186 C265.661,89.366 264.18,87.884 262.358,87.884 C260.537,87.884 259.056,89.366 259.056,91.186 C259.056,91.821 259.246,92.409 259.557,92.912 C246.874,96.949 236.603,106.066 236.603,119.752 C236.603,136.188 248.947,146 269.623,146 L285.473,146 C286.931,146 288.114,144.817 288.114,143.358 C288.114,143.14 288.079,142.932 288.029,142.729 C287.611,140.462 285.145,138.821 285.145,138.821 C285.145,138.821 286.662,137.003 286.773,134.402 C286.777,134.36 286.781,134.318 286.783,134.275 C286.784,134.22 286.793,134.169 286.793,134.113 C286.789,134.113 286.785,134.115 286.781,134.115 C286.781,134.015 286.787,133.915 286.775,133.813 C286.61,132.363 285.279,131.323 283.855,131.489 C283.522,131.527 276.209,132.436 272.071,139.27 C266.954,138.412 263.019,133.404 263.019,130.032 C263.019,125.779 265.126,124.269 269.509,121.516 C275.506,117.751 283.629,112.595 284.105,94.79 C290.909,91.912 293.194,83.574 293.395,78.747 C293.456,77.292 292.327,76.066 290.872,76.002 Z M274.906,95.809 L278.802,95.809 C278.13,109.851 272.079,113.663 266.7,117.04 C262.293,119.807 257.736,122.669 257.736,130.032 C257.736,133.538 259.724,137.419 262.882,140.309 C258.417,139.749 254.631,138.592 251.547,136.888 C251.928,136.581 252.309,136.243 252.682,135.844 C253.679,134.779 253.623,133.108 252.558,132.111 C251.492,131.114 249.823,131.166 248.825,132.235 C248.204,132.897 247.557,133.29 247.051,133.525 C245.211,131.654 243.84,129.44 242.982,126.884 C244.207,127.22 245.585,127.476 247.112,127.509 L247.172,127.509 C248.605,127.509 249.78,126.364 249.811,124.924 C249.841,123.466 248.684,122.256 247.226,122.225 C244.864,122.176 243.009,121.4 241.938,120.848 C241.922,120.481 241.886,120.128 241.886,119.752 C241.886,117.553 242.237,115.502 242.866,113.594 C244.098,114.382 245.763,115.155 248.002,115.578 C248.168,115.608 248.33,115.624 248.493,115.624 C249.738,115.624 250.847,114.738 251.088,113.47 C251.357,112.036 250.412,110.655 248.978,110.385 C247.028,110.017 245.884,109.323 245.224,108.803 C250.957,100.305 263.197,95.809 274.906,95.809 Z M266.981,98.451 C264.795,98.451 263.019,100.229 263.019,102.413 C263.019,104.598 264.795,106.376 266.981,106.376 C269.167,106.376 270.944,104.598 270.944,102.413 C270.944,100.229 269.167,98.451 266.981,98.451 Z" />
        </g>
        <g id="Regular-S">
            <path d="M490.872,76.002 C489.407,75.942 488.185,77.069 488.117,78.523 C488.096,78.952 487.605,87.852 481.696,90.041 C482.432,88.472 482.831,86.742 482.831,85.055 C482.831,81.36 481.271,78.816 481.095,78.538 C480.314,77.319 478.709,76.965 477.481,77.731 C476.252,78.495 475.878,80.12 476.629,81.358 C476.639,81.372 477.548,82.895 477.548,85.055 C477.548,87.231 476.107,90.348 473.402,90.534 C473.289,90.542 473.183,90.567 473.075,90.588 C470.586,90.678 468.096,90.948 465.64,91.398 C465.644,91.327 465.66,91.259 465.66,91.186 C465.66,89.366 464.18,87.884 462.358,87.884 C460.537,87.884 459.056,89.366 459.056,91.186 C459.056,91.821 459.246,92.409 459.557,92.912 C446.874,96.949 436.603,106.066 436.603,119.752 C436.603,136.188 448.947,146 469.623,146 L485.473,146 C486.931,146 488.114,144.817 488.114,143.358 C488.114,143.14 488.079,142.932 488.029,142.729 C487.611,140.462 485.145,138.821 485.145,138.821 C485.145,138.821 486.662,137.003 486.773,134.402 C486.777,134.36 486.781,134.318 486.783,134.275 C486.784,134.22 486.793,134.169 486.793,134.113 C486.789,134.113 486.785,134.115 486.781,134.115 C486.781,134.015 486.787,133.915 486.775,133.813 C486.61,132.363 485.279,131.323 483.855,131.489 C483.522,131.527 476.209,132.436 472.071,139.27 C466.954,138.412 463.019,133.404 463.019,130.032 C463.019,125.779 465.126,124.269 469.509,121.516 C475.506,117.751 483.629,112.595 484.105,94.79 C490.909,91.912 493.194,83.574 493.395,78.747 C493.456,77.292 492.327,76.066 490.872,76.002 Z M474.906,95.809 L478.802,95.809 C478.13,109.851 472.079,113.663 466.7,117.04 C462.293,119.807 457.736,122.669 457.736,130.032 C457.736,133.538 459.724,137.419 462.882,140.309 C458.417,139.749 454.631,138.592 451.547,136.888 C451.928,136.581 452.309,136.243 452.682,135.844 C453.679,134.779 453.623,133.108 452.558,132.111 C451.492,131.114 449.823,131.166 448.825,132.235 C448.204,132.897 447.557,133.29 447.051,133.525 C445.211,131.654 443.84,129.44 442.982,126.884 C444.207,127.22 445.585,127.476 447.112,127.509 L447.172,127.509 C448.605,127.509 449.78,126.364 449.811,124.924 C449.841,123.466 448.684,122.256 447.226,122.225 C444.864,122.176 443.009,121.4 441.938,120.848 C441.922,120.481 441.886,120.128 441.886,119.752 C441.886,117.553 442.237,115.502 442.866,113.594 C444.098,114.382 445.763,115.155 448.002,115.578 C448.168,115.608 448.33,115.624 448.493,115.624 C449.738,115.624 450.847,114.738 451.088,113.47 C451.357,112.036 450.412,110.655 448.978,110.385 C447.028,110.017 445.884,109.323 445.224,108.803 C450.957,100.305 463.197,95.809 474.906,95.809 Z M466.981,98.451 C464.795,98.451 463.019,100.229 463.019,102.413 C463.019,104.598 464.795,106.376 466.981,106.376 C469.167,106.376 470.944,104.598 470.944,102.413 C470.944,100.229 469.167,98.451 466.981,98.451 Z" />
        </g>
        <g id="Black-S">
            <path d="M690.872,76.002 C689.407,75.942 688.185,77.069 688.117,78.523 C688.096,78.952 687.605,87.852 681.696,90.041 C682.432,88.472 682.831,86.742 682.831,85.055 C682.831,81.36 681.271,78.816 681.095,78.538 C680.314,77.319 678.709,76.965 677.481,77.731 C676.252,78.495 675.878,80.12 676.629,81.358 C676.639,81.372 677.548,82.895 677.548,85.055 C677.548,87.231 676.107,90.348 673.402,90.534 C673.289,90.542 673.183,90.567 673.075,90.588 C670.586,90.678 668.096,90.948 665.64,91.398 C665.644,91.327 665.661,91.259 665.661,91.186 C665.661,89.366 664.18,87.884 662.358,87.884 C660.537,87.884 659.056,89.366 659.056,91.186 C659.056,91.821 659.245,92.409 659.557,92.912 C646.874,96.949 636.603,106.066 636.603,119.752 C636.603,136.188 648.947,146 669.623,146 L685.473,146 C686.931,146 688.114,144.817 688.114,143.358 C688.114,143.14 688.079,142.932 688.029,142.729 C687.611,140.462 685.145,138.821 685.145,138.821 C685.145,138.821 686.662,137.003 686.773,134.402 C686.777,134.36 686.781,134.318 686.783,134.275 C686.784,134.22 686.793,134.169 686.793,134.113 C686.789,134.113 686.785,134.115 686.781,134.115 C686.781,134.015 686.787,133.915 686.775,133.813 C686.61,132.363 685.279,131.323 683.855,131.489 C683.522,131.527 676.209,132.436 672.071,139.27 C666.954,138.412 663.019,133.404 663.019,130.032 C663.019,125.779 665.126,124.269 669.509,121.516 C675.505,117.751 683.629,112.595 684.105,94.79 C690.909,91.912 693.194,83.574 693.395,78.747 C693.456,77.292 692.327,76.066 690.872,76.002 Z M674.906,95.809 L678.802,95.809 C678.13,109.851 672.079,113.663 666.7,117.04 C662.293,119.807 657.736,122.669 657.736,130.032 C657.736,133.538 659.724,137.419 662.882,140.309 C658.417,139.749 654.631,138.592 651.547,136.888 C651.928,136.581 652.309,136.243 652.682,135.844 C653.679,134.779 653.623,133.108 652.558,132.111 C651.492,131.114 649.823,131.166 648.825,132.235 C648.204,132.897 647.557,133.29 647.051,133.525 C645.211,131.654 643.84,129.44 642.982,126.884 C644.207,127.22 645.585,127.476 647.112,127.509 L647.172,127.509 C648.605,127.509 649.78,126.364 649.811,124.924 C649.841,123.466 648.684,122.256 647.226,122.225 C644.864,122.176 643.009,121.4 641.938,120.848 C641.922,120.481 641.886,120.128 641.886,119.752 C641.886,117.553 642.237,115.502 642.866,113.594 C644.098,114.382 645.763,115.155 648.002,115.578 C648.168,115.608 648.33,115.624 648.493,115.624 C649.738,115.624 650.847,114.738 651.088,113.47 C651.357,112.036 650.412,110.655 648.978,110.385 C647.028,110.017 645.884,109.323 645.224,108.803 C650.957,100.305 663.197,95.809 674.906,95.809 Z M666.981,98.451 C664.795,98.451 663.019,100.229 663.019,102.413 C663.019,104.598 664.795,106.376 666.981,106.376 C669.167,106.376 670.944,104.598 670.944,102.413 C670.944,100.229 669.167,98.451 666.981,98.451 Z" />
        </g>
    </g>
</svg>