<?xml version="1.0" encoding="UTF-8"?>
<svg height="600" width="800" xmlns="http://www.w3.org/2000/svg" xmlns:xlink="http://www.w3.org/1999/xlink">
    <g id="Notes" font-family="'LucidaGrande', 'Lucida Grande', sans-serif" font-size="13">
        <rect fill="white" height="600.0" width="800.0" x="0.0" y="0.0" />
        <g font-size="13">
            <text x="18.0" y="176.0">Small</text>
            <text x="18.0" y="376.0">Medium</text>
            <text x="18.0" y="576.0">Large</text>
        </g>
        <g font-size="9">
            <text x="250.0" y="30.0">Ultralight</text>
            <text x="450.0" y="30.0">Regular</text>
            <text x="650.0" y="30.0">Black</text>
            <text id="template-version" fill="#505050" text-anchor="end" x="785.0" y="575.0">Template v.3.0</text>
            <a href="https://wangchujiang.com/#/app">
                <text fill="#505050" text-anchor="end" x="785.0" y="590.0">https://wangchujiang.com/#/app</text>
            </a>
        </g>
    </g>
    <g id="Guides" stroke="rgb(39, 170, 225)" stroke-width="0.5">
        <path id="Capline-S" d="M18,76 l800,0" />
        <path id="H-reference" d="M85,145.755 L87.685,145.755 L113.369,79.287 L114.052,79.287 L114.052,76 L112.148,76 L85,145.755 Z M95.693,121.536 L130.996,121.536 L130.263,119.313 L96.474,119.313 L95.693,121.536 Z M139.15,145.755 L141.787,145.755 L114.638,76 L113.466,76 L113.466,79.287 L139.15,145.755 Z" stroke="none" />
        <path id="Baseline-S" d="M18,146 l800,0" />
        <path id="left-margin-Ultralight-S" d="M221,56 l0,110" />
        <path id="right-margin-Ultralight-S" d="M309,56 l0,110" />
        <path id="left-margin-Regular-S" d="M421,56 l0,110" />
        <path id="right-margin-Regular-S" d="M509,56 l0,110" />
        <path id="left-margin-Black-S" d="M621,56 l0,110" />
        <path id="right-margin-Black-S" d="M709,56 l0,110" />
        <path id="Capline-M" d="M18,276 l800,0" />
        <path id="Baseline-M" d="M18,346 l800,0" />
        <path id="Capline-L" d="M18,476 l800,0" />
        <path id="Baseline-L" d="M18,546 l800,0" />
    </g>
    <g id="Symbols">
        <g id="Ultralight-S">
            <path d="M272.395,76.002 C272.229,76.009 272.062,76.034 271.895,76.075 C266.859,77.334 263.742,81.211 262.805,84.933 C260.125,85.36 257.63,86.56 255.598,88.466 C252.834,91.056 251.25,94.714 251.25,98.5 L251.25,103.947 C251.25,105.01 250.814,106.011 250.054,106.686 C245.12,111.075 242.368,117.376 242.505,123.976 C242.749,135.759 252.155,145.422 263.918,145.973 C264.285,145.991 264.651,146 265.015,146 C270.828,146 276.303,143.813 280.532,139.779 C285.026,135.492 287.5,129.71 287.5,123.5 C287.5,117.067 284.736,110.927 279.915,106.657 C279.175,106.002 278.75,105.014 278.75,103.947 L278.75,98.886 C278.75,92.191 274.183,86.519 268.027,85.104 C268.795,83.386 270.432,81.595 273.108,80.926 C274.447,80.591 275.262,79.233 274.927,77.894 C274.633,76.721 273.556,75.954 272.395,76.002 Z M264.995,89.75 C264.997,89.75 264.998,89.75 265,89.75 C265.193,89.75 265.392,89.757 265.588,89.769 C270.166,90.066 273.75,94.069 273.75,98.886 L273.75,103.947 C273.75,106.444 274.787,108.795 276.597,110.399 C280.348,113.722 282.5,118.497 282.5,123.5 C282.5,128.33 280.574,132.829 277.078,136.164 C273.583,139.497 269.003,141.205 264.153,140.98 C255.159,140.558 247.69,132.883 247.505,123.873 C247.397,118.74 249.538,113.834 253.374,110.421 C255.201,108.797 256.25,106.438 256.25,103.947 L256.25,98.5 C256.25,96.055 257.233,93.788 259.018,92.115 C260.657,90.578 262.76,89.75 264.995,89.75 Z" />
        </g>
        <g id="Regular-S">
            <path d="M472.395,76.002 C472.229,76.009 472.062,76.034 471.895,76.075 C466.859,77.334 463.742,81.211 462.805,84.933 C460.125,85.36 457.63,86.56 455.598,88.466 C452.834,91.056 451.25,94.714 451.25,98.5 L451.25,103.947 C451.25,105.01 450.814,106.011 450.054,106.686 C445.12,111.075 442.368,117.376 442.505,123.976 C442.749,135.759 452.155,145.422 463.918,145.973 C464.285,145.991 464.651,146 465.015,146 C470.828,146 476.303,143.813 480.532,139.779 C485.026,135.492 487.5,129.71 487.5,123.5 C487.5,117.067 484.736,110.927 479.915,106.657 C479.175,106.002 478.75,105.014 478.75,103.947 L478.75,98.886 C478.75,92.191 474.183,86.519 468.027,85.104 C468.795,83.386 470.432,81.595 473.108,80.926 C474.447,80.591 475.262,79.233 474.927,77.894 C474.633,76.721 473.556,75.954 472.395,76.002 Z M464.995,89.75 C464.997,89.75 464.998,89.75 465,89.75 C465.193,89.75 465.392,89.757 465.588,89.769 C470.166,90.066 473.75,94.069 473.75,98.886 L473.75,103.947 C473.75,106.444 474.787,108.795 476.597,110.399 C480.348,113.722 482.5,118.497 482.5,123.5 C482.5,128.33 480.574,132.829 477.078,136.164 C473.583,139.497 469.003,141.205 464.153,140.98 C455.159,140.558 447.69,132.883 447.505,123.873 C447.397,118.74 449.538,113.834 453.374,110.421 C455.201,108.797 456.25,106.438 456.25,103.947 L456.25,98.5 C456.25,96.055 457.233,93.788 459.018,92.115 C460.657,90.578 462.76,89.75 464.995,89.75 Z" />
        </g>
        <g id="Black-S">
            <path d="M672.395,76.002 C672.229,76.009 672.062,76.034 671.895,76.075 C666.859,77.334 663.742,81.211 662.805,84.933 C660.125,85.36 657.631,86.56 655.598,88.466 C652.834,91.056 651.25,94.714 651.25,98.5 L651.25,103.947 C651.25,105.01 650.814,106.011 650.054,106.686 C645.12,111.075 642.369,117.376 642.505,123.976 C642.749,135.759 652.155,145.422 663.918,145.973 C664.285,145.991 664.651,146 665.015,146 C670.828,146 676.304,143.813 680.532,139.779 C685.026,135.492 687.5,129.71 687.5,123.5 C687.5,117.067 684.736,110.927 679.915,106.657 C679.175,106.002 678.75,105.014 678.75,103.947 L678.75,98.886 C678.75,92.191 674.183,86.519 668.027,85.104 C668.795,83.386 670.432,81.595 673.108,80.926 C674.447,80.591 675.262,79.233 674.927,77.894 C674.633,76.721 673.556,75.954 672.395,76.002 Z M664.995,89.75 C664.997,89.75 664.998,89.75 665,89.75 C665.193,89.75 665.393,89.757 665.588,89.769 C670.166,90.066 673.75,94.069 673.75,98.886 L673.75,103.947 C673.75,106.444 674.787,108.795 676.597,110.399 C680.348,113.722 682.5,118.497 682.5,123.5 C682.5,128.33 680.574,132.829 677.078,136.164 C673.583,139.497 669.003,141.205 664.153,140.98 C655.159,140.558 647.69,132.883 647.505,123.873 C647.397,118.74 649.538,113.834 653.374,110.421 C655.201,108.797 656.25,106.438 656.25,103.947 L656.25,98.5 C656.25,96.055 657.234,93.788 659.019,92.115 C660.657,90.578 662.76,89.75 664.995,89.75 Z" />
        </g>
    </g>
</svg>