<?xml version="1.0" encoding="UTF-8"?>
<svg height="600" width="800" xmlns="http://www.w3.org/2000/svg" xmlns:xlink="http://www.w3.org/1999/xlink">
    <g id="Notes" font-family="'LucidaGrande', 'Lucida Grande', sans-serif" font-size="13">
        <rect fill="white" height="600.0" width="800.0" x="0.0" y="0.0" />
        <g font-size="13">
            <text x="18.0" y="176.0">Small</text>
            <text x="18.0" y="376.0">Medium</text>
            <text x="18.0" y="576.0">Large</text>
        </g>
        <g font-size="9">
            <text x="250.0" y="30.0">Ultralight</text>
            <text x="450.0" y="30.0">Regular</text>
            <text x="650.0" y="30.0">Black</text>
            <text id="template-version" fill="#505050" text-anchor="end" x="785.0" y="575.0">Template v.3.0</text>
            <a href="https://wangchujiang.com/#/app">
                <text fill="#505050" text-anchor="end" x="785.0" y="590.0">https://wangchujiang.com/#/app</text>
            </a>
        </g>
    </g>
    <g id="Guides" stroke="rgb(39, 170, 225)" stroke-width="0.5">
        <path id="Capline-S" d="M18,76 l800,0" />
        <path id="H-reference" d="M85,145.755 L87.685,145.755 L113.369,79.287 L114.052,79.287 L114.052,76 L112.148,76 L85,145.755 Z M95.693,121.536 L130.996,121.536 L130.263,119.313 L96.474,119.313 L95.693,121.536 Z M139.15,145.755 L141.787,145.755 L114.638,76 L113.466,76 L113.466,79.287 L139.15,145.755 Z" stroke="none" />
        <path id="Baseline-S" d="M18,146 l800,0" />
        <path id="left-margin-Ultralight-S" d="M220.421,56 l0,110" />
        <path id="right-margin-Ultralight-S" d="M309.579,56 l0,110" />
        <path id="left-margin-Regular-S" d="M420.421,56 l0,110" />
        <path id="right-margin-Regular-S" d="M509.579,56 l0,110" />
        <path id="left-margin-Black-S" d="M620.421,56 l0,110" />
        <path id="right-margin-Black-S" d="M709.579,56 l0,110" />
        <path id="Capline-M" d="M18,276 l800,0" />
        <path id="Baseline-M" d="M18,346 l800,0" />
        <path id="Capline-L" d="M18,476 l800,0" />
        <path id="Baseline-L" d="M18,546 l800,0" />
    </g>
    <g id="Symbols">
        <g id="Ultralight-S">
            <path d="M298.887,107.845 C299.809,108.768 299.918,110.251 298.543,111.626 C297.62,112.549 295.823,112.241 295.105,111.626 C293.022,109.842 290.4,108.315 287.199,108.533 C283.926,108.755 281.356,110.595 281.356,110.595 C285.147,114.387 287.543,119.67 287.543,125.032 C287.543,130.394 286.512,134.657 282.387,139.125 C277.961,143.92 271.775,146 266.232,146 C264.005,146 261.899,145.344 259.701,144.625 L240.451,138.438 C239.221,138.13 238.66,137.57 238.045,136.032 L231.514,116.095 C228.746,107.79 231.561,100.326 236.326,95.127 C243.889,86.877 257.638,86.877 264.857,94.096 C267.953,90.067 267.553,84.074 264.169,80.69 C263.246,79.767 262.903,77.831 263.825,76.909 C265.2,75.534 266.852,75.872 267.95,76.909 C273.487,82.138 273.902,92.376 268.98,98.219 L271.044,100.627 L289.49,82.373 C291.029,81.142 292.318,80.997 293.387,82.065 C294.455,83.132 294.455,84.688 293.387,85.757 L275.169,104.408 L277.575,106.814 C280.407,104.426 283.686,103.224 287.436,103.141 C292.356,103.033 295.914,104.873 298.887,107.845 Z M277.919,135.688 C279.764,133.535 282.387,131.219 282.043,125.032 C281.855,121.654 280.677,117.822 277.919,115.064 L260.388,97.533 C255.159,92.612 245.313,93.443 241.139,97.877 C235.639,103.72 235.136,109.705 237.014,115.407 L242.857,133.282 L260.044,139.125 C266.919,141.531 274.227,139.994 277.919,135.688 Z" />
        </g>
        <g id="Regular-S">
            <path d="M498.887,107.845 C499.809,108.768 499.918,110.251 498.543,111.626 C497.62,112.549 495.823,112.241 495.105,111.626 C493.022,109.842 490.4,108.315 487.199,108.533 C483.926,108.755 481.356,110.595 481.356,110.595 C485.147,114.387 487.543,119.67 487.543,125.032 C487.543,130.394 486.512,134.657 482.387,139.125 C477.961,143.92 471.775,146 466.232,146 C464.005,146 461.899,145.344 459.701,144.625 L440.451,138.438 C439.221,138.13 438.66,137.57 438.045,136.032 L431.514,116.095 C428.746,107.79 431.561,100.326 436.326,95.127 C443.889,86.877 457.638,86.877 464.857,94.096 C467.953,90.067 467.553,84.074 464.169,80.69 C463.246,79.767 462.903,77.831 463.825,76.909 C465.2,75.534 466.852,75.872 467.95,76.909 C473.487,82.138 473.902,92.376 468.98,98.219 L471.044,100.627 L489.49,82.373 C491.029,81.142 492.318,80.997 493.387,82.065 C494.455,83.132 494.455,84.688 493.387,85.757 L475.169,104.408 L477.575,106.814 C480.407,104.426 483.686,103.224 487.436,103.141 C492.356,103.033 495.914,104.873 498.887,107.845 Z M477.919,135.688 C479.764,133.535 482.387,131.219 482.043,125.032 C481.855,121.654 480.677,117.822 477.919,115.064 L460.388,97.533 C455.159,92.612 445.313,93.443 441.139,97.877 C435.639,103.72 435.136,109.705 437.014,115.407 L442.857,133.282 L460.044,139.125 C466.919,141.531 474.227,139.994 477.919,135.688 Z" />
        </g>
        <g id="Black-S">
            <path d="M698.887,107.845 C699.809,108.768 699.918,110.251 698.543,111.626 C697.62,112.549 695.823,112.241 695.105,111.626 C693.022,109.842 690.4,108.315 687.199,108.533 C683.926,108.755 681.356,110.595 681.356,110.595 C685.147,114.387 687.543,119.67 687.543,125.032 C687.543,130.394 686.512,134.657 682.387,139.125 C677.961,143.92 671.775,146 666.232,146 C664.005,146 661.899,145.344 659.701,144.625 L640.451,138.438 C639.221,138.13 638.66,137.57 638.045,136.032 L631.514,116.095 C628.746,107.79 631.561,100.326 636.326,95.127 C643.889,86.877 657.638,86.877 664.857,94.096 C667.953,90.067 667.553,84.074 664.169,80.69 C663.246,79.767 662.903,77.831 663.825,76.909 C665.2,75.534 666.852,75.872 667.95,76.909 C673.487,82.138 673.902,92.376 668.98,98.219 L671.044,100.627 L689.49,82.373 C691.029,81.142 692.318,80.997 693.387,82.065 C694.455,83.132 694.455,84.688 693.387,85.757 L675.169,104.408 L677.575,106.814 C680.407,104.426 683.687,103.224 687.436,103.141 C692.356,103.033 695.914,104.873 698.887,107.845 Z M677.919,135.688 C679.764,133.535 682.387,131.219 682.043,125.032 C681.855,121.654 680.677,117.822 677.919,115.064 L660.388,97.533 C655.159,92.612 645.313,93.443 641.139,97.877 C635.639,103.72 635.136,109.705 637.014,115.407 L642.857,133.282 L660.044,139.125 C666.919,141.531 674.227,139.994 677.919,135.688 Z" />
        </g>
    </g>
</svg>