<?xml version="1.0" encoding="UTF-8"?>
<svg height="600" width="800" xmlns="http://www.w3.org/2000/svg" xmlns:xlink="http://www.w3.org/1999/xlink">
    <g id="Notes" font-family="'LucidaGrande', 'Lucida Grande', sans-serif" font-size="13">
        <rect fill="white" height="600.0" width="800.0" x="0.0" y="0.0" />
        <g font-size="13">
            <text x="18.0" y="176.0">Small</text>
            <text x="18.0" y="376.0">Medium</text>
            <text x="18.0" y="576.0">Large</text>
        </g>
        <g font-size="9">
            <text x="250.0" y="30.0">Ultralight</text>
            <text x="450.0" y="30.0">Regular</text>
            <text x="650.0" y="30.0">Black</text>
            <text id="template-version" fill="#505050" text-anchor="end" x="785.0" y="575.0">Template v.3.0</text>
            <a href="https://wangchujiang.com/#/app">
                <text fill="#505050" text-anchor="end" x="785.0" y="590.0">https://wangchujiang.com/#/app</text>
            </a>
        </g>
    </g>
    <g id="Guides" stroke="rgb(39, 170, 225)" stroke-width="0.5">
        <path id="Capline-S" d="M18,76 l800,0" />
        <path id="H-reference" d="M85,145.755 L87.685,145.755 L113.369,79.287 L114.052,79.287 L114.052,76 L112.148,76 L85,145.755 Z M95.693,121.536 L130.996,121.536 L130.263,119.313 L96.474,119.313 L95.693,121.536 Z M139.15,145.755 L141.787,145.755 L114.638,76 L113.466,76 L113.466,79.287 L139.15,145.755 Z" stroke="none" />
        <path id="Baseline-S" d="M18,146 l800,0" />
        <path id="left-margin-Ultralight-S" d="M219.529,56 l0,110" />
        <path id="right-margin-Ultralight-S" d="M310.471,56 l0,110" />
        <path id="left-margin-Regular-S" d="M419.529,56 l0,110" />
        <path id="right-margin-Regular-S" d="M510.471,56 l0,110" />
        <path id="left-margin-Black-S" d="M619.529,56 l0,110" />
        <path id="right-margin-Black-S" d="M710.471,56 l0,110" />
        <path id="Capline-M" d="M18,276 l800,0" />
        <path id="Baseline-M" d="M18,346 l800,0" />
        <path id="Capline-L" d="M18,476 l800,0" />
        <path id="Baseline-L" d="M18,546 l800,0" />
    </g>
    <g id="Symbols">
        <g id="Ultralight-S">
            <path d="M247.796,132.891 C250.244,132.891 252.231,134.87 252.231,137.307 C252.231,139.745 250.244,141.723 247.796,141.723 C245.348,141.723 243.361,139.745 243.361,137.307 C243.361,134.87 245.348,132.891 247.796,132.891 Z" />
            <path d="M261.399,125.153 C264.896,125.153 267.735,127.981 267.735,131.463 C267.735,134.945 264.896,137.772 261.399,137.772 C257.903,137.772 255.063,134.945 255.063,131.463 C255.065,127.979 257.903,125.153 261.399,125.153 Z" />
            <path d="M274.624,114.174 C278.79,114.174 282.172,117.542 282.172,121.691 C282.172,125.84 278.79,129.207 274.624,129.207 C270.458,129.207 267.076,125.84 267.076,121.691 C267.076,117.542 270.458,114.174 274.624,114.174 Z" />
            <path d="M285.656,101.21 C289.548,101.21 292.707,104.356 292.707,108.233 C292.707,112.109 289.548,115.255 285.656,115.255 C281.764,115.255 278.605,112.109 278.605,108.233 C278.605,104.356 281.764,101.21 285.656,101.21 Z" />
            <path d="M291.603,88.096 C294.051,88.096 296.038,90.075 296.038,92.512 C296.038,94.949 294.051,96.928 291.603,96.928 C289.155,96.928 287.168,94.949 287.168,92.512 C287.168,90.075 289.155,88.096 291.603,88.096 Z" />
            <path d="M231.798,139.654 C231.36,138.439 232.045,137.221 233.215,136.665 C256.536,125.584 278.934,103.186 289.556,81.474 C290.124,80.313 291.324,79.618 292.549,80.047 C293.77,80.475 294.521,81.855 293.982,83.027 C283.012,106.897 259.805,129.519 234.798,141.065 C234.546,141.181 232.14,140.607 231.798,139.654 Z" />
            <path d="M245.579,146 C242.186,146 236.717,145.298 236.712,145.298 C233.408,144.759 231.256,143.524 230.077,140.406 C228.895,137.287 229.864,135.005 230.736,133.818 C238.97,122.62 265.979,93.305 288.047,77.495 C290.793,75.528 292.329,75.848 294.635,76.507 C297.882,77.435 299.486,80.411 299.905,83.753 C301.188,94.134 301.577,112.354 286.4,127.56 C271.966,142.025 256.792,146 245.579,146 Z M236.334,140.077 C245.162,141.489 264.66,142.053 282.776,123.608 C296.975,109.151 296.61,82.765 292.657,81.118 C279.153,87.047 240.945,128.219 235.346,138.759 L236.334,140.077 Z" />
        </g>
        <g id="Regular-S">
            <path d="M447.796,132.891 C450.244,132.891 452.231,134.87 452.231,137.307 C452.231,139.745 450.244,141.723 447.796,141.723 C445.348,141.723 443.361,139.745 443.361,137.307 C443.361,134.87 445.348,132.891 447.796,132.891 Z" />
            <path d="M461.399,125.153 C464.896,125.153 467.735,127.981 467.735,131.463 C467.735,134.945 464.896,137.772 461.399,137.772 C457.903,137.772 455.063,134.945 455.063,131.463 C455.065,127.979 457.903,125.153 461.399,125.153 Z" />
            <path d="M474.624,114.174 C478.79,114.174 482.172,117.542 482.172,121.691 C482.172,125.84 478.79,129.207 474.624,129.207 C470.458,129.207 467.076,125.84 467.076,121.691 C467.076,117.542 470.458,114.174 474.624,114.174 Z" />
            <path d="M485.656,101.21 C489.548,101.21 492.707,104.356 492.707,108.233 C492.707,112.109 489.548,115.255 485.656,115.255 C481.764,115.255 478.605,112.109 478.605,108.233 C478.605,104.356 481.764,101.21 485.656,101.21 Z" />
            <path d="M491.603,88.096 C494.051,88.096 496.038,90.075 496.038,92.512 C496.038,94.949 494.051,96.928 491.603,96.928 C489.155,96.928 487.168,94.949 487.168,92.512 C487.168,90.075 489.155,88.096 491.603,88.096 Z" />
            <path d="M431.798,139.654 C431.36,138.439 432.045,137.221 433.215,136.665 C456.536,125.584 478.934,103.186 489.556,81.474 C490.124,80.313 491.324,79.618 492.549,80.047 C493.77,80.475 494.521,81.855 493.982,83.027 C483.012,106.897 459.805,129.519 434.798,141.065 C434.546,141.181 432.14,140.607 431.798,139.654 Z" />
            <path d="M445.579,146 C442.186,146 436.717,145.298 436.712,145.298 C433.408,144.759 431.256,143.524 430.077,140.406 C428.895,137.287 429.864,135.005 430.736,133.818 C438.97,122.62 465.979,93.305 488.047,77.495 C490.793,75.528 492.329,75.848 494.635,76.507 C497.882,77.435 499.486,80.411 499.905,83.753 C501.188,94.134 501.577,112.354 486.4,127.56 C471.966,142.025 456.792,146 445.579,146 Z M436.334,140.077 C445.162,141.489 464.66,142.053 482.776,123.608 C496.975,109.151 496.61,82.765 492.657,81.118 C479.153,87.047 440.945,128.219 435.346,138.759 L436.334,140.077 Z" />
        </g>
        <g id="Black-S">
            <path d="M647.796,132.891 C650.244,132.891 652.231,134.87 652.231,137.307 C652.231,139.745 650.244,141.723 647.796,141.723 C645.348,141.723 643.361,139.745 643.361,137.307 C643.361,134.87 645.348,132.891 647.796,132.891 Z" />
            <path d="M661.399,125.153 C664.896,125.153 667.735,127.981 667.735,131.463 C667.735,134.945 664.896,137.772 661.399,137.772 C657.903,137.772 655.063,134.945 655.063,131.463 C655.065,127.979 657.903,125.153 661.399,125.153 Z" />
            <path d="M674.624,114.174 C678.79,114.174 682.172,117.542 682.172,121.691 C682.172,125.84 678.79,129.207 674.624,129.207 C670.458,129.207 667.076,125.84 667.076,121.691 C667.076,117.542 670.458,114.174 674.624,114.174 Z" />
            <path d="M685.656,101.21 C689.548,101.21 692.707,104.356 692.707,108.233 C692.707,112.109 689.548,115.255 685.656,115.255 C681.764,115.255 678.605,112.109 678.605,108.233 C678.605,104.356 681.764,101.21 685.656,101.21 Z" />
            <path d="M691.603,88.096 C694.051,88.096 696.038,90.075 696.038,92.512 C696.038,94.949 694.051,96.928 691.603,96.928 C689.155,96.928 687.168,94.949 687.168,92.512 C687.168,90.075 689.155,88.096 691.603,88.096 Z" />
            <path d="M631.798,139.654 C631.36,138.439 632.045,137.221 633.215,136.665 C656.536,125.584 678.934,103.186 689.556,81.474 C690.123,80.313 691.324,79.618 692.549,80.047 C693.77,80.475 694.521,81.855 693.982,83.027 C683.012,106.897 659.805,129.519 634.798,141.065 C634.546,141.181 632.14,140.607 631.798,139.654 Z" />
            <path d="M645.579,146 C642.186,146 636.717,145.298 636.712,145.298 C633.408,144.759 631.256,143.524 630.077,140.406 C628.895,137.287 629.864,135.005 630.736,133.818 C638.97,122.62 665.979,93.305 688.047,77.495 C690.793,75.528 692.329,75.848 694.635,76.507 C697.882,77.435 699.486,80.411 699.905,83.753 C701.188,94.134 701.577,112.354 686.4,127.56 C671.966,142.025 656.792,146 645.579,146 Z M636.334,140.077 C645.162,141.489 664.66,142.053 682.776,123.608 C696.974,109.151 696.61,82.765 692.657,81.118 C679.153,87.047 640.945,128.219 635.346,138.759 L636.334,140.077 Z" />
        </g>
    </g>
</svg>