<?xml version="1.0" encoding="UTF-8"?>
<svg height="600" width="800" xmlns="http://www.w3.org/2000/svg" xmlns:xlink="http://www.w3.org/1999/xlink">
    <g id="Notes" font-family="'LucidaGrande', 'Lucida Grande', sans-serif" font-size="13">
        <rect fill="white" height="600.0" width="800.0" x="0.0" y="0.0" />
        <g font-size="13">
            <text x="18.0" y="176.0">Small</text>
            <text x="18.0" y="376.0">Medium</text>
            <text x="18.0" y="576.0">Large</text>
        </g>
        <g font-size="9">
            <text x="250.0" y="30.0">Ultralight</text>
            <text x="450.0" y="30.0">Regular</text>
            <text x="650.0" y="30.0">Black</text>
            <text id="template-version" fill="#505050" text-anchor="end" x="785.0" y="575.0">Template v.3.0</text>
            <a href="https://wangchujiang.com/#/app">
                <text fill="#505050" text-anchor="end" x="785.0" y="590.0">https://wangchujiang.com/#/app</text>
            </a>
        </g>
    </g>
    <g id="Guides" stroke="rgb(39, 170, 225)" stroke-width="0.5">
        <path id="Capline-S" d="M18,76 l800,0" />
        <path id="H-reference" d="M85,145.755 L87.685,145.755 L113.369,79.287 L114.052,79.287 L114.052,76 L112.148,76 L85,145.755 Z M95.693,121.536 L130.996,121.536 L130.263,119.313 L96.474,119.313 L95.693,121.536 Z M139.15,145.755 L141.787,145.755 L114.638,76 L113.466,76 L113.466,79.287 L139.15,145.755 Z" stroke="none" />
        <path id="Baseline-S" d="M18,146 l800,0" />
        <path id="left-margin-Ultralight-S" d="M220,56 l0,110" />
        <path id="right-margin-Ultralight-S" d="M310,56 l0,110" />
        <path id="left-margin-Regular-S" d="M420,56 l0,110" />
        <path id="right-margin-Regular-S" d="M510,56 l0,110" />
        <path id="left-margin-Black-S" d="M620,56 l0,110" />
        <path id="right-margin-Black-S" d="M710,56 l0,110" />
        <path id="Capline-M" d="M18,276 l800,0" />
        <path id="Baseline-M" d="M18,346 l800,0" />
        <path id="Capline-L" d="M18,476 l800,0" />
        <path id="Baseline-L" d="M18,546 l800,0" />
    </g>
    <g id="Symbols">
        <g id="Ultralight-S">
            <path d="M253.333,76 C240.192,76 230,93.88 230,109.263 C230,119.763 235.14,128.239 243.8,132.203 C247.305,139.843 255.092,146 266.737,146 C282.12,146 300,135.808 300,122.667 C300,112.016 288.254,103.308 275.613,100.387 C272.084,84.544 261.699,76 253.333,76 Z M253.333,81.833 C259.731,81.833 266.429,89.437 269.352,99.439 C268.476,99.376 267.602,99.333 266.737,99.333 C250.454,99.333 241.667,111.356 241.667,122.667 C241.667,123.079 241.703,123.492 241.726,123.906 C237.967,120.425 235.833,115.288 235.833,109.263 C235.833,95.675 244.665,81.833 253.333,81.833 Z M247.5,93.5 C246.695,93.5 246.042,94.153 246.042,94.958 C246.042,95.763 246.695,96.417 247.5,96.417 C248.305,96.417 248.958,95.763 248.958,94.958 C248.958,94.153 248.305,93.5 247.5,93.5 Z M266.737,105.167 C280.325,105.167 294.167,113.998 294.167,122.667 C294.167,131.335 280.325,140.167 266.737,140.167 C254.242,140.167 247.5,131.15 247.5,122.667 C247.5,114.184 254.242,105.167 266.737,105.167 Z M281.771,122.667 C280.563,122.667 279.583,123.647 279.583,124.854 C279.583,126.062 280.563,127.042 281.771,127.042 C282.978,127.042 283.958,126.062 283.958,124.854 C283.958,123.647 282.978,122.667 281.771,122.667 Z M273.75,128.5 C272.945,128.5 272.292,129.153 272.292,129.958 C272.292,130.763 272.945,131.417 273.75,131.417 C274.555,131.417 275.208,130.763 275.208,129.958 C275.208,129.153 274.555,128.5 273.75,128.5 Z" />
        </g>
        <g id="Regular-S">
            <path d="M453.333,76 C440.192,76 430,93.88 430,109.263 C430,119.763 435.14,128.239 443.8,132.203 C447.305,139.843 455.092,146 466.737,146 C482.12,146 500,135.808 500,122.667 C500,112.016 488.254,103.308 475.613,100.387 C472.084,84.544 461.699,76 453.333,76 Z M453.333,81.833 C459.731,81.833 466.429,89.437 469.352,99.439 C468.476,99.376 467.602,99.333 466.737,99.333 C450.454,99.333 441.667,111.356 441.667,122.667 C441.667,123.079 441.703,123.492 441.727,123.906 C437.967,120.425 435.833,115.288 435.833,109.263 C435.833,95.675 444.665,81.833 453.333,81.833 Z M447.5,93.5 C446.695,93.5 446.042,94.153 446.042,94.958 C446.042,95.763 446.695,96.417 447.5,96.417 C448.305,96.417 448.958,95.763 448.958,94.958 C448.958,94.153 448.305,93.5 447.5,93.5 Z M466.737,105.167 C480.325,105.167 494.167,113.998 494.167,122.667 C494.167,131.335 480.325,140.167 466.737,140.167 C454.242,140.167 447.5,131.15 447.5,122.667 C447.5,114.184 454.242,105.167 466.737,105.167 Z M481.771,122.667 C480.563,122.667 479.583,123.647 479.583,124.854 C479.583,126.062 480.563,127.042 481.771,127.042 C482.978,127.042 483.958,126.062 483.958,124.854 C483.958,123.647 482.978,122.667 481.771,122.667 Z M473.75,128.5 C472.945,128.5 472.292,129.153 472.292,129.958 C472.292,130.763 472.945,131.417 473.75,131.417 C474.555,131.417 475.208,130.763 475.208,129.958 C475.208,129.153 474.555,128.5 473.75,128.5 Z" />
        </g>
        <g id="Black-S">
            <path d="M653.333,76 C640.192,76 630,93.88 630,109.263 C630,119.763 635.14,128.239 643.8,132.203 C647.305,139.843 655.092,146 666.737,146 C682.12,146 700,135.808 700,122.667 C700,112.016 688.254,103.308 675.613,100.387 C672.084,84.544 661.699,76 653.333,76 Z M653.333,81.833 C659.731,81.833 666.429,89.437 669.352,99.439 C668.476,99.376 667.602,99.333 666.737,99.333 C650.454,99.333 641.667,111.356 641.667,122.667 C641.667,123.079 641.703,123.492 641.726,123.906 C637.967,120.425 635.833,115.288 635.833,109.263 C635.833,95.675 644.665,81.833 653.333,81.833 Z M647.5,93.5 C646.695,93.5 646.042,94.153 646.042,94.958 C646.042,95.763 646.695,96.417 647.5,96.417 C648.305,96.417 648.958,95.763 648.958,94.958 C648.958,94.153 648.305,93.5 647.5,93.5 Z M666.737,105.167 C680.325,105.167 694.167,113.998 694.167,122.667 C694.167,131.335 680.325,140.167 666.737,140.167 C654.242,140.167 647.5,131.15 647.5,122.667 C647.5,114.184 654.242,105.167 666.737,105.167 Z M681.771,122.667 C680.563,122.667 679.583,123.647 679.583,124.854 C679.583,126.062 680.563,127.042 681.771,127.042 C682.978,127.042 683.958,126.062 683.958,124.854 C683.958,123.647 682.978,122.667 681.771,122.667 Z M673.75,128.5 C672.945,128.5 672.292,129.153 672.292,129.958 C672.292,130.763 672.945,131.417 673.75,131.417 C674.555,131.417 675.208,130.763 675.208,129.958 C675.208,129.153 674.555,128.5 673.75,128.5 Z" />
        </g>
    </g>
</svg>