<?xml version="1.0" encoding="UTF-8"?>
<svg height="600" width="800" xmlns="http://www.w3.org/2000/svg" xmlns:xlink="http://www.w3.org/1999/xlink">
    <g id="Notes" font-family="'LucidaGrande', 'Lucida Grande', sans-serif" font-size="13">
        <rect fill="white" height="600.0" width="800.0" x="0.0" y="0.0" />
        <g font-size="13">
            <text x="18.0" y="176.0">Small</text>
            <text x="18.0" y="376.0">Medium</text>
            <text x="18.0" y="576.0">Large</text>
        </g>
        <g font-size="9">
            <text x="250.0" y="30.0">Ultralight</text>
            <text x="450.0" y="30.0">Regular</text>
            <text x="650.0" y="30.0">Black</text>
            <text id="template-version" fill="#505050" text-anchor="end" x="785.0" y="575.0">Template v.3.0</text>
            <a href="https://wangchujiang.com/#/app">
                <text fill="#505050" text-anchor="end" x="785.0" y="590.0">https://wangchujiang.com/#/app</text>
            </a>
        </g>
    </g>
    <g id="Guides" stroke="rgb(39, 170, 225)" stroke-width="0.5">
        <path id="Capline-S" d="M18,76 l800,0" />
        <path id="H-reference" d="M85,145.755 L87.685,145.755 L113.369,79.287 L114.052,79.287 L114.052,76 L112.148,76 L85,145.755 Z M95.693,121.536 L130.996,121.536 L130.263,119.313 L96.474,119.313 L95.693,121.536 Z M139.15,145.755 L141.787,145.755 L114.638,76 L113.466,76 L113.466,79.287 L139.15,145.755 Z" stroke="none" />
        <path id="Baseline-S" d="M18,146 l800,0" />
        <path id="left-margin-Ultralight-S" d="M211,56 l0,110" />
        <path id="right-margin-Ultralight-S" d="M319,56 l0,110" />
        <path id="left-margin-Regular-S" d="M411,56 l0,110" />
        <path id="right-margin-Regular-S" d="M519,56 l0,110" />
        <path id="left-margin-Black-S" d="M611,56 l0,110" />
        <path id="right-margin-Black-S" d="M719,56 l0,110" />
        <path id="Capline-M" d="M18,276 l800,0" />
        <path id="Baseline-M" d="M18,346 l800,0" />
        <path id="Capline-L" d="M18,476 l800,0" />
        <path id="Baseline-L" d="M18,546 l800,0" />
    </g>
    <g id="Symbols">
        <g id="Ultralight-S">
            <path d="M241.429,84.286 C235.382,84.286 228.857,88.491 228.857,95.286 L228.857,95.682 C224.11,96.905 221,100.92 221,106.286 C221,112.653 225.177,115.667 228.98,117.35 C228.907,117.839 228.857,118.338 228.857,118.857 C228.857,131.017 241.693,137.714 265,137.714 C288.307,137.714 301.143,131.017 301.143,118.857 C301.143,118.352 301.103,117.844 301.042,117.338 C304.839,115.653 309,112.64 309,106.286 C309,100.92 305.89,96.905 301.143,95.682 L301.143,95.286 C301.143,89.968 297.84,84.286 288.571,84.286 C280.761,84.286 276.742,87.429 265,87.429 C254.671,87.429 249.334,84.286 241.429,84.286 Z M241.429,90.571 C248.808,90.571 254.013,93.714 265,93.714 C275.951,93.714 283.265,90.571 288.571,90.571 C294.857,90.571 294.857,94.12 294.857,95.286 L294.857,95.433 C287.522,96.049 278.224,98.429 265,98.429 C251.85,98.429 242.509,96.044 235.143,95.43 L235.143,95.286 C235.143,92.467 238.393,90.571 241.429,90.571 Z M232,101.571 C240.054,101.571 248.205,104.714 265,104.714 C281.465,104.714 290.229,101.571 298,101.571 C300.995,101.571 302.714,103.289 302.714,106.286 C302.714,108.702 301.638,110.15 298.497,111.559 C296.525,109.37 293.345,107.857 288.571,107.857 C282.245,107.857 275.063,111 265,111 C254.937,111 249.294,107.857 241.429,107.857 C237.956,107.857 234.336,109.251 231.874,111.718 C228.45,110.258 227.286,108.793 227.286,106.286 C227.286,103.289 229.005,101.571 232,101.571 Z M241.429,114.143 C247.716,114.143 254.745,117.286 265,117.286 C276.649,117.286 282.341,114.143 288.571,114.143 C294.857,114.143 294.857,117.691 294.857,118.857 C294.857,129.794 276.151,131.429 265,131.429 C253.849,131.429 235.143,129.794 235.143,118.857 C235.143,116.038 238.393,114.143 241.429,114.143 Z" />
        </g>
        <g id="Regular-S">
            <path d="M441.429,84.286 C435.382,84.286 428.857,88.491 428.857,95.286 L428.857,95.682 C424.11,96.905 421,100.92 421,106.286 C421,112.653 425.177,115.667 428.98,117.35 C428.907,117.839 428.857,118.338 428.857,118.857 C428.857,131.017 441.693,137.714 465,137.714 C488.307,137.714 501.143,131.017 501.143,118.857 C501.143,118.352 501.103,117.844 501.042,117.338 C504.839,115.653 509,112.64 509,106.286 C509,100.92 505.89,96.905 501.143,95.682 L501.143,95.286 C501.143,89.968 497.84,84.286 488.571,84.286 C480.761,84.286 476.742,87.429 465,87.429 C454.671,87.429 449.334,84.286 441.429,84.286 Z M441.429,90.571 C448.808,90.571 454.013,93.714 465,93.714 C475.951,93.714 483.265,90.571 488.571,90.571 C494.857,90.571 494.857,94.12 494.857,95.286 L494.857,95.433 C487.522,96.049 478.224,98.429 465,98.429 C451.85,98.429 442.509,96.044 435.143,95.43 L435.143,95.286 C435.143,92.467 438.393,90.571 441.429,90.571 Z M432,101.571 C440.054,101.571 448.205,104.714 465,104.714 C481.465,104.714 490.229,101.571 498,101.571 C500.995,101.571 502.714,103.289 502.714,106.286 C502.714,108.702 501.638,110.15 498.497,111.559 C496.525,109.37 493.345,107.857 488.571,107.857 C482.245,107.857 475.063,111 465,111 C454.937,111 449.294,107.857 441.429,107.857 C437.956,107.857 434.336,109.251 431.874,111.718 C428.45,110.258 427.286,108.793 427.286,106.286 C427.286,103.289 429.005,101.571 432,101.571 Z M441.429,114.143 C447.716,114.143 454.745,117.286 465,117.286 C476.649,117.286 482.341,114.143 488.571,114.143 C494.857,114.143 494.857,117.691 494.857,118.857 C494.857,129.794 476.151,131.429 465,131.429 C453.849,131.429 435.143,129.794 435.143,118.857 C435.143,116.038 438.393,114.143 441.429,114.143 Z" />
        </g>
        <g id="Black-S">
            <path d="M641.429,84.286 C635.382,84.286 628.857,88.491 628.857,95.286 L628.857,95.682 C624.11,96.905 621,100.92 621,106.286 C621,112.653 625.177,115.667 628.98,117.35 C628.907,117.839 628.857,118.338 628.857,118.857 C628.857,131.017 641.693,137.714 665,137.714 C688.307,137.714 701.143,131.017 701.143,118.857 C701.143,118.352 701.103,117.844 701.042,117.338 C704.839,115.653 709,112.64 709,106.286 C709,100.92 705.89,96.905 701.143,95.682 L701.143,95.286 C701.143,89.968 697.84,84.286 688.571,84.286 C680.761,84.286 676.742,87.429 665,87.429 C654.671,87.429 649.334,84.286 641.429,84.286 Z M641.429,90.571 C648.808,90.571 654.013,93.714 665,93.714 C675.951,93.714 683.265,90.571 688.571,90.571 C694.857,90.571 694.857,94.12 694.857,95.286 L694.857,95.433 C687.522,96.049 678.224,98.429 665,98.429 C651.85,98.429 642.509,96.044 635.143,95.43 L635.143,95.286 C635.143,92.467 638.393,90.571 641.429,90.571 Z M632,101.571 C640.054,101.571 648.205,104.714 665,104.714 C681.465,104.714 690.229,101.571 698,101.571 C700.995,101.571 702.714,103.289 702.714,106.286 C702.714,108.702 701.638,110.15 698.497,111.559 C696.525,109.37 693.345,107.857 688.571,107.857 C682.245,107.857 675.063,111 665,111 C654.937,111 649.294,107.857 641.429,107.857 C637.956,107.857 634.336,109.251 631.874,111.718 C628.45,110.258 627.286,108.793 627.286,106.286 C627.286,103.289 629.005,101.571 632,101.571 Z M641.429,114.143 C647.716,114.143 654.745,117.286 665,117.286 C676.649,117.286 682.341,114.143 688.571,114.143 C694.857,114.143 694.857,117.691 694.857,118.857 C694.857,129.794 676.151,131.429 665,131.429 C653.849,131.429 635.143,129.794 635.143,118.857 C635.143,116.038 638.393,114.143 641.429,114.143 Z" />
        </g>
    </g>
</svg>