<?xml version="1.0" encoding="UTF-8"?>
<svg height="600" width="800" xmlns="http://www.w3.org/2000/svg" xmlns:xlink="http://www.w3.org/1999/xlink">
    <g id="Notes" font-family="'LucidaGrande', 'Lucida Grande', sans-serif" font-size="13">
        <rect fill="white" height="600.0" width="800.0" x="0.0" y="0.0" />
        <g font-size="13">
            <text x="18.0" y="176.0">Small</text>
            <text x="18.0" y="376.0">Medium</text>
            <text x="18.0" y="576.0">Large</text>
        </g>
        <g font-size="9">
            <text x="250.0" y="30.0">Ultralight</text>
            <text x="450.0" y="30.0">Regular</text>
            <text x="650.0" y="30.0">Black</text>
            <text id="template-version" fill="#505050" text-anchor="end" x="785.0" y="575.0">Template v.3.0</text>
            <a href="https://wangchujiang.com/#/app">
                <text fill="#505050" text-anchor="end" x="785.0" y="590.0">https://wangchujiang.com/#/app</text>
            </a>
        </g>
    </g>
    <g id="Guides" stroke="rgb(39, 170, 225)" stroke-width="0.5">
        <path id="Capline-S" d="M18,76 l800,0" />
        <path id="H-reference" d="M85,145.755 L87.685,145.755 L113.369,79.287 L114.052,79.287 L114.052,76 L112.148,76 L85,145.755 Z M95.693,121.536 L130.996,121.536 L130.263,119.313 L96.474,119.313 L95.693,121.536 Z M139.15,145.755 L141.787,145.755 L114.638,76 L113.466,76 L113.466,79.287 L139.15,145.755 Z" stroke="none" />
        <path id="Baseline-S" d="M18,146 l800,0" />
        <path id="left-margin-Ultralight-S" d="M221,56 l0,110" />
        <path id="right-margin-Ultralight-S" d="M309,56 l0,110" />
        <path id="left-margin-Regular-S" d="M421,56 l0,110" />
        <path id="right-margin-Regular-S" d="M509,56 l0,110" />
        <path id="left-margin-Black-S" d="M621,56 l0,110" />
        <path id="right-margin-Black-S" d="M709,56 l0,110" />
        <path id="Capline-M" d="M18,276 l800,0" />
        <path id="Baseline-M" d="M18,346 l800,0" />
        <path id="Capline-L" d="M18,476 l800,0" />
        <path id="Baseline-L" d="M18,546 l800,0" />
    </g>
    <g id="Symbols">
        <g id="Ultralight-S">
            <path d="M287.931,106.35 C287.931,107.732 287.213,108.948 286.121,109.684 L286.121,130.336 C286.121,131.668 285.039,132.749 283.707,132.749 C282.374,132.749 281.293,131.668 281.293,130.336 L281.293,109.684 C280.201,108.948 279.483,107.731 279.483,106.35 C279.483,104.585 280.462,101.689 281.475,99.158 C281.783,98.185 282.686,97.523 283.707,97.523 C284.728,97.523 285.631,98.184 285.937,99.158 C286.952,101.689 287.931,104.585 287.931,106.35 Z M271.327,80.129 C273.523,85.574 275.862,93.015 275.862,97.631 C275.862,100.815 274.124,103.616 272.241,105.447 L272.241,143.586 C272.241,144.227 271.987,144.841 271.534,145.294 C271.082,145.747 270.467,146 269.828,146 L269.826,146 L260.106,145.996 C258.774,145.996 257.693,144.915 257.693,143.583 L257.693,105.367 C255.797,103.423 254.729,100.716 254.729,97.766 C254.729,94.123 256.379,88.19 259.635,80.13 C260.512,77.656 262.852,76 265.48,76 C268.109,76 270.45,77.657 271.327,80.129 Z M267.414,141.171 L267.414,114.621 C266.081,114.621 265,113.539 265,112.207 C265,110.874 266.081,109.793 267.414,109.793 L267.414,104.362 C267.414,103.627 267.748,102.932 268.324,102.474 C269.055,101.892 269.783,101.059 270.303,100.126 C269.031,100.057 268.017,99.012 268.017,97.724 C268.017,96.392 269.099,95.31 270.431,95.31 C270.571,95.31 270.706,95.328 270.84,95.351 C270.665,94.154 270.373,92.772 269.982,91.267 C269.593,91.533 269.125,91.69 268.621,91.69 C267.288,91.69 266.207,90.608 266.207,89.276 C266.207,87.943 267.288,86.862 268.621,86.862 C268.636,86.862 268.651,86.867 268.667,86.867 C268.127,85.251 267.51,83.573 266.828,81.884 C266.812,81.843 266.797,81.8 266.783,81.758 C266.592,81.202 266.069,80.828 265.48,80.828 C264.891,80.828 264.369,81.202 264.179,81.758 C264.165,81.8 264.15,81.843 264.133,81.884 C264.056,82.073 263.991,82.249 263.916,82.436 C264.569,82.868 265,83.608 265,84.448 C265,85.781 263.919,86.862 262.586,86.862 C262.47,86.862 262.359,86.844 262.248,86.828 C261.597,88.656 261.063,90.32 260.643,91.816 C260.876,91.742 261.121,91.69 261.379,91.69 C262.712,91.69 263.793,92.771 263.793,94.103 C263.793,95.436 262.712,96.517 261.379,96.517 C260.743,96.517 260.168,96.265 259.736,95.862 C259.629,96.573 259.557,97.229 259.557,97.766 C259.557,99.708 260.286,101.359 261.611,102.414 C261.708,102.491 261.787,102.583 261.869,102.672 C262.097,102.601 262.335,102.552 262.586,102.552 C263.919,102.552 265,103.633 265,104.966 C265,106.298 263.919,107.379 262.586,107.379 C262.564,107.379 262.544,107.373 262.521,107.373 L262.521,141.17 L267.414,141.171 Z M250.517,106.35 C250.517,107.732 249.799,108.948 248.707,109.684 L248.707,130.336 C248.707,131.668 247.626,132.749 246.293,132.749 C244.961,132.749 243.879,131.668 243.879,130.336 L243.879,109.684 C242.787,108.948 242.069,107.731 242.069,106.35 C242.069,104.585 243.048,101.689 244.062,99.158 C244.369,98.185 245.272,97.523 246.293,97.523 C247.314,97.523 248.217,98.184 248.523,99.158 C249.538,101.689 250.517,104.585 250.517,106.35 Z" />
        </g>
        <g id="Regular-S">
            <path d="M487.931,106.35 C487.931,107.732 487.213,108.948 486.121,109.684 L486.121,130.336 C486.121,131.668 485.039,132.749 483.707,132.749 C482.374,132.749 481.293,131.668 481.293,130.336 L481.293,109.684 C480.201,108.948 479.483,107.731 479.483,106.35 C479.483,104.585 480.462,101.689 481.475,99.158 C481.783,98.185 482.686,97.523 483.707,97.523 C484.728,97.523 485.631,98.184 485.937,99.158 C486.952,101.689 487.931,104.585 487.931,106.35 Z M471.327,80.129 C473.523,85.574 475.862,93.015 475.862,97.631 C475.862,100.815 474.124,103.616 472.241,105.447 L472.241,143.586 C472.241,144.227 471.987,144.841 471.534,145.294 C471.082,145.747 470.467,146 469.828,146 L469.826,146 L460.106,145.996 C458.774,145.996 457.693,144.915 457.693,143.583 L457.693,105.367 C455.797,103.423 454.729,100.716 454.729,97.766 C454.729,94.123 456.379,88.19 459.635,80.13 C460.512,77.656 462.852,76 465.48,76 C468.109,76 470.45,77.657 471.327,80.129 Z M467.414,141.171 L467.414,114.621 C466.081,114.621 465,113.539 465,112.207 C465,110.874 466.081,109.793 467.414,109.793 L467.414,104.362 C467.414,103.627 467.748,102.932 468.324,102.474 C469.055,101.892 469.783,101.059 470.303,100.126 C469.031,100.057 468.017,99.012 468.017,97.724 C468.017,96.392 469.099,95.31 470.431,95.31 C470.571,95.31 470.706,95.328 470.84,95.351 C470.665,94.154 470.373,92.772 469.982,91.267 C469.593,91.533 469.125,91.69 468.621,91.69 C467.288,91.69 466.207,90.608 466.207,89.276 C466.207,87.943 467.288,86.862 468.621,86.862 C468.636,86.862 468.651,86.867 468.667,86.867 C468.127,85.251 467.51,83.573 466.828,81.884 C466.812,81.843 466.797,81.8 466.783,81.758 C466.592,81.202 466.069,80.828 465.48,80.828 C464.891,80.828 464.369,81.202 464.179,81.758 C464.165,81.8 464.15,81.843 464.133,81.884 C464.056,82.073 463.991,82.249 463.916,82.436 C464.569,82.868 465,83.608 465,84.448 C465,85.781 463.919,86.862 462.586,86.862 C462.47,86.862 462.359,86.844 462.248,86.828 C461.597,88.656 461.063,90.32 460.643,91.816 C460.876,91.742 461.121,91.69 461.379,91.69 C462.712,91.69 463.793,92.771 463.793,94.103 C463.793,95.436 462.712,96.517 461.379,96.517 C460.743,96.517 460.168,96.265 459.736,95.862 C459.629,96.573 459.557,97.229 459.557,97.766 C459.557,99.708 460.286,101.359 461.611,102.414 C461.708,102.491 461.787,102.583 461.869,102.672 C462.097,102.601 462.335,102.552 462.586,102.552 C463.919,102.552 465,103.633 465,104.966 C465,106.298 463.919,107.379 462.586,107.379 C462.564,107.379 462.544,107.373 462.521,107.373 L462.521,141.17 L467.414,141.171 Z M450.517,106.35 C450.517,107.732 449.799,108.948 448.707,109.684 L448.707,130.336 C448.707,131.668 447.626,132.749 446.293,132.749 C444.961,132.749 443.879,131.668 443.879,130.336 L443.879,109.684 C442.787,108.948 442.069,107.731 442.069,106.35 C442.069,104.585 443.048,101.689 444.062,99.158 C444.369,98.185 445.272,97.523 446.293,97.523 C447.314,97.523 448.217,98.184 448.523,99.158 C449.538,101.689 450.517,104.585 450.517,106.35 Z" />
        </g>
        <g id="Black-S">
            <path d="M687.931,106.35 C687.931,107.732 687.213,108.948 686.121,109.684 L686.121,130.336 C686.121,131.668 685.039,132.749 683.707,132.749 C682.375,132.749 681.293,131.668 681.293,130.336 L681.293,109.684 C680.201,108.948 679.483,107.731 679.483,106.35 C679.483,104.585 680.462,101.689 681.475,99.158 C681.783,98.185 682.686,97.523 683.707,97.523 C684.728,97.523 685.631,98.184 685.937,99.158 C686.952,101.689 687.931,104.585 687.931,106.35 Z M671.327,80.129 C673.523,85.574 675.862,93.015 675.862,97.631 C675.862,100.815 674.124,103.616 672.241,105.447 L672.241,143.586 C672.241,144.227 671.987,144.841 671.534,145.294 C671.082,145.747 670.467,146 669.828,146 L669.826,146 L660.106,145.996 C658.774,145.996 657.693,144.915 657.693,143.583 L657.693,105.367 C655.797,103.423 654.729,100.716 654.729,97.766 C654.729,94.123 656.379,88.19 659.635,80.13 C660.512,77.656 662.852,76 665.48,76 C668.109,76 670.45,77.657 671.327,80.129 Z M667.414,141.171 L667.414,114.621 C666.081,114.621 665,113.539 665,112.207 C665,110.874 666.081,109.793 667.414,109.793 L667.414,104.362 C667.414,103.627 667.748,102.932 668.324,102.474 C669.055,101.892 669.783,101.059 670.303,100.126 C669.031,100.057 668.017,99.012 668.017,97.724 C668.017,96.392 669.099,95.31 670.431,95.31 C670.571,95.31 670.706,95.328 670.84,95.351 C670.665,94.154 670.373,92.772 669.982,91.267 C669.593,91.533 669.125,91.69 668.621,91.69 C667.288,91.69 666.207,90.608 666.207,89.276 C666.207,87.943 667.288,86.862 668.621,86.862 C668.636,86.862 668.651,86.867 668.667,86.867 C668.127,85.251 667.51,83.573 666.828,81.884 C666.812,81.843 666.797,81.8 666.783,81.758 C666.592,81.202 666.069,80.828 665.48,80.828 C664.891,80.828 664.369,81.202 664.179,81.758 C664.165,81.8 664.15,81.843 664.133,81.884 C664.056,82.073 663.991,82.249 663.916,82.436 C664.569,82.868 665,83.608 665,84.448 C665,85.781 663.919,86.862 662.586,86.862 C662.47,86.862 662.359,86.844 662.248,86.828 C661.597,88.656 661.063,90.32 660.643,91.816 C660.876,91.742 661.121,91.69 661.379,91.69 C662.712,91.69 663.793,92.771 663.793,94.103 C663.793,95.436 662.712,96.517 661.379,96.517 C660.743,96.517 660.168,96.265 659.736,95.862 C659.629,96.573 659.557,97.229 659.557,97.766 C659.557,99.708 660.286,101.359 661.611,102.414 C661.708,102.491 661.787,102.583 661.869,102.672 C662.097,102.601 662.335,102.552 662.586,102.552 C663.919,102.552 665,103.633 665,104.966 C665,106.298 663.919,107.379 662.586,107.379 C662.565,107.379 662.544,107.373 662.521,107.373 L662.521,141.17 L667.414,141.171 Z M650.517,106.35 C650.517,107.732 649.799,108.948 648.707,109.684 L648.707,130.336 C648.707,131.668 647.626,132.749 646.293,132.749 C644.961,132.749 643.879,131.668 643.879,130.336 L643.879,109.684 C642.787,108.948 642.069,107.731 642.069,106.35 C642.069,104.585 643.048,101.689 644.062,99.158 C644.369,98.185 645.272,97.523 646.293,97.523 C647.314,97.523 648.217,98.184 648.523,99.158 C649.538,101.689 650.517,104.585 650.517,106.35 Z" />
        </g>
    </g>
</svg>