<?xml version="1.0" encoding="UTF-8"?>
<svg height="600" width="800" xmlns="http://www.w3.org/2000/svg" xmlns:xlink="http://www.w3.org/1999/xlink">
    <g id="Notes" font-family="'LucidaGrande', 'Lucida Grande', sans-serif" font-size="13">
        <rect fill="white" height="600.0" width="800.0" x="0.0" y="0.0" />
        <g font-size="13">
            <text x="18.0" y="176.0">Small</text>
            <text x="18.0" y="376.0">Medium</text>
            <text x="18.0" y="576.0">Large</text>
        </g>
        <g font-size="9">
            <text x="250.0" y="30.0">Ultralight</text>
            <text x="450.0" y="30.0">Regular</text>
            <text x="650.0" y="30.0">Black</text>
            <text id="template-version" fill="#505050" text-anchor="end" x="785.0" y="575.0">Template v.3.0</text>
            <a href="https://wangchujiang.com/#/app">
                <text fill="#505050" text-anchor="end" x="785.0" y="590.0">https://wangchujiang.com/#/app</text>
            </a>
        </g>
    </g>
    <g id="Guides" stroke="rgb(39, 170, 225)" stroke-width="0.5">
        <path id="Capline-S" d="M18,76 l800,0" />
        <path id="H-reference" d="M85,145.755 L87.685,145.755 L113.369,79.287 L114.052,79.287 L114.052,76 L112.148,76 L85,145.755 Z M95.693,121.536 L130.996,121.536 L130.263,119.313 L96.474,119.313 L95.693,121.536 Z M139.15,145.755 L141.787,145.755 L114.638,76 L113.466,76 L113.466,79.287 L139.15,145.755 Z" stroke="none" />
        <path id="Baseline-S" d="M18,146 l800,0" />
        <path id="left-margin-Ultralight-S" d="M220.744,56 l0,110" />
        <path id="right-margin-Ultralight-S" d="M309.256,56 l0,110" />
        <path id="left-margin-Regular-S" d="M420.744,56 l0,110" />
        <path id="right-margin-Regular-S" d="M509.256,56 l0,110" />
        <path id="left-margin-Black-S" d="M620.744,56 l0,110" />
        <path id="right-margin-Black-S" d="M709.256,56 l0,110" />
        <path id="Capline-M" d="M18,276 l800,0" />
        <path id="Baseline-M" d="M18,346 l800,0" />
        <path id="Capline-L" d="M18,476 l800,0" />
        <path id="Baseline-L" d="M18,546 l800,0" />
    </g>
    <g id="Symbols">
        <g id="Ultralight-S">
            <path d="M261.533,76.016 C257.706,75.83 253.687,77.298 251.241,78.407 C250.021,78.96 249.719,80.562 250.656,81.52 C252.804,83.712 256.7,87.088 260.968,87.888 C261.479,87.983 261.989,88.028 262.495,88.053 C255.92,92.931 249.991,100.398 247.921,111.744 L244.07,111.744 C235.84,111.744 230.744,119.626 230.744,126.932 C230.744,137.089 239.792,146 250.106,146 C255.946,146 261.376,143.139 264.991,138.818 C268.699,143.23 274.244,146 279.894,146 C290.208,146 299.256,137.089 299.256,126.932 C299.256,119.626 294.16,111.744 285.93,111.744 L279.978,111.744 C278.62,105.364 277.573,96.286 279.138,86.346 C282.92,85.257 285.722,84.956 286.099,84.923 C287.737,84.786 288.956,83.349 288.819,81.709 C288.683,80.069 287.247,78.864 285.604,78.989 C285.454,79.001 279.584,79.588 272.485,82.5 C270.809,80.397 267.537,77.022 263.156,76.202 C262.622,76.102 262.079,76.043 261.533,76.016 Z M272.805,88.708 C271.83,97.626 272.663,105.661 273.861,111.744 L273.858,111.744 C270.463,111.744 267.402,113.132 265.023,115.61 C262.782,113.275 259.767,111.744 256.142,111.744 L253.998,111.744 C256.737,98.94 265.225,92.223 272.805,88.708 Z M244.07,117.702 L247.223,117.702 C247.189,118.32 247.175,118.957 247.162,119.595 C245.37,120.109 244.148,121.063 244.148,122.17 C244.148,123.816 246.816,125.149 250.106,125.149 C253.396,125.149 256.064,123.816 256.064,122.17 C256.064,121.076 254.873,120.131 253.117,119.613 C253.131,118.971 253.136,118.32 253.175,117.702 L256.142,117.702 C260.948,117.702 263.511,123.062 263.511,126.932 C263.511,134.435 256.433,140.042 250.106,140.042 C243.779,140.042 236.702,134.435 236.702,126.932 C236.702,123.062 239.262,117.702 244.07,117.702 Z M273.858,117.702 L275.298,117.702 C275.521,118.491 275.748,119.321 275.949,119.953 C274.724,120.499 273.936,121.284 273.936,122.17 C273.936,123.816 276.604,125.149 279.894,125.149 C283.184,125.149 285.851,123.816 285.851,122.17 C285.851,120.908 284.277,119.834 282.061,119.4 C281.893,118.913 281.725,118.408 281.508,117.702 L285.93,117.702 C290.736,117.702 293.298,123.062 293.298,126.932 C293.298,134.435 286.221,140.042 279.894,140.042 C275.344,140.042 270.734,137.255 268.29,133.177 C269.037,131.199 269.468,129.097 269.468,126.932 C269.468,124.925 269.071,122.881 268.342,120.963 C269.349,119.446 271.077,117.702 273.858,117.702 Z" />
        </g>
        <g id="Regular-S">
            <path d="M461.533,76.016 C457.706,75.83 453.687,77.298 451.241,78.407 C450.021,78.96 449.719,80.562 450.656,81.52 C452.804,83.712 456.7,87.088 460.968,87.888 C461.479,87.983 461.989,88.028 462.495,88.053 C455.92,92.931 449.991,100.398 447.921,111.744 L444.07,111.744 C435.84,111.744 430.744,119.626 430.744,126.932 C430.744,137.089 439.792,146 450.106,146 C455.946,146 461.376,143.139 464.991,138.818 C468.699,143.23 474.244,146 479.894,146 C490.208,146 499.256,137.089 499.256,126.932 C499.256,119.626 494.16,111.744 485.93,111.744 L479.978,111.744 C478.62,105.364 477.573,96.286 479.138,86.346 C482.92,85.257 485.722,84.956 486.099,84.923 C487.737,84.786 488.956,83.349 488.819,81.709 C488.683,80.069 487.247,78.864 485.604,78.989 C485.454,79.001 479.584,79.588 472.485,82.5 C470.809,80.397 467.537,77.022 463.156,76.202 C462.622,76.102 462.079,76.043 461.533,76.016 Z M472.805,88.708 C471.83,97.626 472.663,105.661 473.861,111.744 L473.858,111.744 C470.463,111.744 467.402,113.132 465.023,115.61 C462.782,113.275 459.767,111.744 456.142,111.744 L453.998,111.744 C456.737,98.94 465.225,92.223 472.805,88.708 Z M444.07,117.702 L447.223,117.702 C447.189,118.32 447.175,118.957 447.162,119.595 C445.37,120.109 444.148,121.063 444.148,122.17 C444.148,123.816 446.816,125.149 450.106,125.149 C453.396,125.149 456.064,123.816 456.064,122.17 C456.064,121.076 454.873,120.131 453.117,119.613 C453.131,118.971 453.136,118.32 453.175,117.702 L456.142,117.702 C460.948,117.702 463.511,123.062 463.511,126.932 C463.511,134.435 456.433,140.042 450.106,140.042 C443.779,140.042 436.702,134.435 436.702,126.932 C436.702,123.062 439.262,117.702 444.07,117.702 Z M473.858,117.702 L475.298,117.702 C475.521,118.491 475.748,119.321 475.949,119.953 C474.724,120.499 473.936,121.284 473.936,122.17 C473.936,123.816 476.604,125.149 479.894,125.149 C483.184,125.149 485.851,123.816 485.851,122.17 C485.851,120.908 484.277,119.834 482.061,119.4 C481.893,118.913 481.725,118.408 481.508,117.702 L485.93,117.702 C490.736,117.702 493.298,123.062 493.298,126.932 C493.298,134.435 486.221,140.042 479.894,140.042 C475.344,140.042 470.734,137.255 468.29,133.177 C469.037,131.199 469.468,129.097 469.468,126.932 C469.468,124.925 469.071,122.881 468.342,120.963 C469.349,119.446 471.077,117.702 473.858,117.702 Z" />
        </g>
        <g id="Black-S">
            <path d="M661.533,76.016 C657.706,75.83 653.687,77.298 651.241,78.407 C650.021,78.96 649.719,80.562 650.656,81.52 C652.804,83.712 656.7,87.088 660.968,87.888 C661.479,87.983 661.989,88.028 662.495,88.053 C655.92,92.931 649.991,100.398 647.921,111.744 L644.07,111.744 C635.84,111.744 630.744,119.626 630.744,126.932 C630.744,137.089 639.792,146 650.106,146 C655.946,146 661.376,143.139 664.991,138.818 C668.699,143.23 674.244,146 679.894,146 C690.208,146 699.256,137.089 699.256,126.932 C699.256,119.626 694.16,111.744 685.93,111.744 L679.978,111.744 C678.621,105.364 677.573,96.286 679.138,86.346 C682.92,85.257 685.722,84.956 686.099,84.923 C687.737,84.786 688.956,83.349 688.819,81.709 C688.683,80.069 687.247,78.864 685.604,78.989 C685.454,79.001 679.584,79.588 672.485,82.5 C670.809,80.397 667.537,77.022 663.156,76.202 C662.622,76.102 662.079,76.043 661.533,76.016 Z M672.805,88.708 C671.831,97.626 672.663,105.661 673.861,111.744 L673.858,111.744 C670.463,111.744 667.402,113.132 665.023,115.61 C662.782,113.275 659.767,111.744 656.142,111.744 L653.998,111.744 C656.737,98.94 665.225,92.223 672.805,88.708 Z M644.07,117.702 L647.223,117.702 C647.189,118.32 647.175,118.957 647.162,119.595 C645.37,120.109 644.149,121.063 644.149,122.17 C644.149,123.816 646.816,125.149 650.106,125.149 C653.396,125.149 656.064,123.816 656.064,122.17 C656.064,121.076 654.873,120.131 653.117,119.613 C653.131,118.971 653.136,118.32 653.175,117.702 L656.142,117.702 C660.948,117.702 663.511,123.062 663.511,126.932 C663.511,134.435 656.433,140.042 650.106,140.042 C643.779,140.042 636.702,134.435 636.702,126.932 C636.702,123.062 639.262,117.702 644.07,117.702 Z M673.858,117.702 L675.298,117.702 C675.521,118.491 675.748,119.321 675.949,119.953 C674.724,120.499 673.936,121.284 673.936,122.17 C673.936,123.816 676.604,125.149 679.894,125.149 C683.184,125.149 685.852,123.816 685.852,122.17 C685.852,120.908 684.277,119.834 682.061,119.4 C681.893,118.913 681.725,118.408 681.508,117.702 L685.93,117.702 C690.736,117.702 693.298,123.062 693.298,126.932 C693.298,134.435 686.221,140.042 679.894,140.042 C675.345,140.042 670.734,137.255 668.29,133.177 C669.037,131.199 669.468,129.097 669.468,126.932 C669.468,124.925 669.071,122.881 668.342,120.963 C669.349,119.446 671.077,117.702 673.858,117.702 Z" />
        </g>
    </g>
</svg>