<?xml version="1.0" encoding="UTF-8"?>
<svg height="600" width="800" xmlns="http://www.w3.org/2000/svg" xmlns:xlink="http://www.w3.org/1999/xlink">
    <g id="Notes" font-family="'LucidaGrande', 'Lucida Grande', sans-serif" font-size="13">
        <rect fill="white" height="600.0" width="800.0" x="0.0" y="0.0" />
        <g font-size="13">
            <text x="18.0" y="176.0">Small</text>
            <text x="18.0" y="376.0">Medium</text>
            <text x="18.0" y="576.0">Large</text>
        </g>
        <g font-size="9">
            <text x="250.0" y="30.0">Ultralight</text>
            <text x="450.0" y="30.0">Regular</text>
            <text x="650.0" y="30.0">Black</text>
            <text id="template-version" fill="#505050" text-anchor="end" x="785.0" y="575.0">Template v.3.0</text>
            <a href="https://wangchujiang.com/#/app">
                <text fill="#505050" text-anchor="end" x="785.0" y="590.0">https://wangchujiang.com/#/app</text>
            </a>
        </g>
    </g>
    <g id="Guides" stroke="rgb(39, 170, 225)" stroke-width="0.5">
        <path id="Capline-S" d="M18,76 l800,0" />
        <path id="H-reference" d="M85,145.755 L87.685,145.755 L113.369,79.287 L114.052,79.287 L114.052,76 L112.148,76 L85,145.755 Z M95.693,121.536 L130.996,121.536 L130.263,119.313 L96.474,119.313 L95.693,121.536 Z M139.15,145.755 L141.787,145.755 L114.638,76 L113.466,76 L113.466,79.287 L139.15,145.755 Z" stroke="none" />
        <path id="Baseline-S" d="M18,146 l800,0" />
        <path id="left-margin-Ultralight-S" d="M219.972,56 l0,110" />
        <path id="right-margin-Ultralight-S" d="M310.028,56 l0,110" />
        <path id="left-margin-Regular-S" d="M419.972,56 l0,110" />
        <path id="right-margin-Regular-S" d="M510.028,56 l0,110" />
        <path id="left-margin-Black-S" d="M619.972,56 l0,110" />
        <path id="right-margin-Black-S" d="M710.028,56 l0,110" />
        <path id="Capline-M" d="M18,276 l800,0" />
        <path id="Baseline-M" d="M18,346 l800,0" />
        <path id="Capline-L" d="M18,476 l800,0" />
        <path id="Baseline-L" d="M18,546 l800,0" />
    </g>
    <g id="Symbols">
        <g id="Ultralight-S">
            <path d="M286.173,76 C283.056,76 280.123,77.212 277.918,79.418 L276.373,80.965 C272.813,79.6 268.953,78.845 264.917,78.845 C247.213,78.845 232.811,93.248 232.811,110.952 C232.811,114.987 233.566,118.847 234.931,122.407 L233.386,123.952 C230.695,126.643 229.595,130.33 230.086,133.837 C230.424,136.263 231.524,138.602 233.386,140.465 L235.501,142.58 C237.705,144.785 240.637,146 243.756,146 C246.875,146 249.807,144.786 252.011,142.58 L253.599,140.992 C257.121,142.323 260.934,143.058 264.917,143.058 C282.621,143.058 297.024,128.656 297.024,110.952 C297.024,106.968 296.289,103.155 294.958,99.633 L296.545,98.045 C299.904,94.861 300.434,91.438 299.789,88.402 C298.721,83.374 294.43,79.418 294.43,79.418 C292.225,77.212 289.293,76 286.173,76 Z M286.173,81.838 C287.733,81.838 289.2,82.445 290.303,83.548 L292.418,85.663 C294.693,87.94 294.693,91.642 292.418,93.918 L292.233,94.103 C289.628,89.895 286.076,86.333 281.88,83.71 L282.046,83.545 C283.149,82.443 284.614,81.838 286.173,81.838 Z M264.917,84.682 C279.402,84.682 291.187,96.467 291.187,110.952 C291.187,125.436 279.402,137.221 264.917,137.221 C250.433,137.221 238.648,125.436 238.648,110.952 C238.648,96.467 250.433,84.682 264.917,84.682 Z M262.728,91.979 C260.713,91.979 259.08,93.612 259.08,95.628 C259.08,97.643 260.713,99.276 262.728,99.276 C264.744,99.276 266.377,97.643 266.377,95.628 C266.377,93.612 264.744,91.979 262.728,91.979 Z M277.764,96.623 C277.02,96.683 276.297,97.029 275.775,97.643 L270.404,103.965 C268.973,105.651 268.284,107.793 268.463,109.997 C268.643,112.2 269.671,114.205 271.357,115.635 C272.911,116.956 274.814,117.602 276.71,117.602 C279.058,117.602 281.393,116.608 283.026,114.683 C284.07,113.454 283.921,111.613 282.693,110.57 C281.462,109.526 279.624,109.677 278.579,110.906 C277.707,111.933 276.164,112.058 275.136,111.185 C274.638,110.764 274.335,110.172 274.281,109.521 C274.228,108.87 274.432,108.24 274.854,107.742 L280.221,101.42 C281.265,100.191 281.117,98.35 279.888,97.307 C279.275,96.786 278.509,96.562 277.764,96.623 Z M253.972,102.195 C248.741,102.195 244.486,107.105 244.486,113.141 C244.486,119.177 248.741,124.086 253.972,124.086 C259.202,124.086 263.458,119.177 263.458,113.141 C263.458,107.105 259.202,102.195 253.972,102.195 Z M253.972,108.033 C255.949,108.033 257.62,110.372 257.62,113.141 C257.62,113.732 257.531,114.294 257.392,114.828 C256.885,113.423 255.552,112.411 253.972,112.411 C252.391,112.411 251.059,113.423 250.551,114.828 C250.413,114.294 250.323,113.732 250.323,113.141 C250.323,110.372 251.994,108.033 253.972,108.033 Z M270.025,122.627 C268.01,122.627 266.377,124.26 266.377,126.275 C266.377,128.291 268.01,129.924 270.025,129.924 C272.041,129.924 273.674,128.291 273.674,126.275 C273.674,124.26 272.041,122.627 270.025,122.627 Z M237.676,127.917 C240.299,132.112 243.862,135.662 248.069,138.267 L247.884,138.452 C245.678,140.657 241.835,140.659 239.629,138.452 L237.514,136.337 C235.239,134.062 235.239,130.356 237.514,128.08 L237.676,127.917 Z" />
        </g>
        <g id="Regular-S">
            <path d="M486.173,76 C483.056,76 480.123,77.212 477.918,79.418 L476.373,80.965 C472.813,79.6 468.953,78.845 464.917,78.845 C447.213,78.845 432.811,93.248 432.811,110.952 C432.811,114.987 433.566,118.847 434.931,122.407 L433.386,123.952 C430.695,126.643 429.595,130.33 430.086,133.837 C430.424,136.263 431.524,138.602 433.386,140.465 L435.501,142.58 C437.705,144.785 440.637,146 443.756,146 C446.875,146 449.807,144.786 452.011,142.58 L453.599,140.992 C457.121,142.323 460.934,143.058 464.917,143.058 C482.621,143.058 497.024,128.656 497.024,110.952 C497.024,106.968 496.289,103.155 494.958,99.633 L496.545,98.045 C499.904,94.861 500.434,91.438 499.789,88.402 C498.721,83.374 494.43,79.418 494.43,79.418 C492.225,77.212 489.293,76 486.173,76 Z M486.173,81.838 C487.733,81.838 489.2,82.445 490.303,83.548 L492.418,85.663 C494.693,87.94 494.693,91.642 492.418,93.918 L492.233,94.103 C489.628,89.895 486.076,86.333 481.88,83.71 L482.046,83.545 C483.149,82.443 484.614,81.838 486.173,81.838 Z M464.917,84.682 C479.402,84.682 491.187,96.467 491.187,110.952 C491.187,125.436 479.402,137.221 464.917,137.221 C450.433,137.221 438.648,125.436 438.648,110.952 C438.648,96.467 450.433,84.682 464.917,84.682 Z M462.728,91.979 C460.713,91.979 459.08,93.612 459.08,95.628 C459.08,97.643 460.713,99.276 462.728,99.276 C464.744,99.276 466.377,97.643 466.377,95.628 C466.377,93.612 464.744,91.979 462.728,91.979 Z M477.764,96.623 C477.02,96.683 476.297,97.029 475.775,97.643 L470.404,103.965 C468.973,105.651 468.284,107.793 468.463,109.997 C468.643,112.2 469.671,114.205 471.357,115.635 C472.911,116.956 474.814,117.602 476.71,117.602 C479.058,117.602 481.393,116.608 483.026,114.683 C484.07,113.454 483.921,111.613 482.693,110.57 C481.462,109.526 479.624,109.677 478.579,110.906 C477.707,111.933 476.164,112.058 475.136,111.185 C474.638,110.764 474.335,110.172 474.281,109.521 C474.228,108.87 474.432,108.24 474.854,107.742 L480.221,101.42 C481.265,100.191 481.117,98.35 479.888,97.307 C479.275,96.786 478.509,96.562 477.764,96.623 Z M453.972,102.195 C448.741,102.195 444.486,107.105 444.486,113.141 C444.486,119.177 448.741,124.086 453.972,124.086 C459.202,124.086 463.458,119.177 463.458,113.141 C463.458,107.105 459.202,102.195 453.972,102.195 Z M453.972,108.033 C455.949,108.033 457.62,110.372 457.62,113.141 C457.62,113.732 457.531,114.294 457.392,114.828 C456.885,113.423 455.552,112.411 453.972,112.411 C452.391,112.411 451.059,113.423 450.551,114.828 C450.413,114.294 450.323,113.732 450.323,113.141 C450.323,110.372 451.994,108.033 453.972,108.033 Z M470.025,122.627 C468.01,122.627 466.377,124.26 466.377,126.275 C466.377,128.291 468.01,129.924 470.025,129.924 C472.041,129.924 473.674,128.291 473.674,126.275 C473.674,124.26 472.041,122.627 470.025,122.627 Z M437.676,127.917 C440.299,132.112 443.862,135.662 448.069,138.267 L447.884,138.452 C445.678,140.657 441.835,140.659 439.629,138.452 L437.514,136.337 C435.239,134.062 435.239,130.356 437.514,128.08 L437.676,127.917 Z" />
        </g>
        <g id="Black-S">
            <path d="M686.173,76 C683.056,76 680.123,77.212 677.918,79.418 L676.373,80.965 C672.813,79.6 668.953,78.845 664.917,78.845 C647.214,78.845 632.811,93.248 632.811,110.952 C632.811,114.987 633.566,118.847 634.931,122.407 L633.386,123.952 C630.695,126.643 629.595,130.33 630.086,133.837 C630.424,136.263 631.524,138.602 633.386,140.465 L635.501,142.58 C637.705,144.785 640.637,146 643.756,146 C646.875,146 649.807,144.786 652.011,142.58 L653.599,140.992 C657.121,142.323 660.934,143.058 664.917,143.058 C682.622,143.058 697.024,128.656 697.024,110.952 C697.024,106.968 696.289,103.155 694.958,99.633 L696.545,98.045 C699.904,94.861 700.434,91.438 699.789,88.402 C698.721,83.374 694.43,79.418 694.43,79.418 C692.225,77.212 689.293,76 686.173,76 Z M686.173,81.838 C687.733,81.838 689.2,82.445 690.303,83.548 L692.418,85.663 C694.693,87.94 694.693,91.642 692.418,93.918 L692.233,94.103 C689.628,89.895 686.076,86.333 681.88,83.71 L682.046,83.545 C683.149,82.443 684.614,81.838 686.173,81.838 Z M664.917,84.682 C679.402,84.682 691.187,96.467 691.187,110.952 C691.187,125.436 679.402,137.221 664.917,137.221 C650.433,137.221 638.648,125.436 638.648,110.952 C638.648,96.467 650.433,84.682 664.917,84.682 Z M662.728,91.979 C660.713,91.979 659.08,93.612 659.08,95.628 C659.08,97.643 660.713,99.276 662.728,99.276 C664.744,99.276 666.377,97.643 666.377,95.628 C666.377,93.612 664.744,91.979 662.728,91.979 Z M677.764,96.623 C677.02,96.683 676.297,97.029 675.775,97.643 L670.404,103.965 C668.973,105.651 668.284,107.793 668.463,109.997 C668.643,112.2 669.671,114.205 671.357,115.635 C672.911,116.956 674.814,117.602 676.71,117.602 C679.058,117.602 681.393,116.608 683.026,114.683 C684.07,113.454 683.921,111.613 682.693,110.57 C681.462,109.526 679.624,109.677 678.579,110.906 C677.707,111.933 676.164,112.058 675.136,111.185 C674.638,110.764 674.335,110.172 674.281,109.521 C674.229,108.87 674.432,108.24 674.854,107.742 L680.221,101.42 C681.265,100.191 681.117,98.35 679.888,97.307 C679.275,96.786 678.509,96.562 677.764,96.623 Z M653.972,102.195 C648.741,102.195 644.486,107.105 644.486,113.141 C644.486,119.177 648.741,124.086 653.972,124.086 C659.202,124.086 663.458,119.177 663.458,113.141 C663.458,107.105 659.202,102.195 653.972,102.195 Z M653.972,108.033 C655.949,108.033 657.62,110.372 657.62,113.141 C657.62,113.732 657.531,114.294 657.392,114.828 C656.885,113.423 655.552,112.411 653.972,112.411 C652.391,112.411 651.059,113.423 650.552,114.828 C650.413,114.294 650.323,113.732 650.323,113.141 C650.323,110.372 651.995,108.033 653.972,108.033 Z M670.025,122.627 C668.01,122.627 666.377,124.26 666.377,126.275 C666.377,128.291 668.01,129.924 670.025,129.924 C672.041,129.924 673.674,128.291 673.674,126.275 C673.674,124.26 672.041,122.627 670.025,122.627 Z M637.676,127.917 C640.299,132.112 643.862,135.662 648.069,138.267 L647.884,138.452 C645.678,140.657 641.835,140.659 639.629,138.452 L637.514,136.337 C635.239,134.062 635.239,130.356 637.514,128.08 L637.676,127.917 Z" />
        </g>
    </g>
</svg>