<?xml version="1.0" encoding="UTF-8"?>
<svg height="600" width="800" xmlns="http://www.w3.org/2000/svg" xmlns:xlink="http://www.w3.org/1999/xlink">
    <g id="Notes" font-family="'LucidaGrande', 'Lucida Grande', sans-serif" font-size="13">
        <rect fill="white" height="600.0" width="800.0" x="0.0" y="0.0" />
        <g font-size="13">
            <text x="18.0" y="176.0">Small</text>
            <text x="18.0" y="376.0">Medium</text>
            <text x="18.0" y="576.0">Large</text>
        </g>
        <g font-size="9">
            <text x="250.0" y="30.0">Ultralight</text>
            <text x="450.0" y="30.0">Regular</text>
            <text x="650.0" y="30.0">Black</text>
            <text id="template-version" fill="#505050" text-anchor="end" x="785.0" y="575.0">Template v.3.0</text>
            <a href="https://wangchujiang.com/#/app">
                <text fill="#505050" text-anchor="end" x="785.0" y="590.0">https://wangchujiang.com/#/app</text>
            </a>
        </g>
    </g>
    <g id="Guides" stroke="rgb(39, 170, 225)" stroke-width="0.5">
        <path id="Capline-S" d="M18,76 l800,0" />
        <path id="H-reference" d="M85,145.755 L87.685,145.755 L113.369,79.287 L114.052,79.287 L114.052,76 L112.148,76 L85,145.755 Z M95.693,121.536 L130.996,121.536 L130.263,119.313 L96.474,119.313 L95.693,121.536 Z M139.15,145.755 L141.787,145.755 L114.638,76 L113.466,76 L113.466,79.287 L139.15,145.755 Z" stroke="none" />
        <path id="Baseline-S" d="M18,146 l800,0" />
        <path id="left-margin-Ultralight-S" d="M218.478,56 l0,110" />
        <path id="right-margin-Ultralight-S" d="M311.522,56 l0,110" />
        <path id="left-margin-Regular-S" d="M418.478,56 l0,110" />
        <path id="right-margin-Regular-S" d="M511.522,56 l0,110" />
        <path id="left-margin-Black-S" d="M618.478,56 l0,110" />
        <path id="right-margin-Black-S" d="M711.522,56 l0,110" />
        <path id="Capline-M" d="M18,276 l800,0" />
        <path id="Baseline-M" d="M18,346 l800,0" />
        <path id="Capline-L" d="M18,476 l800,0" />
        <path id="Baseline-L" d="M18,546 l800,0" />
    </g>
    <g id="Symbols">
        <g id="Ultralight-S">
            <path d="M252.826,76 C244.682,76 238.01,82.432 237.627,90.483 C232.256,92.376 228.478,97.511 228.478,103.391 C228.478,108.88 231.732,113.611 236.405,115.794 C245.568,124.565 249.995,137.124 250.93,141.271 C251.558,144.056 253.997,146 256.862,146 L273.138,146 C276.002,146 278.44,144.055 279.07,141.268 C279.979,137.231 284.731,123.836 294.317,115.116 C298.617,112.609 301.522,107.957 301.522,102.63 C301.522,95 295.584,88.735 288.085,88.21 C285.711,82.712 280.272,79.043 274.13,79.043 C270.81,79.043 267.605,80.148 264.997,82.108 C262.173,78.338 257.688,76 252.826,76 Z M252.826,82.087 C256.667,82.087 260.118,84.524 261.413,88.15 C261.793,89.214 262.73,89.982 263.847,90.141 C264.971,90.298 266.081,89.829 266.745,88.914 C268.463,86.546 271.224,85.13 274.13,85.13 C278.311,85.13 281.944,87.963 282.97,92.02 C283.339,93.482 284.731,94.453 286.224,94.302 C291.19,93.808 295.435,97.72 295.435,102.63 C295.435,107.246 291.681,111 287.065,111 C285.48,111 283.927,110.546 282.577,109.686 C281.402,108.935 279.87,109.078 278.856,110.034 C277.152,111.638 274.932,112.522 272.609,112.522 C270.775,112.522 269.006,111.983 267.497,110.958 C266.126,110.03 264.266,110.364 263.309,111.713 C261.592,114.125 258.813,115.565 255.87,115.565 C252.885,115.565 250.081,114.097 248.371,111.636 C247.79,110.799 246.847,110.328 245.871,110.328 C245.518,110.328 245.16,110.391 244.813,110.519 C243.95,110.838 243.061,111 242.174,111 C237.978,111 234.565,107.587 234.565,103.391 C234.565,99.593 237.406,96.354 241.172,95.86 C242.626,95.668 244.042,94.317 243.791,92.439 C243.036,86.833 247.422,82.087 252.826,82.087 Z M281.29,115.877 C282.321,116.329 283.402,116.643 284.506,116.843 C277.614,125.725 274.077,135.839 273.162,139.803 C273.146,139.872 273.089,139.913 273.019,139.913 L256.987,139.931 C256.917,139.931 256.857,139.889 256.841,139.821 C255.996,136.168 252.876,127.104 246.867,118.68 C248.96,120.22 251.422,121.208 254.03,121.527 C255.009,124.018 256.516,128.234 257.451,132.902 C257.74,134.349 259.01,135.348 260.432,135.348 C260.63,135.348 260.83,135.331 261.032,135.288 C262.682,134.96 263.752,133.355 263.422,131.707 C262.588,127.541 261.339,123.743 260.322,120.977 C262.625,120.268 264.743,119.019 266.483,117.325 C267.683,117.853 268.95,118.201 270.249,118.404 C269.2,121.523 267.602,126.604 266.581,131.707 C266.251,133.355 267.32,134.96 268.968,135.288 C269.169,135.329 269.37,135.348 269.568,135.348 C270.99,135.348 272.262,134.347 272.549,132.899 C273.884,126.233 276.367,119.241 276.814,118.005 C278.407,117.546 279.919,116.836 281.29,115.877 Z" />
        </g>
        <g id="Regular-S">
            <path d="M452.826,76 C444.682,76 438.01,82.432 437.627,90.483 C432.256,92.376 428.478,97.511 428.478,103.391 C428.478,108.88 431.732,113.611 436.405,115.794 C445.568,124.565 449.995,137.124 450.93,141.271 C451.558,144.056 453.997,146 456.862,146 L473.138,146 C476.002,146 478.44,144.055 479.07,141.268 C479.979,137.231 484.731,123.836 494.317,115.116 C498.617,112.609 501.522,107.957 501.522,102.63 C501.522,95 495.584,88.735 488.085,88.21 C485.711,82.712 480.272,79.043 474.13,79.043 C470.81,79.043 467.605,80.148 464.997,82.108 C462.173,78.338 457.688,76 452.826,76 Z M452.826,82.087 C456.667,82.087 460.118,84.524 461.413,88.15 C461.793,89.214 462.73,89.982 463.847,90.141 C464.971,90.298 466.081,89.829 466.745,88.914 C468.463,86.546 471.224,85.13 474.13,85.13 C478.311,85.13 481.944,87.963 482.97,92.02 C483.339,93.482 484.731,94.453 486.224,94.302 C491.19,93.808 495.435,97.72 495.435,102.63 C495.435,107.246 491.681,111 487.065,111 C485.48,111 483.927,110.546 482.577,109.686 C481.402,108.935 479.87,109.078 478.856,110.034 C477.152,111.638 474.932,112.522 472.609,112.522 C470.775,112.522 469.006,111.983 467.497,110.958 C466.126,110.03 464.266,110.364 463.309,111.713 C461.592,114.125 458.813,115.565 455.87,115.565 C452.885,115.565 450.081,114.097 448.371,111.636 C447.79,110.799 446.847,110.328 445.871,110.328 C445.518,110.328 445.16,110.391 444.813,110.519 C443.95,110.838 443.061,111 442.174,111 C437.978,111 434.565,107.587 434.565,103.391 C434.565,99.593 437.406,96.354 441.172,95.86 C442.626,95.668 444.042,94.317 443.791,92.439 C443.036,86.833 447.422,82.087 452.826,82.087 Z M481.29,115.877 C482.321,116.329 483.402,116.643 484.506,116.843 C477.614,125.725 474.077,135.839 473.162,139.803 C473.146,139.872 473.089,139.913 473.019,139.913 L456.987,139.931 C456.917,139.931 456.857,139.889 456.841,139.821 C455.996,136.168 452.876,127.104 446.867,118.68 C448.96,120.22 451.422,121.208 454.03,121.527 C455.009,124.018 456.516,128.234 457.451,132.902 C457.74,134.349 459.01,135.348 460.432,135.348 C460.63,135.348 460.83,135.331 461.032,135.288 C462.682,134.96 463.752,133.355 463.422,131.707 C462.588,127.541 461.339,123.743 460.322,120.977 C462.625,120.268 464.743,119.019 466.483,117.325 C467.683,117.853 468.95,118.201 470.249,118.404 C469.2,121.523 467.602,126.604 466.581,131.707 C466.251,133.355 467.32,134.96 468.968,135.288 C469.169,135.329 469.37,135.348 469.568,135.348 C470.99,135.348 472.262,134.347 472.549,132.899 C473.884,126.233 476.367,119.241 476.814,118.005 C478.407,117.546 479.919,116.836 481.29,115.877 Z" />
        </g>
        <g id="Black-S">
            <path d="M652.826,76 C644.682,76 638.01,82.432 637.627,90.483 C632.256,92.376 628.478,97.511 628.478,103.391 C628.478,108.88 631.732,113.611 636.405,115.794 C645.568,124.565 649.995,137.124 650.93,141.271 C651.558,144.056 653.997,146 656.862,146 L673.138,146 C676.002,146 678.44,144.055 679.07,141.268 C679.979,137.231 684.731,123.836 694.317,115.116 C698.617,112.609 701.522,107.957 701.522,102.63 C701.522,95 695.584,88.735 688.085,88.21 C685.711,82.712 680.272,79.043 674.13,79.043 C670.81,79.043 667.605,80.148 664.997,82.108 C662.173,78.338 657.688,76 652.826,76 Z M652.826,82.087 C656.667,82.087 660.118,84.524 661.413,88.15 C661.793,89.214 662.73,89.982 663.847,90.141 C664.971,90.298 666.081,89.829 666.745,88.914 C668.463,86.546 671.224,85.13 674.13,85.13 C678.311,85.13 681.944,87.963 682.97,92.02 C683.339,93.482 684.731,94.453 686.224,94.302 C691.19,93.808 695.435,97.72 695.435,102.63 C695.435,107.246 691.681,111 687.065,111 C685.48,111 683.927,110.546 682.577,109.686 C681.402,108.935 679.87,109.078 678.856,110.034 C677.152,111.638 674.932,112.522 672.609,112.522 C670.775,112.522 669.006,111.983 667.497,110.958 C666.125,110.03 664.266,110.364 663.309,111.713 C661.592,114.125 658.813,115.565 655.87,115.565 C652.885,115.565 650.081,114.097 648.371,111.636 C647.789,110.799 646.847,110.328 645.871,110.328 C645.518,110.328 645.16,110.391 644.813,110.519 C643.95,110.838 643.061,111 642.174,111 C637.978,111 634.565,107.587 634.565,103.391 C634.565,99.593 637.406,96.354 641.172,95.86 C642.626,95.668 644.042,94.317 643.791,92.439 C643.036,86.833 647.422,82.087 652.826,82.087 Z M681.29,115.877 C682.32,116.329 683.402,116.643 684.506,116.843 C677.614,125.725 674.077,135.839 673.161,139.803 C673.146,139.872 673.089,139.913 673.019,139.913 L656.987,139.931 C656.917,139.931 656.857,139.889 656.841,139.821 C655.996,136.168 652.876,127.104 646.867,118.68 C648.96,120.22 651.422,121.208 654.03,121.527 C655.009,124.018 656.516,128.234 657.451,132.902 C657.74,134.349 659.01,135.348 660.432,135.348 C660.63,135.348 660.83,135.331 661.032,135.288 C662.682,134.96 663.752,133.355 663.422,131.707 C662.588,127.541 661.339,123.743 660.322,120.977 C662.625,120.268 664.743,119.019 666.483,117.325 C667.683,117.853 668.95,118.201 670.249,118.404 C669.2,121.523 667.602,126.604 666.581,131.707 C666.251,133.355 667.32,134.96 668.968,135.288 C669.169,135.329 669.37,135.348 669.568,135.348 C670.989,135.348 672.262,134.347 672.549,132.899 C673.884,126.233 676.367,119.241 676.814,118.005 C678.407,117.546 679.919,116.836 681.29,115.877 Z" />
        </g>
    </g>
</svg>