<?xml version="1.0" encoding="UTF-8"?>
<svg height="600" width="800" xmlns="http://www.w3.org/2000/svg" xmlns:xlink="http://www.w3.org/1999/xlink">
    <g id="Notes" font-family="'LucidaGrande', 'Lucida Grande', sans-serif" font-size="13">
        <rect fill="white" height="600.0" width="800.0" x="0.0" y="0.0" />
        <g font-size="13">
            <text x="18.0" y="176.0">Small</text>
            <text x="18.0" y="376.0">Medium</text>
            <text x="18.0" y="576.0">Large</text>
        </g>
        <g font-size="9">
            <text x="250.0" y="30.0">Ultralight</text>
            <text x="450.0" y="30.0">Regular</text>
            <text x="650.0" y="30.0">Black</text>
            <text id="template-version" fill="#505050" text-anchor="end" x="785.0" y="575.0">Template v.3.0</text>
            <a href="https://wangchujiang.com/#/app">
                <text fill="#505050" text-anchor="end" x="785.0" y="590.0">https://wangchujiang.com/#/app</text>
            </a>
        </g>
    </g>
    <g id="Guides" stroke="rgb(39, 170, 225)" stroke-width="0.5">
        <path id="Capline-S" d="M18,76 l800,0" />
        <path id="H-reference" d="M85,145.755 L87.685,145.755 L113.369,79.287 L114.052,79.287 L114.052,76 L112.148,76 L85,145.755 Z M95.693,121.536 L130.996,121.536 L130.263,119.313 L96.474,119.313 L95.693,121.536 Z M139.15,145.755 L141.787,145.755 L114.638,76 L113.466,76 L113.466,79.287 L139.15,145.755 Z" stroke="none" />
        <path id="Baseline-S" d="M18,146 l800,0" />
        <path id="left-margin-Ultralight-S" d="M221,56 l0,110" />
        <path id="right-margin-Ultralight-S" d="M309,56 l0,110" />
        <path id="left-margin-Regular-S" d="M421,56 l0,110" />
        <path id="right-margin-Regular-S" d="M509,56 l0,110" />
        <path id="left-margin-Black-S" d="M621,56 l0,110" />
        <path id="right-margin-Black-S" d="M709,56 l0,110" />
        <path id="Capline-M" d="M18,276 l800,0" />
        <path id="Baseline-M" d="M18,346 l800,0" />
        <path id="Capline-L" d="M18,476 l800,0" />
        <path id="Baseline-L" d="M18,546 l800,0" />
    </g>
    <g id="Symbols">
        <g id="Ultralight-S">
            <path d="M265,76 C264.728,76 264.455,76.127 264.283,76.382 C262.861,78.499 259.815,83.387 259.815,86.368 C259.815,89.232 262.136,91.554 265,91.554 C267.864,91.554 270.185,89.232 270.185,86.368 C270.185,83.387 267.137,78.499 265.714,76.382 C265.543,76.127 265.272,76 265,76 Z M258.518,94.146 C257.087,94.146 255.926,95.308 255.926,96.739 L255.926,112.295 L246.851,112.295 C241.133,112.295 236.48,116.948 236.48,122.666 L236.48,139.518 C236.48,143.092 239.388,146 242.962,146 L287.038,146 C290.612,146 293.52,143.092 293.52,139.518 L293.52,123.046 C293.52,117.117 288.697,112.295 282.769,112.295 L274.074,112.295 L274.074,96.739 C274.074,95.308 272.913,94.146 271.482,94.146 L258.518,94.146 Z M261.111,99.332 L268.889,99.332 L268.889,112.295 L261.111,112.295 L261.111,99.332 Z M246.851,117.48 L282.769,117.48 C285.837,117.48 288.334,119.977 288.334,123.046 L288.334,123.962 L241.666,123.962 L241.666,122.666 C241.666,119.806 243.991,117.48 246.851,117.48 Z M241.666,129.148 L288.334,129.148 L288.334,139.518 C288.334,140.233 287.753,140.815 287.038,140.815 L242.962,140.815 C242.247,140.815 241.666,140.233 241.666,139.518 L241.666,129.148 Z" />
        </g>
        <g id="Regular-S">
            <path d="M465,76 C464.728,76 464.455,76.127 464.283,76.382 C462.861,78.499 459.815,83.387 459.815,86.368 C459.815,89.232 462.136,91.554 465,91.554 C467.864,91.554 470.185,89.232 470.185,86.368 C470.185,83.387 467.137,78.499 465.714,76.382 C465.543,76.127 465.272,76 465,76 Z M458.518,94.146 C457.087,94.146 455.926,95.308 455.926,96.739 L455.926,112.295 L446.851,112.295 C441.133,112.295 436.48,116.948 436.48,122.666 L436.48,139.518 C436.48,143.092 439.388,146 442.962,146 L487.038,146 C490.612,146 493.52,143.092 493.52,139.518 L493.52,123.046 C493.52,117.117 488.697,112.295 482.769,112.295 L474.074,112.295 L474.074,96.739 C474.074,95.308 472.913,94.146 471.482,94.146 L458.518,94.146 Z M461.111,99.332 L468.889,99.332 L468.889,112.295 L461.111,112.295 L461.111,99.332 Z M446.851,117.48 L482.769,117.48 C485.837,117.48 488.334,119.977 488.334,123.046 L488.334,123.962 L441.666,123.962 L441.666,122.666 C441.666,119.806 443.991,117.48 446.851,117.48 Z M441.666,129.148 L488.334,129.148 L488.334,139.518 C488.334,140.233 487.753,140.815 487.038,140.815 L442.962,140.815 C442.247,140.815 441.666,140.233 441.666,139.518 L441.666,129.148 Z" />
        </g>
        <g id="Black-S">
            <path d="M665,76 C664.728,76 664.455,76.127 664.283,76.382 C662.861,78.499 659.815,83.387 659.815,86.368 C659.815,89.232 662.136,91.554 665,91.554 C667.864,91.554 670.185,89.232 670.185,86.368 C670.185,83.387 667.137,78.499 665.714,76.382 C665.543,76.127 665.272,76 665,76 Z M658.518,94.146 C657.087,94.146 655.926,95.308 655.926,96.739 L655.926,112.295 L646.851,112.295 C641.133,112.295 636.48,116.948 636.48,122.666 L636.48,139.518 C636.48,143.092 639.388,146 642.962,146 L687.038,146 C690.612,146 693.52,143.092 693.52,139.518 L693.52,123.046 C693.52,117.117 688.697,112.295 682.769,112.295 L674.074,112.295 L674.074,96.739 C674.074,95.308 672.913,94.146 671.482,94.146 L658.518,94.146 Z M661.111,99.332 L668.889,99.332 L668.889,112.295 L661.111,112.295 L661.111,99.332 Z M646.851,117.48 L682.769,117.48 C685.837,117.48 688.334,119.977 688.334,123.046 L688.334,123.962 L641.666,123.962 L641.666,122.666 C641.666,119.806 643.991,117.48 646.851,117.48 Z M641.666,129.148 L688.334,129.148 L688.334,139.518 C688.334,140.233 687.753,140.815 687.038,140.815 L642.962,140.815 C642.247,140.815 641.666,140.233 641.666,139.518 L641.666,129.148 Z" />
        </g>
    </g>
</svg>