<?xml version="1.0" encoding="UTF-8"?>
<svg height="600" width="800" xmlns="http://www.w3.org/2000/svg" xmlns:xlink="http://www.w3.org/1999/xlink">
    <g id="Notes" font-family="'LucidaGrande', 'Lucida Grande', sans-serif" font-size="13">
        <rect fill="white" height="600.0" width="800.0" x="0.0" y="0.0" />
        <g font-size="13">
            <text x="18.0" y="176.0">Small</text>
            <text x="18.0" y="376.0">Medium</text>
            <text x="18.0" y="576.0">Large</text>
        </g>
        <g font-size="9">
            <text x="250.0" y="30.0">Ultralight</text>
            <text x="450.0" y="30.0">Regular</text>
            <text x="650.0" y="30.0">Black</text>
            <text id="template-version" fill="#505050" text-anchor="end" x="785.0" y="575.0">Template v.3.0</text>
            <a href="https://wangchujiang.com/#/app">
                <text fill="#505050" text-anchor="end" x="785.0" y="590.0">https://wangchujiang.com/#/app</text>
            </a>
        </g>
    </g>
    <g id="Guides" stroke="rgb(39, 170, 225)" stroke-width="0.5">
        <path id="Capline-S" d="M18,76 l800,0" />
        <path id="H-reference" d="M85,145.755 L87.685,145.755 L113.369,79.287 L114.052,79.287 L114.052,76 L112.148,76 L85,145.755 Z M95.693,121.536 L130.996,121.536 L130.263,119.313 L96.474,119.313 L95.693,121.536 Z M139.15,145.755 L141.787,145.755 L114.638,76 L113.466,76 L113.466,79.287 L139.15,145.755 Z" stroke="none" />
        <path id="Baseline-S" d="M18,146 l800,0" />
        <path id="left-margin-Ultralight-S" d="M221,56 l0,110" />
        <path id="right-margin-Ultralight-S" d="M309,56 l0,110" />
        <path id="left-margin-Regular-S" d="M421,56 l0,110" />
        <path id="right-margin-Regular-S" d="M509,56 l0,110" />
        <path id="left-margin-Black-S" d="M621,56 l0,110" />
        <path id="right-margin-Black-S" d="M709,56 l0,110" />
        <path id="Capline-M" d="M18,276 l800,0" />
        <path id="Baseline-M" d="M18,346 l800,0" />
        <path id="Capline-L" d="M18,476 l800,0" />
        <path id="Baseline-L" d="M18,546 l800,0" />
    </g>
    <g id="Symbols">
        <g id="Ultralight-S">
            <path d="M293.512,76.007 C292.07,76.102 290.836,77.189 290.626,78.68 C289.912,83.788 287.56,86.421 286.117,87.604 C279.854,82.582 263.003,72.275 249.948,85.621 C249.489,86.09 248.686,87.186 248.64,89.127 C248.624,89.855 248.732,90.648 248.941,91.496 C227.697,114.008 230.361,129.001 233.93,136.024 C232.732,138.056 233.056,140.778 234.884,142.607 C236.709,144.431 239.422,144.755 241.452,143.567 C243.958,144.841 247.476,146 251.994,146 C260.129,146 271.494,142.219 285.952,128.595 C286.784,128.81 287.565,128.93 288.282,128.93 C289.493,128.93 291.001,128.602 292.012,127.555 C305.016,114.087 295.256,98.293 290.422,92.083 C292.786,90.014 295.869,86.156 296.792,79.543 C297.031,77.84 295.844,76.266 294.141,76.028 C293.929,76 293.717,75.993 293.512,76.007 Z M265.702,85.269 C275.029,85.544 283.621,93.668 283.727,93.767 C283.887,93.931 299.414,109.995 288.041,122.684 C286.782,122.533 281.598,121.084 269.04,108.527 C256.393,95.879 255.015,90.714 254.88,89.504 C258.291,86.257 262.052,85.161 265.702,85.269 Z M251.769,97.599 C254.401,101.849 258.657,106.949 264.637,112.93 C270.573,118.866 275.644,123.106 279.877,125.743 C254.967,148.2 242.766,137.416 241.422,136.072 C240.078,134.726 229.291,122.523 251.769,97.599 Z" />
        </g>
        <g id="Regular-S">
            <path d="M493.512,76.007 C492.07,76.102 490.836,77.189 490.626,78.68 C489.912,83.788 487.56,86.421 486.117,87.604 C479.854,82.582 463.003,72.275 449.948,85.621 C449.489,86.09 448.686,87.186 448.64,89.127 C448.624,89.855 448.732,90.648 448.941,91.496 C427.697,114.008 430.361,129.001 433.93,136.024 C432.732,138.056 433.056,140.778 434.884,142.607 C436.709,144.431 439.422,144.755 441.452,143.567 C443.958,144.841 447.476,146 451.994,146 C460.129,146 471.494,142.219 485.952,128.595 C486.784,128.81 487.565,128.93 488.282,128.93 C489.493,128.93 491.001,128.602 492.012,127.555 C505.015,114.087 495.256,98.293 490.422,92.083 C492.786,90.014 495.869,86.156 496.792,79.543 C497.031,77.84 495.844,76.266 494.141,76.028 C493.929,76 493.717,75.993 493.512,76.007 Z M465.702,85.269 C475.029,85.544 483.621,93.668 483.727,93.767 C483.887,93.931 499.414,109.995 488.041,122.684 C486.782,122.533 481.598,121.084 469.04,108.527 C456.393,95.879 455.015,90.714 454.88,89.504 C458.291,86.257 462.052,85.161 465.702,85.269 Z M451.769,97.599 C454.401,101.849 458.657,106.949 464.637,112.93 C470.573,118.866 475.644,123.106 479.877,125.743 C454.967,148.2 442.766,137.416 441.422,136.072 C440.077,134.726 429.291,122.523 451.769,97.599 Z" />
        </g>
        <g id="Black-S">
            <path d="M693.512,76.007 C692.07,76.102 690.836,77.189 690.626,78.68 C689.912,83.788 687.56,86.421 686.117,87.604 C679.854,82.582 663.003,72.275 649.948,85.621 C649.489,86.09 648.686,87.186 648.64,89.127 C648.624,89.855 648.732,90.648 648.941,91.496 C627.697,114.008 630.361,129.001 633.93,136.024 C632.732,138.056 633.056,140.778 634.884,142.607 C636.709,144.431 639.422,144.755 641.452,143.567 C643.958,144.841 647.476,146 651.994,146 C660.129,146 671.494,142.219 685.952,128.595 C686.784,128.81 687.565,128.93 688.282,128.93 C689.493,128.93 691.001,128.602 692.012,127.555 C705.016,114.087 695.256,98.293 690.422,92.083 C692.786,90.014 695.869,86.156 696.792,79.543 C697.031,77.84 695.844,76.266 694.141,76.028 C693.929,76 693.717,75.993 693.512,76.007 Z M665.702,85.269 C675.029,85.544 683.621,93.668 683.727,93.767 C683.887,93.931 699.414,109.995 688.041,122.684 C686.782,122.533 681.598,121.084 669.04,108.527 C656.393,95.879 655.015,90.714 654.88,89.504 C658.291,86.257 662.052,85.161 665.702,85.269 Z M651.769,97.599 C654.401,101.849 658.657,106.949 664.637,112.93 C670.573,118.866 675.644,123.106 679.877,125.743 C654.967,148.2 642.766,137.416 641.422,136.072 C640.078,134.726 629.291,122.523 651.769,97.599 Z" />
        </g>
    </g>
</svg>