<?xml version="1.0" encoding="UTF-8"?>
<svg height="600" width="800" xmlns="http://www.w3.org/2000/svg" xmlns:xlink="http://www.w3.org/1999/xlink">
    <g id="Notes" font-family="'LucidaGrande', 'Lucida Grande', sans-serif" font-size="13">
        <rect fill="white" height="600.0" width="800.0" x="0.0" y="0.0" />
        <g font-size="13">
            <text x="18.0" y="176.0">Small</text>
            <text x="18.0" y="376.0">Medium</text>
            <text x="18.0" y="576.0">Large</text>
        </g>
        <g font-size="9">
            <text x="250.0" y="30.0">Ultralight</text>
            <text x="450.0" y="30.0">Regular</text>
            <text x="650.0" y="30.0">Black</text>
            <text id="template-version" fill="#505050" text-anchor="end" x="785.0" y="575.0">Template v.3.0</text>
            <a href="https://wangchujiang.com/#/app">
                <text fill="#505050" text-anchor="end" x="785.0" y="590.0">https://wangchujiang.com/#/app</text>
            </a>
        </g>
    </g>
    <g id="Guides" stroke="rgb(39, 170, 225)" stroke-width="0.5">
        <path id="Capline-S" d="M18,76 l800,0" />
        <path id="H-reference" d="M85,145.755 L87.685,145.755 L113.369,79.287 L114.052,79.287 L114.052,76 L112.148,76 L85,145.755 Z M95.693,121.536 L130.996,121.536 L130.263,119.313 L96.474,119.313 L95.693,121.536 Z M139.15,145.755 L141.787,145.755 L114.638,76 L113.466,76 L113.466,79.287 L139.15,145.755 Z" stroke="none" />
        <path id="Baseline-S" d="M18,146 l800,0" />
        <path id="left-margin-Ultralight-S" d="M221,56 l0,110" />
        <path id="right-margin-Ultralight-S" d="M309,56 l0,110" />
        <path id="left-margin-Regular-S" d="M421,56 l0,110" />
        <path id="right-margin-Regular-S" d="M509,56 l0,110" />
        <path id="left-margin-Black-S" d="M621,56 l0,110" />
        <path id="right-margin-Black-S" d="M709,56 l0,110" />
        <path id="Capline-M" d="M18,276 l800,0" />
        <path id="Baseline-M" d="M18,346 l800,0" />
        <path id="Capline-L" d="M18,476 l800,0" />
        <path id="Baseline-L" d="M18,546 l800,0" />
    </g>
    <g id="Symbols">
        <g id="Ultralight-S">
            <path d="M269.852,110.496 C268.068,109.801 266.716,108.281 265.948,106.099 C264.61,102.301 265.278,97.015 267.616,92.946 C273.022,83.531 280.838,84.493 281.164,84.542 C281.543,84.594 281.904,84.736 282.217,84.956 C282.785,85.353 287.667,89.156 284.378,100.193 C283.032,104.711 280.246,108.569 276.73,110.096 C274.627,111.009 271.913,111.3 269.852,110.496 Z M279.748,89.336 C278.199,89.466 274.676,90.345 271.802,95.35 C269.876,98.705 269.777,102.441 270.501,104.493 C270.779,105.284 271.182,105.832 271.604,105.997 C272.535,106.362 273.544,106.28 274.607,105.758 C276.793,104.689 278.81,101.963 279.749,98.813 C281.455,93.091 280.39,90.351 279.748,89.336 Z" />
            <path d="M250.429,136.694 C248.254,135.907 246.581,134.333 245.592,132.142 C243.836,128.252 244.252,122.216 246.705,115.997 C250.379,106.685 259.435,106.263 259.819,106.25 C260.36,106.241 260.932,106.406 261.375,106.749 C261.672,106.977 268.612,112.463 265.786,122.627 C264.391,127.647 261.376,134.062 256.704,136.206 C254.182,137.362 251.266,136.997 250.429,136.694 Z M259.076,111.195 C257.23,111.542 253.133,112.855 251.196,117.767 C249.271,122.647 249.213,127.359 249.993,130.154 C250.599,132.323 252.456,133.015 254.491,131.914 C257.672,130.193 259.747,126.328 261.137,121.332 C262.639,115.926 260.285,112.515 259.076,111.195 Z" />
            <path d="M294.948,90.089 C295.721,95.215 294.582,100.748 291.742,105.669 C289.482,109.582 286.36,112.76 282.71,114.858 C279.155,116.854 276.599,120.256 275.677,124.201 C274.956,127.099 273.853,129.845 272.389,132.393 C268.642,138.915 262.752,143.314 256.484,145.337 C251.47,146.956 245.827,145.277 243.381,143.856 C234.116,138.479 232.044,124.594 238.758,112.901 C241.884,107.459 246.478,103.228 251.695,100.991 C251.698,100.989 251.702,100.988 251.706,100.986 C255.051,99.57 257.58,96.765 258.643,93.292 C259.205,91.425 259.999,89.589 260.998,87.848 C264.225,82.23 269.288,78.142 274.891,76.632 C279.213,75.466 285.381,76.42 287.96,78.565 L289.818,76.707 C290.76,75.764 292.289,75.764 293.231,76.707 C294.174,77.65 294.174,79.178 293.231,80.12 L291.505,81.846 C293.275,84.112 294.467,86.906 294.948,90.089 Z M287.56,103.256 C289.856,99.279 290.785,94.858 290.174,90.811 C289.592,86.951 287.656,83.896 284.724,82.206 C282.232,80.767 279.261,80.454 276.147,81.294 C271.773,82.473 267.778,85.738 265.185,90.252 C264.368,91.674 263.722,93.168 263.263,94.695 C261.778,99.546 258.256,103.454 253.595,105.43 C249.335,107.26 245.552,110.766 242.945,115.307 C237.55,124.7 238.833,135.634 245.803,139.68 C248.519,141.256 251.779,141.599 255.234,140.673 C260.365,139.298 265.09,135.405 268.2,129.989 C269.441,127.828 270.378,125.501 270.983,123.07 C272.204,117.842 275.611,113.307 280.322,110.661 C283.216,108.998 285.725,106.433 287.56,103.256 Z" />
        </g>
        <g id="Regular-S">
            <path d="M469.852,110.496 C468.068,109.801 466.716,108.281 465.948,106.099 C464.61,102.301 465.278,97.015 467.616,92.946 C473.022,83.531 480.838,84.493 481.164,84.542 C481.543,84.594 481.904,84.736 482.217,84.956 C482.785,85.353 487.667,89.156 484.378,100.193 C483.032,104.711 480.246,108.569 476.73,110.096 C474.626,111.009 471.913,111.3 469.852,110.496 Z M479.748,89.336 C478.199,89.466 474.676,90.345 471.802,95.35 C469.876,98.705 469.777,102.441 470.501,104.493 C470.779,105.284 471.182,105.832 471.604,105.997 C472.535,106.362 473.544,106.28 474.607,105.758 C476.793,104.689 478.81,101.963 479.749,98.813 C481.454,93.091 480.39,90.351 479.748,89.336 Z" />
            <path d="M450.429,136.694 C448.254,135.907 446.581,134.333 445.592,132.142 C443.836,128.252 444.252,122.216 446.705,115.997 C450.379,106.685 459.435,106.263 459.819,106.25 C460.36,106.241 460.932,106.406 461.375,106.749 C461.672,106.977 468.612,112.463 465.786,122.627 C464.391,127.647 461.376,134.062 456.704,136.206 C454.182,137.362 451.266,136.997 450.429,136.694 Z M459.076,111.195 C457.23,111.542 453.133,112.855 451.196,117.767 C449.271,122.647 449.213,127.359 449.993,130.154 C450.599,132.323 452.456,133.015 454.491,131.914 C457.672,130.193 459.747,126.328 461.137,121.332 C462.639,115.926 460.285,112.515 459.076,111.195 Z" />
            <path d="M494.948,90.089 C495.721,95.215 494.582,100.748 491.742,105.669 C489.482,109.582 486.36,112.76 482.71,114.858 C479.155,116.854 476.599,120.256 475.677,124.201 C474.956,127.099 473.853,129.845 472.389,132.393 C468.642,138.915 462.752,143.314 456.484,145.337 C451.47,146.956 445.827,145.277 443.381,143.856 C434.116,138.479 432.044,124.594 438.758,112.901 C441.884,107.459 446.478,103.228 451.695,100.991 C451.698,100.989 451.702,100.988 451.706,100.986 C455.051,99.57 457.58,96.765 458.643,93.292 C459.205,91.425 459.999,89.589 460.998,87.848 C464.225,82.23 469.288,78.142 474.891,76.632 C479.213,75.466 485.381,76.42 487.96,78.565 L489.818,76.707 C490.76,75.764 492.289,75.764 493.231,76.707 C494.174,77.65 494.174,79.178 493.231,80.12 L491.505,81.846 C493.275,84.112 494.467,86.906 494.948,90.089 Z M487.56,103.256 C489.856,99.279 490.785,94.858 490.174,90.811 C489.592,86.951 487.656,83.896 484.724,82.206 C482.232,80.767 479.261,80.454 476.147,81.294 C471.773,82.473 467.778,85.738 465.185,90.252 C464.368,91.674 463.722,93.168 463.263,94.695 C461.778,99.546 458.256,103.454 453.595,105.43 C449.335,107.26 445.552,110.766 442.945,115.307 C437.55,124.7 438.833,135.634 445.803,139.68 C448.519,141.256 451.779,141.599 455.234,140.673 C460.365,139.298 465.09,135.405 468.2,129.989 C469.441,127.828 470.378,125.501 470.983,123.07 C472.204,117.842 475.611,113.307 480.322,110.661 C483.216,108.998 485.725,106.433 487.56,103.256 Z" />
        </g>
        <g id="Black-S">
            <path d="M669.852,110.496 C668.068,109.801 666.716,108.281 665.948,106.099 C664.61,102.301 665.278,97.015 667.616,92.946 C673.022,83.531 680.838,84.493 681.164,84.542 C681.543,84.594 681.904,84.736 682.217,84.956 C682.785,85.353 687.667,89.156 684.378,100.193 C683.032,104.711 680.246,108.569 676.73,110.096 C674.626,111.009 671.913,111.3 669.852,110.496 Z M679.748,89.336 C678.199,89.466 674.676,90.345 671.802,95.35 C669.876,98.705 669.777,102.441 670.501,104.493 C670.779,105.284 671.182,105.832 671.604,105.997 C672.535,106.362 673.544,106.28 674.607,105.758 C676.793,104.689 678.81,101.963 679.749,98.813 C681.455,93.091 680.39,90.351 679.748,89.336 Z" />
            <path d="M650.429,136.694 C648.254,135.907 646.581,134.333 645.592,132.142 C643.836,128.252 644.252,122.216 646.705,115.997 C650.379,106.685 659.435,106.263 659.819,106.25 C660.36,106.241 660.932,106.406 661.375,106.749 C661.672,106.977 668.612,112.463 665.786,122.627 C664.391,127.647 661.376,134.062 656.704,136.206 C654.182,137.362 651.266,136.997 650.429,136.694 Z M659.076,111.195 C657.23,111.542 653.133,112.855 651.196,117.767 C649.271,122.647 649.213,127.359 649.993,130.154 C650.599,132.323 652.456,133.015 654.491,131.914 C657.672,130.193 659.747,126.328 661.137,121.332 C662.639,115.926 660.285,112.515 659.076,111.195 Z" />
            <path d="M694.948,90.089 C695.721,95.215 694.582,100.748 691.742,105.669 C689.482,109.582 686.36,112.76 682.71,114.858 C679.155,116.854 676.599,120.256 675.677,124.201 C674.956,127.099 673.853,129.845 672.389,132.393 C668.642,138.915 662.752,143.314 656.484,145.337 C651.47,146.956 645.827,145.277 643.381,143.856 C634.116,138.479 632.044,124.594 638.758,112.901 C641.884,107.459 646.478,103.228 651.695,100.991 C651.698,100.989 651.702,100.988 651.706,100.986 C655.051,99.57 657.58,96.765 658.643,93.292 C659.205,91.425 659.999,89.589 660.998,87.848 C664.225,82.23 669.288,78.142 674.891,76.632 C679.213,75.466 685.381,76.42 687.96,78.565 L689.818,76.707 C690.76,75.764 692.289,75.764 693.231,76.707 C694.174,77.65 694.174,79.178 693.231,80.12 L691.505,81.846 C693.275,84.112 694.467,86.906 694.948,90.089 Z M687.56,103.256 C689.856,99.279 690.785,94.858 690.174,90.811 C689.592,86.951 687.656,83.896 684.724,82.206 C682.232,80.767 679.261,80.454 676.147,81.294 C671.773,82.473 667.778,85.738 665.185,90.252 C664.368,91.674 663.722,93.168 663.263,94.695 C661.778,99.546 658.256,103.454 653.594,105.43 C649.335,107.26 645.552,110.766 642.945,115.307 C637.55,124.7 638.833,135.634 645.803,139.68 C648.519,141.256 651.779,141.599 655.234,140.673 C660.365,139.298 665.09,135.405 668.2,129.989 C669.441,127.828 670.378,125.501 670.983,123.07 C672.204,117.842 675.611,113.307 680.322,110.661 C683.216,108.998 685.725,106.433 687.56,103.256 Z" />
        </g>
    </g>
</svg>