<?xml version="1.0" encoding="UTF-8"?>
<svg height="600" width="800" xmlns="http://www.w3.org/2000/svg" xmlns:xlink="http://www.w3.org/1999/xlink">
    <g id="Notes" font-family="'LucidaGrande', 'Lucida Grande', sans-serif" font-size="13">
        <rect fill="white" height="600.0" width="800.0" x="0.0" y="0.0" />
        <g font-size="13">
            <text x="18.0" y="176.0">Small</text>
            <text x="18.0" y="376.0">Medium</text>
            <text x="18.0" y="576.0">Large</text>
        </g>
        <g font-size="9">
            <text x="250.0" y="30.0">Ultralight</text>
            <text x="450.0" y="30.0">Regular</text>
            <text x="650.0" y="30.0">Black</text>
            <text id="template-version" fill="#505050" text-anchor="end" x="785.0" y="575.0">Template v.3.0</text>
            <a href="https://wangchujiang.com/#/app">
                <text fill="#505050" text-anchor="end" x="785.0" y="590.0">https://wangchujiang.com/#/app</text>
            </a>
        </g>
    </g>
    <g id="Guides" stroke="rgb(39, 170, 225)" stroke-width="0.5">
        <path id="Capline-S" d="M18,76 l800,0" />
        <path id="H-reference" d="M85,145.755 L87.685,145.755 L113.369,79.287 L114.052,79.287 L114.052,76 L112.148,76 L85,145.755 Z M95.693,121.536 L130.996,121.536 L130.263,119.313 L96.474,119.313 L95.693,121.536 Z M139.15,145.755 L141.787,145.755 L114.638,76 L113.466,76 L113.466,79.287 L139.15,145.755 Z" stroke="none" />
        <path id="Baseline-S" d="M18,146 l800,0" />
        <path id="left-margin-Ultralight-S" d="M219.999,56 l0,110" />
        <path id="right-margin-Ultralight-S" d="M310.001,56 l0,110" />
        <path id="left-margin-Regular-S" d="M419.999,56 l0,110" />
        <path id="right-margin-Regular-S" d="M510.001,56 l0,110" />
        <path id="left-margin-Black-S" d="M619.999,56 l0,110" />
        <path id="right-margin-Black-S" d="M710.001,56 l0,110" />
        <path id="Capline-M" d="M18,276 l800,0" />
        <path id="Baseline-M" d="M18,346 l800,0" />
        <path id="Capline-L" d="M18,476 l800,0" />
        <path id="Baseline-L" d="M18,546 l800,0" />
    </g>
    <g id="Symbols">
        <g id="Ultralight-S">
            <path d="M279.031,76 C278.094,76 277.045,76.564 276.542,77.468 C276.428,77.673 274.297,81.61 272.889,87.358 C264.508,80.53 254.35,76.34 242.852,87.839 C237.075,93.616 232.554,104.219 230.757,116.199 C230.085,120.674 228.358,135.738 234.31,141.69 C237.743,145.123 244.207,146 249.923,146 C254.116,146 277.323,143.988 288.162,133.149 C299.66,121.651 295.469,111.495 288.643,103.115 C294.391,101.707 298.329,99.573 298.535,99.458 C299.438,98.956 300.001,98.006 300.001,96.973 C300.001,95.938 299.441,94.984 298.538,94.481 C298.4,94.406 295.812,92.978 291.785,91.684 C293.719,87.922 294.539,85.089 294.582,84.939 C294.864,83.945 294.588,82.875 293.856,82.145 C293.126,81.414 292.053,81.134 291.062,81.419 C290.912,81.46 288.08,82.283 284.316,84.216 C283.024,80.189 281.595,77.599 281.519,77.463 C281.017,76.56 280.091,76 279.031,76 Z M257.53,86.296 C263.112,86.296 268.916,90.881 277.018,98.983 C290.155,112.121 294.047,119.212 284.136,129.123 C279.263,133.996 269.616,138.015 258.959,139.613 C248.299,141.211 240.515,139.842 238.337,137.664 C233.284,132.612 234.333,104.41 246.878,91.865 C250.676,88.066 254.059,86.296 257.53,86.296 Z M251.674,99.3 C250.533,99.371 249.241,99.956 248.546,100.651 C247.434,101.763 247.434,103.565 248.546,104.677 C249.658,105.789 251.46,105.789 252.572,104.677 C253.684,103.565 254.518,100.929 253.406,99.817 C252.989,99.4 252.359,99.258 251.674,99.3 Z M263.063,110.689 C261.921,110.759 260.63,111.345 259.935,112.04 C258.823,113.152 258.823,114.954 259.935,116.066 C261.047,117.178 262.849,117.178 263.961,116.066 C265.073,114.954 265.907,112.318 264.795,111.206 C264.378,110.789 263.748,110.646 263.063,110.689 Z M250.251,112.112 C249.109,112.183 247.818,112.769 247.123,113.463 C246.011,114.575 246.011,116.378 247.123,117.49 C248.234,118.601 250.037,118.601 251.149,117.49 C252.261,116.378 253.095,113.741 251.983,112.629 C251.566,112.212 250.936,112.07 250.251,112.112 Z M274.451,122.077 C273.31,122.148 272.018,122.734 271.323,123.428 C270.212,124.54 270.212,126.343 271.323,127.455 C272.435,128.566 274.238,128.566 275.35,127.455 C276.461,126.343 277.295,123.706 276.184,122.594 C275.767,122.177 275.136,122.035 274.451,122.077 Z M261.639,123.501 C260.498,123.571 259.206,124.157 258.511,124.852 C257.399,125.964 257.399,127.766 258.511,128.878 C259.623,129.99 261.426,129.99 262.537,128.878 C263.649,127.766 264.483,125.13 263.371,124.018 C262.955,123.601 262.324,123.458 261.639,123.501 Z M248.827,124.924 C247.685,124.995 246.394,125.581 245.699,126.276 C244.587,127.387 244.587,129.19 245.699,130.302 C246.811,131.414 248.613,131.414 249.725,130.302 C250.837,129.19 251.671,126.553 250.559,125.442 C250.142,125.025 249.512,124.882 248.827,124.924 Z" />
        </g>
        <g id="Regular-S">
            <path d="M479.031,76 C478.094,76 477.045,76.564 476.542,77.468 C476.428,77.673 474.297,81.61 472.889,87.358 C464.508,80.53 454.35,76.34 442.852,87.839 C437.075,93.616 432.554,104.219 430.757,116.199 C430.085,120.674 428.358,135.738 434.31,141.69 C437.743,145.123 444.207,146 449.923,146 C454.116,146 477.323,143.988 488.162,133.149 C499.66,121.651 495.469,111.495 488.643,103.115 C494.391,101.707 498.329,99.573 498.535,99.458 C499.438,98.956 500.001,98.006 500.001,96.973 C500.001,95.938 499.441,94.984 498.538,94.481 C498.4,94.406 495.812,92.978 491.785,91.684 C493.719,87.922 494.539,85.089 494.582,84.939 C494.864,83.945 494.588,82.875 493.856,82.145 C493.126,81.414 492.053,81.134 491.062,81.419 C490.912,81.46 488.08,82.283 484.316,84.216 C483.024,80.189 481.595,77.599 481.519,77.463 C481.017,76.56 480.091,76 479.031,76 Z M457.53,86.296 C463.112,86.296 468.916,90.881 477.018,98.983 C490.155,112.121 494.047,119.212 484.136,129.123 C479.263,133.996 469.616,138.015 458.959,139.613 C448.299,141.211 440.515,139.842 438.336,137.664 C433.284,132.612 434.333,104.41 446.878,91.865 C450.676,88.066 454.059,86.296 457.53,86.296 Z M451.674,99.3 C450.533,99.371 449.241,99.956 448.546,100.651 C447.434,101.763 447.434,103.565 448.546,104.677 C449.658,105.789 451.46,105.789 452.572,104.677 C453.684,103.565 454.518,100.929 453.406,99.817 C452.989,99.4 452.359,99.258 451.674,99.3 Z M463.063,110.689 C461.921,110.759 460.63,111.345 459.935,112.04 C458.823,113.152 458.823,114.954 459.935,116.066 C461.047,117.178 462.849,117.178 463.961,116.066 C465.073,114.954 465.907,112.318 464.795,111.206 C464.378,110.789 463.748,110.646 463.063,110.689 Z M450.251,112.112 C449.109,112.183 447.818,112.769 447.123,113.463 C446.011,114.575 446.011,116.378 447.123,117.49 C448.234,118.601 450.037,118.601 451.149,117.49 C452.26,116.378 453.095,113.741 451.983,112.629 C451.566,112.212 450.936,112.07 450.251,112.112 Z M474.451,122.077 C473.31,122.148 472.018,122.734 471.323,123.428 C470.212,124.54 470.212,126.343 471.323,127.455 C472.435,128.566 474.238,128.566 475.35,127.455 C476.461,126.343 477.295,123.706 476.184,122.594 C475.767,122.177 475.136,122.035 474.451,122.077 Z M461.639,123.501 C460.498,123.571 459.206,124.157 458.511,124.852 C457.399,125.964 457.399,127.766 458.511,128.878 C459.623,129.99 461.426,129.99 462.537,128.878 C463.649,127.766 464.483,125.13 463.371,124.018 C462.955,123.601 462.324,123.458 461.639,123.501 Z M448.827,124.924 C447.685,124.995 446.394,125.581 445.699,126.276 C444.587,127.387 444.587,129.19 445.699,130.302 C446.811,131.414 448.613,131.414 449.725,130.302 C450.837,129.19 451.671,126.553 450.559,125.442 C450.142,125.025 449.512,124.882 448.827,124.924 Z" />
        </g>
        <g id="Black-S">
            <path d="M679.031,76 C678.094,76 677.045,76.564 676.542,77.468 C676.428,77.673 674.297,81.61 672.889,87.358 C664.508,80.53 654.35,76.34 642.852,87.839 C637.075,93.616 632.554,104.219 630.757,116.199 C630.085,120.674 628.358,135.738 634.31,141.69 C637.743,145.123 644.207,146 649.923,146 C654.116,146 677.323,143.988 688.162,133.149 C699.66,121.651 695.469,111.495 688.643,103.115 C694.391,101.707 698.329,99.573 698.536,99.458 C699.438,98.956 700.001,98.006 700.001,96.973 C700.001,95.938 699.441,94.984 698.538,94.481 C698.4,94.406 695.812,92.978 691.785,91.684 C693.719,87.922 694.539,85.089 694.582,84.939 C694.864,83.945 694.588,82.875 693.856,82.145 C693.126,81.414 692.052,81.134 691.062,81.419 C690.912,81.46 688.08,82.283 684.316,84.216 C683.024,80.189 681.595,77.599 681.519,77.463 C681.017,76.56 680.091,76 679.031,76 Z M657.53,86.296 C663.112,86.296 668.916,90.881 677.018,98.983 C690.155,112.121 694.047,119.212 684.136,129.123 C679.263,133.996 669.616,138.015 658.959,139.613 C648.299,141.211 640.515,139.842 638.336,137.664 C633.284,132.612 634.333,104.41 646.878,91.865 C650.676,88.066 654.059,86.296 657.53,86.296 Z M651.674,99.3 C650.533,99.371 649.241,99.956 648.546,100.651 C647.434,101.763 647.434,103.565 648.546,104.677 C649.658,105.789 651.46,105.789 652.572,104.677 C653.684,103.565 654.518,100.929 653.406,99.817 C652.99,99.4 652.359,99.258 651.674,99.3 Z M663.063,110.689 C661.921,110.759 660.63,111.345 659.935,112.04 C658.823,113.152 658.823,114.954 659.935,116.066 C661.047,117.178 662.849,117.178 663.961,116.066 C665.073,114.954 665.907,112.318 664.795,111.206 C664.378,110.789 663.748,110.646 663.063,110.689 Z M650.251,112.112 C649.109,112.183 647.818,112.769 647.123,113.463 C646.011,114.575 646.011,116.378 647.123,117.49 C648.234,118.601 650.037,118.601 651.149,117.49 C652.26,116.378 653.095,113.741 651.983,112.629 C651.566,112.212 650.936,112.07 650.251,112.112 Z M674.451,122.077 C673.31,122.148 672.018,122.734 671.323,123.428 C670.212,124.54 670.212,126.343 671.323,127.455 C672.435,128.566 674.238,128.566 675.35,127.455 C676.461,126.343 677.295,123.706 676.184,122.594 C675.767,122.177 675.136,122.035 674.451,122.077 Z M661.639,123.501 C660.498,123.571 659.206,124.157 658.511,124.852 C657.399,125.964 657.399,127.766 658.511,128.878 C659.623,129.99 661.426,129.99 662.537,128.878 C663.649,127.766 664.483,125.13 663.371,124.018 C662.955,123.601 662.324,123.458 661.639,123.501 Z M648.827,124.924 C647.685,124.995 646.394,125.581 645.699,126.276 C644.587,127.387 644.587,129.19 645.699,130.302 C646.811,131.414 648.613,131.414 649.725,130.302 C650.837,129.19 651.671,126.553 650.559,125.442 C650.142,125.025 649.512,124.882 648.827,124.924 Z" />
        </g>
    </g>
</svg>