<?xml version="1.0" encoding="UTF-8"?>
<svg height="600" width="800" xmlns="http://www.w3.org/2000/svg" xmlns:xlink="http://www.w3.org/1999/xlink">
    <g id="Notes" font-family="'LucidaGrande', 'Lucida Grande', sans-serif" font-size="13">
        <rect fill="white" height="600.0" width="800.0" x="0.0" y="0.0" />
        <g font-size="13">
            <text x="18.0" y="176.0">Small</text>
            <text x="18.0" y="376.0">Medium</text>
            <text x="18.0" y="576.0">Large</text>
        </g>
        <g font-size="9">
            <text x="250.0" y="30.0">Ultralight</text>
            <text x="450.0" y="30.0">Regular</text>
            <text x="650.0" y="30.0">Black</text>
            <text id="template-version" fill="#505050" text-anchor="end" x="785.0" y="575.0">Template v.3.0</text>
            <a href="https://wangchujiang.com/#/app">
                <text fill="#505050" text-anchor="end" x="785.0" y="590.0">https://wangchujiang.com/#/app</text>
            </a>
        </g>
    </g>
    <g id="Guides" stroke="rgb(39, 170, 225)" stroke-width="0.5">
        <path id="Capline-S" d="M18,76 l800,0" />
        <path id="H-reference" d="M85,145.755 L87.685,145.755 L113.369,79.287 L114.052,79.287 L114.052,76 L112.148,76 L85,145.755 Z M95.693,121.536 L130.996,121.536 L130.263,119.313 L96.474,119.313 L95.693,121.536 Z M139.15,145.755 L141.787,145.755 L114.638,76 L113.466,76 L113.466,79.287 L139.15,145.755 Z" stroke="none" />
        <path id="Baseline-S" d="M18,146 l800,0" />
        <path id="left-margin-Ultralight-S" d="M211,56 l0,110" />
        <path id="right-margin-Ultralight-S" d="M319,56 l0,110" />
        <path id="left-margin-Regular-S" d="M411,56 l0,110" />
        <path id="right-margin-Regular-S" d="M519,56 l0,110" />
        <path id="left-margin-Black-S" d="M611,56 l0,110" />
        <path id="right-margin-Black-S" d="M719,56 l0,110" />
        <path id="Capline-M" d="M18,276 l800,0" />
        <path id="Baseline-M" d="M18,346 l800,0" />
        <path id="Capline-L" d="M18,476 l800,0" />
        <path id="Baseline-L" d="M18,546 l800,0" />
    </g>
    <g id="Symbols">
        <g id="Ultralight-S">
            <path d="M283.06,78.629 C282.081,78.571 281.078,78.886 280.287,79.589 C279.176,80.576 279.245,82.693 279.6,84.612 L274.602,88.608 C270.918,88.659 268.272,88.972 264.264,89.827 C261.353,89.154 258.281,88.819 255.038,88.819 C232.93,88.819 221,109.571 221,129.099 C221,138.573 235.469,143.377 264.004,143.377 C269.685,143.377 283.203,142.13 290.217,139.123 C295.716,136.767 295.717,133.223 295.717,130.094 C295.717,126.513 294.677,121.768 292.96,117.353 C294.94,114.328 296.342,111.257 297.021,108.73 L302.021,104.728 C304.023,105.429 306.472,105.947 307.712,104.845 C309.293,103.439 309.44,101.018 308.034,99.436 C307.198,98.494 306,98.076 304.836,98.178 C305.073,97.032 304.8,95.795 303.964,94.854 C302.557,93.273 300.134,93.126 298.551,94.533 C297.44,95.52 297.509,97.637 297.864,99.556 L292.912,103.519 C292.202,103.512 291.511,103.507 290.742,103.496 C288.956,103.47 287.016,103.454 285.038,103.477 C282.817,100.703 280.444,98.313 277.904,96.336 C278.25,95.448 278.544,94.586 278.76,93.783 L283.757,89.785 C285.759,90.486 288.208,91.004 289.448,89.902 C291.029,88.495 291.176,86.075 289.769,84.492 C288.934,83.551 287.736,83.133 286.572,83.234 C286.809,82.089 286.536,80.852 285.7,79.91 C284.996,79.12 284.039,78.687 283.06,78.629 Z M255.038,95.46 C263.676,95.46 270.654,98.203 276.6,104.005 C271.767,104.661 267.281,106.057 264.329,108.967 C262.019,111.243 260.849,114.161 260.849,117.642 C260.849,123.679 265.326,130.094 273.623,130.094 C279.12,130.094 284.041,127.276 287.97,123.459 C288.726,126.206 289.08,128.596 289.075,130.094 C289.07,131.564 288.739,132.531 287.6,133.02 C281.825,135.494 269.362,136.736 264.004,136.736 C234.176,136.736 227.641,131.222 227.641,129.099 C227.641,112.792 237.243,95.46 255.038,95.46 Z M286.685,110.099 C287.637,110.099 289.448,110.118 289.448,110.118 C286.752,115.86 280.59,123.453 273.623,123.453 C269.411,123.453 267.491,120.441 267.491,117.642 C267.491,115.96 267.968,114.705 268.992,113.695 C272.195,110.539 280.057,110.099 286.685,110.099 Z" />
        </g>
        <g id="Regular-S">
            <path d="M483.06,78.629 C482.081,78.571 481.078,78.886 480.287,79.589 C479.176,80.576 479.245,82.693 479.6,84.612 L474.602,88.608 C470.918,88.659 468.272,88.972 464.264,89.827 C461.353,89.154 458.281,88.819 455.038,88.819 C432.93,88.819 421,109.571 421,129.099 C421,138.573 435.469,143.377 464.004,143.377 C469.685,143.377 483.203,142.13 490.217,139.123 C495.716,136.767 495.717,133.223 495.717,130.094 C495.717,126.513 494.677,121.768 492.96,117.353 C494.94,114.328 496.342,111.257 497.021,108.73 L502.021,104.728 C504.023,105.429 506.472,105.947 507.712,104.845 C509.293,103.439 509.44,101.018 508.034,99.436 C507.198,98.494 506,98.076 504.836,98.178 C505.073,97.032 504.801,95.795 503.964,94.854 C502.557,93.273 500.134,93.126 498.551,94.533 C497.44,95.52 497.509,97.637 497.864,99.556 L492.912,103.519 C492.202,103.512 491.511,103.507 490.742,103.496 C488.956,103.47 487.016,103.454 485.038,103.477 C482.817,100.703 480.444,98.313 477.904,96.336 C478.25,95.448 478.544,94.586 478.76,93.783 L483.757,89.785 C485.759,90.486 488.208,91.004 489.448,89.902 C491.029,88.495 491.176,86.075 489.769,84.492 C488.934,83.551 487.736,83.133 486.572,83.234 C486.809,82.089 486.536,80.852 485.7,79.91 C484.996,79.12 484.039,78.687 483.06,78.629 Z M455.038,95.46 C463.676,95.46 470.654,98.203 476.6,104.005 C471.767,104.661 467.281,106.057 464.329,108.967 C462.019,111.243 460.849,114.161 460.849,117.642 C460.849,123.679 465.326,130.094 473.623,130.094 C479.12,130.094 484.041,127.276 487.97,123.459 C488.726,126.206 489.08,128.596 489.075,130.094 C489.07,131.564 488.739,132.531 487.6,133.02 C481.825,135.494 469.362,136.736 464.004,136.736 C434.176,136.736 427.642,131.222 427.642,129.099 C427.642,112.792 437.243,95.46 455.038,95.46 Z M486.685,110.099 C487.637,110.099 489.448,110.118 489.448,110.118 C486.752,115.86 480.59,123.453 473.623,123.453 C469.411,123.453 467.491,120.441 467.491,117.642 C467.491,115.96 467.968,114.705 468.992,113.695 C472.195,110.539 480.057,110.099 486.685,110.099 Z" />
        </g>
        <g id="Black-S">
            <path d="M683.06,78.629 C682.081,78.571 681.078,78.886 680.287,79.589 C679.176,80.576 679.245,82.693 679.6,84.612 L674.602,88.608 C670.918,88.659 668.272,88.972 664.264,89.827 C661.353,89.154 658.281,88.819 655.038,88.819 C632.93,88.819 621,109.571 621,129.099 C621,138.573 635.469,143.377 664.004,143.377 C669.685,143.377 683.203,142.13 690.217,139.123 C695.716,136.767 695.717,133.223 695.717,130.094 C695.717,126.513 694.677,121.768 692.96,117.353 C694.94,114.328 696.342,111.257 697.021,108.73 L702.021,104.728 C704.023,105.429 706.472,105.947 707.713,104.845 C709.293,103.439 709.44,101.018 708.034,99.436 C707.198,98.494 706,98.076 704.836,98.178 C705.073,97.032 704.801,95.795 703.964,94.854 C702.557,93.273 700.134,93.126 698.551,94.533 C697.44,95.52 697.509,97.637 697.864,99.556 L692.912,103.519 C692.202,103.512 691.511,103.507 690.742,103.496 C688.956,103.47 687.016,103.454 685.038,103.477 C682.817,100.703 680.444,98.313 677.904,96.336 C678.25,95.448 678.544,94.586 678.76,93.783 L683.757,89.785 C685.759,90.486 688.208,91.004 689.448,89.902 C691.029,88.495 691.176,86.075 689.769,84.492 C688.934,83.551 687.736,83.133 686.572,83.234 C686.809,82.089 686.536,80.852 685.7,79.91 C684.996,79.12 684.039,78.687 683.06,78.629 Z M655.038,95.46 C663.676,95.46 670.654,98.203 676.6,104.005 C671.767,104.661 667.281,106.057 664.329,108.967 C662.019,111.243 660.849,114.161 660.849,117.642 C660.849,123.679 665.326,130.094 673.623,130.094 C679.12,130.094 684.041,127.276 687.97,123.459 C688.726,126.206 689.08,128.596 689.075,130.094 C689.07,131.564 688.739,132.531 687.6,133.02 C681.825,135.494 669.362,136.736 664.004,136.736 C634.176,136.736 627.642,131.222 627.642,129.099 C627.642,112.792 637.243,95.46 655.038,95.46 Z M686.685,110.099 C687.637,110.099 689.448,110.118 689.448,110.118 C686.752,115.86 680.59,123.453 673.623,123.453 C669.411,123.453 667.491,120.441 667.491,117.642 C667.491,115.96 667.968,114.705 668.992,113.695 C672.195,110.539 680.057,110.099 686.685,110.099 Z" />
        </g>
    </g>
</svg>