<?xml version="1.0" encoding="UTF-8"?>
<svg height="600" width="800" xmlns="http://www.w3.org/2000/svg" xmlns:xlink="http://www.w3.org/1999/xlink">
    <g id="Notes" font-family="'LucidaGrande', 'Lucida Grande', sans-serif" font-size="13">
        <rect fill="white" height="600.0" width="800.0" x="0.0" y="0.0" />
        <g font-size="13">
            <text x="18.0" y="176.0">Small</text>
            <text x="18.0" y="376.0">Medium</text>
            <text x="18.0" y="576.0">Large</text>
        </g>
        <g font-size="9">
            <text x="250.0" y="30.0">Ultralight</text>
            <text x="450.0" y="30.0">Regular</text>
            <text x="650.0" y="30.0">Black</text>
            <text id="template-version" fill="#505050" text-anchor="end" x="785.0" y="575.0">Template v.3.0</text>
            <a href="https://wangchujiang.com/#/app">
                <text fill="#505050" text-anchor="end" x="785.0" y="590.0">https://wangchujiang.com/#/app</text>
            </a>
        </g>
    </g>
    <g id="Guides" stroke="rgb(39, 170, 225)" stroke-width="0.5">
        <path id="Capline-S" d="M18,76 l800,0" />
        <path id="H-reference" d="M85,145.755 L87.685,145.755 L113.369,79.287 L114.052,79.287 L114.052,76 L112.148,76 L85,145.755 Z M95.693,121.536 L130.996,121.536 L130.263,119.313 L96.474,119.313 L95.693,121.536 Z M139.15,145.755 L141.787,145.755 L114.638,76 L113.466,76 L113.466,79.287 L139.15,145.755 Z" stroke="none" />
        <path id="Baseline-S" d="M18,146 l800,0" />
        <path id="left-margin-Ultralight-S" d="M219.989,56 l0,110" />
        <path id="right-margin-Ultralight-S" d="M310.01,56 l0,110" />
        <path id="left-margin-Regular-S" d="M419.99,56 l0,110" />
        <path id="right-margin-Regular-S" d="M510.01,56 l0,110" />
        <path id="left-margin-Black-S" d="M619.99,56 l0,110" />
        <path id="right-margin-Black-S" d="M710.01,56 l0,110" />
        <path id="Capline-M" d="M18,276 l800,0" />
        <path id="Baseline-M" d="M18,346 l800,0" />
        <path id="Capline-L" d="M18,476 l800,0" />
        <path id="Baseline-L" d="M18,546 l800,0" />
    </g>
    <g id="Symbols">
        <g id="Ultralight-S">
            <path d="M287.277,76.006 C283.906,76.11 280.492,77.498 277.838,80.15 C277.834,80.155 275.961,81.878 273.866,84.196 C269.819,88.673 266.837,89.419 260.385,90.821 C252.841,92.458 243.882,96.022 238.388,101.512 C233.256,106.641 230.281,113.332 230.01,120.352 C229.735,127.46 232.255,134.045 237.107,138.894 C241.862,143.648 248.172,146 254.63,146 C261.693,146 268.936,143.182 274.506,137.613 C280.198,131.923 284.611,123.061 285.483,115.555 C286.046,110.655 288.253,106.011 291.698,102.479 L295.906,98.157 C301.274,92.788 301.29,84.396 296.462,79.568 C293.976,77.082 290.648,75.902 287.277,76.006 Z M287.28,81.965 C289.12,81.864 290.925,82.465 292.248,83.788 C294.838,86.379 295.009,90.623 291.663,93.969 L287.425,98.317 C283.068,102.791 280.271,108.669 279.556,114.871 C278.829,121.139 275.104,128.584 270.289,133.396 C261.95,141.728 248.955,142.301 241.324,134.674 C237.66,131.014 235.758,126.008 235.968,120.582 C236.18,115.069 238.535,109.797 242.602,105.732 C247.22,101.117 254.669,97.666 261.084,96.745 C267.955,95.758 274.263,93.093 278.123,88.375 C280.089,85.971 282.083,84.341 282.084,84.341 C283.56,82.865 285.439,82.065 287.28,81.965 Z M265.781,104.261 C260.931,104.194 255.938,106.258 252.166,110.033 C247.522,114.677 245.459,121.166 246.784,126.968 C247.041,128.085 247.929,128.89 249.03,129.211 C254.22,130.724 262.25,127.543 265.962,123.829 C270.607,119.186 272.669,112.699 271.344,106.897 C271.087,105.78 270.215,104.909 269.098,104.654 C268.011,104.406 266.901,104.277 265.781,104.261 Z M265.775,110.22 C265.854,113.5 264.406,116.953 261.748,119.612 C259.089,122.272 255.635,123.727 252.353,123.642 C252.274,120.364 253.725,116.91 256.383,114.25 C259.042,111.59 262.489,110.132 265.775,110.22 Z" />
        </g>
        <g id="Regular-S">
            <path d="M487.277,76.006 C483.906,76.11 480.492,77.498 477.838,80.15 C477.834,80.155 475.961,81.878 473.866,84.196 C469.819,88.673 466.837,89.419 460.385,90.821 C452.841,92.458 443.882,96.022 438.388,101.512 C433.256,106.641 430.281,113.332 430.01,120.352 C429.735,127.46 432.255,134.045 437.107,138.894 C441.862,143.648 448.172,146 454.63,146 C461.693,146 468.936,143.182 474.506,137.613 C480.198,131.923 484.611,123.061 485.483,115.555 C486.046,110.655 488.253,106.011 491.698,102.479 L495.906,98.157 C501.274,92.788 501.29,84.396 496.462,79.568 C493.976,77.082 490.648,75.902 487.277,76.006 Z M487.28,81.965 C489.12,81.864 490.925,82.465 492.248,83.788 C494.838,86.379 495.009,90.623 491.663,93.969 L487.425,98.317 C483.068,102.791 480.271,108.669 479.556,114.871 C478.829,121.139 475.104,128.584 470.289,133.396 C461.95,141.728 448.955,142.301 441.324,134.674 C437.66,131.014 435.758,126.008 435.968,120.582 C436.18,115.069 438.535,109.797 442.602,105.732 C447.22,101.117 454.669,97.666 461.084,96.745 C467.955,95.758 474.263,93.093 478.124,88.375 C480.089,85.971 482.083,84.341 482.084,84.341 C483.56,82.865 485.439,82.065 487.28,81.965 Z M465.781,104.261 C460.931,104.194 455.938,106.258 452.166,110.033 C447.522,114.677 445.459,121.166 446.784,126.968 C447.041,128.085 447.929,128.89 449.03,129.211 C454.22,130.724 462.251,127.543 465.962,123.829 C470.607,119.186 472.669,112.699 471.344,106.897 C471.087,105.78 470.215,104.909 469.098,104.654 C468.011,104.406 466.901,104.277 465.781,104.261 Z M465.775,110.22 C465.854,113.5 464.406,116.953 461.748,119.612 C459.089,122.272 455.635,123.727 452.353,123.642 C452.274,120.364 453.725,116.91 456.383,114.25 C459.042,111.59 462.489,110.132 465.775,110.22 Z" />
        </g>
        <g id="Black-S">
            <path d="M687.277,76.006 C683.906,76.11 680.492,77.498 677.838,80.15 C677.834,80.155 675.961,81.878 673.866,84.196 C669.819,88.673 666.837,89.419 660.385,90.821 C652.841,92.458 643.882,96.022 638.388,101.512 C633.256,106.641 630.281,113.332 630.01,120.352 C629.735,127.46 632.255,134.045 637.107,138.894 C641.862,143.648 648.172,146 654.63,146 C661.693,146 668.936,143.182 674.506,137.613 C680.198,131.923 684.611,123.061 685.483,115.555 C686.046,110.655 688.253,106.011 691.698,102.479 L695.906,98.157 C701.274,92.788 701.29,84.396 696.462,79.568 C693.976,77.082 690.648,75.902 687.277,76.006 Z M687.28,81.965 C689.12,81.864 690.925,82.465 692.248,83.788 C694.838,86.379 695.009,90.623 691.663,93.969 L687.425,98.317 C683.068,102.791 680.271,108.669 679.556,114.871 C678.829,121.139 675.104,128.584 670.289,133.396 C661.95,141.728 648.955,142.301 641.324,134.674 C637.66,131.014 635.758,126.008 635.968,120.582 C636.18,115.069 638.535,109.797 642.602,105.732 C647.22,101.117 654.669,97.666 661.084,96.745 C667.955,95.758 674.263,93.093 678.123,88.375 C680.089,85.971 682.083,84.341 682.084,84.341 C683.56,82.865 685.439,82.065 687.28,81.965 Z M665.781,104.261 C660.931,104.194 655.938,106.258 652.166,110.033 C647.522,114.677 645.459,121.166 646.784,126.968 C647.041,128.085 647.929,128.89 649.03,129.211 C654.22,130.724 662.25,127.543 665.962,123.829 C670.607,119.186 672.669,112.699 671.344,106.897 C671.087,105.78 670.215,104.909 669.098,104.654 C668.011,104.406 666.901,104.277 665.781,104.261 Z M665.775,110.22 C665.854,113.5 664.406,116.953 661.748,119.612 C659.089,122.272 655.635,123.727 652.353,123.642 C652.274,120.364 653.725,116.91 656.383,114.25 C659.042,111.59 662.489,110.132 665.775,110.22 Z" />
        </g>
    </g>
</svg>