<?xml version="1.0" encoding="UTF-8" standalone="no"?>
<!DOCTYPE svg PUBLIC "-//W3C//DTD SVG 1.1//EN" "http://www.w3.org/Graphics/SVG/1.1/DTD/svg11.dtd">
<svg width="100%" height="100%" viewBox="0 0 1025 1026" version="1.1" xmlns="http://www.w3.org/2000/svg" xmlns:xlink="http://www.w3.org/1999/xlink" xml:space="preserve" xmlns:serif="http://www.serif.com/" style="fill-rule:evenodd;clip-rule:evenodd;stroke-linejoin:round;stroke-miterlimit:2;">
    <g transform="matrix(1,0,0,1,0.456525,0.514135)">
        <g id="Background">
            <path d="M1023.999,30.5L1023.999,1023.999C1022.613,1025.385 1022.222,1023.999 999.5,1023.999L-0,1023.999C-1.027,1022.092 0,1019.666 0,1017.5L0,0C2.148,-1.157 2.338,0 30.5,0L1023.999,0C1025.156,2.148 1023.999,2.338 1023.999,30.5Z" style="fill:rgb(8,54,115);"/>
            <g transform="matrix(1,0,0,1,0,-69)">
                <path d="M405.79,264.735C482.808,172.32 629.774,213.269 648.675,333.471C657.016,386.511 628.214,423.222 648.456,399.464C677.356,365.543 671.957,326.132 671.056,319.55C670.263,313.766 669.72,313.642 670.572,312.556C671.706,311.11 718.659,289.048 768.642,311.181C816.68,332.453 830.633,370.452 836.275,386.569C837.822,392.553 837.895,392.473 839.223,398.541C840.068,402.684 845.06,427.153 839.022,451.391C828.898,491.358 808.282,517.363 769.718,536.942C733.261,555.451 689.107,545.414 688.569,545.644C686.937,546.342 687.538,546.865 679.141,578.414C662.436,654.061 671.334,681.346 667.52,681.227C666.494,681.195 636.919,623.204 573.663,599.181C517.722,576.8 470.885,592.878 462.412,595.142C456.293,597.17 456.365,597.06 450.385,599.248C436.643,604.983 398.819,620.165 364.074,670.231C359.913,676.227 355.531,685.874 356.051,679.595C356.764,670.993 354.531,627.849 352.029,614.588C351.025,609.263 348.759,588.663 338.041,550.63C336.986,546.886 337.382,545.103 332.576,545.932C322.785,547.62 259.819,558.479 214.474,507.524C178.338,466.916 173.406,415.498 194.305,370.408C199.635,358.907 215.769,328.768 255.67,310.885C302.213,290.025 353.093,309.487 353.825,313.445C354.731,318.347 340.917,361.889 381.617,406.353C386.617,411.816 381.502,403.829 378.008,387.614C373.189,365.257 365.994,322.199 400.92,270.88C401.301,270.382 403.987,266.875 405.79,264.735Z" style="fill:rgb(254,254,254);"/>
            </g>
            <g transform="matrix(1,0,0,1,0,-69)">
                <path d="M635.214,689.726C659.524,721.328 663.912,746.775 667.178,762.539C668.934,776.365 670.719,787.602 667.172,812.457C648.622,908.27 569.241,933.762 549.453,939.317C542.063,940.927 470.709,961.594 404.226,899.795C373.287,871.037 336.188,806.643 366.164,730.354C368.455,724.523 381.246,691.969 411.485,666.483C415.82,662.829 432.256,644.525 450.251,661.738C455.18,666.453 461.162,683.713 446.785,693.921C440.279,698.542 432.456,706.09 431.28,707.225C404.503,733.631 393.662,773.532 400.317,806.531C402.8,818.848 403.012,818.746 407.348,830.558C408.647,833.363 408.456,833.408 411.225,838.649C413.261,842.176 413.232,842.126 415.285,845.648C417.803,849.564 418.05,850.158 420.174,852.753C420.437,853.056 422.013,854.868 423.251,856.706C479.882,924.35 568.267,907.313 607.919,847.721C608.234,847.239 610.152,844.298 611.723,841.614C627.487,815.583 632.806,770.141 612.915,734.282C608.413,726.438 603.773,716.365 585.559,700.424C582.26,697.536 557.152,682.979 573.963,661.907C576.451,658.789 589.599,648.142 605.18,659.869C622.2,672.678 621.261,673.683 635.214,689.726Z" style="fill:rgb(252,253,253);"/>
            </g>
            <g transform="matrix(1,0,0,1,0,-69)">
                <path d="M530.174,625.743C535.999,635.863 534.122,636.564 534.261,678.499C534.56,769.338 533.575,769.321 533.203,770.41C524.304,796.441 490.136,788.171 489.866,763.479C489.757,753.561 489.102,693.745 489.795,639.498C490.023,621.635 512.161,605.197 530.174,625.743Z" style="fill:rgb(251,253,252);"/>
            </g>
        </g>
    </g>
</svg>
