<?xml version="1.0" encoding="UTF-8"?>
<svg height="600" width="800" xmlns="http://www.w3.org/2000/svg" xmlns:xlink="http://www.w3.org/1999/xlink">
    <g id="Notes" font-family="'LucidaGrande', 'Lucida Grande', sans-serif" font-size="13">
        <rect fill="white" height="600.0" width="800.0" x="0.0" y="0.0" />
        <g font-size="13">
            <text x="18.0" y="176.0">Small</text>
            <text x="18.0" y="376.0">Medium</text>
            <text x="18.0" y="576.0">Large</text>
        </g>
        <g font-size="9">
            <text x="250.0" y="30.0">Ultralight</text>
            <text x="450.0" y="30.0">Regular</text>
            <text x="650.0" y="30.0">Black</text>
            <text id="template-version" fill="#505050" text-anchor="end" x="785.0" y="575.0">Template v.3.0</text>
            <a href="https://wangchujiang.com/#/app">
                <text fill="#505050" text-anchor="end" x="785.0" y="590.0">https://wangchujiang.com/#/app</text>
            </a>
        </g>
    </g>
    <g id="Guides" stroke="rgb(39, 170, 225)" stroke-width="0.5">
        <path id="Capline-S" d="M18,76 l800,0" />
        <path id="H-reference" d="M85,145.755 L87.685,145.755 L113.369,79.287 L114.052,79.287 L114.052,76 L112.148,76 L85,145.755 Z M95.693,121.536 L130.996,121.536 L130.263,119.313 L96.474,119.313 L95.693,121.536 Z M139.15,145.755 L141.787,145.755 L114.638,76 L113.466,76 L113.466,79.287 L139.15,145.755 Z" stroke="none" />
        <path id="Baseline-S" d="M18,146 l800,0" />
        <path id="left-margin-Ultralight-S" d="M221,56 l0,110" />
        <path id="right-margin-Ultralight-S" d="M309,56 l0,110" />
        <path id="left-margin-Regular-S" d="M421,56 l0,110" />
        <path id="right-margin-Regular-S" d="M509,56 l0,110" />
        <path id="left-margin-Black-S" d="M621,56 l0,110" />
        <path id="right-margin-Black-S" d="M709,56 l0,110" />
        <path id="Capline-M" d="M18,276 l800,0" />
        <path id="Baseline-M" d="M18,346 l800,0" />
        <path id="Capline-L" d="M18,476 l800,0" />
        <path id="Baseline-L" d="M18,546 l800,0" />
    </g>
    <g id="Symbols">
        <g id="Ultralight-S">
            <path d="M245.909,76 C240.637,76 236.364,80.273 236.364,85.545 L236.364,136.455 C236.364,141.727 240.637,146 245.909,146 L263.956,146 C266.487,146 268.915,144.993 270.705,143.203 L290.84,123.069 C292.63,121.277 293.636,118.851 293.636,116.32 L293.636,85.545 C293.636,80.273 289.363,76 284.091,76 L245.909,76 Z M245.909,82.364 L284.091,82.364 C285.849,82.364 287.273,83.788 287.273,85.545 L287.273,114.182 L271.364,114.182 C266.091,114.182 261.818,118.455 261.818,123.727 L261.818,139.636 L245.909,139.636 C244.151,139.636 242.727,138.212 242.727,136.455 L242.727,85.545 C242.727,83.788 244.151,82.364 245.909,82.364 Z M249.091,87.136 C248.213,87.136 247.5,87.849 247.5,88.727 C247.5,89.605 248.213,90.318 249.091,90.318 C249.969,90.318 250.682,89.605 250.682,88.727 C250.682,87.849 249.969,87.136 249.091,87.136 Z M255.455,87.136 C254.575,87.136 253.864,87.849 253.864,88.727 C253.864,89.605 254.575,90.318 255.455,90.318 L280.909,90.318 C281.789,90.318 282.5,89.605 282.5,88.727 C282.5,87.849 281.789,87.136 280.909,87.136 L255.455,87.136 Z M249.091,96.682 C248.213,96.682 247.5,97.395 247.5,98.273 C247.5,99.151 248.213,99.864 249.091,99.864 C249.969,99.864 250.682,99.151 250.682,98.273 C250.682,97.395 249.969,96.682 249.091,96.682 Z M255.455,96.682 C254.575,96.682 253.864,97.395 253.864,98.273 C253.864,99.151 254.575,99.864 255.455,99.864 L280.909,99.864 C281.789,99.864 282.5,99.151 282.5,98.273 C282.5,97.395 281.789,96.682 280.909,96.682 L255.455,96.682 Z M249.091,106.227 C248.213,106.227 247.5,106.94 247.5,107.818 C247.5,108.696 248.213,109.409 249.091,109.409 C249.969,109.409 250.682,108.696 250.682,107.818 C250.682,106.94 249.969,106.227 249.091,106.227 Z M255.455,106.227 C254.575,106.227 253.864,106.94 253.864,107.818 C253.864,108.696 254.575,109.409 255.455,109.409 L280.909,109.409 C281.789,109.409 282.5,108.696 282.5,107.818 C282.5,106.94 281.789,106.227 280.909,106.227 L255.455,106.227 Z M271.364,120.545 L284.364,120.545 L268.182,136.728 L268.182,123.727 C268.182,121.969 269.606,120.545 271.364,120.545 Z" />
        </g>
        <g id="Regular-S">
            <path d="M445.909,76 C440.637,76 436.364,80.273 436.364,85.545 L436.364,136.455 C436.364,141.727 440.637,146 445.909,146 L463.956,146 C466.487,146 468.915,144.993 470.705,143.203 L490.84,123.069 C492.63,121.277 493.636,118.851 493.636,116.32 L493.636,85.545 C493.636,80.273 489.363,76 484.091,76 L445.909,76 Z M445.909,82.364 L484.091,82.364 C485.849,82.364 487.273,83.788 487.273,85.545 L487.273,114.182 L471.364,114.182 C466.091,114.182 461.818,118.455 461.818,123.727 L461.818,139.636 L445.909,139.636 C444.151,139.636 442.727,138.212 442.727,136.455 L442.727,85.545 C442.727,83.788 444.151,82.364 445.909,82.364 Z M449.091,87.136 C448.213,87.136 447.5,87.849 447.5,88.727 C447.5,89.605 448.213,90.318 449.091,90.318 C449.969,90.318 450.682,89.605 450.682,88.727 C450.682,87.849 449.969,87.136 449.091,87.136 Z M455.455,87.136 C454.575,87.136 453.864,87.849 453.864,88.727 C453.864,89.605 454.575,90.318 455.455,90.318 L480.909,90.318 C481.789,90.318 482.5,89.605 482.5,88.727 C482.5,87.849 481.789,87.136 480.909,87.136 L455.455,87.136 Z M449.091,96.682 C448.213,96.682 447.5,97.395 447.5,98.273 C447.5,99.151 448.213,99.864 449.091,99.864 C449.969,99.864 450.682,99.151 450.682,98.273 C450.682,97.395 449.969,96.682 449.091,96.682 Z M455.455,96.682 C454.575,96.682 453.864,97.395 453.864,98.273 C453.864,99.151 454.575,99.864 455.455,99.864 L480.909,99.864 C481.789,99.864 482.5,99.151 482.5,98.273 C482.5,97.395 481.789,96.682 480.909,96.682 L455.455,96.682 Z M449.091,106.227 C448.213,106.227 447.5,106.94 447.5,107.818 C447.5,108.696 448.213,109.409 449.091,109.409 C449.969,109.409 450.682,108.696 450.682,107.818 C450.682,106.94 449.969,106.227 449.091,106.227 Z M455.455,106.227 C454.575,106.227 453.864,106.94 453.864,107.818 C453.864,108.696 454.575,109.409 455.455,109.409 L480.909,109.409 C481.789,109.409 482.5,108.696 482.5,107.818 C482.5,106.94 481.789,106.227 480.909,106.227 L455.455,106.227 Z M471.364,120.545 L484.364,120.545 L468.182,136.728 L468.182,123.727 C468.182,121.969 469.606,120.545 471.364,120.545 Z" />
        </g>
        <g id="Black-S">
            <path d="M645.909,76 C640.637,76 636.364,80.273 636.364,85.545 L636.364,136.455 C636.364,141.727 640.637,146 645.909,146 L663.956,146 C666.487,146 668.915,144.993 670.705,143.203 L690.84,123.069 C692.63,121.277 693.636,118.851 693.636,116.32 L693.636,85.545 C693.636,80.273 689.363,76 684.091,76 L645.909,76 Z M645.909,82.364 L684.091,82.364 C685.849,82.364 687.273,83.788 687.273,85.545 L687.273,114.182 L671.364,114.182 C666.091,114.182 661.818,118.455 661.818,123.727 L661.818,139.636 L645.909,139.636 C644.151,139.636 642.727,138.212 642.727,136.455 L642.727,85.545 C642.727,83.788 644.151,82.364 645.909,82.364 Z M649.091,87.136 C648.213,87.136 647.5,87.849 647.5,88.727 C647.5,89.605 648.213,90.318 649.091,90.318 C649.969,90.318 650.682,89.605 650.682,88.727 C650.682,87.849 649.969,87.136 649.091,87.136 Z M655.455,87.136 C654.575,87.136 653.864,87.849 653.864,88.727 C653.864,89.605 654.575,90.318 655.455,90.318 L680.909,90.318 C681.789,90.318 682.5,89.605 682.5,88.727 C682.5,87.849 681.789,87.136 680.909,87.136 L655.455,87.136 Z M649.091,96.682 C648.213,96.682 647.5,97.395 647.5,98.273 C647.5,99.151 648.213,99.864 649.091,99.864 C649.969,99.864 650.682,99.151 650.682,98.273 C650.682,97.395 649.969,96.682 649.091,96.682 Z M655.455,96.682 C654.575,96.682 653.864,97.395 653.864,98.273 C653.864,99.151 654.575,99.864 655.455,99.864 L680.909,99.864 C681.789,99.864 682.5,99.151 682.5,98.273 C682.5,97.395 681.789,96.682 680.909,96.682 L655.455,96.682 Z M649.091,106.227 C648.213,106.227 647.5,106.94 647.5,107.818 C647.5,108.696 648.213,109.409 649.091,109.409 C649.969,109.409 650.682,108.696 650.682,107.818 C650.682,106.94 649.969,106.227 649.091,106.227 Z M655.455,106.227 C654.575,106.227 653.864,106.94 653.864,107.818 C653.864,108.696 654.575,109.409 655.455,109.409 L680.909,109.409 C681.789,109.409 682.5,108.696 682.5,107.818 C682.5,106.94 681.789,106.227 680.909,106.227 L655.455,106.227 Z M671.364,120.545 L684.364,120.545 L668.182,136.728 L668.182,123.727 C668.182,121.969 669.606,120.545 671.364,120.545 Z" />
        </g>
    </g>
</svg>