<?xml version="1.0" encoding="UTF-8"?>
<svg height="600" width="800" xmlns="http://www.w3.org/2000/svg" xmlns:xlink="http://www.w3.org/1999/xlink">
    <g id="Notes" font-family="'LucidaGrande', 'Lucida Grande', sans-serif" font-size="13">
        <rect fill="white" height="600.0" width="800.0" x="0.0" y="0.0" />
        <g font-size="13">
            <text x="18.0" y="176.0">Small</text>
            <text x="18.0" y="376.0">Medium</text>
            <text x="18.0" y="576.0">Large</text>
        </g>
        <g font-size="9">
            <text x="250.0" y="30.0">Ultralight</text>
            <text x="450.0" y="30.0">Regular</text>
            <text x="650.0" y="30.0">Black</text>
            <text id="template-version" fill="#505050" text-anchor="end" x="785.0" y="575.0">Template v.3.0</text>
            <a href="https://wangchujiang.com/#/app">
                <text fill="#505050" text-anchor="end" x="785.0" y="590.0">https://wangchujiang.com/#/app</text>
            </a>
        </g>
    </g>
    <g id="Guides" stroke="rgb(39, 170, 225)" stroke-width="0.5">
        <path id="Capline-S" d="M18,76 l800,0" />
        <path id="H-reference" d="M85,145.755 L87.685,145.755 L113.369,79.287 L114.052,79.287 L114.052,76 L112.148,76 L85,145.755 Z M95.693,121.536 L130.996,121.536 L130.263,119.313 L96.474,119.313 L95.693,121.536 Z M139.15,145.755 L141.787,145.755 L114.638,76 L113.466,76 L113.466,79.287 L139.15,145.755 Z" stroke="none" />
        <path id="Baseline-S" d="M18,146 l800,0" />
        <path id="left-margin-Ultralight-S" d="M215,56 l0,110" />
        <path id="right-margin-Ultralight-S" d="M315,56 l0,110" />
        <path id="left-margin-Regular-S" d="M415,56 l0,110" />
        <path id="right-margin-Regular-S" d="M515,56 l0,110" />
        <path id="left-margin-Black-S" d="M615,56 l0,110" />
        <path id="right-margin-Black-S" d="M715,56 l0,110" />
        <path id="Capline-M" d="M18,276 l800,0" />
        <path id="Baseline-M" d="M18,346 l800,0" />
        <path id="Capline-L" d="M18,476 l800,0" />
        <path id="Baseline-L" d="M18,546 l800,0" />
    </g>
    <g id="Symbols">
        <g id="Ultralight-S">
            <path d="M265,76 C242.945,76 225,91.7 225,111 C225,130.3 242.945,146 265,146 C287.055,146 305,130.3 305,111 C305,91.7 287.055,76 265,76 Z M265,82.667 C280.749,82.667 293.953,92.009 297.419,104.509 C295.319,115.942 289.727,117.854 284.775,119.522 C283.709,119.882 282.701,120.222 281.751,120.645 C280.116,121.377 278.908,122.192 277.842,122.914 C275.395,124.569 273.283,126 265,126 C256.163,126 253.846,124.609 250.007,122.305 C248.126,121.179 246.299,120.683 244.684,120.245 C242.609,119.681 240.817,119.193 238.792,117.396 C235.974,114.895 233.061,111.404 232.536,104.662 C235.935,92.084 249.186,82.667 265,82.667 Z M265,89.333 C256.588,89.333 250,94.458 250,101 C250,107.542 256.588,112.667 265,112.667 C273.412,112.667 280,107.542 280,101 C280,94.458 273.412,89.333 265,89.333 Z M265,96 C269.91,96 273.333,98.635 273.333,101 C273.333,103.365 269.91,106 265,106 C260.09,106 256.667,103.365 256.667,101 C256.667,98.635 260.09,96 265,96 Z M296.12,121.065 C291.33,131.727 279.206,139.333 265,139.333 C251.475,139.333 239.831,132.44 234.609,122.579 C237.71,125.242 240.602,126.044 242.936,126.677 C244.308,127.05 245.492,127.371 246.579,128.025 C251.377,130.903 254.832,132.667 265,132.667 C274.585,132.667 277.917,130.913 281.579,128.435 C282.539,127.785 283.368,127.224 284.469,126.732 C285.131,126.436 285.991,126.146 286.904,125.837 C289.508,124.96 292.947,123.782 296.12,121.065 Z" />
        </g>
        <g id="Regular-S">
            <path d="M465,76 C442.945,76 425,91.7 425,111 C425,130.3 442.945,146 465,146 C487.055,146 505,130.3 505,111 C505,91.7 487.055,76 465,76 Z M465,82.667 C480.749,82.667 493.953,92.009 497.419,104.509 C495.319,115.942 489.727,117.854 484.775,119.522 C483.709,119.882 482.701,120.222 481.751,120.645 C480.116,121.377 478.908,122.192 477.842,122.914 C475.395,124.569 473.283,126 465,126 C456.163,126 453.846,124.609 450.007,122.305 C448.126,121.179 446.299,120.683 444.684,120.245 C442.609,119.681 440.817,119.193 438.792,117.396 C435.974,114.895 433.061,111.404 432.536,104.662 C435.935,92.084 449.186,82.667 465,82.667 Z M465,89.333 C456.588,89.333 450,94.458 450,101 C450,107.542 456.588,112.667 465,112.667 C473.412,112.667 480,107.542 480,101 C480,94.458 473.412,89.333 465,89.333 Z M465,96 C469.91,96 473.333,98.635 473.333,101 C473.333,103.365 469.91,106 465,106 C460.09,106 456.667,103.365 456.667,101 C456.667,98.635 460.09,96 465,96 Z M496.12,121.065 C491.33,131.727 479.206,139.333 465,139.333 C451.475,139.333 439.831,132.44 434.609,122.579 C437.71,125.242 440.602,126.044 442.936,126.677 C444.308,127.05 445.492,127.371 446.579,128.025 C451.377,130.903 454.832,132.667 465,132.667 C474.585,132.667 477.917,130.913 481.579,128.435 C482.539,127.785 483.368,127.224 484.469,126.732 C485.131,126.436 485.991,126.146 486.904,125.837 C489.508,124.96 492.947,123.782 496.12,121.065 Z" />
        </g>
        <g id="Black-S">
            <path d="M665,76 C642.945,76 625,91.7 625,111 C625,130.3 642.945,146 665,146 C687.055,146 705,130.3 705,111 C705,91.7 687.055,76 665,76 Z M665,82.667 C680.749,82.667 693.953,92.009 697.419,104.509 C695.319,115.942 689.727,117.854 684.775,119.522 C683.709,119.882 682.701,120.222 681.751,120.645 C680.116,121.377 678.909,122.192 677.842,122.914 C675.395,124.569 673.283,126 665,126 C656.163,126 653.847,124.609 650.007,122.305 C648.127,121.179 646.299,120.683 644.684,120.245 C642.609,119.681 640.817,119.193 638.792,117.396 C635.974,114.895 633.061,111.404 632.536,104.662 C635.935,92.084 649.186,82.667 665,82.667 Z M665,89.333 C656.588,89.333 650,94.458 650,101 C650,107.542 656.588,112.667 665,112.667 C673.412,112.667 680,107.542 680,101 C680,94.458 673.412,89.333 665,89.333 Z M665,96 C669.91,96 673.333,98.635 673.333,101 C673.333,103.365 669.91,106 665,106 C660.09,106 656.667,103.365 656.667,101 C656.667,98.635 660.09,96 665,96 Z M696.12,121.065 C691.33,131.727 679.206,139.333 665,139.333 C651.475,139.333 639.831,132.44 634.609,122.579 C637.71,125.242 640.602,126.044 642.936,126.677 C644.308,127.05 645.492,127.371 646.579,128.025 C651.377,130.903 654.832,132.667 665,132.667 C674.585,132.667 677.917,130.913 681.579,128.435 C682.539,127.785 683.368,127.224 684.469,126.732 C685.131,126.436 685.991,126.146 686.904,125.837 C689.508,124.96 692.947,123.782 696.12,121.065 Z" />
        </g>
    </g>
</svg>