<?xml version="1.0" encoding="UTF-8"?>
<svg height="600" width="800" xmlns="http://www.w3.org/2000/svg" xmlns:xlink="http://www.w3.org/1999/xlink">
    <g id="Notes" font-family="'LucidaGrande', 'Lucida Grande', sans-serif" font-size="13">
        <rect fill="white" height="600.0" width="800.0" x="0.0" y="0.0" />
        <g font-size="13">
            <text x="18.0" y="176.0">Small</text>
            <text x="18.0" y="376.0">Medium</text>
            <text x="18.0" y="576.0">Large</text>
        </g>
        <g font-size="9">
            <text x="250.0" y="30.0">Ultralight</text>
            <text x="450.0" y="30.0">Regular</text>
            <text x="650.0" y="30.0">Black</text>
            <text id="template-version" fill="#505050" text-anchor="end" x="785.0" y="575.0">Template v.3.0</text>
            <a href="https://wangchujiang.com/#/app">
                <text fill="#505050" text-anchor="end" x="785.0" y="590.0">https://wangchujiang.com/#/app</text>
            </a>
        </g>
    </g>
    <g id="Guides" stroke="rgb(39, 170, 225)" stroke-width="0.5">
        <path id="Capline-S" d="M18,76 l800,0" />
        <path id="H-reference" d="M85,145.755 L87.685,145.755 L113.369,79.287 L114.052,79.287 L114.052,76 L112.148,76 L85,145.755 Z M95.693,121.536 L130.996,121.536 L130.263,119.313 L96.474,119.313 L95.693,121.536 Z M139.15,145.755 L141.787,145.755 L114.638,76 L113.466,76 L113.466,79.287 L139.15,145.755 Z" stroke="none" />
        <path id="Baseline-S" d="M18,146 l800,0" />
        <path id="left-margin-Ultralight-S" d="M221,56 l0,110" />
        <path id="right-margin-Ultralight-S" d="M309,56 l0,110" />
        <path id="left-margin-Regular-S" d="M421,56 l0,110" />
        <path id="right-margin-Regular-S" d="M509,56 l0,110" />
        <path id="left-margin-Black-S" d="M621,56 l0,110" />
        <path id="right-margin-Black-S" d="M709,56 l0,110" />
        <path id="Capline-M" d="M18,276 l800,0" />
        <path id="Baseline-M" d="M18,346 l800,0" />
        <path id="Capline-L" d="M18,476 l800,0" />
        <path id="Baseline-L" d="M18,546 l800,0" />
    </g>
    <g id="Symbols">
        <g id="Ultralight-S">
            <path d="M298.035,113.834 C298.532,114.808 298.438,115.978 297.793,116.86 C297.705,116.98 291.21,125.644 280.805,125.644 C279.064,125.644 277.21,125.386 275.263,124.821 C275.002,129.379 276.431,135.242 279.437,138.249 C280.27,139.082 280.515,140.335 280.06,141.42 C279.608,142.496 278.642,143.194 277.36,143.194 C266.334,143.194 260.073,140.41 255.289,133.368 C249.123,145.234 235.178,145.993 234.662,146 C233.524,146.014 232.387,145.345 231.913,144.314 C231.422,143.246 231.626,141.989 232.426,141.13 C237.071,136.148 237.025,123.871 236.98,111.999 C236.968,109.062 237.022,102.514 237.019,102.38 C236.919,95.691 241.438,89.079 247.623,86.391 L247.623,78.897 C247.623,77.298 248.92,76 250.52,76 L254.808,76 C256.407,76 257.765,77.39 257.765,78.991 L257.765,86.111 C260.212,86.278 263.828,87.489 267.116,90.874 C267.259,91.022 285.204,107.399 285.204,107.399 C288.959,110.564 293.208,112.256 295.43,112.256 C296.443,112.254 297.541,112.864 298.035,113.834 Z M271.772,137.034 C269.678,132.422 269.029,126.854 269.711,122.427 C267.724,121.824 260.857,115.772 257.978,113.301 C258.124,117.367 257.957,124.201 257.646,126.074 C258.486,127.259 264.96,136.094 271.772,137.034 Z M271.183,116.524 C279.559,122.106 286.002,119.553 289.698,116.794 C286.919,115.703 283.99,113.952 281.381,111.752 C281.381,111.752 263.186,95.144 262.959,94.911 C260.53,92.409 256.006,89.943 251.257,91.223 C246.526,92.499 242.737,97.464 242.811,102.292 C242.814,102.45 242.76,109.075 242.772,111.978 C242.808,121.739 242.847,131.75 240.236,138.953 C245.551,137.031 252.543,132.202 252.275,120.1 C252.142,113.994 252.269,108.666 252.31,108.538 L250.24,106.736 C249.023,105.697 248.88,103.868 249.918,102.651 C250.958,101.434 252.785,101.291 254.002,102.331 C254.003,102.328 268.009,114.409 271.183,116.524 Z" />
        </g>
        <g id="Regular-S">
            <path d="M498.035,113.834 C498.532,114.808 498.438,115.978 497.793,116.86 C497.705,116.98 491.21,125.644 480.805,125.644 C479.064,125.644 477.21,125.386 475.263,124.821 C475.002,129.379 476.431,135.242 479.437,138.249 C480.27,139.082 480.515,140.335 480.06,141.42 C479.608,142.496 478.642,143.194 477.36,143.194 C466.334,143.194 460.073,140.41 455.289,133.368 C449.123,145.234 435.178,145.993 434.662,146 C433.524,146.014 432.387,145.345 431.913,144.314 C431.422,143.246 431.626,141.989 432.426,141.13 C437.071,136.148 437.025,123.871 436.98,111.999 C436.968,109.062 437.022,102.514 437.019,102.38 C436.919,95.691 441.438,89.079 447.623,86.391 L447.623,78.897 C447.623,77.298 448.921,76 450.52,76 L454.808,76 C456.407,76 457.765,77.39 457.765,78.991 L457.765,86.111 C460.212,86.278 463.828,87.489 467.116,90.874 C467.259,91.022 485.204,107.399 485.204,107.399 C488.959,110.564 493.208,112.256 495.43,112.256 C496.444,112.254 497.541,112.864 498.035,113.834 Z M471.772,137.034 C469.678,132.422 469.029,126.854 469.711,122.427 C467.724,121.824 460.857,115.772 457.978,113.301 C458.124,117.367 457.957,124.201 457.646,126.074 C458.486,127.259 464.96,136.094 471.772,137.034 Z M471.183,116.524 C479.559,122.106 486.002,119.553 489.698,116.794 C486.919,115.703 483.99,113.952 481.381,111.752 C481.381,111.752 463.186,95.144 462.959,94.911 C460.53,92.409 456.006,89.943 451.257,91.223 C446.526,92.499 442.737,97.464 442.811,102.292 C442.814,102.45 442.76,109.075 442.772,111.978 C442.808,121.739 442.847,131.75 440.236,138.953 C445.551,137.031 452.543,132.202 452.275,120.1 C452.142,113.994 452.269,108.666 452.31,108.538 L450.24,106.736 C449.023,105.697 448.88,103.868 449.918,102.651 C450.958,101.434 452.785,101.291 454.002,102.331 C454.003,102.328 468.009,114.409 471.183,116.524 Z" />
        </g>
        <g id="Black-S">
            <path d="M698.035,113.834 C698.532,114.808 698.438,115.978 697.793,116.86 C697.705,116.98 691.21,125.644 680.805,125.644 C679.064,125.644 677.21,125.386 675.263,124.821 C675.002,129.379 676.43,135.242 679.437,138.249 C680.27,139.082 680.515,140.335 680.06,141.42 C679.608,142.496 678.642,143.194 677.36,143.194 C666.333,143.194 660.073,140.41 655.289,133.368 C649.123,145.234 635.178,145.993 634.662,146 C633.524,146.014 632.387,145.345 631.913,144.314 C631.422,143.246 631.626,141.989 632.426,141.13 C637.071,136.148 637.024,123.871 636.98,111.999 C636.968,109.062 637.022,102.514 637.019,102.38 C636.919,95.691 641.438,89.079 647.623,86.391 L647.623,78.897 C647.623,77.298 648.92,76 650.52,76 L654.808,76 C656.407,76 657.765,77.39 657.765,78.991 L657.765,86.111 C660.212,86.278 663.828,87.489 667.116,90.874 C667.259,91.022 685.204,107.399 685.204,107.399 C688.959,110.564 693.208,112.256 695.43,112.256 C696.443,112.254 697.541,112.864 698.035,113.834 Z M671.772,137.034 C669.678,132.422 669.029,126.854 669.711,122.427 C667.724,121.824 660.857,115.772 657.977,113.301 C658.124,117.367 657.957,124.201 657.646,126.074 C658.486,127.259 664.96,136.094 671.772,137.034 Z M671.183,116.524 C679.559,122.106 686.002,119.553 689.698,116.794 C686.919,115.703 683.99,113.952 681.381,111.752 C681.381,111.752 663.186,95.144 662.959,94.911 C660.53,92.409 656.006,89.943 651.257,91.223 C646.526,92.499 642.737,97.464 642.811,102.292 C642.814,102.45 642.76,109.075 642.772,111.978 C642.808,121.739 642.847,131.75 640.236,138.953 C645.551,137.031 652.543,132.202 652.275,120.1 C652.142,113.994 652.269,108.666 652.31,108.538 L650.24,106.736 C649.023,105.697 648.88,103.868 649.918,102.651 C650.958,101.434 652.785,101.291 654.002,102.331 C654.003,102.328 668.009,114.409 671.183,116.524 Z" />
        </g>
    </g>
</svg>