<?xml version="1.0" encoding="UTF-8"?>
<svg height="600" width="800" xmlns="http://www.w3.org/2000/svg" xmlns:xlink="http://www.w3.org/1999/xlink">
    <g id="Notes" font-family="'LucidaGrande', 'Lucida Grande', sans-serif" font-size="13">
        <rect fill="white" height="600.0" width="800.0" x="0.0" y="0.0" />
        <g font-size="13">
            <text x="18.0" y="176.0">Small</text>
            <text x="18.0" y="376.0">Medium</text>
            <text x="18.0" y="576.0">Large</text>
        </g>
        <g font-size="9">
            <text x="250.0" y="30.0">Ultralight</text>
            <text x="450.0" y="30.0">Regular</text>
            <text x="650.0" y="30.0">Black</text>
            <text id="template-version" fill="#505050" text-anchor="end" x="785.0" y="575.0">Template v.3.0</text>
            <a href="https://wangchujiang.com/#/app">
                <text fill="#505050" text-anchor="end" x="785.0" y="590.0">https://wangchujiang.com/#/app</text>
            </a>
        </g>
    </g>
    <g id="Guides" stroke="rgb(39, 170, 225)" stroke-width="0.5">
        <path id="Capline-S" d="M18,76 l800,0" />
        <path id="H-reference" d="M85,145.755 L87.685,145.755 L113.369,79.287 L114.052,79.287 L114.052,76 L112.148,76 L85,145.755 Z M95.693,121.536 L130.996,121.536 L130.263,119.313 L96.474,119.313 L95.693,121.536 Z M139.15,145.755 L141.787,145.755 L114.638,76 L113.466,76 L113.466,79.287 L139.15,145.755 Z" stroke="none" />
        <path id="Baseline-S" d="M18,146 l800,0" />
        <path id="left-margin-Ultralight-S" d="M220,56 l0,110" />
        <path id="right-margin-Ultralight-S" d="M310,56 l0,110" />
        <path id="left-margin-Regular-S" d="M420,56 l0,110" />
        <path id="right-margin-Regular-S" d="M510,56 l0,110" />
        <path id="left-margin-Black-S" d="M620,56 l0,110" />
        <path id="right-margin-Black-S" d="M710,56 l0,110" />
        <path id="Capline-M" d="M18,276 l800,0" />
        <path id="Baseline-M" d="M18,346 l800,0" />
        <path id="Capline-L" d="M18,476 l800,0" />
        <path id="Baseline-L" d="M18,546 l800,0" />
    </g>
    <g id="Symbols">
        <g id="Ultralight-S">
            <path d="M283.586,103.301 C285.384,105.356 286.429,108.143 286.429,111 C286.429,113.857 285.384,116.644 283.586,118.699 C283.406,121.423 282.174,124.131 280.153,126.153 C278.133,128.174 275.423,129.406 272.699,129.586 C270.646,131.384 267.859,132.429 265,132.429 C262.141,132.429 259.354,131.384 257.301,129.586 C254.577,129.406 251.867,128.174 249.847,126.153 C247.826,124.131 246.594,121.423 246.414,118.699 C244.616,116.644 243.571,113.857 243.571,111 C243.571,108.143 244.616,105.356 246.414,103.301 C246.594,100.577 247.826,97.869 249.847,95.847 C251.867,93.826 254.577,92.594 257.301,92.414 C259.354,90.616 262.141,89.571 265,89.571 C267.859,89.571 270.646,90.616 272.699,92.414 C275.423,92.594 278.133,93.826 280.153,95.847 C282.173,97.869 283.406,100.579 283.586,103.301 Z M249.286,111 C249.286,112.69 249.999,114.363 251.147,115.369 C251.817,115.956 252.176,116.82 252.117,117.707 C252.09,118.111 252.126,118.527 252.204,118.943 C252.246,118.933 252.284,118.914 252.327,118.907 C256.627,118.094 261.174,113.797 263.047,111.149 C258.796,107.197 256.584,102.246 255.859,98.576 C255.14,98.881 254.457,99.321 253.89,99.89 C252.696,101.084 252.016,102.773 252.119,104.294 C252.177,105.183 251.819,106.047 251.149,106.633 C249.999,107.637 249.286,109.31 249.286,111 Z M269.369,124.854 C269.953,124.184 270.807,123.82 271.709,123.884 C271.851,123.893 271.999,123.863 272.143,123.859 C272.13,122.643 272.05,119.363 267.387,114.871 C265.091,117.959 261.039,121.749 256.42,123.61 C257.043,123.804 258.42,123.879 258.483,123.879 C259.303,123.879 260.089,124.233 260.633,124.854 C261.637,126.001 263.31,126.714 265,126.714 C266.69,126.714 268.363,126.001 269.369,124.854 Z M278.853,115.369 C280.001,114.363 280.714,112.69 280.714,111 C280.714,109.31 280.001,107.637 278.853,106.631 C278.183,106.044 277.824,105.18 277.883,104.293 C277.984,102.77 277.306,101.083 276.111,99.889 C274.917,98.694 273.23,98.014 271.707,98.116 C270.809,98.174 269.951,97.816 269.367,97.146 C268.363,95.999 266.69,95.286 265,95.286 C263.643,95.286 262.313,95.761 261.314,96.537 C261.576,98.527 263.013,104.044 268.173,108.024 C273.249,111.94 276.263,115.976 277.36,120.267 C277.737,119.436 277.939,118.55 277.883,117.707 C277.826,116.819 278.184,115.954 278.853,115.369 Z" />
            <path d="M265,146 C261.783,146 258.689,144.796 256.489,142.766 C253.564,143.427 250.286,142.919 247.5,141.31 C244.713,139.701 242.636,137.111 241.746,134.254 C238.887,133.363 236.299,131.286 234.69,128.5 C233.081,125.713 232.577,122.431 233.234,119.511 C231.204,117.311 230,114.217 230,111 C230,107.783 231.204,104.689 233.234,102.489 C232.576,99.569 233.081,96.287 234.69,93.5 C236.299,90.714 238.887,88.636 241.746,87.746 C242.636,84.889 244.713,82.299 247.5,80.69 C250.286,79.083 253.564,78.577 256.489,79.234 C258.689,77.204 261.783,76 265,76 C268.217,76 271.311,77.204 273.511,79.234 C276.439,78.577 279.716,79.083 282.5,80.69 C285.287,82.299 287.364,84.889 288.254,87.746 C291.113,88.637 293.701,90.714 295.31,93.5 C296.919,96.287 297.423,99.569 296.766,102.489 C298.796,104.689 300,107.783 300,111 C300,114.217 298.796,117.311 296.766,119.511 C297.424,122.431 296.919,125.713 295.31,128.5 C293.701,131.286 291.113,133.364 288.254,134.254 C287.364,137.111 285.287,139.701 282.5,141.31 C279.716,142.919 276.439,143.426 273.511,142.766 C271.311,144.796 268.217,146 265,146 Z M259.699,137.817 C260.571,139.046 262.55,140.286 265,140.286 C267.45,140.286 269.429,139.046 270.301,137.817 C271.096,136.7 272.573,136.303 273.82,136.874 C275.187,137.5 277.521,137.587 279.643,136.361 C281.764,135.136 282.859,133.074 283,131.574 C283.129,130.209 284.21,129.129 285.576,128.999 C287.076,128.857 289.137,127.764 290.363,125.641 C291.589,123.519 291.504,121.187 290.877,119.817 C290.307,118.57 290.701,117.093 291.82,116.299 C293.047,115.427 294.286,113.45 294.286,111 C294.286,108.55 293.047,106.573 291.819,105.7 C290.7,104.906 290.304,103.429 290.876,102.181 C291.501,100.811 291.587,98.48 290.361,96.357 C289.137,94.236 287.074,93.143 285.574,93 C284.209,92.87 283.127,91.789 282.999,90.424 C282.857,88.924 281.764,86.863 279.641,85.637 C277.521,84.413 275.187,84.499 273.819,85.124 C272.57,85.696 271.094,85.3 270.3,84.181 C269.429,82.954 267.45,81.714 265,81.714 C262.55,81.714 260.571,82.954 259.699,84.183 C258.906,85.301 257.43,85.699 256.18,85.126 C254.813,84.499 252.476,84.413 250.357,85.639 C248.236,86.864 247.141,88.926 247,90.426 C246.871,91.791 245.79,92.871 244.424,93.001 C242.924,93.143 240.863,94.236 239.637,96.359 C238.411,98.481 238.496,100.813 239.123,102.183 C239.693,103.43 239.299,104.907 238.18,105.701 C236.953,106.573 235.714,108.55 235.714,111 C235.714,113.45 236.953,115.427 238.181,116.3 C239.3,117.094 239.696,118.571 239.124,119.819 C238.499,121.189 238.413,123.52 239.639,125.643 C240.863,127.764 242.926,128.857 244.426,129 C245.791,129.13 246.873,130.211 247.001,131.576 C247.143,133.076 248.236,135.137 250.359,136.363 C252.479,137.587 254.753,137.346 256.181,136.876 C257.927,136.3 259.149,137.043 259.699,137.817 Z" />
        </g>
        <g id="Regular-S">
            <path d="M483.586,103.301 C485.384,105.356 486.429,108.143 486.429,111 C486.429,113.857 485.384,116.644 483.586,118.699 C483.406,121.423 482.174,124.131 480.153,126.153 C478.133,128.174 475.423,129.406 472.699,129.586 C470.646,131.384 467.859,132.429 465,132.429 C462.141,132.429 459.354,131.384 457.301,129.586 C454.577,129.406 451.867,128.174 449.847,126.153 C447.826,124.131 446.594,121.423 446.414,118.699 C444.616,116.644 443.571,113.857 443.571,111 C443.571,108.143 444.616,105.356 446.414,103.301 C446.594,100.577 447.826,97.869 449.847,95.847 C451.867,93.826 454.577,92.594 457.301,92.414 C459.354,90.616 462.141,89.571 465,89.571 C467.859,89.571 470.646,90.616 472.699,92.414 C475.423,92.594 478.133,93.826 480.153,95.847 C482.173,97.869 483.406,100.579 483.586,103.301 Z M449.286,111 C449.286,112.69 449.999,114.363 451.147,115.369 C451.817,115.956 452.176,116.82 452.117,117.707 C452.09,118.111 452.126,118.527 452.204,118.943 C452.246,118.933 452.284,118.914 452.327,118.907 C456.627,118.094 461.174,113.797 463.047,111.149 C458.796,107.197 456.584,102.246 455.859,98.576 C455.14,98.881 454.457,99.321 453.89,99.89 C452.696,101.084 452.016,102.773 452.119,104.294 C452.177,105.183 451.819,106.047 451.149,106.633 C449.999,107.637 449.286,109.31 449.286,111 Z M469.369,124.854 C469.953,124.184 470.807,123.82 471.709,123.884 C471.851,123.893 471.999,123.863 472.143,123.859 C472.13,122.643 472.05,119.363 467.387,114.871 C465.091,117.959 461.039,121.749 456.42,123.61 C457.043,123.804 458.42,123.879 458.483,123.879 C459.303,123.879 460.089,124.233 460.633,124.854 C461.637,126.001 463.31,126.714 465,126.714 C466.69,126.714 468.363,126.001 469.369,124.854 Z M478.853,115.369 C480.001,114.363 480.714,112.69 480.714,111 C480.714,109.31 480.001,107.637 478.853,106.631 C478.183,106.044 477.824,105.18 477.883,104.293 C477.984,102.77 477.306,101.083 476.111,99.889 C474.917,98.694 473.23,98.014 471.707,98.116 C470.809,98.174 469.951,97.816 469.367,97.146 C468.363,95.999 466.69,95.286 465,95.286 C463.643,95.286 462.313,95.761 461.314,96.537 C461.576,98.527 463.013,104.044 468.173,108.024 C473.249,111.94 476.263,115.976 477.36,120.267 C477.737,119.436 477.939,118.55 477.883,117.707 C477.826,116.819 478.184,115.954 478.853,115.369 Z" />
            <path d="M465,146 C461.783,146 458.689,144.796 456.489,142.766 C453.564,143.427 450.286,142.919 447.5,141.31 C444.713,139.701 442.636,137.111 441.746,134.254 C438.887,133.363 436.299,131.286 434.69,128.5 C433.081,125.713 432.577,122.431 433.234,119.511 C431.204,117.311 430,114.217 430,111 C430,107.783 431.204,104.689 433.234,102.489 C432.576,99.569 433.081,96.287 434.69,93.5 C436.299,90.714 438.887,88.636 441.746,87.746 C442.636,84.889 444.713,82.299 447.5,80.69 C450.286,79.083 453.564,78.577 456.489,79.234 C458.689,77.204 461.783,76 465,76 C468.217,76 471.311,77.204 473.511,79.234 C476.439,78.577 479.716,79.083 482.5,80.69 C485.287,82.299 487.364,84.889 488.254,87.746 C491.113,88.637 493.701,90.714 495.31,93.5 C496.919,96.287 497.423,99.569 496.766,102.489 C498.796,104.689 500,107.783 500,111 C500,114.217 498.796,117.311 496.766,119.511 C497.424,122.431 496.919,125.713 495.31,128.5 C493.701,131.286 491.113,133.364 488.254,134.254 C487.364,137.111 485.287,139.701 482.5,141.31 C479.716,142.919 476.439,143.426 473.511,142.766 C471.311,144.796 468.217,146 465,146 Z M459.699,137.817 C460.571,139.046 462.55,140.286 465,140.286 C467.45,140.286 469.429,139.046 470.301,137.817 C471.096,136.7 472.573,136.303 473.82,136.874 C475.187,137.5 477.521,137.587 479.643,136.361 C481.764,135.136 482.859,133.074 483,131.574 C483.129,130.209 484.21,129.129 485.576,128.999 C487.076,128.857 489.137,127.764 490.363,125.641 C491.589,123.519 491.504,121.187 490.877,119.817 C490.307,118.57 490.701,117.093 491.82,116.299 C493.047,115.427 494.286,113.45 494.286,111 C494.286,108.55 493.047,106.573 491.819,105.7 C490.7,104.906 490.304,103.429 490.876,102.181 C491.501,100.811 491.587,98.48 490.361,96.357 C489.137,94.236 487.074,93.143 485.574,93 C484.209,92.87 483.127,91.789 482.999,90.424 C482.857,88.924 481.764,86.863 479.641,85.637 C477.521,84.413 475.187,84.499 473.819,85.124 C472.57,85.696 471.094,85.3 470.3,84.181 C469.429,82.954 467.45,81.714 465,81.714 C462.55,81.714 460.571,82.954 459.699,84.183 C458.906,85.301 457.43,85.699 456.18,85.126 C454.813,84.499 452.476,84.413 450.357,85.639 C448.236,86.864 447.141,88.926 447,90.426 C446.871,91.791 445.79,92.871 444.424,93.001 C442.924,93.143 440.863,94.236 439.637,96.359 C438.411,98.481 438.496,100.813 439.123,102.183 C439.693,103.43 439.299,104.907 438.18,105.701 C436.953,106.573 435.714,108.55 435.714,111 C435.714,113.45 436.953,115.427 438.181,116.3 C439.3,117.094 439.696,118.571 439.124,119.819 C438.499,121.189 438.413,123.52 439.639,125.643 C440.863,127.764 442.926,128.857 444.426,129 C445.791,129.13 446.873,130.211 447.001,131.576 C447.143,133.076 448.236,135.137 450.359,136.363 C452.479,137.587 454.753,137.346 456.181,136.876 C457.927,136.3 459.149,137.043 459.699,137.817 Z" />
        </g>
        <g id="Black-S">
            <path d="M683.586,103.301 C685.384,105.356 686.429,108.143 686.429,111 C686.429,113.857 685.384,116.644 683.586,118.699 C683.406,121.423 682.174,124.131 680.153,126.153 C678.133,128.174 675.423,129.406 672.699,129.586 C670.646,131.384 667.859,132.429 665,132.429 C662.141,132.429 659.354,131.384 657.301,129.586 C654.577,129.406 651.867,128.174 649.847,126.153 C647.826,124.131 646.594,121.423 646.414,118.699 C644.616,116.644 643.571,113.857 643.571,111 C643.571,108.143 644.616,105.356 646.414,103.301 C646.594,100.577 647.826,97.869 649.847,95.847 C651.867,93.826 654.577,92.594 657.301,92.414 C659.354,90.616 662.141,89.571 665,89.571 C667.859,89.571 670.646,90.616 672.699,92.414 C675.423,92.594 678.133,93.826 680.153,95.847 C682.173,97.869 683.406,100.579 683.586,103.301 Z M649.286,111 C649.286,112.69 649.999,114.363 651.147,115.369 C651.817,115.956 652.176,116.82 652.117,117.707 C652.09,118.111 652.126,118.527 652.204,118.943 C652.246,118.933 652.284,118.914 652.327,118.907 C656.627,118.094 661.174,113.797 663.047,111.149 C658.796,107.197 656.584,102.246 655.859,98.576 C655.14,98.881 654.457,99.321 653.89,99.89 C652.696,101.084 652.016,102.773 652.119,104.294 C652.177,105.183 651.819,106.047 651.149,106.633 C649.999,107.637 649.286,109.31 649.286,111 Z M669.369,124.854 C669.953,124.184 670.807,123.82 671.709,123.884 C671.851,123.893 671.999,123.863 672.143,123.859 C672.13,122.643 672.05,119.363 667.387,114.871 C665.091,117.959 661.039,121.749 656.42,123.61 C657.043,123.804 658.42,123.879 658.483,123.879 C659.303,123.879 660.089,124.233 660.633,124.854 C661.637,126.001 663.31,126.714 665,126.714 C666.69,126.714 668.363,126.001 669.369,124.854 Z M678.853,115.369 C680.001,114.363 680.714,112.69 680.714,111 C680.714,109.31 680.001,107.637 678.853,106.631 C678.183,106.044 677.824,105.18 677.883,104.293 C677.984,102.77 677.306,101.083 676.111,99.889 C674.917,98.694 673.23,98.014 671.707,98.116 C670.809,98.174 669.951,97.816 669.367,97.146 C668.363,95.999 666.69,95.286 665,95.286 C663.643,95.286 662.313,95.761 661.314,96.537 C661.576,98.527 663.013,104.044 668.173,108.024 C673.249,111.94 676.263,115.976 677.36,120.267 C677.737,119.436 677.939,118.55 677.883,117.707 C677.826,116.819 678.184,115.954 678.853,115.369 Z" />
            <path d="M665,146 C661.783,146 658.689,144.796 656.489,142.766 C653.564,143.427 650.286,142.919 647.5,141.31 C644.713,139.701 642.636,137.111 641.746,134.254 C638.887,133.363 636.299,131.286 634.69,128.5 C633.081,125.713 632.577,122.431 633.234,119.511 C631.204,117.311 630,114.217 630,111 C630,107.783 631.204,104.689 633.234,102.489 C632.576,99.569 633.081,96.287 634.69,93.5 C636.299,90.714 638.887,88.636 641.746,87.746 C642.636,84.889 644.713,82.299 647.5,80.69 C650.286,79.083 653.564,78.577 656.489,79.234 C658.689,77.204 661.783,76 665,76 C668.217,76 671.311,77.204 673.511,79.234 C676.439,78.577 679.716,79.083 682.5,80.69 C685.287,82.299 687.364,84.889 688.254,87.746 C691.113,88.637 693.701,90.714 695.31,93.5 C696.919,96.287 697.423,99.569 696.766,102.489 C698.796,104.689 700,107.783 700,111 C700,114.217 698.796,117.311 696.766,119.511 C697.424,122.431 696.919,125.713 695.31,128.5 C693.701,131.286 691.113,133.364 688.254,134.254 C687.364,137.111 685.287,139.701 682.5,141.31 C679.716,142.919 676.439,143.426 673.511,142.766 C671.311,144.796 668.217,146 665,146 Z M659.699,137.817 C660.571,139.046 662.55,140.286 665,140.286 C667.45,140.286 669.429,139.046 670.301,137.817 C671.096,136.7 672.573,136.303 673.82,136.874 C675.187,137.5 677.521,137.587 679.643,136.361 C681.764,135.136 682.859,133.074 683,131.574 C683.129,130.209 684.21,129.129 685.576,128.999 C687.076,128.857 689.137,127.764 690.363,125.641 C691.589,123.519 691.504,121.187 690.877,119.817 C690.307,118.57 690.701,117.093 691.82,116.299 C693.047,115.427 694.286,113.45 694.286,111 C694.286,108.55 693.047,106.573 691.819,105.7 C690.7,104.906 690.304,103.429 690.876,102.181 C691.501,100.811 691.587,98.48 690.361,96.357 C689.137,94.236 687.074,93.143 685.574,93 C684.209,92.87 683.127,91.789 682.999,90.424 C682.857,88.924 681.764,86.863 679.641,85.637 C677.521,84.413 675.187,84.499 673.819,85.124 C672.57,85.696 671.094,85.3 670.3,84.181 C669.429,82.954 667.45,81.714 665,81.714 C662.55,81.714 660.571,82.954 659.699,84.183 C658.906,85.301 657.43,85.699 656.18,85.126 C654.813,84.499 652.476,84.413 650.357,85.639 C648.236,86.864 647.141,88.926 647,90.426 C646.871,91.791 645.79,92.871 644.424,93.001 C642.924,93.143 640.863,94.236 639.637,96.359 C638.411,98.481 638.496,100.813 639.123,102.183 C639.693,103.43 639.299,104.907 638.18,105.701 C636.953,106.573 635.714,108.55 635.714,111 C635.714,113.45 636.953,115.427 638.181,116.3 C639.3,117.094 639.696,118.571 639.124,119.819 C638.499,121.189 638.413,123.52 639.639,125.643 C640.863,127.764 642.926,128.857 644.426,129 C645.791,129.13 646.873,130.211 647.001,131.576 C647.143,133.076 648.236,135.137 650.359,136.363 C652.479,137.587 654.753,137.346 656.181,136.876 C657.927,136.3 659.149,137.043 659.699,137.817 Z" />
        </g>
    </g>
</svg>