<?xml version="1.0" encoding="UTF-8"?>
<svg height="600" width="800" xmlns="http://www.w3.org/2000/svg" xmlns:xlink="http://www.w3.org/1999/xlink">
    <g id="Notes" font-family="'LucidaGrande', 'Lucida Grande', sans-serif" font-size="13">
        <rect fill="white" height="600.0" width="800.0" x="0.0" y="0.0" />
        <g font-size="13">
            <text x="18.0" y="176.0">Small</text>
            <text x="18.0" y="376.0">Medium</text>
            <text x="18.0" y="576.0">Large</text>
        </g>
        <g font-size="9">
            <text x="250.0" y="30.0">Ultralight</text>
            <text x="450.0" y="30.0">Regular</text>
            <text x="650.0" y="30.0">Black</text>
            <text id="template-version" fill="#505050" text-anchor="end" x="785.0" y="575.0">Template v.3.0</text>
            <a href="https://wangchujiang.com/#/app">
                <text fill="#505050" text-anchor="end" x="785.0" y="590.0">https://wangchujiang.com/#/app</text>
            </a>
        </g>
    </g>
    <g id="Guides" stroke="rgb(39, 170, 225)" stroke-width="0.5">
        <path id="Capline-S" d="M18,76 l800,0" />
        <path id="H-reference" d="M85,145.755 L87.685,145.755 L113.369,79.287 L114.052,79.287 L114.052,76 L112.148,76 L85,145.755 Z M95.693,121.536 L130.996,121.536 L130.263,119.313 L96.474,119.313 L95.693,121.536 Z M139.15,145.755 L141.787,145.755 L114.638,76 L113.466,76 L113.466,79.287 L139.15,145.755 Z" stroke="none" />
        <path id="Baseline-S" d="M18,146 l800,0" />
        <path id="left-margin-Ultralight-S" d="M220.63,56 l0,110" />
        <path id="right-margin-Ultralight-S" d="M309.37,56 l0,110" />
        <path id="left-margin-Regular-S" d="M420.63,56 l0,110" />
        <path id="right-margin-Regular-S" d="M509.37,56 l0,110" />
        <path id="left-margin-Black-S" d="M620.63,56 l0,110" />
        <path id="right-margin-Black-S" d="M709.37,56 l0,110" />
        <path id="Capline-M" d="M18,276 l800,0" />
        <path id="Baseline-M" d="M18,346 l800,0" />
        <path id="Capline-L" d="M18,476 l800,0" />
        <path id="Baseline-L" d="M18,546 l800,0" />
    </g>
    <g id="Symbols">
        <g id="Ultralight-S">
            <path d="M299.009,95.556 C299.743,96.823 299.323,98.444 298.068,99.198 L288.923,104.686 C288.888,104.707 288.847,104.714 288.813,104.733 L290.08,107.597 C290.398,108.319 290.384,109.142 290.041,109.852 C289.698,110.561 289.061,111.083 288.298,111.28 C282.881,112.678 274.44,116.332 268.42,122.032 C266.279,124.482 251.629,141.252 250.245,142.637 C248.075,144.805 245.188,146 242.118,146 C239.048,146 236.163,144.805 233.994,142.637 C231.824,140.468 230.63,137.582 230.63,134.512 C230.63,131.442 231.826,128.556 233.995,126.386 C235.564,124.817 255.121,108.271 255.172,108.234 C258.773,104.844 261.3,99.673 262.656,92.796 C262.817,91.975 263.354,91.276 264.105,90.907 C264.859,90.539 265.739,90.543 266.487,90.917 L268.924,92.136 C270.84,87.398 272.41,82.753 273.667,77.995 C273.869,77.232 274.398,76.596 275.112,76.258 C275.824,75.92 276.651,75.914 277.37,76.24 L290.784,82.336 C291.294,82.567 291.716,82.952 291.996,83.435 L299.009,95.556 Z M264.846,117.622 C267.855,113.195 270.971,107.744 272.233,99.789 L267.13,97.236 C265.269,104.148 262.182,109.484 257.863,113.053 C256.432,114.235 238.891,129.25 237.788,130.18 C235.143,132.408 235.994,134.512 235.994,134.512 C235.994,134.512 238.777,134.874 240.737,136.844 C241.901,138.015 242.586,139.387 242.719,140.578 C244.127,140.441 245.337,139.742 246.451,138.844 C252.667,133.836 261.364,122.802 264.846,117.622 Z M274.282,111.245 C277.604,109.397 280.955,107.974 283.94,106.98 L280.368,98.9 L277.53,100.604 C277.087,104.284 275.879,107.782 274.282,111.245 Z M279.642,93.08 L284.348,85.303 L278.003,82.419 C276.816,86.474 275.402,90.475 273.741,94.546 L275.627,95.489 L279.642,93.08 Z M286.632,99.804 L293.044,95.957 L288.708,88.461 L284.611,95.231 L286.632,99.804 Z" />
        </g>
        <g id="Regular-S">
            <path d="M499.009,95.556 C499.743,96.823 499.323,98.444 498.068,99.198 L488.923,104.686 C488.888,104.707 488.847,104.714 488.813,104.733 L490.08,107.597 C490.398,108.319 490.384,109.142 490.041,109.852 C489.698,110.561 489.061,111.083 488.298,111.28 C482.881,112.678 474.44,116.332 468.42,122.032 C466.279,124.482 451.629,141.252 450.245,142.637 C448.075,144.805 445.188,146 442.118,146 C439.048,146 436.163,144.805 433.994,142.637 C431.824,140.468 430.63,137.582 430.63,134.512 C430.63,131.442 431.826,128.556 433.995,126.386 C435.564,124.817 455.121,108.271 455.172,108.234 C458.773,104.844 461.3,99.673 462.656,92.796 C462.817,91.975 463.354,91.276 464.105,90.907 C464.859,90.539 465.739,90.543 466.487,90.917 L468.924,92.136 C470.84,87.398 472.41,82.753 473.667,77.995 C473.869,77.232 474.398,76.596 475.112,76.258 C475.824,75.92 476.651,75.914 477.37,76.24 L490.784,82.336 C491.294,82.567 491.716,82.952 491.996,83.435 L499.009,95.556 Z M464.846,117.622 C467.855,113.195 470.971,107.744 472.233,99.789 L467.13,97.236 C465.269,104.148 462.182,109.484 457.863,113.053 C456.432,114.235 438.891,129.25 437.788,130.18 C435.143,132.408 435.994,134.512 435.994,134.512 C435.994,134.512 438.777,134.874 440.737,136.844 C441.901,138.015 442.586,139.387 442.719,140.578 C444.127,140.441 445.337,139.742 446.451,138.844 C452.667,133.836 461.364,122.802 464.846,117.622 Z M474.282,111.245 C477.604,109.397 480.955,107.974 483.94,106.98 L480.368,98.9 L477.53,100.604 C477.087,104.284 475.879,107.782 474.282,111.245 Z M479.642,93.08 L484.348,85.303 L478.003,82.419 C476.816,86.474 475.402,90.475 473.741,94.546 L475.627,95.489 L479.642,93.08 Z M486.632,99.804 L493.044,95.957 L488.708,88.461 L484.611,95.231 L486.632,99.804 Z" />
        </g>
        <g id="Black-S">
            <path d="M699.009,95.556 C699.743,96.823 699.323,98.444 698.068,99.198 L688.923,104.686 C688.888,104.707 688.847,104.714 688.813,104.733 L690.08,107.597 C690.398,108.319 690.384,109.142 690.041,109.852 C689.698,110.561 689.061,111.083 688.298,111.28 C682.881,112.678 674.44,116.332 668.42,122.032 C666.279,124.482 651.629,141.252 650.245,142.637 C648.075,144.805 645.188,146 642.118,146 C639.048,146 636.163,144.805 633.994,142.637 C631.824,140.468 630.63,137.582 630.63,134.512 C630.63,131.442 631.826,128.556 633.995,126.386 C635.564,124.817 655.121,108.271 655.172,108.234 C658.773,104.844 661.3,99.673 662.656,92.796 C662.817,91.975 663.354,91.276 664.105,90.907 C664.859,90.539 665.739,90.543 666.487,90.917 L668.924,92.136 C670.84,87.398 672.41,82.753 673.667,77.995 C673.869,77.232 674.398,76.596 675.112,76.258 C675.824,75.92 676.651,75.914 677.37,76.24 L690.784,82.336 C691.294,82.567 691.716,82.952 691.996,83.435 L699.009,95.556 Z M664.846,117.622 C667.855,113.195 670.971,107.744 672.233,99.789 L667.13,97.236 C665.269,104.148 662.182,109.484 657.863,113.053 C656.432,114.235 638.891,129.25 637.788,130.18 C635.143,132.408 635.994,134.512 635.994,134.512 C635.994,134.512 638.777,134.874 640.737,136.844 C641.901,138.015 642.586,139.387 642.719,140.578 C644.127,140.441 645.337,139.742 646.451,138.844 C652.667,133.836 661.364,122.802 664.846,117.622 Z M674.282,111.245 C677.604,109.397 680.955,107.974 683.94,106.98 L680.368,98.9 L677.53,100.604 C677.087,104.284 675.879,107.782 674.282,111.245 Z M679.642,93.08 L684.348,85.303 L678.003,82.419 C676.816,86.474 675.402,90.475 673.741,94.546 L675.627,95.489 L679.642,93.08 Z M686.632,99.804 L693.044,95.957 L688.708,88.461 L684.611,95.231 L686.632,99.804 Z" />
        </g>
    </g>
</svg>