<?xml version="1.0" encoding="UTF-8"?>
<svg height="600" width="800" xmlns="http://www.w3.org/2000/svg" xmlns:xlink="http://www.w3.org/1999/xlink">
    <g id="Notes" font-family="'LucidaGrande', 'Lucida Grande', sans-serif" font-size="13">
        <rect fill="white" height="600.0" width="800.0" x="0.0" y="0.0" />
        <g font-size="13">
            <text x="18.0" y="176.0">Small</text>
            <text x="18.0" y="376.0">Medium</text>
            <text x="18.0" y="576.0">Large</text>
        </g>
        <g font-size="9">
            <text x="250.0" y="30.0">Ultralight</text>
            <text x="450.0" y="30.0">Regular</text>
            <text x="650.0" y="30.0">Black</text>
            <text id="template-version" fill="#505050" text-anchor="end" x="785.0" y="575.0">Template v.3.0</text>
            <a href="https://wangchujiang.com/#/app">
                <text fill="#505050" text-anchor="end" x="785.0" y="590.0">https://wangchujiang.com/#/app</text>
            </a>
        </g>
    </g>
    <g id="Guides" stroke="rgb(39, 170, 225)" stroke-width="0.5">
        <path id="Capline-S" d="M18,76 l800,0" />
        <path id="H-reference" d="M85,145.755 L87.685,145.755 L113.369,79.287 L114.052,79.287 L114.052,76 L112.148,76 L85,145.755 Z M95.693,121.536 L130.996,121.536 L130.263,119.313 L96.474,119.313 L95.693,121.536 Z M139.15,145.755 L141.787,145.755 L114.638,76 L113.466,76 L113.466,79.287 L139.15,145.755 Z" stroke="none" />
        <path id="Baseline-S" d="M18,146 l800,0" />
        <path id="left-margin-Ultralight-S" d="M221,56 l0,110" />
        <path id="right-margin-Ultralight-S" d="M309,56 l0,110" />
        <path id="left-margin-Regular-S" d="M421,56 l0,110" />
        <path id="right-margin-Regular-S" d="M509,56 l0,110" />
        <path id="left-margin-Black-S" d="M621,56 l0,110" />
        <path id="right-margin-Black-S" d="M709,56 l0,110" />
        <path id="Capline-M" d="M18,276 l800,0" />
        <path id="Baseline-M" d="M18,346 l800,0" />
        <path id="Capline-L" d="M18,476 l800,0" />
        <path id="Baseline-L" d="M18,546 l800,0" />
    </g>
    <g id="Symbols">
        <g id="Ultralight-S">
            <path d="M265,76 C261.009,76 257.195,77.711 254.537,80.696 C252.422,83.072 251.198,86.096 251.027,89.244 C245.07,90.901 240.818,96.336 240.818,102.727 C240.818,107.884 243.629,112.386 247.791,114.816 L262.725,144.596 C263.158,145.457 264.037,146 265,146 C265.963,146 266.843,145.457 267.277,144.596 L282.209,114.816 C286.371,112.386 289.182,107.884 289.182,102.727 C289.182,96.336 284.93,90.901 278.973,89.244 C278.802,86.096 277.578,83.071 275.463,80.696 C272.805,77.711 268.991,76 265,76 Z M265,81.091 C267.54,81.091 269.968,82.181 271.662,84.084 C273.367,85.999 274.14,88.469 273.842,91.042 C273.763,91.717 273.96,92.398 274.386,92.928 C274.81,93.46 275.432,93.795 276.109,93.865 C280.659,94.334 284.091,98.144 284.091,102.727 C284.091,107.64 280.093,111.636 275.182,111.636 C271.836,111.636 268.8,109.781 267.262,106.794 C266.827,105.946 265.953,105.414 265,105.414 C264.047,105.414 263.173,105.946 262.738,106.794 C261.2,109.781 258.164,111.636 254.818,111.636 C249.907,111.636 245.909,107.64 245.909,102.727 C245.909,98.155 249.324,94.355 253.859,93.87 C253.861,93.87 253.864,93.871 253.866,93.87 C254.18,93.84 254.494,93.818 254.818,93.818 C258.168,93.818 261.202,95.673 262.735,98.661 C263.187,99.539 264.077,100.043 265.003,100.043 C265.395,100.043 265.792,99.953 266.163,99.762 C267.413,99.119 267.907,97.584 267.265,96.334 C265.064,92.052 260.898,89.258 256.183,88.802 C256.411,87.06 257.139,85.431 258.341,84.081 C260.033,82.18 262.46,81.091 265,81.091 Z M265,112.332 C267.604,115.106 271.255,116.727 275.182,116.727 C275.311,116.727 275.436,116.711 275.565,116.707 L265,137.775 L254.438,116.707 C254.565,116.711 254.69,116.727 254.818,116.727 C258.745,116.727 262.396,115.106 265,112.332 Z" />
        </g>
        <g id="Regular-S">
            <path d="M465,76 C461.009,76 457.195,77.711 454.537,80.696 C452.422,83.072 451.198,86.096 451.027,89.244 C445.07,90.901 440.818,96.336 440.818,102.727 C440.818,107.884 443.629,112.386 447.791,114.816 L462.725,144.596 C463.158,145.457 464.037,146 465,146 C465.963,146 466.843,145.457 467.277,144.596 L482.209,114.816 C486.371,112.386 489.182,107.884 489.182,102.727 C489.182,96.336 484.93,90.901 478.973,89.244 C478.802,86.096 477.578,83.071 475.463,80.696 C472.805,77.711 468.991,76 465,76 Z M465,81.091 C467.54,81.091 469.968,82.181 471.662,84.084 C473.367,85.999 474.14,88.469 473.842,91.042 C473.763,91.717 473.96,92.398 474.386,92.928 C474.81,93.46 475.432,93.795 476.109,93.865 C480.659,94.334 484.091,98.144 484.091,102.727 C484.091,107.64 480.093,111.636 475.182,111.636 C471.836,111.636 468.8,109.781 467.262,106.794 C466.827,105.946 465.953,105.414 465,105.414 C464.047,105.414 463.173,105.946 462.738,106.794 C461.2,109.781 458.164,111.636 454.818,111.636 C449.907,111.636 445.909,107.64 445.909,102.727 C445.909,98.155 449.324,94.355 453.859,93.87 C453.861,93.87 453.864,93.871 453.866,93.87 C454.18,93.84 454.494,93.818 454.818,93.818 C458.168,93.818 461.202,95.673 462.735,98.661 C463.187,99.539 464.077,100.043 465.003,100.043 C465.395,100.043 465.792,99.953 466.163,99.762 C467.413,99.119 467.907,97.584 467.265,96.334 C465.064,92.052 460.898,89.258 456.183,88.802 C456.411,87.06 457.139,85.431 458.341,84.081 C460.033,82.18 462.46,81.091 465,81.091 Z M465,112.332 C467.604,115.106 471.255,116.727 475.182,116.727 C475.311,116.727 475.436,116.711 475.565,116.707 L465,137.775 L454.438,116.707 C454.565,116.711 454.69,116.727 454.818,116.727 C458.745,116.727 462.396,115.106 465,112.332 Z" />
        </g>
        <g id="Black-S">
            <path d="M665,76 C661.009,76 657.195,77.711 654.537,80.696 C652.422,83.072 651.198,86.096 651.027,89.244 C645.07,90.901 640.818,96.336 640.818,102.727 C640.818,107.884 643.629,112.386 647.791,114.816 L662.725,144.596 C663.158,145.457 664.036,146 665,146 C665.963,146 666.843,145.457 667.277,144.596 L682.209,114.816 C686.371,112.386 689.182,107.884 689.182,102.727 C689.182,96.336 684.93,90.901 678.973,89.244 C678.802,86.096 677.578,83.071 675.463,80.696 C672.805,77.711 668.991,76 665,76 Z M665,81.091 C667.54,81.091 669.968,82.181 671.662,84.084 C673.367,85.999 674.14,88.469 673.842,91.042 C673.763,91.717 673.96,92.398 674.386,92.928 C674.81,93.46 675.432,93.795 676.109,93.865 C680.659,94.334 684.091,98.144 684.091,102.727 C684.091,107.64 680.093,111.636 675.182,111.636 C671.836,111.636 668.799,109.781 667.262,106.794 C666.827,105.946 665.953,105.414 665,105.414 C664.047,105.414 663.173,105.946 662.738,106.794 C661.2,109.781 658.164,111.636 654.818,111.636 C649.907,111.636 645.909,107.64 645.909,102.727 C645.909,98.155 649.324,94.355 653.859,93.87 C653.861,93.87 653.864,93.871 653.866,93.87 C654.18,93.84 654.494,93.818 654.818,93.818 C658.168,93.818 661.202,95.673 662.735,98.661 C663.187,99.539 664.077,100.043 665.002,100.043 C665.394,100.043 665.792,99.953 666.163,99.762 C667.413,99.119 667.907,97.584 667.265,96.334 C665.064,92.052 660.898,89.258 656.183,88.802 C656.41,87.06 657.139,85.431 658.341,84.081 C660.033,82.18 662.46,81.091 665,81.091 Z M665,112.332 C667.604,115.106 671.255,116.727 675.182,116.727 C675.311,116.727 675.436,116.711 675.565,116.707 L665,137.775 L654.438,116.707 C654.565,116.711 654.69,116.727 654.818,116.727 C658.745,116.727 662.396,115.106 665,112.332 Z" />
        </g>
    </g>
</svg>