<?xml version="1.0" encoding="UTF-8"?>
<svg height="600" width="800" xmlns="http://www.w3.org/2000/svg" xmlns:xlink="http://www.w3.org/1999/xlink">
    <g id="Notes" font-family="'LucidaGrande', 'Lucida Grande', sans-serif" font-size="13">
        <rect fill="white" height="600.0" width="800.0" x="0.0" y="0.0" />
        <g font-size="13">
            <text x="18.0" y="176.0">Small</text>
            <text x="18.0" y="376.0">Medium</text>
            <text x="18.0" y="576.0">Large</text>
        </g>
        <g font-size="9">
            <text x="250.0" y="30.0">Ultralight</text>
            <text x="450.0" y="30.0">Regular</text>
            <text x="650.0" y="30.0">Black</text>
            <text id="template-version" fill="#505050" text-anchor="end" x="785.0" y="575.0">Template v.3.0</text>
            <a href="https://wangchujiang.com/#/app">
                <text fill="#505050" text-anchor="end" x="785.0" y="590.0">https://wangchujiang.com/#/app</text>
            </a>
        </g>
    </g>
    <g id="Guides" stroke="rgb(39, 170, 225)" stroke-width="0.5">
        <path id="Capline-S" d="M18,76 l800,0" />
        <path id="H-reference" d="M85,145.755 L87.685,145.755 L113.369,79.287 L114.052,79.287 L114.052,76 L112.148,76 L85,145.755 Z M95.693,121.536 L130.996,121.536 L130.263,119.313 L96.474,119.313 L95.693,121.536 Z M139.15,145.755 L141.787,145.755 L114.638,76 L113.466,76 L113.466,79.287 L139.15,145.755 Z" stroke="none" />
        <path id="Baseline-S" d="M18,146 l800,0" />
        <path id="left-margin-Ultralight-S" d="M221,56 l0,110" />
        <path id="right-margin-Ultralight-S" d="M309,56 l0,110" />
        <path id="left-margin-Regular-S" d="M421,56 l0,110" />
        <path id="right-margin-Regular-S" d="M509,56 l0,110" />
        <path id="left-margin-Black-S" d="M621,56 l0,110" />
        <path id="right-margin-Black-S" d="M709,56 l0,110" />
        <path id="Capline-M" d="M18,276 l800,0" />
        <path id="Baseline-M" d="M18,346 l800,0" />
        <path id="Capline-L" d="M18,476 l800,0" />
        <path id="Baseline-L" d="M18,546 l800,0" />
    </g>
    <g id="Symbols">
        <g id="Ultralight-S">
            <path d="M244.836,145.122 C243.303,145.122 241.844,144.752 240.561,144.011 C235.44,141.055 234.501,133.421 238.421,126.631 C240.212,123.53 242.779,121.088 245.649,119.756 C248.762,118.313 252.001,118.329 254.543,119.795 C257.085,121.263 258.718,124.063 259.023,127.478 C259.305,130.631 258.475,134.073 256.684,137.175 C254.892,140.276 252.325,142.719 249.455,144.05 C247.913,144.764 246.339,145.122 244.836,145.122 Z M250.275,123.477 C249.246,123.477 248.283,123.827 247.67,124.111 C245.716,125.017 243.861,126.811 242.579,129.031 C240.09,133.341 240.266,138.296 242.961,139.852 C244.562,140.775 246.449,140.149 247.432,139.693 C249.386,138.787 251.241,136.993 252.523,134.773 C253.806,132.553 254.43,130.05 254.238,127.904 C254.142,126.825 253.74,124.876 252.141,123.952 L252.141,123.952 C251.539,123.604 250.895,123.477 250.275,123.477 Z" />
            <path d="M273.149,146 C267.378,146 262.856,139.877 262.856,132.061 C262.856,124.246 267.378,118.124 273.149,118.124 C278.92,118.124 283.442,124.247 283.442,132.061 C283.441,139.878 278.92,146 273.149,146 Z M273.149,122.911 C270.112,122.911 267.544,127.1 267.544,132.061 C267.544,137.023 270.112,141.214 273.149,141.214 C276.187,141.214 278.754,137.023 278.754,132.061 C278.754,127.1 276.187,122.911 273.149,122.911 Z" />
            <path d="M291.972,107.87 C293.294,108.092 294.184,109.342 293.964,110.663 C293.742,111.982 292.5,112.877 291.17,112.653 C269.894,109.079 256.129,124.007 255.994,124.158 C255.515,124.688 253.532,124.612 253.07,124.195 C252.075,123.3 251.492,121.914 252.385,120.917 C252.586,120.693 254.275,118.852 257.258,116.59 C255.442,115.813 253.606,114.909 251.817,113.877 C241.871,108.135 237.825,96.877 237.658,96.4 C237.424,95.733 237.492,94.997 237.845,94.384 C238.199,93.771 238.803,93.343 239.496,93.213 C239.987,93.119 251.454,91.063 261.316,96.528 C261.854,85.654 269.003,77.174 269.32,76.806 C270.241,75.731 272.078,75.731 273,76.806 C273.329,77.189 281.057,86.322 281.057,97.806 C281.057,101.626 280.435,104.776 279.664,107.502 C283.441,107.083 287.553,107.128 291.972,107.87 Z M271.168,82.513 C269.127,85.661 265.53,91.358 266.172,99.619 C269.807,102.249 272.719,105.127 274.491,107.867 C275.41,105.024 276.209,101.857 276.209,97.806 C276.209,91.364 273.206,85.651 271.168,82.513 Z M254.244,109.677 C256.892,111.206 259.641,112.451 262.217,113.299 C264.437,112.017 267.012,110.779 269.903,109.754 C267.755,106.846 263.84,103.562 259.291,100.936 C253.739,97.731 247.268,97.469 243.528,97.663 C245.235,101.004 248.693,106.472 254.244,109.677 Z" />
        </g>
        <g id="Regular-S">
            <path d="M444.836,145.122 C443.303,145.122 441.844,144.752 440.561,144.011 C435.44,141.055 434.501,133.421 438.421,126.631 C440.212,123.53 442.779,121.088 445.649,119.756 C448.762,118.313 452.001,118.329 454.543,119.795 C457.085,121.263 458.718,124.063 459.023,127.478 C459.305,130.631 458.475,134.073 456.684,137.175 C454.892,140.276 452.325,142.719 449.455,144.05 C447.913,144.764 446.339,145.122 444.836,145.122 Z M450.275,123.477 C449.246,123.477 448.283,123.827 447.67,124.111 C445.716,125.017 443.861,126.811 442.579,129.031 C440.09,133.341 440.266,138.296 442.961,139.852 C444.562,140.775 446.449,140.149 447.432,139.693 C449.386,138.787 451.241,136.993 452.523,134.773 C453.806,132.553 454.43,130.05 454.238,127.904 C454.142,126.825 453.74,124.876 452.141,123.952 L452.141,123.952 C451.539,123.604 450.895,123.477 450.275,123.477 Z" />
            <path d="M473.149,146 C467.378,146 462.856,139.877 462.856,132.061 C462.856,124.246 467.378,118.124 473.149,118.124 C478.92,118.124 483.443,124.247 483.443,132.061 C483.441,139.878 478.92,146 473.149,146 Z M473.149,122.911 C470.112,122.911 467.544,127.1 467.544,132.061 C467.544,137.023 470.112,141.214 473.149,141.214 C476.187,141.214 478.754,137.023 478.754,132.061 C478.754,127.1 476.187,122.911 473.149,122.911 Z" />
            <path d="M491.972,107.87 C493.294,108.092 494.184,109.342 493.964,110.663 C493.742,111.982 492.5,112.877 491.17,112.653 C469.894,109.079 456.129,124.007 455.994,124.158 C455.515,124.688 453.532,124.612 453.07,124.195 C452.075,123.3 451.492,121.914 452.385,120.917 C452.586,120.693 454.275,118.852 457.258,116.59 C455.442,115.813 453.606,114.909 451.817,113.877 C441.871,108.135 437.825,96.877 437.658,96.4 C437.424,95.733 437.492,94.997 437.845,94.384 C438.199,93.771 438.803,93.343 439.496,93.213 C439.987,93.119 451.454,91.063 461.316,96.528 C461.854,85.654 469.003,77.174 469.32,76.806 C470.241,75.731 472.078,75.731 473,76.806 C473.329,77.189 481.057,86.322 481.057,97.806 C481.057,101.626 480.435,104.776 479.664,107.502 C483.441,107.083 487.553,107.128 491.972,107.87 Z M471.168,82.513 C469.127,85.661 465.53,91.358 466.172,99.619 C469.807,102.249 472.719,105.127 474.491,107.867 C475.41,105.024 476.209,101.857 476.209,97.806 C476.209,91.364 473.206,85.651 471.168,82.513 Z M454.244,109.677 C456.892,111.206 459.641,112.451 462.217,113.299 C464.437,112.017 467.012,110.779 469.903,109.754 C467.755,106.846 463.84,103.562 459.291,100.936 C453.739,97.731 447.268,97.469 443.528,97.663 C445.235,101.004 448.693,106.472 454.244,109.677 Z" />
        </g>
        <g id="Black-S">
            <path d="M644.836,145.122 C643.303,145.122 641.844,144.752 640.561,144.011 C635.44,141.055 634.501,133.421 638.421,126.631 C640.212,123.53 642.779,121.088 645.649,119.756 C648.762,118.313 652.001,118.329 654.543,119.795 C657.085,121.263 658.718,124.063 659.023,127.478 C659.305,130.631 658.475,134.073 656.684,137.175 C654.892,140.276 652.325,142.719 649.455,144.05 C647.913,144.764 646.339,145.122 644.836,145.122 Z M650.275,123.477 C649.246,123.477 648.283,123.827 647.67,124.111 C645.716,125.017 643.861,126.811 642.579,129.031 C640.091,133.341 640.266,138.296 642.961,139.852 C644.562,140.775 646.449,140.149 647.432,139.693 C649.386,138.787 651.241,136.993 652.523,134.773 C653.806,132.553 654.43,130.05 654.238,127.904 C654.142,126.825 653.74,124.876 652.141,123.952 L652.141,123.952 C651.539,123.604 650.895,123.477 650.275,123.477 Z" />
            <path d="M673.149,146 C667.378,146 662.856,139.877 662.856,132.061 C662.856,124.246 667.378,118.124 673.149,118.124 C678.92,118.124 683.443,124.247 683.443,132.061 C683.441,139.878 678.92,146 673.149,146 Z M673.149,122.911 C670.112,122.911 667.544,127.1 667.544,132.061 C667.544,137.023 670.112,141.214 673.149,141.214 C676.187,141.214 678.754,137.023 678.754,132.061 C678.754,127.1 676.187,122.911 673.149,122.911 Z" />
            <path d="M691.972,107.87 C693.294,108.092 694.184,109.342 693.964,110.663 C693.742,111.982 692.5,112.877 691.17,112.653 C669.894,109.079 656.129,124.007 655.994,124.158 C655.515,124.688 653.532,124.612 653.07,124.195 C652.075,123.3 651.492,121.914 652.385,120.917 C652.586,120.693 654.275,118.852 657.258,116.59 C655.442,115.813 653.606,114.909 651.817,113.877 C641.871,108.135 637.825,96.877 637.658,96.4 C637.424,95.733 637.492,94.997 637.845,94.384 C638.199,93.771 638.803,93.343 639.496,93.213 C639.987,93.119 651.454,91.063 661.316,96.528 C661.854,85.654 669.003,77.174 669.32,76.806 C670.241,75.731 672.078,75.731 673,76.806 C673.329,77.189 681.057,86.322 681.057,97.806 C681.057,101.626 680.435,104.776 679.664,107.502 C683.441,107.083 687.553,107.128 691.972,107.87 Z M671.168,82.513 C669.127,85.661 665.53,91.358 666.172,99.619 C669.807,102.249 672.719,105.127 674.491,107.867 C675.41,105.024 676.209,101.857 676.209,97.806 C676.209,91.364 673.206,85.651 671.168,82.513 Z M654.244,109.677 C656.892,111.206 659.641,112.451 662.217,113.299 C664.437,112.017 667.012,110.779 669.903,109.754 C667.755,106.846 663.84,103.562 659.291,100.936 C653.739,97.731 647.268,97.469 643.528,97.663 C645.235,101.004 648.693,106.472 654.244,109.677 Z" />
        </g>
    </g>
</svg>