<?xml version="1.0" encoding="UTF-8"?>
<svg height="600" width="800" xmlns="http://www.w3.org/2000/svg" xmlns:xlink="http://www.w3.org/1999/xlink">
    <g id="Notes" font-family="'LucidaGrande', 'Lucida Grande', sans-serif" font-size="13">
        <rect fill="white" height="600.0" width="800.0" x="0.0" y="0.0" />
        <g font-size="13">
            <text x="18.0" y="176.0">Small</text>
            <text x="18.0" y="376.0">Medium</text>
            <text x="18.0" y="576.0">Large</text>
        </g>
        <g font-size="9">
            <text x="250.0" y="30.0">Ultralight</text>
            <text x="450.0" y="30.0">Regular</text>
            <text x="650.0" y="30.0">Black</text>
            <text id="template-version" fill="#505050" text-anchor="end" x="785.0" y="575.0">Template v.3.0</text>
            <a href="https://wangchujiang.com/#/app">
                <text fill="#505050" text-anchor="end" x="785.0" y="590.0">https://wangchujiang.com/#/app</text>
            </a>
        </g>
    </g>
    <g id="Guides" stroke="rgb(39, 170, 225)" stroke-width="0.5">
        <path id="Capline-S" d="M18,76 l800,0" />
        <path id="H-reference" d="M85,145.755 L87.685,145.755 L113.369,79.287 L114.052,79.287 L114.052,76 L112.148,76 L85,145.755 Z M95.693,121.536 L130.996,121.536 L130.263,119.313 L96.474,119.313 L95.693,121.536 Z M139.15,145.755 L141.787,145.755 L114.638,76 L113.466,76 L113.466,79.287 L139.15,145.755 Z" stroke="none" />
        <path id="Baseline-S" d="M18,146 l800,0" />
        <path id="left-margin-Ultralight-S" d="M221,56 l0,110" />
        <path id="right-margin-Ultralight-S" d="M309,56 l0,110" />
        <path id="left-margin-Regular-S" d="M421,56 l0,110" />
        <path id="right-margin-Regular-S" d="M509,56 l0,110" />
        <path id="left-margin-Black-S" d="M621,56 l0,110" />
        <path id="right-margin-Black-S" d="M709,56 l0,110" />
        <path id="Capline-M" d="M18,276 l800,0" />
        <path id="Baseline-M" d="M18,346 l800,0" />
        <path id="Capline-L" d="M18,476 l800,0" />
        <path id="Baseline-L" d="M18,546 l800,0" />
    </g>
    <g id="Symbols">
        <g id="Ultralight-S">
            <path d="M251.834,76.017 C251.274,75.954 250.696,76.066 250.182,76.359 C245.802,78.862 239.978,83.448 239.978,94.348 C239.978,102.359 245.039,105.98 248.736,108.622 C251.912,110.892 253.57,112.194 253.57,114.736 C253.57,118.416 250.718,118.813 249.492,118.813 C246.748,118.813 245.415,117.034 245.415,113.376 C245.415,112.22 244.682,111.189 243.588,110.809 C242.49,110.429 241.28,110.784 240.562,111.693 C236.286,117.107 234.871,123.388 236.468,129.854 C238.338,137.427 243.96,143.601 248.388,145.671 C248.42,145.688 248.453,145.702 248.486,145.719 C248.517,145.732 248.549,145.75 248.579,145.764 C248.597,145.772 248.616,145.775 248.635,145.782 C248.77,145.839 248.91,145.883 249.054,145.918 C249.093,145.927 249.132,145.939 249.171,145.947 C249.338,145.979 249.508,146 249.683,146 C283.49,146 291.986,121.939 294.041,107.597 C294.565,103.944 293.474,100.243 291.046,97.443 C289.133,95.237 286.548,93.777 283.727,93.235 L283.727,84.836 C283.727,83.335 282.509,82.117 281.009,82.117 C279.508,82.117 278.29,83.335 278.29,84.836 L278.29,93.296 C277.56,93.456 276.85,93.675 276.169,93.955 C274.298,88.091 268.723,83.36 260.467,80.875 C259.456,80.569 258.348,80.883 257.645,81.679 C256.942,82.477 256.769,83.609 257.202,84.581 C258.822,88.225 258.757,91.118 258.014,92.261 C257.872,92.48 257.541,92.991 256.288,92.991 C255.02,92.991 254.163,92.071 253.671,91.297 C252.343,89.223 251.635,84.984 254,79.858 C254.495,78.784 254.241,77.514 253.368,76.715 C252.932,76.316 252.393,76.08 251.834,76.017 Z M247.013,86.726 C247.049,89.523 247.743,92.119 249.091,94.225 C250.8,96.896 253.423,98.428 256.288,98.428 C258.999,98.428 261.229,97.29 262.572,95.221 C263.778,93.368 264.191,90.856 263.822,88.043 C268.317,90.379 270.944,93.646 271.348,97.416 C269.687,99.32 268.555,101.715 268.229,104.39 C267.102,113.679 263.172,130.399 249.553,140.085 C246.742,138.176 243.036,133.771 241.746,128.551 C241.058,125.763 241.11,123.081 241.895,120.52 C243.747,123.186 246.679,124.253 249.492,124.253 C254.074,124.253 259.007,121.276 259.007,114.738 C259.007,109.281 255.229,106.58 251.897,104.199 C248.418,101.712 245.415,99.564 245.415,94.35 C245.415,91.088 246.023,88.636 247.013,86.726 Z M281.009,98.428 C281.01,98.428 281.011,98.428 281.011,98.428 L281.29,98.428 C283.458,98.428 285.518,99.368 286.937,101.006 C288.333,102.613 288.96,104.735 288.66,106.827 C286.69,120.565 279.664,136.658 258.109,139.955 C269.096,129.015 272.547,113.927 273.626,105.049 C273.851,103.195 274.738,101.571 276.021,100.392 C276.05,100.365 276.078,100.336 276.106,100.307 C277.422,99.135 279.144,98.429 281.009,98.428 Z" />
        </g>
        <g id="Regular-S">
            <path d="M451.834,76.017 C451.274,75.954 450.696,76.066 450.182,76.359 C445.802,78.862 439.978,83.448 439.978,94.348 C439.978,102.359 445.039,105.98 448.736,108.622 C451.912,110.892 453.57,112.194 453.57,114.736 C453.57,118.416 450.718,118.813 449.492,118.813 C446.748,118.813 445.415,117.034 445.415,113.376 C445.415,112.22 444.682,111.189 443.588,110.809 C442.49,110.429 441.28,110.784 440.562,111.693 C436.286,117.107 434.871,123.388 436.468,129.854 C438.338,137.427 443.96,143.601 448.388,145.671 C448.42,145.688 448.453,145.702 448.486,145.719 C448.517,145.732 448.549,145.75 448.579,145.764 C448.597,145.772 448.616,145.775 448.635,145.782 C448.77,145.839 448.91,145.883 449.054,145.918 C449.093,145.927 449.132,145.939 449.171,145.947 C449.338,145.979 449.508,146 449.683,146 C483.49,146 491.986,121.939 494.041,107.597 C494.565,103.944 493.474,100.243 491.046,97.443 C489.133,95.237 486.548,93.777 483.727,93.235 L483.727,84.836 C483.727,83.335 482.509,82.117 481.009,82.117 C479.508,82.117 478.29,83.335 478.29,84.836 L478.29,93.296 C477.56,93.456 476.85,93.675 476.169,93.955 C474.298,88.091 468.723,83.36 460.467,80.875 C459.456,80.569 458.348,80.883 457.645,81.679 C456.942,82.477 456.769,83.609 457.201,84.581 C458.822,88.225 458.757,91.118 458.014,92.261 C457.872,92.48 457.541,92.991 456.288,92.991 C455.02,92.991 454.163,92.071 453.671,91.297 C452.343,89.223 451.635,84.984 454,79.858 C454.495,78.784 454.241,77.514 453.368,76.715 C452.932,76.316 452.393,76.08 451.834,76.017 Z M447.013,86.726 C447.049,89.523 447.743,92.119 449.091,94.225 C450.8,96.896 453.423,98.428 456.288,98.428 C458.999,98.428 461.229,97.29 462.572,95.221 C463.778,93.368 464.191,90.856 463.822,88.043 C468.317,90.379 470.944,93.646 471.348,97.416 C469.687,99.32 468.555,101.715 468.229,104.39 C467.102,113.679 463.172,130.399 449.553,140.085 C446.742,138.176 443.036,133.771 441.746,128.551 C441.058,125.763 441.11,123.081 441.895,120.52 C443.747,123.186 446.679,124.253 449.492,124.253 C454.074,124.253 459.007,121.276 459.007,114.738 C459.007,109.281 455.229,106.58 451.897,104.199 C448.418,101.712 445.415,99.564 445.415,94.35 C445.415,91.088 446.023,88.636 447.013,86.726 Z M481.009,98.428 C481.01,98.428 481.011,98.428 481.011,98.428 L481.29,98.428 C483.458,98.428 485.518,99.368 486.937,101.006 C488.333,102.613 488.96,104.735 488.66,106.827 C486.69,120.565 479.664,136.658 458.109,139.955 C469.096,129.015 472.547,113.927 473.626,105.049 C473.851,103.195 474.738,101.571 476.021,100.392 C476.05,100.365 476.078,100.336 476.106,100.307 C477.422,99.135 479.144,98.429 481.009,98.428 Z" />
        </g>
        <g id="Black-S">
            <path d="M651.834,76.017 C651.274,75.954 650.696,76.066 650.182,76.359 C645.802,78.862 639.978,83.448 639.978,94.348 C639.978,102.359 645.039,105.98 648.736,108.622 C651.912,110.892 653.57,112.194 653.57,114.736 C653.57,118.416 650.718,118.813 649.492,118.813 C646.748,118.813 645.415,117.034 645.415,113.376 C645.415,112.22 644.682,111.189 643.588,110.809 C642.49,110.429 641.28,110.784 640.562,111.693 C636.286,117.107 634.871,123.388 636.468,129.854 C638.338,137.427 643.96,143.601 648.388,145.671 C648.42,145.688 648.453,145.702 648.486,145.719 C648.517,145.732 648.549,145.75 648.579,145.764 C648.597,145.772 648.616,145.775 648.635,145.782 C648.77,145.839 648.91,145.883 649.054,145.918 C649.093,145.927 649.132,145.939 649.171,145.947 C649.338,145.979 649.508,146 649.683,146 C683.49,146 691.986,121.939 694.041,107.597 C694.565,103.944 693.474,100.243 691.046,97.443 C689.133,95.237 686.548,93.777 683.727,93.235 L683.727,84.836 C683.727,83.335 682.509,82.117 681.009,82.117 C679.508,82.117 678.29,83.335 678.29,84.836 L678.29,93.296 C677.56,93.456 676.85,93.675 676.169,93.955 C674.298,88.091 668.723,83.36 660.467,80.875 C659.456,80.569 658.348,80.883 657.645,81.679 C656.942,82.477 656.769,83.609 657.201,84.581 C658.822,88.225 658.757,91.118 658.014,92.261 C657.872,92.48 657.541,92.991 656.288,92.991 C655.02,92.991 654.163,92.071 653.671,91.297 C652.343,89.223 651.635,84.984 654,79.858 C654.495,78.784 654.241,77.514 653.368,76.715 C652.932,76.316 652.393,76.08 651.834,76.017 Z M647.013,86.726 C647.049,89.523 647.743,92.119 649.091,94.225 C650.8,96.896 653.423,98.428 656.288,98.428 C658.999,98.428 661.229,97.29 662.572,95.221 C663.778,93.368 664.191,90.856 663.822,88.043 C668.317,90.379 670.944,93.646 671.348,97.416 C669.687,99.32 668.555,101.715 668.229,104.39 C667.102,113.679 663.172,130.399 649.553,140.085 C646.742,138.176 643.036,133.771 641.746,128.551 C641.058,125.763 641.11,123.081 641.895,120.52 C643.747,123.186 646.679,124.253 649.492,124.253 C654.074,124.253 659.007,121.276 659.007,114.738 C659.007,109.281 655.229,106.58 651.897,104.199 C648.418,101.712 645.415,99.564 645.415,94.35 C645.415,91.088 646.023,88.636 647.013,86.726 Z M681.009,98.428 C681.01,98.428 681.011,98.428 681.011,98.428 L681.29,98.428 C683.458,98.428 685.518,99.368 686.937,101.006 C688.333,102.613 688.96,104.735 688.66,106.827 C686.69,120.565 679.664,136.658 658.109,139.955 C669.096,129.015 672.547,113.927 673.626,105.049 C673.851,103.195 674.738,101.571 676.021,100.392 C676.05,100.365 676.078,100.336 676.106,100.307 C677.422,99.135 679.144,98.429 681.009,98.428 Z" />
        </g>
    </g>
</svg>