<?xml version="1.0" encoding="UTF-8"?>
<svg height="600" width="800" xmlns="http://www.w3.org/2000/svg" xmlns:xlink="http://www.w3.org/1999/xlink">
    <g id="Notes" font-family="'LucidaGrande', 'Lucida Grande', sans-serif" font-size="13">
        <rect fill="white" height="600.0" width="800.0" x="0.0" y="0.0" />
        <g font-size="13">
            <text x="18.0" y="176.0">Small</text>
            <text x="18.0" y="376.0">Medium</text>
            <text x="18.0" y="576.0">Large</text>
        </g>
        <g font-size="9">
            <text x="250.0" y="30.0">Ultralight</text>
            <text x="450.0" y="30.0">Regular</text>
            <text x="650.0" y="30.0">Black</text>
            <text id="template-version" fill="#505050" text-anchor="end" x="785.0" y="575.0">Template v.3.0</text>
            <a href="https://wangchujiang.com/#/app">
                <text fill="#505050" text-anchor="end" x="785.0" y="590.0">https://wangchujiang.com/#/app</text>
            </a>
        </g>
    </g>
    <g id="Guides" stroke="rgb(39, 170, 225)" stroke-width="0.5">
        <path id="Capline-S" d="M18,76 l800,0" />
        <path id="H-reference" d="M85,145.755 L87.685,145.755 L113.369,79.287 L114.052,79.287 L114.052,76 L112.148,76 L85,145.755 Z M95.693,121.536 L130.996,121.536 L130.263,119.313 L96.474,119.313 L95.693,121.536 Z M139.15,145.755 L141.787,145.755 L114.638,76 L113.466,76 L113.466,79.287 L139.15,145.755 Z" stroke="none" />
        <path id="Baseline-S" d="M18,146 l800,0" />
        <path id="left-margin-Ultralight-S" d="M220,56 l0,110" />
        <path id="right-margin-Ultralight-S" d="M310,56 l0,110" />
        <path id="left-margin-Regular-S" d="M420,56 l0,110" />
        <path id="right-margin-Regular-S" d="M510,56 l0,110" />
        <path id="left-margin-Black-S" d="M620,56 l0,110" />
        <path id="right-margin-Black-S" d="M710,56 l0,110" />
        <path id="Capline-M" d="M18,276 l800,0" />
        <path id="Baseline-M" d="M18,346 l800,0" />
        <path id="Capline-L" d="M18,476 l800,0" />
        <path id="Baseline-L" d="M18,546 l800,0" />
    </g>
    <g id="Symbols">
        <g id="Ultralight-S">
            <path d="M282.5,76 C281.013,76 279.807,77.206 279.807,78.692 L279.807,88.744 C273.214,85.32 264.882,86.369 259.357,91.894 C252.853,98.398 232.588,137.626 230.299,142.077 C229.764,143.118 229.961,144.385 230.788,145.211 C231.305,145.728 231.996,146 232.695,146 C233.113,146 233.532,145.903 233.922,145.703 C238.374,143.413 277.6,123.147 284.106,116.642 C289.632,111.116 290.68,102.785 287.256,96.192 L297.307,96.192 C298.793,96.192 300,94.986 300,93.5 C300,92.014 298.793,90.808 297.307,90.808 L288.999,90.808 L297.865,81.942 C298.916,80.891 298.916,79.186 297.865,78.135 C296.813,77.084 295.109,77.084 294.058,78.135 L285.192,87.001 L285.192,78.692 C285.192,77.206 283.986,76 282.5,76 Z M271.73,92.159 C274.833,92.159 277.934,93.341 280.296,95.701 C282.423,97.829 283.595,100.556 283.806,103.344 C284.063,106.747 282.893,110.238 280.296,112.835 C278.881,114.25 275.218,116.663 270.553,119.477 L264.211,113.135 C263.16,112.084 261.455,112.084 260.404,113.135 C259.352,114.186 259.352,115.891 260.404,116.942 L265.762,122.3 C257.289,127.205 246.945,132.795 239.034,136.963 C241.338,132.591 244.094,127.455 246.919,122.303 L249.635,125.019 C250.161,125.545 250.849,125.808 251.538,125.808 C252.227,125.808 252.915,125.545 253.442,125.019 C254.493,123.968 254.493,122.263 253.442,121.212 L249.627,117.397 C253.401,110.631 257.047,104.398 259.823,100.207 L264.442,104.827 C264.969,105.353 265.657,105.615 266.346,105.615 C267.035,105.615 267.723,105.353 268.249,104.827 C269.301,103.775 269.301,102.071 268.249,101.02 L263.054,95.824 C263.088,95.789 263.132,95.733 263.164,95.701 C265.527,93.339 268.628,92.159 271.73,92.159 Z" />
        </g>
        <g id="Regular-S">
            <path d="M482.5,76 C481.013,76 479.807,77.206 479.807,78.692 L479.807,88.744 C473.214,85.32 464.882,86.369 459.357,91.894 C452.853,98.398 432.588,137.626 430.299,142.077 C429.764,143.118 429.961,144.385 430.788,145.211 C431.305,145.728 431.996,146 432.695,146 C433.113,146 433.532,145.903 433.922,145.703 C438.374,143.413 477.6,123.147 484.106,116.642 C489.632,111.116 490.68,102.785 487.256,96.192 L497.307,96.192 C498.793,96.192 500,94.986 500,93.5 C500,92.014 498.793,90.808 497.307,90.808 L488.999,90.808 L497.865,81.942 C498.916,80.891 498.916,79.186 497.865,78.135 C496.813,77.084 495.109,77.084 494.058,78.135 L485.192,87.001 L485.192,78.692 C485.192,77.206 483.986,76 482.5,76 Z M471.73,92.159 C474.833,92.159 477.934,93.341 480.296,95.701 C482.423,97.829 483.595,100.556 483.806,103.344 C484.063,106.747 482.893,110.238 480.296,112.835 C478.881,114.25 475.218,116.663 470.552,119.477 L464.211,113.135 C463.16,112.084 461.455,112.084 460.404,113.135 C459.352,114.186 459.352,115.891 460.404,116.942 L465.762,122.3 C457.289,127.205 446.945,132.795 439.034,136.963 C441.338,132.591 444.094,127.455 446.919,122.303 L449.635,125.019 C450.161,125.545 450.849,125.808 451.538,125.808 C452.227,125.808 452.915,125.545 453.442,125.019 C454.493,123.968 454.493,122.263 453.442,121.212 L449.627,117.397 C453.401,110.631 457.047,104.398 459.823,100.207 L464.442,104.827 C464.969,105.353 465.657,105.615 466.346,105.615 C467.035,105.615 467.723,105.353 468.249,104.827 C469.301,103.775 469.301,102.071 468.249,101.02 L463.054,95.824 C463.088,95.789 463.132,95.733 463.164,95.701 C465.527,93.339 468.628,92.159 471.73,92.159 Z" />
        </g>
        <g id="Black-S">
            <path d="M682.5,76 C681.013,76 679.807,77.206 679.807,78.692 L679.807,88.744 C673.214,85.32 664.882,86.369 659.357,91.894 C652.853,98.398 632.588,137.626 630.299,142.077 C629.764,143.118 629.961,144.385 630.788,145.211 C631.305,145.728 631.996,146 632.695,146 C633.113,146 633.532,145.903 633.922,145.703 C638.374,143.413 677.6,123.147 684.106,116.642 C689.632,111.116 690.68,102.785 687.256,96.192 L697.307,96.192 C698.794,96.192 700,94.986 700,93.5 C700,92.014 698.794,90.808 697.307,90.808 L688.999,90.808 L697.865,81.942 C698.916,80.891 698.916,79.186 697.865,78.135 C696.813,77.084 695.109,77.084 694.058,78.135 L685.192,87.001 L685.192,78.692 C685.192,77.206 683.986,76 682.5,76 Z M671.73,92.159 C674.833,92.159 677.934,93.341 680.296,95.701 C682.423,97.829 683.595,100.556 683.806,103.344 C684.063,106.747 682.893,110.238 680.296,112.835 C678.881,114.25 675.218,116.663 670.553,119.477 L664.211,113.135 C663.16,112.084 661.455,112.084 660.404,113.135 C659.352,114.186 659.352,115.891 660.404,116.942 L665.762,122.3 C657.289,127.205 646.945,132.795 639.034,136.963 C641.338,132.591 644.094,127.455 646.919,122.303 L649.635,125.019 C650.161,125.545 650.849,125.808 651.538,125.808 C652.227,125.808 652.915,125.545 653.442,125.019 C654.493,123.968 654.493,122.263 653.442,121.212 L649.627,117.397 C653.401,110.631 657.047,104.398 659.823,100.207 L664.442,104.827 C664.969,105.353 665.657,105.615 666.346,105.615 C667.035,105.615 667.723,105.353 668.249,104.827 C669.301,103.775 669.301,102.071 668.249,101.02 L663.054,95.824 C663.088,95.789 663.132,95.733 663.164,95.701 C665.527,93.339 668.628,92.159 671.73,92.159 Z" />
        </g>
    </g>
</svg>