<?xml version="1.0" encoding="UTF-8"?>
<svg height="600" width="800" xmlns="http://www.w3.org/2000/svg" xmlns:xlink="http://www.w3.org/1999/xlink">
    <g id="Notes" font-family="'LucidaGrande', 'Lucida Grande', sans-serif" font-size="13">
        <rect fill="white" height="600.0" width="800.0" x="0.0" y="0.0" />
        <g font-size="13">
            <text x="18.0" y="176.0">Small</text>
            <text x="18.0" y="376.0">Medium</text>
            <text x="18.0" y="576.0">Large</text>
        </g>
        <g font-size="9">
            <text x="250.0" y="30.0">Ultralight</text>
            <text x="450.0" y="30.0">Regular</text>
            <text x="650.0" y="30.0">Black</text>
            <text id="template-version" fill="#505050" text-anchor="end" x="785.0" y="575.0">Template v.3.0</text>
            <a href="https://wangchujiang.com/#/app">
                <text fill="#505050" text-anchor="end" x="785.0" y="590.0">https://wangchujiang.com/#/app</text>
            </a>
        </g>
    </g>
    <g id="Guides" stroke="rgb(39, 170, 225)" stroke-width="0.5">
        <path id="Capline-S" d="M18,76 l800,0" />
        <path id="H-reference" d="M85,145.755 L87.685,145.755 L113.369,79.287 L114.052,79.287 L114.052,76 L112.148,76 L85,145.755 Z M95.693,121.536 L130.996,121.536 L130.263,119.313 L96.474,119.313 L95.693,121.536 Z M139.15,145.755 L141.787,145.755 L114.638,76 L113.466,76 L113.466,79.287 L139.15,145.755 Z" stroke="none" />
        <path id="Baseline-S" d="M18,146 l800,0" />
        <path id="left-margin-Ultralight-S" d="M216.796,56 l0,110" />
        <path id="right-margin-Ultralight-S" d="M313.204,56 l0,110" />
        <path id="left-margin-Regular-S" d="M416.796,56 l0,110" />
        <path id="right-margin-Regular-S" d="M513.204,56 l0,110" />
        <path id="left-margin-Black-S" d="M616.796,56 l0,110" />
        <path id="right-margin-Black-S" d="M713.204,56 l0,110" />
        <path id="Capline-M" d="M18,276 l800,0" />
        <path id="Baseline-M" d="M18,346 l800,0" />
        <path id="Capline-L" d="M18,476 l800,0" />
        <path id="Baseline-L" d="M18,546 l800,0" />
    </g>
    <g id="Symbols">
        <g id="Ultralight-S">
            <path d="M265,76 C257.732,76 255.945,76.53 233.667,90.33 C230.27,92.436 226.796,95.402 226.796,101.429 C226.796,105.732 229.295,108.718 231.572,110.364 L231.572,136.449 C231.572,141.716 235.855,146 241.123,146 L288.877,146 C294.145,146 298.428,141.716 298.428,136.449 L298.428,110.364 C300.705,108.718 303.204,105.732 303.204,101.429 C303.204,95.402 299.728,92.436 296.33,90.33 C274.052,76.53 272.268,76 265,76 Z M265,82.367 C270.535,82.367 271.385,82.368 292.975,95.742 C295.898,97.552 296.837,98.934 296.837,101.429 C296.837,104.248 294.03,105.617 293.942,105.66 L292.061,106.506 L292.061,136.449 C292.061,138.205 290.633,139.633 288.877,139.633 L285.548,139.633 C285.219,138.707 284.344,138.041 283.306,138.041 C282.268,138.041 281.393,138.707 281.064,139.633 L274.551,139.633 L274.551,128.49 C274.551,123.223 270.267,118.939 265,118.939 C259.733,118.939 255.449,123.223 255.449,128.49 L255.449,139.633 L248.936,139.633 C248.607,138.707 247.732,138.041 246.694,138.041 C245.656,138.041 244.781,138.707 244.452,139.633 L241.123,139.633 C239.367,139.633 237.939,138.205 237.939,136.449 L237.905,106.54 L236.092,105.676 C235.973,105.618 233.163,104.248 233.163,101.429 C233.163,98.934 234.101,97.552 237.022,95.742 C258.613,82.368 259.465,82.367 265,82.367 Z M259.429,88.694 C258.111,88.694 257.041,89.764 257.041,91.082 C257.041,92.4 258.111,93.47 259.429,93.47 C260.747,93.47 261.816,92.4 261.816,91.082 C261.816,89.764 260.747,88.694 259.429,88.694 Z M270.571,88.694 C269.253,88.694 268.184,89.764 268.184,91.082 C268.184,92.4 269.253,93.47 270.571,93.47 C271.889,93.47 272.959,92.4 272.959,91.082 C272.959,89.764 271.889,88.694 270.571,88.694 Z M251.469,93.47 C250.151,93.47 249.082,94.539 249.082,95.857 C249.082,97.175 250.151,98.245 251.469,98.245 C252.787,98.245 253.857,97.175 253.857,95.857 C253.857,94.539 252.787,93.47 251.469,93.47 Z M278.531,93.47 C277.212,93.47 276.143,94.539 276.143,95.857 C276.143,97.175 277.212,98.245 278.531,98.245 C279.849,98.245 280.918,97.175 280.918,95.857 C280.918,94.539 279.849,93.47 278.531,93.47 Z M243.51,99.837 C242.192,99.837 241.123,100.907 241.123,102.225 C241.123,103.543 242.192,104.612 243.51,104.612 C244.828,104.612 245.898,103.543 245.898,102.225 C245.898,100.907 244.828,99.837 243.51,99.837 Z M286.49,99.837 C285.172,99.837 284.102,100.907 284.102,102.225 C284.102,103.543 285.172,104.612 286.49,104.612 C287.808,104.612 288.877,103.543 288.877,102.225 C288.877,100.907 287.808,99.837 286.49,99.837 Z M246.694,109.388 C245.376,109.388 244.306,110.458 244.306,111.776 C244.306,113.094 245.376,114.163 246.694,114.163 C248.012,114.163 249.082,113.094 249.082,111.776 C249.082,110.458 248.012,109.388 246.694,109.388 Z M283.306,109.388 C281.988,109.388 280.918,110.458 280.918,111.776 C280.918,113.094 281.988,114.163 283.306,114.163 C284.624,114.163 285.694,113.094 285.694,111.776 C285.694,110.458 284.624,109.388 283.306,109.388 Z M246.694,118.939 C245.376,118.939 244.306,120.009 244.306,121.327 C244.306,122.645 245.376,123.714 246.694,123.714 C248.012,123.714 249.082,122.645 249.082,121.327 C249.082,120.009 248.012,118.939 246.694,118.939 Z M283.306,118.939 C281.988,118.939 280.918,120.009 280.918,121.327 C280.918,122.645 281.988,123.714 283.306,123.714 C284.624,123.714 285.694,122.645 285.694,121.327 C285.694,120.009 284.624,118.939 283.306,118.939 Z M265,125.306 C266.756,125.306 268.184,126.734 268.184,128.49 L268.184,139.633 L261.816,139.633 L261.816,128.49 C261.816,126.734 263.244,125.306 265,125.306 Z M246.694,128.49 C245.376,128.49 244.306,129.56 244.306,130.878 C244.306,132.196 245.376,133.265 246.694,133.265 C248.012,133.265 249.082,132.196 249.082,130.878 C249.082,129.56 248.012,128.49 246.694,128.49 Z M283.306,128.49 C281.988,128.49 280.918,129.56 280.918,130.878 C280.918,132.196 281.988,133.265 283.306,133.265 C284.624,133.265 285.694,132.196 285.694,130.878 C285.694,129.56 284.624,128.49 283.306,128.49 Z" />
        </g>
        <g id="Regular-S">
            <path d="M465,76 C457.732,76 455.945,76.53 433.667,90.33 C430.27,92.436 426.796,95.402 426.796,101.429 C426.796,105.732 429.295,108.718 431.572,110.364 L431.572,136.449 C431.572,141.716 435.855,146 441.123,146 L488.877,146 C494.145,146 498.428,141.716 498.428,136.449 L498.428,110.364 C500.705,108.718 503.204,105.732 503.204,101.429 C503.204,95.402 499.728,92.436 496.33,90.33 C474.052,76.53 472.268,76 465,76 Z M465,82.367 C470.535,82.367 471.385,82.368 492.975,95.742 C495.898,97.552 496.837,98.934 496.837,101.429 C496.837,104.248 494.03,105.617 493.942,105.66 L492.061,106.506 L492.061,136.449 C492.061,138.205 490.633,139.633 488.877,139.633 L485.548,139.633 C485.219,138.707 484.344,138.041 483.306,138.041 C482.268,138.041 481.393,138.707 481.064,139.633 L474.551,139.633 L474.551,128.49 C474.551,123.223 470.267,118.939 465,118.939 C459.733,118.939 455.449,123.223 455.449,128.49 L455.449,139.633 L448.936,139.633 C448.607,138.707 447.732,138.041 446.694,138.041 C445.656,138.041 444.781,138.707 444.452,139.633 L441.123,139.633 C439.367,139.633 437.939,138.205 437.939,136.449 L437.905,106.54 L436.092,105.676 C435.973,105.618 433.163,104.248 433.163,101.429 C433.163,98.934 434.101,97.552 437.022,95.742 C458.613,82.368 459.465,82.367 465,82.367 Z M459.429,88.694 C458.111,88.694 457.041,89.764 457.041,91.082 C457.041,92.4 458.111,93.47 459.429,93.47 C460.747,93.47 461.816,92.4 461.816,91.082 C461.816,89.764 460.747,88.694 459.429,88.694 Z M470.571,88.694 C469.253,88.694 468.184,89.764 468.184,91.082 C468.184,92.4 469.253,93.47 470.571,93.47 C471.889,93.47 472.959,92.4 472.959,91.082 C472.959,89.764 471.889,88.694 470.571,88.694 Z M451.469,93.47 C450.151,93.47 449.082,94.539 449.082,95.857 C449.082,97.175 450.151,98.245 451.469,98.245 C452.788,98.245 453.857,97.175 453.857,95.857 C453.857,94.539 452.788,93.47 451.469,93.47 Z M478.531,93.47 C477.213,93.47 476.143,94.539 476.143,95.857 C476.143,97.175 477.213,98.245 478.531,98.245 C479.849,98.245 480.918,97.175 480.918,95.857 C480.918,94.539 479.849,93.47 478.531,93.47 Z M443.51,99.837 C442.192,99.837 441.123,100.907 441.123,102.225 C441.123,103.543 442.192,104.612 443.51,104.612 C444.828,104.612 445.898,103.543 445.898,102.225 C445.898,100.907 444.828,99.837 443.51,99.837 Z M486.49,99.837 C485.172,99.837 484.102,100.907 484.102,102.225 C484.102,103.543 485.172,104.612 486.49,104.612 C487.808,104.612 488.877,103.543 488.877,102.225 C488.877,100.907 487.808,99.837 486.49,99.837 Z M446.694,109.388 C445.376,109.388 444.306,110.458 444.306,111.776 C444.306,113.094 445.376,114.163 446.694,114.163 C448.012,114.163 449.082,113.094 449.082,111.776 C449.082,110.458 448.012,109.388 446.694,109.388 Z M483.306,109.388 C481.988,109.388 480.918,110.458 480.918,111.776 C480.918,113.094 481.988,114.163 483.306,114.163 C484.624,114.163 485.694,113.094 485.694,111.776 C485.694,110.458 484.624,109.388 483.306,109.388 Z M446.694,118.939 C445.376,118.939 444.306,120.009 444.306,121.327 C444.306,122.645 445.376,123.714 446.694,123.714 C448.012,123.714 449.082,122.645 449.082,121.327 C449.082,120.009 448.012,118.939 446.694,118.939 Z M483.306,118.939 C481.988,118.939 480.918,120.009 480.918,121.327 C480.918,122.645 481.988,123.714 483.306,123.714 C484.624,123.714 485.694,122.645 485.694,121.327 C485.694,120.009 484.624,118.939 483.306,118.939 Z M465,125.306 C466.756,125.306 468.184,126.734 468.184,128.49 L468.184,139.633 L461.816,139.633 L461.816,128.49 C461.816,126.734 463.244,125.306 465,125.306 Z M446.694,128.49 C445.376,128.49 444.306,129.56 444.306,130.878 C444.306,132.196 445.376,133.265 446.694,133.265 C448.012,133.265 449.082,132.196 449.082,130.878 C449.082,129.56 448.012,128.49 446.694,128.49 Z M483.306,128.49 C481.988,128.49 480.918,129.56 480.918,130.878 C480.918,132.196 481.988,133.265 483.306,133.265 C484.624,133.265 485.694,132.196 485.694,130.878 C485.694,129.56 484.624,128.49 483.306,128.49 Z" />
        </g>
        <g id="Black-S">
            <path d="M665,76 C657.732,76 655.945,76.53 633.667,90.33 C630.27,92.436 626.796,95.402 626.796,101.429 C626.796,105.732 629.295,108.718 631.572,110.364 L631.572,136.449 C631.572,141.716 635.855,146 641.123,146 L688.877,146 C694.145,146 698.428,141.716 698.428,136.449 L698.428,110.364 C700.705,108.718 703.204,105.732 703.204,101.429 C703.204,95.402 699.728,92.436 696.33,90.33 C674.052,76.53 672.268,76 665,76 Z M665,82.367 C670.535,82.367 671.385,82.368 692.975,95.742 C695.898,97.552 696.837,98.934 696.837,101.429 C696.837,104.248 694.03,105.617 693.942,105.66 L692.061,106.506 L692.061,136.449 C692.061,138.205 690.633,139.633 688.877,139.633 L685.548,139.633 C685.219,138.707 684.344,138.041 683.306,138.041 C682.268,138.041 681.393,138.707 681.064,139.633 L674.551,139.633 L674.551,128.49 C674.551,123.223 670.267,118.939 665,118.939 C659.733,118.939 655.449,123.223 655.449,128.49 L655.449,139.633 L648.936,139.633 C648.607,138.707 647.732,138.041 646.694,138.041 C645.656,138.041 644.781,138.707 644.452,139.633 L641.123,139.633 C639.367,139.633 637.939,138.205 637.939,136.449 L637.905,106.54 L636.092,105.676 C635.973,105.618 633.163,104.248 633.163,101.429 C633.163,98.934 634.101,97.552 637.022,95.742 C658.613,82.368 659.465,82.367 665,82.367 Z M659.429,88.694 C658.111,88.694 657.041,89.764 657.041,91.082 C657.041,92.4 658.111,93.47 659.429,93.47 C660.747,93.47 661.816,92.4 661.816,91.082 C661.816,89.764 660.747,88.694 659.429,88.694 Z M670.571,88.694 C669.253,88.694 668.184,89.764 668.184,91.082 C668.184,92.4 669.253,93.47 670.571,93.47 C671.889,93.47 672.959,92.4 672.959,91.082 C672.959,89.764 671.889,88.694 670.571,88.694 Z M651.469,93.47 C650.151,93.47 649.082,94.539 649.082,95.857 C649.082,97.175 650.151,98.245 651.469,98.245 C652.787,98.245 653.857,97.175 653.857,95.857 C653.857,94.539 652.787,93.47 651.469,93.47 Z M678.531,93.47 C677.213,93.47 676.143,94.539 676.143,95.857 C676.143,97.175 677.213,98.245 678.531,98.245 C679.849,98.245 680.918,97.175 680.918,95.857 C680.918,94.539 679.849,93.47 678.531,93.47 Z M643.51,99.837 C642.192,99.837 641.123,100.907 641.123,102.225 C641.123,103.543 642.192,104.612 643.51,104.612 C644.828,104.612 645.898,103.543 645.898,102.225 C645.898,100.907 644.828,99.837 643.51,99.837 Z M686.49,99.837 C685.172,99.837 684.102,100.907 684.102,102.225 C684.102,103.543 685.172,104.612 686.49,104.612 C687.808,104.612 688.877,103.543 688.877,102.225 C688.877,100.907 687.808,99.837 686.49,99.837 Z M646.694,109.388 C645.376,109.388 644.306,110.458 644.306,111.776 C644.306,113.094 645.376,114.163 646.694,114.163 C648.012,114.163 649.082,113.094 649.082,111.776 C649.082,110.458 648.012,109.388 646.694,109.388 Z M683.306,109.388 C681.988,109.388 680.918,110.458 680.918,111.776 C680.918,113.094 681.988,114.163 683.306,114.163 C684.624,114.163 685.694,113.094 685.694,111.776 C685.694,110.458 684.624,109.388 683.306,109.388 Z M646.694,118.939 C645.376,118.939 644.306,120.009 644.306,121.327 C644.306,122.645 645.376,123.714 646.694,123.714 C648.012,123.714 649.082,122.645 649.082,121.327 C649.082,120.009 648.012,118.939 646.694,118.939 Z M683.306,118.939 C681.988,118.939 680.918,120.009 680.918,121.327 C680.918,122.645 681.988,123.714 683.306,123.714 C684.624,123.714 685.694,122.645 685.694,121.327 C685.694,120.009 684.624,118.939 683.306,118.939 Z M665,125.306 C666.756,125.306 668.184,126.734 668.184,128.49 L668.184,139.633 L661.816,139.633 L661.816,128.49 C661.816,126.734 663.244,125.306 665,125.306 Z M646.694,128.49 C645.376,128.49 644.306,129.56 644.306,130.878 C644.306,132.196 645.376,133.265 646.694,133.265 C648.012,133.265 649.082,132.196 649.082,130.878 C649.082,129.56 648.012,128.49 646.694,128.49 Z M683.306,128.49 C681.988,128.49 680.918,129.56 680.918,130.878 C680.918,132.196 681.988,133.265 683.306,133.265 C684.624,133.265 685.694,132.196 685.694,130.878 C685.694,129.56 684.624,128.49 683.306,128.49 Z" />
        </g>
    </g>
</svg>