<?xml version="1.0" encoding="UTF-8"?>
<svg height="600" width="800" xmlns="http://www.w3.org/2000/svg" xmlns:xlink="http://www.w3.org/1999/xlink">
    <g id="Notes" font-family="'LucidaGrande', 'Lucida Grande', sans-serif" font-size="13">
        <rect fill="white" height="600.0" width="800.0" x="0.0" y="0.0" />
        <g font-size="13">
            <text x="18.0" y="176.0">Small</text>
            <text x="18.0" y="376.0">Medium</text>
            <text x="18.0" y="576.0">Large</text>
        </g>
        <g font-size="9">
            <text x="250.0" y="30.0">Ultralight</text>
            <text x="450.0" y="30.0">Regular</text>
            <text x="650.0" y="30.0">Black</text>
            <text id="template-version" fill="#505050" text-anchor="end" x="785.0" y="575.0">Template v.3.0</text>
            <a href="https://wangchujiang.com/#/app">
                <text fill="#505050" text-anchor="end" x="785.0" y="590.0">https://wangchujiang.com/#/app</text>
            </a>
        </g>
    </g>
    <g id="Guides" stroke="rgb(39, 170, 225)" stroke-width="0.5">
        <path id="Capline-S" d="M18,76 l800,0" />
        <path id="H-reference" d="M85,145.755 L87.685,145.755 L113.369,79.287 L114.052,79.287 L114.052,76 L112.148,76 L85,145.755 Z M95.693,121.536 L130.996,121.536 L130.263,119.313 L96.474,119.313 L95.693,121.536 Z M139.15,145.755 L141.787,145.755 L114.638,76 L113.466,76 L113.466,79.287 L139.15,145.755 Z" stroke="none" />
        <path id="Baseline-S" d="M18,146 l800,0" />
        <path id="left-margin-Ultralight-S" d="M221,56 l0,110" />
        <path id="right-margin-Ultralight-S" d="M309,56 l0,110" />
        <path id="left-margin-Regular-S" d="M421,56 l0,110" />
        <path id="right-margin-Regular-S" d="M509,56 l0,110" />
        <path id="left-margin-Black-S" d="M621,56 l0,110" />
        <path id="right-margin-Black-S" d="M709,56 l0,110" />
        <path id="Capline-M" d="M18,276 l800,0" />
        <path id="Baseline-M" d="M18,346 l800,0" />
        <path id="Capline-L" d="M18,476 l800,0" />
        <path id="Baseline-L" d="M18,546 l800,0" />
    </g>
    <g id="Symbols">
        <g id="Ultralight-S">
            <path d="M292.661,113.198 C296.978,118.449 297.892,125.814 294.989,131.959 C292.085,138.106 285.815,142.077 279.017,142.077 L273.662,142.077 C271.37,144.488 268.142,146 264.562,146 C260.983,146 257.755,144.488 255.463,142.077 L250.986,142.077 C244.138,142.077 237.85,138.065 234.965,131.855 C232.081,125.643 233.072,118.251 237.49,113.019 C244.663,104.53 252.995,97.026 255.758,94.605 L255.758,78.642 C255.758,77.183 256.941,76 258.399,76 C259.857,76 261.041,77.183 261.041,78.642 L261.041,95.811 C261.041,96.585 260.701,97.321 260.112,97.823 C260.009,97.91 249.794,106.64 241.531,116.428 C238.433,120.095 237.739,125.276 239.761,129.629 C241.781,133.981 246.189,136.794 250.988,136.794 L252.465,136.794 C252.167,135.722 251.994,134.597 251.994,133.43 C251.994,131.972 253.177,130.789 254.635,130.789 C256.093,130.789 257.277,131.972 257.277,133.43 C257.277,137.448 260.545,140.717 264.563,140.717 C268.581,140.717 271.851,137.448 271.851,133.43 C271.851,131.972 273.034,130.789 274.493,130.789 C275.951,130.789 277.134,131.972 277.134,133.43 C277.134,134.597 276.962,135.722 276.663,136.794 L279.017,136.794 C283.781,136.794 288.177,134.01 290.212,129.702 C292.247,125.395 291.607,120.233 288.581,116.551 C280.507,106.731 270.018,97.925 269.912,97.836 C269.313,97.335 268.965,96.593 268.965,95.811 L268.965,78.642 C268.965,77.183 270.149,76 271.607,76 C273.065,76 274.248,77.183 274.248,78.642 L274.248,94.592 C277.079,97.036 285.617,104.63 292.661,113.198 Z" />
        </g>
        <g id="Regular-S">
            <path d="M492.661,113.198 C496.978,118.449 497.892,125.814 494.989,131.959 C492.085,138.106 485.815,142.077 479.018,142.077 L473.662,142.077 C471.37,144.488 468.142,146 464.562,146 C460.983,146 457.755,144.488 455.463,142.077 L450.986,142.077 C444.138,142.077 437.85,138.065 434.965,131.855 C432.081,125.643 433.072,118.251 437.49,113.019 C444.663,104.53 452.995,97.026 455.758,94.605 L455.758,78.642 C455.758,77.183 456.941,76 458.399,76 C459.857,76 461.041,77.183 461.041,78.642 L461.041,95.811 C461.041,96.585 460.701,97.321 460.112,97.823 C460.009,97.91 449.794,106.64 441.531,116.428 C438.433,120.095 437.739,125.276 439.761,129.629 C441.781,133.981 446.189,136.794 450.988,136.794 L452.465,136.794 C452.167,135.722 451.994,134.597 451.994,133.43 C451.994,131.972 453.177,130.789 454.635,130.789 C456.093,130.789 457.277,131.972 457.277,133.43 C457.277,137.448 460.545,140.717 464.563,140.717 C468.581,140.717 471.851,137.448 471.851,133.43 C471.851,131.972 473.034,130.789 474.493,130.789 C475.951,130.789 477.134,131.972 477.134,133.43 C477.134,134.597 476.962,135.722 476.663,136.794 L479.018,136.794 C483.781,136.794 488.177,134.01 490.212,129.702 C492.247,125.395 491.607,120.233 488.581,116.551 C480.507,106.731 470.018,97.925 469.912,97.836 C469.313,97.335 468.965,96.593 468.965,95.811 L468.965,78.642 C468.965,77.183 470.149,76 471.607,76 C473.065,76 474.248,77.183 474.248,78.642 L474.248,94.592 C477.079,97.036 485.617,104.63 492.661,113.198 Z" />
        </g>
        <g id="Black-S">
            <path d="M692.661,113.198 C696.978,118.449 697.892,125.814 694.989,131.959 C692.085,138.106 685.815,142.077 679.018,142.077 L673.662,142.077 C671.37,144.488 668.142,146 664.562,146 C660.983,146 657.755,144.488 655.463,142.077 L650.986,142.077 C644.138,142.077 637.85,138.065 634.965,131.855 C632.081,125.643 633.072,118.251 637.49,113.019 C644.663,104.53 652.995,97.026 655.758,94.605 L655.758,78.642 C655.758,77.183 656.941,76 658.399,76 C659.857,76 661.041,77.183 661.041,78.642 L661.041,95.811 C661.041,96.585 660.701,97.321 660.112,97.823 C660.009,97.91 649.794,106.64 641.531,116.428 C638.433,120.095 637.739,125.276 639.761,129.629 C641.781,133.981 646.189,136.794 650.988,136.794 L652.465,136.794 C652.167,135.722 651.994,134.597 651.994,133.43 C651.994,131.972 653.177,130.789 654.635,130.789 C656.093,130.789 657.277,131.972 657.277,133.43 C657.277,137.448 660.545,140.717 664.563,140.717 C668.581,140.717 671.851,137.448 671.851,133.43 C671.851,131.972 673.034,130.789 674.493,130.789 C675.951,130.789 677.134,131.972 677.134,133.43 C677.134,134.597 676.962,135.722 676.663,136.794 L679.018,136.794 C683.781,136.794 688.177,134.01 690.212,129.702 C692.247,125.395 691.607,120.233 688.581,116.551 C680.507,106.731 670.018,97.925 669.912,97.836 C669.313,97.335 668.965,96.593 668.965,95.811 L668.965,78.642 C668.965,77.183 670.149,76 671.607,76 C673.065,76 674.248,77.183 674.248,78.642 L674.248,94.592 C677.079,97.036 685.617,104.63 692.661,113.198 Z" />
        </g>
    </g>
</svg>