<?xml version="1.0" encoding="UTF-8"?>
<svg height="600" width="800" xmlns="http://www.w3.org/2000/svg" xmlns:xlink="http://www.w3.org/1999/xlink">
    <g id="Notes" font-family="'LucidaGrande', 'Lucida Grande', sans-serif" font-size="13">
        <rect fill="white" height="600.0" width="800.0" x="0.0" y="0.0" />
        <g font-size="13">
            <text x="18.0" y="176.0">Small</text>
            <text x="18.0" y="376.0">Medium</text>
            <text x="18.0" y="576.0">Large</text>
        </g>
        <g font-size="9">
            <text x="250.0" y="30.0">Ultralight</text>
            <text x="450.0" y="30.0">Regular</text>
            <text x="650.0" y="30.0">Black</text>
            <text id="template-version" fill="#505050" text-anchor="end" x="785.0" y="575.0">Template v.3.0</text>
            <a href="https://wangchujiang.com/#/app">
                <text fill="#505050" text-anchor="end" x="785.0" y="590.0">https://wangchujiang.com/#/app</text>
            </a>
        </g>
    </g>
    <g id="Guides" stroke="rgb(39, 170, 225)" stroke-width="0.5">
        <path id="Capline-S" d="M18,76 l800,0" />
        <path id="H-reference" d="M85,145.755 L87.685,145.755 L113.369,79.287 L114.052,79.287 L114.052,76 L112.148,76 L85,145.755 Z M95.693,121.536 L130.996,121.536 L130.263,119.313 L96.474,119.313 L95.693,121.536 Z M139.15,145.755 L141.787,145.755 L114.638,76 L113.466,76 L113.466,79.287 L139.15,145.755 Z" stroke="none" />
        <path id="Baseline-S" d="M18,146 l800,0" />
        <path id="left-margin-Ultralight-S" d="M217.521,56 l0,110" />
        <path id="right-margin-Ultralight-S" d="M312.479,56 l0,110" />
        <path id="left-margin-Regular-S" d="M417.521,56 l0,110" />
        <path id="right-margin-Regular-S" d="M512.479,56 l0,110" />
        <path id="left-margin-Black-S" d="M617.521,56 l0,110" />
        <path id="right-margin-Black-S" d="M712.479,56 l0,110" />
        <path id="Capline-M" d="M18,276 l800,0" />
        <path id="Baseline-M" d="M18,346 l800,0" />
        <path id="Capline-L" d="M18,476 l800,0" />
        <path id="Baseline-L" d="M18,546 l800,0" />
    </g>
    <g id="Symbols">
        <g id="Ultralight-S">
            <path d="M274.203,76.011 C264.041,76.281 252.51,81.499 241.476,92.533 C228.628,105.382 231.387,121.773 238.302,131.966 C235.154,133.987 232.615,135.092 230.586,135.221 C228.626,135.346 227.113,137.876 227.62,140.023 C228.126,142.17 230.265,143.454 232.421,142.992 C235.904,142.247 239.35,140.492 243.256,137.616 C250.445,143.677 269.734,153.267 285.972,137.029 C305.498,117.503 306.827,96.23 294.552,83.955 C289.182,78.586 282.107,75.801 274.203,76.011 Z M274.872,82.039 C280.167,81.939 285.45,83.664 290.147,88.361 C305.175,103.391 289.587,124.602 281.569,132.623 C268.86,145.331 254.342,138.49 248.182,133.618 C250.644,131.461 253.325,128.92 256.312,125.95 C263.606,127.993 272.938,128.088 279.147,124.66 C279.971,124.205 280.396,123.231 280.081,122.311 C279.732,121.297 278.691,120.81 277.602,121.082 C272.109,122.454 267.02,122.248 261.57,120.617 C264.377,117.737 267.482,114.52 270.85,111.005 C273.717,111.766 280.659,112.907 287.238,109.511 C288.074,109.079 288.483,108.081 288.169,107.162 C287.821,106.148 286.806,105.825 285.689,105.933 C281.496,106.341 277.989,106.475 275.539,106.112 C278.977,102.526 282.675,98.676 286.745,94.483 C287.449,93.757 287.449,92.584 286.745,91.839 C286.014,91.066 284.805,91.04 284.025,91.763 C279.559,95.908 276.047,99.164 272.207,102.732 C270.809,97.473 272.315,94.021 272.584,92.834 C272.796,91.902 272.51,90.937 271.65,90.485 C270.7,89.987 269.527,90.35 269.03,91.3 C266.532,96.081 266.119,101.637 267.439,107.153 C263.909,110.418 260.382,113.66 257.389,116.36 C255.796,111.019 256.122,106.379 257.669,101.131 C257.918,100.285 257.595,99.237 256.735,98.785 C255.785,98.287 254.609,98.651 254.112,99.601 C251.58,104.448 250.118,112.484 251.924,121.195 C248.811,123.911 245.908,126.372 243.42,128.299 C238.864,121.347 234.426,108.398 245.885,96.939 C251.522,91.302 263.224,82.257 274.872,82.039 Z" />
        </g>
        <g id="Regular-S">
            <path d="M474.203,76.011 C464.041,76.281 452.51,81.499 441.476,92.533 C428.628,105.382 431.387,121.773 438.302,131.966 C435.154,133.987 432.615,135.092 430.586,135.221 C428.626,135.346 427.113,137.876 427.62,140.023 C428.126,142.17 430.265,143.454 432.421,142.992 C435.904,142.247 439.35,140.492 443.256,137.616 C450.445,143.677 469.734,153.267 485.972,137.029 C505.498,117.503 506.827,96.23 494.552,83.955 C489.182,78.586 482.107,75.801 474.203,76.011 Z M474.872,82.039 C480.167,81.939 485.45,83.664 490.147,88.361 C505.175,103.391 489.587,124.602 481.569,132.623 C468.86,145.331 454.342,138.49 448.182,133.618 C450.644,131.461 453.325,128.92 456.312,125.95 C463.606,127.993 472.938,128.088 479.147,124.66 C479.971,124.205 480.396,123.231 480.081,122.311 C479.732,121.297 478.691,120.81 477.602,121.082 C472.109,122.454 467.02,122.248 461.57,120.617 C464.377,117.737 467.482,114.52 470.85,111.005 C473.717,111.766 480.659,112.907 487.238,109.511 C488.074,109.079 488.483,108.081 488.169,107.162 C487.821,106.148 486.806,105.825 485.689,105.933 C481.496,106.341 477.989,106.475 475.539,106.112 C478.977,102.526 482.675,98.676 486.745,94.483 C487.449,93.757 487.449,92.584 486.745,91.839 C486.014,91.066 484.805,91.04 484.025,91.763 C479.559,95.908 476.047,99.164 472.207,102.732 C470.809,97.473 472.315,94.021 472.584,92.834 C472.796,91.902 472.51,90.937 471.65,90.485 C470.7,89.987 469.527,90.35 469.03,91.3 C466.532,96.081 466.119,101.637 467.439,107.153 C463.909,110.418 460.382,113.66 457.389,116.36 C455.796,111.019 456.122,106.379 457.669,101.131 C457.918,100.285 457.595,99.237 456.735,98.785 C455.785,98.287 454.609,98.651 454.112,99.601 C451.58,104.448 450.118,112.484 451.924,121.195 C448.811,123.911 445.908,126.372 443.42,128.299 C438.864,121.347 434.426,108.398 445.885,96.939 C451.522,91.302 463.224,82.257 474.872,82.039 Z" />
        </g>
        <g id="Black-S">
            <path d="M674.203,76.011 C664.041,76.281 652.51,81.499 641.476,92.533 C628.628,105.382 631.387,121.773 638.302,131.966 C635.154,133.987 632.615,135.092 630.586,135.221 C628.626,135.346 627.113,137.876 627.62,140.023 C628.126,142.17 630.265,143.454 632.421,142.992 C635.904,142.247 639.35,140.492 643.256,137.616 C650.445,143.677 669.734,153.267 685.972,137.029 C705.498,117.503 706.827,96.23 694.552,83.955 C689.182,78.586 682.107,75.801 674.203,76.011 Z M674.872,82.039 C680.167,81.939 685.45,83.664 690.146,88.361 C705.175,103.391 689.587,124.602 681.569,132.623 C668.86,145.331 654.342,138.49 648.182,133.618 C650.644,131.461 653.325,128.92 656.312,125.95 C663.606,127.993 672.938,128.088 679.147,124.66 C679.971,124.205 680.396,123.231 680.081,122.311 C679.732,121.297 678.69,120.81 677.602,121.082 C672.109,122.454 667.019,122.248 661.57,120.617 C664.377,117.737 667.482,114.52 670.85,111.005 C673.717,111.766 680.659,112.907 687.238,109.511 C688.074,109.079 688.483,108.081 688.169,107.162 C687.821,106.148 686.806,105.825 685.689,105.933 C681.496,106.341 677.989,106.475 675.539,106.112 C678.977,102.526 682.675,98.676 686.745,94.483 C687.449,93.757 687.449,92.584 686.745,91.839 C686.014,91.066 684.805,91.04 684.025,91.763 C679.559,95.908 676.047,99.164 672.207,102.732 C670.809,97.473 672.315,94.021 672.584,92.834 C672.796,91.902 672.51,90.937 671.65,90.485 C670.7,89.987 669.527,90.35 669.03,91.3 C666.532,96.081 666.119,101.637 667.439,107.153 C663.909,110.418 660.382,113.66 657.389,116.36 C655.796,111.019 656.122,106.379 657.669,101.131 C657.918,100.285 657.595,99.237 656.735,98.785 C655.785,98.287 654.609,98.651 654.112,99.601 C651.58,104.448 650.118,112.484 651.924,121.195 C648.811,123.911 645.908,126.372 643.42,128.299 C638.864,121.347 634.426,108.398 645.885,96.939 C651.522,91.302 663.224,82.257 674.872,82.039 Z" />
        </g>
    </g>
</svg>