<?xml version="1.0" encoding="UTF-8"?>
<svg height="600" width="800" xmlns="http://www.w3.org/2000/svg" xmlns:xlink="http://www.w3.org/1999/xlink">
    <g id="Notes" font-family="'LucidaGrande', 'Lucida Grande', sans-serif" font-size="13">
        <rect fill="white" height="600.0" width="800.0" x="0.0" y="0.0" />
        <g font-size="13">
            <text x="18.0" y="176.0">Small</text>
            <text x="18.0" y="376.0">Medium</text>
            <text x="18.0" y="576.0">Large</text>
        </g>
        <g font-size="9">
            <text x="250.0" y="30.0">Ultralight</text>
            <text x="450.0" y="30.0">Regular</text>
            <text x="650.0" y="30.0">Black</text>
            <text id="template-version" fill="#505050" text-anchor="end" x="785.0" y="575.0">Template v.3.0</text>
            <a href="https://wangchujiang.com/#/app">
                <text fill="#505050" text-anchor="end" x="785.0" y="590.0">https://wangchujiang.com/#/app</text>
            </a>
        </g>
    </g>
    <g id="Guides" stroke="rgb(39, 170, 225)" stroke-width="0.5">
        <path id="Capline-S" d="M18,76 l800,0" />
        <path id="H-reference" d="M85,145.755 L87.685,145.755 L113.369,79.287 L114.052,79.287 L114.052,76 L112.148,76 L85,145.755 Z M95.693,121.536 L130.996,121.536 L130.263,119.313 L96.474,119.313 L95.693,121.536 Z M139.15,145.755 L141.787,145.755 L114.638,76 L113.466,76 L113.466,79.287 L139.15,145.755 Z" stroke="none" />
        <path id="Baseline-S" d="M18,146 l800,0" />
        <path id="left-margin-Ultralight-S" d="M218.409,56 l0,110" />
        <path id="right-margin-Ultralight-S" d="M311.591,56 l0,110" />
        <path id="left-margin-Regular-S" d="M418.409,56 l0,110" />
        <path id="right-margin-Regular-S" d="M511.591,56 l0,110" />
        <path id="left-margin-Black-S" d="M618.409,56 l0,110" />
        <path id="right-margin-Black-S" d="M711.591,56 l0,110" />
        <path id="Capline-M" d="M18,276 l800,0" />
        <path id="Baseline-M" d="M18,346 l800,0" />
        <path id="Capline-L" d="M18,476 l800,0" />
        <path id="Baseline-L" d="M18,546 l800,0" />
    </g>
    <g id="Symbols">
        <g id="Ultralight-S">
            <path d="M265,76 C237.48,76 228.409,95.293 228.409,104.636 C228.409,110.288 238.468,112.836 252.127,113.753 C251.213,124.87 245.909,130.831 245.909,142.818 C245.909,144.575 247.335,146 249.091,146 L280.909,146 C282.665,146 284.091,144.575 284.091,142.818 C284.091,131.848 278.486,128.92 277.799,113.824 C292.122,112.847 301.591,109.84 301.591,104.636 C301.591,94.03 292.52,76 265,76 Z M265,82.364 C287.995,82.364 294.719,95.838 295.199,103.723 C291.793,105.635 284.318,107.818 266.591,107.818 C248.863,107.818 238.881,105.679 234.835,103.627 C235.479,97.834 241.448,82.364 265,82.364 Z M258.472,114.051 C261.111,114.135 263.817,114.182 266.591,114.182 C268.272,114.182 269.847,114.128 271.444,114.085 C272.147,129.475 277.51,135.117 277.51,139.636 L252.428,139.636 C252.428,133.696 257.525,125.407 258.472,114.051 Z" />
        </g>
        <g id="Regular-S">
            <path d="M465,76 C437.48,76 428.409,95.293 428.409,104.636 C428.409,110.288 438.468,112.836 452.127,113.753 C451.213,124.87 445.909,130.831 445.909,142.818 C445.909,144.575 447.335,146 449.091,146 L480.909,146 C482.665,146 484.091,144.575 484.091,142.818 C484.091,131.848 478.486,128.92 477.799,113.824 C492.122,112.847 501.591,109.84 501.591,104.636 C501.591,94.03 492.52,76 465,76 Z M465,82.364 C487.995,82.364 494.719,95.838 495.199,103.723 C491.793,105.635 484.318,107.818 466.591,107.818 C448.863,107.818 438.881,105.679 434.835,103.627 C435.479,97.834 441.448,82.364 465,82.364 Z M458.472,114.051 C461.111,114.135 463.817,114.182 466.591,114.182 C468.272,114.182 469.847,114.128 471.444,114.085 C472.147,129.475 477.51,135.117 477.51,139.636 L452.428,139.636 C452.428,133.696 457.525,125.407 458.472,114.051 Z" />
        </g>
        <g id="Black-S">
            <path d="M665,76 C637.48,76 628.409,95.293 628.409,104.636 C628.409,110.288 638.468,112.836 652.127,113.753 C651.213,124.87 645.909,130.831 645.909,142.818 C645.909,144.575 647.335,146 649.091,146 L680.909,146 C682.665,146 684.091,144.575 684.091,142.818 C684.091,131.848 678.486,128.92 677.799,113.824 C692.122,112.847 701.591,109.84 701.591,104.636 C701.591,94.03 692.52,76 665,76 Z M665,82.364 C687.995,82.364 694.719,95.838 695.199,103.723 C691.793,105.635 684.318,107.818 666.591,107.818 C648.863,107.818 638.881,105.679 634.835,103.627 C635.479,97.834 641.448,82.364 665,82.364 Z M658.472,114.051 C661.111,114.135 663.817,114.182 666.591,114.182 C668.272,114.182 669.847,114.128 671.444,114.085 C672.147,129.475 677.51,135.117 677.51,139.636 L652.428,139.636 C652.428,133.696 657.525,125.407 658.472,114.051 Z" />
        </g>
    </g>
</svg>