<?xml version="1.0" encoding="UTF-8"?>
<svg height="600" width="800" xmlns="http://www.w3.org/2000/svg" xmlns:xlink="http://www.w3.org/1999/xlink">
    <g id="Notes" font-family="'LucidaGrande', 'Lucida Grande', sans-serif" font-size="13">
        <rect fill="white" height="600.0" width="800.0" x="0.0" y="0.0" />
        <g font-size="13">
            <text x="18.0" y="176.0">Small</text>
            <text x="18.0" y="376.0">Medium</text>
            <text x="18.0" y="576.0">Large</text>
        </g>
        <g font-size="9">
            <text x="250.0" y="30.0">Ultralight</text>
            <text x="450.0" y="30.0">Regular</text>
            <text x="650.0" y="30.0">Black</text>
            <text id="template-version" fill="#505050" text-anchor="end" x="785.0" y="575.0">Template v.3.0</text>
            <a href="https://wangchujiang.com/#/app">
                <text fill="#505050" text-anchor="end" x="785.0" y="590.0">https://wangchujiang.com/#/app</text>
            </a>
        </g>
    </g>
    <g id="Guides" stroke="rgb(39, 170, 225)" stroke-width="0.5">
        <path id="Capline-S" d="M18,76 l800,0" />
        <path id="H-reference" d="M85,145.755 L87.685,145.755 L113.369,79.287 L114.052,79.287 L114.052,76 L112.148,76 L85,145.755 Z M95.693,121.536 L130.996,121.536 L130.263,119.313 L96.474,119.313 L95.693,121.536 Z M139.15,145.755 L141.787,145.755 L114.638,76 L113.466,76 L113.466,79.287 L139.15,145.755 Z" stroke="none" />
        <path id="Baseline-S" d="M18,146 l800,0" />
        <path id="left-margin-Ultralight-S" d="M216.585,56 l0,110" />
        <path id="right-margin-Ultralight-S" d="M313.415,56 l0,110" />
        <path id="left-margin-Regular-S" d="M416.585,56 l0,110" />
        <path id="right-margin-Regular-S" d="M513.415,56 l0,110" />
        <path id="left-margin-Black-S" d="M616.585,56 l0,110" />
        <path id="right-margin-Black-S" d="M713.415,56 l0,110" />
        <path id="Capline-M" d="M18,276 l800,0" />
        <path id="Baseline-M" d="M18,346 l800,0" />
        <path id="Capline-L" d="M18,476 l800,0" />
        <path id="Baseline-L" d="M18,546 l800,0" />
    </g>
    <g id="Symbols">
        <g id="Ultralight-S">
            <path d="M265,76 C243.459,76 226.585,86.498 226.585,99.902 L226.585,100.756 C226.585,125.703 243.819,146 265,146 C286.181,146 303.415,125.703 303.415,100.756 L303.415,99.902 C303.415,86.498 286.541,76 265,76 Z M265,82.829 C282.121,82.829 296.585,90.649 296.585,99.902 C296.585,109.156 282.121,116.976 265,116.976 C247.879,116.976 233.415,109.156 233.415,99.902 C233.415,90.649 247.879,82.829 265,82.829 Z M265,87.951 C254.606,87.951 244.085,91.764 244.085,99.049 C244.085,106.334 254.606,110.146 265,110.146 C275.394,110.146 285.915,106.334 285.915,99.049 C285.915,91.764 275.394,87.951 265,87.951 Z M265,94.78 C274.09,94.78 279.085,97.985 279.085,99.049 C279.085,100.112 274.09,103.317 265,103.317 C255.91,103.317 250.915,100.112 250.915,99.049 C250.915,97.985 255.91,94.78 265,94.78 Z M294.121,115.622 C289.334,129.442 278.085,139.171 265,139.171 C251.922,139.171 240.678,129.456 235.886,115.648 C242.877,120.671 253.238,123.805 265,123.805 C267.068,123.805 269.092,123.704 271.062,123.518 L275.964,132.341 L279.702,122.048 C285.331,120.634 290.239,118.415 294.121,115.622 Z" />
        </g>
        <g id="Regular-S">
            <path d="M465,76 C443.459,76 426.585,86.498 426.585,99.902 L426.585,100.756 C426.585,125.703 443.819,146 465,146 C486.181,146 503.415,125.703 503.415,100.756 L503.415,99.902 C503.415,86.498 486.541,76 465,76 Z M465,82.829 C482.121,82.829 496.585,90.649 496.585,99.902 C496.585,109.156 482.121,116.976 465,116.976 C447.879,116.976 433.415,109.156 433.415,99.902 C433.415,90.649 447.879,82.829 465,82.829 Z M465,87.951 C454.606,87.951 444.085,91.764 444.085,99.049 C444.085,106.334 454.606,110.146 465,110.146 C475.394,110.146 485.915,106.334 485.915,99.049 C485.915,91.764 475.394,87.951 465,87.951 Z M465,94.78 C474.09,94.78 479.085,97.985 479.085,99.049 C479.085,100.112 474.09,103.317 465,103.317 C455.91,103.317 450.915,100.112 450.915,99.049 C450.915,97.985 455.91,94.78 465,94.78 Z M494.121,115.622 C489.334,129.442 478.085,139.171 465,139.171 C451.922,139.171 440.678,129.456 435.886,115.648 C442.877,120.671 453.238,123.805 465,123.805 C467.068,123.805 469.092,123.704 471.062,123.518 L475.964,132.341 L479.702,122.048 C485.331,120.634 490.239,118.415 494.121,115.622 Z" />
        </g>
        <g id="Black-S">
            <path d="M665,76 C643.459,76 626.585,86.498 626.585,99.902 L626.585,100.756 C626.585,125.703 643.819,146 665,146 C686.181,146 703.415,125.703 703.415,100.756 L703.415,99.902 C703.415,86.498 686.541,76 665,76 Z M665,82.829 C682.121,82.829 696.585,90.649 696.585,99.902 C696.585,109.156 682.121,116.976 665,116.976 C647.879,116.976 633.415,109.156 633.415,99.902 C633.415,90.649 647.879,82.829 665,82.829 Z M665,87.951 C654.606,87.951 644.085,91.764 644.085,99.049 C644.085,106.334 654.606,110.146 665,110.146 C675.394,110.146 685.915,106.334 685.915,99.049 C685.915,91.764 675.394,87.951 665,87.951 Z M665,94.78 C674.09,94.78 679.085,97.985 679.085,99.049 C679.085,100.112 674.09,103.317 665,103.317 C655.91,103.317 650.915,100.112 650.915,99.049 C650.915,97.985 655.91,94.78 665,94.78 Z M694.121,115.622 C689.334,129.442 678.085,139.171 665,139.171 C651.922,139.171 640.678,129.456 635.886,115.648 C642.877,120.671 653.238,123.805 665,123.805 C667.068,123.805 669.092,123.704 671.062,123.518 L675.964,132.341 L679.702,122.048 C685.331,120.634 690.239,118.415 694.121,115.622 Z" />
        </g>
    </g>
</svg>