<?xml version="1.0" encoding="UTF-8"?>
<svg height="600" width="800" xmlns="http://www.w3.org/2000/svg" xmlns:xlink="http://www.w3.org/1999/xlink">
    <g id="Notes" font-family="'LucidaGrande', 'Lucida Grande', sans-serif" font-size="13">
        <rect fill="white" height="600.0" width="800.0" x="0.0" y="0.0" />
        <g font-size="13">
            <text x="18.0" y="176.0">Small</text>
            <text x="18.0" y="376.0">Medium</text>
            <text x="18.0" y="576.0">Large</text>
        </g>
        <g font-size="9">
            <text x="250.0" y="30.0">Ultralight</text>
            <text x="450.0" y="30.0">Regular</text>
            <text x="650.0" y="30.0">Black</text>
            <text id="template-version" fill="#505050" text-anchor="end" x="785.0" y="575.0">Template v.3.0</text>
            <a href="https://wangchujiang.com/#/app">
                <text fill="#505050" text-anchor="end" x="785.0" y="590.0">https://wangchujiang.com/#/app</text>
            </a>
        </g>
    </g>
    <g id="Guides" stroke="rgb(39, 170, 225)" stroke-width="0.5">
        <path id="Capline-S" d="M18,76 l800,0" />
        <path id="H-reference" d="M85,145.755 L87.685,145.755 L113.369,79.287 L114.052,79.287 L114.052,76 L112.148,76 L85,145.755 Z M95.693,121.536 L130.996,121.536 L130.263,119.313 L96.474,119.313 L95.693,121.536 Z M139.15,145.755 L141.787,145.755 L114.638,76 L113.466,76 L113.466,79.287 L139.15,145.755 Z" stroke="none" />
        <path id="Baseline-S" d="M18,146 l800,0" />
        <path id="left-margin-Ultralight-S" d="M221,56 l0,110" />
        <path id="right-margin-Ultralight-S" d="M309,56 l0,110" />
        <path id="left-margin-Regular-S" d="M421,56 l0,110" />
        <path id="right-margin-Regular-S" d="M509,56 l0,110" />
        <path id="left-margin-Black-S" d="M621,56 l0,110" />
        <path id="right-margin-Black-S" d="M709,56 l0,110" />
        <path id="Capline-M" d="M18,276 l800,0" />
        <path id="Baseline-M" d="M18,346 l800,0" />
        <path id="Capline-L" d="M18,476 l800,0" />
        <path id="Baseline-L" d="M18,546 l800,0" />
    </g>
    <g id="Symbols">
        <g id="Ultralight-S">
            <path d="M259.948,146 C255.327,146 250.889,144.839 247,142.561 C232.785,134.235 229.276,113.309 239.175,95.912 C244.573,86.425 253.072,79.538 262.49,77.015 C269.734,75.075 277.017,75.934 283,79.438 L283,79.438 C297.215,87.764 300.724,108.69 290.825,126.087 C285.426,135.574 276.928,142.461 267.509,144.985 C264.974,145.664 262.435,146 259.948,146 Z M270.112,81.386 C268.09,81.386 266.006,81.667 263.889,82.235 C255.857,84.386 248.56,90.346 243.873,98.585 C235.429,113.422 238.057,131.058 249.732,137.897 C254.526,140.705 260.189,141.349 266.11,139.763 C274.142,137.61 281.44,131.651 286.127,123.412 C294.571,108.574 291.941,90.939 280.268,84.1 L280.268,84.1 C277.189,82.298 273.75,81.386 270.112,81.386 Z" />
            <path d="M263.914,123.028 C262.258,123.028 260.628,122.625 259.154,121.773 C256.572,120.281 254.864,117.697 254.348,114.496 C253.864,111.501 254.495,108.293 256.129,105.466 C257.76,102.641 260.22,100.488 263.056,99.41 C266.086,98.256 269.177,98.443 271.761,99.934 L271.761,99.934 L271.761,99.934 C276.906,102.904 278.263,110.218 274.788,116.24 C272.309,120.534 268.03,123.027 263.914,123.028 Z M266.968,104.075 C266.329,104.075 265.657,104.203 264.979,104.461 C263.302,105.099 261.82,106.416 260.809,108.169 C259.796,109.921 259.396,111.862 259.682,113.633 C259.936,115.199 260.708,116.427 261.855,117.091 C264.371,118.545 268.154,116.919 270.106,113.537 C272.058,110.156 271.578,106.069 269.058,104.614 L269.058,104.614 C268.437,104.256 267.726,104.075 266.968,104.075 Z" />
            <path d="M266.06,125.886 L266.06,125.886 C264.625,126.294 263.791,127.79 264.199,129.225 C264.607,130.66 266.103,131.493 267.537,131.085 L267.537,131.085 C268.972,130.677 269.806,129.181 269.398,127.746 C268.991,126.311 267.495,125.478 266.06,125.886 Z" />
            <path d="M257.572,125.178 L257.572,125.178 C256.256,124.475 254.618,124.971 253.914,126.287 C253.211,127.602 253.707,129.241 255.023,129.945 C255.023,129.945 255.023,129.945 255.023,129.945 C256.338,130.647 257.977,130.152 258.681,128.836 C259.384,127.519 258.886,125.882 257.572,125.178 Z" />
            <path d="M273.851,120.953 C273.851,120.953 273.851,120.953 273.851,120.953 C272.836,122.046 272.9,123.758 273.993,124.772 C275.086,125.787 276.797,125.724 277.812,124.631 C277.812,124.631 277.812,124.631 277.812,124.631 C278.826,123.537 278.763,121.827 277.67,120.812 C276.578,119.796 274.866,119.859 273.851,120.953 Z" />
            <path d="M252.329,118.527 C252.329,118.527 252.329,118.527 252.329,118.527 C251.893,117.1 250.381,116.298 248.954,116.734 C247.527,117.171 246.724,118.683 247.161,120.109 C247.161,120.109 247.161,120.109 247.161,120.109 C247.597,121.535 249.11,122.339 250.536,121.902 C251.961,121.465 252.765,119.953 252.329,118.527 Z" />
            <path d="M278.506,112.718 C278.506,112.718 278.506,112.718 278.506,112.718 C278.094,114.152 278.924,115.65 280.356,116.062 C281.79,116.475 283.288,115.645 283.7,114.213 L283.7,114.213 C284.112,112.779 283.283,111.281 281.85,110.868 C280.417,110.456 278.918,111.285 278.506,112.718 Z" />
            <path d="M252.311,109.344 L252.311,109.344 C252.697,107.903 251.839,106.42 250.398,106.036 C248.958,105.651 247.475,106.509 247.09,107.95 C246.705,109.39 247.563,110.872 249.004,111.258 C250.444,111.643 251.926,110.785 252.311,109.344 Z" />
            <path d="M278.687,103.518 L278.687,103.518 C279.087,104.954 280.579,105.796 282.015,105.396 C283.452,104.996 284.293,103.504 283.893,102.068 C283.493,100.632 282.002,99.79 280.564,100.19 C279.128,100.59 278.286,102.081 278.687,103.518 Z" />
            <path d="M272.813,95.075 L272.813,95.075 C273.213,96.512 274.705,97.354 276.141,96.954 C277.578,96.554 278.42,95.062 278.02,93.626 C277.62,92.189 276.128,91.347 274.692,91.747 C273.254,92.147 272.413,93.639 272.813,95.075 Z" />
            <path d="M256.816,101.028 L256.816,101.028 C257.811,99.915 257.715,98.206 256.603,97.212 C255.491,96.217 253.782,96.313 252.787,97.425 C251.793,98.537 251.889,100.247 253.001,101.241 C254.113,102.236 255.822,102.14 256.816,101.028 Z" />
            <path d="M264.517,95.923 L264.517,95.923 C265.941,95.479 266.738,93.963 266.295,92.539 C265.852,91.115 264.336,90.318 262.912,90.761 C262.912,90.761 262.912,90.761 262.912,90.761 C261.488,91.204 260.69,92.72 261.134,94.144 C261.577,95.569 263.093,96.366 264.517,95.923 Z" />
        </g>
        <g id="Regular-S">
            <path d="M459.948,146 C455.327,146 450.889,144.839 447,142.561 C432.785,134.235 429.276,113.309 439.175,95.912 C444.573,86.425 453.072,79.538 462.49,77.015 C469.734,75.075 477.017,75.934 483,79.438 L483,79.438 C497.215,87.764 500.724,108.69 490.825,126.087 C485.426,135.574 476.928,142.461 467.509,144.985 C464.974,145.664 462.435,146 459.948,146 Z M470.112,81.386 C468.09,81.386 466.006,81.667 463.889,82.235 C455.857,84.386 448.56,90.346 443.873,98.585 C435.429,113.422 438.057,131.058 449.732,137.897 C454.526,140.705 460.189,141.349 466.11,139.763 C474.142,137.61 481.44,131.651 486.127,123.412 C494.571,108.574 491.941,90.939 480.268,84.1 L480.268,84.1 C477.189,82.298 473.75,81.386 470.112,81.386 Z" />
            <path d="M463.914,123.028 C462.258,123.028 460.628,122.625 459.154,121.773 C456.572,120.281 454.864,117.697 454.348,114.496 C453.864,111.501 454.495,108.293 456.129,105.466 C457.76,102.641 460.22,100.488 463.056,99.41 C466.086,98.256 469.177,98.443 471.761,99.934 L471.761,99.934 L471.761,99.934 C476.906,102.904 478.263,110.218 474.788,116.24 C472.309,120.534 468.03,123.027 463.914,123.028 Z M466.968,104.075 C466.329,104.075 465.657,104.203 464.979,104.461 C463.302,105.099 461.82,106.416 460.809,108.169 C459.796,109.921 459.396,111.862 459.682,113.633 C459.936,115.199 460.708,116.427 461.855,117.091 C464.371,118.545 468.154,116.919 470.106,113.537 C472.058,110.156 471.578,106.069 469.058,104.614 L469.058,104.614 C468.437,104.256 467.726,104.075 466.968,104.075 Z" />
            <path d="M466.06,125.886 L466.06,125.886 C464.625,126.294 463.791,127.79 464.199,129.225 C464.607,130.66 466.103,131.493 467.537,131.085 L467.537,131.085 C468.972,130.677 469.806,129.181 469.398,127.746 C468.991,126.311 467.495,125.478 466.06,125.886 Z" />
            <path d="M457.572,125.178 L457.572,125.178 C456.256,124.475 454.618,124.971 453.914,126.287 C453.211,127.602 453.707,129.241 455.023,129.945 C455.023,129.945 455.023,129.945 455.023,129.945 C456.338,130.647 457.977,130.152 458.681,128.836 C459.384,127.519 458.886,125.882 457.572,125.178 Z" />
            <path d="M473.851,120.953 C473.851,120.953 473.851,120.953 473.851,120.953 C472.836,122.046 472.9,123.758 473.993,124.772 C475.086,125.787 476.797,125.724 477.812,124.631 C477.812,124.631 477.812,124.631 477.812,124.631 C478.826,123.537 478.763,121.827 477.67,120.812 C476.578,119.796 474.866,119.859 473.851,120.953 Z" />
            <path d="M452.329,118.527 C452.329,118.527 452.329,118.527 452.329,118.527 C451.893,117.1 450.381,116.298 448.954,116.734 C447.527,117.171 446.724,118.683 447.161,120.109 C447.161,120.109 447.161,120.109 447.161,120.109 C447.597,121.535 449.11,122.339 450.536,121.902 C451.961,121.465 452.765,119.953 452.329,118.527 Z" />
            <path d="M478.506,112.718 C478.506,112.718 478.506,112.718 478.506,112.718 C478.094,114.152 478.924,115.65 480.356,116.062 C481.789,116.475 483.288,115.645 483.7,114.213 L483.7,114.213 C484.112,112.779 483.283,111.281 481.85,110.868 C480.417,110.456 478.918,111.285 478.506,112.718 Z" />
            <path d="M452.311,109.344 L452.311,109.344 C452.697,107.903 451.839,106.42 450.398,106.036 C448.958,105.651 447.475,106.509 447.09,107.95 C446.705,109.39 447.563,110.872 449.004,111.258 C450.444,111.643 451.926,110.785 452.311,109.344 Z" />
            <path d="M478.687,103.518 L478.687,103.518 C479.087,104.954 480.579,105.796 482.015,105.396 C483.452,104.996 484.293,103.504 483.893,102.068 C483.493,100.632 482.002,99.79 480.564,100.19 C479.128,100.59 478.286,102.081 478.687,103.518 Z" />
            <path d="M472.813,95.075 L472.813,95.075 C473.213,96.512 474.705,97.354 476.141,96.954 C477.578,96.554 478.42,95.062 478.02,93.626 C477.62,92.189 476.128,91.347 474.692,91.747 C473.254,92.147 472.413,93.639 472.813,95.075 Z" />
            <path d="M456.816,101.028 L456.816,101.028 C457.811,99.915 457.715,98.206 456.603,97.212 C455.491,96.217 453.782,96.313 452.787,97.425 C451.793,98.537 451.888,100.247 453.001,101.241 C454.113,102.236 455.822,102.14 456.816,101.028 Z" />
            <path d="M464.517,95.923 L464.517,95.923 C465.941,95.479 466.738,93.963 466.295,92.539 C465.852,91.115 464.336,90.318 462.912,90.761 C462.912,90.761 462.912,90.761 462.912,90.761 C461.488,91.204 460.69,92.72 461.133,94.144 C461.577,95.569 463.093,96.366 464.517,95.923 Z" />
        </g>
        <g id="Black-S">
            <path d="M659.948,146 C655.327,146 650.889,144.839 647,142.561 C632.785,134.235 629.276,113.309 639.175,95.912 C644.573,86.425 653.072,79.538 662.49,77.015 C669.734,75.075 677.017,75.934 683,79.438 L683,79.438 C697.215,87.764 700.724,108.69 690.825,126.087 C685.426,135.574 676.928,142.461 667.509,144.985 C664.974,145.664 662.435,146 659.948,146 Z M670.112,81.386 C668.09,81.386 666.006,81.667 663.889,82.235 C655.857,84.386 648.56,90.346 643.873,98.585 C635.429,113.422 638.057,131.058 649.732,137.897 C654.526,140.705 660.189,141.349 666.11,139.763 C674.142,137.61 681.44,131.651 686.127,123.412 C694.571,108.574 691.941,90.939 680.268,84.1 L680.268,84.1 C677.189,82.298 673.75,81.386 670.112,81.386 Z" />
            <path d="M663.914,123.028 C662.258,123.028 660.628,122.625 659.154,121.773 C656.572,120.281 654.864,117.697 654.348,114.496 C653.864,111.501 654.495,108.293 656.129,105.466 C657.76,102.641 660.22,100.488 663.056,99.41 C666.086,98.256 669.177,98.443 671.761,99.934 L671.761,99.934 L671.761,99.934 C676.906,102.904 678.263,110.218 674.788,116.24 C672.309,120.534 668.03,123.027 663.914,123.028 Z M666.968,104.075 C666.329,104.075 665.657,104.203 664.979,104.461 C663.302,105.099 661.82,106.416 660.809,108.169 C659.796,109.921 659.396,111.862 659.682,113.633 C659.936,115.199 660.708,116.427 661.855,117.091 C664.371,118.545 668.154,116.919 670.106,113.537 C672.058,110.156 671.578,106.069 669.058,104.614 L669.058,104.614 C668.437,104.256 667.726,104.075 666.968,104.075 Z" />
            <path d="M666.06,125.886 L666.06,125.886 C664.625,126.294 663.791,127.79 664.199,129.225 C664.607,130.66 666.103,131.493 667.537,131.085 L667.537,131.085 C668.972,130.677 669.806,129.181 669.398,127.746 C668.991,126.311 667.495,125.478 666.06,125.886 Z" />
            <path d="M657.572,125.178 L657.572,125.178 C656.256,124.475 654.618,124.971 653.914,126.287 C653.211,127.602 653.707,129.241 655.023,129.945 C655.023,129.945 655.023,129.945 655.023,129.945 C656.338,130.647 657.977,130.152 658.681,128.836 C659.384,127.519 658.886,125.882 657.572,125.178 Z" />
            <path d="M673.851,120.953 C673.851,120.953 673.851,120.953 673.851,120.953 C672.836,122.046 672.9,123.758 673.993,124.772 C675.086,125.787 676.797,125.724 677.812,124.631 C677.812,124.631 677.812,124.631 677.812,124.631 C678.826,123.537 678.763,121.827 677.67,120.812 C676.578,119.796 674.866,119.859 673.851,120.953 Z" />
            <path d="M652.329,118.527 C652.329,118.527 652.329,118.527 652.329,118.527 C651.893,117.1 650.381,116.298 648.954,116.734 C647.527,117.171 646.724,118.683 647.161,120.109 C647.161,120.109 647.161,120.109 647.161,120.109 C647.597,121.535 649.11,122.339 650.536,121.902 C651.961,121.465 652.765,119.953 652.329,118.527 Z" />
            <path d="M678.506,112.718 C678.506,112.718 678.506,112.718 678.506,112.718 C678.094,114.152 678.924,115.65 680.356,116.062 C681.789,116.475 683.288,115.645 683.7,114.213 L683.7,114.213 C684.112,112.779 683.283,111.281 681.85,110.868 C680.417,110.456 678.918,111.285 678.506,112.718 Z" />
            <path d="M652.311,109.344 L652.311,109.344 C652.697,107.903 651.839,106.42 650.398,106.036 C648.958,105.651 647.475,106.509 647.09,107.95 C646.705,109.39 647.563,110.872 649.004,111.258 C650.444,111.643 651.926,110.785 652.311,109.344 Z" />
            <path d="M678.687,103.518 L678.687,103.518 C679.087,104.954 680.579,105.796 682.015,105.396 C683.451,104.996 684.293,103.504 683.893,102.068 C683.493,100.632 682.002,99.79 680.564,100.19 C679.128,100.59 678.286,102.081 678.687,103.518 Z" />
            <path d="M672.813,95.075 L672.813,95.075 C673.213,96.512 674.705,97.354 676.141,96.954 C677.578,96.554 678.42,95.062 678.02,93.626 C677.62,92.189 676.128,91.347 674.692,91.747 C673.254,92.147 672.413,93.639 672.813,95.075 Z" />
            <path d="M656.816,101.028 L656.816,101.028 C657.811,99.915 657.715,98.206 656.603,97.212 C655.491,96.217 653.782,96.313 652.787,97.425 C651.793,98.537 651.888,100.247 653.001,101.241 C654.113,102.236 655.822,102.14 656.816,101.028 Z" />
            <path d="M664.517,95.923 L664.517,95.923 C665.941,95.479 666.738,93.963 666.295,92.539 C665.852,91.115 664.336,90.318 662.912,90.761 C662.912,90.761 662.912,90.761 662.912,90.761 C661.487,91.204 660.69,92.72 661.133,94.144 C661.577,95.569 663.093,96.366 664.517,95.923 Z" />
        </g>
    </g>
</svg>