<?xml version="1.0" encoding="UTF-8"?>
<svg height="600" width="800" xmlns="http://www.w3.org/2000/svg" xmlns:xlink="http://www.w3.org/1999/xlink">
    <g id="Notes" font-family="'LucidaGrande', 'Lucida Grande', sans-serif" font-size="13">
        <rect fill="white" height="600.0" width="800.0" x="0.0" y="0.0" />
        <g font-size="13">
            <text x="18.0" y="176.0">Small</text>
            <text x="18.0" y="376.0">Medium</text>
            <text x="18.0" y="576.0">Large</text>
        </g>
        <g font-size="9">
            <text x="250.0" y="30.0">Ultralight</text>
            <text x="450.0" y="30.0">Regular</text>
            <text x="650.0" y="30.0">Black</text>
            <text id="template-version" fill="#505050" text-anchor="end" x="785.0" y="575.0">Template v.3.0</text>
            <a href="https://wangchujiang.com/#/app">
                <text fill="#505050" text-anchor="end" x="785.0" y="590.0">https://wangchujiang.com/#/app</text>
            </a>
        </g>
    </g>
    <g id="Guides" stroke="rgb(39, 170, 225)" stroke-width="0.5">
        <path id="Capline-S" d="M18,76 l800,0" />
        <path id="H-reference" d="M85,145.755 L87.685,145.755 L113.369,79.287 L114.052,79.287 L114.052,76 L112.148,76 L85,145.755 Z M95.693,121.536 L130.996,121.536 L130.263,119.313 L96.474,119.313 L95.693,121.536 Z M139.15,145.755 L141.787,145.755 L114.638,76 L113.466,76 L113.466,79.287 L139.15,145.755 Z" stroke="none" />
        <path id="Baseline-S" d="M18,146 l800,0" />
        <path id="left-margin-Ultralight-S" d="M221,56 l0,110" />
        <path id="right-margin-Ultralight-S" d="M309,56 l0,110" />
        <path id="left-margin-Regular-S" d="M421,56 l0,110" />
        <path id="right-margin-Regular-S" d="M509,56 l0,110" />
        <path id="left-margin-Black-S" d="M621,56 l0,110" />
        <path id="right-margin-Black-S" d="M709,56 l0,110" />
        <path id="Capline-M" d="M18,276 l800,0" />
        <path id="Baseline-M" d="M18,346 l800,0" />
        <path id="Capline-L" d="M18,476 l800,0" />
        <path id="Baseline-L" d="M18,546 l800,0" />
    </g>
    <g id="Symbols">
        <g id="Ultralight-S">
            <path d="M273.43,76.002 C273.07,75.988 272.703,76.043 272.344,76.178 C268.456,77.637 265.733,80.653 264.45,84.755 C261.417,82.224 256.979,79.468 251.832,79.468 C242.552,79.468 235.397,88.463 235.096,88.845 C234.31,89.849 234.31,91.261 235.096,92.265 C235.294,92.518 238.485,96.507 243.288,99.2 C239.393,104.246 237.278,110.399 237.278,116.892 C237.278,132.943 250.336,146 266.386,146 C282.435,146 295.494,132.943 295.494,116.892 C295.494,101.854 284.033,89.445 269.388,87.938 C269.827,85.428 271.056,82.581 274.288,81.368 C275.721,80.83 276.45,79.233 275.912,77.8 C275.509,76.724 274.509,76.046 273.43,76.002 Z M251.832,85.012 C256.342,85.012 260.467,88.404 262.628,90.551 C260.46,92.695 256.312,96.101 251.832,96.101 C247.32,96.101 243.194,92.707 241.035,90.562 C243.203,88.417 247.352,85.012 251.832,85.012 Z M267.588,93.388 C280.021,94.02 289.949,104.304 289.949,116.892 C289.949,129.885 279.379,140.456 266.386,140.456 C253.392,140.456 242.822,129.885 242.822,116.892 C242.822,111.074 244.935,105.607 248.764,101.309 C249.757,101.516 250.778,101.645 251.832,101.645 C259.317,101.645 265.349,95.852 267.588,93.388 Z M274.009,118.278 C272.862,118.278 271.93,119.21 271.93,120.357 C271.93,121.505 272.862,122.436 274.009,122.436 C275.157,122.436 276.088,121.505 276.088,120.357 C276.088,119.21 275.157,118.278 274.009,118.278 Z M282.326,119.664 C281.178,119.664 280.247,120.596 280.247,121.743 C280.247,122.891 281.178,123.823 282.326,123.823 C283.473,123.823 284.405,122.891 284.405,121.743 C284.405,120.596 283.473,119.664 282.326,119.664 Z M276.781,126.595 C275.634,126.595 274.702,127.526 274.702,128.674 C274.702,129.822 275.634,130.753 276.781,130.753 C277.929,130.753 278.861,129.822 278.861,128.674 C278.861,127.526 277.929,126.595 276.781,126.595 Z" />
        </g>
        <g id="Regular-S">
            <path d="M473.43,76.002 C473.07,75.988 472.703,76.043 472.344,76.178 C468.456,77.637 465.733,80.653 464.45,84.755 C461.417,82.224 456.979,79.468 451.832,79.468 C442.552,79.468 435.397,88.463 435.096,88.845 C434.31,89.849 434.31,91.261 435.096,92.265 C435.294,92.518 438.485,96.507 443.288,99.2 C439.393,104.246 437.278,110.399 437.278,116.892 C437.278,132.943 450.336,146 466.386,146 C482.435,146 495.494,132.943 495.494,116.892 C495.494,101.854 484.033,89.445 469.388,87.938 C469.827,85.428 471.056,82.581 474.288,81.368 C475.721,80.83 476.45,79.233 475.912,77.8 C475.509,76.724 474.509,76.046 473.43,76.002 Z M451.832,85.012 C456.342,85.012 460.467,88.404 462.628,90.551 C460.46,92.695 456.312,96.101 451.832,96.101 C447.32,96.101 443.194,92.707 441.035,90.562 C443.203,88.417 447.352,85.012 451.832,85.012 Z M467.588,93.388 C480.021,94.02 489.949,104.304 489.949,116.892 C489.949,129.885 479.379,140.456 466.386,140.456 C453.392,140.456 442.822,129.885 442.822,116.892 C442.822,111.074 444.935,105.607 448.764,101.309 C449.757,101.516 450.778,101.645 451.832,101.645 C459.317,101.645 465.349,95.852 467.588,93.388 Z M474.009,118.278 C472.862,118.278 471.93,119.21 471.93,120.357 C471.93,121.505 472.862,122.436 474.009,122.436 C475.157,122.436 476.088,121.505 476.088,120.357 C476.088,119.21 475.157,118.278 474.009,118.278 Z M482.326,119.664 C481.178,119.664 480.247,120.596 480.247,121.743 C480.247,122.891 481.178,123.823 482.326,123.823 C483.473,123.823 484.405,122.891 484.405,121.743 C484.405,120.596 483.473,119.664 482.326,119.664 Z M476.781,126.595 C475.634,126.595 474.702,127.526 474.702,128.674 C474.702,129.822 475.634,130.753 476.781,130.753 C477.929,130.753 478.861,129.822 478.861,128.674 C478.861,127.526 477.929,126.595 476.781,126.595 Z" />
        </g>
        <g id="Black-S">
            <path d="M673.43,76.002 C673.07,75.988 672.703,76.043 672.344,76.178 C668.456,77.637 665.733,80.653 664.45,84.755 C661.417,82.224 656.979,79.468 651.832,79.468 C642.552,79.468 635.397,88.463 635.096,88.845 C634.31,89.849 634.31,91.261 635.096,92.265 C635.294,92.518 638.485,96.507 643.288,99.2 C639.393,104.246 637.278,110.399 637.278,116.892 C637.278,132.943 650.336,146 666.386,146 C682.435,146 695.494,132.943 695.494,116.892 C695.494,101.854 684.033,89.445 669.388,87.938 C669.827,85.428 671.056,82.581 674.288,81.368 C675.721,80.83 676.45,79.233 675.912,77.8 C675.509,76.724 674.509,76.046 673.43,76.002 Z M651.832,85.012 C656.342,85.012 660.467,88.404 662.628,90.551 C660.46,92.695 656.312,96.101 651.832,96.101 C647.32,96.101 643.194,92.707 641.035,90.562 C643.203,88.417 647.352,85.012 651.832,85.012 Z M667.588,93.388 C680.021,94.02 689.949,104.304 689.949,116.892 C689.949,129.885 679.379,140.456 666.386,140.456 C653.393,140.456 642.822,129.885 642.822,116.892 C642.822,111.074 644.935,105.607 648.765,101.309 C649.757,101.516 650.778,101.645 651.832,101.645 C659.317,101.645 665.349,95.852 667.588,93.388 Z M674.009,118.278 C672.862,118.278 671.93,119.21 671.93,120.357 C671.93,121.505 672.862,122.436 674.009,122.436 C675.157,122.436 676.088,121.505 676.088,120.357 C676.088,119.21 675.157,118.278 674.009,118.278 Z M682.326,119.664 C681.178,119.664 680.247,120.596 680.247,121.743 C680.247,122.891 681.178,123.823 682.326,123.823 C683.474,123.823 684.405,122.891 684.405,121.743 C684.405,120.596 683.474,119.664 682.326,119.664 Z M676.781,126.595 C675.634,126.595 674.702,127.526 674.702,128.674 C674.702,129.822 675.634,130.753 676.781,130.753 C677.929,130.753 678.861,129.822 678.861,128.674 C678.861,127.526 677.929,126.595 676.781,126.595 Z" />
        </g>
    </g>
</svg>