<?xml version="1.0" encoding="UTF-8"?>
<svg height="600" width="800" xmlns="http://www.w3.org/2000/svg" xmlns:xlink="http://www.w3.org/1999/xlink">
    <g id="Notes" font-family="'LucidaGrande', 'Lucida Grande', sans-serif" font-size="13">
        <rect fill="white" height="600.0" width="800.0" x="0.0" y="0.0" />
        <g font-size="13">
            <text x="18.0" y="176.0">Small</text>
            <text x="18.0" y="376.0">Medium</text>
            <text x="18.0" y="576.0">Large</text>
        </g>
        <g font-size="9">
            <text x="250.0" y="30.0">Ultralight</text>
            <text x="450.0" y="30.0">Regular</text>
            <text x="650.0" y="30.0">Black</text>
            <text id="template-version" fill="#505050" text-anchor="end" x="785.0" y="575.0">Template v.3.0</text>
            <a href="https://wangchujiang.com/#/app">
                <text fill="#505050" text-anchor="end" x="785.0" y="590.0">https://wangchujiang.com/#/app</text>
            </a>
        </g>
    </g>
    <g id="Guides" stroke="rgb(39, 170, 225)" stroke-width="0.5">
        <path id="Capline-S" d="M18,76 l800,0" />
        <path id="H-reference" d="M85,145.755 L87.685,145.755 L113.369,79.287 L114.052,79.287 L114.052,76 L112.148,76 L85,145.755 Z M95.693,121.536 L130.996,121.536 L130.263,119.313 L96.474,119.313 L95.693,121.536 Z M139.15,145.755 L141.787,145.755 L114.638,76 L113.466,76 L113.466,79.287 L139.15,145.755 Z" stroke="none" />
        <path id="Baseline-S" d="M18,146 l800,0" />
        <path id="left-margin-Ultralight-S" d="M221,56 l0,110" />
        <path id="right-margin-Ultralight-S" d="M309,56 l0,110" />
        <path id="left-margin-Regular-S" d="M421,56 l0,110" />
        <path id="right-margin-Regular-S" d="M509,56 l0,110" />
        <path id="left-margin-Black-S" d="M621,56 l0,110" />
        <path id="right-margin-Black-S" d="M709,56 l0,110" />
        <path id="Capline-M" d="M18,276 l800,0" />
        <path id="Baseline-M" d="M18,346 l800,0" />
        <path id="Capline-L" d="M18,476 l800,0" />
        <path id="Baseline-L" d="M18,546 l800,0" />
    </g>
    <g id="Symbols">
        <g id="Ultralight-S">
            <path d="M250.263,76 C248.907,76 247.807,77.1 247.807,78.456 C247.807,82.518 249.31,85.76 251.438,88.326 C251.105,88.776 250.877,89.221 250.798,89.552 C250.756,89.719 250.719,89.886 250.676,90.032 C249.423,94.202 251.129,99.069 254.924,102.144 C256.527,103.444 259.871,105.493 265.024,105.493 C268.615,105.492 273.089,104.496 278.461,101.557 C279.451,101.015 279.943,99.872 279.658,98.782 C279.561,98.413 277.246,89.709 272.623,84.611 C267.438,78.898 260.799,81.284 258.428,83.066 C259.63,84.407 261.203,85.492 262.729,86.328 C264.242,85.778 266.749,85.451 268.982,87.911 C271.643,90.845 273.468,95.559 274.333,98.158 C264.996,102.623 259.854,99.82 258.013,98.331 C255.895,96.612 254.85,94.08 255.288,91.888 C259.988,95.324 265.234,96.704 265.631,96.803 C267.036,97.157 268.304,96.234 268.61,95.018 C268.94,93.703 268.141,92.37 266.825,92.039 C266.684,92.004 252.719,88.388 252.719,78.456 C252.719,77.1 251.619,76 250.263,76 Z M245.351,107.93 C241.965,107.93 239.211,110.684 239.211,114.07 L239.211,115.298 C239.211,124.299 243.88,132.583 251.491,137.267 L251.491,141.088 C251.491,143.797 253.694,146 256.404,146 L273.596,146 C276.306,146 278.509,143.797 278.509,141.088 L278.509,137.267 C286.12,132.583 290.789,124.299 290.789,115.298 L290.789,114.07 C290.789,110.684 288.035,107.93 284.649,107.93 L245.351,107.93 Z M245.351,112.842 L284.649,112.842 C285.327,112.842 285.877,113.392 285.877,114.07 L285.877,115.298 C285.877,122.999 281.652,130.056 274.853,133.705 C274.069,134.125 273.596,134.959 273.596,135.849 L273.596,139.86 C273.596,140.538 273.046,141.088 272.368,141.088 L257.632,141.088 C256.954,141.088 256.404,140.538 256.404,139.86 L256.404,135.849 C256.404,134.959 255.931,134.125 255.147,133.705 C248.348,130.056 244.123,122.999 244.123,115.298 L244.123,114.07 C244.123,113.392 244.673,112.842 245.351,112.842 Z" />
        </g>
        <g id="Regular-S">
            <path d="M450.263,76 C448.907,76 447.807,77.1 447.807,78.456 C447.807,82.518 449.31,85.76 451.438,88.326 C451.105,88.776 450.877,89.221 450.798,89.552 C450.756,89.719 450.719,89.886 450.676,90.032 C449.423,94.202 451.129,99.069 454.924,102.144 C456.527,103.444 459.871,105.493 465.024,105.493 C468.615,105.492 473.089,104.496 478.461,101.557 C479.451,101.015 479.943,99.872 479.658,98.782 C479.561,98.413 477.246,89.709 472.623,84.611 C467.438,78.898 460.799,81.284 458.428,83.066 C459.63,84.407 461.203,85.492 462.729,86.328 C464.242,85.778 466.749,85.451 468.982,87.911 C471.643,90.845 473.468,95.559 474.333,98.158 C464.996,102.623 459.854,99.82 458.013,98.331 C455.895,96.612 454.85,94.08 455.288,91.888 C459.988,95.324 465.234,96.704 465.631,96.803 C467.036,97.157 468.304,96.234 468.61,95.018 C468.94,93.703 468.141,92.37 466.825,92.039 C466.684,92.004 452.719,88.388 452.719,78.456 C452.719,77.1 451.619,76 450.263,76 Z M445.351,107.93 C441.965,107.93 439.211,110.684 439.211,114.07 L439.211,115.298 C439.211,124.299 443.88,132.583 451.491,137.267 L451.491,141.088 C451.491,143.797 453.694,146 456.404,146 L473.596,146 C476.306,146 478.509,143.797 478.509,141.088 L478.509,137.267 C486.12,132.583 490.789,124.299 490.789,115.298 L490.789,114.07 C490.789,110.684 488.035,107.93 484.649,107.93 L445.351,107.93 Z M445.351,112.842 L484.649,112.842 C485.327,112.842 485.877,113.392 485.877,114.07 L485.877,115.298 C485.877,122.999 481.652,130.056 474.853,133.705 C474.069,134.125 473.596,134.959 473.596,135.849 L473.596,139.86 C473.596,140.538 473.046,141.088 472.368,141.088 L457.632,141.088 C456.954,141.088 456.404,140.538 456.404,139.86 L456.404,135.849 C456.404,134.959 455.931,134.125 455.147,133.705 C448.348,130.056 444.123,122.999 444.123,115.298 L444.123,114.07 C444.123,113.392 444.673,112.842 445.351,112.842 Z" />
        </g>
        <g id="Black-S">
            <path d="M650.263,76 C648.907,76 647.807,77.1 647.807,78.456 C647.807,82.518 649.31,85.76 651.438,88.326 C651.105,88.776 650.877,89.221 650.798,89.552 C650.756,89.719 650.719,89.886 650.676,90.032 C649.423,94.202 651.129,99.069 654.924,102.144 C656.527,103.444 659.871,105.493 665.024,105.493 C668.615,105.492 673.089,104.496 678.461,101.557 C679.451,101.015 679.943,99.872 679.658,98.782 C679.561,98.413 677.246,89.709 672.623,84.611 C667.438,78.898 660.799,81.284 658.428,83.066 C659.63,84.407 661.203,85.492 662.729,86.328 C664.242,85.778 666.749,85.451 668.982,87.911 C671.643,90.845 673.468,95.559 674.333,98.158 C664.996,102.623 659.854,99.82 658.013,98.331 C655.895,96.612 654.85,94.08 655.288,91.888 C659.988,95.324 665.234,96.704 665.631,96.803 C667.036,97.157 668.304,96.234 668.61,95.018 C668.94,93.703 668.141,92.37 666.825,92.039 C666.684,92.004 652.719,88.388 652.719,78.456 C652.719,77.1 651.619,76 650.263,76 Z M645.351,107.93 C641.965,107.93 639.211,110.684 639.211,114.07 L639.211,115.298 C639.211,124.299 643.88,132.583 651.491,137.267 L651.491,141.088 C651.491,143.797 653.694,146 656.404,146 L673.596,146 C676.306,146 678.509,143.797 678.509,141.088 L678.509,137.267 C686.12,132.583 690.789,124.299 690.789,115.298 L690.789,114.07 C690.789,110.684 688.035,107.93 684.649,107.93 L645.351,107.93 Z M645.351,112.842 L684.649,112.842 C685.327,112.842 685.877,113.392 685.877,114.07 L685.877,115.298 C685.877,122.999 681.652,130.056 674.853,133.705 C674.069,134.125 673.596,134.959 673.596,135.849 L673.596,139.86 C673.596,140.538 673.046,141.088 672.368,141.088 L657.632,141.088 C656.954,141.088 656.404,140.538 656.404,139.86 L656.404,135.849 C656.404,134.959 655.931,134.125 655.147,133.705 C648.348,130.056 644.123,122.999 644.123,115.298 L644.123,114.07 C644.123,113.392 644.673,112.842 645.351,112.842 Z" />
        </g>
    </g>
</svg>