<?xml version="1.0" encoding="UTF-8"?>
<svg height="600" width="800" xmlns="http://www.w3.org/2000/svg" xmlns:xlink="http://www.w3.org/1999/xlink">
    <g id="Notes" font-family="'LucidaGrande', 'Lucida Grande', sans-serif" font-size="13">
        <rect fill="white" height="600.0" width="800.0" x="0.0" y="0.0" />
        <g font-size="13">
            <text x="18.0" y="176.0">Small</text>
            <text x="18.0" y="376.0">Medium</text>
            <text x="18.0" y="576.0">Large</text>
        </g>
        <g font-size="9">
            <text x="250.0" y="30.0">Ultralight</text>
            <text x="450.0" y="30.0">Regular</text>
            <text x="650.0" y="30.0">Black</text>
            <text id="template-version" fill="#505050" text-anchor="end" x="785.0" y="575.0">Template v.3.0</text>
            <a href="https://wangchujiang.com/#/app">
                <text fill="#505050" text-anchor="end" x="785.0" y="590.0">https://wangchujiang.com/#/app</text>
            </a>
        </g>
    </g>
    <g id="Guides" stroke="rgb(39, 170, 225)" stroke-width="0.5">
        <path id="Capline-S" d="M18,76 l800,0" />
        <path id="H-reference" d="M85,145.755 L87.685,145.755 L113.369,79.287 L114.052,79.287 L114.052,76 L112.148,76 L85,145.755 Z M95.693,121.536 L130.996,121.536 L130.263,119.313 L96.474,119.313 L95.693,121.536 Z M139.15,145.755 L141.787,145.755 L114.638,76 L113.466,76 L113.466,79.287 L139.15,145.755 Z" stroke="none" />
        <path id="Baseline-S" d="M18,146 l800,0" />
        <path id="left-margin-Ultralight-S" d="M211,56 l0,110" />
        <path id="right-margin-Ultralight-S" d="M319,56 l0,110" />
        <path id="left-margin-Regular-S" d="M411,56 l0,110" />
        <path id="right-margin-Regular-S" d="M519,56 l0,110" />
        <path id="left-margin-Black-S" d="M611,56 l0,110" />
        <path id="right-margin-Black-S" d="M719,56 l0,110" />
        <path id="Capline-M" d="M18,276 l800,0" />
        <path id="Baseline-M" d="M18,346 l800,0" />
        <path id="Capline-L" d="M18,476 l800,0" />
        <path id="Baseline-L" d="M18,546 l800,0" />
    </g>
    <g id="Symbols">
        <g id="Ultralight-S">
            <path d="M265,86.905 C232.098,86.905 223.095,109.952 223.095,114.143 L223.095,116.238 C223.095,118.553 224.97,120.429 227.286,120.429 L302.714,120.429 C305.03,120.429 306.905,118.553 306.905,116.238 L306.905,114.143 C306.905,109.952 297.902,86.905 265,86.905 Z M265,95.286 C286.654,95.286 294.99,104.115 297.865,112.048 L232.143,112.048 C235.037,104.115 243.347,95.286 265,95.286 Z M257.667,99.476 C255.351,99.476 253.476,101.351 253.476,103.667 C253.476,105.982 255.351,107.857 257.667,107.857 C259.982,107.857 261.857,105.982 261.857,103.667 C261.857,101.351 259.982,99.476 257.667,99.476 Z M246.143,103.667 C244.408,103.667 243,105.075 243,106.81 C243,108.544 244.408,109.952 246.143,109.952 C247.878,109.952 249.286,108.544 249.286,106.81 C249.286,105.075 247.878,103.667 246.143,103.667 Z M235.143,124.619 C233.203,124.619 228.254,126.714 225.19,126.714 C222.875,126.714 221,128.59 221,130.905 C221,133.22 222.875,135.095 225.19,135.095 C228.254,135.095 233.029,133.871 235.143,131.875 C237.257,133.871 242.032,135.095 245.095,135.095 C248.158,135.095 252.934,133.871 255.048,131.875 C257.162,133.871 261.937,135.095 265,135.095 C268.063,135.095 272.838,133.871 274.952,131.875 C277.066,133.871 281.842,135.095 284.905,135.095 C287.968,135.095 292.743,133.871 294.857,131.875 C296.971,133.871 301.746,135.095 304.81,135.095 C307.125,135.095 309,133.22 309,130.905 C309,128.59 307.125,126.714 304.81,126.714 C301.746,126.714 296.797,124.619 294.857,124.619 C292.917,124.619 287.968,126.714 284.905,126.714 C281.842,126.714 277.004,124.619 274.952,124.619 C272.901,124.619 268.063,126.714 265,126.714 C261.937,126.714 257.099,124.619 255.048,124.619 C252.996,124.619 248.158,126.714 245.095,126.714 C242.032,126.714 237.083,124.619 235.143,124.619 Z" />
        </g>
        <g id="Regular-S">
            <path d="M465,86.905 C432.098,86.905 423.095,109.952 423.095,114.143 L423.095,116.238 C423.095,118.553 424.97,120.429 427.286,120.429 L502.714,120.429 C505.03,120.429 506.905,118.553 506.905,116.238 L506.905,114.143 C506.905,109.952 497.902,86.905 465,86.905 Z M465,95.286 C486.654,95.286 494.99,104.115 497.865,112.048 L432.143,112.048 C435.037,104.115 443.347,95.286 465,95.286 Z M457.667,99.476 C455.351,99.476 453.476,101.351 453.476,103.667 C453.476,105.982 455.351,107.857 457.667,107.857 C459.982,107.857 461.857,105.982 461.857,103.667 C461.857,101.351 459.982,99.476 457.667,99.476 Z M446.143,103.667 C444.408,103.667 443,105.075 443,106.81 C443,108.544 444.408,109.952 446.143,109.952 C447.878,109.952 449.286,108.544 449.286,106.81 C449.286,105.075 447.878,103.667 446.143,103.667 Z M435.143,124.619 C433.203,124.619 428.254,126.714 425.19,126.714 C422.875,126.714 421,128.59 421,130.905 C421,133.22 422.875,135.095 425.19,135.095 C428.254,135.095 433.029,133.871 435.143,131.875 C437.257,133.871 442.032,135.095 445.095,135.095 C448.158,135.095 452.934,133.871 455.048,131.875 C457.162,133.871 461.937,135.095 465,135.095 C468.063,135.095 472.838,133.871 474.952,131.875 C477.066,133.871 481.842,135.095 484.905,135.095 C487.968,135.095 492.743,133.871 494.857,131.875 C496.971,133.871 501.746,135.095 504.81,135.095 C507.125,135.095 509,133.22 509,130.905 C509,128.59 507.125,126.714 504.81,126.714 C501.746,126.714 496.797,124.619 494.857,124.619 C492.917,124.619 487.968,126.714 484.905,126.714 C481.842,126.714 477.004,124.619 474.952,124.619 C472.901,124.619 468.063,126.714 465,126.714 C461.937,126.714 457.099,124.619 455.048,124.619 C452.996,124.619 448.158,126.714 445.095,126.714 C442.032,126.714 437.083,124.619 435.143,124.619 Z" />
        </g>
        <g id="Black-S">
            <path d="M665,86.905 C632.099,86.905 623.095,109.952 623.095,114.143 L623.095,116.238 C623.095,118.553 624.97,120.429 627.286,120.429 L702.714,120.429 C705.03,120.429 706.905,118.553 706.905,116.238 L706.905,114.143 C706.905,109.952 697.902,86.905 665,86.905 Z M665,95.286 C686.654,95.286 694.99,104.115 697.865,112.048 L632.143,112.048 C635.037,104.115 643.347,95.286 665,95.286 Z M657.667,99.476 C655.351,99.476 653.476,101.351 653.476,103.667 C653.476,105.982 655.351,107.857 657.667,107.857 C659.982,107.857 661.857,105.982 661.857,103.667 C661.857,101.351 659.982,99.476 657.667,99.476 Z M646.143,103.667 C644.408,103.667 643,105.075 643,106.81 C643,108.544 644.408,109.952 646.143,109.952 C647.878,109.952 649.286,108.544 649.286,106.81 C649.286,105.075 647.878,103.667 646.143,103.667 Z M635.143,124.619 C633.203,124.619 628.254,126.714 625.19,126.714 C622.875,126.714 621,128.59 621,130.905 C621,133.22 622.875,135.095 625.19,135.095 C628.254,135.095 633.029,133.871 635.143,131.875 C637.257,133.871 642.032,135.095 645.095,135.095 C648.159,135.095 652.934,133.871 655.048,131.875 C657.162,133.871 661.937,135.095 665,135.095 C668.063,135.095 672.838,133.871 674.952,131.875 C677.066,133.871 681.842,135.095 684.905,135.095 C687.968,135.095 692.743,133.871 694.857,131.875 C696.971,133.871 701.746,135.095 704.81,135.095 C707.125,135.095 709,133.22 709,130.905 C709,128.59 707.125,126.714 704.81,126.714 C701.746,126.714 696.797,124.619 694.857,124.619 C692.917,124.619 687.968,126.714 684.905,126.714 C681.842,126.714 677.004,124.619 674.952,124.619 C672.901,124.619 668.063,126.714 665,126.714 C661.937,126.714 657.099,124.619 655.048,124.619 C652.996,124.619 648.159,126.714 645.095,126.714 C642.032,126.714 637.083,124.619 635.143,124.619 Z" />
        </g>
    </g>
</svg>