<?xml version="1.0" encoding="UTF-8"?>
<svg height="600" width="800" xmlns="http://www.w3.org/2000/svg" xmlns:xlink="http://www.w3.org/1999/xlink">
    <g id="Notes" font-family="'LucidaGrande', 'Lucida Grande', sans-serif" font-size="13">
        <rect fill="white" height="600.0" width="800.0" x="0.0" y="0.0" />
        <g font-size="13">
            <text x="18.0" y="176.0">Small</text>
            <text x="18.0" y="376.0">Medium</text>
            <text x="18.0" y="576.0">Large</text>
        </g>
        <g font-size="9">
            <text x="250.0" y="30.0">Ultralight</text>
            <text x="450.0" y="30.0">Regular</text>
            <text x="650.0" y="30.0">Black</text>
            <text id="template-version" fill="#505050" text-anchor="end" x="785.0" y="575.0">Template v.3.0</text>
            <a href="https://wangchujiang.com/#/app">
                <text fill="#505050" text-anchor="end" x="785.0" y="590.0">https://wangchujiang.com/#/app</text>
            </a>
        </g>
    </g>
    <g id="Guides" stroke="rgb(39, 170, 225)" stroke-width="0.5">
        <path id="Capline-S" d="M18,76 l800,0" />
        <path id="H-reference" d="M85,145.755 L87.685,145.755 L113.369,79.287 L114.052,79.287 L114.052,76 L112.148,76 L85,145.755 Z M95.693,121.536 L130.996,121.536 L130.263,119.313 L96.474,119.313 L95.693,121.536 Z M139.15,145.755 L141.787,145.755 L114.638,76 L113.466,76 L113.466,79.287 L139.15,145.755 Z" stroke="none" />
        <path id="Baseline-S" d="M18,146 l800,0" />
        <path id="left-margin-Ultralight-S" d="M221,56 l0,110" />
        <path id="right-margin-Ultralight-S" d="M309,56 l0,110" />
        <path id="left-margin-Regular-S" d="M421,56 l0,110" />
        <path id="right-margin-Regular-S" d="M509,56 l0,110" />
        <path id="left-margin-Black-S" d="M621,56 l0,110" />
        <path id="right-margin-Black-S" d="M709,56 l0,110" />
        <path id="Capline-M" d="M18,276 l800,0" />
        <path id="Baseline-M" d="M18,346 l800,0" />
        <path id="Capline-L" d="M18,476 l800,0" />
        <path id="Baseline-L" d="M18,546 l800,0" />
    </g>
    <g id="Symbols">
        <g id="Ultralight-S">
            <path d="M252.372,146 C239.819,146 234.15,133.728 233.903,133.178 C233.532,132.355 233.529,131.369 234.102,130.673 C234.662,129.994 235.425,129.66 236.273,129.833 C237.351,129.881 239.827,129.12 240.766,125.422 C241.217,123.643 242.238,121.331 245.275,118.823 C248.183,116.42 251.517,115.888 253.923,115.912 C253.871,112.942 254.476,108.463 257.894,104.912 C261.488,101.18 266.113,99.75 268.981,99.206 C268.676,95.733 269.148,89.685 275.042,85.655 C280.751,81.75 281.593,78.072 281.627,77.918 C281.884,76.711 283.036,75.867 284.257,76.017 L287.87,76.48 C288.431,76.552 288.946,76.822 289.327,77.239 C289.556,77.493 294.969,83.571 296.22,94.506 C297.423,105.051 290.332,108.983 286.407,110.339 C286.839,113.265 286.918,118.421 283.806,123.904 C280.238,130.195 273.698,131.525 270.269,131.773 C268.113,145.595 253.058,146 252.372,146 Z M239.628,133.647 C241.785,136.842 246.484,141.971 253.992,141.167 C264.945,140.003 265.826,129.698 265.857,129.259 C265.903,128.63 266.198,128.046 266.673,127.634 C267.149,127.224 267.764,127.02 268.4,127.065 C268.708,127.084 276.293,127.521 279.676,121.56 C283.3,115.176 281.383,109.474 281.364,109.417 C281.13,108.746 281.209,108.005 281.581,107.399 C281.951,106.793 282.575,106.386 283.278,106.287 C284.225,106.146 292.595,104.618 291.503,95.043 C290.65,87.577 287.544,82.73 286.312,81.063 L285.549,80.966 C284.588,83.06 282.44,86.344 277.72,89.57 C272.081,93.426 273.921,100.303 274.002,100.594 C274.198,101.295 274.061,102.053 273.631,102.642 C273.2,103.229 272.524,103.591 271.796,103.614 C271.741,103.617 265.446,103.909 261.311,108.202 C257.612,112.045 258.874,117.988 258.888,118.047 C259.066,118.854 258.815,119.701 258.219,120.274 C257.624,120.846 256.774,121.074 255.973,120.866 C255.945,120.858 251.535,119.803 248.296,122.479 C246.263,124.159 245.784,125.488 245.23,127.027 C244.808,128.2 244.329,129.53 243.183,130.793 C241.913,132.195 240.698,133.085 239.628,133.647 Z" />
            <path d="M252.67,137.835 C251.05,137.835 249.536,137.285 248.396,136.153 C247.305,135.071 246.704,133.558 246.704,131.894 C246.703,129.642 247.762,127.3 249.606,125.467 C252.95,122.147 257.656,121.619 260.321,124.263 C260.323,124.263 260.323,124.263 260.323,124.264 C261.414,125.347 262.014,126.861 262.014,128.527 C262.013,130.778 260.955,133.12 259.111,134.951 C257.199,136.85 254.839,137.835 252.67,137.835 Z M256.047,127.338 C255.207,127.338 254.022,127.772 252.951,128.835 C251.845,129.934 251.451,131.134 251.451,131.892 C251.451,132.169 251.5,132.547 251.739,132.785 C252.314,133.356 254.169,133.17 255.768,131.583 C256.875,130.484 257.27,129.284 257.27,128.525 C257.27,128.249 257.22,127.869 256.982,127.632 L256.982,127.632 C256.792,127.443 256.462,127.338 256.047,127.338 Z" />
            <path d="M268.845,123.427 C267.74,123.427 266.659,123.157 265.686,122.587 C264.228,121.733 263.178,120.299 262.727,118.549 C262.159,116.345 262.576,113.834 263.868,111.662 C266.257,107.646 270.955,105.988 274.34,107.977 L274.34,107.977 C275.798,108.831 276.849,110.264 277.3,112.014 C277.868,114.219 277.453,116.73 276.161,118.902 C274.46,121.765 271.583,123.427 268.845,123.427 Z M271.147,111.874 C270.139,111.874 268.821,112.618 267.946,114.088 C267.306,115.165 267.073,116.391 267.325,117.365 C267.419,117.73 267.627,118.223 268.089,118.493 C269.066,119.066 270.953,118.382 272.085,116.476 C272.725,115.399 272.958,114.173 272.706,113.198 C272.611,112.833 272.403,112.34 271.942,112.071 C271.942,112.071 271.941,112.071 271.941,112.071 C271.717,111.941 271.446,111.874 271.147,111.874 Z" />
            <path d="M282.065,104.298 C281.373,104.298 280.683,104.167 280.016,103.892 C278.678,103.339 277.613,102.242 277.02,100.803 C276.247,98.927 276.312,96.636 277.2,94.516 C278.842,90.603 282.644,88.577 285.853,89.902 C287.191,90.455 288.255,91.552 288.849,92.991 C289.622,94.867 289.557,97.158 288.668,99.278 C287.369,102.382 284.71,104.298 282.065,104.298 Z M283.816,94.248 C283.202,94.248 282.16,94.963 281.577,96.35 C281.107,97.468 281.181,98.449 281.405,98.993 C281.482,99.18 281.617,99.419 281.826,99.506 C282.36,99.73 283.628,99.023 284.289,97.445 C284.759,96.326 284.685,95.345 284.461,94.801 C284.384,94.614 284.249,94.375 284.04,94.288 C283.976,94.261 283.9,94.248 283.816,94.248 Z" />
        </g>
        <g id="Regular-S">
            <path d="M452.373,146 C439.819,146 434.15,133.728 433.903,133.178 C433.532,132.355 433.529,131.369 434.102,130.673 C434.662,129.994 435.425,129.66 436.273,129.833 C437.351,129.881 439.827,129.12 440.766,125.422 C441.217,123.643 442.238,121.331 445.275,118.823 C448.183,116.42 451.517,115.888 453.923,115.912 C453.871,112.942 454.476,108.463 457.894,104.912 C461.488,101.18 466.113,99.75 468.981,99.206 C468.676,95.733 469.148,89.685 475.042,85.655 C480.751,81.75 481.593,78.072 481.627,77.918 C481.884,76.711 483.036,75.867 484.257,76.017 L487.87,76.48 C488.431,76.552 488.946,76.822 489.327,77.239 C489.556,77.493 494.969,83.571 496.22,94.506 C497.423,105.051 490.332,108.983 486.407,110.339 C486.839,113.265 486.918,118.421 483.806,123.904 C480.238,130.195 473.698,131.525 470.269,131.773 C468.113,145.595 453.058,146 452.373,146 Z M439.628,133.647 C441.785,136.842 446.484,141.971 453.992,141.167 C464.945,140.003 465.826,129.698 465.857,129.259 C465.904,128.63 466.198,128.046 466.673,127.634 C467.149,127.224 467.764,127.02 468.4,127.065 C468.708,127.084 476.293,127.521 479.677,121.56 C483.3,115.176 481.383,109.474 481.364,109.417 C481.13,108.746 481.209,108.005 481.581,107.399 C481.951,106.793 482.575,106.386 483.278,106.287 C484.225,106.146 492.595,104.618 491.503,95.043 C490.65,87.577 487.544,82.73 486.312,81.063 L485.549,80.966 C484.588,83.06 482.44,86.344 477.72,89.57 C472.081,93.426 473.921,100.303 474.002,100.594 C474.198,101.295 474.061,102.053 473.631,102.642 C473.2,103.229 472.524,103.591 471.796,103.614 C471.741,103.617 465.446,103.909 461.311,108.202 C457.612,112.045 458.874,117.988 458.888,118.047 C459.066,118.854 458.815,119.701 458.219,120.274 C457.624,120.846 456.774,121.074 455.973,120.866 C455.945,120.858 451.535,119.803 448.296,122.479 C446.263,124.159 445.784,125.488 445.23,127.027 C444.808,128.2 444.329,129.53 443.183,130.793 C441.913,132.195 440.698,133.085 439.628,133.647 Z" />
            <path d="M452.67,137.835 C451.05,137.835 449.536,137.285 448.396,136.153 C447.305,135.071 446.704,133.558 446.704,131.894 C446.703,129.642 447.762,127.3 449.606,125.467 C452.95,122.147 457.656,121.619 460.321,124.263 C460.323,124.263 460.323,124.263 460.323,124.264 C461.414,125.347 462.014,126.861 462.014,128.527 C462.013,130.778 460.955,133.12 459.111,134.951 C457.199,136.85 454.839,137.835 452.67,137.835 Z M456.047,127.338 C455.207,127.338 454.022,127.772 452.951,128.835 C451.845,129.934 451.451,131.134 451.451,131.892 C451.451,132.169 451.501,132.547 451.739,132.785 C452.314,133.356 454.169,133.17 455.768,131.583 C456.875,130.484 457.27,129.284 457.27,128.525 C457.27,128.249 457.22,127.869 456.982,127.632 L456.982,127.632 C456.792,127.443 456.462,127.338 456.047,127.338 Z" />
            <path d="M468.845,123.427 C467.74,123.427 466.659,123.157 465.686,122.587 C464.228,121.733 463.178,120.299 462.727,118.549 C462.159,116.345 462.576,113.834 463.868,111.662 C466.257,107.646 470.955,105.988 474.34,107.977 L474.34,107.977 C475.798,108.831 476.849,110.264 477.3,112.014 C477.868,114.219 477.453,116.73 476.161,118.902 C474.46,121.765 471.583,123.427 468.845,123.427 Z M471.147,111.874 C470.139,111.874 468.821,112.618 467.946,114.088 C467.306,115.165 467.073,116.391 467.325,117.365 C467.419,117.73 467.627,118.223 468.089,118.493 C469.066,119.066 470.953,118.382 472.085,116.476 C472.725,115.399 472.958,114.173 472.706,113.198 C472.611,112.833 472.403,112.34 471.942,112.071 C471.942,112.071 471.941,112.071 471.941,112.071 C471.717,111.941 471.446,111.874 471.147,111.874 Z" />
            <path d="M482.065,104.298 C481.373,104.298 480.683,104.167 480.016,103.892 C478.678,103.339 477.613,102.242 477.02,100.803 C476.247,98.927 476.312,96.636 477.2,94.516 C478.842,90.603 482.644,88.577 485.853,89.902 C487.191,90.455 488.255,91.552 488.849,92.991 C489.622,94.867 489.557,97.158 488.668,99.278 C487.369,102.382 484.71,104.298 482.065,104.298 Z M483.816,94.248 C483.202,94.248 482.16,94.963 481.577,96.35 C481.107,97.468 481.181,98.449 481.405,98.993 C481.482,99.18 481.617,99.419 481.826,99.506 C482.36,99.73 483.628,99.023 484.289,97.445 C484.759,96.326 484.686,95.345 484.461,94.801 C484.384,94.614 484.249,94.375 484.04,94.288 C483.976,94.261 483.9,94.248 483.816,94.248 Z" />
        </g>
        <g id="Black-S">
            <path d="M652.372,146 C639.819,146 634.15,133.728 633.902,133.178 C633.532,132.355 633.529,131.369 634.102,130.673 C634.662,129.994 635.425,129.66 636.273,129.833 C637.351,129.881 639.827,129.12 640.766,125.422 C641.217,123.643 642.238,121.331 645.275,118.823 C648.183,116.42 651.517,115.888 653.923,115.912 C653.871,112.942 654.476,108.463 657.894,104.912 C661.488,101.18 666.113,99.75 668.981,99.206 C668.676,95.733 669.148,89.685 675.042,85.655 C680.751,81.75 681.593,78.072 681.627,77.918 C681.884,76.711 683.036,75.867 684.257,76.017 L687.87,76.48 C688.431,76.552 688.946,76.822 689.327,77.239 C689.556,77.493 694.969,83.571 696.22,94.506 C697.423,105.051 690.332,108.983 686.407,110.339 C686.839,113.265 686.918,118.421 683.806,123.904 C680.238,130.195 673.698,131.525 670.269,131.773 C668.113,145.595 653.058,146 652.372,146 Z M639.628,133.647 C641.785,136.842 646.484,141.971 653.992,141.167 C664.945,140.003 665.826,129.698 665.857,129.259 C665.903,128.63 666.198,128.046 666.673,127.634 C667.149,127.224 667.764,127.02 668.4,127.065 C668.708,127.084 676.293,127.521 679.676,121.56 C683.3,115.176 681.383,109.474 681.364,109.417 C681.13,108.746 681.209,108.005 681.581,107.399 C681.951,106.793 682.575,106.386 683.278,106.287 C684.225,106.146 692.595,104.618 691.503,95.043 C690.65,87.577 687.544,82.73 686.312,81.063 L685.549,80.966 C684.588,83.06 682.44,86.344 677.72,89.57 C672.081,93.426 673.921,100.303 674.002,100.594 C674.198,101.295 674.061,102.053 673.631,102.642 C673.2,103.229 672.524,103.591 671.796,103.614 C671.741,103.617 665.445,103.909 661.311,108.202 C657.612,112.045 658.874,117.988 658.888,118.047 C659.066,118.854 658.815,119.701 658.219,120.274 C657.624,120.846 656.774,121.074 655.973,120.866 C655.945,120.858 651.535,119.803 648.296,122.479 C646.263,124.159 645.784,125.488 645.23,127.027 C644.808,128.2 644.329,129.53 643.183,130.793 C641.913,132.195 640.698,133.085 639.628,133.647 Z" />
            <path d="M652.67,137.835 C651.05,137.835 649.536,137.285 648.396,136.153 C647.305,135.071 646.704,133.558 646.704,131.894 C646.703,129.642 647.762,127.3 649.606,125.467 C652.95,122.147 657.656,121.619 660.321,124.263 C660.323,124.263 660.323,124.263 660.323,124.264 C661.414,125.347 662.014,126.861 662.014,128.527 C662.013,130.778 660.955,133.12 659.111,134.951 C657.199,136.85 654.839,137.835 652.67,137.835 Z M656.047,127.338 C655.207,127.338 654.022,127.772 652.951,128.835 C651.845,129.934 651.451,131.134 651.451,131.892 C651.451,132.169 651.5,132.547 651.739,132.785 C652.314,133.356 654.169,133.17 655.768,131.583 C656.875,130.484 657.27,129.284 657.27,128.525 C657.27,128.249 657.22,127.869 656.982,127.632 L656.982,127.632 C656.792,127.443 656.462,127.338 656.047,127.338 Z" />
            <path d="M668.845,123.427 C667.74,123.427 666.659,123.157 665.686,122.587 C664.228,121.733 663.178,120.299 662.727,118.549 C662.159,116.345 662.576,113.834 663.868,111.662 C666.257,107.646 670.955,105.988 674.34,107.977 L674.34,107.977 C675.798,108.831 676.849,110.264 677.3,112.014 C677.868,114.219 677.453,116.73 676.161,118.902 C674.46,121.765 671.583,123.427 668.845,123.427 Z M671.147,111.874 C670.139,111.874 668.821,112.618 667.946,114.088 C667.306,115.165 667.073,116.391 667.325,117.365 C667.419,117.73 667.627,118.223 668.089,118.493 C669.066,119.066 670.953,118.382 672.085,116.476 C672.725,115.399 672.958,114.173 672.706,113.198 C672.611,112.833 672.403,112.34 671.942,112.071 C671.942,112.071 671.941,112.071 671.941,112.071 C671.717,111.941 671.446,111.874 671.147,111.874 Z" />
            <path d="M682.065,104.298 C681.373,104.298 680.683,104.167 680.016,103.892 C678.677,103.339 677.613,102.242 677.02,100.803 C676.247,98.927 676.312,96.636 677.2,94.516 C678.842,90.603 682.644,88.577 685.853,89.902 C687.191,90.455 688.255,91.552 688.849,92.991 C689.622,94.867 689.557,97.158 688.668,99.278 C687.369,102.382 684.71,104.298 682.065,104.298 Z M683.816,94.248 C683.202,94.248 682.16,94.963 681.577,96.35 C681.107,97.468 681.181,98.449 681.405,98.993 C681.482,99.18 681.617,99.419 681.826,99.506 C682.36,99.73 683.628,99.023 684.289,97.445 C684.759,96.326 684.685,95.345 684.461,94.801 C684.384,94.614 684.249,94.375 684.04,94.288 C683.976,94.261 683.9,94.248 683.816,94.248 Z" />
        </g>
    </g>
</svg>