<?xml version="1.0" encoding="UTF-8"?>
<svg height="600" width="800" xmlns="http://www.w3.org/2000/svg" xmlns:xlink="http://www.w3.org/1999/xlink">
    <g id="Notes" font-family="'LucidaGrande', 'Lucida Grande', sans-serif" font-size="13">
        <rect fill="white" height="600.0" width="800.0" x="0.0" y="0.0" />
        <g font-size="13">
            <text x="18.0" y="176.0">Small</text>
            <text x="18.0" y="376.0">Medium</text>
            <text x="18.0" y="576.0">Large</text>
        </g>
        <g font-size="9">
            <text x="250.0" y="30.0">Ultralight</text>
            <text x="450.0" y="30.0">Regular</text>
            <text x="650.0" y="30.0">Black</text>
            <text id="template-version" fill="#505050" text-anchor="end" x="785.0" y="575.0">Template v.3.0</text>
            <a href="https://wangchujiang.com/#/app">
                <text fill="#505050" text-anchor="end" x="785.0" y="590.0">https://wangchujiang.com/#/app</text>
            </a>
        </g>
    </g>
    <g id="Guides" stroke="rgb(39, 170, 225)" stroke-width="0.5">
        <path id="Capline-S" d="M18,76 l800,0" />
        <path id="H-reference" d="M85,145.755 L87.685,145.755 L113.369,79.287 L114.052,79.287 L114.052,76 L112.148,76 L85,145.755 Z M95.693,121.536 L130.996,121.536 L130.263,119.313 L96.474,119.313 L95.693,121.536 Z M139.15,145.755 L141.787,145.755 L114.638,76 L113.466,76 L113.466,79.287 L139.15,145.755 Z" stroke="none" />
        <path id="Baseline-S" d="M18,146 l800,0" />
        <path id="left-margin-Ultralight-S" d="M219.895,56 l0,110" />
        <path id="right-margin-Ultralight-S" d="M310.105,56 l0,110" />
        <path id="left-margin-Regular-S" d="M419.895,56 l0,110" />
        <path id="right-margin-Regular-S" d="M510.105,56 l0,110" />
        <path id="left-margin-Black-S" d="M619.894,56 l0,110" />
        <path id="right-margin-Black-S" d="M710.106,56 l0,110" />
        <path id="Capline-M" d="M18,276 l800,0" />
        <path id="Baseline-M" d="M18,346 l800,0" />
        <path id="Capline-L" d="M18,476 l800,0" />
        <path id="Baseline-L" d="M18,546 l800,0" />
    </g>
    <g id="Symbols">
        <g id="Ultralight-S">
            <path d="M288.906,76.005 C281.999,76.176 273.636,80.667 268.545,85.466 L239.636,113.673 C232.677,120.995 225.957,136.21 232.663,142.891 C234.771,144.992 237.65,146 240.941,146 C247.001,146 254.457,142.581 261.09,136.251 L290.355,107.129 C300.128,96.97 302.973,84.8 296.976,78.825 C294.882,76.741 292.045,75.927 288.906,76.005 Z M289.264,82.019 C290.767,82.013 291.982,82.352 292.729,83.096 C295.784,86.139 293.815,94.847 286.062,102.909 L256.887,131.939 C248.735,139.718 239.976,141.676 236.915,138.624 C234.877,136.594 235.884,131.083 238.703,125.719 L254.693,125.719 C256.356,125.719 257.705,124.37 257.705,122.708 C257.705,121.045 256.356,119.696 254.693,119.696 L242.791,119.696 C243.06,119.385 243.331,119.075 243.612,118.778 L247.229,115.179 L263.728,115.179 C265.39,115.179 266.739,113.83 266.739,112.167 C266.739,110.505 265.39,109.156 263.728,109.156 L253.282,109.156 L257.82,104.638 L274.268,104.638 C275.931,104.638 277.28,103.289 277.28,101.627 C277.28,99.964 275.931,98.615 274.268,98.615 L263.872,98.615 L268.413,94.098 L283.303,94.098 C284.965,94.098 286.315,92.749 286.315,91.086 C286.315,89.424 284.965,88.075 283.303,88.075 L274.765,88.075 C279.46,84.415 285.342,82.037 289.264,82.019 Z" />
        </g>
        <g id="Regular-S">
            <path d="M488.906,76.005 C481.999,76.176 473.636,80.667 468.545,85.466 L439.636,113.673 C432.677,120.995 425.957,136.21 432.663,142.891 C434.771,144.992 437.65,146 440.941,146 C447.001,146 454.457,142.581 461.09,136.251 L490.355,107.129 C500.128,96.97 502.973,84.8 496.976,78.825 C494.882,76.741 492.045,75.927 488.906,76.005 Z M489.264,82.019 C490.767,82.013 491.982,82.352 492.729,83.096 C495.784,86.139 493.815,94.847 486.062,102.909 L456.887,131.939 C448.735,139.718 439.976,141.676 436.915,138.624 C434.877,136.594 435.884,131.083 438.703,125.719 L454.693,125.719 C456.356,125.719 457.705,124.37 457.705,122.708 C457.705,121.045 456.356,119.696 454.693,119.696 L442.791,119.696 C443.06,119.385 443.331,119.075 443.612,118.778 L447.229,115.179 L463.728,115.179 C465.39,115.179 466.739,113.83 466.739,112.167 C466.739,110.505 465.39,109.156 463.728,109.156 L453.282,109.156 L457.82,104.638 L474.268,104.638 C475.931,104.638 477.28,103.289 477.28,101.627 C477.28,99.964 475.931,98.615 474.268,98.615 L463.872,98.615 L468.413,94.098 L483.303,94.098 C484.965,94.098 486.315,92.749 486.315,91.086 C486.315,89.424 484.965,88.075 483.303,88.075 L474.765,88.075 C479.46,84.415 485.342,82.037 489.264,82.019 Z" />
        </g>
        <g id="Black-S">
            <path d="M688.906,76.005 C681.999,76.176 673.636,80.667 668.545,85.466 L639.635,113.673 C632.677,120.995 625.957,136.21 632.662,142.891 C634.771,144.992 637.65,146 640.941,146 C647.001,146 654.457,142.581 661.09,136.251 L690.355,107.129 C700.128,96.97 702.973,84.8 696.975,78.825 C694.882,76.741 692.045,75.927 688.906,76.005 Z M689.264,82.019 C690.767,82.013 691.982,82.352 692.729,83.096 C695.784,86.139 693.815,94.847 686.062,102.909 L656.887,131.939 C648.735,139.718 639.976,141.676 636.915,138.624 C634.877,136.594 635.884,131.083 638.703,125.719 L654.693,125.719 C656.356,125.719 657.705,124.37 657.705,122.708 C657.705,121.045 656.356,119.696 654.693,119.696 L642.791,119.696 C643.06,119.385 643.331,119.075 643.612,118.778 L647.229,115.179 L663.728,115.179 C665.39,115.179 666.739,113.83 666.739,112.167 C666.739,110.505 665.39,109.156 663.728,109.156 L653.282,109.156 L657.82,104.638 L674.268,104.638 C675.931,104.638 677.28,103.289 677.28,101.627 C677.28,99.964 675.931,98.615 674.268,98.615 L663.872,98.615 L668.413,94.098 L683.303,94.098 C684.965,94.098 686.315,92.749 686.315,91.086 C686.315,89.424 684.965,88.075 683.303,88.075 L674.765,88.075 C679.46,84.415 685.342,82.037 689.264,82.019 Z" />
        </g>
    </g>
</svg>