<?xml version="1.0" encoding="UTF-8"?>
<svg height="600" width="800" xmlns="http://www.w3.org/2000/svg" xmlns:xlink="http://www.w3.org/1999/xlink">
    <g id="Notes" font-family="'LucidaGrande', 'Lucida Grande', sans-serif" font-size="13">
        <rect fill="white" height="600.0" width="800.0" x="0.0" y="0.0" />
        <g font-size="13">
            <text x="18.0" y="176.0">Small</text>
            <text x="18.0" y="376.0">Medium</text>
            <text x="18.0" y="576.0">Large</text>
        </g>
        <g font-size="9">
            <text x="250.0" y="30.0">Ultralight</text>
            <text x="450.0" y="30.0">Regular</text>
            <text x="650.0" y="30.0">Black</text>
            <text id="template-version" fill="#505050" text-anchor="end" x="785.0" y="575.0">Template v.3.0</text>
            <a href="https://wangchujiang.com/#/app">
                <text fill="#505050" text-anchor="end" x="785.0" y="590.0">https://wangchujiang.com/#/app</text>
            </a>
        </g>
    </g>
    <g id="Guides" stroke="rgb(39, 170, 225)" stroke-width="0.5">
        <path id="Capline-S" d="M18,76 l800,0" />
        <path id="H-reference" d="M85,145.755 L87.685,145.755 L113.369,79.287 L114.052,79.287 L114.052,76 L112.148,76 L85,145.755 Z M95.693,121.536 L130.996,121.536 L130.263,119.313 L96.474,119.313 L95.693,121.536 Z M139.15,145.755 L141.787,145.755 L114.638,76 L113.466,76 L113.466,79.287 L139.15,145.755 Z" stroke="none" />
        <path id="Baseline-S" d="M18,146 l800,0" />
        <path id="left-margin-Ultralight-S" d="M221,56 l0,110" />
        <path id="right-margin-Ultralight-S" d="M309,56 l0,110" />
        <path id="left-margin-Regular-S" d="M421,56 l0,110" />
        <path id="right-margin-Regular-S" d="M509,56 l0,110" />
        <path id="left-margin-Black-S" d="M621,56 l0,110" />
        <path id="right-margin-Black-S" d="M709,56 l0,110" />
        <path id="Capline-M" d="M18,276 l800,0" />
        <path id="Baseline-M" d="M18,346 l800,0" />
        <path id="Capline-L" d="M18,476 l800,0" />
        <path id="Baseline-L" d="M18,546 l800,0" />
    </g>
    <g id="Symbols">
        <g id="Ultralight-S">
            <path d="M265,76 C264.501,76 264.001,76.26 263.744,76.778 L262.436,79.429 L259.509,79.856 C258.363,80.023 257.906,81.43 258.736,82.239 L260.854,84.304 L260.354,87.219 C260.158,88.361 261.357,89.231 262.383,88.693 L265,87.317 L267.617,88.695 C268.641,89.235 269.841,88.364 269.645,87.222 L269.143,84.306 L271.264,82.242 C272.094,81.433 271.634,80.023 270.488,79.856 L267.561,79.432 L266.253,76.778 C265.996,76.259 265.498,76 265,76 Z M265,90.891 C263.011,90.891 261.099,91.726 259.751,93.188 L252.397,101.156 C250.444,103.272 249.946,106.227 251.102,108.866 C251.361,109.458 251.7,109.991 252.084,110.475 L246.322,116.977 C244.434,119.109 243.986,122.047 245.153,124.644 C245.589,125.611 246.211,126.44 246.964,127.102 L240.7,134.092 C238.794,136.22 238.335,139.162 239.5,141.77 C240.665,144.379 243.164,146 246.021,146 L283.979,146 C286.836,146 289.334,144.38 290.499,141.77 C291.665,139.162 291.207,136.217 289.299,134.089 L283.038,127.102 C283.791,126.44 284.412,125.613 284.846,124.647 C286.015,122.048 285.566,119.108 283.677,116.977 L277.916,110.478 C278.301,109.993 278.638,109.459 278.898,108.866 C280.053,106.227 279.556,103.272 277.603,101.156 L270.248,93.188 C268.9,91.726 266.988,90.891 265,90.891 Z M265,96.603 C265.233,96.603 265.679,96.663 266.049,97.063 L273.404,105.029 C273.977,105.649 273.775,106.315 273.663,106.572 C273.55,106.831 273.196,107.429 272.355,107.429 L257.645,107.429 C256.802,107.429 256.449,106.831 256.336,106.572 C256.225,106.313 256.024,105.649 256.596,105.029 L263.951,97.063 C264.319,96.663 264.767,96.603 265,96.603 Z M257.371,113.123 C257.464,113.127 257.552,113.143 257.645,113.143 L272.355,113.143 C272.448,113.143 272.536,113.127 272.628,113.123 L279.4,120.768 C279.954,121.391 279.749,122.047 279.634,122.3 C279.52,122.553 279.166,123.143 278.331,123.143 L251.668,123.143 C250.834,123.143 250.48,122.55 250.365,122.297 C250.251,122.045 250.045,121.39 250.6,120.766 L257.371,113.123 Z M253.063,128.857 L276.939,128.857 L285.042,137.903 C285.6,138.526 285.394,139.186 285.282,139.44 C285.167,139.695 284.814,140.286 283.979,140.286 L246.021,140.286 C245.185,140.286 244.831,139.693 244.718,139.44 C244.605,139.185 244.401,138.526 244.958,137.903 L253.063,128.857 Z" />
        </g>
        <g id="Regular-S">
            <path d="M465,76 C464.501,76 464.001,76.26 463.744,76.778 L462.436,79.429 L459.509,79.856 C458.363,80.023 457.906,81.43 458.736,82.239 L460.854,84.304 L460.354,87.219 C460.158,88.361 461.357,89.231 462.383,88.693 L465,87.317 L467.617,88.695 C468.641,89.235 469.841,88.364 469.645,87.222 L469.143,84.306 L471.264,82.242 C472.094,81.433 471.634,80.023 470.488,79.856 L467.561,79.432 L466.253,76.778 C465.996,76.259 465.498,76 465,76 Z M465,90.891 C463.011,90.891 461.099,91.726 459.751,93.188 L452.397,101.156 C450.444,103.272 449.946,106.227 451.102,108.866 C451.361,109.458 451.7,109.991 452.084,110.475 L446.322,116.977 C444.434,119.109 443.986,122.047 445.153,124.644 C445.589,125.611 446.211,126.44 446.964,127.102 L440.7,134.092 C438.794,136.22 438.335,139.162 439.5,141.77 C440.665,144.379 443.164,146 446.021,146 L483.979,146 C486.836,146 489.334,144.38 490.499,141.77 C491.665,139.162 491.207,136.217 489.299,134.089 L483.038,127.102 C483.791,126.44 484.412,125.613 484.846,124.647 C486.015,122.048 485.566,119.108 483.677,116.977 L477.916,110.478 C478.301,109.993 478.638,109.459 478.898,108.866 C480.053,106.227 479.556,103.272 477.603,101.156 L470.248,93.188 C468.9,91.726 466.988,90.891 465,90.891 Z M465,96.603 C465.233,96.603 465.679,96.663 466.049,97.063 L473.404,105.029 C473.977,105.649 473.775,106.315 473.663,106.572 C473.55,106.831 473.196,107.429 472.355,107.429 L457.645,107.429 C456.802,107.429 456.449,106.831 456.336,106.572 C456.225,106.313 456.024,105.649 456.596,105.029 L463.951,97.063 C464.319,96.663 464.767,96.603 465,96.603 Z M457.371,113.123 C457.464,113.127 457.552,113.143 457.645,113.143 L472.355,113.143 C472.448,113.143 472.536,113.127 472.628,113.123 L479.4,120.768 C479.954,121.391 479.749,122.047 479.634,122.3 C479.52,122.553 479.166,123.143 478.331,123.143 L451.668,123.143 C450.834,123.143 450.48,122.55 450.365,122.297 C450.251,122.045 450.045,121.39 450.6,120.766 L457.371,113.123 Z M453.063,128.857 L476.939,128.857 L485.042,137.903 C485.6,138.526 485.394,139.186 485.282,139.44 C485.167,139.695 484.814,140.286 483.979,140.286 L446.021,140.286 C445.185,140.286 444.831,139.693 444.718,139.44 C444.605,139.185 444.401,138.526 444.958,137.903 L453.063,128.857 Z" />
        </g>
        <g id="Black-S">
            <path d="M665,76 C664.501,76 664.001,76.26 663.744,76.778 L662.436,79.429 L659.509,79.856 C658.363,80.023 657.906,81.43 658.736,82.239 L660.854,84.304 L660.354,87.219 C660.158,88.361 661.357,89.231 662.383,88.693 L665,87.317 L667.617,88.695 C668.641,89.235 669.841,88.364 669.645,87.222 L669.143,84.306 L671.264,82.242 C672.094,81.433 671.634,80.023 670.488,79.856 L667.561,79.432 L666.253,76.778 C665.996,76.259 665.498,76 665,76 Z M665,90.891 C663.011,90.891 661.099,91.726 659.751,93.188 L652.397,101.156 C650.444,103.272 649.946,106.227 651.102,108.866 C651.361,109.458 651.7,109.991 652.084,110.475 L646.322,116.977 C644.434,119.109 643.986,122.047 645.153,124.644 C645.589,125.611 646.211,126.44 646.964,127.102 L640.7,134.092 C638.794,136.22 638.335,139.162 639.5,141.77 C640.665,144.379 643.164,146 646.021,146 L683.979,146 C686.836,146 689.334,144.38 690.499,141.77 C691.665,139.162 691.207,136.217 689.299,134.089 L683.038,127.102 C683.791,126.44 684.412,125.613 684.846,124.647 C686.015,122.048 685.566,119.108 683.677,116.977 L677.916,110.478 C678.301,109.993 678.638,109.459 678.898,108.866 C680.053,106.227 679.556,103.272 677.603,101.156 L670.248,93.188 C668.9,91.726 666.988,90.891 665,90.891 Z M665,96.603 C665.233,96.603 665.679,96.663 666.049,97.063 L673.404,105.029 C673.977,105.649 673.775,106.315 673.663,106.572 C673.55,106.831 673.196,107.429 672.355,107.429 L657.645,107.429 C656.802,107.429 656.449,106.831 656.336,106.572 C656.225,106.313 656.024,105.649 656.596,105.029 L663.951,97.063 C664.319,96.663 664.767,96.603 665,96.603 Z M657.371,113.123 C657.464,113.127 657.552,113.143 657.645,113.143 L672.355,113.143 C672.448,113.143 672.536,113.127 672.628,113.123 L679.4,120.768 C679.954,121.391 679.749,122.047 679.634,122.3 C679.52,122.553 679.166,123.143 678.331,123.143 L651.668,123.143 C650.834,123.143 650.48,122.55 650.365,122.297 C650.251,122.045 650.045,121.39 650.6,120.766 L657.371,113.123 Z M653.063,128.857 L676.939,128.857 L685.042,137.903 C685.6,138.526 685.394,139.186 685.282,139.44 C685.167,139.695 684.814,140.286 683.979,140.286 L646.021,140.286 C645.185,140.286 644.831,139.693 644.718,139.44 C644.605,139.185 644.401,138.526 644.958,137.903 L653.063,128.857 Z" />
        </g>
    </g>
</svg>