<?xml version="1.0" encoding="UTF-8"?>
<svg height="600" width="800" xmlns="http://www.w3.org/2000/svg" xmlns:xlink="http://www.w3.org/1999/xlink">
    <g id="Notes" font-family="'LucidaGrande', 'Lucida Grande', sans-serif" font-size="13">
        <rect fill="white" height="600.0" width="800.0" x="0.0" y="0.0" />
        <g font-size="13">
            <text x="18.0" y="176.0">Small</text>
            <text x="18.0" y="376.0">Medium</text>
            <text x="18.0" y="576.0">Large</text>
        </g>
        <g font-size="9">
            <text x="250.0" y="30.0">Ultralight</text>
            <text x="450.0" y="30.0">Regular</text>
            <text x="650.0" y="30.0">Black</text>
            <text id="template-version" fill="#505050" text-anchor="end" x="785.0" y="575.0">Template v.3.0</text>
            <a href="https://wangchujiang.com/#/app">
                <text fill="#505050" text-anchor="end" x="785.0" y="590.0">https://wangchujiang.com/#/app</text>
            </a>
        </g>
    </g>
    <g id="Guides" stroke="rgb(39, 170, 225)" stroke-width="0.5">
        <path id="Capline-S" d="M18,76 l800,0" />
        <path id="H-reference" d="M85,145.755 L87.685,145.755 L113.369,79.287 L114.052,79.287 L114.052,76 L112.148,76 L85,145.755 Z M95.693,121.536 L130.996,121.536 L130.263,119.313 L96.474,119.313 L95.693,121.536 Z M139.15,145.755 L141.787,145.755 L114.638,76 L113.466,76 L113.466,79.287 L139.15,145.755 Z" stroke="none" />
        <path id="Baseline-S" d="M18,146 l800,0" />
        <path id="left-margin-Ultralight-S" d="M219.952,56 l0,110" />
        <path id="right-margin-Ultralight-S" d="M310.048,56 l0,110" />
        <path id="left-margin-Regular-S" d="M419.952,56 l0,110" />
        <path id="right-margin-Regular-S" d="M510.048,56 l0,110" />
        <path id="left-margin-Black-S" d="M619.952,56 l0,110" />
        <path id="right-margin-Black-S" d="M710.048,56 l0,110" />
        <path id="Capline-M" d="M18,276 l800,0" />
        <path id="Baseline-M" d="M18,346 l800,0" />
        <path id="Capline-L" d="M18,476 l800,0" />
        <path id="Baseline-L" d="M18,546 l800,0" />
    </g>
    <g id="Symbols">
        <g id="Ultralight-S">
            <path d="M258.882,76 C256.043,76.019 253.456,77.8 252.477,80.556 L230.115,142.366 C229.754,143.368 230.002,144.489 230.757,145.244 C231.282,145.769 232.653,146.219 233.635,145.885 L295.501,123.51 C298.61,122.389 300.485,119.211 299.96,115.956 C298.945,109.587 295.932,97.594 287.163,88.84 C278.616,80.291 266.536,77.189 260.109,76.102 C259.697,76.031 259.288,75.998 258.882,76 Z M259.183,81.519 C263.845,82.307 275.527,84.975 283.276,92.724 C290.947,100.383 293.618,111.107 294.53,116.823 C294.634,117.475 294.258,118.112 293.633,118.337 C293.633,118.337 289.559,119.811 288.801,120.085 C287.42,114.492 284.012,102.76 278.627,97.374 C272.83,91.576 261.672,88.615 255.895,87.27 L257.653,82.411 C257.849,81.857 258.529,81.401 259.183,81.519 Z M254.072,92.311 C260.537,93.456 269.607,96.13 274.74,101.261 C279.497,106.02 282.507,117.297 283.598,121.967 C278.751,123.72 275.292,124.97 267.038,127.956 C264.959,123.933 260.791,121.309 256.066,121.309 C249.245,121.309 243.696,126.859 243.696,133.679 C243.696,134.573 243.798,135.445 243.981,136.296 C242.577,136.804 237.28,138.72 237.28,138.72 L254.072,92.311 Z M264.313,99.318 C259.009,99.318 254.692,103.633 254.692,108.939 C254.692,114.244 259.009,118.56 264.313,118.56 C269.617,118.56 273.934,114.244 273.934,108.939 C273.934,103.633 269.617,99.318 264.313,99.318 Z M264.313,104.815 C266.586,104.815 268.436,106.665 268.436,108.939 C268.436,111.212 266.586,113.062 264.313,113.062 C262.04,113.062 260.19,111.212 260.19,108.939 C260.19,106.665 262.04,104.815 264.313,104.815 Z M256.066,126.807 C258.431,126.807 260.54,127.993 261.779,129.859 C255.614,132.089 253.427,132.879 249.234,134.396 C249.21,134.16 249.194,133.921 249.194,133.679 C249.194,129.89 252.277,126.807 256.066,126.807 Z" />
        </g>
        <g id="Regular-S">
            <path d="M458.882,76 C456.043,76.019 453.456,77.8 452.477,80.556 L430.115,142.366 C429.754,143.368 430.002,144.489 430.757,145.244 C431.282,145.769 432.653,146.219 433.635,145.885 L495.501,123.51 C498.61,122.389 500.485,119.211 499.96,115.956 C498.945,109.587 495.932,97.594 487.163,88.84 C478.616,80.291 466.536,77.189 460.109,76.102 C459.697,76.031 459.288,75.998 458.882,76 Z M459.183,81.519 C463.845,82.307 475.527,84.975 483.276,92.724 C490.947,100.383 493.618,111.107 494.53,116.823 C494.634,117.475 494.258,118.112 493.633,118.337 C493.633,118.337 489.559,119.811 488.801,120.085 C487.42,114.492 484.012,102.76 478.627,97.374 C472.83,91.576 461.672,88.615 455.895,87.27 L457.653,82.411 C457.849,81.857 458.529,81.401 459.183,81.519 Z M454.072,92.311 C460.537,93.456 469.607,96.13 474.74,101.261 C479.497,106.02 482.507,117.297 483.598,121.967 C478.751,123.72 475.292,124.97 467.038,127.956 C464.959,123.933 460.791,121.309 456.066,121.309 C449.245,121.309 443.696,126.859 443.696,133.679 C443.696,134.573 443.798,135.445 443.981,136.296 C442.577,136.804 437.28,138.72 437.28,138.72 L454.072,92.311 Z M464.313,99.318 C459.009,99.318 454.692,103.633 454.692,108.939 C454.692,114.244 459.009,118.56 464.313,118.56 C469.617,118.56 473.934,114.244 473.934,108.939 C473.934,103.633 469.617,99.318 464.313,99.318 Z M464.313,104.815 C466.586,104.815 468.436,106.665 468.436,108.939 C468.436,111.212 466.586,113.062 464.313,113.062 C462.04,113.062 460.19,111.212 460.19,108.939 C460.19,106.665 462.04,104.815 464.313,104.815 Z M456.066,126.807 C458.431,126.807 460.54,127.993 461.779,129.859 C455.614,132.089 453.427,132.879 449.234,134.396 C449.21,134.16 449.194,133.921 449.194,133.679 C449.194,129.89 452.277,126.807 456.066,126.807 Z" />
        </g>
        <g id="Black-S">
            <path d="M658.882,76 C656.043,76.019 653.456,77.8 652.477,80.556 L630.115,142.366 C629.754,143.368 630.002,144.489 630.757,145.244 C631.282,145.769 632.653,146.219 633.635,145.885 L695.501,123.51 C698.61,122.389 700.485,119.211 699.96,115.956 C698.945,109.587 695.932,97.594 687.163,88.84 C678.616,80.291 666.536,77.189 660.109,76.102 C659.697,76.031 659.288,75.998 658.882,76 Z M659.183,81.519 C663.845,82.307 675.527,84.975 683.276,92.724 C690.947,100.383 693.618,111.107 694.53,116.823 C694.634,117.475 694.258,118.112 693.633,118.337 C693.633,118.337 689.559,119.811 688.801,120.085 C687.42,114.492 684.012,102.76 678.627,97.374 C672.83,91.576 661.672,88.615 655.895,87.27 L657.653,82.411 C657.849,81.857 658.529,81.401 659.183,81.519 Z M654.072,92.311 C660.537,93.456 669.607,96.13 674.74,101.261 C679.497,106.02 682.507,117.297 683.598,121.967 C678.751,123.72 675.292,124.97 667.038,127.956 C664.959,123.933 660.791,121.309 656.066,121.309 C649.245,121.309 643.696,126.859 643.696,133.679 C643.696,134.573 643.798,135.445 643.981,136.296 C642.577,136.804 637.28,138.72 637.28,138.72 L654.072,92.311 Z M664.313,99.318 C659.009,99.318 654.692,103.633 654.692,108.939 C654.692,114.244 659.009,118.56 664.313,118.56 C669.617,118.56 673.934,114.244 673.934,108.939 C673.934,103.633 669.617,99.318 664.313,99.318 Z M664.313,104.815 C666.586,104.815 668.436,106.665 668.436,108.939 C668.436,111.212 666.586,113.062 664.313,113.062 C662.04,113.062 660.19,111.212 660.19,108.939 C660.19,106.665 662.04,104.815 664.313,104.815 Z M656.066,126.807 C658.431,126.807 660.54,127.993 661.779,129.859 C655.614,132.089 653.427,132.879 649.234,134.396 C649.21,134.16 649.194,133.921 649.194,133.679 C649.194,129.89 652.277,126.807 656.066,126.807 Z" />
        </g>
    </g>
</svg>